<svg width="328" height="278" viewBox="0 0 328 278" fill="none" xmlns="http://www.w3.org/2000/svg">
<path d="M10.3867 22H7V8.94531L2.95703 10.1992V7.44531L10.0234 4.91406H10.3867V22ZM27.4258 14.9453C27.4258 17.3047 26.9375 19.1094 25.9609 20.3594C24.9844 21.6094 23.5547 22.2344 21.6719 22.2344C19.8125 22.2344 18.3906 21.6211 17.4062 20.3945C16.4219 19.168 15.918 17.4102 15.8945 15.1211V11.9805C15.8945 9.59766 16.3867 7.78906 17.3711 6.55469C18.3633 5.32031 19.7891 4.70312 21.6484 4.70312C23.5078 4.70312 24.9297 5.31641 25.9141 6.54297C26.8984 7.76172 27.4023 9.51562 27.4258 11.8047V14.9453ZM24.0391 11.5C24.0391 10.0859 23.8438 9.05859 23.4531 8.41797C23.0703 7.76953 22.4688 7.44531 21.6484 7.44531C20.8516 7.44531 20.2617 7.75391 19.8789 8.37109C19.5039 8.98047 19.3047 9.9375 19.2812 11.2422V15.3906C19.2812 16.7812 19.4688 17.8164 19.8438 18.4961C20.2266 19.168 20.8359 19.5039 21.6719 19.5039C22.5 19.5039 23.0977 19.1797 23.4648 18.5312C23.832 17.8828 24.0234 16.8906 24.0391 15.5547V11.5ZM46.8672 9.32031V22H43.4805V12.0625H40.4922L40.2812 15.9766C40.1484 18.0625 39.7383 19.582 39.0508 20.5352C38.3633 21.4883 37.3398 21.9766 35.9805 22H34.832L34.7969 19.2461L35.2188 19.2109C35.8281 19.1641 36.2734 18.8047 36.5547 18.1328C36.8359 17.4609 37.0117 16.3164 37.082 14.6992L37.3164 9.32031H46.8672ZM55.3164 22.2344C53.457 22.2344 51.9414 21.6641 50.7695 20.5234C49.6055 19.3828 49.0234 17.8633 49.0234 15.9648V15.6367C49.0234 14.3633 49.2695 13.2266 49.7617 12.2266C50.2539 11.2188 50.9492 10.4453 51.8477 9.90625C52.7539 9.35938 53.7852 9.08594 54.9414 9.08594C56.6758 9.08594 58.0391 9.63281 59.0312 10.7266C60.0312 11.8203 60.5312 13.3711 60.5312 15.3789V16.7617H52.457C52.5664 17.5898 52.8945 18.2539 53.4414 18.7539C53.9961 19.2539 54.6953 19.5039 55.5391 19.5039C56.8438 19.5039 57.8633 19.0312 58.5977 18.0859L60.2617 19.9492C59.7539 20.668 59.0664 21.2305 58.1992 21.6367C57.332 22.0352 56.3711 22.2344 55.3164 22.2344ZM54.9297 11.8281C54.2578 11.8281 53.7109 12.0547 53.2891 12.5078C52.875 12.9609 52.6094 13.6094 52.4922 14.4531H57.2031V14.1836C57.1875 13.4336 56.9844 12.8555 56.5938 12.4492C56.2031 12.0352 55.6484 11.8281 54.9297 11.8281ZM72.8477 12.0391H68.7812V22H65.3828V12.0391H61.3867V9.32031H72.8477V12.0391ZM8 40H6.73535V36.8418H3.33789V40H2.06641V32.6035H3.33789V35.8096H6.73535V32.6035H8V40ZM14.6035 40C14.5306 39.8542 14.4714 39.5944 14.4258 39.2207C13.8379 39.8314 13.1361 40.1367 12.3203 40.1367C11.5911 40.1367 10.9919 39.9316 10.5225 39.5215C10.0576 39.1068 9.8252 38.5827 9.8252 37.9492C9.8252 37.179 10.1169 36.582 10.7002 36.1582C11.2881 35.7298 12.113 35.5156 13.1748 35.5156H14.4053V34.9346C14.4053 34.4925 14.2731 34.1416 14.0088 33.8818C13.7445 33.6175 13.3548 33.4854 12.8398 33.4854C12.3887 33.4854 12.0104 33.5993 11.7051 33.8271C11.3997 34.055 11.2471 34.3307 11.2471 34.6543H9.97559C9.97559 34.2852 10.1055 33.9297 10.3652 33.5879C10.6296 33.2415 10.985 32.9681 11.4316 32.7676C11.8828 32.5671 12.3773 32.4668 12.915 32.4668C13.7673 32.4668 14.4349 32.681 14.918 33.1094C15.401 33.5332 15.6517 34.1188 15.6699 34.8662V38.2705C15.6699 38.9495 15.7565 39.4896 15.9297 39.8906V40H14.6035ZM12.5049 39.0361C12.9014 39.0361 13.2773 38.9336 13.6328 38.7285C13.9883 38.5234 14.2458 38.2568 14.4053 37.9287V36.4111H13.4141C11.8646 36.4111 11.0898 36.8646 11.0898 37.7715C11.0898 38.168 11.222 38.4779 11.4863 38.7012C11.7507 38.9245 12.0902 39.0361 12.5049 39.0361ZM27.373 36.3838C27.373 37.5094 27.1156 38.4163 26.6006 39.1045C26.0856 39.7926 25.3883 40.1367 24.5088 40.1367C23.611 40.1367 22.9046 39.8519 22.3896 39.2822V42.8438H21.125V32.6035H22.2803L22.3418 33.4238C22.8568 32.7858 23.5723 32.4668 24.4883 32.4668C25.377 32.4668 26.0788 32.8018 26.5938 33.4717C27.1133 34.1416 27.373 35.0736 27.373 36.2676V36.3838ZM26.1084 36.2402C26.1084 35.4062 25.9307 34.7477 25.5752 34.2646C25.2197 33.7816 24.7321 33.54 24.1123 33.54C23.3467 33.54 22.7725 33.8796 22.3896 34.5586V38.0928C22.7679 38.7673 23.3467 39.1045 24.126 39.1045C24.7321 39.1045 25.2129 38.8652 25.5684 38.3867C25.9284 37.9036 26.1084 37.1882 26.1084 36.2402ZM30.3672 35.1533H32.2881C33.1266 35.1624 33.7897 35.3812 34.2773 35.8096C34.765 36.238 35.0088 36.819 35.0088 37.5527C35.0088 38.291 34.7581 38.8835 34.2568 39.3301C33.7555 39.7767 33.0811 40 32.2334 40H29.1025V32.6035H30.3672V35.1533ZM37.6475 40H36.376V32.6035H37.6475V40ZM30.3672 36.1855V38.9678H32.2471C32.721 38.9678 33.0879 38.847 33.3477 38.6055C33.6074 38.3594 33.7373 38.0244 33.7373 37.6006C33.7373 37.1904 33.6097 36.8555 33.3545 36.5957C33.1038 36.3314 32.7507 36.1947 32.2949 36.1855H30.3672ZM45.8984 40H44.6338V36.8418H41.2363V40H39.9648V32.6035H41.2363V35.8096H44.6338V32.6035H45.8984V40ZM50.2393 36.8486H49.3164V40H48.0449V32.6035H49.3164V35.7344H50.1436L52.6318 32.6035H54.1631L51.2373 36.1582L54.4092 40H52.8027L50.2393 36.8486ZM58.4561 40.1367C57.4535 40.1367 56.6377 39.8086 56.0088 39.1523C55.3799 38.4915 55.0654 37.6097 55.0654 36.5068V36.2744C55.0654 35.5407 55.2044 34.8867 55.4824 34.3125C55.765 33.7337 56.1569 33.2826 56.6582 32.959C57.1641 32.6309 57.7109 32.4668 58.2988 32.4668C59.2604 32.4668 60.0078 32.7835 60.541 33.417C61.0742 34.0505 61.3408 34.9574 61.3408 36.1377V36.6641H56.3301C56.3483 37.3932 56.5602 37.9834 56.9658 38.4346C57.376 38.8812 57.8955 39.1045 58.5244 39.1045C58.971 39.1045 59.3493 39.0133 59.6592 38.8311C59.9691 38.6488 60.2402 38.4072 60.4727 38.1064L61.2451 38.708C60.6253 39.6605 59.6956 40.1367 58.4561 40.1367ZM58.2988 33.5059C57.7884 33.5059 57.36 33.6927 57.0137 34.0664C56.6673 34.4355 56.4531 34.9551 56.3711 35.625H60.0762V35.5293C60.0397 34.8867 59.8665 34.39 59.5566 34.0391C59.2467 33.6836 58.8275 33.5059 58.2988 33.5059ZM73.8027 36.8418C73.6797 37.8945 73.29 38.708 72.6338 39.2822C71.9821 39.8519 71.1139 40.1367 70.0293 40.1367C68.8535 40.1367 67.9102 39.7152 67.1992 38.8721C66.4928 38.029 66.1396 36.901 66.1396 35.4883V34.5312C66.1396 33.6061 66.3037 32.7926 66.6318 32.0908C66.9645 31.389 67.4339 30.8512 68.04 30.4775C68.6462 30.0993 69.348 29.9102 70.1455 29.9102C71.2028 29.9102 72.0505 30.2064 72.6885 30.7988C73.3265 31.3867 73.6979 32.2025 73.8027 33.2461H72.4834C72.3695 32.4531 72.1211 31.8789 71.7383 31.5234C71.36 31.168 70.8291 30.9902 70.1455 30.9902C69.307 30.9902 68.6484 31.3001 68.1699 31.9199C67.696 32.5397 67.459 33.4215 67.459 34.5654V35.5293C67.459 36.6094 67.6846 37.4684 68.1357 38.1064C68.5869 38.7445 69.2181 39.0635 70.0293 39.0635C70.7585 39.0635 71.3167 38.8994 71.7041 38.5713C72.096 38.2386 72.3558 37.6621 72.4834 36.8418H73.8027ZM77.2959 30.0469L80.5498 38.168L83.8037 30.0469H85.5059V40H84.1934V36.124L84.3164 31.9404L81.0488 40H80.0439L76.7832 31.9609L76.9131 36.124V40H75.6006V30.0469H77.2959ZM94.0986 30.0469H95.4111V40H94.0986V32.3301L89.1973 40H87.8779V30.0469H89.1973V37.7168L94.0986 30.0469Z" fill="#323232"/>
<path d="M12.6562 183.785H5.03906V187.09H7.78125C9.78906 187.09 11.3789 187.578 12.5508 188.555C13.7305 189.523 14.3203 190.832 14.3203 192.48C14.3203 194.137 13.7344 195.469 12.5625 196.477C11.3984 197.477 9.84766 197.984 7.91016 198H1.48828V180.938H12.6562V183.785ZM5.03906 189.926V195.176H7.83984C8.73828 195.176 9.45312 194.93 9.98438 194.438C10.5234 193.945 10.793 193.285 10.793 192.457C10.793 191.684 10.5352 191.074 10.0195 190.629C9.51172 190.176 8.8125 189.941 7.92188 189.926H5.03906ZM15.8203 191.543C15.8203 190.285 16.0625 189.164 16.5469 188.18C17.0312 187.195 17.7266 186.434 18.6328 185.895C19.5469 185.355 20.6055 185.086 21.8086 185.086C23.5195 185.086 24.9141 185.609 25.9922 186.656C27.0781 187.703 27.6836 189.125 27.8086 190.922L27.832 191.789C27.832 193.734 27.2891 195.297 26.2031 196.477C25.1172 197.648 23.6602 198.234 21.832 198.234C20.0039 198.234 18.543 197.648 17.4492 196.477C16.3633 195.305 15.8203 193.711 15.8203 191.695V191.543ZM19.207 191.789C19.207 192.992 19.4336 193.914 19.8867 194.555C20.3398 195.188 20.9883 195.504 21.832 195.504C22.6523 195.504 23.293 195.191 23.7539 194.566C24.2148 193.934 24.4453 192.926 24.4453 191.543C24.4453 190.363 24.2148 189.449 23.7539 188.801C23.293 188.152 22.6445 187.828 21.8086 187.828C20.9805 187.828 20.3398 188.152 19.8867 188.801C19.4336 189.441 19.207 190.438 19.207 191.789ZM40.7578 185.32V198H37.3711V188.062H34.3828L34.1719 191.977C34.0391 194.062 33.6289 195.582 32.9414 196.535C32.2539 197.488 31.2305 197.977 29.8711 198H28.7227L28.6875 195.246L29.1094 195.211C29.7188 195.164 30.1641 194.805 30.4453 194.133C30.7266 193.461 30.9023 192.316 30.9727 190.699L31.207 185.32H40.7578ZM49.207 198.234C47.3477 198.234 45.832 197.664 44.6602 196.523C43.4961 195.383 42.9141 193.863 42.9141 191.965V191.637C42.9141 190.363 43.1602 189.227 43.6523 188.227C44.1445 187.219 44.8398 186.445 45.7383 185.906C46.6445 185.359 47.6758 185.086 48.832 185.086C50.5664 185.086 51.9297 185.633 52.9219 186.727C53.9219 187.82 54.4219 189.371 54.4219 191.379V192.762H46.3477C46.457 193.59 46.7852 194.254 47.332 194.754C47.8867 195.254 48.5859 195.504 49.4297 195.504C50.7344 195.504 51.7539 195.031 52.4883 194.086L54.1523 195.949C53.6445 196.668 52.957 197.23 52.0898 197.637C51.2227 198.035 50.2617 198.234 49.207 198.234ZM48.8203 187.828C48.1484 187.828 47.6016 188.055 47.1797 188.508C46.7656 188.961 46.5 189.609 46.3828 190.453H51.0938V190.184C51.0781 189.434 50.875 188.855 50.4844 188.449C50.0938 188.035 49.5391 187.828 48.8203 187.828ZM62.1914 198.234C60.332 198.234 58.8164 197.664 57.6445 196.523C56.4805 195.383 55.8984 193.863 55.8984 191.965V191.637C55.8984 190.363 56.1445 189.227 56.6367 188.227C57.1289 187.219 57.8242 186.445 58.7227 185.906C59.6289 185.359 60.6602 185.086 61.8164 185.086C63.5508 185.086 64.9141 185.633 65.9062 186.727C66.9062 187.82 67.4062 189.371 67.4062 191.379V192.762H59.332C59.4414 193.59 59.7695 194.254 60.3164 194.754C60.8711 195.254 61.5703 195.504 62.4141 195.504C63.7188 195.504 64.7383 195.031 65.4727 194.086L67.1367 195.949C66.6289 196.668 65.9414 197.23 65.0742 197.637C64.207 198.035 63.2461 198.234 62.1914 198.234ZM61.8047 187.828C61.1328 187.828 60.5859 188.055 60.1641 188.508C59.75 188.961 59.4844 189.609 59.3672 190.453H64.0781V190.184C64.0625 189.434 63.8594 188.855 63.4688 188.449C63.0781 188.035 62.5234 187.828 61.8047 187.828ZM83.4023 198H80.0156V184.945L75.9727 186.199V183.445L83.0391 180.914H83.4023V198ZM100.441 190.945C100.441 193.305 99.9531 195.109 98.9766 196.359C98 197.609 96.5703 198.234 94.6875 198.234C92.8281 198.234 91.4062 197.621 90.4219 196.395C89.4375 195.168 88.9336 193.41 88.9102 191.121V187.98C88.9102 185.598 89.4023 183.789 90.3867 182.555C91.3789 181.32 92.8047 180.703 94.6641 180.703C96.5234 180.703 97.9453 181.316 98.9297 182.543C99.9141 183.762 100.418 185.516 100.441 187.805V190.945ZM97.0547 187.5C97.0547 186.086 96.8594 185.059 96.4688 184.418C96.0859 183.77 95.4844 183.445 94.6641 183.445C93.8672 183.445 93.2773 183.754 92.8945 184.371C92.5195 184.98 92.3203 185.938 92.2969 187.242V191.391C92.2969 192.781 92.4844 193.816 92.8594 194.496C93.2422 195.168 93.8516 195.504 94.6875 195.504C95.5156 195.504 96.1133 195.18 96.4805 194.531C96.8477 193.883 97.0391 192.891 97.0547 191.555V187.5ZM119.883 185.32V198H116.496V188.062H113.508L113.297 191.977C113.164 194.062 112.754 195.582 112.066 196.535C111.379 197.488 110.355 197.977 108.996 198H107.848L107.812 195.246L108.234 195.211C108.844 195.164 109.289 194.805 109.57 194.133C109.852 193.461 110.027 192.316 110.098 190.699L110.332 185.32H119.883ZM128.332 198.234C126.473 198.234 124.957 197.664 123.785 196.523C122.621 195.383 122.039 193.863 122.039 191.965V191.637C122.039 190.363 122.285 189.227 122.777 188.227C123.27 187.219 123.965 186.445 124.863 185.906C125.77 185.359 126.801 185.086 127.957 185.086C129.691 185.086 131.055 185.633 132.047 186.727C133.047 187.82 133.547 189.371 133.547 191.379V192.762H125.473C125.582 193.59 125.91 194.254 126.457 194.754C127.012 195.254 127.711 195.504 128.555 195.504C129.859 195.504 130.879 195.031 131.613 194.086L133.277 195.949C132.77 196.668 132.082 197.23 131.215 197.637C130.348 198.035 129.387 198.234 128.332 198.234ZM127.945 187.828C127.273 187.828 126.727 188.055 126.305 188.508C125.891 188.961 125.625 189.609 125.508 190.453H130.219V190.184C130.203 189.434 130 188.855 129.609 188.449C129.219 188.035 128.664 187.828 127.945 187.828ZM145.863 188.039H141.797V198H138.398V188.039H134.402V185.32H145.863V188.039ZM164.543 198H161.145V193.125H156.938V198H153.551V185.32H156.938V190.406H161.145V185.32H164.543V198ZM174.516 198C174.359 197.695 174.246 197.316 174.176 196.863C173.355 197.777 172.289 198.234 170.977 198.234C169.734 198.234 168.703 197.875 167.883 197.156C167.07 196.438 166.664 195.531 166.664 194.438C166.664 193.094 167.16 192.062 168.152 191.344C169.152 190.625 170.594 190.262 172.477 190.254H174.035V189.527C174.035 188.941 173.883 188.473 173.578 188.121C173.281 187.77 172.809 187.594 172.16 187.594C171.59 187.594 171.141 187.73 170.812 188.004C170.492 188.277 170.332 188.652 170.332 189.129H166.945C166.945 188.395 167.172 187.715 167.625 187.09C168.078 186.465 168.719 185.977 169.547 185.625C170.375 185.266 171.305 185.086 172.336 185.086C173.898 185.086 175.137 185.48 176.051 186.27C176.973 187.051 177.434 188.152 177.434 189.574V195.07C177.441 196.273 177.609 197.184 177.938 197.801V198H174.516ZM171.715 195.645C172.215 195.645 172.676 195.535 173.098 195.316C173.52 195.09 173.832 194.789 174.035 194.414V192.234H172.77C171.074 192.234 170.172 192.82 170.062 193.992L170.051 194.191C170.051 194.613 170.199 194.961 170.496 195.234C170.793 195.508 171.199 195.645 171.715 195.645ZM197.426 191.777C197.426 193.73 196.98 195.297 196.09 196.477C195.207 197.648 194.012 198.234 192.504 198.234C191.223 198.234 190.188 197.789 189.398 196.898V202.875H186.012V185.32H189.152L189.27 186.562C190.09 185.578 191.16 185.086 192.48 185.086C194.043 185.086 195.258 185.664 196.125 186.82C196.992 187.977 197.426 189.57 197.426 191.602V191.777ZM194.039 191.531C194.039 190.352 193.828 189.441 193.406 188.801C192.992 188.16 192.387 187.84 191.59 187.84C190.527 187.84 189.797 188.246 189.398 189.059V194.25C189.812 195.086 190.551 195.504 191.613 195.504C193.23 195.504 194.039 194.18 194.039 191.531ZM203.156 189.035H205.582C206.676 189.035 207.637 189.219 208.465 189.586C209.293 189.953 209.926 190.48 210.363 191.168C210.809 191.848 211.031 192.641 211.031 193.547C211.031 194.883 210.535 195.961 209.543 196.781C208.559 197.594 207.215 198 205.512 198H199.758V185.32H203.156V189.035ZM216.422 198H213.035V185.32H216.422V198ZM203.156 191.754V195.293H205.559C206.23 195.293 206.746 195.137 207.105 194.824C207.465 194.512 207.645 194.086 207.645 193.547C207.645 193 207.469 192.566 207.117 192.246C206.766 191.918 206.246 191.754 205.559 191.754H203.156ZM230.402 198H227.004V193.125H222.797V198H219.41V185.32H222.797V190.406H227.004V185.32H230.402V198ZM237.996 193.324H236.637V198H233.25V185.32H236.637V190.09H237.844L240.609 185.32H244.887L240.738 191.355L245.273 198H240.762L237.996 193.324ZM252.199 198.234C250.34 198.234 248.824 197.664 247.652 196.523C246.488 195.383 245.906 193.863 245.906 191.965V191.637C245.906 190.363 246.152 189.227 246.645 188.227C247.137 187.219 247.832 186.445 248.73 185.906C249.637 185.359 250.668 185.086 251.824 185.086C253.559 185.086 254.922 185.633 255.914 186.727C256.914 187.82 257.414 189.371 257.414 191.379V192.762H249.34C249.449 193.59 249.777 194.254 250.324 194.754C250.879 195.254 251.578 195.504 252.422 195.504C253.727 195.504 254.746 195.031 255.48 194.086L257.145 195.949C256.637 196.668 255.949 197.23 255.082 197.637C254.215 198.035 253.254 198.234 252.199 198.234ZM251.812 187.828C251.141 187.828 250.594 188.055 250.172 188.508C249.758 188.961 249.492 189.609 249.375 190.453H254.086V190.184C254.07 189.434 253.867 188.855 253.477 188.449C253.086 188.035 252.531 187.828 251.812 187.828ZM269.285 198H265.77V180.938H269.285V198ZM285.047 183.785H279.82V198H276.305V183.785H271.148V180.938H285.047V183.785ZM3.92383 221.104C4.375 221.104 4.76921 220.968 5.10645 220.694C5.44368 220.421 5.63053 220.079 5.66699 219.669H6.86328C6.84049 220.093 6.69466 220.496 6.42578 220.879C6.1569 221.262 5.79688 221.567 5.3457 221.795C4.89909 222.023 4.42513 222.137 3.92383 222.137C2.91667 222.137 2.11458 221.802 1.51758 221.132C0.92513 220.457 0.628906 219.537 0.628906 218.37V218.158C0.628906 217.438 0.761068 216.798 1.02539 216.237C1.28971 215.677 1.66797 215.242 2.16016 214.932C2.6569 214.622 3.24251 214.467 3.91699 214.467C4.74642 214.467 5.43457 214.715 5.98145 215.212C6.53288 215.709 6.82682 216.354 6.86328 217.146H5.66699C5.63053 216.668 5.44824 216.276 5.12012 215.971C4.79655 215.661 4.39551 215.506 3.91699 215.506C3.27441 215.506 2.77539 215.738 2.41992 216.203C2.06901 216.663 1.89355 217.331 1.89355 218.206V218.445C1.89355 219.298 2.06901 219.954 2.41992 220.414C2.77083 220.874 3.27214 221.104 3.92383 221.104ZM7.9502 218.233C7.9502 217.509 8.09147 216.857 8.37402 216.278C8.66113 215.7 9.05762 215.253 9.56348 214.938C10.0739 214.624 10.6549 214.467 11.3066 214.467C12.3138 214.467 13.1273 214.815 13.7471 215.513C14.3714 216.21 14.6836 217.137 14.6836 218.295V218.384C14.6836 219.104 14.5446 219.751 14.2666 220.325C13.9932 220.895 13.599 221.339 13.084 221.658C12.5736 221.977 11.9857 222.137 11.3203 222.137C10.3177 222.137 9.50423 221.788 8.87988 221.091C8.26009 220.394 7.9502 219.471 7.9502 218.322V218.233ZM9.22168 218.384C9.22168 219.204 9.41081 219.863 9.78906 220.359C10.1719 220.856 10.6823 221.104 11.3203 221.104C11.9629 221.104 12.4733 220.854 12.8516 220.353C13.2298 219.847 13.4189 219.14 13.4189 218.233C13.4189 217.422 13.2253 216.766 12.8379 216.265C12.4551 215.759 11.9447 215.506 11.3066 215.506C10.6823 215.506 10.1787 215.754 9.7959 216.251C9.41309 216.748 9.22168 217.459 9.22168 218.384ZM16.3857 222V214.604H19.2705C20.2549 214.604 21.0091 214.777 21.5332 215.123C22.0618 215.465 22.3262 215.968 22.3262 216.634C22.3262 216.976 22.2236 217.285 22.0186 217.563C21.8135 217.837 21.5104 218.047 21.1094 218.192C21.556 218.297 21.9137 218.502 22.1826 218.808C22.4561 219.113 22.5928 219.478 22.5928 219.901C22.5928 220.58 22.3421 221.1 21.8408 221.46C21.3441 221.82 20.64 222 19.7285 222H16.3857ZM17.6504 218.753V220.981H19.7422C20.2708 220.981 20.665 220.883 20.9248 220.688C21.1891 220.492 21.3213 220.216 21.3213 219.86C21.3213 219.122 20.779 218.753 19.6943 218.753H17.6504ZM17.6504 217.741H19.2842C20.4691 217.741 21.0615 217.395 21.0615 216.702C21.0615 216.009 20.501 215.652 19.3799 215.629H17.6504V217.741ZM27.3369 222.137C26.3343 222.137 25.5186 221.809 24.8896 221.152C24.2607 220.492 23.9463 219.61 23.9463 218.507V218.274C23.9463 217.541 24.0853 216.887 24.3633 216.312C24.6458 215.734 25.0378 215.283 25.5391 214.959C26.0449 214.631 26.5918 214.467 27.1797 214.467C28.1413 214.467 28.8887 214.784 29.4219 215.417C29.9551 216.05 30.2217 216.957 30.2217 218.138V218.664H25.2109C25.2292 219.393 25.4411 219.983 25.8467 220.435C26.2568 220.881 26.7764 221.104 27.4053 221.104C27.8519 221.104 28.2301 221.013 28.54 220.831C28.8499 220.649 29.1211 220.407 29.3535 220.106L30.126 220.708C29.5062 221.66 28.5765 222.137 27.3369 222.137ZM27.1797 215.506C26.6693 215.506 26.2409 215.693 25.8945 216.066C25.5482 216.436 25.334 216.955 25.252 217.625H28.957V217.529C28.9206 216.887 28.7474 216.39 28.4375 216.039C28.1276 215.684 27.7083 215.506 27.1797 215.506ZM37.9395 218.384C37.9395 219.509 37.682 220.416 37.167 221.104C36.652 221.793 35.9548 222.137 35.0752 222.137C34.1774 222.137 33.471 221.852 32.9561 221.282V224.844H31.6914V214.604H32.8467L32.9082 215.424C33.4232 214.786 34.1387 214.467 35.0547 214.467C35.9434 214.467 36.6452 214.802 37.1602 215.472C37.6797 216.142 37.9395 217.074 37.9395 218.268V218.384ZM36.6748 218.24C36.6748 217.406 36.4971 216.748 36.1416 216.265C35.7861 215.782 35.2985 215.54 34.6787 215.54C33.9131 215.54 33.3389 215.88 32.9561 216.559V220.093C33.3343 220.767 33.9131 221.104 34.6924 221.104C35.2985 221.104 35.7793 220.865 36.1348 220.387C36.4948 219.904 36.6748 219.188 36.6748 218.24ZM40.9336 214.604V220.968H43.6406V214.604H44.9053V220.968H47.6055V214.604H48.877V222H39.6621V214.604H40.9336ZM53.9424 222.137C52.9398 222.137 52.124 221.809 51.4951 221.152C50.8662 220.492 50.5518 219.61 50.5518 218.507V218.274C50.5518 217.541 50.6908 216.887 50.9688 216.312C51.2513 215.734 51.6432 215.283 52.1445 214.959C52.6504 214.631 53.1973 214.467 53.7852 214.467C54.7467 214.467 55.4941 214.784 56.0273 215.417C56.5605 216.05 56.8271 216.957 56.8271 218.138V218.664H51.8164C51.8346 219.393 52.0465 219.983 52.4521 220.435C52.8623 220.881 53.3818 221.104 54.0107 221.104C54.4574 221.104 54.8356 221.013 55.1455 220.831C55.4554 220.649 55.7266 220.407 55.959 220.106L56.7314 220.708C56.1117 221.66 55.182 222.137 53.9424 222.137ZM53.7852 215.506C53.2747 215.506 52.8464 215.693 52.5 216.066C52.1536 216.436 51.9395 216.955 51.8574 217.625H55.5625V217.529C55.526 216.887 55.3529 216.39 55.043 216.039C54.7331 215.684 54.3138 215.506 53.7852 215.506ZM64.3398 222H63.0752V218.842H59.6777V222H58.4062V214.604H59.6777V217.81H63.0752V214.604H64.3398V222ZM69.3438 221.104C69.7949 221.104 70.1891 220.968 70.5264 220.694C70.8636 220.421 71.0505 220.079 71.0869 219.669H72.2832C72.2604 220.093 72.1146 220.496 71.8457 220.879C71.5768 221.262 71.2168 221.567 70.7656 221.795C70.319 222.023 69.8451 222.137 69.3438 222.137C68.3366 222.137 67.5345 221.802 66.9375 221.132C66.3451 220.457 66.0488 219.537 66.0488 218.37V218.158C66.0488 217.438 66.181 216.798 66.4453 216.237C66.7096 215.677 67.0879 215.242 67.5801 214.932C68.0768 214.622 68.6624 214.467 69.3369 214.467C70.1663 214.467 70.8545 214.715 71.4014 215.212C71.9528 215.709 72.2467 216.354 72.2832 217.146H71.0869C71.0505 216.668 70.8682 216.276 70.54 215.971C70.2165 215.661 69.8154 215.506 69.3369 215.506C68.6943 215.506 68.1953 215.738 67.8398 216.203C67.4889 216.663 67.3135 217.331 67.3135 218.206V218.445C67.3135 219.298 67.4889 219.954 67.8398 220.414C68.1908 220.874 68.6921 221.104 69.3438 221.104ZM79.2012 215.629H76.7197V222H75.4551V215.629H73.0215V214.604H79.2012V215.629ZM80.5479 222V214.604H83.4326C84.417 214.604 85.1712 214.777 85.6953 215.123C86.224 215.465 86.4883 215.968 86.4883 216.634C86.4883 216.976 86.3857 217.285 86.1807 217.563C85.9756 217.837 85.6725 218.047 85.2715 218.192C85.7181 218.297 86.0758 218.502 86.3447 218.808C86.6182 219.113 86.7549 219.478 86.7549 219.901C86.7549 220.58 86.5042 221.1 86.0029 221.46C85.5062 221.82 84.8021 222 83.8906 222H80.5479ZM81.8125 218.753V220.981H83.9043C84.4329 220.981 84.8271 220.883 85.0869 220.688C85.3512 220.492 85.4834 220.216 85.4834 219.86C85.4834 219.122 84.9411 218.753 83.8564 218.753H81.8125ZM81.8125 217.741H83.4463C84.6312 217.741 85.2236 217.395 85.2236 216.702C85.2236 216.009 84.6631 215.652 83.542 215.629H81.8125V217.741ZM90.7676 220.147L92.4902 214.604H93.8438L90.8701 223.142C90.4098 224.372 89.6784 224.987 88.6758 224.987L88.4365 224.967L87.9648 224.878V223.853L88.3066 223.88C88.735 223.88 89.0677 223.793 89.3047 223.62C89.5462 223.447 89.7445 223.13 89.8994 222.67L90.1797 221.918L87.541 214.604H88.9219L90.7676 220.147ZM97.9521 222.137C96.9495 222.137 96.1338 221.809 95.5049 221.152C94.876 220.492 94.5615 219.61 94.5615 218.507V218.274C94.5615 217.541 94.7005 216.887 94.9785 216.312C95.2611 215.734 95.653 215.283 96.1543 214.959C96.6602 214.631 97.207 214.467 97.7949 214.467C98.7565 214.467 99.5039 214.784 100.037 215.417C100.57 216.05 100.837 216.957 100.837 218.138V218.664H95.8262C95.8444 219.393 96.0563 219.983 96.4619 220.435C96.8721 220.881 97.3916 221.104 98.0205 221.104C98.4671 221.104 98.8454 221.013 99.1553 220.831C99.4652 220.649 99.7363 220.407 99.9688 220.106L100.741 220.708C100.121 221.66 99.1917 222.137 97.9521 222.137ZM97.7949 215.506C97.2845 215.506 96.8561 215.693 96.5098 216.066C96.1634 216.436 95.9492 216.955 95.8672 217.625H99.5723V217.529C99.5358 216.887 99.3626 216.39 99.0527 216.039C98.7428 215.684 98.3236 215.506 97.7949 215.506ZM106.565 220.325L109.081 214.604H110.66V222H109.396V216.62L107.003 222H106.128L103.688 216.504V222H102.423V214.604H104.063L106.565 220.325ZM120.948 215.649H117.537V222H116.266V214.604H120.948V215.649ZM121.577 218.233C121.577 217.509 121.718 216.857 122.001 216.278C122.288 215.7 122.685 215.253 123.19 214.938C123.701 214.624 124.282 214.467 124.934 214.467C125.941 214.467 126.754 214.815 127.374 215.513C127.998 216.21 128.311 217.137 128.311 218.295V218.384C128.311 219.104 128.172 219.751 127.894 220.325C127.62 220.895 127.226 221.339 126.711 221.658C126.201 221.977 125.613 222.137 124.947 222.137C123.945 222.137 123.131 221.788 122.507 221.091C121.887 220.394 121.577 219.471 121.577 218.322V218.233ZM122.849 218.384C122.849 219.204 123.038 219.863 123.416 220.359C123.799 220.856 124.309 221.104 124.947 221.104C125.59 221.104 126.1 220.854 126.479 220.353C126.857 219.847 127.046 219.14 127.046 218.233C127.046 217.422 126.852 216.766 126.465 216.265C126.082 215.759 125.572 215.506 124.934 215.506C124.309 215.506 123.806 215.754 123.423 216.251C123.04 216.748 122.849 217.459 122.849 218.384ZM136.145 218.384C136.145 219.509 135.887 220.416 135.372 221.104C134.857 221.793 134.16 222.137 133.28 222.137C132.382 222.137 131.676 221.852 131.161 221.282V224.844H129.896V214.604H131.052L131.113 215.424C131.628 214.786 132.344 214.467 133.26 214.467C134.148 214.467 134.85 214.802 135.365 215.472C135.885 216.142 136.145 217.074 136.145 218.268V218.384ZM134.88 218.24C134.88 217.406 134.702 216.748 134.347 216.265C133.991 215.782 133.504 215.54 132.884 215.54C132.118 215.54 131.544 215.88 131.161 216.559V220.093C131.539 220.767 132.118 221.104 132.897 221.104C133.504 221.104 133.984 220.865 134.34 220.387C134.7 219.904 134.88 219.188 134.88 218.24ZM137.423 218.233C137.423 217.509 137.564 216.857 137.847 216.278C138.134 215.7 138.53 215.253 139.036 214.938C139.547 214.624 140.128 214.467 140.779 214.467C141.786 214.467 142.6 214.815 143.22 215.513C143.844 216.21 144.156 217.137 144.156 218.295V218.384C144.156 219.104 144.017 219.751 143.739 220.325C143.466 220.895 143.072 221.339 142.557 221.658C142.046 221.977 141.458 222.137 140.793 222.137C139.79 222.137 138.977 221.788 138.353 221.091C137.733 220.394 137.423 219.471 137.423 218.322V218.233ZM138.694 218.384C138.694 219.204 138.883 219.863 139.262 220.359C139.645 220.856 140.155 221.104 140.793 221.104C141.436 221.104 141.946 220.854 142.324 220.353C142.702 219.847 142.892 219.14 142.892 218.233C142.892 217.422 142.698 216.766 142.311 216.265C141.928 215.759 141.417 215.506 140.779 215.506C140.155 215.506 139.651 215.754 139.269 216.251C138.886 216.748 138.694 217.459 138.694 218.384ZM145.188 220.968L145.626 220.428C146.118 219.79 146.398 218.833 146.467 217.557L146.583 214.604H151.348V220.968H152.298V224.174H151.033V222H145.872V224.174H144.607L144.614 220.968H145.188ZM146.686 220.968H150.083V215.772H147.807L147.731 217.536C147.654 219.008 147.305 220.152 146.686 220.968ZM156.666 221.104C157.117 221.104 157.511 220.968 157.849 220.694C158.186 220.421 158.373 220.079 158.409 219.669H159.605C159.583 220.093 159.437 220.496 159.168 220.879C158.899 221.262 158.539 221.567 158.088 221.795C157.641 222.023 157.167 222.137 156.666 222.137C155.659 222.137 154.857 221.802 154.26 221.132C153.667 220.457 153.371 219.537 153.371 218.37V218.158C153.371 217.438 153.503 216.798 153.768 216.237C154.032 215.677 154.41 215.242 154.902 214.932C155.399 214.622 155.985 214.467 156.659 214.467C157.489 214.467 158.177 214.715 158.724 215.212C159.275 215.709 159.569 216.354 159.605 217.146H158.409C158.373 216.668 158.19 216.276 157.862 215.971C157.539 215.661 157.138 215.506 156.659 215.506C156.017 215.506 155.518 215.738 155.162 216.203C154.811 216.663 154.636 217.331 154.636 218.206V218.445C154.636 219.298 154.811 219.954 155.162 220.414C155.513 220.874 156.014 221.104 156.666 221.104ZM163.331 218.849H162.408V222H161.137V214.604H162.408V217.734H163.235L165.724 214.604H167.255L164.329 218.158L167.501 222H165.895L163.331 218.849ZM171.008 220.147L172.73 214.604H174.084L171.11 223.142C170.65 224.372 169.919 224.987 168.916 224.987L168.677 224.967L168.205 224.878V223.853L168.547 223.88C168.975 223.88 169.308 223.793 169.545 223.62C169.786 223.447 169.985 223.13 170.14 222.67L170.42 221.918L167.781 214.604H169.162L171.008 220.147ZM176.6 217.741H178.377C178.473 216.757 178.821 215.966 179.423 215.369C180.029 214.768 180.792 214.467 181.713 214.467C182.679 214.467 183.47 214.793 184.085 215.444C184.7 216.096 185.033 216.944 185.083 217.987L185.09 218.384C185.09 219.104 184.949 219.753 184.666 220.332C184.383 220.911 183.987 221.357 183.477 221.672C182.966 221.982 182.383 222.137 181.727 222.137C180.774 222.137 179.995 221.827 179.389 221.207C178.783 220.583 178.443 219.774 178.37 218.78H176.6V222H175.335V214.604H176.6V217.741ZM179.621 218.384C179.621 219.204 179.81 219.863 180.188 220.359C180.571 220.856 181.084 221.104 181.727 221.104C182.369 221.104 182.877 220.852 183.251 220.346C183.629 219.84 183.818 219.136 183.818 218.233C183.818 217.427 183.627 216.771 183.244 216.265C182.861 215.759 182.351 215.506 181.713 215.506C181.084 215.506 180.578 215.754 180.195 216.251C179.812 216.748 179.621 217.459 179.621 218.384ZM189.786 218.233C189.786 217.509 189.927 216.857 190.21 216.278C190.497 215.7 190.894 215.253 191.399 214.938C191.91 214.624 192.491 214.467 193.143 214.467C194.15 214.467 194.963 214.815 195.583 215.513C196.207 216.21 196.52 217.137 196.52 218.295V218.384C196.52 219.104 196.381 219.751 196.103 220.325C195.829 220.895 195.435 221.339 194.92 221.658C194.41 221.977 193.822 222.137 193.156 222.137C192.154 222.137 191.34 221.788 190.716 221.091C190.096 220.394 189.786 219.471 189.786 218.322V218.233ZM191.058 218.384C191.058 219.204 191.247 219.863 191.625 220.359C192.008 220.856 192.518 221.104 193.156 221.104C193.799 221.104 194.309 220.854 194.688 220.353C195.066 219.847 195.255 219.14 195.255 218.233C195.255 217.422 195.061 216.766 194.674 216.265C194.291 215.759 193.781 215.506 193.143 215.506C192.518 215.506 192.015 215.754 191.632 216.251C191.249 216.748 191.058 217.459 191.058 218.384ZM204.148 222H202.884V218.842H199.486V222H198.215V214.604H199.486V217.81H202.884V214.604H204.148V222ZM212.249 214.604V222H210.978V215.649H208.462L208.312 218.418C208.229 219.689 208.015 220.599 207.669 221.146C207.327 221.692 206.783 221.977 206.035 222H205.529V220.886L205.892 220.858C206.302 220.813 206.596 220.576 206.773 220.147C206.951 219.719 207.065 218.926 207.115 217.769L207.252 214.604H212.249ZM218.846 222C218.773 221.854 218.714 221.594 218.668 221.221C218.08 221.831 217.378 222.137 216.562 222.137C215.833 222.137 215.234 221.932 214.765 221.521C214.3 221.107 214.067 220.583 214.067 219.949C214.067 219.179 214.359 218.582 214.942 218.158C215.53 217.73 216.355 217.516 217.417 217.516H218.647V216.935C218.647 216.493 218.515 216.142 218.251 215.882C217.987 215.618 217.597 215.485 217.082 215.485C216.631 215.485 216.253 215.599 215.947 215.827C215.642 216.055 215.489 216.331 215.489 216.654H214.218C214.218 216.285 214.348 215.93 214.607 215.588C214.872 215.242 215.227 214.968 215.674 214.768C216.125 214.567 216.619 214.467 217.157 214.467C218.009 214.467 218.677 214.681 219.16 215.109C219.643 215.533 219.894 216.119 219.912 216.866V220.271C219.912 220.95 219.999 221.49 220.172 221.891V222H218.846ZM216.747 221.036C217.144 221.036 217.52 220.934 217.875 220.729C218.23 220.523 218.488 220.257 218.647 219.929V218.411H217.656C216.107 218.411 215.332 218.865 215.332 219.771C215.332 220.168 215.464 220.478 215.729 220.701C215.993 220.924 216.332 221.036 216.747 221.036ZM226.68 214.604H227.944V222H226.68V216.606L223.269 222H222.004V214.604H223.269V220.004L226.68 214.604ZM227.021 211.91C227.021 212.462 226.832 212.906 226.454 213.243C226.08 213.576 225.588 213.742 224.978 213.742C224.367 213.742 223.872 213.574 223.494 213.236C223.116 212.899 222.927 212.457 222.927 211.91H223.959C223.959 212.229 224.046 212.48 224.219 212.662C224.392 212.84 224.645 212.929 224.978 212.929C225.297 212.929 225.545 212.84 225.723 212.662C225.905 212.484 225.996 212.234 225.996 211.91H227.021ZM236.018 222H234.753V218.842H231.355V222H230.084V214.604H231.355V217.81H234.753V214.604H236.018V222ZM240.687 218.288H237.351V217.256H240.687V218.288ZM247.974 222H246.709V215.649H243.305V222H242.033V214.604H247.974V222ZM256.067 214.604V222H254.796V215.649H252.28L252.13 218.418C252.048 219.689 251.834 220.599 251.487 221.146C251.146 221.692 250.601 221.977 249.854 222H249.348V220.886L249.71 220.858C250.12 220.813 250.414 220.576 250.592 220.147C250.77 219.719 250.883 218.926 250.934 217.769L251.07 214.604H256.067ZM262.664 222C262.591 221.854 262.532 221.594 262.486 221.221C261.898 221.831 261.197 222.137 260.381 222.137C259.652 222.137 259.052 221.932 258.583 221.521C258.118 221.107 257.886 220.583 257.886 219.949C257.886 219.179 258.177 218.582 258.761 218.158C259.349 217.73 260.174 217.516 261.235 217.516H262.466V216.935C262.466 216.493 262.334 216.142 262.069 215.882C261.805 215.618 261.415 215.485 260.9 215.485C260.449 215.485 260.071 215.599 259.766 215.827C259.46 216.055 259.308 216.331 259.308 216.654H258.036C258.036 216.285 258.166 215.93 258.426 215.588C258.69 215.242 259.046 214.968 259.492 214.768C259.943 214.567 260.438 214.467 260.976 214.467C261.828 214.467 262.495 214.681 262.979 215.109C263.462 215.533 263.712 216.119 263.73 216.866V220.271C263.73 220.95 263.817 221.49 263.99 221.891V222H262.664ZM260.565 221.036C260.962 221.036 261.338 220.934 261.693 220.729C262.049 220.523 262.306 220.257 262.466 219.929V218.411H261.475C259.925 218.411 259.15 218.865 259.15 219.771C259.15 220.168 259.283 220.478 259.547 220.701C259.811 220.924 260.151 221.036 260.565 221.036ZM271.1 215.629H268.618V222H267.354V215.629H264.92V214.604H271.1V215.629ZM271.51 218.438C271.51 217.203 271.749 216.233 272.228 215.526C272.706 214.82 273.362 214.467 274.196 214.467C274.584 214.467 274.923 214.533 275.215 214.665V211.5H276.479V214.706C276.799 214.547 277.172 214.467 277.601 214.467C278.439 214.467 279.098 214.82 279.576 215.526C280.055 216.233 280.294 217.251 280.294 218.582C280.294 219.671 280.055 220.537 279.576 221.18C279.102 221.822 278.448 222.144 277.614 222.144C277.172 222.144 276.794 222.071 276.479 221.925V224.844H275.215V221.945C274.914 222.077 274.57 222.144 274.183 222.144C273.353 222.144 272.699 221.822 272.221 221.18C271.747 220.537 271.51 219.658 271.51 218.541V218.438ZM279.029 218.438C279.029 217.509 278.87 216.789 278.551 216.278C278.232 215.763 277.792 215.506 277.231 215.506C276.944 215.506 276.694 215.551 276.479 215.643V220.995C276.685 221.073 276.94 221.111 277.245 221.111C277.81 221.111 278.248 220.893 278.558 220.455C278.872 220.018 279.029 219.345 279.029 218.438ZM272.774 218.582C272.774 219.411 272.923 220.04 273.219 220.469C273.515 220.897 273.941 221.111 274.497 221.111C274.761 221.111 275.001 221.07 275.215 220.988V215.622C275.023 215.545 274.789 215.506 274.511 215.506C273.955 215.506 273.526 215.754 273.226 216.251C272.925 216.748 272.774 217.525 272.774 218.582ZM281.606 218.233C281.606 217.509 281.748 216.857 282.03 216.278C282.317 215.7 282.714 215.253 283.22 214.938C283.73 214.624 284.311 214.467 284.963 214.467C285.97 214.467 286.784 214.815 287.403 215.513C288.028 216.21 288.34 217.137 288.34 218.295V218.384C288.34 219.104 288.201 219.751 287.923 220.325C287.649 220.895 287.255 221.339 286.74 221.658C286.23 221.977 285.642 222.137 284.977 222.137C283.974 222.137 283.16 221.788 282.536 221.091C281.916 220.394 281.606 219.471 281.606 218.322V218.233ZM282.878 218.384C282.878 219.204 283.067 219.863 283.445 220.359C283.828 220.856 284.339 221.104 284.977 221.104C285.619 221.104 286.13 220.854 286.508 220.353C286.886 219.847 287.075 219.14 287.075 218.233C287.075 217.422 286.882 216.766 286.494 216.265C286.111 215.759 285.601 215.506 284.963 215.506C284.339 215.506 283.835 215.754 283.452 216.251C283.069 216.748 282.878 217.459 282.878 218.384ZM296.174 218.384C296.174 219.509 295.916 220.416 295.401 221.104C294.886 221.793 294.189 222.137 293.31 222.137C292.412 222.137 291.705 221.852 291.19 221.282V224.844H289.926V214.604H291.081L291.143 215.424C291.658 214.786 292.373 214.467 293.289 214.467C294.178 214.467 294.88 214.802 295.395 215.472C295.914 216.142 296.174 217.074 296.174 218.268V218.384ZM294.909 218.24C294.909 217.406 294.731 216.748 294.376 216.265C294.021 215.782 293.533 215.54 292.913 215.54C292.147 215.54 291.573 215.88 291.19 216.559V220.093C291.569 220.767 292.147 221.104 292.927 221.104C293.533 221.104 294.014 220.865 294.369 220.387C294.729 219.904 294.909 219.188 294.909 218.24ZM302.046 220.325L304.562 214.604H306.141V222H304.876V216.62L302.483 222H301.608L299.168 216.504V222H297.903V214.604H299.544L302.046 220.325ZM310.598 220.147L312.32 214.604H313.674L310.7 223.142C310.24 224.372 309.508 224.987 308.506 224.987L308.267 224.967L307.795 224.878V223.853L308.137 223.88C308.565 223.88 308.898 223.793 309.135 223.62C309.376 223.447 309.575 223.13 309.729 222.67L310.01 221.918L307.371 214.604H308.752L310.598 220.147Z" fill="#323232"/>
<g clip-path="url(#clip0)">
<path d="M155.371 69.1093H87.6287C85.0764 69.1093 83 71.1857 83 73.738V117.57C83 120.122 85.0764 122.199 87.6287 122.199H111.517V127.914L105.139 132.346C104.436 132.834 104.136 133.711 104.392 134.526C104.648 135.342 105.394 135.891 106.249 135.891H136.751C137.606 135.891 138.352 135.342 138.608 134.526C138.864 133.711 138.564 132.834 137.862 132.346L131.483 127.914V122.199H155.371C157.924 122.199 160 120.122 160 117.57V73.738C160 71.1857 157.924 69.1093 155.371 69.1093V69.1093ZM87.6287 71.3608H155.371C156.682 71.3608 157.749 72.4272 157.749 73.738V113.128H85.2515V73.738C85.2515 72.4272 86.3179 71.3608 87.6287 71.3608V71.3608ZM155.371 119.947H126.45C125.828 119.947 125.324 120.451 125.324 121.073C125.324 121.695 125.828 122.199 126.45 122.199H129.232V128.502C129.232 128.871 129.412 129.216 129.715 129.427L135.776 133.639H107.224L112.995 129.628H125.317C125.939 129.628 126.443 129.124 126.443 128.502C126.443 127.881 125.939 127.377 125.317 127.377H113.768V122.199H121.652C122.274 122.199 122.778 121.695 122.778 121.073C122.778 120.451 122.274 119.947 121.652 119.947H87.6287C86.3179 119.947 85.2515 118.881 85.2515 117.57V115.379H157.749V117.57C157.749 118.881 156.682 119.947 155.371 119.947Z" fill="#BC2A40"/>
<path d="M102.527 107.978C109.544 107.978 115.254 102.269 115.254 95.2517C115.254 88.2342 109.544 82.525 102.527 82.525C99.7306 82.525 97.076 83.4161 94.8502 85.1018C94.3546 85.4771 94.2571 86.1833 94.6325 86.6789C95.0078 87.1744 95.714 87.2721 96.2096 86.8966C98.041 85.5095 100.225 84.7764 102.527 84.7764C103.906 84.7764 105.223 85.0469 106.43 85.5335L101.669 94.4682L93.2038 100.019C92.469 98.5878 92.0515 96.9681 92.0515 95.2519C92.0515 93.4777 92.5048 91.7234 93.3621 90.1781C93.6638 89.6345 93.4676 88.9491 92.924 88.6476C92.3803 88.346 91.695 88.5422 91.3934 89.0857C90.351 90.9643 89.8 93.0965 89.8 95.2519C89.8 102.269 95.5091 107.978 102.527 107.978V107.978ZM113.002 95.2519C113.002 96.2419 112.861 97.1992 112.603 98.1078L104.109 94.6767L108.416 86.5938C111.182 88.4814 113.002 91.6578 113.002 95.2519V95.2519ZM102.651 96.5163L111.759 100.195C109.991 103.485 106.516 105.727 102.527 105.727C99.2731 105.727 96.3615 104.236 94.4388 101.901L102.651 96.5163Z" fill="#BC2A40"/>
<path d="M123.842 86.1377H151.269C152.446 86.1377 153.404 85.1799 153.404 84.0027V80.2892C153.404 79.1119 152.446 78.1542 151.269 78.1542H147.707C147.085 78.1542 146.581 78.6582 146.581 79.2799C146.581 79.9016 147.085 80.4056 147.707 80.4056H151.153V83.8861H123.959V80.4056H142.91C143.531 80.4056 144.035 79.9016 144.035 79.2799C144.035 78.6582 143.531 78.1542 142.91 78.1542H123.842C122.665 78.1542 121.707 79.1119 121.707 80.2892V84.0027C121.708 85.1801 122.665 86.1377 123.842 86.1377V86.1377Z" fill="#BC2A40"/>
<path d="M123.842 97.3044H140.184C141.361 97.3044 142.319 96.3466 142.319 95.1694V91.4558C142.319 90.2786 141.361 89.3208 140.184 89.3208H123.842C122.665 89.3208 121.707 90.2786 121.707 91.4558V95.1694C121.708 96.3466 122.665 97.3044 123.842 97.3044V97.3044ZM123.959 91.5725H140.068V95.0529H123.959V91.5725Z" fill="#BC2A40"/>
<path d="M123.842 108.471H133.204C134.381 108.471 135.339 107.513 135.339 106.336V102.623C135.339 101.445 134.381 100.488 133.204 100.488H123.842C122.665 100.488 121.707 101.445 121.707 102.623V106.336C121.708 107.513 122.665 108.471 123.842 108.471ZM123.959 102.739H133.088V106.22H123.959V102.739Z" fill="#BC2A40"/>
</g>
<ellipse rx="4.95898" ry="5" transform="matrix(0 1 1 0 32 60.959)" fill="#BC2A40"/>
<line y1="-0.5" x2="41" y2="-0.5" transform="matrix(1 -4.37114e-08 -4.37114e-08 -1 32 92.6953)" stroke="#323232"/>
<line y1="-0.5" x2="27.7686" y2="-0.5" transform="matrix(4.40757e-08 1 1 -4.33501e-08 33 64.9268)" stroke="#323232"/>
<ellipse rx="4.95898" ry="5" transform="matrix(0 -1 -1 0 213 124.736)" fill="#BC2A40"/>
<line y1="-0.5" x2="41" y2="-0.5" transform="matrix(-1 4.37114e-08 4.37114e-08 1 213 93)" stroke="#323232"/>
<line y1="-0.5" x2="27.7686" y2="-0.5" transform="matrix(-4.40757e-08 -1 -1 4.33501e-08 212 120.769)" stroke="#323232"/>
<defs>
<clipPath id="clip0">
<rect width="77" height="77" fill="white" transform="translate(83 64)"/>
</clipPath>
</defs>
</svg>
