<svg width="136" height="41" viewBox="0 0 136 41" fill="none" xmlns="http://www.w3.org/2000/svg">
<path d="M7.29588 0H18.5898V0.965968H7.29588C6.42712 0.965968 5.61266 1.18063 4.85249 1.50262C4.09233 1.87827 3.38646 2.41492 2.84349 3.0589C2.24622 3.75654 1.75754 4.50785 1.43175 5.42016C1.10597 6.27879 0.943077 7.1911 0.943077 8.15707V23.1832C0.943077 24.1492 1.10597 25.0615 1.43175 25.9202C1.75754 26.7788 2.24622 27.5838 2.84349 28.2277C3.38646 28.9254 4.09233 29.462 4.90679 29.784C5.61266 30.1597 6.42712 30.3743 7.29588 30.3743H18.5898V31.3403H7.29588C6.31853 31.3403 5.34117 31.1256 4.52671 30.6963C3.60365 30.267 2.78919 29.6767 2.13762 28.9254C1.48605 28.1741 0.943077 27.2618 0.562994 26.2421C0.237209 25.3298 0.0200195 24.2565 0.0200195 23.1832V8.15707C0.0200195 7.08377 0.237209 6.01047 0.562994 5.0445C0.943077 4.07853 1.48605 3.16623 2.13762 2.41492C2.78919 1.66361 3.60365 1.01963 4.52671 0.643979C5.34117 0.21466 6.31853 0 7.29588 0Z" fill="#31304F"/>
<path d="M39.2769 0H53.0141C53.9915 0 54.9145 0.21466 55.7833 0.643979C57.6294 1.50262 59.0411 3.16623 59.747 5.0445C60.0728 6.01047 60.29 7.08377 60.29 8.15707V23.1832C60.29 24.2565 60.0728 25.2762 59.747 26.2421C59.3669 27.2618 58.8239 28.1204 58.1724 28.8717C57.5208 29.623 56.7606 30.2133 55.9462 30.6427C55.186 31.0183 54.3716 31.233 53.5571 31.2866V39.4437C53.5571 39.551 53.5028 39.712 53.4485 39.873C53.4485 39.9804 53.3942 40.1414 53.2856 40.2487C53.2313 40.4097 53.1227 40.517 53.0141 40.6243C52.9055 40.7317 52.7426 40.839 52.634 40.8927C52.4711 40.9463 52.3082 41 52.0911 41C51.9282 41 51.7653 40.9463 51.6024 40.8927C51.3852 40.839 51.1137 40.678 50.8965 40.517C50.6793 40.356 50.4621 40.1414 50.2449 39.873L43.4578 31.3403H39.2769V30.3743H43.8921C46.2812 33.3259 48.616 36.2775 51.0051 39.2291C51.168 39.4437 51.3309 39.6047 51.4395 39.712C51.6024 39.8194 51.7653 39.9267 51.8739 39.9804C51.9282 39.9804 52.0368 39.9804 52.0911 39.9804C52.1454 39.9804 52.1997 39.9804 52.254 39.9804C52.3082 39.9267 52.3625 39.9267 52.4168 39.873C52.4168 39.8194 52.4711 39.8194 52.5254 39.7657C52.5254 39.712 52.5797 39.6584 52.5797 39.551C52.5797 39.551 52.634 39.4974 52.634 39.4437V30.3743H53.0684C53.9372 30.3207 54.6973 30.1597 55.4575 29.784C56.2177 29.4084 56.9235 28.8717 57.4665 28.2277C58.0638 27.5838 58.5525 26.7788 58.8782 25.9202C59.1497 25.0615 59.3669 24.1492 59.3669 23.1832V8.15707C59.3669 7.1911 59.1497 6.2788 58.8782 5.42016C58.5525 4.56152 58.0638 3.75654 57.4665 3.0589C56.8692 2.41492 56.1634 1.87827 55.4032 1.50262C54.6973 1.18063 53.8829 0.965968 53.0141 0.965968H39.2769V0Z" fill="#31304F"/>
<path d="M18.6436 0H40.4168V0.965968H18.6436V0ZM18.6436 30.3743H40.4168V31.3403H18.6436V30.3743Z" fill="#31304F"/>
<path d="M11.9106 22.9687H10.6618V9.06945L7.07812 9.49877V8.47914L11.9106 7.78149V22.9687ZM19.5122 16.2069V22.9687H18.2634V7.99615H23.3131C24.942 7.99615 26.1908 8.31814 27.0596 9.06945C27.9284 9.76709 28.3627 10.7867 28.3627 12.1284C28.3627 12.9333 28.1455 13.631 27.6569 14.2749C27.2225 14.8653 26.5709 15.3482 25.7022 15.6166C26.6252 15.8849 27.3311 16.2606 27.7112 16.9045C28.1455 17.4948 28.3627 18.2462 28.3627 19.1585V20.5537C28.3627 21.0367 28.417 21.4124 28.5256 21.788C28.6342 22.1637 28.7971 22.4857 29.0686 22.7003V22.9687H27.8198C27.5483 22.7003 27.3854 22.3784 27.2768 21.8954C27.1682 21.4661 27.1139 20.9831 27.1139 20.5537V19.1585C27.1139 18.2462 26.7881 17.4948 26.1908 17.0119C25.5936 16.4752 24.7791 16.2069 23.6932 16.2069H19.5122ZM19.5122 15.1336H23.2045C24.5619 15.1336 25.5393 14.8653 26.1908 14.3286C26.7881 13.792 27.1139 13.0407 27.1139 12.1284C27.1139 11.1087 26.7881 10.3574 26.1908 9.82076C25.5393 9.28411 24.6162 9.06945 23.3131 9.06945H19.5122V15.1336ZM32.5436 11.8064L32.6522 13.7383C33.0323 13.0943 33.521 12.5577 34.1183 12.182C34.7155 11.8064 35.4757 11.6454 36.2902 11.6454C37.539 11.6454 38.4621 11.9674 39.0593 12.7187C39.7109 13.47 40.0367 14.5969 40.0367 16.1532V22.9687H38.7879V16.2069C38.7879 14.9189 38.5707 14.0066 38.082 13.47C37.5933 12.9333 36.8874 12.7187 36.0187 12.7187C35.1499 12.7187 34.3898 12.9333 33.8468 13.3626C33.3038 13.792 32.9237 14.3286 32.7065 15.0799V22.9687H31.4577V11.8064H32.5436ZM42.3172 17.4948C42.3172 15.7239 42.6973 14.2749 43.4574 13.2017C44.2176 12.182 45.3036 11.6454 46.661 11.6454C47.4212 11.6454 48.0727 11.8064 48.67 12.1284C49.2673 12.4503 49.7016 12.8797 50.0817 13.47V6.92285H51.3306V22.9687H50.3532L50.136 21.3587C49.7559 21.949 49.2673 22.3784 48.7243 22.7003C48.127 23.0223 47.4212 23.1833 46.6067 23.1833C45.2493 23.1833 44.2176 22.7003 43.4574 21.6807C42.6973 20.7147 42.3172 19.3731 42.3172 17.7095V17.4948ZM43.566 17.7095C43.566 19.0511 43.8375 20.1244 44.3805 20.9294C44.9235 21.6807 45.7379 22.11 46.8782 22.11C47.6383 22.11 48.3442 21.949 48.8329 21.5734C49.3759 21.1977 49.8102 20.7147 50.0817 20.1244V14.8116C49.8102 14.2213 49.4302 13.6846 48.8872 13.309C48.3985 12.8797 47.6926 12.7187 46.8782 12.7187C45.7922 12.7187 44.9778 13.148 44.3805 14.0066C43.8375 14.9189 43.566 16.0459 43.566 17.4948V17.7095Z" fill="#31304F"/>
<path d="M71.6379 11.0548C71.6379 11.6451 71.4208 12.1281 71.0407 12.4501C70.6606 12.8258 70.1176 12.9868 69.466 12.9868C68.7602 12.9868 68.2172 12.7721 67.7828 12.2891C67.4027 11.8061 67.1855 11.1622 67.1855 10.4108V9.39121C67.1855 8.6399 67.4027 7.99592 67.7828 7.51294C68.2172 7.02995 68.7602 6.81529 69.466 6.81529C70.1176 6.81529 70.6606 6.97629 71.0407 7.29828C71.4208 7.67393 71.6379 8.15691 71.6379 8.74723H71.1493C71.1493 8.26424 70.9864 7.88859 70.7149 7.62027C70.3891 7.35194 69.9547 7.24461 69.466 7.24461C68.9231 7.24461 68.4887 7.40561 68.1629 7.83493C67.8371 8.26424 67.6742 8.74723 67.6742 9.39121V10.4108C67.6742 11.0548 67.8371 11.5915 68.1629 11.9671C68.4887 12.3964 68.9231 12.6111 69.466 12.6111C69.9547 12.6111 70.3891 12.4501 70.7149 12.1818C70.9864 11.9135 71.1493 11.5378 71.1493 11.0548H71.6379ZM75.656 12.9331C75.656 12.7721 75.6017 12.6111 75.6017 12.5038C75.6017 12.3964 75.5474 12.2891 75.5474 12.1818C75.4388 12.3964 75.2216 12.6111 74.8958 12.7721C74.6243 12.9331 74.2985 12.9868 73.9184 12.9868C73.4841 12.9868 73.1583 12.8794 72.8868 12.6648C72.6696 12.3964 72.561 12.1281 72.561 11.6988C72.561 11.3231 72.7239 11.0012 73.104 10.7328C73.4298 10.4645 73.9184 10.3572 74.4614 10.3572H75.5474V9.82053C75.5474 9.49854 75.4931 9.23021 75.2759 9.06922C75.0587 8.85456 74.7872 8.80089 74.4071 8.80089C74.027 8.80089 73.7555 8.85456 73.5927 9.01555C73.3755 9.17655 73.2669 9.39121 73.2669 9.65953H72.7782V9.60587C72.7782 9.28388 72.8868 9.01555 73.2126 8.74723C73.5384 8.4789 73.9184 8.37157 74.4071 8.37157C74.8958 8.37157 75.3302 8.4789 75.6017 8.74723C75.9274 8.96189 76.0903 9.33754 76.0903 9.82053V12.0208C76.0903 12.1818 76.0903 12.3428 76.0903 12.4501C76.1446 12.6111 76.1446 12.7721 76.1989 12.9331H75.656ZM73.9727 12.5574C74.4071 12.5574 74.7329 12.4501 75.0044 12.2891C75.2759 12.1281 75.4931 11.8598 75.5474 11.5915V10.7328H74.4614C74.027 10.7328 73.7012 10.8402 73.4298 11.0548C73.1583 11.2158 73.0497 11.4305 73.0497 11.6988C73.0497 11.9671 73.1583 12.1818 73.3212 12.3428C73.4841 12.5038 73.7012 12.5574 73.9727 12.5574ZM80.3798 8.42524H80.8685V12.9331H80.3798V9.28388L80.3255 9.23021L77.9365 12.9331H77.3935V8.42524H77.9365V12.0745L80.3798 8.42524ZM80.2712 6.6543L80.3255 6.70796C80.3255 6.97629 80.2169 7.24461 79.9998 7.45927C79.7826 7.62027 79.5111 7.7276 79.131 7.7276C78.7509 7.7276 78.4794 7.62027 78.2622 7.45927C78.045 7.24461 77.9365 6.97629 77.9365 6.70796V6.6543H78.3165C78.3165 6.86896 78.4251 7.02995 78.5337 7.19095C78.6423 7.29828 78.8595 7.35194 79.131 7.35194C79.4025 7.35194 79.5654 7.29828 79.7283 7.19095C79.8369 7.02995 79.8912 6.86896 79.8912 6.6543H80.2712ZM85.5924 8.85456H83.9092V12.9331H83.4205V8.85456H81.8459V8.42524H85.5924V8.85456ZM91.4022 8.85456H89.1217V12.9331H88.6331V8.42524H91.4022V8.85456ZM91.8366 10.6255C91.8366 9.92786 92.0538 9.39121 92.3796 9.01555C92.7597 8.58623 93.2483 8.37157 93.8456 8.37157C94.4429 8.37157 94.9316 8.58623 95.3117 9.01555C95.6917 9.39121 95.8546 9.92786 95.8546 10.6255V10.7328C95.8546 11.4305 95.6917 11.9671 95.3117 12.3964C94.9316 12.7721 94.4429 12.9868 93.8456 12.9868C93.2483 12.9868 92.7597 12.7721 92.3796 12.3964C92.0538 11.9671 91.8366 11.4305 91.8366 10.7328V10.6255ZM92.3253 10.7328C92.3253 11.2695 92.4882 11.6988 92.7597 12.0745C93.0312 12.3964 93.4112 12.6111 93.8456 12.6111C94.3343 12.6111 94.7144 12.3964 94.9859 12.0745C95.2031 11.6988 95.3659 11.2695 95.3659 10.7328V10.6255C95.3659 10.0889 95.2031 9.65953 94.9316 9.33754C94.7144 8.96189 94.3343 8.80089 93.8456 8.80089C93.3569 8.80089 93.0312 8.96189 92.7597 9.33754C92.4882 9.65953 92.3253 10.0889 92.3253 10.6255V10.7328ZM100.579 10.7865C100.579 11.4841 100.416 12.0208 100.09 12.3964C99.764 12.8258 99.384 12.9868 98.841 12.9868C98.5152 12.9868 98.2437 12.9331 97.9722 12.8258C97.755 12.7184 97.5378 12.5574 97.4293 12.3428V14.6504H96.8863V8.42524H97.2664L97.375 9.12288C97.5378 8.90822 97.755 8.69356 97.9722 8.58623C98.1894 8.42524 98.5152 8.37157 98.841 8.37157C99.384 8.37157 99.764 8.58623 100.09 9.01555C100.416 9.44487 100.579 9.98152 100.579 10.7328V10.7865ZM100.036 10.7328C100.036 10.1425 99.9269 9.65953 99.7097 9.33754C99.4926 8.96189 99.1668 8.80089 98.6781 8.80089C98.3523 8.80089 98.0808 8.85456 97.8636 9.01555C97.7007 9.17655 97.5378 9.39121 97.4293 9.65953V11.8061C97.5378 12.0745 97.7007 12.2354 97.9179 12.3964C98.1351 12.5038 98.4066 12.6111 98.7324 12.6111C99.1668 12.6111 99.4926 12.4501 99.7097 12.0745C99.9269 11.7525 100.036 11.3231 100.036 10.7865V10.7328ZM101.393 10.6255C101.393 9.92786 101.61 9.39121 101.936 9.01555C102.316 8.58623 102.805 8.37157 103.402 8.37157C103.999 8.37157 104.488 8.58623 104.868 9.01555C105.248 9.39121 105.411 9.92786 105.411 10.6255V10.7328C105.411 11.4305 105.248 11.9671 104.868 12.3964C104.488 12.7721 103.999 12.9868 103.402 12.9868C102.805 12.9868 102.316 12.7721 101.936 12.3964C101.61 11.9671 101.393 11.4305 101.393 10.7328V10.6255ZM101.882 10.7328C101.882 11.2695 102.045 11.6988 102.316 12.0745C102.588 12.3964 102.913 12.6111 103.402 12.6111C103.891 12.6111 104.271 12.3964 104.488 12.0745C104.759 11.6988 104.922 11.2695 104.922 10.7328V10.6255C104.922 10.0889 104.759 9.65953 104.488 9.33754C104.216 8.96189 103.891 8.80089 103.402 8.80089C102.913 8.80089 102.588 8.96189 102.316 9.33754C102.045 9.65953 101.882 10.0889 101.882 10.6255V10.7328ZM106.443 12.5038C106.66 12.5038 106.823 12.2891 106.986 11.8598C107.094 11.4305 107.149 10.8402 107.203 10.0352L107.311 8.42524H110.026V12.5038H110.461V14.382H109.972V12.9331H106.551V14.382H106.063V12.5038H106.443ZM107.691 10.0352C107.691 10.6255 107.637 11.1622 107.529 11.5378C107.474 11.9671 107.366 12.2891 107.203 12.5038H109.538V8.90822H107.8L107.691 10.0352ZM114.37 12.9331C114.316 12.7721 114.316 12.6111 114.261 12.5038C114.261 12.3964 114.261 12.2891 114.261 12.1818C114.099 12.3964 113.881 12.6111 113.61 12.7721C113.338 12.9331 113.013 12.9868 112.633 12.9868C112.198 12.9868 111.872 12.8794 111.601 12.6648C111.384 12.3964 111.221 12.1281 111.221 11.6988C111.221 11.3231 111.438 11.0012 111.764 10.7328C112.144 10.4645 112.578 10.3572 113.176 10.3572H114.261V9.82053C114.261 9.49854 114.153 9.23021 113.936 9.06922C113.773 8.85456 113.447 8.80089 113.067 8.80089C112.741 8.80089 112.47 8.85456 112.252 9.01555C112.035 9.17655 111.927 9.39121 111.927 9.65953H111.492L111.438 9.60587C111.438 9.28388 111.601 9.01555 111.927 8.74723C112.198 8.4789 112.633 8.37157 113.121 8.37157C113.61 8.37157 113.99 8.4789 114.316 8.74723C114.587 8.96189 114.75 9.33754 114.75 9.82053V12.0208C114.75 12.1818 114.75 12.3428 114.804 12.4501C114.804 12.6111 114.859 12.7721 114.859 12.9331H114.37ZM112.687 12.5574C113.067 12.5574 113.393 12.4501 113.664 12.2891C113.99 12.1281 114.153 11.8598 114.261 11.5915V10.7328H113.121C112.741 10.7328 112.415 10.8402 112.144 11.0548C111.872 11.2158 111.764 11.4305 111.764 11.6988C111.764 11.9671 111.818 12.1818 111.981 12.3428C112.144 12.5038 112.415 12.5574 112.687 12.5574ZM67.8914 20.6072V23.0758H67.4027V17.0653H69.5203C70.1719 17.0653 70.6606 17.2263 70.9864 17.5483C71.3665 17.8703 71.5293 18.2996 71.5293 18.8362C71.5293 19.3729 71.3665 19.8022 70.9864 20.1242C70.6606 20.4462 70.1719 20.6072 69.5203 20.6072H67.8914ZM67.8914 20.1779H69.5203C70.009 20.1779 70.3891 20.0169 70.6606 19.8022C70.8778 19.5339 71.0407 19.2119 71.0407 18.8362C71.0407 18.4606 70.8778 18.1386 70.6606 17.8703C70.3891 17.6019 70.009 17.4946 69.5203 17.4946H67.8914V20.1779ZM72.2352 20.7682C72.2352 20.1242 72.4524 19.5875 72.7782 19.1582C73.1583 18.7289 73.6469 18.5142 74.2442 18.5142C74.8415 18.5142 75.3302 18.7289 75.7103 19.1582C76.0903 19.5875 76.2532 20.1242 76.2532 20.7682V20.9292C76.2532 21.5731 76.0903 22.1098 75.7103 22.5391C75.3302 22.9684 74.8415 23.1831 74.2442 23.1831C73.6469 23.1831 73.1583 22.9684 72.7782 22.5391C72.4524 22.1098 72.2352 21.5731 72.2352 20.9292V20.7682ZM72.7782 20.9292C72.7782 21.4658 72.8868 21.8951 73.1583 22.2171C73.4298 22.5928 73.8098 22.7538 74.2442 22.7538C74.7329 22.7538 75.113 22.5928 75.3845 22.2171C75.6017 21.8951 75.7646 21.4658 75.7646 20.9292V20.7682C75.7646 20.2852 75.6017 19.8559 75.3845 19.4802C75.113 19.1582 74.7329 18.9436 74.2442 18.9436C73.8098 18.9436 73.4298 19.1582 73.1583 19.4802C72.8868 19.8559 72.7782 20.2852 72.7782 20.7682V20.9292ZM78.9681 22.7538C79.2939 22.7538 79.5654 22.6464 79.8369 22.4855C80.0541 22.2708 80.2169 22.0561 80.2169 21.6805H80.6513V21.7341C80.6513 22.1635 80.4884 22.4855 80.1626 22.7538C79.8369 23.0221 79.4025 23.1831 78.9681 23.1831C78.3708 23.1831 77.8822 22.9684 77.5564 22.5391C77.2306 22.1098 77.0677 21.5731 77.0677 20.9292V20.7682C77.0677 20.1242 77.2306 19.5875 77.5564 19.1582C77.8822 18.7289 78.3708 18.5142 78.9681 18.5142C79.4568 18.5142 79.8369 18.6752 80.1626 18.9436C80.4884 19.2656 80.6513 19.6412 80.6513 20.1242H80.2169C80.2169 19.8022 80.0541 19.4802 79.8369 19.2656C79.6197 19.0509 79.2939 18.9436 78.9681 18.9436C78.4794 18.9436 78.1536 19.1046 77.8822 19.4802C77.665 19.8022 77.5564 20.2315 77.5564 20.7682V20.9292C77.5564 21.4658 77.665 21.8951 77.8822 22.2708C78.1536 22.5928 78.4794 22.7538 78.9681 22.7538ZM85.1037 19.0509H83.4748V23.0758H82.9318V19.0509H81.3572V18.6216H85.1037V19.0509ZM85.701 20.7682C85.701 20.1242 85.8639 19.5875 86.244 19.1582C86.6241 18.7289 87.1127 18.5142 87.71 18.5142C88.3073 18.5142 88.796 18.7289 89.176 19.1582C89.5018 19.5875 89.719 20.1242 89.719 20.7682V20.9292C89.719 21.5731 89.5018 22.1098 89.176 22.5391C88.796 22.9684 88.3073 23.1831 87.71 23.1831C87.1127 23.1831 86.6241 22.9684 86.244 22.5391C85.8639 22.1098 85.701 21.5731 85.701 20.9292V20.7682ZM86.1897 20.9292C86.1897 21.4658 86.3526 21.8951 86.6241 22.2171C86.8412 22.5928 87.2213 22.7538 87.71 22.7538C88.1987 22.7538 88.5245 22.5928 88.796 22.2171C89.0674 21.8951 89.2303 21.4658 89.2303 20.9292V20.7682C89.2303 20.2852 89.0674 19.8559 88.796 19.4802C88.5245 19.1582 88.1444 18.9436 87.71 18.9436C87.2213 18.9436 86.8412 19.1582 86.6241 19.4802C86.3526 19.8559 86.1897 20.2852 86.1897 20.7682V20.9292ZM90.805 23.0758V18.6216H92.4339C93.0312 18.6216 93.4655 18.7289 93.737 18.8899C94.0628 19.1046 94.2257 19.4265 94.2257 19.8022C94.2257 20.0169 94.1714 20.2315 94.0085 20.3925C93.8999 20.6072 93.6827 20.7145 93.4112 20.7682C93.737 20.8755 93.9542 20.9828 94.1171 21.1975C94.3343 21.3585 94.3886 21.5731 94.3886 21.8415C94.3886 22.2708 94.28 22.5928 93.9542 22.7538C93.6827 22.9684 93.2483 23.0758 92.7054 23.0758H90.805ZM91.2936 21.0365V22.7001H92.7054C93.0855 22.7001 93.4112 22.5928 93.6284 22.4855C93.7913 22.3245 93.8999 22.1098 93.8999 21.8415C93.8999 21.5731 93.7913 21.4122 93.5741 21.2512C93.4112 21.0902 93.0855 21.0365 92.7054 21.0365H91.2936ZM91.2936 20.6072H92.4882C92.8683 20.6072 93.194 20.5535 93.4112 20.4462C93.6284 20.2852 93.737 20.0705 93.737 19.8022C93.737 19.5339 93.6284 19.3729 93.4112 19.2119C93.194 19.1046 92.8683 19.0509 92.4339 19.0509H91.2936V20.6072ZM98.4066 23.0758C98.3523 22.9148 98.3523 22.8074 98.3523 22.7001C98.298 22.5928 98.298 22.4855 98.298 22.3245C98.1351 22.5928 97.9179 22.8074 97.6464 22.9684C97.375 23.1294 97.0492 23.1831 96.6691 23.1831C96.2347 23.1831 95.9089 23.0758 95.6374 22.8074C95.4202 22.5928 95.2574 22.2708 95.2574 21.8951C95.2574 21.4658 95.4745 21.1438 95.8003 20.9292C96.1804 20.6608 96.6148 20.5535 97.2121 20.5535H98.298V19.9632C98.298 19.6412 98.1894 19.4265 98.0265 19.2119C97.8093 19.0509 97.4836 18.9436 97.1578 18.9436C96.7777 18.9436 96.5062 19.0509 96.289 19.2119C96.0718 19.3729 95.9632 19.5875 95.9632 19.8559H95.5288V19.8022C95.4745 19.4802 95.6374 19.1582 95.9632 18.8899C96.2347 18.6752 96.6691 18.5142 97.1578 18.5142C97.6464 18.5142 98.0265 18.6752 98.3523 18.8899C98.6781 19.1582 98.7867 19.5339 98.7867 20.0169V22.2171C98.7867 22.3781 98.841 22.4855 98.841 22.6464C98.841 22.8074 98.8953 22.9684 98.9496 23.0758H98.4066ZM96.7234 22.7538C97.1035 22.7538 97.4293 22.6464 97.755 22.4855C98.0265 22.2708 98.1894 22.0561 98.298 21.7878V20.9292H97.2121C96.7777 20.9292 96.4519 21.0365 96.1804 21.1975C95.9089 21.4122 95.8003 21.6268 95.8003 21.8951C95.8003 22.1635 95.8546 22.3781 96.0175 22.5391C96.1804 22.6464 96.4519 22.7538 96.7234 22.7538ZM102.479 20.7145H100.036V20.3389H102.479V20.7145ZM107.203 23.0758H106.714V21.0365H104.271V23.0758H103.728V18.6216H104.271V20.6072H106.714V18.6216H107.203V23.0758ZM111.384 23.0758C111.384 22.9148 111.329 22.8074 111.329 22.7001C111.329 22.5928 111.275 22.4855 111.275 22.3245C111.167 22.5928 110.949 22.8074 110.624 22.9684C110.352 23.1294 110.026 23.1831 109.646 23.1831C109.212 23.1831 108.886 23.0758 108.615 22.8074C108.397 22.5928 108.289 22.2708 108.289 21.8951C108.289 21.4658 108.452 21.1438 108.832 20.9292C109.158 20.6608 109.646 20.5535 110.189 20.5535H111.275V19.9632C111.275 19.6412 111.221 19.4265 111.004 19.2119C110.786 19.0509 110.515 18.9436 110.135 18.9436C109.755 18.9436 109.483 19.0509 109.32 19.2119C109.103 19.3729 108.995 19.5875 108.995 19.8559H108.506V19.8022C108.506 19.4802 108.615 19.1582 108.94 18.8899C109.266 18.6752 109.646 18.5142 110.135 18.5142C110.624 18.5142 111.058 18.6752 111.329 18.8899C111.655 19.1582 111.818 19.5339 111.818 20.0169V22.2171C111.818 22.3781 111.818 22.4855 111.818 22.6464C111.872 22.8074 111.872 22.9684 111.927 23.0758H111.384ZM109.7 22.7538C110.135 22.7538 110.461 22.6464 110.732 22.4855C111.004 22.2708 111.221 22.0561 111.275 21.7878V20.9292H110.189C109.755 20.9292 109.429 21.0365 109.158 21.1975C108.886 21.4122 108.777 21.6268 108.777 21.8951C108.777 22.1635 108.886 22.3781 109.049 22.5391C109.212 22.6464 109.429 22.7538 109.7 22.7538ZM115.51 20.7145H113.013V20.3389H115.51V20.7145ZM121.429 22.7001H122.08V24.5784H121.537V23.0758H116.813V24.5784H116.325V22.7001H116.596C116.976 22.7001 117.302 22.3781 117.519 21.7878C117.791 21.1975 117.899 20.3389 118.008 19.2119L118.171 17.0653H121.429V22.7001ZM118.497 19.2119C118.442 20.0705 118.334 20.7682 118.171 21.3585C118.008 21.9488 117.791 22.3781 117.519 22.7001H120.886V17.4946H118.605L118.497 19.2119ZM122.732 20.7682C122.732 20.1242 122.895 19.5875 123.275 19.1582C123.655 18.7289 124.144 18.5142 124.741 18.5142C125.338 18.5142 125.827 18.7289 126.207 19.1582C126.533 19.5875 126.75 20.1242 126.75 20.7682V20.9292C126.75 21.5731 126.533 22.1098 126.207 22.5391C125.827 22.9684 125.338 23.1831 124.741 23.1831C124.144 23.1831 123.655 22.9684 123.275 22.5391C122.895 22.1098 122.732 21.5731 122.732 20.9292V20.7682ZM123.221 20.9292C123.221 21.4658 123.329 21.8951 123.601 22.2171C123.872 22.5928 124.252 22.7538 124.741 22.7538C125.175 22.7538 125.555 22.5928 125.827 22.2171C126.098 21.8951 126.207 21.4658 126.207 20.9292V20.7682C126.207 20.2852 126.098 19.8559 125.827 19.4802C125.555 19.1582 125.175 18.9436 124.741 18.9436C124.252 18.9436 123.872 19.1582 123.601 19.4802C123.329 19.8559 123.221 20.2852 123.221 20.7682V20.9292ZM131.202 23.0758H130.714V21.0365H128.27V23.0758H127.782V18.6216H128.27V20.6072H130.714V18.6216H131.202V23.0758ZM133.863 21.8951L134.026 22.4318L135.383 18.6216H135.98L133.971 23.8271C133.863 24.0954 133.7 24.3637 133.537 24.5784C133.32 24.793 133.048 24.9004 132.723 24.9004C132.668 24.9004 132.56 24.9004 132.505 24.9004C132.397 24.9004 132.343 24.8467 132.288 24.8467L132.397 24.4174C132.397 24.4174 132.451 24.4711 132.505 24.4711C132.614 24.4711 132.668 24.4711 132.668 24.4711C132.886 24.4711 133.103 24.3637 133.211 24.2564C133.374 24.0954 133.483 23.8807 133.537 23.6661L133.809 23.0221L132.017 18.6216H132.614L133.863 21.8951Z" fill="#323232"/>
</svg>
