<svg width="120" height="120" viewBox="0 0 120 120" fill="none" xmlns="http://www.w3.org/2000/svg">
<path d="M118 108H112V70C112 68.8961 111.102 68.0001 109.998 68.002C109.346 68.002 108.736 68.32 108.362 68.8539L80.3618 108.854C79.7297 109.76 79.9498 111.006 80.8559 111.64C81.1899 111.874 81.59 112 81.9999 112H108V118C108 119.104 108.896 120 110 120C111.104 120 112 119.104 112 118V112H118C119.104 112 120 111.104 120 110C120 108.896 119.104 108 118 108ZM108 76.3438V108H85.8399L108 76.3438Z" fill="#BC2A40"/>
<path d="M82 116H58.322L80.3359 90.0779C80.3858 90.0179 80.432 89.9558 80.4758 89.8918C84.618 83.7617 83.238 75.4639 77.3359 71.0038C70.1598 65.8478 60.1619 67.4858 55.0059 74.6617C53.0519 77.3816 51.9998 80.6497 51.9998 83.9996C51.9998 85.1035 52.8958 85.9996 53.9997 85.9996C55.1036 85.9996 55.9996 85.1035 55.9996 83.9996C55.9996 77.3718 61.3717 71.9996 67.9975 71.9975C70.5095 71.9975 72.9576 72.7855 74.9994 74.2515C79.1333 77.4196 80.0973 83.2536 77.1995 87.5816L52.476 116.706C51.7621 117.548 51.8641 118.81 52.7059 119.524C53.068 119.832 53.526 120 53.9999 120H82C83.1039 120 83.9999 119.104 83.9999 118C83.9999 116.896 83.1039 116 82 116Z" fill="#BC2A40"/>
<path d="M54.0441 106.038C54.086 104.934 53.224 104.006 52.1201 103.964C26.028 102.996 5.08594 82.0901 4.06992 55.9999H12C13.1039 55.9999 13.9999 55.1039 13.9999 54C13.9999 52.8961 13.1039 52.0001 12 52.0001H4.06992C5.07 25.9561 25.9559 5.07211 51.9998 4.07203V10.0001C51.9998 11.104 52.8959 12 53.9998 12C55.1037 12 55.9997 11.104 55.9997 10.0001V4.07203C81.6877 5.06602 102.422 25.4081 103.904 51.072L96.1036 43.272C95.3095 42.5039 94.0437 42.5259 93.2756 43.3219C92.5277 44.0979 92.5277 45.3258 93.2756 46.0999L104.44 57.2639C104.65 57.518 104.922 57.716 105.228 57.8379C105.306 57.8618 105.386 57.8799 105.465 57.8958C105.604 57.9457 105.746 57.9797 105.889 57.9977C105.909 57.9977 105.927 57.9977 105.947 57.9977C105.967 57.9977 105.985 57.9977 106.003 57.9977C106.155 57.9858 106.305 57.9558 106.451 57.9099C106.533 57.8998 106.615 57.8838 106.695 57.8639C106.965 57.7678 107.213 57.6138 107.417 57.4118L118.733 46.0997C119.501 45.3056 119.479 44.0398 118.684 43.2717C117.907 42.5238 116.68 42.5238 115.905 43.2717L107.911 51.2597C106.484 22.5921 82.8459 0.0700781 54.142 0.0278906C54.0921 0.0260156 54.0499 0 54 0C53.9501 0 53.9079 0.0260156 53.858 0.0278906C24.146 0.0679688 0.0679687 24.146 0.0278906 53.858C0.0278906 53.9079 0 53.9501 0 54C0 54.0499 0.0260156 54.0921 0.0278906 54.142C0.0778125 83.122 23.0119 106.884 51.9719 107.962H52.046C53.1199 107.962 54.004 107.112 54.0441 106.038Z" fill="#BC2A40"/>
<path d="M80.8698 27.1299C80.0898 26.3499 78.8218 26.3499 78.0418 27.1299L56.5499 48.62C54.9259 47.896 53.072 47.896 51.4478 48.62L41.2717 38.4439C40.4776 37.6759 39.2118 37.6979 38.4437 38.4938C37.6958 39.2698 37.6958 40.4977 38.4437 41.2719L48.5997 51.4278C47.1737 54.4138 48.4377 57.9877 51.4236 59.4139C53.7156 60.508 56.4477 60.0399 58.2416 58.2439C60.0456 56.454 60.5115 53.7139 59.3976 51.4299L80.8696 29.9579C81.6498 29.1779 81.6498 27.9099 80.8698 27.1299ZM55.4139 55.4138C54.6238 56.1699 53.376 56.1699 52.5859 55.4138C51.8038 54.6338 51.8038 53.3659 52.5859 52.5859C53.368 51.8059 54.6339 51.8038 55.4139 52.5859C56.196 53.3659 56.196 54.632 55.4139 55.4138Z" fill="#BC2A40"/>
</svg>
