<svg width="42" height="43" viewBox="0 0 42 43" fill="none" xmlns="http://www.w3.org/2000/svg">
<g clip-path="url(#clip0)">
<path d="M40.1581 2.48605C37.6927 0.0581583 33.7138 0.0581583 31.2483 2.48605C31.1827 2.55138 31.1308 2.62902 31.0957 2.71439C31.0651 2.79065 31.0488 2.87176 31.0474 2.95383C31.0454 2.96164 31.0438 2.96944 31.0425 2.97743C31.0426 3.06817 31.0607 3.15805 31.0957 3.24185C31.1303 3.32696 31.182 3.40417 31.2476 3.4688L34.7137 6.90634L33.3736 8.23471C30.0161 5.15686 25.6124 3.44694 21.0403 3.4459C21.0284 3.44243 21.0193 3.43618 21.0074 3.43618C20.9955 3.43618 20.9864 3.44243 20.9745 3.44243C16.4018 3.44434 11.9979 5.15582 8.64123 8.23541L7.30111 6.90634L10.7672 3.4688C10.8328 3.40417 10.8845 3.32696 10.9191 3.24185C10.9541 3.15805 10.9722 3.06817 10.9723 2.97743C10.9723 2.9691 10.9681 2.96216 10.9674 2.95383C10.968 2.79368 10.9052 2.63961 10.7924 2.52492C10.7819 2.51312 10.7784 2.49854 10.7672 2.48744C8.30664 0.0467935 4.3169 0.0464465 1.85596 2.48675C-0.60506 4.92705 -0.605323 8.88389 1.85526 11.3245C1.86506 11.3349 1.87906 11.3377 1.88955 11.3474C1.94659 11.4007 2.01237 11.4439 2.0841 11.4751C2.16046 11.5049 2.24147 11.5211 2.32343 11.523C2.33183 11.523 2.34023 11.5279 2.34932 11.5279C2.44047 11.5275 2.53075 11.5098 2.61525 11.4758C2.70088 11.4409 2.77865 11.3895 2.84408 11.3245L6.31159 7.8877L7.65171 9.21676C0.827956 16.5325 1.27609 27.9492 8.6526 34.7167C9.28321 35.2952 9.95423 35.8287 10.6609 36.3131L5.81613 41.1172C5.53814 41.3835 5.53044 41.8229 5.79899 42.0986C6.06745 42.3743 6.51051 42.3819 6.78851 42.1156C6.79437 42.11 6.80005 42.1043 6.80565 42.0986L11.8701 37.0759C17.5159 40.3425 24.4975 40.3425 30.1433 37.0759L35.2078 42.0986C35.4857 42.3649 35.9287 42.3573 36.1973 42.0816C36.4593 41.8126 36.4593 41.3861 36.1973 41.1172L31.3526 36.3131C39.6185 30.6421 41.6839 19.3992 35.9657 11.2014C35.4787 10.5033 34.9427 9.84009 34.3617 9.21676L35.7032 7.8877L39.1693 11.3252C39.2348 11.3902 39.3125 11.4416 39.3982 11.4765C39.4827 11.5105 39.5729 11.5282 39.6641 11.5286C39.6732 11.5286 39.6816 11.5237 39.69 11.5237C39.7719 11.5218 39.8529 11.5056 39.9293 11.4758C40.001 11.4446 40.0668 11.4014 40.1238 11.3481C40.1343 11.3384 40.1483 11.3356 40.1581 11.3252C42.6057 8.88016 42.6039 4.93295 40.1581 2.48605ZM2.38711 9.8171C0.773372 7.66118 1.22737 4.61612 3.40121 3.0156C5.13628 1.73823 7.51009 1.73823 9.24516 3.0156L2.38711 9.8171ZM37.7725 20.787H34.3036C33.9171 20.787 33.6038 21.0977 33.6038 21.481C33.6038 21.8643 33.9171 22.175 34.3036 22.175H37.7851C37.411 30.8231 30.4272 37.7493 21.7072 38.1204V34.6676C21.7072 34.2843 21.3939 33.9735 21.0074 33.9735C20.6209 33.9735 20.3076 34.2843 20.3076 34.6676V38.1204C11.5877 37.7493 4.60382 30.8231 4.22969 22.175H7.71119C8.09766 22.175 8.41099 21.8643 8.41099 21.481C8.41099 21.0977 8.09766 20.787 7.71119 20.787H4.24228C4.40122 16.6262 6.13323 12.6769 9.094 9.7248C9.1052 9.71508 9.11919 9.71161 9.12969 9.7012C9.14019 9.69079 9.14368 9.67691 9.15348 9.6658C12.1296 6.72849 16.1119 5.01059 20.3076 4.85409V8.2944C20.3076 8.67768 20.6209 8.98843 21.0074 8.98843C21.3939 8.98843 21.7072 8.67768 21.7072 8.2944V4.85409C25.9029 5.0105 29.8853 6.7284 32.8613 9.6658C32.8711 9.67691 32.8746 9.69079 32.8851 9.7012C32.8956 9.71161 32.9096 9.71508 32.9208 9.7248C35.8815 12.677 37.6135 16.6262 37.7725 20.787ZM39.6263 9.81571L32.7682 3.01421C34.9326 1.40432 38.003 1.83939 39.6263 3.98585C40.9326 5.7133 40.9326 8.08836 39.6263 9.81571Z" fill="#CE1625"/>
<path d="M30.9577 14.9804H30.9591L22.9996 19.5375C21.9248 18.445 20.1605 18.4236 19.059 19.4896C19.0427 19.5054 19.0266 19.5213 19.0107 19.5375L14.688 17.0625C14.3546 16.8687 13.9259 16.9796 13.7305 17.3103C13.535 17.641 13.6468 18.0662 13.9803 18.26C13.9829 18.2616 13.9856 18.263 13.9883 18.2646L18.318 20.7437C17.8838 22.2152 18.7346 23.7572 20.2184 24.1877C21.7021 24.6184 23.2569 23.7745 23.6911 22.303C23.8413 21.7938 23.8413 21.2528 23.6911 20.7436L31.6576 16.1824C31.991 15.9886 32.1028 15.5633 31.9074 15.2327C31.7137 14.9052 31.2905 14.7928 30.9577 14.9804ZM21.0058 22.8688C20.2328 22.8688 19.6062 22.2474 19.6062 21.4807C19.6062 20.7141 20.2328 20.0927 21.0058 20.0927C21.7789 20.0927 22.4054 20.7141 22.4054 21.4807C22.4054 22.2474 21.7788 22.8688 21.0058 22.8688Z" fill="#CE1625"/>
</g>
<defs>
<clipPath id="clip0">
<rect width="42" height="41.6538" fill="white" transform="translate(0 0.656738)"/>
</clipPath>
</defs>
</svg>
