<svg width="76" height="76" viewBox="0 0 76 76" fill="none" xmlns="http://www.w3.org/2000/svg">
<g clip-path="url(#clip0)">
<path d="M48.4832 19.7512C50.5294 19.7512 52.1941 18.0865 52.1941 16.0403C52.1941 13.9941 50.5294 12.3292 48.4832 12.3292C46.4369 12.3292 44.7722 13.9941 44.7722 16.0403C44.7722 16.876 45.0501 17.6479 45.5181 18.269L39.4209 26.7894C39.0571 26.6699 38.6689 26.6043 38.2655 26.6043C37.2904 26.6043 36.4024 26.983 35.7395 27.6002L31.6754 25.2941C31.7296 25.0423 31.7587 24.7813 31.7587 24.5137C31.7587 22.4675 30.094 20.8028 28.0478 20.8028C26.0016 20.8028 24.3368 22.4675 24.3368 24.5137C24.3368 24.7813 24.3659 25.0423 24.4201 25.2941L20.356 27.6002C19.6931 26.983 18.8052 26.6045 17.8301 26.6045C15.7839 26.6045 14.1191 28.2693 14.1191 30.3155C14.1191 32.3618 15.7839 34.0266 17.8301 34.0266C19.8763 34.0266 21.541 32.3618 21.541 30.3155C21.541 30.0479 21.5119 29.787 21.4577 29.5352L25.5218 27.2291C26.1847 27.8463 27.0727 28.2249 28.0478 28.2249C29.0229 28.2249 29.9107 27.8463 30.5737 27.2292L34.6378 29.5354C34.5836 29.7871 34.5545 30.0481 34.5545 30.3157C34.5545 32.3619 36.2193 34.0268 38.2655 34.0268C40.3118 34.0268 41.9766 32.3619 41.9766 30.3157C41.9766 29.4798 41.6985 28.7078 41.2305 28.0868L47.3277 19.5663C47.6914 19.6856 48.0797 19.7512 48.4832 19.7512ZM48.4832 14.5558C49.3016 14.5558 49.9675 15.2217 49.9675 16.0403C49.9675 16.8588 49.3016 17.5247 48.4832 17.5247C47.6647 17.5247 46.9988 16.8588 46.9988 16.0403C46.9986 15.2217 47.6645 14.5558 48.4832 14.5558ZM17.8296 31.7998C17.0111 31.7998 16.3453 31.1339 16.3453 30.3152C16.3453 29.4966 17.0111 28.8307 17.8296 28.8307C18.6481 28.8307 19.314 29.4966 19.314 30.3152C19.314 31.1339 18.6481 31.7998 17.8296 31.7998ZM28.0475 25.9981C27.229 25.9981 26.5631 25.3322 26.5631 24.5136C26.5631 23.6951 27.229 23.0292 28.0475 23.0292C28.866 23.0292 29.5319 23.6951 29.5319 24.5136C29.532 25.3322 28.866 25.9981 28.0475 25.9981ZM38.2653 31.7998C37.4468 31.7998 36.7809 31.1339 36.7809 30.3152C36.7809 29.4966 37.4468 28.8307 38.2653 28.8307C39.0839 28.8307 39.7498 29.4966 39.7498 30.3152C39.7498 31.1339 39.0838 31.7998 38.2653 31.7998Z" fill="#362F4C"/>
<path d="M62.165 55.9555H54.3741H11.9385H3.1491C2.64041 55.9555 2.22656 55.5416 2.22656 55.033V9.10357C2.22656 8.59487 2.64041 8.18103 3.1491 8.18103H8.39726C9.01209 8.18103 9.51054 7.68273 9.51054 7.06775C9.51054 6.45277 9.01209 5.95447 8.39726 5.95447H3.1491C1.41268 5.95447 0 7.36715 0 9.10357V55.033C0 56.7694 1.41268 58.1821 3.1491 58.1821H10.8253V60.6322C10.8253 62.0279 11.9608 63.1635 13.3566 63.1635H24.5004L19.2546 73.4054C18.9743 73.9526 19.1906 74.6234 19.7379 74.9038C19.9003 74.9871 20.0736 75.0264 20.2445 75.0264C20.649 75.0264 21.0392 74.8053 21.2362 74.4204L27.002 63.1635H39.3107L45.0765 74.4204C45.2736 74.8053 45.6637 75.0264 46.0682 75.0264C46.239 75.0264 46.4124 74.9868 46.5748 74.9038C47.1221 74.6234 47.3385 73.9526 47.0581 73.4054L41.8123 63.1635H52.9561C54.3519 63.1635 55.4874 62.0281 55.4874 60.6322V58.1821H62.165C62.7799 58.1821 63.2783 57.6837 63.2783 57.0688C63.2783 56.4538 62.7799 55.9555 62.165 55.9555ZM53.2609 60.6322C53.2609 60.8002 53.1241 60.9369 52.9561 60.9369H13.3566C13.1885 60.9369 13.0518 60.8002 13.0518 60.6322V58.1821H53.2609V60.6322Z" fill="#362F4C"/>
<path d="M12.8503 8.18116H28.0907H38.2217H63.1634C63.6721 8.18116 64.0859 8.595 64.0859 9.1037V19.6889C64.0859 20.3039 64.5844 20.8022 65.1992 20.8022C65.814 20.8022 66.3125 20.3039 66.3125 19.6889V9.1037C66.3125 7.36727 64.8998 5.95459 63.1634 5.95459H39.3352V3.76633C39.3352 2.22629 38.0822 0.973328 36.542 0.973328H29.7706C28.2305 0.973328 26.9774 2.22629 26.9774 3.76633V5.95459H12.8503C12.2355 5.95459 11.7371 6.4529 11.7371 7.06788C11.7371 7.68285 12.2355 8.18116 12.8503 8.18116ZM29.204 3.76633C29.204 3.45402 29.4581 3.19989 29.7706 3.19989H36.542C36.8543 3.19989 37.1086 3.45402 37.1086 3.76633V5.95459H29.2042V3.76633H29.204Z" fill="#362F4C"/>
<path d="M15.5713 39.7183C14.9565 39.7183 14.458 40.2166 14.458 40.8316V50.6689C14.458 51.2838 14.9565 51.7821 15.5713 51.7821H20.0878C20.7026 51.7821 21.2011 51.2838 21.2011 50.6689V40.8316C21.2011 40.2166 20.7026 39.7183 20.0878 39.7183H15.5713ZM18.9745 49.5557H16.6846V41.945H18.9745V49.5557V49.5557Z" fill="#362F4C"/>
<path d="M25.7891 34.0289C25.1742 34.0289 24.6758 34.5272 24.6758 35.1422V50.6689C24.6758 51.2839 25.1742 51.7822 25.7891 51.7822H30.3056C30.9204 51.7822 31.4189 51.2839 31.4189 50.6689V35.1422C31.4189 34.5272 30.9204 34.0289 30.3056 34.0289H25.7891ZM29.1924 49.5556H26.9025V36.2555H29.1924V49.5556Z" fill="#362F4C"/>
<path d="M36.0068 39.7183C35.392 39.7183 34.8936 40.2166 34.8936 40.8316V50.6689C34.8936 51.2838 35.392 51.7821 36.0068 51.7821H40.5233C41.1382 51.7821 41.6366 51.2838 41.6366 50.6689V40.8316C41.6366 40.2166 41.1382 39.7183 40.5233 39.7183H36.0068ZM39.4101 49.5557H37.1201V41.945H39.4101V49.5557Z" fill="#362F4C"/>
<path d="M46.2249 46.2875C45.61 46.2875 45.1116 46.7858 45.1116 47.4008V50.6689C45.1116 51.2839 45.61 51.7822 46.2249 51.7822H50.7414C51.3562 51.7822 51.8546 51.2839 51.8546 50.6689C51.8546 50.0539 51.3562 49.5556 50.7414 49.5556H47.3381V47.4008C47.3381 46.7858 46.8397 46.2875 46.2249 46.2875Z" fill="#362F4C"/>
<path d="M75.4322 57.0026L69.0454 45.9402C70.6635 44.2155 71.8418 42.1081 72.4712 39.7592C73.4771 36.0051 72.9609 32.0838 71.0175 28.7179C67.0059 21.769 58.0891 19.3802 51.1407 23.3918C44.1922 27.4033 41.8031 36.3201 45.8148 43.2686C47.7581 46.6346 50.8959 49.0422 54.6501 50.0483C55.9038 50.3842 57.1757 50.5503 58.4397 50.5503C59.5444 50.5503 60.6426 50.4233 61.7167 50.1718L68.1022 61.2346C68.8849 62.5908 70.3102 63.3498 71.7741 63.3497C72.4915 63.3497 73.2183 63.1672 73.8831 62.7837C75.1888 62.03 76 60.6248 76 59.1164C76 58.3773 75.8038 57.6465 75.4322 57.0026ZM55.2263 47.8976C52.0466 47.0456 49.3889 45.0062 47.7428 42.1553C44.3451 36.2701 46.3687 28.7179 52.2539 25.32C54.1899 24.2022 56.3056 23.6714 58.3953 23.6714C62.6577 23.6714 66.8092 25.8821 69.0892 29.8311C70.7351 32.682 71.1724 36.0032 70.3203 39.183C69.4683 42.3628 67.4289 45.0203 64.578 46.6663C61.7273 48.3123 58.4061 48.7493 55.2263 47.8976ZM72.7703 60.8552C71.8124 61.4082 70.5834 61.079 70.0307 60.1216L63.8872 49.478C64.5029 49.2267 65.1059 48.9328 65.6916 48.5947C66.2778 48.2562 66.8329 47.8795 67.3586 47.4716L73.5039 58.1156C73.6802 58.4215 73.7734 58.7677 73.7734 59.1165C73.7734 59.8317 73.389 60.498 72.7703 60.8552Z" fill="#362F4C"/>
<path d="M68.51 39.1294C69.296 36.5977 69.1088 33.8872 67.9829 31.4974C67.7208 30.941 67.0576 30.7026 66.5014 30.9646C65.945 31.2268 65.7066 31.89 65.9688 32.4462C66.8569 34.3313 67.0043 36.4702 66.3837 38.469C65.7596 40.4789 64.4115 42.1656 62.5877 43.2186C60.6577 44.333 58.409 44.6287 56.2565 44.052C54.1039 43.4752 52.3045 42.0946 51.1904 40.1646C48.89 36.1804 50.2601 31.0676 54.2443 28.7673C57.1574 27.0856 60.7726 27.3104 63.455 29.3398C63.9454 29.7109 64.6435 29.6143 65.0145 29.1238C65.3854 28.6336 65.2888 27.9353 64.7984 27.5644C61.4005 24.9933 56.8206 24.7087 53.1309 26.8389C50.6858 28.2506 48.9368 30.53 48.206 33.2571C47.4753 35.9842 47.8504 38.8327 49.262 41.2778C50.6736 43.723 52.953 45.4719 55.6801 46.2028C56.5908 46.4468 57.515 46.5675 58.4331 46.5675C60.2645 46.5675 62.0723 46.0871 63.7008 45.1468C66.0115 43.8129 67.7195 41.676 68.51 39.1294Z" fill="#362F4C"/>
</g>
<defs>
<clipPath id="clip0">
<rect width="76" height="76" fill="white"/>
</clipPath>
</defs>
</svg>
