<svg width="178" height="42" viewBox="0 0 178 42" fill="none" xmlns="http://www.w3.org/2000/svg">
<g clip-path="url(#clip0)">
<path d="M7.41025 0H18.8509V1.00159H7.41025C6.5405 1.00159 5.73765 1.20191 5.0017 1.53577C4.19885 1.93641 3.4629 2.47059 2.86076 3.13832C2.32553 3.80604 1.79029 4.67409 1.45577 5.54213C1.18815 6.41018 0.987441 7.34499 0.987441 8.34658V23.7043C0.987441 24.7059 1.18815 25.7075 1.45577 26.5755C1.79029 27.4436 2.32553 28.2448 2.86076 28.9126C3.4629 29.6471 4.19885 30.1812 5.0017 30.5151C5.73765 30.9157 6.5405 31.1161 7.41025 31.1161H18.8509V32.1176H7.41025C6.40669 32.1176 5.47003 31.8506 4.60027 31.4499C3.66361 31.0493 2.86076 30.3816 2.19172 29.6471C1.52268 28.8458 0.987441 27.911 0.586016 26.9094C0.251494 25.9078 0.0507812 24.8394 0.0507812 23.7043V8.34658C0.0507812 7.21145 0.251494 6.14309 0.586016 5.20827C0.987441 4.1399 1.52268 3.27186 2.19172 2.47059C2.86076 1.66932 3.66361 1.06836 4.60027 0.667727C5.47003 0.200318 6.40669 0 7.41025 0Z" fill="#31304F"/>
<path d="M101.946 0H115.862C116.865 0 117.869 0.200318 118.739 0.667727C120.612 1.53577 122.017 3.27186 122.686 5.20827C123.021 6.14308 123.221 7.21145 123.221 8.34658V23.7043C123.221 24.8394 123.088 25.9078 122.686 26.9094C122.352 27.911 121.816 28.8458 121.147 29.5803C120.478 30.3148 119.675 30.9157 118.873 31.3831C118.07 31.7838 117.267 31.9841 116.397 32.0509V40.3975C116.397 40.531 116.397 40.6645 116.33 40.8649C116.33 40.9984 116.263 41.132 116.196 41.2655C116.063 41.399 115.996 41.5326 115.862 41.5994C115.728 41.7329 115.594 41.7997 115.46 41.8665C115.327 41.9332 115.126 42 114.992 42C114.791 42 114.591 41.9332 114.457 41.8665C114.189 41.7997 113.989 41.6661 113.721 41.4658C113.52 41.3323 113.32 41.132 113.119 40.7981L106.161 32.1176H101.946V31.1161H106.629C109.038 34.1208 111.446 37.1256 113.855 40.1971C113.989 40.3975 114.122 40.531 114.323 40.6645C114.457 40.7981 114.591 40.9316 114.725 40.9316C114.791 40.9984 114.858 40.9984 114.925 40.9984C114.992 40.9984 115.059 40.9984 115.126 40.9316C115.193 40.9316 115.193 40.8649 115.26 40.8649C115.327 40.7981 115.327 40.7981 115.394 40.7313C115.394 40.6645 115.46 40.5978 115.46 40.531C115.46 40.4642 115.46 40.4642 115.46 40.3975V31.1161H115.929C116.799 31.0493 117.601 30.849 118.337 30.5151C119.14 30.1145 119.809 29.5803 120.411 28.9126C121.014 28.2448 121.482 27.4436 121.816 26.5087C122.151 25.6407 122.285 24.7059 122.285 23.7043V8.34658C122.285 7.34499 122.151 6.41017 121.816 5.54213C121.482 4.67409 121.014 3.80604 120.411 3.13831C119.809 2.47059 119.073 1.93641 118.337 1.53577C117.601 1.20191 116.732 1.00159 115.862 1.00159H101.946V0Z" fill="#31304F"/>
<path d="M16.3755 0H103.15V1.00159H16.3755V0ZM16.3755 31.1161H103.15V32.1176H16.3755V31.1161Z" fill="#31304F"/>
<path d="M19.4528 21.4344C19.0514 22.0353 18.4493 22.5027 17.5795 23.0369C16.6428 23.5043 15.5055 23.7046 14.1005 23.7714C12.361 23.7046 10.8891 23.1037 9.75171 21.9018C8.61434 20.6999 8.0791 19.0973 8.0791 17.2277V14.3565C8.0791 12.4868 8.61434 10.9511 9.6848 9.74915C10.8222 8.54724 12.2272 7.94629 13.9667 7.94629C15.6393 7.94629 16.9105 8.4137 17.914 9.28174C18.9176 10.1498 19.3859 11.2849 19.319 12.6204V12.6871H18.1816C18.1816 11.6188 17.7802 10.7507 17.0443 10.083C16.3083 9.34851 15.3048 9.01465 13.9667 9.01465C12.5617 9.01465 11.4243 9.54883 10.6215 10.5504C9.75171 11.552 9.35028 12.8207 9.35028 14.3565V17.2277C9.35028 18.7635 9.75171 20.0989 10.6884 21.1673C11.5581 22.1689 12.6955 22.703 14.1005 22.703C15.171 22.703 16.0407 22.5027 16.7098 22.1689C17.4457 21.835 17.914 21.5011 18.1816 21.0337V17.1609H14.0336V16.0926H19.4528V21.4344ZM21.8614 17.6283C21.8614 15.959 22.3297 14.6236 23.2664 13.4884C24.203 12.4201 25.4073 11.8859 26.9461 11.8859C28.4849 11.8859 29.6892 12.4201 30.6258 13.4884C31.4956 14.6236 31.9639 15.959 31.9639 17.6283V18.029C31.9639 19.6983 31.5625 21.0337 30.6258 22.1021C29.6892 23.2372 28.4849 23.7046 26.9461 23.7714C25.4073 23.7046 24.203 23.2372 23.2664 22.1021C22.3297 21.0337 21.8614 19.6983 21.8614 18.029V17.6283ZM23.1326 18.029C23.1326 19.2976 23.4671 20.4328 24.1361 21.3008C24.8052 22.2356 25.7418 22.703 26.9461 22.703C28.1504 22.703 29.0201 22.2356 29.7561 21.3008C30.4251 20.4328 30.7597 19.2976 30.7597 18.029V17.6283C30.7597 16.3596 30.4251 15.2245 29.6892 14.3565C29.0201 13.4216 28.0835 12.9542 26.9461 12.9542C25.7418 12.9542 24.8052 13.4216 24.1361 14.3565C23.4671 15.2245 23.1326 16.3596 23.1326 17.6283V18.029Z" fill="#31304F"/>
<path d="M34.4395 23.5042V8.14649H38.922C40.5277 8.14649 41.732 8.54712 42.6687 9.21485C43.5384 9.88258 44.0068 10.8842 44.0068 12.2196C44.0068 12.9541 43.8061 13.6218 43.3377 14.2228C42.9363 14.8238 42.3342 15.2244 41.5982 15.4247C42.6018 15.5583 43.3377 15.9589 44.0068 16.6934C44.6089 17.4279 44.8765 18.2959 44.8765 19.2307C44.8765 20.633 44.4751 21.7013 43.5384 22.4358C42.6687 23.1703 41.4644 23.5042 39.9925 23.5042H34.4395ZM35.7106 16.0924V22.4358H39.9925C41.1299 22.4358 41.9996 22.1687 42.6687 21.6346C43.3377 21.0336 43.6053 20.2991 43.6053 19.2975C43.6053 18.3627 43.3377 17.6282 42.6687 17.0273C42.0665 16.4931 41.1968 16.1592 40.1263 16.0924H39.9256H35.7106ZM35.7106 15.0241H39.3904C40.4608 15.0241 41.2637 14.757 41.8658 14.2896C42.468 13.8222 42.7356 13.0877 42.7356 12.1528C42.7356 11.218 42.4011 10.4835 41.732 10.0161C41.1299 9.48194 40.1932 9.28162 38.922 9.28162H35.7106V15.0241ZM54.1762 23.5042C54.1093 23.1036 54.0424 22.7697 54.0424 22.5026C53.9755 22.1687 53.9755 21.9017 53.9755 21.5678C53.5741 22.2355 53.0388 22.7029 52.3029 23.1036C51.6339 23.5042 50.7641 23.7045 49.8943 23.7713C48.757 23.7045 47.8872 23.4374 47.2851 22.8365C46.6829 22.2355 46.3484 21.4342 46.3484 20.4327C46.3484 19.4311 46.8167 18.563 47.6865 17.9621C48.5563 17.2943 49.7605 17.0273 51.1655 17.0273H53.9755V15.625C53.9755 14.757 53.7079 14.156 53.1727 13.6886C52.7043 13.2212 51.9684 12.9541 51.0317 12.9541C50.162 12.9541 49.426 13.2212 48.8908 13.6218C48.3555 14.0225 48.0879 14.5567 48.0879 15.2244H46.9506V15.1576C46.8837 14.2896 47.2182 13.5551 48.021 12.8873C48.8239 12.2196 49.8274 11.8858 51.0986 11.8858C52.3029 11.8858 53.3065 12.2196 54.1093 12.8873C54.8453 13.4883 55.2467 14.4231 55.2467 15.625V21.2339C55.2467 21.6346 55.2467 22.0352 55.3136 22.3691C55.3136 22.7697 55.4474 23.1703 55.5143 23.5042H54.1762ZM50.0282 22.6362C50.9648 22.6362 51.8346 22.3691 52.5036 21.9017C53.2396 21.501 53.7079 20.9001 53.9755 20.1656V17.9621H51.1655C50.0951 17.9621 49.2922 18.2292 48.6232 18.6966C47.9541 19.164 47.6196 19.7649 47.6196 20.4994C47.6196 21.1004 47.8203 21.6346 48.2217 22.0352C48.6901 22.4358 49.2922 22.6362 50.0282 22.6362ZM59.5286 23.5042H58.2574V7.07812H59.5286V23.5042ZM69.7649 23.5042C69.698 23.1036 69.6311 22.7697 69.5642 22.5026C69.5642 22.1687 69.4973 21.9017 69.4973 21.5678C69.0959 22.2355 68.5606 22.7029 67.8916 23.1036C67.1557 23.5042 66.3528 23.7045 65.4161 23.7713C64.2788 23.7045 63.409 23.4374 62.8069 22.8365C62.2047 22.2355 61.8702 21.4342 61.8702 20.4327C61.8702 19.4311 62.3385 18.563 63.2083 17.9621C64.145 17.2943 65.2823 17.0273 66.6873 17.0273H69.4973V15.625C69.4973 14.757 69.2297 14.156 68.7614 13.6886C68.2261 13.2212 67.4902 12.9541 66.5535 12.9541C65.6838 12.9541 65.0147 13.2212 64.4795 13.6218C63.9442 14.0225 63.6766 14.5567 63.6766 15.2244H62.4724V15.1576C62.4054 14.2896 62.8069 13.5551 63.5428 12.8873C64.3457 12.2196 65.3492 11.8858 66.6204 11.8858C67.8916 11.8858 68.8952 12.2196 69.6311 12.8873C70.3671 13.4883 70.7685 14.4231 70.7685 15.625V21.2339C70.7685 21.6346 70.7685 22.0352 70.8354 22.3691C70.9023 22.7697 70.9692 23.1703 71.103 23.5042H69.7649ZM65.5499 22.6362C66.5535 22.6362 67.3564 22.3691 68.0923 21.9017C68.7614 21.501 69.2966 20.9001 69.4973 20.1656V17.9621H66.6873C65.6838 17.9621 64.814 18.2292 64.145 18.6966C63.4759 19.164 63.1414 19.7649 63.1414 20.4994C63.1414 21.1004 63.3421 21.6346 63.8104 22.0352C64.2119 22.4358 64.814 22.6362 65.5499 22.6362ZM76.2546 17.9621H74.9165V23.5042H73.6454V7.07812H74.9165V16.8937H76.1208L80.5365 12.0861H82.0084V12.1528L77.3251 17.3611L82.4098 23.4374L82.3429 23.5042H80.9379L76.2546 17.9621ZM83.0789 17.6282C83.0789 15.9589 83.5472 14.6234 84.4839 13.4883C85.3536 12.4199 86.6248 11.8858 88.0967 11.8858C89.6355 11.8858 90.8398 12.4199 91.7764 13.4883C92.7131 14.6234 93.1814 15.9589 93.1814 17.6282V18.0288C93.1814 19.6982 92.7131 21.0336 91.7764 22.102C90.9067 23.2371 89.6355 23.7045 88.1636 23.7713C86.6248 23.7045 85.3536 23.2371 84.4839 22.102C83.5472 21.0336 83.0789 19.6982 83.0789 18.0288V17.6282ZM84.3501 18.0288C84.3501 19.2975 84.6846 20.4327 85.3536 21.3007C86.0227 22.2355 86.9593 22.7029 88.1636 22.7029C89.301 22.7029 90.2376 22.2355 90.9067 21.3007C91.5757 20.4327 91.9102 19.2975 91.9102 18.0288V17.6282C91.9102 16.3595 91.5757 15.2244 90.9067 14.3563C90.2376 13.4215 89.301 12.9541 88.0967 12.9541C86.9593 12.9541 86.0227 13.4215 85.3536 14.3563C84.6846 15.2244 84.3501 16.3595 84.3501 17.6282V18.0288ZM98.4 20.633L98.8014 21.9684H98.8683L99.2697 20.633L102.347 12.0861H103.685L99.3366 23.5042H98.333L93.9843 12.0861H95.2555L98.4 20.633ZM104.354 17.6282C104.354 15.9589 104.823 14.6234 105.759 13.4883C106.696 12.4199 107.9 11.8858 109.439 11.8858C110.978 11.8858 112.182 12.4199 113.119 13.4883C114.056 14.6234 114.457 15.9589 114.457 17.6282V18.0288C114.457 19.6982 114.056 21.0336 113.119 22.102C112.182 23.2371 110.978 23.7045 109.439 23.7713C107.9 23.7045 106.696 23.2371 105.759 22.102C104.823 21.0336 104.354 19.6982 104.354 18.0288V17.6282ZM105.626 18.0288C105.626 19.2975 105.96 20.4327 106.629 21.3007C107.298 22.2355 108.235 22.7029 109.439 22.7029C110.643 22.7029 111.58 22.2355 112.249 21.3007C112.918 20.4327 113.253 19.2975 113.253 18.0288V17.6282C113.253 16.3595 112.918 15.2244 112.249 14.3563C111.513 13.4215 110.643 12.9541 109.439 12.9541C108.235 12.9541 107.298 13.4215 106.629 14.3563C105.96 15.2244 105.626 16.3595 105.626 17.6282V18.0288Z" fill="#2B2A29"/>
<path d="M134.06 11.2843V11.3511C134.127 11.952 133.926 12.4194 133.525 12.7533C133.057 13.1539 132.521 13.3543 131.919 13.3543C131.183 13.3543 130.648 13.0872 130.247 12.553C129.778 12.0856 129.578 11.4179 129.578 10.6834V9.615C129.578 8.8805 129.778 8.21277 130.247 7.74536C130.648 7.21118 131.183 6.94409 131.919 6.94409C132.588 6.94409 133.124 7.14441 133.525 7.47827C133.926 7.87891 134.127 8.34632 134.06 8.94727V9.01404H133.592C133.592 8.47986 133.458 8.07923 133.124 7.81214C132.856 7.54505 132.455 7.4115 131.919 7.4115C131.317 7.4115 130.916 7.61182 130.581 8.01245C130.247 8.47986 130.113 9.01404 130.113 9.615V10.6834C130.113 11.2843 130.247 11.8185 130.581 12.2859C130.916 12.6865 131.317 12.8869 131.919 12.8869C132.455 12.8869 132.856 12.7533 133.124 12.4862C133.458 12.2191 133.592 11.8185 133.592 11.2843H134.06ZM138.208 13.2207C138.141 13.0872 138.141 12.9536 138.141 12.8201C138.141 12.6865 138.074 12.553 138.074 12.4862C137.941 12.6865 137.74 12.8869 137.405 13.0872C137.138 13.2207 136.803 13.3543 136.469 13.3543C136 13.3543 135.666 13.2207 135.398 12.9536C135.131 12.7533 134.997 12.4194 134.997 12.0188C134.997 11.5514 135.198 11.2175 135.599 11.0172C135.934 10.7501 136.402 10.6166 136.937 10.6166H138.074V10.0156C138.074 9.74854 138.008 9.48145 137.807 9.28113C137.606 9.08082 137.272 9.01404 136.937 9.01404C136.536 9.01404 136.268 9.08082 136.067 9.21436C135.867 9.41468 135.733 9.615 135.733 9.88209H135.264C135.264 9.54823 135.398 9.21436 135.733 8.94727C136 8.68018 136.402 8.54664 136.937 8.54664C137.405 8.54664 137.874 8.68018 138.141 8.94727C138.476 9.21436 138.61 9.54823 138.61 10.0824V12.2859C138.61 12.4862 138.61 12.6198 138.61 12.7533C138.677 12.9536 138.677 13.0872 138.744 13.2207H138.208ZM136.536 12.8869C136.87 12.8869 137.205 12.7533 137.539 12.6198C137.807 12.4194 138.008 12.1524 138.074 11.8853V11.0172H136.937C136.536 11.0172 136.201 11.084 135.934 11.2843C135.666 11.4846 135.532 11.7517 135.532 12.0188C135.532 12.2859 135.599 12.4862 135.8 12.6198C135.934 12.8201 136.201 12.8869 136.536 12.8869ZM142.958 8.61341H143.494V13.2207H142.958V9.48145L140.483 13.2207H139.948V8.61341H140.483V12.3527V12.4194L142.958 8.61341ZM142.892 6.81055V6.87732C142.892 7.14441 142.825 7.4115 142.624 7.61182C142.356 7.81214 142.089 7.94568 141.687 7.94568C141.353 7.94568 141.018 7.81214 140.818 7.61182C140.617 7.4115 140.483 7.14441 140.483 6.87732V6.81055H140.884C140.884 7.01086 140.951 7.21118 141.085 7.34473C141.219 7.47827 141.42 7.54505 141.687 7.54505C141.955 7.54505 142.156 7.47827 142.289 7.34473C142.423 7.21118 142.49 7.01086 142.49 6.81055H142.892ZM148.244 9.08082H146.571V13.2207H146.036V9.08082H144.43V8.61341H148.244V9.08082ZM154.198 9.08082H151.857V13.2207H151.322V8.61341H154.198V9.08082ZM154.6 10.8837C154.6 10.216 154.801 9.615 155.135 9.21436C155.536 8.74695 156.005 8.54664 156.674 8.54664C157.276 8.54664 157.744 8.74695 158.146 9.21436C158.48 9.615 158.681 10.216 158.681 10.8837V11.0172C158.681 11.6849 158.48 12.2191 158.146 12.6865C157.744 13.0872 157.276 13.3543 156.674 13.3543C156.005 13.3543 155.536 13.0872 155.135 12.6865C154.801 12.2191 154.6 11.6849 154.6 11.0172V10.8837ZM155.135 11.0172C155.135 11.5514 155.269 12.0188 155.536 12.3527C155.804 12.6865 156.139 12.8869 156.674 12.8869C157.142 12.8869 157.477 12.6865 157.744 12.3527C158.012 12.0188 158.146 11.5514 158.146 11.0172V10.8837C158.146 10.3495 158.012 9.88209 157.744 9.54823C157.477 9.14759 157.142 9.01404 156.674 9.01404C156.139 9.01404 155.804 9.14759 155.536 9.54823C155.269 9.88209 155.135 10.3495 155.135 10.8837V11.0172ZM163.431 11.084C163.431 11.7517 163.297 12.2859 162.963 12.6865C162.695 13.0872 162.227 13.3543 161.692 13.3543C161.357 13.3543 161.09 13.2875 160.822 13.1539C160.621 13.0204 160.421 12.8201 160.22 12.6198V15.0236H159.751V8.61341H160.153L160.22 9.34791C160.354 9.08082 160.554 8.8805 160.822 8.74695C161.09 8.61341 161.357 8.54664 161.692 8.54664C162.227 8.54664 162.695 8.74695 162.963 9.21436C163.297 9.68177 163.431 10.216 163.431 10.9505V11.084ZM162.963 10.9505C162.963 10.4163 162.829 9.94886 162.561 9.54823C162.361 9.21436 162.026 9.01404 161.558 9.01404C161.223 9.01404 160.956 9.08082 160.755 9.21436C160.554 9.41468 160.354 9.615 160.22 9.88209V12.0856C160.354 12.3527 160.554 12.553 160.755 12.6865C160.956 12.8201 161.223 12.8869 161.558 12.8869C162.026 12.8869 162.361 12.7533 162.561 12.4194C162.829 12.0856 162.963 11.6182 162.963 11.084V10.9505ZM164.301 10.8837C164.301 10.216 164.502 9.615 164.836 9.21436C165.238 8.74695 165.706 8.54664 166.308 8.54664C166.977 8.54664 167.445 8.74695 167.847 9.21436C168.181 9.615 168.382 10.216 168.382 10.8837V11.0172C168.382 11.6849 168.181 12.2191 167.847 12.6865C167.445 13.0872 166.977 13.3543 166.375 13.3543C165.706 13.3543 165.238 13.0872 164.836 12.6865C164.502 12.2191 164.301 11.6849 164.301 11.0172V10.8837ZM164.836 11.0172C164.836 11.5514 164.97 12.0188 165.238 12.3527C165.505 12.6865 165.84 12.8869 166.375 12.8869C166.843 12.8869 167.178 12.6865 167.445 12.3527C167.713 12.0188 167.847 11.5514 167.847 11.0172V10.8837C167.847 10.3495 167.713 9.88209 167.445 9.54823C167.178 9.14759 166.776 9.01404 166.308 9.01404C165.84 9.01404 165.505 9.14759 165.238 9.54823C164.97 9.88209 164.836 10.3495 164.836 10.8837V11.0172ZM169.386 12.8201C169.653 12.8201 169.787 12.6198 169.921 12.1524C170.055 11.7517 170.189 11.084 170.189 10.2827L170.322 8.61341H173.065V12.8201H173.467V14.7565H172.999V13.2207H169.519V14.7565H169.051V12.8201H169.386ZM170.724 10.2827C170.657 10.8837 170.59 11.4179 170.523 11.8185C170.456 12.2191 170.322 12.553 170.189 12.8201H172.53V9.14759H170.791L170.724 10.2827ZM177.414 13.2207C177.414 13.0872 177.414 12.9536 177.347 12.8201C177.347 12.6865 177.347 12.553 177.347 12.4862C177.213 12.6865 176.946 12.8869 176.678 13.0872C176.411 13.2207 176.076 13.3543 175.675 13.3543C175.273 13.3543 174.872 13.2207 174.671 12.9536C174.403 12.7533 174.27 12.4194 174.27 12.0188C174.27 11.5514 174.47 11.2175 174.805 11.0172C175.206 10.7501 175.675 10.6166 176.21 10.6166H177.347V10.0156C177.347 9.74854 177.213 9.48145 177.013 9.28113C176.812 9.08082 176.544 9.01404 176.143 9.01404C175.808 9.01404 175.541 9.08082 175.34 9.21436C175.073 9.41468 175.006 9.615 175.006 9.88209H174.537C174.47 9.54823 174.671 9.21436 174.939 8.94727C175.273 8.68018 175.675 8.54664 176.21 8.54664C176.678 8.54664 177.08 8.68018 177.414 8.94727C177.682 9.21436 177.883 9.54823 177.883 10.0824V12.2859C177.883 12.4862 177.883 12.6198 177.883 12.7533C177.883 12.9536 177.949 13.0872 177.949 13.2207H177.414ZM175.742 12.8869C176.143 12.8869 176.478 12.7533 176.745 12.6198C177.08 12.4194 177.28 12.1524 177.347 11.8853V11.0172H176.21C175.808 11.0172 175.474 11.084 175.206 11.2843C174.939 11.4846 174.805 11.7517 174.805 12.0188C174.805 12.2859 174.872 12.4862 175.073 12.6198C175.206 12.8201 175.474 12.8869 175.742 12.8869ZM133.525 17.8948H130.314V20.0983H131.852C132.521 20.0983 132.99 20.2318 133.391 20.5657C133.726 20.8996 133.926 21.367 133.926 21.8344C133.926 22.3686 133.726 22.836 133.324 23.1698C132.99 23.5037 132.521 23.6373 131.852 23.6373H129.778V17.4942H133.525V17.8948ZM130.314 20.4989V23.2366H131.852C132.388 23.2366 132.722 23.1031 132.99 22.836C133.257 22.5689 133.391 22.235 133.391 21.8344C133.391 21.5005 133.257 21.1667 132.99 20.8996C132.722 20.6325 132.388 20.4989 131.852 20.4989H130.314ZM138.074 23.6373C138.074 23.5037 138.008 23.3702 138.008 23.2366C138.008 23.1031 138.008 23.0363 138.008 22.9028C137.807 23.1698 137.606 23.3702 137.339 23.5037C137.004 23.6373 136.669 23.7708 136.335 23.7708C135.867 23.7708 135.532 23.6373 135.264 23.3702C135.064 23.1698 134.93 22.836 134.93 22.4353C134.93 22.0347 135.064 21.7008 135.465 21.4338C135.8 21.1667 136.268 21.0331 136.87 21.0331H138.008V20.4989C138.008 20.1651 137.874 19.898 137.673 19.6977C137.472 19.4973 137.138 19.4306 136.803 19.4306C136.469 19.4306 136.134 19.4973 135.934 19.6977C135.733 19.8312 135.599 20.0315 135.599 20.2986H135.131C135.131 19.9648 135.264 19.6309 135.599 19.3638C135.867 19.0967 136.335 18.9632 136.803 18.9632C137.339 18.9632 137.74 19.0967 138.008 19.3638C138.342 19.6309 138.476 20.0315 138.476 20.4989V22.7692C138.476 22.9028 138.476 23.0363 138.543 23.2366C138.543 23.3702 138.543 23.5037 138.61 23.6373H138.074ZM136.402 23.3034C136.803 23.3034 137.138 23.2366 137.405 23.0363C137.673 22.836 137.874 22.5689 138.008 22.3018V21.4338H136.87C136.402 21.4338 136.067 21.5005 135.8 21.7008C135.532 21.9012 135.398 22.1683 135.398 22.4353C135.398 22.7024 135.532 22.9028 135.666 23.0363C135.867 23.2366 136.067 23.3034 136.402 23.3034ZM143.36 19.0967V23.6373H142.825V19.4973H140.884V21.0999C140.884 22.0347 140.751 22.6357 140.55 23.0363C140.349 23.4369 140.015 23.6373 139.479 23.6373H139.346V23.2366H139.479C139.814 23.2366 140.015 23.0363 140.149 22.7024C140.282 22.4353 140.349 21.9012 140.349 21.0999V19.0967H143.36ZM147.575 23.6373C147.508 23.5037 147.508 23.3702 147.508 23.2366C147.441 23.1031 147.441 23.0363 147.441 22.9028C147.307 23.1698 147.04 23.3702 146.772 23.5037C146.504 23.6373 146.17 23.7708 145.768 23.7708C145.367 23.7708 145.033 23.6373 144.765 23.3702C144.497 23.1698 144.363 22.836 144.363 22.4353C144.363 22.0347 144.564 21.7008 144.899 21.4338C145.3 21.1667 145.768 21.0331 146.304 21.0331H147.441V20.4989C147.441 20.1651 147.374 19.898 147.173 19.6977C146.906 19.4973 146.638 19.4306 146.237 19.4306C145.902 19.4306 145.635 19.4973 145.434 19.6977C145.233 19.8312 145.099 20.0315 145.099 20.2986H144.631C144.564 19.9648 144.765 19.6309 145.033 19.3638C145.367 19.0967 145.768 18.9632 146.304 18.9632C146.772 18.9632 147.173 19.0967 147.508 19.3638C147.776 19.6309 147.976 20.0315 147.976 20.4989V22.7692C147.976 22.9028 147.976 23.0363 147.976 23.2366C147.976 23.3702 148.043 23.5037 148.11 23.6373H147.575ZM145.835 23.3034C146.237 23.3034 146.571 23.2366 146.839 23.0363C147.173 22.836 147.374 22.5689 147.441 22.3018V21.4338H146.304C145.902 21.4338 145.568 21.5005 145.3 21.7008C145.033 21.9012 144.899 22.1683 144.899 22.4353C144.899 22.7024 144.966 22.9028 145.166 23.0363C145.3 23.2366 145.568 23.3034 145.835 23.3034ZM150.452 21.5673H149.85V23.6373H149.314V19.0967H149.85V21.0999H150.385L152.258 19.0967H152.86L150.853 21.3002L153.061 23.6373H152.392L150.452 21.5673ZM153.529 21.3002C153.529 20.6325 153.73 20.0983 154.065 19.6309C154.466 19.2303 154.934 18.9632 155.536 18.9632C156.206 18.9632 156.674 19.2303 157.075 19.6309C157.41 20.0983 157.611 20.6325 157.611 21.3002V21.4338C157.611 22.1015 157.41 22.7024 157.075 23.1031C156.674 23.5037 156.206 23.7708 155.603 23.7708C154.934 23.7708 154.466 23.5037 154.065 23.1031C153.73 22.7024 153.529 22.1015 153.529 21.4338V21.3002ZM154.065 21.4338C154.065 21.9679 154.198 22.4353 154.466 22.7692C154.734 23.1698 155.068 23.3034 155.603 23.3034C156.072 23.3034 156.406 23.1698 156.674 22.7692C156.941 22.4353 157.075 21.9679 157.075 21.4338V21.3002C157.075 20.766 156.941 20.2986 156.674 19.9648C156.406 19.6309 156.072 19.4306 155.536 19.4306C155.068 19.4306 154.734 19.6309 154.466 19.9648C154.198 20.2986 154.065 20.766 154.065 21.3002V21.4338ZM158.681 23.6373V19.0967H160.354C160.956 19.0967 161.424 19.1635 161.692 19.3638C162.026 19.5641 162.16 19.898 162.16 20.2986C162.16 20.4989 162.093 20.766 161.959 20.8996C161.825 21.0999 161.625 21.2334 161.357 21.3002C161.692 21.367 161.892 21.5005 162.093 21.7008C162.294 21.9012 162.361 22.1015 162.361 22.3686C162.361 22.836 162.227 23.1031 161.892 23.3702C161.625 23.5705 161.223 23.6373 160.688 23.6373H158.681ZM159.216 21.5673V23.2366H160.688C161.023 23.2366 161.357 23.1698 161.558 23.0363C161.759 22.836 161.892 22.6357 161.892 22.3686C161.892 22.1015 161.759 21.9012 161.558 21.7676C161.357 21.6341 161.023 21.5673 160.688 21.5673H159.216ZM159.216 21.0999H160.421C160.822 21.0999 161.156 21.0331 161.357 20.8996C161.558 20.766 161.692 20.5657 161.692 20.2986C161.692 20.0315 161.558 19.8312 161.357 19.6977C161.156 19.5641 160.822 19.4973 160.354 19.4973H159.216V21.0999ZM163.23 21.3002C163.23 20.6325 163.431 20.0983 163.766 19.6309C164.167 19.2303 164.635 18.9632 165.238 18.9632C165.84 18.9632 166.375 19.2303 166.71 19.6309C167.111 20.0983 167.312 20.6325 167.312 21.3002V21.4338C167.312 22.1015 167.111 22.7024 166.71 23.1031C166.375 23.5037 165.907 23.7708 165.238 23.7708C164.635 23.7708 164.167 23.5037 163.766 23.1031C163.431 22.7024 163.23 22.1015 163.23 21.4338V21.3002ZM163.766 21.4338C163.766 21.9679 163.9 22.4353 164.167 22.7692C164.435 23.1698 164.769 23.3034 165.238 23.3034C165.706 23.3034 166.107 23.1698 166.375 22.7692C166.643 22.4353 166.776 21.9679 166.776 21.4338V21.3002C166.776 20.766 166.643 20.2986 166.375 19.9648C166.107 19.6309 165.706 19.4306 165.238 19.4306C164.769 19.4306 164.435 19.6309 164.167 19.9648C163.9 20.2986 163.766 20.766 163.766 21.3002V21.4338Z" fill="#323232"/>
</g>
<defs>
<clipPath id="clip0">
<rect width="178" height="42" fill="white"/>
</clipPath>
</defs>
</svg>
