<svg width="136" height="136" viewBox="0 0 136 136" fill="none" xmlns="http://www.w3.org/2000/svg">
<circle cx="68" cy="68" r="68" fill="#FF2036"/>
<g clip-path="url(#clip0)">
<path d="M97.5916 100.456H94.3052V52.7377C94.3052 50.5166 92.4981 48.7097 90.2772 48.7097H82.9314C80.7104 48.7097 78.9034 50.5168 78.9034 52.7377V100.456H70.5586V74.3579C70.5586 72.1369 68.7516 70.3299 66.5306 70.3299H59.1848C56.9638 70.3299 55.1568 72.137 55.1568 74.3579V100.456H46.812V86.9401C46.812 84.7191 45.0049 82.9121 42.784 82.9121H35.4381C33.217 82.9121 31.4101 84.7192 31.4101 86.9401V100.456H27.9464C27.1188 100.456 26.448 101.127 26.448 101.955C26.448 102.782 27.1188 103.453 27.9464 103.453H97.5916C98.4192 103.453 99.09 102.782 99.09 101.955C99.09 101.127 98.4192 100.456 97.5916 100.456ZM43.8149 100.456H34.4067V86.9401C34.4067 86.3715 34.8693 85.9089 35.4379 85.9089H42.7837C43.3523 85.9089 43.8149 86.3715 43.8149 86.9401V100.456ZM67.5616 100.456H58.1535V74.3579C58.1535 73.7893 58.616 73.3267 59.1847 73.3267H66.5304C67.0989 73.3267 67.5616 73.7893 67.5616 74.3579V100.456ZM91.3084 100.456H81.9002V52.7377C81.9002 52.1691 82.3628 51.7065 82.9314 51.7065H90.2772C90.8458 51.7065 91.3084 52.1691 91.3084 52.7377V100.456Z" fill="white"/>
<path d="M94.3017 28.3108C94.3226 27.9019 94.1788 27.4861 93.8665 27.1738C93.5543 26.8616 93.1385 26.7176 92.7296 26.7387C92.7054 26.7377 92.6816 26.7351 92.657 26.7351H83.5917C82.7642 26.7351 82.0933 27.4059 82.0933 28.2335C82.0933 29.0611 82.7642 29.7319 83.5917 29.7319H89.1893L74.3766 44.5448L68.7906 38.9587C68.5096 38.6778 68.1284 38.5199 67.731 38.5199C67.3337 38.5199 66.9525 38.6778 66.6715 38.9587L39.735 65.8954C39.1499 66.4805 39.1499 67.4293 39.735 68.0146C40.0276 68.3069 40.4111 68.4532 40.7945 68.4532C41.1779 68.4532 41.5615 68.3069 41.854 68.0143L67.731 42.1371L73.3171 47.7232C73.9022 48.3083 74.851 48.3083 75.4362 47.7232L91.3085 31.8511V36.9172C91.3085 37.7447 91.9793 38.4156 92.8069 38.4156C93.6344 38.4156 94.3053 37.7447 94.3053 36.9172V28.3833C94.3053 28.3589 94.3027 28.3351 94.3017 28.3108Z" fill="white"/>
<path d="M35.744 73.6814C36.5715 73.6814 37.2424 73.0105 37.2424 72.183C37.2424 71.3554 36.5715 70.6846 35.744 70.6846C34.9165 70.6846 34.2456 71.3554 34.2456 72.183C34.2456 73.0105 34.9165 73.6814 35.744 73.6814Z" fill="white"/>
</g>
<defs>
<clipPath id="clip0">
<rect width="76.7179" height="76.7179" fill="white" transform="translate(24.4102 26.7351)"/>
</clipPath>
</defs>
</svg>
