<svg width="61" height="61" viewBox="0 0 61 61" fill="none" xmlns="http://www.w3.org/2000/svg">
<path d="M57.95 14.2333H46.7667V11.1833C46.7622 7.25479 43.5785 4.0711 39.65 4.06665H21.35C17.4215 4.0711 14.2378 7.25479 14.2333 11.1833V14.2333H3.05C1.36551 14.2333 0 15.5988 0 17.2833V37.6166C0.0053375 38.9045 0.819052 40.0503 2.03333 40.4796V53.8833C2.03333 55.5678 3.39884 56.9333 5.08333 56.9333H55.9167C57.6012 56.9333 58.9667 55.5678 58.9667 53.8833V40.4796C60.1809 40.0503 60.9947 38.9045 61 37.6166V17.2833C61 15.5988 59.6345 14.2333 57.95 14.2333ZM16.2667 11.1833C16.27 8.37732 18.544 6.10329 21.35 6.09998H39.65C42.456 6.10329 44.73 8.37732 44.7333 11.1833V14.2333H42.6593L42.7 11.1833C42.6967 9.50023 41.3331 8.13662 39.65 8.13332H21.3124C19.6293 8.13662 18.2657 9.50023 18.2624 11.1833V11.1935L18.2898 14.2333H16.2667V11.1833ZM40.6667 11.1691L40.626 14.2333H20.3232L20.2916 11.1833C20.2916 10.6219 20.7469 10.1667 21.3083 10.1667H39.65C40.206 10.1667 40.6589 10.6131 40.6667 11.1691ZM56.9333 53.8833C56.9333 54.4448 56.4781 54.9 55.9167 54.9H5.08333C4.52188 54.9 4.06667 54.4448 4.06667 53.8833V40.6666H11.1833V43.7166C11.1833 44.2781 11.6385 44.7333 12.2 44.7333H16.2667C16.8281 44.7333 17.2833 44.2781 17.2833 43.7166V40.6666H43.7167V43.7166C43.7167 44.2781 44.1719 44.7333 44.7333 44.7333H48.8C49.3615 44.7333 49.8167 44.2781 49.8167 43.7166V40.6666H56.9333V53.8833ZM13.2167 42.7V37.6166C13.2162 37.3425 13.3291 37.0805 13.5288 36.8928C13.7137 36.7028 13.9682 36.5969 14.2333 36.6C14.7948 36.6 15.25 37.0552 15.25 37.6166V39.65V42.7H13.2167ZM45.75 42.7V37.6166C45.75 37.0552 46.2052 36.6 46.7667 36.6C47.0409 36.5991 47.3033 36.7117 47.4916 36.9111C47.6801 37.0973 47.7854 37.3517 47.7833 37.6166V39.65V42.7H45.75ZM58.9667 37.6166C58.9667 38.1781 58.5115 38.6333 57.95 38.6333H49.8167V37.6166C49.8094 35.9352 48.4481 34.5739 46.7667 34.5666C45.0822 34.5666 43.7167 35.9322 43.7167 37.6166V38.6333H17.2833V37.6166C17.2833 35.9322 15.9178 34.5666 14.2333 34.5666C12.5528 34.5761 11.1927 35.9361 11.1833 37.6166V38.6333H3.05C2.48855 38.6333 2.03333 38.1781 2.03333 37.6166V17.2833C2.03333 16.7219 2.48855 16.2667 3.05 16.2667H57.95C58.5115 16.2667 58.9667 16.7219 58.9667 17.2833V37.6166Z" fill="#BC2A40"/>
</svg>
