<svg width="137" height="137" viewBox="0 0 137 137" fill="none" xmlns="http://www.w3.org/2000/svg">
<circle cx="68.5" cy="68.5" r="68.5" fill="#EE2135"/>
<g clip-path="url(#clip0)">
<path d="M107.727 82.2195C107.727 72.1129 99.5136 63.8086 89.3157 63.8086C83.1469 63.8086 77.6773 66.8587 74.3348 71.5296H51.1182V67.0679C51.1182 65.6403 49.9569 64.479 48.5294 64.479H43.256C41.8285 64.479 40.6672 65.6403 40.6672 67.0679V71.5296H39.3986C36.3315 71.5296 33.8364 69.0344 33.8364 65.9674V57.6655C33.8364 54.5984 36.3317 52.1033 39.3986 52.1033H92.0666C95.1336 52.1033 97.6289 54.5984 97.6289 57.6655V62.691C97.6289 63.3044 98.126 63.8015 98.7394 63.8015C99.3527 63.8015 99.8498 63.3044 99.8498 62.691V57.6655C99.8498 53.374 96.3582 49.8824 92.0666 49.8824H80.5408V45.0657C80.5408 40.271 76.64 36.3701 71.8453 36.3701H59.6201C54.8252 36.3701 50.9245 40.271 50.9245 45.0657V49.8825H39.3986C35.1071 49.8824 31.6155 53.374 31.6155 57.6655V90.5968C31.6155 94.8884 35.1071 98.38 39.3986 98.38H74.8901C75.5035 98.38 76.0006 97.8829 76.0006 97.2696C76.0006 96.6562 75.5035 96.1591 74.8901 96.1591H39.3986C36.3315 96.1591 33.8364 93.6638 33.8364 90.5968V71.404C35.2504 72.8504 37.2209 73.7505 39.3986 73.7505H40.6672V74.8792C40.6672 77.7604 43.0113 80.1046 45.8927 80.1046C48.7741 80.1046 51.1182 77.7604 51.1182 74.8792V73.7505H72.9722C71.6523 76.2873 70.905 79.1676 70.905 82.2195C70.905 92.3286 79.1206 100.63 89.3159 100.63C99.5024 100.63 107.727 92.336 107.727 82.2195ZM73.8533 49.8824H57.612V45.0657C57.612 43.9583 58.5129 43.0576 59.6201 43.0576H71.8453C72.9526 43.0576 73.8533 43.9585 73.8533 45.0657V49.8824ZM53.1454 45.0657C53.1454 41.4954 56.05 38.591 59.6201 38.591H71.8453C75.4155 38.591 78.3199 41.4956 78.3199 45.0657V49.8825H76.0742V45.0657C76.0742 42.7339 74.177 40.8367 71.8453 40.8367H59.6201C57.2883 40.8367 55.3911 42.7339 55.3911 45.0657V49.8825H53.1454V45.0657ZM43.256 66.6999H48.5294C48.7323 66.6999 48.8973 66.8651 48.8973 67.0679V68.7703H42.8881V67.0679C42.8881 66.865 43.0533 66.6999 43.256 66.6999ZM48.8973 74.8792C48.8973 76.536 47.5495 77.8837 45.8927 77.8837C44.2359 77.8837 42.8881 76.536 42.8881 74.8792V70.991H48.8972V74.8792H48.8973ZM103.816 89.4149C102.4 89.0139 100.63 88.6831 98.6151 88.435C99.3561 84.456 99.3575 79.9901 98.6151 76.0038C100.63 75.7557 102.4 75.4249 103.816 75.0239C104.897 77.1927 105.506 79.636 105.506 82.2193C105.506 84.8028 104.896 87.2461 103.816 89.4149ZM95.8736 74.0472C94.1632 74.1871 92.3245 74.2729 90.4262 74.2971V66.219C93.2679 67.1792 95.0508 71.1623 95.8736 74.0472ZM88.2053 66.2124V74.2971C86.3078 74.2729 84.4702 74.1872 82.7604 74.0475C83.931 69.9287 85.9392 66.9568 88.2053 66.2124ZM82.7565 90.3919C84.4674 90.252 86.3065 90.1661 88.2054 90.142V98.225C85.9408 97.4838 83.928 94.5279 82.7565 90.3919ZM90.4262 98.2199V90.1419C92.3245 90.1661 94.1632 90.2519 95.8736 90.3918C95.0511 93.2757 93.2683 97.2596 90.4262 98.2199ZM90.4262 87.9208V76.5183C92.5222 76.4929 94.5335 76.3958 96.3936 76.2349C97.1327 80.0551 97.1387 84.3534 96.3936 88.2042C94.5335 88.0433 92.5222 87.9461 90.4262 87.9208ZM102.643 73.0383C101.386 73.3534 99.8498 73.6185 98.1225 73.8232C97.389 71.09 96.3031 68.7674 94.9691 67.0487C98.0987 68.2187 100.772 70.3308 102.643 73.0383ZM83.648 67.0542C82.3218 68.7649 81.2395 71.0795 80.5072 73.823C78.7804 73.6182 77.2447 73.3533 75.9885 73.0383C77.8567 70.335 80.5246 68.2254 83.648 67.0542ZM74.8157 75.0242C76.2318 75.4252 78.0015 75.756 80.0172 76.0041C79.7827 77.2702 79.6169 78.6061 79.5297 79.9996C79.4913 80.6116 79.9564 81.1391 80.5684 81.1773C81.1793 81.215 81.7077 80.7506 81.7462 80.1383C81.8314 78.779 82.0001 77.4704 82.2401 76.2351C84.0996 76.3958 86.1101 76.4929 88.2053 76.5183V87.9208C86.11 87.9462 84.0996 88.0433 82.2399 88.204C82.0522 87.2336 81.9065 86.2183 81.8119 85.1652C81.7571 84.5544 81.2172 84.102 80.6067 84.1584C79.9958 84.2132 79.5451 84.7528 79.5998 85.3635C79.6941 86.413 79.8368 87.4401 80.0236 88.4343C78.0052 88.6824 76.2331 89.0134 74.8155 89.4151C73.7348 87.2462 73.1256 84.8029 73.1256 82.2196C73.1259 79.6362 73.7351 77.1929 74.8157 75.0242ZM75.9887 91.4007C77.2481 91.0848 78.7882 90.8194 80.52 90.6144C81.1541 92.9731 82.1577 95.4509 83.6614 97.3898C80.5322 96.2196 77.8594 94.1078 75.9887 91.4007ZM94.9691 97.3903C96.3031 95.6715 97.389 93.3489 98.1225 90.6158C99.8498 90.8206 101.386 91.0855 102.643 91.4007C100.772 94.1081 98.0987 96.2202 94.9691 97.3903Z" fill="white"/>
</g>
<defs>
<clipPath id="clip0">
<rect width="76.1111" height="76.1111" fill="white" transform="translate(31.6155 30.4446)"/>
</clipPath>
</defs>
</svg>
