<svg width="42" height="42" viewBox="0 0 42 42" fill="none" xmlns="http://www.w3.org/2000/svg">
<g clip-path="url(#clip0)">
<path d="M40.7182 3.04508L32.1681 0.642305V0.616301C32.1681 0.275953 31.8922 0 31.5518 0C31.2115 0 30.9355 0.275953 30.9355 0.616301V13.4054H30.0615C29.3592 13.4054 28.7879 13.9767 28.7879 14.679V20.2616H20.4831C19.7808 20.2616 19.2095 20.833 19.2095 21.5353V27.1179H10.9046C10.2023 27.1179 9.63095 27.6892 9.63095 28.3915V33.9742H1.32611C0.623838 33.9742 0.0524902 34.5456 0.0524902 35.2478V40.7265C0.0524902 41.4287 0.623838 42.0001 1.32611 42.0001H34.1347C34.4751 42.0001 34.751 41.7241 34.751 41.3838C34.751 41.0434 34.4751 40.7675 34.1347 40.7675H30.0205V20.8779V14.6789C30.0205 14.6563 30.0388 14.6378 30.0616 14.6378H38.3254C38.348 14.6378 38.3665 14.6562 38.3665 14.6789V40.7264C38.3665 40.749 38.348 40.7675 38.3254 40.7675H37.0775C36.7372 40.7675 36.4612 41.0434 36.4612 41.3838C36.4612 41.7241 36.7372 42.0001 37.0775 42.0001H38.3254C39.0277 42.0001 39.599 41.4287 39.599 40.7265V14.6789C39.599 13.9766 39.0277 13.4053 38.3254 13.4053H32.1681V8.6922L33.774 8.24086C34.1016 8.14882 34.2926 7.80847 34.2005 7.48084C34.1085 7.15321 33.7683 6.96199 33.4405 7.05428L32.1681 7.41185V1.92257L40.3847 4.23158C40.691 4.31771 40.7148 4.58678 40.7148 4.66725C40.7148 4.74764 40.6909 5.01679 40.3847 5.10292L36.0286 6.32707C35.701 6.41911 35.51 6.75946 35.602 7.08709C35.6941 7.41472 36.034 7.60602 36.3621 7.51365L40.7181 6.2895C41.4532 6.08295 41.9472 5.43096 41.9472 4.66733C41.9473 3.90354 41.4533 3.25164 40.7182 3.04508V3.04508ZM1.28509 40.7264V35.2478C1.28509 35.2251 1.30347 35.2067 1.32619 35.2067H9.63103V40.7675H1.32611C1.30347 40.7675 1.28509 40.749 1.28509 40.7264V40.7264ZM19.8258 32.7972C19.4854 32.7972 19.2095 33.0731 19.2095 33.4135V40.7675H10.8636V34.5904V28.3915C10.8636 28.3689 10.8819 28.3504 10.9046 28.3504H19.2096V30.5867C19.2096 30.927 19.4855 31.203 19.8259 31.203C20.1662 31.203 20.4422 30.927 20.4422 30.5867V21.5352C20.4422 21.5125 20.4606 21.4941 20.4833 21.4941H28.7881V40.7674H20.442V33.4134C20.442 33.073 20.1661 32.7972 19.8258 32.7972V32.7972Z" fill="#CE1625"/>
</g>
<defs>
<clipPath id="clip0">
<rect width="42" height="42" fill="white"/>
</clipPath>
</defs>
</svg>
