<svg width="55" height="49" viewBox="0 0 55 49" fill="none" xmlns="http://www.w3.org/2000/svg">
<g clip-path="url(#clip0)">
<path d="M22.6633 31.0966H17.1518L15.4623 25.9644C15.0731 24.7823 14.007 24.019 12.7455 24.019C12.7443 24.019 12.743 24.019 12.7417 24.019C11.4786 24.0206 10.4127 24.7868 10.0261 25.9709L8.35259 31.0966H2.8622C1.59955 31.0966 0.532811 31.8611 0.144401 33.0444C-0.244008 34.2275 0.166572 35.4624 1.19025 36.1902L5.64481 39.3576L3.94162 44.5054C3.55055 45.6872 3.95783 46.9227 4.97895 47.653C5.48897 48.0178 6.07319 48.2001 6.6574 48.2001C7.243 48.2001 7.82849 48.0168 8.33916 47.6504L12.7839 44.4611L17.2062 47.6265C18.2276 48.3576 19.5469 48.3568 20.5674 47.6246C21.5878 46.8923 21.9928 45.6557 21.5993 44.4742L19.8958 39.3602L24.3399 36.1868C25.3611 35.4576 25.7693 34.223 25.3802 33.0415C24.9911 31.8601 23.9246 31.0966 22.6633 31.0966V31.0966ZM23.0886 34.4871L18.015 38.1101C17.6399 38.3779 17.4835 38.8536 17.6278 39.2872L19.5737 45.1288C19.7221 45.574 19.4402 45.836 19.312 45.9278C19.184 46.0197 18.8444 46.2038 18.4594 45.9283L13.4098 42.3138C13.0358 42.0461 12.5293 42.0463 12.1555 42.3144L7.08386 45.9536C6.69939 46.2294 6.3598 46.046 6.23158 45.9543C6.10346 45.8625 5.8211 45.6012 5.96841 45.1558L7.91259 39.2799C8.05616 38.8462 7.89873 38.3706 7.52311 38.1036L2.43808 34.4879C2.05234 34.2136 2.12407 33.8385 2.17278 33.69C2.2216 33.5414 2.38639 33.1959 2.8622 33.1959H9.12962C9.59264 33.1959 10.0026 32.9015 10.1443 32.4674L12.0557 26.6134C12.2014 26.1671 12.586 26.1185 12.7446 26.1183H12.7455C12.9047 26.1183 13.2882 26.1667 13.4346 26.6118L15.3631 32.47C15.5056 32.9029 15.9151 33.196 16.3771 33.196H22.6636C23.139 33.196 23.3039 33.541 23.3528 33.6893C23.4013 33.8378 23.4735 34.2124 23.0886 34.4871V34.4871Z" fill="#CE1525"/>
<path d="M31.1308 4.78274C30.927 4.23877 30.3141 3.96027 29.7619 4.16119C29.2095 4.3619 28.927 4.9655 29.1307 5.50937C30.4967 9.15605 29.577 13.2874 26.7875 16.0346C23.7078 19.0677 18.6968 19.0677 15.6171 16.0346C14.4638 14.8988 13.8288 13.3887 13.8288 11.7826C13.8288 10.1765 14.4638 8.66635 15.6171 7.53053C16.4993 6.66156 17.6725 6.18309 18.9203 6.18309C20.168 6.18309 21.3411 6.66167 22.2235 7.53064C23.5975 8.88375 23.5975 11.0856 22.2236 12.4387C21.2075 13.4394 19.5542 13.4393 18.5381 12.4387C18.1217 12.0288 17.447 12.0288 17.0306 12.4387C16.6144 12.8486 16.6144 13.5133 17.0306 13.9233C18.8778 15.7425 21.8835 15.7426 23.7309 13.9233C25.936 11.7515 25.936 8.2178 23.7309 6.046C22.4458 4.78054 20.7373 4.08362 18.9202 4.08362C17.103 4.08362 15.3946 4.78054 14.1095 6.046C12.5536 7.5783 11.6968 9.61563 11.6968 11.7826C11.6968 13.9496 12.5536 15.9869 14.1095 17.5192C16.0652 19.4453 18.6333 20.4082 21.2021 20.4079C23.7704 20.4077 26.3395 19.4447 28.2948 17.5192C31.6706 14.1947 32.7838 9.19531 31.1308 4.78274Z" fill="#CE1525"/>
<path d="M43.2064 37.4905C40.973 37.4905 39.156 39.28 39.156 41.4795C39.156 43.679 40.973 45.4685 43.2064 45.4685C45.4397 45.4685 47.2568 43.679 47.2568 41.4795C47.2568 39.28 45.4398 37.4905 43.2064 37.4905ZM43.2064 43.369C42.1485 43.369 41.2878 42.5213 41.2878 41.4795C41.2878 40.4376 42.1485 39.59 43.2064 39.59C44.2643 39.59 45.125 40.4376 45.125 41.4795C45.125 42.5213 44.2643 43.369 43.2064 43.369Z" fill="#CE1525"/>
<path d="M51.1924 20.2748C49.3268 20.2748 47.8091 21.7695 47.8091 23.6069C47.8091 25.4442 49.3268 26.939 51.1924 26.939C53.058 26.939 54.5758 25.4442 54.5758 23.6069C54.5758 21.7695 53.058 20.2748 51.1924 20.2748ZM51.1924 24.8396C50.5023 24.8396 49.9409 24.2866 49.9409 23.6069C49.9409 22.9272 50.5024 22.3743 51.1924 22.3743C51.8825 22.3743 52.444 22.9273 52.444 23.6069C52.444 24.2866 51.8826 24.8396 51.1924 24.8396Z" fill="#CE1525"/>
<path d="M36.6689 16.0758C36.0803 16.0758 35.603 16.5458 35.603 17.1255V18.5253C35.603 19.105 36.0803 19.575 36.6689 19.575C37.2576 19.575 37.7348 19.105 37.7348 18.5253V17.1255C37.7348 16.5458 37.2576 16.0758 36.6689 16.0758Z" fill="#CE1525"/>
<path d="M36.6689 23.0741C36.0803 23.0741 35.603 23.5441 35.603 24.1238V25.5234C35.603 26.1032 36.0803 26.5732 36.6689 26.5732C37.2576 26.5732 37.7348 26.1032 37.7348 25.5234V24.1238C37.7348 23.5441 37.2576 23.0741 36.6689 23.0741Z" fill="#CE1525"/>
<path d="M40.9326 22.3743C41.5213 22.3743 41.9985 21.9043 41.9985 21.3245C41.9985 20.7447 41.5213 20.2748 40.9326 20.2748H39.5114C38.9228 20.2748 38.4456 20.7447 38.4456 21.3245C38.4456 21.9043 38.9228 22.3743 39.5114 22.3743H40.9326Z" fill="#CE1525"/>
<path d="M31.3396 21.3245C31.3396 21.9043 31.8169 22.3743 32.4055 22.3743H33.8266C34.4152 22.3743 34.8925 21.9043 34.8925 21.3245C34.8925 20.7447 34.4152 20.2748 33.8266 20.2748H32.4055C31.8169 20.2748 31.3396 20.7447 31.3396 21.3245Z" fill="#CE1525"/>
<path d="M5.9049 13.7537C5.9049 12.7671 5.51478 11.8396 4.80629 11.1418C4.38995 10.7319 3.71525 10.7319 3.29881 11.1418C2.88258 11.5517 2.88258 12.2164 3.29881 12.6264C3.93002 13.2481 3.93002 14.2595 3.29881 14.8812C2.59042 15.5788 2.2002 16.5064 2.2002 17.4931C2.2002 18.4798 2.59031 19.4073 3.29881 20.1051C3.50697 20.3101 3.77973 20.4125 4.05249 20.4125C4.32525 20.4125 4.59801 20.3101 4.80618 20.1051C5.22241 19.6952 5.22241 19.0305 4.80618 18.6204C4.17496 17.9988 4.17496 16.9874 4.80618 16.3657C5.51478 15.6681 5.9049 14.7404 5.9049 13.7537V13.7537Z" fill="#CE1525"/>
<path d="M35.9237 31.9603C33.7879 31.9603 32.0502 33.6717 32.0502 35.7752C32.0502 36.7211 31.2688 37.4906 30.3083 37.4906C29.7197 37.4906 29.2424 37.9605 29.2424 38.5403C29.2424 39.1201 29.7197 39.59 30.3083 39.59C32.4442 39.59 34.182 37.8786 34.182 35.7752C34.182 34.8293 34.9633 34.0598 35.9237 34.0598C36.5123 34.0598 36.9896 33.5898 36.9896 33.0101C36.9896 32.4303 36.5124 31.9603 35.9237 31.9603Z" fill="#CE1525"/>
<path d="M27.5407 2.21935C27.8212 2.21935 28.0961 2.10703 28.2943 1.91178C28.4926 1.71652 28.6066 1.44569 28.6066 1.16961C28.6066 0.89353 28.4927 0.622698 28.2943 0.427446C28.0961 0.232195 27.8221 0.119873 27.5407 0.119873C27.2604 0.119873 26.9854 0.232195 26.7873 0.427446C26.589 0.622698 26.4749 0.89353 26.4749 1.16961C26.4749 1.44569 26.5889 1.71652 26.7873 1.91178C26.9854 2.10703 27.2604 2.21935 27.5407 2.21935Z" fill="#CE1525"/>
</g>
<defs>
<clipPath id="clip0">
<rect width="54.6977" height="49" fill="white"/>
</clipPath>
</defs>
</svg>
