<svg width="38" height="38" viewBox="0 0 38 38" fill="none" xmlns="http://www.w3.org/2000/svg">
<path d="M29.4202 6.79785C24.5685 6.79785 20.7377 10.7315 20.7377 15.5832C20.7377 20.4349 24.7223 24.3686 29.574 24.3686C29.6226 24.3686 29.6958 24.362 29.7443 24.3612C27.826 25.8888 25.4166 26.8092 22.7794 26.8092C21.566 26.8092 20.5896 27.7931 20.5896 29.0056C20.5896 30.2181 21.3702 31.2019 22.5836 31.2019C31.1954 31.2011 37.9999 24.195 37.9999 15.5832C37.9999 15.5816 37.9999 15.5799 37.9999 15.5775C37.9999 10.7282 34.2703 6.79785 29.4202 6.79785Z" fill="#FF2036"/>
<path d="M8.84295 6.79785C3.99125 6.79785 0.153826 10.7315 0.153826 15.5832C0.153826 20.4349 4.13521 24.3686 8.98773 24.3686C9.03626 24.3686 9.10783 24.362 9.15636 24.3612C7.23806 25.8888 4.82784 26.8092 2.19058 26.8092C0.977249 26.8092 0 27.7931 0 29.0056C0 30.2181 0.792986 31.2019 2.00632 31.2019C10.6181 31.2011 17.435 24.195 17.435 15.5832C17.435 15.5816 17.435 15.5799 17.435 15.5775C17.435 10.7282 13.693 6.79785 8.84295 6.79785Z" fill="#FF2036"/>
</svg>
