<svg width="76" height="76" viewBox="0 0 76 76" fill="none" xmlns="http://www.w3.org/2000/svg">
<path d="M61.6771 66.1935L58.8393 57.6791C57.8476 54.7065 55.3176 52.5123 52.2335 51.9509L44.0414 50.4603V49.8254C45.467 48.9979 46.7075 47.891 47.6955 46.5806H50.1704C52.1979 46.5806 53.8478 44.9307 53.8478 42.9032V28.1935C53.8478 19.407 46.6989 12.2581 37.9124 12.2581C29.1258 12.2581 21.9769 19.407 21.9769 28.1935V36.7742C21.9769 39.1375 23.6575 41.1148 25.886 41.5757C26.5736 45.0986 28.7752 48.0798 31.7833 49.8254V50.4603L23.59 51.9509C20.5071 52.5123 17.9758 54.7065 16.9854 57.6791L16.4951 59.1513L12.32 54.9762C11.8419 54.4981 11.8419 53.7197 12.32 53.2417L17.1619 48.401L8.07377 39.3128L2.60177 44.7848C0.981254 46.4054 0.0888672 48.5603 0.0888672 50.8526C0.0888672 53.1448 0.981254 55.2986 2.60177 56.9191L19.1685 73.4859C20.7891 75.1064 22.944 76 25.2363 76C27.5285 76 29.6823 75.1064 31.2648 73.5226L37.2357 68.0519L35.3737 66.1935H61.6771ZM51.3962 42.9032C51.3962 43.5799 50.8458 44.129 50.1704 44.129H49.1395C49.495 43.3188 49.7647 42.4644 49.9387 41.5757C50.4634 41.4666 50.9464 41.2582 51.3962 40.9959V42.9032ZM50.1704 38.885V34.6633C50.8998 35.0887 51.3962 35.8708 51.3962 36.7742C51.3962 37.6776 50.8998 38.4597 50.1704 38.885ZM25.6543 38.885C24.9249 38.4597 24.4285 37.6776 24.4285 36.7742C24.4285 35.8708 24.9249 35.0887 25.6543 34.6633V38.885ZM25.6543 30.6452V32.045C25.2179 32.159 24.8085 32.3306 24.4285 32.5525V28.1935C24.4285 20.759 30.4778 14.7097 37.9124 14.7097C45.3469 14.7097 51.3962 20.759 51.3962 28.1935V32.5525C51.0162 32.3306 50.6068 32.1578 50.1704 32.045V30.6452H48.9446C45.3199 30.6452 41.9122 29.233 39.3478 26.6699L37.9124 25.2344L36.4769 26.6699C33.9125 29.233 30.5048 30.6452 26.8801 30.6452H25.6543ZM28.1059 39.2258V33.0502C31.787 32.7732 35.2193 31.2544 37.9124 28.6937C40.6055 31.2544 44.0377 32.7744 47.7188 33.0502V39.2258C47.7188 41.013 47.2309 42.685 46.3925 44.129H37.9124V46.5806H44.3773C42.6489 48.1019 40.3897 49.0323 37.9124 49.0323C32.5053 49.0323 28.1059 44.6328 28.1059 39.2258ZM41.5898 50.9188V50.9764L37.9124 54.6538L34.2349 50.9764V50.9188C35.397 51.2841 36.6314 51.4839 37.9124 51.4839C39.1933 51.4839 40.4277 51.2841 41.5898 50.9188ZM19.3095 58.4538C20.0168 56.3307 21.8249 54.7629 24.0276 54.3608L32.596 52.8041L37.9124 58.1204L43.2275 52.8053L51.7946 54.3621C53.9974 54.7641 55.8055 56.3307 56.5127 58.455L58.2767 63.7419H32.9221L28.1476 58.9674L22.8423 63.7665C22.3802 64.231 21.5724 64.231 21.109 63.7665L18.4318 61.0893L19.3095 58.4538ZM8.07254 42.7794L13.6941 48.401L12.3629 49.7322L6.74132 44.1106L8.07254 42.7794ZM29.5671 71.755C28.4099 72.9097 26.8703 73.5484 25.2338 73.5484C23.5974 73.5484 22.0578 72.9097 20.8994 71.7526L4.33261 55.187C3.17545 54.0299 2.53803 52.4903 2.53803 50.8538C2.53803 49.2161 3.17545 47.6765 4.33261 46.5194L5.0068 45.8452L10.6284 51.4667L10.5842 51.5108C9.15125 52.945 9.15125 55.2777 10.5842 56.7119L19.3745 65.5022C20.0695 66.196 20.9925 66.5797 21.9756 66.5797C22.9587 66.5797 23.8818 66.1972 24.5315 65.5451L24.6234 65.463L30.2707 71.1103L29.5671 71.755ZM32.08 69.4505L26.4449 63.8155L28.0642 62.3519L33.6895 67.9771L32.08 69.4505Z" fill="#362F4C"/>
<path d="M72.2349 0H55.0737C53.0462 0 51.3962 1.64994 51.3962 3.67742V13.4839C51.3962 15.5114 53.0462 17.1613 55.0737 17.1613H58.3478L57.0803 24.5541L68.9093 17.1613H72.2349C74.2624 17.1613 75.9124 15.5114 75.9124 13.4839V3.67742C75.9124 1.64994 74.2624 0 72.2349 0ZM73.4607 13.4839C73.4607 14.1593 72.9104 14.7097 72.2349 14.7097H68.2057L60.4206 19.5749L61.2554 14.7097H55.0737C54.3982 14.7097 53.8479 14.1593 53.8479 13.4839V3.67742C53.8479 3.002 54.3982 2.45161 55.0737 2.45161H72.2349C72.9104 2.45161 73.4607 3.002 73.4607 3.67742V13.4839Z" fill="#362F4C"/>
<path d="M71.0092 4.9032H56.2996V7.35481H71.0092V4.9032Z" fill="#362F4C"/>
<path d="M66.106 9.80646H56.2996V12.2581H66.106V9.80646Z" fill="#362F4C"/>
<path d="M71.0092 9.80646H68.5576V12.2581H71.0092V9.80646Z" fill="#362F4C"/>
<path d="M37.9124 3.67743C21.896 3.67743 8.09952 14.7563 4.51281 30.21L2.1899 26.3377L0.0876465 27.599L4.39636 34.7786L11.5759 30.4699L10.3146 28.3676L6.99261 30.3608C10.4666 16.2236 23.1794 6.12904 37.9124 6.12904C41.1325 6.12904 44.3098 6.60711 47.356 7.55098L48.0816 5.20969C44.8002 4.19227 41.3789 3.67743 37.9124 3.67743Z" fill="#362F4C"/>
<path d="M75.3165 27.1418L68.137 22.8331L63.8295 30.0138L65.9318 31.2752L68.0769 27.6995C69.2059 31.0031 69.7833 34.4586 69.7833 38C69.7833 45.2898 67.2581 52.4167 62.6748 58.0664L64.5785 59.6109C69.516 53.526 72.2349 45.85 72.2349 38C72.2349 34.2502 71.6305 30.5887 70.4525 27.0829L74.0552 29.244L75.3165 27.1418Z" fill="#362F4C"/>
</svg>
