<svg width="62" height="62" viewBox="0 0 62 62" fill="none" xmlns="http://www.w3.org/2000/svg">
<path d="M51.6667 10.9471V5.16667C51.6631 2.31467 49.352 0.00361667 46.5 0H5.16667C2.31467 0.00361667 0.00361667 2.31467 0 5.16667V27.9C0.00800835 30.5389 2.00828 32.7458 4.63347 33.0135L8.51777 43.0965C9.54387 45.7588 12.5338 47.0851 15.1965 46.0603L39.4527 36.7164C37.7766 41.0944 38.2535 46.0056 40.7397 49.9795L41.3333 50.9289V60.9667C41.3333 61.5376 41.7958 62 42.3667 62H60.9667C61.5376 62 62 61.5376 62 60.9667V26.8576C61.9902 23.2841 60.5675 19.8602 58.041 17.3329L51.6667 10.9471ZM51.6667 17.127L54.8028 25.2681C55.4174 26.8662 54.621 28.6592 53.0232 29.2743L51.2306 29.9667C51.5168 29.3152 51.6651 28.6109 51.6667 27.9V17.127ZM2.06667 27.9V5.16667C2.06667 3.45495 3.45495 2.06667 5.16667 2.06667H46.5C48.2117 2.06667 49.6 3.45495 49.6 5.16667V11.7345H49.591L49.6 11.758V27.9C49.592 28.0803 49.5685 28.2591 49.5297 28.4353L40.0644 18.9689C37.9368 16.8904 34.5449 16.8743 32.3981 18.9312C30.2508 20.9893 30.1219 24.3787 32.1077 26.5926L36.1429 31H5.16667C3.45495 31 2.06667 29.6117 2.06667 27.9ZM15.3047 33.0667L7.95667 35.8957L6.8696 33.0667H15.3047ZM14.4532 44.1313C12.8557 44.7472 11.0616 43.9508 10.446 42.3532L8.70273 37.82L21.0376 33.0667V33.0605H38.037L39.3801 34.5247L14.4532 44.1313ZM59.9333 59.9333H43.4V51.6667H59.9333V59.9333ZM59.9333 49.6H42.9402L42.492 48.8839C39.9724 44.8575 39.8722 39.772 42.2303 35.65C42.4535 35.2599 42.3987 34.7701 42.0949 34.4389L33.627 25.2009C32.3643 23.8189 32.4353 21.6822 33.7872 20.3877C35.1395 19.0929 37.2772 19.1141 38.603 20.4347L55.0694 36.8972L56.5306 35.4361L52.7072 31.6128L53.7674 31.1994C56.4278 30.1731 57.7535 27.1857 56.73 24.5238L53.2324 15.4419L56.5799 18.7963C58.7189 20.9348 59.9251 23.8328 59.9333 26.8576V49.6Z" fill="#362F4C"/>
<path d="M11.78 14.4666C13.2638 14.4666 14.4666 13.2638 14.4666 11.78V6.81997C14.4666 5.3361 13.2638 4.1333 11.78 4.1333H6.81997C5.3361 4.1333 4.1333 5.3361 4.1333 6.81997V11.78C4.1333 13.2638 5.3361 14.4666 6.81997 14.4666H11.78ZM6.19997 11.78V10.3333H8.26663V8.26663H6.19997V6.81997C6.19997 6.47768 6.47768 6.19997 6.81997 6.19997H11.78C12.1223 6.19997 12.4 6.47768 12.4 6.81997V8.26663H10.3333V10.3333H12.4V11.78C12.4 12.1223 12.1223 12.4 11.78 12.4H6.81997C6.47768 12.4 6.19997 12.1223 6.19997 11.78Z" fill="#362F4C"/>
<path d="M5.16675 17.5667H9.30008V19.6333H5.16675V17.5667Z" fill="#362F4C"/>
<path d="M5.16675 23.7666H9.30008V25.8333H5.16675V23.7666Z" fill="#362F4C"/>
<path d="M23.7666 23.7666H27.8999V25.8333H23.7666V23.7666Z" fill="#362F4C"/>
<path d="M11.3667 17.5667H15.5V19.6333H11.3667V17.5667Z" fill="#362F4C"/>
<path d="M17.5667 17.5667H21.7V19.6333H17.5667V17.5667Z" fill="#362F4C"/>
<path d="M23.7666 17.5667H27.8999V19.6333H23.7666V17.5667Z" fill="#362F4C"/>
<path d="M43.3999 5.16675H45.4666V8.26675H43.3999V5.16675Z" fill="#362F4C"/>
<path d="M39.2666 5.16675H41.3333V8.26675H39.2666V5.16675Z" fill="#362F4C"/>
<path d="M35.1333 5.16675H37.2V8.26675H35.1333V5.16675Z" fill="#362F4C"/>
<path d="M31 5.16675H33.0667V8.26675H31V5.16675Z" fill="#362F4C"/>
<path d="M45.4666 53.7334H47.5332V55.8001H45.4666V53.7334Z" fill="#362F4C"/>
</svg>
