<svg width="61" height="61" viewBox="0 0 61 61" fill="none" xmlns="http://www.w3.org/2000/svg">
<g clip-path="url(#clip0)">
<path d="M53.1043 44.2098C54.0688 43.0975 54.5999 41.6728 54.5999 40.1981C54.5999 36.8176 51.85 34.0674 48.4699 34.0674C46.69 34.0674 45.0008 34.8395 43.8352 36.1859C42.8709 37.299 42.3398 38.7239 42.3398 40.1981C42.3398 43.5783 45.0897 46.3281 48.4699 46.3281C50.2499 46.328 51.9392 45.5559 53.1043 44.2098ZM44.1284 40.1981C44.1284 39.154 44.5043 38.1449 45.1871 37.357C45.1871 37.3569 45.1872 37.3567 45.1873 37.3567C46.013 36.4029 47.2095 35.8559 48.4699 35.8559C50.8639 35.8559 52.8115 37.8039 52.8115 40.1982C52.8115 41.2425 52.4357 42.2513 51.7526 43.039C50.9269 43.9929 49.7304 44.5398 48.4699 44.5398C46.076 44.5396 44.1284 42.592 44.1284 40.1981V40.1981Z" fill="#BC2A40"/>
<path d="M56.7305 32.0021C54.5924 29.8468 51.7584 28.6207 48.7507 28.55C45.5825 28.4754 42.5929 29.6517 40.3297 31.8622C38.0659 34.0733 36.8191 37.0336 36.8191 40.1978C36.8191 41.7114 37.1075 43.1876 37.6764 44.5851C37.8625 45.0425 38.3844 45.2623 38.8417 45.0762C39.2991 44.89 39.5191 44.3683 39.3328 43.9109C38.8515 42.7285 38.6076 41.4792 38.6076 40.1978C38.6076 37.5194 39.663 35.0135 41.5794 33.1417C43.4951 31.2705 46.0279 30.2737 48.7085 30.338C51.2519 30.3978 53.65 31.4363 55.4608 33.2617C57.2716 35.0871 58.291 37.4936 58.3314 40.0377C58.366 42.2323 57.6948 44.3198 56.384 46.0833L51.5213 52.7884C50.6451 53.9967 50.041 55.3491 49.7258 56.8076L49.3619 58.4919C49.2717 58.9089 48.8967 59.2113 48.4702 59.2113C48.0437 59.2113 47.6688 58.9087 47.5787 58.4918L47.2146 56.8076C46.8993 55.349 46.2952 53.9966 45.4189 52.7883L41.2175 46.9951C40.9277 46.5954 40.3685 46.5062 39.9686 46.7962C39.5689 47.0862 39.4797 47.6452 39.7697 48.0452L43.9711 53.8383C44.7008 54.8445 45.204 55.9707 45.4664 57.1855L45.8304 58.8697C46.097 60.1041 47.2072 60.9998 48.47 60.9998C49.7327 60.9998 50.8429 60.1039 51.1095 58.8697L51.4736 57.1854C51.7361 55.9708 52.2391 54.8447 52.9688 53.8383L57.8253 47.1416C59.3672 45.0675 60.1603 42.6012 60.1193 40.0093C60.0719 37.0007 58.8683 34.1571 56.7305 32.0021V32.0021Z" fill="#BC2A40"/>
<path d="M10.3857 14.6466C11.8625 14.6466 13.2643 14.0057 14.2309 12.8891C15.0312 11.966 15.472 10.7839 15.472 9.56022C15.472 8.81773 15.3144 8.10039 15.0034 7.42796C14.7961 6.97963 14.2646 6.78424 13.8166 6.99154C13.3682 7.19873 13.173 7.73022 13.3801 8.17842C13.5814 8.61388 13.6836 9.07889 13.6836 9.56022C13.6836 10.3535 13.398 11.1196 12.8792 11.718C12.252 12.4425 11.3432 12.8581 10.3857 12.8581C8.56722 12.8581 7.08786 11.3788 7.08786 9.56034C7.08786 8.76722 7.37344 8.00067 7.89229 7.40198C8.51945 6.67749 9.42825 6.26181 10.3858 6.26181C10.5547 6.26181 10.7243 6.27468 10.8899 6.29993C11.3781 6.37499 11.8343 6.03949 11.909 5.55125C11.9837 5.06313 11.6486 4.60671 11.1603 4.53213C10.9055 4.49317 10.6449 4.47339 10.3857 4.47339C8.9088 4.47339 7.50699 5.11425 6.54017 6.23119C5.74002 7.15477 5.29932 8.33712 5.29932 9.56034C5.29944 12.3648 7.5811 14.6466 10.3857 14.6466V14.6466Z" fill="#BC2A40"/>
<path d="M6.63936 20.5863C7.20909 21.3718 7.60177 22.2508 7.8067 23.1992L8.09811 24.5478C8.32925 25.6176 9.29131 26.3939 10.3859 26.3939C11.4804 26.3939 12.4425 25.6175 12.6736 24.5478L12.965 23.1993C13.1699 22.2508 13.5627 21.3718 14.1323 20.5864L18.0195 15.2263C19.2777 13.534 19.925 11.5215 19.8915 9.40651C19.8526 6.95149 18.8707 4.63099 17.1263 2.87271C15.3817 1.1142 13.0693 0.113893 10.6147 0.055991C8.02985 -0.00536647 5.59032 0.955026 3.74352 2.7587C1.89637 4.56284 0.878906 6.9783 0.878906 9.56008C0.878906 11.6186 1.52667 13.578 2.74596 15.2178L6.63936 20.5863ZM4.99319 4.03803C6.44766 2.6174 8.35558 1.84167 10.3845 1.84167C10.4469 1.84167 10.5099 1.84239 10.5724 1.84393C12.5626 1.89076 14.4391 2.70341 15.8564 4.13215C17.2737 5.56088 18.0716 7.4439 18.1031 9.43474C18.1302 11.1523 17.6049 12.7859 16.5779 14.1677L12.6846 19.5362C11.9685 20.5236 11.4747 21.6289 11.217 22.8213L10.9256 24.1698C10.871 24.4223 10.644 24.6054 10.386 24.6054C10.1279 24.6054 9.90083 24.4223 9.84638 24.1699L9.55496 22.8214C9.29726 21.6291 8.80354 20.5239 8.08727 19.5363L4.18768 14.1593C3.19333 12.8217 2.66768 11.2313 2.66768 9.56008C2.66733 7.46404 3.49345 5.50286 4.99319 4.03803V4.03803Z" fill="#BC2A40"/>
<path d="M51.3932 10.2416C51.0601 10.6062 51.0856 11.1718 51.4502 11.5049C51.6217 11.6617 51.8376 11.7389 52.0532 11.7389C52.2955 11.7389 52.5372 11.6409 52.7136 11.4479L52.729 11.4312C52.7506 11.408 52.772 11.3846 52.7917 11.3617C53.4695 10.5801 53.8428 9.57892 53.8428 8.54276C53.8428 6.16757 51.9105 4.23511 49.5356 4.23511C48.2951 4.23511 47.1143 4.77076 46.296 5.70483C45.9707 6.07631 46.008 6.64127 46.3794 6.96664C46.7509 7.29214 47.3159 7.25485 47.6414 6.88325C48.1201 6.33687 48.8105 6.02341 49.5357 6.02341C50.9245 6.02341 52.0545 7.15358 52.0545 8.54264C52.0545 9.14847 51.8364 9.73345 51.4396 10.1913L51.3932 10.2416Z" fill="#BC2A40"/>
<path d="M42.7994 4.81299C43.2004 5.10119 43.7593 5.00945 44.0474 4.60842C45.3527 2.79117 47.4659 1.73559 49.6992 1.79027C51.4407 1.83126 53.0828 2.54253 54.3233 3.79279C55.5637 5.04317 56.262 6.69112 56.2895 8.43308C56.3132 9.93603 55.8535 11.3658 54.954 12.5762L54.0296 13.8509C53.7396 14.2506 53.8287 14.8097 54.2285 15.0997C54.387 15.2148 54.5706 15.2701 54.7526 15.2701C55.0293 15.2701 55.3023 15.1419 55.4772 14.9007L56.3954 13.6345C57.5259 12.1137 58.1077 10.3053 58.0775 8.40472C58.0427 6.19847 57.1602 4.11316 55.5929 2.53323C54.0252 0.953189 51.9472 0.0542733 49.7413 0.00232797C46.9163 -0.0634377 44.2451 1.2676 42.5949 3.56511C42.516 3.67508 42.2814 4.23527 42.6573 4.68551C42.6992 4.73197 42.7464 4.77498 42.7994 4.81299V4.81299Z" fill="#BC2A40"/>
<path d="M41.3371 53.5493C41.3384 53.3015 41.2383 53.0546 41.0388 52.8768C40.6702 52.5481 40.1049 52.5805 39.7763 52.9491C39.2084 53.586 38.6164 54.1698 38.0147 54.6876C36.7528 55.1241 35.4622 55.4566 34.148 55.6863C35.1452 53.5404 36.0006 50.5899 36.6541 47.0173C36.7431 46.5316 36.4212 46.0658 35.9355 45.9769C35.4503 45.888 34.9839 46.2097 34.895 46.6955C34.1585 50.722 33.1345 53.9871 31.9923 55.9681C31.2458 56.0332 30.4931 56.0674 29.7342 56.0674C28.9725 56.0674 28.2193 56.0318 27.4746 55.9656C26.1572 53.6865 25.0692 49.8743 24.3287 45.2108C26.0986 45.3546 27.9063 45.4288 29.7342 45.4288C31.4271 45.4288 33.1361 45.3647 34.8137 45.2383C35.3062 45.2012 35.6754 44.7719 35.6383 44.2795C35.6011 43.787 35.1709 43.4187 34.6795 43.4549C33.0464 43.578 31.3826 43.6404 29.7342 43.6404C27.8115 43.6404 25.9143 43.5558 24.0636 43.3944C23.5809 39.7819 23.2977 35.7488 23.2622 31.5729H37.7635C38.2574 31.5729 38.6578 31.1726 38.6578 30.6786C38.6578 30.265 38.3765 29.9179 37.9952 29.8158C37.9628 25.6866 37.6986 21.7276 37.2403 18.1506C40.2249 18.5006 43.062 19.0563 45.6539 19.7947C46.2041 21.7778 46.606 23.859 46.8409 25.981C46.8915 26.4385 47.2788 26.7769 47.7286 26.7769C47.7614 26.7769 47.7946 26.7751 47.8281 26.7714C48.3189 26.7171 48.6728 26.2751 48.6185 25.7842C48.4164 23.9583 48.0952 22.1596 47.6664 20.4213C50.0964 21.2467 52.2589 22.2448 54.0601 23.3929C54.5094 24.8951 54.8212 26.445 54.9852 28.0254C55.0329 28.4853 55.4211 28.8273 55.8735 28.8273C55.9044 28.8273 55.9356 28.8258 55.967 28.8224C56.4583 28.7714 56.8151 28.3319 56.7642 27.8407C56.0743 21.1943 52.9567 15.051 47.9862 10.5426C42.9801 6.00211 36.4982 3.50146 29.7343 3.50146C26.9749 3.50146 24.2519 3.91393 21.6412 4.7273C21.1696 4.8742 20.9065 5.37555 21.0534 5.84711C21.2003 6.31855 21.7012 6.58137 22.1732 6.43495C23.2052 6.11339 24.2563 5.85973 25.3209 5.67316C24.1352 8.22801 23.1571 11.9076 22.4832 16.3216C21.4646 16.4332 20.4565 16.5658 19.4645 16.7248C18.9769 16.8029 18.6449 17.2616 18.7231 17.7493C18.8012 18.237 19.2599 18.5683 19.7476 18.4907C20.5641 18.3597 21.391 18.2457 22.2265 18.1479C22.0836 19.264 21.9591 20.4199 21.8548 21.6105C21.8117 22.1024 22.1755 22.5363 22.6675 22.5793C22.694 22.5817 22.7204 22.5828 22.7466 22.5828C23.2052 22.5828 23.5956 22.232 23.6363 21.7666C23.7512 20.4565 23.8926 19.1861 24.0568 17.9637C25.9184 17.8016 27.8153 17.7168 29.7343 17.7168C31.657 17.7168 33.5542 17.8014 35.4049 17.9629C35.8876 21.5753 36.1708 25.6085 36.2063 29.7844H23.2635C23.2753 28.36 23.3137 26.937 23.3812 25.5425C23.4051 25.0491 23.0247 24.6299 22.5314 24.606C22.036 24.5835 21.6188 24.9627 21.595 25.4559C21.5261 26.8791 21.487 28.3311 21.4752 29.7842H12.3802C12.386 29.5246 12.394 29.2585 12.4048 28.9806C12.4241 28.4872 12.0398 28.0715 11.5463 28.0521C11.0551 28.0309 10.637 28.417 10.6177 28.9106C10.6059 29.2126 10.5971 29.5022 10.591 29.7841H4.362C4.44432 27.4179 4.85214 25.0872 5.57949 22.8437C5.73176 22.3739 5.47429 21.8696 5.00452 21.7174C4.53463 21.5651 4.03043 21.8226 3.87817 22.2923C3.00177 24.9965 2.55737 27.8178 2.55737 30.6784C2.55737 37.9376 5.38422 44.7624 10.5173 49.8955C15.6505 55.0286 22.4751 57.8554 29.7344 57.8554C33.835 57.8554 37.777 56.964 41.4507 55.2061C41.8962 54.993 42.0845 54.459 41.8714 54.0136C41.7606 53.7829 41.5633 53.6218 41.3371 53.5493V53.5493ZM36.9842 16.324C36.3169 11.9501 35.3462 8.25506 34.1494 5.67673C35.4687 5.9087 36.7634 6.24432 38.0228 6.67883C40.2532 8.6008 42.2266 11.3158 43.735 14.5454C44.2154 15.574 44.6484 16.6566 45.0321 17.7801C42.5169 17.1276 39.8093 16.6358 36.9842 16.324ZM53.1263 20.796C51.3387 19.863 49.3107 19.0472 47.0988 18.3644C46.6094 16.7618 46.0267 15.2259 45.3554 13.7887C44.4573 11.8659 43.3988 10.1107 42.2205 8.57102C43.846 9.49031 45.3781 10.5921 46.7844 11.8678C49.5507 14.3767 51.7023 17.4273 53.1263 20.796V20.796ZM29.7342 15.9288C27.9087 15.9288 26.1012 16.0024 24.3239 16.1455C25.0754 11.4486 26.1821 7.63279 27.4766 5.39032C28.225 5.32444 28.978 5.29024 29.7342 5.29024C30.4917 5.29024 31.2452 5.32467 31.9933 5.39115C33.3109 7.67043 34.3991 11.4832 35.1398 16.1475C33.3698 16.0038 31.5623 15.9288 29.7342 15.9288V15.9288ZM25.3195 55.6826C23.9889 55.4483 22.6939 55.1094 21.4427 54.6759C18.4118 52.0647 16.005 48.1798 14.4339 43.5786C16.9496 44.2311 19.6587 44.7221 22.4841 45.0339C23.1515 49.4086 24.1227 53.104 25.3195 55.6826V55.6826ZM22.2281 43.207C19.2417 42.857 16.4032 42.3007 13.8101 41.5618C12.9485 38.4491 12.4518 35.069 12.3792 31.5731H21.4736C21.5072 35.691 21.7711 39.6391 22.2281 43.207ZM4.36307 31.5731H10.5908C10.656 34.8204 11.0747 37.9789 11.8046 40.9371C9.37591 40.1124 7.21446 39.1151 5.41353 37.968C4.80222 35.9312 4.44015 33.788 4.36307 31.5731V31.5731ZM6.35021 40.5664C8.13637 41.4978 10.1638 42.3115 12.3731 42.9932C13.5124 46.7187 15.1625 50.0582 17.2284 52.7668C12.3916 50.0178 8.5405 45.7269 6.35021 40.5664Z" fill="#BC2A40"/>
</g>
<defs>
<clipPath id="clip0">
<rect width="61" height="61" fill="white"/>
</clipPath>
</defs>
</svg>
