<svg width="161" height="46" viewBox="0 0 161 46" fill="none" xmlns="http://www.w3.org/2000/svg">
<g clip-path="url(#clip0)">
<path d="M8.09925 0.00878906H20.7407V1.09461H8.09925C7.16893 1.09461 6.23861 1.31177 5.41774 1.69181C4.54215 2.12614 3.776 2.72334 3.11931 3.48342C2.46261 4.1892 1.97009 5.11215 1.58702 6.08939C1.25867 7.01234 1.03977 8.09816 1.03977 9.18398V26.0142C1.03977 27.1 1.25867 28.1316 1.58702 29.1088C1.97009 30.086 2.46261 30.9547 3.11931 31.7148C3.776 32.4748 4.54215 33.072 5.41774 33.4521C6.23861 33.8321 7.16893 34.0493 8.09925 34.0493H20.7407V35.1894H8.09925C7.00476 35.1894 5.96499 34.9179 5.03467 34.4836C3.9949 33.995 3.11931 33.2892 2.35316 32.4748C1.64174 31.6062 1.03977 30.6289 0.601972 29.4888C0.218899 28.403 0 27.2086 0 26.0142V9.18398C0 7.93528 0.218899 6.74088 0.601972 5.70935C1.03977 4.56924 1.64174 3.53771 2.35316 2.72334C3.11931 1.85468 3.9949 1.20319 5.03467 0.714573C5.96499 0.280244 7.00476 0.00878906 8.09925 0.00878906Z" fill="#31304F"/>
<path d="M72.4556 0.0078125H87.7785C88.873 0.0078125 89.9127 0.279268 90.8978 0.713596C92.9773 1.69084 94.5096 3.53673 95.2758 5.70837C95.7136 6.79419 95.8777 7.93431 95.8777 9.183V26.0132C95.8777 27.2076 95.7136 28.402 95.2758 29.4879C94.8927 30.5737 94.2907 31.6052 93.5793 32.4196C92.8679 33.2339 91.9923 33.9397 91.062 34.3741C90.2411 34.8084 89.3108 35.0798 88.3805 35.1341V44.255C88.3805 44.4179 88.3257 44.5808 88.3257 44.7436C88.271 44.9065 88.1616 45.0694 88.1068 45.2323C87.9974 45.3408 87.8879 45.5037 87.7785 45.6123C87.6143 45.7209 87.5049 45.8295 87.3407 45.8838C87.1765 45.938 86.9576 45.9923 86.7934 45.9923C86.5745 45.9923 86.4104 45.9923 86.1915 45.8838C85.9178 45.8295 85.6989 45.6666 85.4253 45.4494C85.2064 45.2866 84.9875 45.0694 84.7139 44.7436L77.1072 35.1884H72.4556V34.0483H77.5997C80.2265 37.4144 82.8533 40.7261 85.5348 44.0379C85.6989 44.255 85.8631 44.4722 86.0273 44.5808C86.1915 44.7436 86.3556 44.7979 86.5198 44.8522C86.5745 44.9065 86.684 44.9065 86.7387 44.9065C86.7934 44.9065 86.9029 44.9065 86.9576 44.8522C87.0123 44.8522 87.0671 44.7979 87.0671 44.7979C87.1218 44.7436 87.1765 44.6894 87.2312 44.6351C87.286 44.5808 87.286 44.4722 87.286 44.4179C87.3407 44.3636 87.3407 44.3093 87.3407 44.255V34.1026L87.8332 34.0483C88.8182 34.0483 89.6938 33.8311 90.5147 33.4511C91.3903 33.0168 92.1565 32.4196 92.8132 31.7138C93.4698 30.9537 93.9624 30.0308 94.3454 29.0535C94.6738 28.1306 94.838 27.0991 94.838 26.0132V9.183C94.838 8.09718 94.6738 7.01136 94.3454 6.08841C93.9624 5.11117 93.4151 4.18822 92.7584 3.48244C92.1017 2.72237 91.3356 2.12516 90.46 1.69084C89.6391 1.3108 88.7088 1.09363 87.7785 1.09363H72.4556V0.0078125Z" fill="#31304F"/>
<path d="M10.3428 0.0078125H73.714V1.09363H10.3428V0.0078125ZM10.3428 34.0483H73.714V35.1884H10.3428V34.0483Z" fill="#31304F"/>
<path d="M14.3377 26.0133C12.7507 26.0133 11.4373 25.4704 10.3975 24.276C9.35776 23.1359 8.86523 21.67 8.86523 19.8784V19.2812C8.86523 17.4896 9.35776 15.9694 10.3975 14.8293C11.4373 13.6349 12.696 13.0377 14.2283 13.0377C15.7605 13.0377 16.9645 13.5263 17.7854 14.5036C18.6062 15.4808 19.044 16.7838 19.044 18.4668V19.4984H10.2881V19.8784C10.2881 21.3442 10.6164 22.4844 11.3278 23.4616C12.094 24.3845 13.079 24.8732 14.3377 24.8732C15.1038 24.8732 15.8153 24.7103 16.472 24.4931C17.1287 24.2217 17.6759 23.8959 18.059 23.4616L18.661 24.3845C18.2232 24.8732 17.6759 25.2532 16.9645 25.579C16.1983 25.8504 15.3775 26.0133 14.3377 26.0133ZM14.2283 14.2321C13.1885 14.2321 12.2582 14.6122 11.6015 15.3722C10.89 16.1323 10.507 17.1095 10.3975 18.2497V18.3582H17.6212V18.0325C17.6212 16.9467 17.3476 16.0237 16.7456 15.3179C16.1436 14.6122 15.3227 14.2321 14.2283 14.2321ZM27.8547 19.1726H20.9594V18.0325H27.8547V19.1726ZM29.989 19.3355C29.989 17.4896 30.4815 16.0237 31.5213 14.8293C32.5063 13.6349 33.8744 13.0377 35.5709 13.0377C37.2126 13.0377 38.5807 13.6349 39.6205 14.8293C40.6055 16.0237 41.0981 17.4896 41.0981 19.3355V19.7155C41.0981 21.5614 40.6055 23.0816 39.6205 24.276C38.5807 25.4161 37.2673 26.0133 35.5709 26.0133C33.8744 26.0133 32.5063 25.4161 31.5213 24.276C30.4815 23.0816 29.989 21.5614 29.989 19.7155V19.3355ZM31.3571 19.7155C31.3571 21.1814 31.7402 22.3758 32.5063 23.353C33.2177 24.3845 34.2575 24.8732 35.5709 24.8732C36.8843 24.8732 37.8693 24.3845 38.6355 23.353C39.3469 22.3758 39.73 21.1814 39.73 19.7155V19.3355C39.73 17.9239 39.3469 16.7295 38.6355 15.698C37.8693 14.7207 36.8295 14.2321 35.5709 14.2321C34.2575 14.2321 33.2177 14.7207 32.5063 15.698C31.7402 16.7295 31.3571 17.9239 31.3571 19.3355V19.7155ZM51.0032 22.5929C51.0032 21.9957 50.7843 21.5071 50.2918 21.0728C49.7993 20.6385 48.9237 20.2584 47.665 19.987C46.1875 19.6612 45.093 19.2269 44.3815 18.7383C43.6154 18.1954 43.2871 17.4353 43.2871 16.4581C43.2871 15.5351 43.6701 14.7207 44.491 14.0692C45.3119 13.3635 46.3516 13.0377 47.7198 13.0377C49.0879 13.0377 50.2371 13.4178 51.058 14.1235C51.8788 14.8293 52.3166 15.698 52.2619 16.7295V16.7838H50.9485C50.9485 16.078 50.6749 15.4808 50.0729 14.9922C49.4709 14.5036 48.7048 14.2321 47.7198 14.2321C46.68 14.2321 45.9138 14.4493 45.4213 14.8836C44.9288 15.3179 44.6552 15.8609 44.6552 16.4038C44.6552 17.001 44.8741 17.4896 45.3119 17.8153C45.7497 18.1954 46.6253 18.5211 47.9387 18.8469C49.4162 19.1726 50.5107 19.6069 51.2769 20.1498C52.043 20.747 52.4261 21.5071 52.4261 22.4844C52.4261 23.5702 51.9883 24.3845 51.1127 25.036C50.2918 25.6875 49.1426 26.0133 47.7745 26.0133C46.2422 26.0133 45.0382 25.6332 44.1627 24.9275C43.2871 24.2217 42.904 23.353 42.904 22.3215L42.9587 22.2672H44.2174C44.2721 23.1901 44.6552 23.8416 45.3666 24.2217C46.0233 24.656 46.8442 24.8732 47.7745 24.8732C48.7595 24.8732 49.5804 24.6017 50.1824 24.1674C50.7296 23.7331 51.0032 23.1901 51.0032 22.5929ZM59.8686 26.0133C58.2269 26.0133 56.9135 25.4704 55.8737 24.276C54.8887 23.1359 54.3962 21.67 54.3962 19.8784V19.2812C54.3962 17.4896 54.8887 15.9694 55.9285 14.8293C56.9682 13.6349 58.2269 13.0377 59.7592 13.0377C61.2915 13.0377 62.4407 13.5263 63.2616 14.5036C64.1372 15.4808 64.5202 16.7838 64.5202 18.4668V19.4984H55.7643V19.8784C55.7643 21.3442 56.1474 22.4844 56.8588 23.4616C57.5702 24.3845 58.61 24.8732 59.8686 24.8732C60.6348 24.8732 61.3462 24.7103 62.0029 24.4931C62.6049 24.2217 63.1521 23.8959 63.5899 23.4616L64.1919 24.3845C63.7541 24.8732 63.1521 25.2532 62.4407 25.579C61.7293 25.8504 60.8537 26.0133 59.8686 26.0133ZM59.7592 14.2321C58.6647 14.2321 57.7891 14.6122 57.0777 15.3722C56.421 16.1323 55.9832 17.1095 55.8737 18.2497L55.9285 18.3582H63.1521V18.0325C63.1521 16.9467 62.8238 16.0237 62.2765 15.3179C61.6745 14.6122 60.8537 14.2321 59.7592 14.2321ZM69.0077 10.106V13.3092H71.7439V14.395H69.0077V22.5387C69.0077 23.353 69.1171 23.9502 69.4455 24.276C69.7191 24.656 70.1021 24.8189 70.5947 24.8189C70.8136 24.8189 70.9777 24.8189 71.0872 24.7646C71.2514 24.7646 71.4703 24.7103 71.6892 24.656L71.9081 25.6875C71.6892 25.7961 71.4703 25.8504 71.1966 25.959C70.923 26.0133 70.6494 26.0133 70.3758 26.0133C69.5002 26.0133 68.7888 25.7418 68.2962 25.1989C67.8037 24.656 67.5848 23.7331 67.5848 22.5387V14.395H65.3958V13.3092H67.5848V10.106H69.0077ZM75.4652 25.7961H74.0971V13.3092H75.4652V25.7961ZM75.4652 9.72596H74.0971V7.77148H75.4652V9.72596ZM86.7932 25.7961C86.6837 25.3618 86.629 24.9817 86.5743 24.656C86.5196 24.3303 86.5196 24.0045 86.5196 23.6788C86.0818 24.3303 85.4798 24.9275 84.6589 25.3618C83.8928 25.7961 83.0172 26.0133 81.9774 26.0133C80.7735 26.0133 79.7884 25.6875 79.1317 25.036C78.4203 24.3845 78.0919 23.5159 78.0919 22.3758C78.0919 21.29 78.5845 20.367 79.5695 19.6612C80.5546 19.0097 81.868 18.6297 83.4002 18.6297H86.5196V17.1095C86.5196 16.1866 86.2459 15.4808 85.644 14.9922C85.0967 14.5036 84.2758 14.2321 83.2361 14.2321C82.3058 14.2321 81.5396 14.4493 80.9376 14.9379C80.3357 15.3722 80.062 15.9694 80.062 16.6752H78.7486V16.6209C78.6939 15.6437 79.077 14.8293 79.9526 14.1235C80.8282 13.4178 81.9227 13.0377 83.2908 13.0377C84.7136 13.0377 85.8081 13.4178 86.629 14.1235C87.4499 14.8293 87.8877 15.8066 87.8877 17.1095V23.2444C87.8877 23.6788 87.9424 24.1131 87.9971 24.5474C87.9971 24.9817 88.1066 25.3618 88.216 25.7961H86.7932ZM82.1416 24.8189C83.1814 24.8189 84.1117 24.5474 84.9325 24.0588C85.6987 23.5159 86.2459 22.8644 86.5196 22.1043V19.7155H83.4002C82.251 19.7155 81.3207 19.987 80.6093 20.5299C79.8431 21.0185 79.5148 21.67 79.5148 22.4301C79.5148 23.1359 79.7337 23.7331 80.2262 24.1674C80.664 24.6017 81.3207 24.8189 82.1416 24.8189Z" fill="#31304F"/>
<path d="M108.792 12.4405C108.792 13.092 108.574 13.6349 108.136 14.0149C107.698 14.4493 107.096 14.6121 106.385 14.6121C105.618 14.6121 105.016 14.3407 104.524 13.7978C104.086 13.2549 103.812 12.5491 103.812 11.6804V10.5946C103.812 9.72593 104.086 9.02015 104.524 8.47724C105.016 7.93433 105.618 7.66287 106.385 7.66287C107.096 7.66287 107.698 7.88004 108.136 8.26007C108.574 8.64011 108.792 9.18302 108.792 9.83452V9.88881H108.245C108.245 9.3459 108.081 8.91157 107.753 8.58582C107.424 8.31437 106.932 8.15149 106.385 8.15149C105.783 8.15149 105.29 8.36866 104.907 8.80299C104.579 9.2916 104.36 9.88881 104.36 10.5946V11.6804C104.36 12.4405 104.579 13.0377 104.907 13.472C105.29 13.9063 105.783 14.1778 106.385 14.1778C106.932 14.1778 107.424 14.0149 107.753 13.6892C108.081 13.4177 108.245 12.9834 108.245 12.4405H108.792ZM113.335 14.5035C113.28 14.3407 113.225 14.1778 113.225 14.0692C113.225 13.9606 113.225 13.7978 113.225 13.6892C113.006 13.9606 112.787 14.1778 112.459 14.3407C112.131 14.5578 111.802 14.6121 111.365 14.6121C110.872 14.6121 110.489 14.5035 110.215 14.2321C109.942 13.9606 109.832 13.6349 109.832 13.1463C109.832 12.7119 109.996 12.3319 110.434 12.0604C110.817 11.789 111.31 11.6804 111.966 11.6804H113.225V11.0289C113.225 10.6489 113.116 10.3774 112.842 10.2146C112.623 9.99739 112.295 9.88881 111.912 9.88881C111.529 9.88881 111.2 9.99739 110.981 10.1603C110.708 10.3231 110.598 10.5946 110.598 10.866H110.106L110.051 10.8118C110.051 10.4317 110.215 10.106 110.544 9.83452C110.927 9.56306 111.365 9.40019 111.912 9.40019C112.459 9.40019 112.897 9.56306 113.28 9.83452C113.608 10.106 113.772 10.5403 113.772 11.0289V13.5263C113.772 13.6892 113.772 13.8521 113.772 14.0149C113.827 14.1778 113.827 14.3407 113.882 14.5035H113.335ZM111.419 14.1235C111.857 14.1235 112.24 14.0149 112.568 13.8521C112.897 13.6349 113.116 13.3634 113.225 13.0377V12.0604H111.966C111.474 12.0604 111.146 12.169 110.817 12.3862C110.544 12.6034 110.379 12.8748 110.379 13.2006C110.379 13.472 110.489 13.6892 110.653 13.8521C110.872 14.0692 111.091 14.1235 111.419 14.1235ZM118.533 9.50877H119.135V14.5035H118.533V10.4317L115.797 14.5035H115.25V9.50877H115.797V13.5806H115.852L118.533 9.50877ZM118.479 7.5V7.55429C118.533 7.88004 118.424 8.15149 118.15 8.36866C117.931 8.58582 117.603 8.6944 117.165 8.6944C116.782 8.6944 116.454 8.58582 116.18 8.36866C115.961 8.15149 115.852 7.88004 115.852 7.55429V7.5H116.29C116.29 7.77146 116.344 7.93433 116.509 8.0972C116.673 8.20578 116.892 8.31437 117.165 8.31437C117.494 8.31437 117.713 8.20578 117.822 8.0972C117.986 7.93433 118.041 7.71716 118.041 7.5H118.479ZM124.389 9.99739H122.528V14.5035H121.981V9.99739H120.175V9.50877H124.389V9.99739ZM130.901 9.99739H128.329V14.5035H127.782V9.50877H130.901V9.99739ZM131.394 11.9519C131.394 11.1918 131.613 10.5946 131.996 10.106C132.434 9.67164 132.981 9.40019 133.637 9.40019C134.349 9.40019 134.841 9.67164 135.279 10.106C135.662 10.5946 135.881 11.1918 135.881 11.9519V12.1147C135.881 12.8205 135.662 13.472 135.279 13.9063C134.896 14.395 134.349 14.6121 133.637 14.6121C132.981 14.6121 132.434 14.395 131.996 13.9063C131.613 13.472 131.394 12.8205 131.394 12.1147V11.9519ZM131.941 12.1147C131.941 12.6576 132.105 13.1463 132.434 13.5806C132.707 13.9606 133.145 14.1778 133.637 14.1778C134.185 14.1778 134.568 13.9606 134.896 13.5806C135.17 13.1463 135.334 12.6576 135.334 12.1147V11.9519C135.334 11.3547 135.17 10.866 134.896 10.486C134.568 10.106 134.185 9.88881 133.637 9.88881C133.145 9.88881 132.707 10.106 132.434 10.486C132.105 10.866 131.941 11.3547 131.941 11.9519V12.1147ZM141.135 12.169C141.135 12.9291 140.971 13.5263 140.642 13.9606C140.259 14.395 139.821 14.6121 139.219 14.6121C138.836 14.6121 138.563 14.5578 138.289 14.4493C138.015 14.2864 137.797 14.1235 137.632 13.8521V16.458H137.085V9.50877H137.468L137.578 10.2688C137.742 9.99739 137.961 9.78022 138.234 9.61735C138.508 9.50877 138.836 9.40019 139.219 9.40019C139.821 9.40019 140.259 9.67164 140.642 10.106C140.971 10.5946 141.135 11.2461 141.135 12.0604V12.169ZM140.587 12.0604C140.587 11.409 140.423 10.9203 140.204 10.486C139.931 10.106 139.548 9.88881 139.055 9.88881C138.672 9.88881 138.398 9.99739 138.18 10.1603C137.906 10.3231 137.742 10.5403 137.632 10.866V13.2549C137.742 13.5263 137.961 13.7435 138.18 13.9063C138.398 14.0692 138.727 14.1778 139.055 14.1778C139.548 14.1778 139.931 13.9606 140.204 13.6349C140.423 13.2549 140.587 12.7662 140.587 12.169V12.0604ZM142.065 11.9519C142.065 11.1918 142.284 10.5946 142.722 10.106C143.105 9.67164 143.652 9.40019 144.309 9.40019C145.02 9.40019 145.567 9.67164 145.951 10.106C146.388 10.5946 146.552 11.1918 146.552 11.9519V12.1147C146.552 12.8205 146.388 13.472 145.951 13.9063C145.567 14.395 145.02 14.6121 144.309 14.6121C143.652 14.6121 143.105 14.395 142.722 13.9063C142.284 13.472 142.065 12.8205 142.065 12.1147V11.9519ZM142.667 12.1147C142.667 12.6576 142.776 13.1463 143.105 13.5806C143.378 13.9606 143.816 14.1778 144.309 14.1778C144.856 14.1778 145.239 13.9606 145.567 13.5806C145.841 13.1463 146.005 12.6576 146.005 12.1147V11.9519C146.005 11.3547 145.841 10.866 145.567 10.486C145.239 10.106 144.856 9.88881 144.309 9.88881C143.816 9.88881 143.378 10.106 143.105 10.486C142.776 10.866 142.667 11.3547 142.667 11.9519V12.1147ZM147.702 14.0692C147.975 14.0692 148.139 13.8521 148.304 13.3634C148.468 12.8748 148.523 12.2233 148.577 11.3004L148.687 9.50877H151.751V14.0692H152.189V16.1866H151.642V14.5035H147.811V16.1866H147.264V14.0692H147.702ZM149.125 11.3004C149.125 12.0062 149.07 12.5491 148.96 12.9834C148.851 13.472 148.741 13.7978 148.577 14.0692H151.149V9.99739H149.234L149.125 11.3004ZM156.567 14.5035C156.512 14.3407 156.512 14.1778 156.512 14.0692C156.458 13.9606 156.458 13.7978 156.458 13.6892C156.293 13.9606 156.075 14.1778 155.746 14.3407C155.418 14.5578 155.035 14.6121 154.652 14.6121C154.159 14.6121 153.776 14.5035 153.503 14.2321C153.229 13.9606 153.065 13.6349 153.065 13.1463C153.065 12.7119 153.284 12.3319 153.667 12.0604C154.05 11.789 154.597 11.6804 155.199 11.6804H156.458V11.0289C156.458 10.6489 156.348 10.3774 156.129 10.2146C155.91 9.99739 155.582 9.88881 155.144 9.88881C154.761 9.88881 154.433 9.99739 154.214 10.1603C153.995 10.3231 153.886 10.5946 153.886 10.866H153.338V10.8118C153.338 10.4317 153.503 10.106 153.831 9.83452C154.159 9.56306 154.652 9.40019 155.199 9.40019C155.746 9.40019 156.184 9.56306 156.512 9.83452C156.841 10.106 157.005 10.5403 157.005 11.0289V13.5263C157.005 13.6892 157.06 13.8521 157.06 14.0149C157.06 14.1778 157.114 14.3407 157.169 14.5035H156.567ZM154.706 14.1235C155.144 14.1235 155.527 14.0149 155.856 13.8521C156.129 13.6349 156.348 13.3634 156.458 13.0377V12.0604H155.199C154.761 12.0604 154.378 12.169 154.104 12.3862C153.776 12.6034 153.667 12.8748 153.667 13.2006C153.667 13.472 153.721 13.6892 153.94 13.8521C154.104 14.0692 154.378 14.1235 154.706 14.1235ZM104.086 25.959V19.1726H106.056C106.768 19.1726 107.315 19.3355 107.753 19.6069C108.136 19.9327 108.3 20.367 108.3 20.9642C108.3 21.2899 108.245 21.6157 108.026 21.8328C107.862 22.1043 107.589 22.2672 107.26 22.3757C107.698 22.43 108.026 22.6472 108.3 22.973C108.574 23.2987 108.738 23.6244 108.738 24.0588C108.738 24.656 108.519 25.1446 108.136 25.4703C107.753 25.7961 107.205 25.959 106.549 25.959H104.086ZM104.633 22.7015V25.4703H106.549C107.041 25.4703 107.424 25.3618 107.753 25.0903C108.026 24.8731 108.19 24.5474 108.19 24.0588C108.19 23.6787 108.026 23.353 107.753 23.0815C107.479 22.8644 107.096 22.7015 106.603 22.7015H106.549H104.633ZM104.633 22.2129H106.275C106.768 22.2129 107.096 22.1043 107.37 21.8871C107.643 21.67 107.753 21.3442 107.753 20.9642C107.753 20.5299 107.643 20.2041 107.315 19.9869C107.041 19.7698 106.603 19.6612 106.056 19.6612H104.633V22.2129ZM113.718 20.9099V25.959H113.17V21.3985H111.036V23.1358C111.036 24.1131 110.872 24.8731 110.653 25.3075C110.434 25.7418 110.051 25.959 109.504 25.959H109.285V25.4703H109.504C109.832 25.4703 110.051 25.3075 110.215 24.9274C110.379 24.6017 110.434 24.0045 110.434 23.1358V20.9099H113.718ZM118.369 25.959C118.315 25.7961 118.315 25.6332 118.26 25.5246C118.26 25.3618 118.26 25.2532 118.26 25.0903C118.096 25.3618 117.822 25.6332 117.494 25.7961C117.22 25.959 116.837 26.0675 116.454 26.0675C115.907 26.0675 115.524 25.9047 115.25 25.6332C114.976 25.416 114.867 25.036 114.867 24.6017C114.867 24.1674 115.086 23.7873 115.469 23.5159C115.852 23.2444 116.399 23.0815 117.001 23.0815H118.26V22.4843C118.26 22.1043 118.15 21.8328 117.931 21.6157C117.658 21.3985 117.329 21.2899 116.946 21.2899C116.563 21.2899 116.235 21.3985 116.016 21.5614C115.797 21.7785 115.633 21.9957 115.633 22.2672H115.141C115.086 21.8871 115.25 21.5614 115.633 21.2356C115.961 20.9642 116.399 20.8556 116.946 20.8556C117.494 20.8556 117.986 20.9642 118.315 21.2356C118.643 21.5614 118.807 21.9414 118.807 22.4843V24.9274C118.807 25.1446 118.807 25.3075 118.862 25.4703C118.862 25.6332 118.917 25.7961 118.917 25.959H118.369ZM116.509 25.5789C116.946 25.5789 117.275 25.4703 117.603 25.2532C117.931 25.036 118.15 24.7646 118.26 24.4931V23.5159H117.001C116.563 23.5159 116.18 23.6244 115.852 23.8416C115.578 24.0588 115.414 24.3302 115.414 24.6017C115.414 24.8731 115.524 25.1446 115.688 25.3075C115.907 25.4703 116.18 25.5789 116.509 25.5789ZM120.285 25.4703C120.558 25.4703 120.722 25.2532 120.887 24.7646C120.996 24.3302 121.105 23.6244 121.16 22.7558L121.27 20.9099H124.28V25.4703H124.772V27.5877H124.225V25.959H120.394V27.5877H119.847V25.4703H120.285ZM121.707 22.7558C121.653 23.4073 121.598 23.9502 121.543 24.4388C121.434 24.8731 121.324 25.2532 121.16 25.4703H123.732V21.4528H121.762L121.707 22.7558ZM129.205 20.9099H129.807V25.959H129.205V21.8328L126.469 25.959H125.921V20.9099H126.469V25.036H126.523L129.205 20.9099ZM132.488 23.6244H131.832V25.959H131.284V20.9099H131.832V23.1358H132.488L134.458 20.9099H135.17V20.9642L132.981 23.353L135.389 25.9047V25.959H134.677L132.488 23.6244ZM139.548 25.959C139.493 25.7961 139.493 25.6332 139.438 25.5246C139.438 25.3618 139.438 25.2532 139.438 25.0903C139.274 25.3618 139 25.6332 138.672 25.7961C138.398 25.959 138.015 26.0675 137.632 26.0675C137.14 26.0675 136.757 25.9047 136.483 25.6332C136.21 25.416 136.045 25.036 136.045 24.6017C136.045 24.1674 136.264 23.7873 136.647 23.5159C137.03 23.2444 137.578 23.0815 138.18 23.0815H139.438V22.4843C139.438 22.1043 139.329 21.8328 139.11 21.6157C138.836 21.3985 138.563 21.2899 138.125 21.2899C137.742 21.2899 137.413 21.3985 137.195 21.5614C136.976 21.7785 136.811 21.9957 136.811 22.2672H136.319C136.264 21.8871 136.428 21.5614 136.811 21.2356C137.14 20.9642 137.578 20.8556 138.125 20.8556C138.727 20.8556 139.165 20.9642 139.493 21.2356C139.821 21.5614 139.986 21.9414 139.986 22.4843V24.9274C139.986 25.1446 139.986 25.3075 140.04 25.4703C140.04 25.6332 140.095 25.7961 140.15 25.959H139.548ZM137.687 25.5789C138.125 25.5789 138.453 25.4703 138.782 25.2532C139.11 25.036 139.329 24.7646 139.438 24.4931V23.5159H138.18C137.742 23.5159 137.359 23.6244 137.03 23.8416C136.757 24.0588 136.593 24.3302 136.593 24.6017C136.593 24.8731 136.702 25.1446 136.866 25.3075C137.085 25.4703 137.359 25.5789 137.687 25.5789ZM141.518 25.959V20.9099H143.378C143.98 20.9099 144.473 21.0185 144.856 21.2356C145.184 21.5071 145.349 21.8328 145.349 22.2672C145.349 22.5386 145.294 22.7558 145.13 22.973C144.965 23.1358 144.747 23.2987 144.473 23.353C144.801 23.4073 145.075 23.5702 145.294 23.7873C145.458 24.0045 145.567 24.2759 145.567 24.5474C145.567 25.036 145.403 25.3618 145.075 25.5789C144.747 25.8504 144.254 25.959 143.707 25.959H141.518ZM142.065 23.6244V25.4703H143.707C144.09 25.4703 144.418 25.416 144.692 25.2532C144.911 25.0903 145.02 24.8731 145.02 24.5474C145.02 24.2759 144.911 24.0588 144.692 23.8959C144.418 23.733 144.09 23.6244 143.707 23.6244H142.065ZM142.065 23.1901H143.433C143.871 23.1901 144.199 23.0815 144.473 22.973C144.692 22.8101 144.801 22.5929 144.801 22.2672C144.801 21.9957 144.692 21.7785 144.473 21.6157C144.199 21.4528 143.871 21.3985 143.378 21.3985H142.065V23.1901ZM148.03 23.6244H147.428V25.959H146.826V20.9099H147.428V23.1358H148.03L150.055 20.9099H150.712V20.9642L148.523 23.353L150.93 25.9047V25.959H150.219L148.03 23.6244ZM155.09 25.959C155.09 25.7961 155.035 25.6332 155.035 25.5246C154.98 25.3618 154.98 25.2532 154.98 25.0903C154.816 25.3618 154.597 25.6332 154.269 25.7961C153.94 25.959 153.557 26.0675 153.174 26.0675C152.682 26.0675 152.299 25.9047 152.025 25.6332C151.751 25.416 151.587 25.036 151.587 24.6017C151.587 24.1674 151.806 23.7873 152.189 23.5159C152.572 23.2444 153.119 23.0815 153.721 23.0815H154.98V22.4843C154.98 22.1043 154.871 21.8328 154.652 21.6157C154.433 21.3985 154.104 21.2899 153.667 21.2899C153.284 21.2899 153.01 21.3985 152.736 21.5614C152.517 21.7785 152.408 21.9957 152.408 22.2672H151.861C151.861 21.8871 152.025 21.5614 152.353 21.2356C152.682 20.9642 153.174 20.8556 153.721 20.8556C154.269 20.8556 154.706 20.9642 155.035 21.2356C155.363 21.5614 155.527 21.9414 155.527 22.4843V24.9274C155.527 25.1446 155.582 25.3075 155.582 25.4703C155.582 25.6332 155.637 25.7961 155.691 25.959H155.09ZM153.229 25.5789C153.667 25.5789 154.05 25.4703 154.378 25.2532C154.652 25.036 154.871 24.7646 154.98 24.4931V23.5159H153.721C153.284 23.5159 152.901 23.6244 152.627 23.8416C152.299 24.0588 152.189 24.3302 152.189 24.6017C152.189 24.8731 152.244 25.1446 152.463 25.3075C152.627 25.4703 152.901 25.5789 153.229 25.5789ZM158.92 23.1358C159.413 23.1358 159.741 23.0815 160.015 22.9187C160.234 22.7558 160.343 22.5386 160.343 22.2672C160.343 21.9957 160.234 21.7785 159.96 21.5614C159.741 21.3985 159.358 21.2899 158.92 21.2899C158.482 21.2899 158.154 21.3985 157.88 21.6157C157.607 21.7785 157.443 21.9957 157.443 22.2672H156.95C156.895 21.8328 157.114 21.5071 157.497 21.2356C157.88 20.9642 158.318 20.8556 158.92 20.8556C159.522 20.8556 160.015 20.9642 160.343 21.2356C160.726 21.4528 160.89 21.8328 160.89 22.2672C160.89 22.4843 160.836 22.7015 160.671 22.9187C160.453 23.1358 160.234 23.2444 159.96 23.353C160.288 23.4616 160.562 23.6244 160.726 23.8416C160.89 24.0045 161 24.2759 161 24.5474C161 25.036 160.781 25.3618 160.398 25.6332C160.015 25.9047 159.522 26.0133 158.92 26.0133C158.318 26.0133 157.826 25.9047 157.443 25.6332C157.005 25.416 156.841 25.036 156.841 24.5474V24.4931H157.388C157.388 24.8188 157.497 25.0903 157.826 25.2532C158.099 25.4703 158.482 25.5789 158.92 25.5789C159.413 25.5789 159.741 25.4703 160.015 25.3075C160.288 25.1446 160.398 24.8731 160.398 24.6017C160.398 24.2759 160.288 24.0045 160.069 23.8416C159.796 23.733 159.413 23.6244 158.92 23.6244H158.099V23.1358H158.92Z" fill="#323232"/>
</g>
<defs>
<clipPath id="clip0">
<rect width="161" height="46" fill="white"/>
</clipPath>
</defs>
</svg>
