<svg width="54" height="54" viewBox="0 0 54 54" fill="none" xmlns="http://www.w3.org/2000/svg">
<path d="M21.4176 27.4925C21.0062 27.0835 20.3376 27.0835 19.9262 27.4925C19.5138 27.9005 19.5138 28.5636 19.9262 28.9716C20.3376 29.3805 21.0062 29.3805 21.4176 28.9716C21.8299 28.5636 21.8299 27.9005 21.4176 27.4925Z" fill="#CE1625"/>
<path d="M27 29.2781C25.2553 29.2781 23.8359 30.6858 23.8359 32.416C23.8359 34.1463 25.2553 35.554 27 35.554C28.7447 35.554 30.1641 34.1463 30.1641 32.416C30.1641 30.6858 28.7447 29.2781 27 29.2781ZM27 33.462C26.4184 33.462 25.9453 32.9928 25.9453 32.416C25.9453 31.8393 26.4184 31.3701 27 31.3701C27.5816 31.3701 28.0547 31.8393 28.0547 32.416C28.0547 32.9928 27.5816 33.462 27 33.462Z" fill="#CE1625"/>
<path d="M27 24.0481C25.8211 24.0481 24.6811 24.2844 23.6119 24.7505C23.0787 24.983 22.8364 25.6001 23.0708 26.129C23.3051 26.6578 23.9275 26.898 24.4607 26.6657C25.2607 26.317 26.1151 26.1401 27 26.1401C30.4893 26.1401 33.3281 28.9555 33.3281 32.416C33.3281 35.8766 30.4893 38.692 27 38.692C23.5107 38.692 20.6719 35.8766 20.6719 32.416C20.6719 32.3802 20.6718 32.3453 20.6726 32.3095C20.6861 31.732 20.225 31.253 19.6427 31.2396C19.0595 31.2252 18.5774 31.6834 18.5639 32.261C18.5626 32.3131 18.5625 32.3639 18.5625 32.416C18.5625 37.0301 22.3476 40.7839 27 40.7839C31.6524 40.7839 35.4375 37.0301 35.4375 32.416C35.4375 27.8019 31.6524 24.0481 27 24.0481Z" fill="#CE1625"/>
<path d="M27 8.35815C26.4175 8.35815 25.9453 8.82644 25.9453 9.40414V15.6801C25.9453 16.2578 26.4175 16.7261 27 16.7261C27.5825 16.7261 28.0547 16.2578 28.0547 15.6801V9.40414C28.0547 8.82644 27.5825 8.35815 27 8.35815Z" fill="#CE1625"/>
<path d="M15.2171 16.1131L10.7432 11.676C10.3313 11.2675 9.66348 11.2675 9.25152 11.676C8.83966 12.0844 8.83966 12.7468 9.25152 13.1553L13.7255 17.5924C14.1374 18.0009 14.8053 18.001 15.2171 17.5924C15.629 17.1839 15.629 16.5216 15.2171 16.1131Z" fill="#CE1625"/>
<path d="M44.7484 11.676C44.3365 11.2675 43.6687 11.2675 43.2568 11.676L38.7828 16.1131C38.3709 16.5215 38.3709 17.1838 38.7828 17.5924C39.1945 18.0009 39.8625 18.001 40.2744 17.5924L44.7484 13.1553C45.1603 12.7469 45.1603 12.0845 44.7484 11.676Z" fill="#CE1625"/>
<path d="M53.7358 32.5948C47.0359 25.0722 37.0877 18.8181 27 18.8181C16.911 18.8181 6.96283 25.0738 0.26419 32.5948C-0.121404 33.0279 -0.0800601 33.6889 0.356475 34.0713C0.793116 34.4537 1.45968 34.4127 1.84517 33.9797C2.06992 33.7273 2.30016 33.4759 2.53335 33.226C7.74509 41.0358 17.1928 46.0139 27 46.0139C36.8072 46.0139 46.2549 41.0358 51.4666 33.226C51.6998 33.476 51.9301 33.7274 52.1548 33.9797C52.5391 34.4113 53.2056 34.4548 53.6435 34.0713C54.08 33.6889 54.1214 33.0278 53.7358 32.5948ZM27 43.9219C17.7277 43.9219 8.80969 39.1439 4.0406 31.6859C7.79824 28.0342 16.4806 20.9101 27 20.9101C37.5194 20.9101 46.2017 28.0342 49.9594 31.6858C45.1903 39.1439 36.2723 43.9219 27 43.9219Z" fill="#CE1625"/>
</svg>
