<svg width="37" height="38" viewBox="0 0 37 38" fill="none" xmlns="http://www.w3.org/2000/svg">
<path d="M21.4829 37.7529C21.3288 37.7787 21.1741 37.8025 21.0188 37.8242C21.1741 37.8025 21.3288 37.7787 21.4829 37.7529Z" fill="#4062A4"/>
<path d="M21.8531 37.6875C21.7794 37.7014 21.7058 37.7142 21.6321 37.7272C21.7058 37.7142 21.7794 37.7014 21.8531 37.6875Z" fill="#4062A4"/>
<path d="M20.6055 37.877C20.4251 37.8978 20.2436 37.9164 20.0615 37.932C20.2436 37.9164 20.4251 37.8978 20.6055 37.877Z" fill="#4062A4"/>
<path d="M20.961 37.832C20.8744 37.8439 20.7871 37.8549 20.7002 37.8654C20.7871 37.8549 20.8744 37.8439 20.961 37.832Z" fill="#4062A4"/>
<path d="M22.3565 37.585C22.2915 37.5992 22.2263 37.6134 22.1611 37.627C22.2263 37.6134 22.2915 37.5992 22.3565 37.585Z" fill="#4062A4"/>
<path d="M23.6065 37.2666C23.554 37.282 23.5015 37.2965 23.449 37.3115C23.5015 37.2965 23.554 37.282 23.6065 37.2666Z" fill="#4062A4"/>
<path d="M23.2285 37.3721C23.1715 37.3874 23.1142 37.4031 23.0569 37.4179C23.1142 37.4031 23.1715 37.3877 23.2285 37.3721Z" fill="#4062A4"/>
<path d="M22.7341 37.499C22.6737 37.5135 22.6127 37.5271 22.5518 37.5411C22.6127 37.5271 22.6737 37.5135 22.7341 37.499Z" fill="#4062A4"/>
<path d="M20.0556 37.9326C19.9582 37.941 19.8609 37.9486 19.7632 37.9552C19.8609 37.9486 19.9582 37.941 20.0556 37.9326Z" fill="#4062A4"/>
<path d="M37 19C37 8.50819 28.7157 0 18.5 0C8.28429 0 0 8.50819 0 19C0 29.4918 8.28429 38 18.5 38C18.6087 38 18.7168 37.9977 18.8252 37.9957V23.205H14.8506V18.4477H18.8252V14.947C18.8252 10.887 21.2385 8.67722 24.7648 8.67722C26.4535 8.67722 27.905 8.80652 28.3281 8.86421V13.1074H25.8965C23.9781 13.1074 23.6066 14.0439 23.6066 15.4178V18.4477H28.1938L27.5959 23.205H23.6066V37.2659C31.3393 34.9892 37 27.6726 37 19Z" fill="#4062A4"/>
<path d="M19.7224 37.958C19.5299 37.9708 19.3365 37.9809 19.1426 37.9876C19.3365 37.9809 19.5299 37.9708 19.7224 37.958Z" fill="#4062A4"/>
<path d="M19.1326 37.9883C19.0304 37.9918 18.9279 37.9944 18.8254 37.9961C18.9279 37.9944 19.0304 37.9918 19.1326 37.9883Z" fill="#4062A4"/>
</svg>
