<svg width="61" height="61" viewBox="0 0 61 61" fill="none" xmlns="http://www.w3.org/2000/svg">
<path d="M4.63135 17.2081H14.0551C14.5486 17.2081 14.9487 16.8082 14.9487 16.3146C14.9487 15.821 14.5486 15.421 14.0551 15.421H4.63135C4.13787 15.421 3.73779 15.821 3.73779 16.3146C3.73779 16.8082 4.13775 17.2081 4.63135 17.2081Z" fill="#BC2A40"/>
<path d="M13.7319 21.5099H10.0093C9.5158 21.5099 9.11572 21.9098 9.11572 22.4034C9.11572 22.897 9.5158 23.297 10.0093 23.297H13.7319C14.2254 23.297 14.6255 22.897 14.6255 22.4034C14.6255 21.9098 14.2254 21.5099 13.7319 21.5099Z" fill="#BC2A40"/>
<path d="M0.893555 27.7064H10.0092C10.5027 27.7064 10.9028 27.3065 10.9028 26.8129C10.9028 26.3193 10.5027 25.9193 10.0092 25.9193H0.893555C0.400074 25.9193 0 26.3193 0 26.8129C0 27.3065 0.400074 27.7064 0.893555 27.7064Z" fill="#BC2A40"/>
<path d="M14.9487 43.5476C14.9487 43.054 14.5486 42.6541 14.0551 42.6541H4.63135C4.13787 42.6541 3.73779 43.054 3.73779 43.5476C3.73779 44.0412 4.13787 44.4412 4.63135 44.4412H14.0551C14.5486 44.4412 14.9487 44.0412 14.9487 43.5476Z" fill="#BC2A40"/>
<path d="M13.7319 36.5652H10.0093C9.5158 36.5652 9.11572 36.9651 9.11572 37.4587C9.11572 37.9523 9.5158 38.3523 10.0093 38.3523H13.7319C14.2254 38.3523 14.6255 37.9523 14.6255 37.4587C14.6255 36.9651 14.2254 36.5652 13.7319 36.5652Z" fill="#BC2A40"/>
<path d="M10.9028 33.0494C10.9028 32.5558 10.5027 32.1559 10.0092 32.1559H0.893555C0.400074 32.1559 0 32.5558 0 33.0494C0 33.543 0.400074 33.943 0.893555 33.943H10.0092C10.5027 33.943 10.9028 33.543 10.9028 33.0494Z" fill="#BC2A40"/>
<path d="M38.0688 19.1881C38.5624 19.1881 38.9624 18.7882 38.9624 18.2946V16.9307C38.9624 16.4371 38.5624 16.0371 38.0688 16.0371C37.5752 16.0371 37.1753 16.4371 37.1753 16.9307V18.2946C37.1753 18.7882 37.5752 19.1881 38.0688 19.1881Z" fill="#BC2A40"/>
<path d="M47.8935 20.1065C47.5444 19.7576 46.9787 19.7576 46.6297 20.1065L45.6653 21.0709C45.3163 21.42 45.3163 21.9857 45.6653 22.3346C46.0145 22.6836 46.58 22.6835 46.929 22.3346L47.8935 21.3702C48.2423 21.0212 48.2423 20.4556 47.8935 20.1065Z" fill="#BC2A40"/>
<path d="M49.7053 29.0376C49.2117 29.0376 48.8118 29.4376 48.8118 29.9312C48.8118 30.4248 49.2117 30.8247 49.7053 30.8247H51.0691C51.5627 30.8247 51.9627 30.4248 51.9627 29.9312C51.9627 29.4376 51.5627 29.0376 51.0691 29.0376H49.7053Z" fill="#BC2A40"/>
<path d="M46.929 37.5274C46.5799 37.1785 46.0142 37.1785 45.6653 37.5274C45.3163 37.8765 45.3163 38.4421 45.6653 38.7911L46.6297 39.7555C46.9789 40.1045 47.5445 40.1044 47.8935 39.7555C48.2424 39.4065 48.2424 38.8408 47.8935 38.4918L46.929 37.5274Z" fill="#BC2A40"/>
<path d="M37.1753 41.5676V42.9314C37.1753 43.425 37.5752 43.825 38.0688 43.825C38.5624 43.825 38.9624 43.425 38.9624 42.9314V41.5676C38.9624 41.074 38.5624 40.6741 38.0688 40.6741C37.5752 40.6741 37.1753 41.0741 37.1753 41.5676Z" fill="#BC2A40"/>
<path d="M29.2088 37.5274L28.2444 38.4918C27.8954 38.8409 27.8954 39.4066 28.2444 39.7555C28.5935 40.1045 29.1591 40.1044 29.508 39.7555L30.4724 38.7911C30.8214 38.442 30.8214 37.8763 30.4724 37.5274C30.1236 37.1785 29.5578 37.1785 29.2088 37.5274Z" fill="#BC2A40"/>
<path d="M25.0686 29.0376C24.5751 29.0376 24.175 29.4376 24.175 29.9312C24.175 30.4248 24.5751 30.8247 25.0686 30.8247H26.4325C26.926 30.8247 27.3261 30.4248 27.3261 29.9312C27.3261 29.4376 26.926 29.0376 26.4325 29.0376H25.0686Z" fill="#BC2A40"/>
<path d="M30.4724 21.0709L29.508 20.1065C29.159 19.7576 28.5932 19.7576 28.2444 20.1065C27.8954 20.4556 27.8954 21.0212 28.2444 21.3702L29.2088 22.3346C29.5579 22.6836 30.1236 22.6835 30.4724 22.3346C30.8214 21.9857 30.8214 21.42 30.4724 21.0709Z" fill="#BC2A40"/>
<path d="M42.8738 29.9311C42.8738 29.4375 42.4738 29.0375 41.9802 29.0375H38.9624V22.4033C38.9624 21.9097 38.5624 21.5098 38.0688 21.5098C37.5752 21.5098 37.1753 21.9097 37.1753 22.4033V29.9311C37.1753 30.4247 37.5752 30.8246 38.0688 30.8246H41.9802C42.4737 30.8246 42.8738 30.4247 42.8738 29.9311Z" fill="#BC2A40"/>
<path d="M55.0121 29.7836C55.5047 29.7537 55.8798 29.3301 55.8499 28.8376C55.2815 19.4609 47.4711 12.1157 38.0688 12.1157C28.2454 12.1157 20.2534 20.1077 20.2534 29.9312C20.2534 39.7546 28.2454 47.7465 38.0688 47.7465C46.8695 47.7465 54.3791 41.2984 55.6855 32.5969C55.7587 32.1089 55.4225 31.654 54.9344 31.5807C54.4476 31.5076 53.9914 31.8435 53.9181 32.3317C52.7446 40.149 45.9946 45.9595 38.0688 45.9595C29.2308 45.9595 22.0405 38.7693 22.0405 29.9313C22.0405 21.0933 29.2308 13.903 38.0688 13.903C46.5279 13.903 53.5546 20.5106 54.066 28.946C54.0958 29.4383 54.519 29.8122 55.0121 29.7836V29.7836Z" fill="#BC2A40"/>
<path d="M38.0687 7C34.9256 7 31.8462 7.65206 29.0119 8.87146H13.2461C12.7526 8.87146 12.3525 9.27142 12.3525 9.76502C12.3525 10.2586 12.7526 10.6586 13.2461 10.6586H25.6502C23.973 11.738 22.4291 13.04 21.0678 14.543C20.7366 14.9087 20.7645 15.4738 21.1302 15.8051C21.4961 16.1364 22.061 16.1084 22.3924 15.7427C26.3958 11.3223 32.1096 8.78711 38.0687 8.78711C49.7276 8.78711 59.2128 18.2723 59.2128 29.9311C59.2128 41.5899 49.7277 51.0751 38.0687 51.0751C26.4098 51.0751 16.9247 41.59 16.9247 29.9311C16.9247 25.8484 18.0909 21.8858 20.2972 18.4715C20.565 18.057 20.4461 17.5039 20.0316 17.2361C19.6171 16.9684 19.0641 17.087 18.7961 17.5017C16.4026 21.2055 15.1376 25.5035 15.1376 29.9311C15.1376 38.0048 19.332 45.1165 25.6559 49.2037H13.2462C12.7527 49.2037 12.3527 49.6036 12.3527 50.0972C12.3527 50.5908 12.7527 50.9908 13.2462 50.9908H28.9996C31.7827 52.194 34.849 52.8622 38.0688 52.8622C50.713 52.8622 60.9999 42.5754 60.9999 29.9311C60.9999 17.2868 50.713 7 38.0687 7V7Z" fill="#BC2A40"/>
</svg>
