<svg width="62" height="62" viewBox="0 0 62 62" fill="none" xmlns="http://www.w3.org/2000/svg">
<path d="M4.70728 18.0684H14.2855C14.7871 18.0684 15.1937 17.6618 15.1937 17.1602C15.1937 16.6585 14.7871 16.252 14.2855 16.252H4.70728C4.20571 16.252 3.79907 16.6585 3.79907 17.1602C3.79907 17.6618 4.20558 18.0684 4.70728 18.0684Z" fill="#362F4C"/>
<path d="M13.957 22.4407H10.1733C9.67177 22.4407 9.26514 22.8472 9.26514 23.3489C9.26514 23.8506 9.67177 24.2571 10.1733 24.2571H13.957C14.4586 24.2571 14.8652 23.8506 14.8652 23.3489C14.8652 22.8472 14.4586 22.4407 13.957 22.4407Z" fill="#362F4C"/>
<path d="M0.908203 28.7388H10.1733C10.6749 28.7388 11.0815 28.3322 11.0815 27.8306C11.0815 27.3289 10.6749 26.9224 10.1733 26.9224H0.908203C0.406633 26.9224 0 27.3289 0 27.8306C0 28.3322 0.406633 28.7388 0.908203 28.7388Z" fill="#362F4C"/>
<path d="M15.1937 44.8396C15.1937 44.3379 14.7871 43.9314 14.2855 43.9314H4.70728C4.20571 43.9314 3.79907 44.3379 3.79907 44.8396C3.79907 45.3413 4.20571 45.7478 4.70728 45.7478H14.2855C14.7871 45.7478 15.1937 45.3413 15.1937 44.8396Z" fill="#362F4C"/>
<path d="M13.957 37.7429H10.1733C9.67177 37.7429 9.26514 38.1494 9.26514 38.6511C9.26514 39.1528 9.67177 39.5593 10.1733 39.5593H13.957C14.4586 39.5593 14.8652 39.1528 14.8652 38.6511C14.8652 38.1494 14.4586 37.7429 13.957 37.7429Z" fill="#362F4C"/>
<path d="M11.0815 34.1692C11.0815 33.6675 10.6749 33.261 10.1733 33.261H0.908203C0.406633 33.261 0 33.6675 0 34.1692C0 34.6709 0.406633 35.0774 0.908203 35.0774H10.1733C10.6749 35.0774 11.0815 34.6709 11.0815 34.1692Z" fill="#362F4C"/>
<path d="M38.6929 20.0809C39.1946 20.0809 39.6011 19.6744 39.6011 19.1727V17.7864C39.6011 17.2847 39.1946 16.8782 38.6929 16.8782C38.1912 16.8782 37.7847 17.2847 37.7847 17.7864V19.1727C37.7847 19.6744 38.1912 20.0809 38.6929 20.0809Z" fill="#362F4C"/>
<path d="M48.6787 21.0142C48.3239 20.6597 47.7489 20.6597 47.3942 21.0142L46.414 21.9945C46.0593 22.3493 46.0593 22.9242 46.414 23.2789C46.7689 23.6336 47.3437 23.6335 47.6984 23.2789L48.6787 22.2987C49.0332 21.944 49.0332 21.369 48.6787 21.0142Z" fill="#362F4C"/>
<path d="M50.52 30.0918C50.0183 30.0918 49.6118 30.4983 49.6118 31C49.6118 31.5017 50.0183 31.9082 50.52 31.9082H51.9062C52.4079 31.9082 52.8144 31.5017 52.8144 31C52.8144 30.4983 52.4079 30.0918 51.9062 30.0918H50.52Z" fill="#362F4C"/>
<path d="M47.6984 38.7208C47.3436 38.3662 46.7686 38.3662 46.414 38.7208C46.0593 39.0756 46.0593 39.6505 46.414 40.0052L47.3942 40.9855C47.7491 41.3401 48.324 41.34 48.6787 40.9855C49.0333 40.6306 49.0333 40.0557 48.6787 39.701L47.6984 38.7208Z" fill="#362F4C"/>
<path d="M37.7847 42.8271V44.2133C37.7847 44.715 38.1912 45.1215 38.6929 45.1215C39.1946 45.1215 39.6011 44.715 39.6011 44.2133V42.8271C39.6011 42.3255 39.1946 41.9189 38.6929 41.9189C38.1912 41.9189 37.7847 42.3256 37.7847 42.8271Z" fill="#362F4C"/>
<path d="M29.6877 38.7208L28.7074 39.701C28.3527 40.0558 28.3527 40.6308 28.7074 40.9855C29.0622 41.3401 29.6372 41.34 29.9917 40.9855L30.972 40.0052C31.3267 39.6504 31.3267 39.0754 30.972 38.7208C30.6174 38.3662 30.0424 38.3662 29.6877 38.7208Z" fill="#362F4C"/>
<path d="M25.4795 30.0918C24.9779 30.0918 24.5713 30.4983 24.5713 31C24.5713 31.5017 24.9779 31.9082 25.4795 31.9082H26.8658C27.3673 31.9082 27.774 31.5017 27.774 31C27.774 30.4983 27.3673 30.0918 26.8658 30.0918H25.4795Z" fill="#362F4C"/>
<path d="M30.972 21.9945L29.9917 21.0142C29.6371 20.6597 29.062 20.6597 28.7074 21.0142C28.3527 21.369 28.3527 21.944 28.7074 22.2987L29.6877 23.2789C30.0425 23.6336 30.6174 23.6335 30.972 23.2789C31.3267 22.9242 31.3267 22.3493 30.972 21.9945Z" fill="#362F4C"/>
<path d="M43.5766 30.9998C43.5766 30.4981 43.1701 30.0916 42.6684 30.0916H39.6011V23.3486C39.6011 22.8469 39.1946 22.4404 38.6929 22.4404C38.1912 22.4404 37.7847 22.8469 37.7847 23.3486V30.9998C37.7847 31.5015 38.1912 31.908 38.6929 31.908H42.6684C43.17 31.908 43.5766 31.5015 43.5766 30.9998Z" fill="#362F4C"/>
<path d="M55.9139 30.8501C56.4147 30.8197 56.7959 30.3892 56.7655 29.8886C56.1877 20.3581 48.2493 12.8926 38.6928 12.8926C28.7084 12.8926 20.5854 21.0155 20.5854 31.0001C20.5854 40.9845 28.7084 49.1075 38.6928 49.1075C47.6379 49.1075 55.2706 42.5536 56.5984 33.7096C56.6728 33.2136 56.3311 32.7511 55.835 32.6766C55.3402 32.6024 54.8765 32.9438 54.8021 33.44C53.6093 41.3854 46.7486 47.2912 38.6928 47.2912C29.71 47.2912 22.4019 39.9831 22.4019 31.0002C22.4019 22.0174 29.71 14.7091 38.6928 14.7091C47.2906 14.7091 54.4326 21.4251 54.9523 29.9988C54.9826 30.4991 55.4127 30.8791 55.9139 30.8501V30.8501Z" fill="#362F4C"/>
<path d="M38.6929 7.69287C35.4983 7.69287 32.3684 8.35562 29.4876 9.59501H13.4634C12.9618 9.59501 12.5552 10.0015 12.5552 10.5032C12.5552 11.0049 12.9618 11.4114 13.4634 11.4114H26.0708C24.3662 12.5085 22.7969 13.8318 21.4133 15.3596C21.0767 15.7312 21.105 16.3055 21.4768 16.6423C21.8486 16.9791 22.4227 16.9506 22.7596 16.5789C26.8286 12.086 32.6362 9.50928 38.6929 9.50928C50.5429 9.50928 60.1837 19.1499 60.1837 30.9999C60.1837 42.8498 50.543 52.4905 38.6929 52.4905C26.8429 52.4905 17.2023 42.8499 17.2023 30.9999C17.2023 26.8503 18.3877 22.8227 20.6301 19.3524C20.9023 18.9311 20.7814 18.369 20.3602 18.0968C19.9389 17.8247 19.3768 17.9453 19.1044 18.3667C16.6716 22.1312 15.3859 26.4997 15.3859 30.9999C15.3859 39.2059 19.6491 46.4343 26.0766 50.5884H13.4635C12.9619 50.5884 12.5553 50.9949 12.5553 51.4966C12.5553 51.9983 12.9619 52.4048 13.4635 52.4048H29.4751C32.3039 53.6277 35.4205 54.3069 38.693 54.3069C51.5445 54.3069 62.0001 43.8515 62.0001 30.9999C62.0001 18.1483 51.5445 7.69287 38.6929 7.69287V7.69287Z" fill="#362F4C"/>
</svg>
