<svg width="61" height="61" viewBox="0 0 61 61" fill="none" xmlns="http://www.w3.org/2000/svg">
<path d="M45.75 20.0156C44.6987 20.0156 43.8438 19.1607 43.8438 18.1094H41.9375C41.9375 19.8803 43.1565 21.3605 44.7969 21.7865V23.8281H46.7031V21.9219H49.5625V18.1094C49.5625 16.0068 47.8526 14.2969 45.75 14.2969C44.6987 14.2969 43.8438 13.4419 43.8438 12.3906V10.4844H45.75C46.8013 10.4844 47.6562 11.3393 47.6562 12.3906H49.5625C49.5625 10.6197 48.3435 9.13952 46.7031 8.71347V6.67188H44.7969V8.57812H41.9375V12.3906C41.9375 14.4932 43.6474 16.2031 45.75 16.2031C46.8013 16.2031 47.6562 17.0581 47.6562 18.1094V20.0156H45.75Z" fill="#BC2A40"/>
<path d="M52.4219 14.2969H54.3281V16.2031H52.4219V14.2969Z" fill="#BC2A40"/>
<path d="M37.1719 14.2969H39.0781V16.2031H37.1719V14.2969Z" fill="#BC2A40"/>
<path d="M31.4531 29.5469V0.953125H30.5C14.2073 0.953125 0.953125 14.2082 0.953125 30.5C0.953125 46.7918 14.2073 60.0469 30.5 60.0469C46.7927 60.0469 60.0469 46.7918 60.0469 30.5V29.5469H31.4531ZM42.8697 31.4531C42.761 35.8604 41.9156 39.7339 40.6994 43.066C38.1221 42.4455 35.0569 42.0157 31.4531 41.9499V31.4531H42.8697ZM29.5469 3.95547V17.1305C26.2386 17.0657 23.3983 16.6854 21.0135 16.125C23.6613 9.93919 27.4624 5.86934 29.5469 3.95547ZM29.5469 19.0501V29.5469H18.1303C18.239 25.1396 19.0844 21.2661 20.3006 17.934C22.8779 18.5545 25.9431 18.9843 29.5469 19.0501V19.0501ZM29.5469 31.4531V41.9499C25.9431 42.0157 22.8779 42.4455 20.3006 43.066C19.0835 39.7329 18.239 35.8604 18.1303 31.4531H29.5469ZM29.5469 43.8695V57.0445C27.4624 55.1307 23.6613 51.0599 21.0135 44.875C23.3983 44.3146 26.2386 43.9343 29.5469 43.8695ZM31.4531 57.0445V43.8695C34.7614 43.9343 37.6017 44.3146 39.9865 44.875C37.3387 51.0608 33.5376 55.1307 31.4531 57.0445ZM27.7398 3.0033C25.3922 5.22122 21.6874 9.4102 19.1102 15.615C14.3007 14.1711 11.6615 12.1209 10.6969 11.244C15.1175 6.69856 21.0841 3.66763 27.7398 3.0033V3.0033ZM9.4083 12.6613C10.5501 13.7136 13.3762 15.8991 18.4134 17.4231C17.1772 20.8992 16.328 24.9385 16.2231 29.5469H2.87558C3.0948 23.1238 5.51859 17.2535 9.4083 12.6613V12.6613ZM16.2231 31.4531C16.328 36.0605 17.1772 40.1008 18.4134 43.5769C13.3762 45.1009 10.5501 47.2864 9.4083 48.3387C5.51859 43.7465 3.0948 37.8762 2.87558 31.4531H16.2231ZM10.6969 49.755C11.6605 48.8791 14.3007 46.828 19.1102 45.384C21.6884 51.5888 25.3922 55.7778 27.7398 57.9957C21.0841 57.3324 15.1175 54.3014 10.6969 49.755V49.755ZM33.2602 57.9967C35.6078 55.7788 39.3126 51.5898 41.8898 45.385C46.6993 46.8289 49.3385 48.8791 50.3031 49.756C45.8825 54.3014 39.9159 57.3324 33.2602 57.9967ZM51.5917 48.3387C50.4499 47.2864 47.6238 45.1009 42.5866 43.5769C43.8228 40.1008 44.672 36.0615 44.7769 31.4531H58.1254C57.9052 37.8762 55.4814 43.7465 51.5917 48.3387Z" fill="#BC2A40"/>
<path d="M45.75 27.6406C52.582 27.6406 58.1406 22.082 58.1406 15.25C58.1406 8.418 52.582 2.85938 45.75 2.85938C38.918 2.85938 33.3594 8.418 33.3594 15.25C33.3594 22.082 38.918 27.6406 45.75 27.6406ZM45.75 4.76562C51.5307 4.76562 56.2344 9.4693 56.2344 15.25C56.2344 21.0307 51.5307 25.7344 45.75 25.7344C39.9693 25.7344 35.2656 21.0307 35.2656 15.25C35.2656 9.4693 39.9693 4.76562 45.75 4.76562Z" fill="#BC2A40"/>
<path d="M54.3281 33.3594H56.2344V35.2656H54.3281V33.3594Z" fill="#BC2A40"/>
<path d="M50.5156 33.3594H52.4219V35.2656H50.5156V33.3594Z" fill="#BC2A40"/>
<path d="M46.7031 33.3594H48.6094V35.2656H46.7031V33.3594Z" fill="#BC2A40"/>
<path d="M12.3906 33.3594H14.2969V35.2656H12.3906V33.3594Z" fill="#BC2A40"/>
<path d="M8.57812 33.3594H10.4844V35.2656H8.57812V33.3594Z" fill="#BC2A40"/>
<path d="M4.76562 33.3594H6.67188V35.2656H4.76562V33.3594Z" fill="#BC2A40"/>
</svg>
