<svg width="157" height="46" viewBox="0 0 157 46" fill="none" xmlns="http://www.w3.org/2000/svg">
<g clip-path="url(#clip0)">
<path d="M8.13037 0H20.7548V1.09657H8.13037C7.17668 1.09657 6.27089 1.31244 5.43913 1.7053C4.57689 2.11112 3.79303 2.71122 3.13982 3.45378C2.48225 4.20066 1.95097 5.09 1.58953 6.07865C1.24115 7.02844 1.04518 8.0732 1.04518 9.16546V25.994C1.04518 27.0862 1.24115 28.131 1.58953 29.0808C1.95097 30.0694 2.48225 30.9631 3.13982 31.7057C3.79303 32.4482 4.57689 33.0483 5.44349 33.4542C6.27089 33.847 7.18104 34.0629 8.13037 34.0629H20.7548V35.1595H8.13037C7.02862 35.1595 5.97912 34.9091 5.01672 34.4601C4.02384 33.9895 3.12676 33.303 2.37774 32.4526C1.63307 31.6064 1.02776 30.5961 0.618415 29.478C0.222132 28.403 0.00439453 27.2244 0.00439453 25.994V9.16546C0.00439453 7.93505 0.222132 6.76077 0.618415 5.68146C1.02776 4.5633 1.62872 3.55307 2.37774 2.7069C3.12676 1.85641 4.02384 1.16997 5.01672 0.703707C5.97912 0.250399 7.02862 0 8.13037 0Z" fill="#31304F"/>
<path d="M58.9888 0H74.3393C75.4367 0 76.4905 0.250399 77.4486 0.703707C79.5302 1.68372 81.0674 3.55307 81.8512 5.68146C82.2432 6.76077 82.4609 7.93505 82.4609 9.16546V25.994C82.4609 27.2158 82.2475 28.3857 81.8556 29.4564C81.4506 30.5702 80.854 31.5762 80.1137 32.4223C79.3995 33.2383 78.5503 33.9075 77.6097 34.378C76.778 34.7925 75.8765 35.0558 74.9272 35.1336V44.2558C74.9272 44.4113 74.9011 44.5796 74.8532 44.7437C74.8052 44.9034 74.7356 45.0588 74.6485 45.2056C74.557 45.3524 74.4438 45.4863 74.3132 45.6028C74.1912 45.7151 74.0475 45.81 73.8864 45.8791C73.7122 45.9525 73.5249 45.9957 73.3203 46C73.133 46 72.9371 45.9698 72.7324 45.9007C72.4929 45.8187 72.2403 45.6762 71.979 45.4647C71.7526 45.2833 71.5131 45.0416 71.2648 44.7307L63.6484 35.1595H58.9888V34.0629H64.1317C66.7751 37.3828 69.4184 40.7071 72.0618 44.027C72.249 44.2602 72.4276 44.4458 72.5974 44.584C72.7672 44.7221 72.9196 44.8128 73.059 44.8603C73.1461 44.8905 73.2288 44.9034 73.2985 44.9034C73.3725 44.9034 73.4379 44.8905 73.4945 44.8646C73.5467 44.8387 73.599 44.8084 73.6425 44.7653C73.6948 44.7221 73.7383 44.666 73.7775 44.6055C73.8124 44.5494 73.8428 44.4847 73.8603 44.4242C73.8777 44.3681 73.8864 44.3077 73.8864 44.2558V34.0715L74.4046 34.0629C75.3452 34.0542 76.2467 33.8298 77.0697 33.4369C77.9276 33.0224 78.7028 32.4223 79.3516 31.6798C80.0005 30.9372 80.5274 30.0479 80.8845 29.0635C81.2285 28.1181 81.4201 27.0819 81.4201 25.994V9.16546C81.4201 8.0732 81.2285 7.02844 80.8801 6.07865C80.5143 5.09 79.9831 4.20066 79.3255 3.45378C78.6723 2.71122 77.8928 2.11112 77.0262 1.7053C76.1988 1.31244 75.2886 1.09657 74.3393 1.09657H58.9888V0Z" fill="#31304F"/>
<path d="M20.0874 0H60.2644V1.09657H20.0874V0ZM20.0874 34.0629H60.2644V35.1595H20.0874V34.0629Z" fill="#31304F"/>
<path d="M22.0385 23.5072C21.664 24.1116 20.976 24.6858 19.97 25.2125C18.9641 25.7435 17.6968 26.0069 16.1727 26.0112C14.2217 26.0069 12.6279 25.3463 11.3868 24.0123C10.1413 22.6826 9.52295 20.9557 9.52295 18.8403V15.7621C9.52295 13.6855 10.1239 11.9888 11.3258 10.6807C12.5321 9.3726 14.0867 8.7207 15.9985 8.7207C17.8362 8.7207 19.295 9.19991 20.3794 10.1627C21.4593 11.1211 21.9906 12.3472 21.9601 13.8323L21.9209 13.9014H20.6406C20.6406 12.74 20.2357 11.7816 19.43 11.0304C18.6244 10.2706 17.4791 9.8993 15.9985 9.8993C14.4743 9.8993 13.2463 10.4433 12.3187 11.5355C11.3868 12.6278 10.9165 14.0266 10.9165 15.7362V18.8403C10.9165 20.5931 11.4042 22.035 12.3753 23.1575C13.3464 24.28 14.6093 24.8455 16.1727 24.8455C17.3572 24.8455 18.3283 24.6685 19.0816 24.3145C19.8307 23.9605 20.3576 23.5504 20.6537 23.0755V18.7755H16.0899V17.5969H22.0385V23.5072ZM24.7602 19.3368C24.7602 17.4976 25.2654 15.9909 26.2801 14.8166C27.2991 13.638 28.6447 13.0466 30.3213 13.0466C32.0066 13.0466 33.3565 13.638 34.3756 14.8166C35.3902 15.9909 35.8997 17.4976 35.8997 19.3368V19.721C35.8997 21.5688 35.3946 23.0755 34.3799 24.2498C33.3652 25.424 32.024 26.0069 30.3474 26.0112C28.6534 26.0069 27.2991 25.424 26.2801 24.2498C25.2654 23.0755 24.7602 21.5688 24.7602 19.721V19.3368ZM26.1538 19.721C26.1538 21.1673 26.5239 22.3847 27.2599 23.369C27.9958 24.3534 29.0279 24.8455 30.3474 24.8455C31.6408 24.8455 32.6598 24.3534 33.4001 23.369C34.1404 22.3847 34.5149 21.1673 34.5149 19.721V19.3368C34.5149 17.9164 34.1404 16.7076 33.3957 15.7146C32.6511 14.7216 31.6233 14.2252 30.3213 14.2252C29.0192 14.2252 27.9958 14.7216 27.2599 15.7146C26.5239 16.7076 26.1538 17.9164 26.1538 19.3368V19.721Z" fill="#31304F"/>
<path d="M44.1038 25.7651H42.7016V10.1497L38.6865 10.6332V9.52802L44.1038 8.7207V25.7651ZM61.1832 10.1368C59.2845 12.3385 57.8562 14.5446 56.8938 16.7464C55.9357 18.9525 55.4567 21.4047 55.4567 24.103V25.7651H54.0588V24.103C54.0588 21.4349 54.5596 18.9612 55.5569 16.6946C56.5541 14.4238 57.952 12.2392 59.7418 10.1368H50.1613V8.95815H61.1832V10.1368ZM71.787 20.3556H74.4391V21.5213H71.787V25.7651H70.3979V21.5213H62.6116V20.7355L70.2585 8.95815H71.787V20.3556ZM64.262 20.3556H70.3979V10.7714L70.3282 10.7498L69.7359 12.0104L64.262 20.3556Z" fill="#2B2A29"/>
<path d="M95.1505 12.3862L95.1592 12.4164C95.1723 13.077 94.9546 13.608 94.506 14.0009C94.0531 14.398 93.4652 14.5966 92.7336 14.601C91.9716 14.5966 91.3619 14.3247 90.8959 13.7807C90.43 13.241 90.1948 12.5373 90.1948 11.6696V10.5687C90.1948 9.70522 90.43 9.00584 90.8959 8.45755C91.3619 7.90926 91.9716 7.63728 92.7336 7.63728C93.474 7.63728 94.0662 7.83155 94.5104 8.21578C94.9589 8.60433 95.1723 9.13535 95.1592 9.81747L95.1505 9.84338H94.628C94.628 9.29941 94.4581 8.872 94.1228 8.56548C93.7875 8.26327 93.3215 8.11217 92.7336 8.11217C92.137 8.11217 91.658 8.34098 91.2966 8.79861C90.9351 9.25623 90.7522 9.84338 90.7522 10.56V11.6696C90.7522 12.3949 90.9351 12.9863 91.2966 13.4439C91.658 13.9016 92.137 14.1304 92.7336 14.1304C93.3215 14.1304 93.7875 13.9793 94.1228 13.6814C94.4581 13.3878 94.628 12.9518 94.628 12.3862H95.1505ZM99.6882 14.5017C99.649 14.3247 99.6272 14.1735 99.6098 14.044C99.5924 13.9188 99.5837 13.7893 99.5837 13.6555C99.4095 13.9275 99.1613 14.152 98.8477 14.3333C98.5298 14.5103 98.1684 14.5966 97.759 14.601C97.2626 14.5966 96.875 14.4671 96.6007 14.2038C96.3307 13.9447 96.1913 13.5907 96.1913 13.1417C96.1913 12.6884 96.3916 12.3258 96.7879 12.0452C97.1842 11.7689 97.7024 11.6264 98.3339 11.6264H99.5837V11.0047C99.5837 10.6464 99.4661 10.3658 99.2397 10.1585C99.0089 9.95562 98.6822 9.85201 98.2642 9.85201C97.881 9.85201 97.5718 9.94699 97.3366 10.1326C97.0971 10.3183 96.9795 10.5514 96.9795 10.832H96.4613L96.4526 10.8061C96.4308 10.4305 96.5963 10.0938 96.9403 9.80884C97.2844 9.5239 97.7373 9.37712 98.2947 9.37712C98.8477 9.37712 99.2963 9.51958 99.6359 9.8002C99.9713 10.0851 100.141 10.4866 100.141 11.0133V13.4871C100.141 13.6641 100.15 13.8368 100.172 14.0052C100.193 14.1692 100.224 14.3376 100.272 14.5017H99.6882ZM97.82 14.1045C98.2511 14.1045 98.6256 14.0052 98.9392 13.8023C99.2571 13.5994 99.4705 13.336 99.5837 13.0165V12.0581H98.3295C97.8766 12.0581 97.4978 12.166 97.2016 12.3819C96.9011 12.5934 96.7574 12.8525 96.7574 13.159C96.7574 13.4439 96.8489 13.6728 97.0405 13.8454C97.2278 14.0181 97.489 14.1045 97.82 14.1045ZM104.936 9.4721H105.502V14.5017H104.936V10.396L104.91 10.3873L102.201 14.5017H101.635V9.4721H102.201V13.5691L102.227 13.5778L104.936 9.4721ZM104.866 7.47754L104.879 7.50344C104.892 7.85314 104.775 8.13376 104.535 8.34962C104.296 8.56548 103.969 8.67341 103.551 8.67341C103.133 8.67341 102.806 8.56548 102.562 8.34962C102.323 8.12944 102.21 7.84882 102.223 7.50344L102.236 7.47754H102.676C102.676 7.71499 102.745 7.90926 102.885 8.05173C103.024 8.19851 103.25 8.27191 103.551 8.27191C103.847 8.27191 104.065 8.1942 104.208 8.04741C104.352 7.90063 104.426 7.71067 104.426 7.47754H104.866ZM110.767 9.94699H108.916V14.5017H108.354V9.94699H106.577V9.4721H110.767V9.94699ZM117.312 9.95131H114.743V14.5017H114.176V9.4721H117.312V9.95131ZM117.795 11.9113C117.795 11.1731 118 10.5644 118.405 10.0895C118.814 9.61456 119.359 9.37712 120.034 9.37712C120.713 9.37712 121.257 9.61456 121.667 10.0895C122.076 10.5644 122.281 11.1731 122.281 11.9113V12.0667C122.281 12.8093 122.076 13.418 121.667 13.8886C121.262 14.3635 120.717 14.5966 120.042 14.601C119.363 14.5966 118.814 14.3635 118.405 13.8886C118 13.418 117.795 12.8093 117.795 12.0667V11.9113ZM118.357 12.0667C118.357 12.6496 118.505 13.1374 118.801 13.5346C119.097 13.9318 119.511 14.1304 120.042 14.1304C120.565 14.1304 120.974 13.9318 121.275 13.5346C121.571 13.1374 121.723 12.6496 121.723 12.0667V11.9113C121.723 11.3371 121.571 10.8536 121.27 10.4521C120.97 10.0506 120.561 9.85201 120.034 9.85201C119.511 9.85201 119.097 10.0506 118.801 10.4521C118.505 10.8536 118.357 11.3371 118.357 11.9113V12.0667ZM127.537 12.1272C127.537 12.8784 127.363 13.4785 127.019 13.9275C126.675 14.3721 126.204 14.5966 125.599 14.601C125.246 14.5966 124.937 14.5319 124.667 14.398C124.401 14.2642 124.184 14.0743 124.014 13.8325V16.4358H123.452V9.4721H123.883L123.988 10.2578C124.153 9.97721 124.375 9.76135 124.641 9.61025C124.911 9.45483 125.224 9.37712 125.59 9.37712C126.2 9.37712 126.675 9.61888 127.019 10.1024C127.363 10.5859 127.537 11.2249 127.537 12.0279V12.1272ZM126.971 12.0279C126.971 11.3889 126.844 10.8709 126.588 10.4651C126.331 10.0636 125.956 9.86064 125.464 9.86064C125.089 9.86064 124.785 9.95131 124.549 10.1283C124.314 10.301 124.136 10.5341 124.014 10.8148V13.2497C124.145 13.5216 124.332 13.7375 124.571 13.8929C124.815 14.0483 125.111 14.1304 125.473 14.1304C125.965 14.1304 126.335 13.9447 126.592 13.5821C126.844 13.2151 126.971 12.7316 126.971 12.1272V12.0279ZM128.482 11.9113C128.482 11.1731 128.687 10.5644 129.096 10.0895C129.505 9.61456 130.05 9.37712 130.725 9.37712C131.404 9.37712 131.948 9.61456 132.358 10.0895C132.763 10.5644 132.967 11.1731 132.967 11.9113V12.0667C132.967 12.8093 132.767 13.418 132.358 13.8886C131.948 14.3635 131.408 14.5966 130.733 14.601C130.05 14.5966 129.505 14.3635 129.096 13.8886C128.687 13.418 128.482 12.8093 128.482 12.0667V11.9113ZM129.044 12.0667C129.044 12.6496 129.192 13.1374 129.488 13.5346C129.788 13.9318 130.202 14.1304 130.733 14.1304C131.256 14.1304 131.665 13.9318 131.966 13.5346C132.262 13.1374 132.41 12.6496 132.41 12.0667V11.9113C132.41 11.3371 132.262 10.8536 131.961 10.4521C131.661 10.0506 131.247 9.85201 130.725 9.85201C130.198 9.85201 129.788 10.0506 129.488 10.4521C129.192 10.8536 129.044 11.3371 129.044 11.9113V12.0667ZM134.121 14.0311C134.369 14.0311 134.565 13.798 134.705 13.3274C134.848 12.8568 134.94 12.179 134.983 11.2896L135.092 9.4721H138.136V14.0311H138.615V16.1379H138.049V14.5017H134.221V16.1379H133.686V14.0311H134.121ZM135.55 11.2896C135.51 11.9545 135.449 12.5114 135.362 12.9647C135.271 13.4224 135.145 13.7764 134.975 14.0311H137.575V9.99016H135.624L135.55 11.2896ZM142.979 14.5017C142.944 14.3247 142.918 14.1735 142.9 14.044C142.887 13.9188 142.874 13.7893 142.874 13.6555C142.7 13.9275 142.456 14.152 142.138 14.3333C141.825 14.5103 141.463 14.5966 141.054 14.601C140.558 14.5966 140.17 14.4671 139.896 14.2038C139.626 13.9447 139.486 13.5907 139.486 13.1417C139.486 12.6884 139.687 12.3258 140.083 12.0452C140.479 11.7689 140.997 11.6264 141.629 11.6264H142.874V11.0047C142.874 10.6464 142.761 10.3658 142.53 10.1585C142.299 9.95562 141.977 9.85201 141.559 9.85201C141.176 9.85201 140.867 9.94699 140.627 10.1326C140.392 10.3183 140.275 10.5514 140.275 10.832H139.752L139.743 10.8061C139.726 10.4305 139.891 10.0938 140.235 9.80884C140.579 9.5239 141.032 9.37712 141.59 9.37712C142.143 9.37712 142.591 9.51958 142.931 9.8002C143.266 10.0851 143.436 10.4866 143.436 11.0133V13.4871C143.436 13.6641 143.445 13.8368 143.467 14.0052C143.484 14.1692 143.519 14.3376 143.567 14.5017H142.979ZM141.115 14.1045C141.546 14.1045 141.921 14.0052 142.234 13.8023C142.548 13.5994 142.765 13.336 142.874 13.0165V12.0581H141.625C141.167 12.0581 140.793 12.166 140.497 12.3819C140.196 12.5934 140.048 12.8525 140.048 13.159C140.048 13.4439 140.144 13.6728 140.335 13.8454C140.523 14.0181 140.784 14.1045 141.115 14.1045ZM93.7309 25.1177H93.757L96.3002 19.1556H96.9839V25.925H96.4221V20.2392L96.396 20.2349L93.9443 25.925H93.5436L91.0396 20.0968L91.0135 20.1011V25.925H90.4474V19.1556H91.2008L93.7309 25.1177ZM101.809 25.925C101.774 25.748 101.748 25.5969 101.731 25.4717C101.713 25.3422 101.704 25.2127 101.704 25.0788C101.53 25.3508 101.286 25.5796 100.968 25.7567C100.655 25.9337 100.294 26.02 99.8842 26.0243C99.3834 26.02 99.0001 25.8905 98.7258 25.6315C98.4558 25.3681 98.3164 25.0141 98.3164 24.5651C98.3164 24.1118 98.5168 23.7491 98.913 23.4728C99.3093 23.1922 99.8275 23.0541 100.459 23.0541H101.704V22.4281C101.704 22.0697 101.591 21.7891 101.36 21.5862C101.13 21.379 100.807 21.2754 100.389 21.2754C100.006 21.2754 99.6925 21.3704 99.4574 21.556C99.2222 21.7416 99.1047 21.9748 99.1047 22.2554H98.5821L98.5734 22.2295C98.556 21.8539 98.7214 21.5215 99.0655 21.2322C99.4095 20.9473 99.8624 20.8005 100.415 20.8005C100.973 20.8005 101.421 20.943 101.757 21.2279C102.096 21.5085 102.266 21.9143 102.266 22.441V24.9105C102.266 25.0875 102.275 25.2602 102.297 25.4285C102.314 25.5969 102.349 25.761 102.397 25.925H101.809ZM99.9451 25.5322C100.376 25.5322 100.751 25.4285 101.064 25.2256C101.378 25.0227 101.596 24.7637 101.704 24.4399V23.4815H100.455C99.9974 23.4815 99.6229 23.5894 99.3224 23.8053C99.0263 24.0168 98.8782 24.2802 98.8782 24.5824C98.8782 24.8673 98.974 25.0961 99.1613 25.2688C99.3529 25.4415 99.6142 25.5322 99.9451 25.5322ZM106.891 21.3747H104.322V25.925H103.76V20.8955H106.891V21.3747ZM111.642 25.925H111.08V23.6196H108.345V25.925H107.784V20.8955H108.345V23.1491H111.08V20.8955H111.642V25.925ZM116.428 20.8955H116.99V25.925H116.428V21.8193L116.402 21.8107L113.693 25.925H113.127V20.8955H113.693V24.9968L113.719 25.0011L116.428 20.8955ZM122.255 21.3704H120.408V25.925H119.846V21.3704H118.07V20.8955H122.255V21.3704ZM122.921 23.3347C122.921 22.5964 123.125 21.9877 123.53 21.5128C123.94 21.0422 124.484 20.8005 125.159 20.8005C125.839 20.8005 126.383 21.0422 126.792 21.5128C127.202 21.9877 127.406 22.5964 127.406 23.3347V23.4901C127.406 24.2327 127.202 24.8414 126.792 25.3163C126.387 25.7869 125.843 26.02 125.168 26.0243C124.489 26.02 123.94 25.7869 123.53 25.3163C123.125 24.8414 122.921 24.2327 122.921 23.4901V23.3347ZM123.483 23.4901C123.483 24.0729 123.631 24.5608 123.927 24.958C124.223 25.3552 124.637 25.5537 125.168 25.5537C125.69 25.5537 126.1 25.3552 126.4 24.958C126.696 24.5608 126.849 24.0729 126.849 23.4901V23.3347C126.849 22.7648 126.696 22.277 126.396 21.8755C126.095 21.4783 125.686 21.2754 125.159 21.2754C124.637 21.2754 124.223 21.4783 123.927 21.8755C123.631 22.277 123.483 22.7648 123.483 23.3347V23.4901ZM131.709 21.3747H129.139V25.925H128.578V20.8955H131.709V21.3747ZM132.192 23.3347C132.192 22.5964 132.397 21.9877 132.806 21.5128C133.215 21.0422 133.76 20.8005 134.435 20.8005C135.11 20.8005 135.654 21.0422 136.063 21.5128C136.473 21.9877 136.677 22.5964 136.677 23.3347V23.4901C136.677 24.2327 136.473 24.8414 136.068 25.3163C135.658 25.7869 135.118 26.02 134.444 26.0243C133.76 26.02 133.215 25.7869 132.806 25.3163C132.397 24.8414 132.192 24.2327 132.192 23.4901V23.3347ZM132.754 23.4901C132.754 24.0729 132.902 24.5608 133.198 24.958C133.499 25.3552 133.912 25.5537 134.444 25.5537C134.966 25.5537 135.375 25.3552 135.672 24.958C135.972 24.5608 136.12 24.0729 136.12 23.4901V23.3347C136.12 22.7648 135.972 22.277 135.672 21.8755C135.371 21.4783 134.957 21.2754 134.435 21.2754C133.908 21.2754 133.499 21.4783 133.198 21.8755C132.902 22.277 132.754 22.7648 132.754 23.3347V23.4901ZM141.934 23.5506C141.934 24.3017 141.764 24.9018 141.42 25.3508C141.076 25.7998 140.601 26.02 140 26.0243C139.643 26.02 139.334 25.9552 139.068 25.8257C138.798 25.6919 138.581 25.5019 138.415 25.2559V27.8591H137.853V20.8955H138.28L138.385 21.6812C138.554 21.4006 138.772 21.1847 139.042 21.0336C139.312 20.8782 139.626 20.8005 139.987 20.8005C140.597 20.8005 141.076 21.0422 141.42 21.5258C141.764 22.0093 141.934 22.6526 141.934 23.4513V23.5506ZM141.372 23.4513C141.372 22.8123 141.246 22.2942 140.989 21.8927C140.732 21.4869 140.357 21.2883 139.861 21.2883C139.491 21.2883 139.186 21.3747 138.951 21.5517C138.716 21.7287 138.537 21.9575 138.415 22.2381V24.673C138.546 24.9493 138.733 25.1609 138.972 25.3206C139.212 25.476 139.512 25.5537 139.874 25.5537C140.362 25.5537 140.736 25.3681 140.989 25.0055C141.246 24.6385 141.372 24.155 141.372 23.5506V23.4513ZM145.052 25.5537C145.413 25.5537 145.731 25.4458 146.005 25.2386C146.284 25.027 146.423 24.7335 146.423 24.3579H146.924L146.933 24.3881C146.946 24.85 146.759 25.2386 146.38 25.5537C145.997 25.8646 145.557 26.02 145.052 26.0243C144.377 26.02 143.854 25.7869 143.475 25.3163C143.096 24.8457 142.909 24.2413 142.909 23.5074V23.3131C142.909 22.5835 143.096 21.9791 143.471 21.5085C143.845 21.0379 144.372 20.8005 145.047 20.8005C145.592 20.8005 146.045 20.9645 146.406 21.2926C146.767 21.6164 146.946 22.0438 146.933 22.5749L146.924 22.6008H146.423C146.423 22.1993 146.288 21.8798 146.023 21.638C145.757 21.3963 145.431 21.2754 145.047 21.2754C144.516 21.2754 144.12 21.4697 143.863 21.8582C143.602 22.2468 143.471 22.7303 143.471 23.3131V23.5074C143.471 24.0988 143.602 24.591 143.863 24.9752C144.12 25.3595 144.516 25.5537 145.052 25.5537ZM149.367 23.6196H148.723V25.925H148.157V20.8955H148.723V23.1275H149.354L151.353 20.8955H152.028L152.037 20.9214L149.855 23.3347L152.268 25.8948L152.254 25.925H151.558L149.367 23.6196ZM156.413 25.925C156.378 25.748 156.352 25.5969 156.335 25.4717C156.317 25.3422 156.309 25.2127 156.309 25.0788C156.135 25.3508 155.891 25.5796 155.573 25.7567C155.259 25.9337 154.898 26.02 154.484 26.0243C153.988 26.02 153.604 25.8905 153.33 25.6315C153.056 25.3681 152.921 25.0141 152.921 24.5651C152.921 24.1118 153.117 23.7491 153.513 23.4728C153.914 23.1922 154.427 23.0541 155.063 23.0541H156.309V22.4281C156.309 22.0697 156.196 21.7891 155.965 21.5862C155.734 21.379 155.412 21.2754 154.994 21.2754C154.606 21.2754 154.297 21.3704 154.062 21.556C153.827 21.7416 153.705 21.9748 153.705 22.2554H153.186L153.178 22.2295C153.16 21.8539 153.321 21.5215 153.665 21.2322C154.014 20.9473 154.462 20.8005 155.02 20.8005C155.577 20.8005 156.026 20.943 156.361 21.2279C156.696 21.5085 156.866 21.9143 156.866 22.441V24.9105C156.866 25.0875 156.875 25.2602 156.897 25.4285C156.918 25.5969 156.953 25.761 156.997 25.925H156.413ZM154.545 25.5322C154.976 25.5322 155.351 25.4285 155.669 25.2256C155.982 25.0227 156.196 24.7637 156.309 24.4399V23.4815H155.059C154.602 23.4815 154.227 23.5894 153.927 23.8053C153.631 24.0168 153.483 24.2802 153.483 24.5824C153.483 24.8673 153.578 25.0961 153.766 25.2688C153.953 25.4415 154.214 25.5322 154.545 25.5322Z" fill="#323232"/>
</g>
<defs>
<clipPath id="clip0">
<rect width="157" height="46" fill="white"/>
</clipPath>
</defs>
</svg>
