<svg width="126" height="45" viewBox="0 0 126 45" fill="none" xmlns="http://www.w3.org/2000/svg">
<path d="M8.12024 0H20.5365V1.13718H8.12024C7.12694 1.13718 6.13365 1.29964 5.3059 1.62455C4.47815 2.11191 3.81595 2.59928 3.15375 3.41155C2.49155 4.06137 1.9949 5.0361 1.49825 6.01083C1.16715 6.8231 1.0016 7.96029 1.0016 8.93502V25.5054C1.0016 26.4801 1.16715 27.4549 1.49825 28.4296C1.9949 29.4043 2.49155 30.3791 3.15375 31.0289C3.81595 31.6787 4.47815 32.3285 5.3059 32.8159C6.13365 33.1408 7.12694 33.3032 8.12024 33.3032H20.5365V34.4404H8.12024C6.96139 34.4404 5.9681 34.1155 4.9748 33.7906C3.9815 33.3032 3.15375 32.6534 2.326 31.8412C1.6638 30.8664 1.0016 29.8917 0.6705 28.917C0.173851 27.7798 0.00830078 26.6426 0.00830078 25.5054V8.93502C0.00830078 7.79783 0.173851 6.66065 0.6705 5.52347C1.0016 4.38628 1.6638 3.41155 2.326 2.59928C3.15375 1.787 3.9815 1.13718 4.9748 0.649819C5.9681 0.32491 6.96139 0 8.12024 0Z" fill="#31304F"/>
<path d="M42.3892 0H57.6197C58.7786 0 59.7719 0.32491 60.7652 0.649819C62.7518 1.62455 64.2417 3.41155 65.0695 5.52346C65.4006 6.66065 65.5661 7.79783 65.5661 8.93502V25.5054C65.5661 26.6426 65.4006 27.7798 65.0695 28.7545C64.5728 29.8917 64.0762 30.8664 63.2484 31.6787C62.5862 32.491 61.7585 33.1408 60.7652 33.6282C60.103 34.1155 59.1097 34.278 58.1164 34.4404V43.3754C58.1164 43.5379 58.1164 43.7004 58.1164 43.8628C58.1164 44.0253 57.9508 44.0253 57.9508 44.1877C57.7853 44.3502 57.7853 44.5126 57.6197 44.6751C57.4542 44.6751 57.2886 44.8375 57.1231 44.8375C56.9575 45 56.792 45 56.6264 45C56.4609 45 56.2953 45 55.9642 45C55.7987 44.8375 55.4676 44.6751 55.302 44.5126C54.9709 44.3502 54.8054 44.0253 54.6398 43.7004L47.0246 34.4404H42.3892V33.3032H47.5212C50.17 36.5523 52.8188 39.8014 55.302 43.0505C55.4676 43.3754 55.7987 43.5379 55.9642 43.7004C56.1298 43.7004 56.1298 43.8628 56.2953 43.8628C56.4609 43.8628 56.4609 44.0253 56.6264 44.0253L56.792 43.8628H56.9575C56.9575 43.7004 56.9575 43.7004 57.1231 43.7004C57.1231 43.5379 57.1231 43.5379 57.1231 43.5379C57.1231 43.3754 57.1231 43.3754 57.1231 43.3754V33.3032H57.6197C58.613 33.3032 59.4408 33.1408 60.2685 32.6534C61.0963 32.3285 61.924 31.6787 62.5862 31.0289C63.2484 30.2166 63.7451 29.4043 64.0762 28.4296C64.4073 27.4549 64.5728 26.4801 64.5728 25.5054V8.93502C64.5728 7.96029 64.4073 6.8231 64.0762 6.01083C63.7451 5.0361 63.2484 4.06137 62.5862 3.41155C61.924 2.59928 61.0963 2.11191 60.2685 1.62455C59.4408 1.29964 58.613 1.13718 57.6197 1.13718H42.3892V0Z" fill="#31304F"/>
<path d="M19.5435 0H43.7137V1.13718H19.5435V0ZM19.5435 33.3032H43.7137V34.4404H19.5435V33.3032Z" fill="#31304F"/>
<path d="M21.53 23.0688C21.1989 23.5562 20.5367 24.206 19.5434 24.6934C18.5501 25.1807 17.2257 25.5057 15.7358 25.5057C13.7492 25.5057 12.2592 24.8558 10.9348 23.5562C9.77597 22.2566 9.11377 20.4696 9.11377 18.5201V15.4335C9.11377 13.3215 9.77597 11.697 10.9348 10.3974C12.0937 9.09772 13.7492 8.61035 15.5702 8.61035C17.3913 8.61035 18.8812 8.93526 19.8745 9.90999C21.0334 10.8847 21.53 12.0219 21.53 13.484L21.3645 13.6465H20.2056C20.2056 12.5093 19.709 11.5345 18.8812 10.7223C18.219 10.0724 17.0602 9.74754 15.5702 9.74754C14.0803 9.74754 12.9214 10.2349 11.9281 11.3721C10.9348 12.3468 10.6037 13.8089 10.6037 15.4335V18.5201C10.6037 20.1446 10.9348 21.6067 11.9281 22.7439C12.9214 23.7187 14.2458 24.3685 15.7358 24.3685C16.8946 24.3685 17.8879 24.206 18.5501 23.7187C19.3779 23.3937 19.8745 23.0688 20.2056 22.5815V18.3576H15.5702V17.2205H21.53V23.0688ZM24.1788 18.845C24.1788 17.058 24.6755 15.5959 25.6687 14.4587C26.662 13.3215 27.9864 12.8342 29.6419 12.8342C31.463 12.8342 32.7874 13.3215 33.7807 14.4587C34.774 15.5959 35.2706 17.058 35.2706 18.845V19.3324C35.2706 21.1194 34.774 22.5815 33.7807 23.7187C32.7874 24.8558 31.463 25.5057 29.8075 25.5057C28.152 25.5057 26.662 24.8558 25.6687 23.7187C24.6755 22.5815 24.1788 21.1194 24.1788 19.3324V18.845ZM25.6687 19.3324C25.6687 20.7945 25.9998 21.9316 26.662 22.9064C27.4898 23.8811 28.4831 24.3685 29.8075 24.3685C30.9663 24.3685 31.9596 23.8811 32.7874 22.9064C33.4496 21.9316 33.9462 20.7945 33.9462 19.3324V18.845C33.9462 17.5454 33.4496 16.4082 32.7874 15.4335C31.9596 14.4587 30.9663 13.9714 29.6419 13.9714C28.4831 13.9714 27.4898 14.4587 26.662 15.4335C25.9998 16.4082 25.6687 17.5454 25.6687 18.845V19.3324Z" fill="#31304F"/>
<path d="M42.0583 16.2457C43.3827 16.2457 44.2104 15.9208 44.8726 15.271C45.5348 14.7836 45.8659 13.9714 45.8659 12.9966C45.8659 12.0219 45.5348 11.2096 44.8726 10.5598C44.376 10.0724 43.5482 9.74754 42.3894 9.74754C41.2305 9.74754 40.4028 10.0724 39.7406 10.5598C38.9128 11.2096 38.5817 12.0219 38.5817 12.9966H37.2573C37.2573 11.697 37.754 10.7223 38.7473 9.74754C39.7406 8.93526 40.8994 8.61035 42.3894 8.61035C43.8793 8.61035 45.0382 8.93526 45.8659 9.74754C46.6937 10.5598 47.1903 11.697 47.1903 12.9966C47.1903 13.8089 47.0248 14.6212 46.5281 15.271C46.0315 15.9208 45.3693 16.4082 44.5415 16.7331C45.5348 17.058 46.197 17.5454 46.6937 18.1952C47.1903 18.845 47.5214 19.8197 47.5214 20.7945C47.5214 22.2566 47.0248 23.3937 46.0315 24.206C45.2037 25.0183 43.8793 25.5057 42.3894 25.5057C41.065 25.5057 39.7406 25.0183 38.5817 24.206C37.5884 23.3937 37.0918 22.2566 37.0918 20.7945H38.4162C38.4162 21.7692 38.7473 22.5815 39.575 23.2313C40.2372 24.0436 41.2305 24.3685 42.3894 24.3685C43.5482 24.3685 44.5415 24.0436 45.2037 23.3937C45.8659 22.7439 46.197 21.9316 46.197 20.7945C46.197 19.6573 45.8659 18.845 45.0382 18.1952C44.376 17.7078 43.3827 17.3829 42.0583 17.3829H40.5683V16.2457H42.0583ZM55.7989 25.1807H54.4745V9.90999L50.5013 10.3974V9.26017L55.7989 8.61035V25.1807Z" fill="#2B2A29"/>
<path d="M78.1481 12.1842C78.1481 12.834 77.9826 13.3214 77.4859 13.6463C77.1548 14.1337 76.4926 14.2961 75.8304 14.2961C75.0027 14.2961 74.506 13.9712 74.0094 13.4838C73.5127 12.9965 73.3472 12.3466 73.3472 11.3719V10.3972C73.3472 9.42246 73.5127 8.77264 74.0094 8.28528C74.506 7.79791 75.0027 7.473 75.8304 7.473C76.4926 7.473 77.1548 7.63546 77.4859 8.12282C77.9826 8.44773 78.1481 8.9351 78.1481 9.58491H77.6515C77.6515 9.09755 77.4859 8.61019 77.1548 8.44773C76.8237 8.12282 76.3271 7.96037 75.8304 7.96037C75.1682 7.96037 74.6716 8.12282 74.3405 8.61019C74.0094 9.09755 73.8438 9.58491 73.8438 10.3972V11.3719C73.8438 12.1842 74.0094 12.6716 74.3405 13.1589C74.6716 13.6463 75.1682 13.8087 75.8304 13.8087C76.3271 13.8087 76.8237 13.6463 77.1548 13.3214C77.4859 13.1589 77.6515 12.6716 77.6515 12.1842H78.1481ZM82.618 14.1337C82.618 13.9712 82.618 13.8087 82.618 13.8087C82.618 13.6463 82.618 13.4838 82.618 13.3214C82.4524 13.6463 82.1213 13.8087 81.7902 13.9712C81.4591 14.1337 81.128 14.2961 80.7969 14.2961C80.3003 14.2961 79.9692 14.1337 79.6381 13.9712C79.307 13.6463 79.1414 13.3214 79.1414 12.834C79.1414 12.3466 79.4725 12.0217 79.8036 11.8593C80.1347 11.5344 80.6314 11.3719 81.2936 11.3719H82.618V10.7221C82.618 10.3972 82.4524 10.0723 82.2869 9.90982C81.9558 9.74737 81.6247 9.58491 81.2936 9.58491C80.9625 9.58491 80.6314 9.74737 80.3003 9.90982C80.1347 10.0723 79.9692 10.3972 79.9692 10.5596H79.4725C79.4725 10.2347 79.6381 9.90982 79.9692 9.58491C80.3003 9.26001 80.7969 9.09755 81.2936 9.09755C81.7902 9.09755 82.2869 9.26001 82.618 9.58491C82.9491 9.90982 83.1146 10.2347 83.1146 10.7221V13.1589C83.1146 13.3214 83.1146 13.4838 83.1146 13.6463C83.1146 13.8087 83.2802 13.9712 83.2802 14.1337H82.618ZM80.7969 13.8087C81.2936 13.8087 81.6247 13.6463 81.9558 13.4838C82.2869 13.3214 82.4524 12.9965 82.618 12.6716V11.8593H81.2936C80.9625 11.8593 80.4658 11.8593 80.1347 12.1842C79.9692 12.3466 79.8036 12.5091 79.8036 12.834C79.8036 13.1589 79.8036 13.3214 80.1347 13.4838C80.3003 13.6463 80.4658 13.8087 80.7969 13.8087ZM87.9155 9.26001H88.4122V14.1337H87.9155V10.2347L85.1012 14.1337H84.6046V9.26001H85.1012V13.3214H85.2668L87.9155 9.26001ZM87.75 7.31055C87.75 7.63546 87.75 7.96037 87.4189 8.12282C87.2533 8.44773 86.9222 8.44773 86.4256 8.44773C86.0945 8.44773 85.7634 8.44773 85.5979 8.12282C85.2668 7.96037 85.1012 7.63546 85.1012 7.31055H85.2668H85.5979C85.5979 7.473 85.7634 7.79791 85.7634 7.96037C85.929 7.96037 86.26 8.12282 86.4256 8.12282C86.7567 8.12282 86.9222 7.96037 87.0878 7.79791C87.2533 7.79791 87.4189 7.473 87.4189 7.31055H87.75ZM93.5442 9.74737H91.7232V14.1337H91.2265V9.74737H89.4055V9.26001H93.5442V9.74737ZM100.166 9.74737H97.5174V14.1337H97.0208V9.26001H100.166V9.74737ZM100.497 11.6968C100.497 10.8846 100.828 10.3972 101.16 9.90982C101.656 9.42246 102.153 9.09755 102.815 9.09755C103.477 9.09755 103.974 9.42246 104.471 9.90982C104.802 10.3972 104.967 10.8846 104.967 11.6968V11.8593C104.967 12.5091 104.802 13.1589 104.471 13.6463C103.974 14.1337 103.477 14.2961 102.815 14.2961C102.153 14.2961 101.656 14.1337 101.16 13.6463C100.828 13.1589 100.497 12.5091 100.497 11.8593V11.6968ZM101.16 11.8593C101.16 12.3466 101.325 12.834 101.491 13.3214C101.822 13.6463 102.318 13.8087 102.815 13.8087C103.312 13.8087 103.643 13.6463 103.974 13.3214C104.305 12.834 104.471 12.3466 104.471 11.8593V11.6968C104.471 11.047 104.305 10.5596 103.974 10.2347C103.643 9.90982 103.312 9.58491 102.815 9.58491C102.318 9.58491 101.822 9.90982 101.491 10.2347C101.325 10.5596 101.16 11.047 101.16 11.6968V11.8593ZM110.265 11.8593C110.265 12.6716 110.099 13.1589 109.768 13.6463C109.437 14.1337 108.94 14.2961 108.278 14.2961C107.947 14.2961 107.616 14.2961 107.45 14.1337C107.119 13.9712 106.954 13.8087 106.788 13.4838V16.0831H106.126V9.26001H106.623V10.0723C106.788 9.74737 107.119 9.58491 107.285 9.42246C107.616 9.26001 107.947 9.09755 108.278 9.09755C108.94 9.09755 109.437 9.42246 109.768 9.90982C110.099 10.3972 110.265 11.047 110.265 11.6968V11.8593ZM109.603 11.6968C109.603 11.2095 109.603 10.5596 109.271 10.2347C108.94 9.90982 108.609 9.58491 108.113 9.58491C107.782 9.58491 107.45 9.74737 107.285 9.90982C106.954 10.0723 106.788 10.2347 106.788 10.5596V12.9965C106.788 13.1589 107.119 13.4838 107.285 13.6463C107.45 13.8087 107.782 13.8087 108.113 13.8087C108.609 13.8087 108.94 13.6463 109.271 13.3214C109.603 12.9965 109.603 12.5091 109.603 11.8593V11.6968ZM111.093 11.6968C111.093 10.8846 111.424 10.3972 111.755 9.90982C112.086 9.42246 112.748 9.09755 113.41 9.09755C114.072 9.09755 114.569 9.42246 114.9 9.90982C115.397 10.3972 115.562 10.8846 115.562 11.6968V11.8593C115.562 12.5091 115.397 13.1589 114.9 13.6463C114.569 14.1337 114.072 14.2961 113.41 14.2961C112.748 14.2961 112.086 14.1337 111.755 13.6463C111.424 13.1589 111.093 12.5091 111.093 11.8593V11.6968ZM111.755 11.8593C111.755 12.3466 111.92 12.834 112.086 13.3214C112.417 13.6463 112.914 13.8087 113.41 13.8087C113.907 13.8087 114.238 13.6463 114.569 13.3214C114.9 12.834 115.066 12.3466 115.066 11.8593V11.6968C115.066 11.047 114.9 10.5596 114.569 10.2347C114.238 9.90982 113.907 9.58491 113.41 9.58491C112.914 9.58491 112.417 9.90982 112.086 10.2347C111.92 10.5596 111.755 11.047 111.755 11.6968V11.8593ZM116.721 13.8087C116.887 13.8087 117.218 13.4838 117.218 12.9965C117.383 12.5091 117.549 11.8593 117.549 11.047L117.715 9.26001H120.694V13.8087H121.191V15.7582H120.529V14.1337H116.887V15.7582H116.225V13.8087H116.721ZM118.211 11.047C118.046 11.6968 118.046 12.1842 117.88 12.6716C117.88 13.1589 117.715 13.4838 117.549 13.8087H120.198V9.74737H118.211V11.047ZM125.495 14.1337C125.495 13.9712 125.495 13.8087 125.33 13.8087C125.33 13.6463 125.33 13.4838 125.33 13.3214C125.164 13.6463 124.999 13.8087 124.668 13.9712C124.336 14.1337 124.005 14.2961 123.509 14.2961C123.012 14.2961 122.681 14.1337 122.35 13.9712C122.184 13.6463 122.019 13.3214 122.019 12.834C122.019 12.3466 122.184 12.0217 122.681 11.8593C123.012 11.5344 123.509 11.3719 124.171 11.3719H125.33V10.7221C125.33 10.3972 125.33 10.0723 124.999 9.90982C124.833 9.74737 124.502 9.58491 124.005 9.58491C123.674 9.58491 123.343 9.74737 123.178 9.90982C122.847 10.0723 122.847 10.3972 122.847 10.5596H122.35C122.184 10.2347 122.35 9.90982 122.681 9.58491C123.178 9.26001 123.509 9.09755 124.171 9.09755C124.668 9.09755 125.164 9.26001 125.495 9.58491C125.826 9.90982 125.992 10.2347 125.992 10.7221V13.1589C125.992 13.3214 125.992 13.4838 125.992 13.6463C125.992 13.8087 125.992 13.9712 125.992 14.1337H125.495ZM123.674 13.8087C124.005 13.8087 124.502 13.6463 124.668 13.4838C124.999 13.3214 125.33 12.9965 125.33 12.6716V11.8593H124.171C123.674 11.8593 123.343 11.8593 123.012 12.1842C122.681 12.3466 122.515 12.5091 122.515 12.834C122.515 13.1589 122.681 13.3214 122.847 13.4838C123.012 13.6463 123.343 13.8087 123.674 13.8087ZM77.6515 19.1698H74.0094V21.6066H75.8304C76.4926 21.6066 76.9893 21.769 77.3204 22.0939C77.817 22.4188 77.9826 22.9062 77.9826 23.3936C77.9826 24.0434 77.817 24.5308 77.3204 24.8557C76.9893 25.1806 76.4926 25.343 75.8304 25.343H73.5127V18.6824H77.6515V19.1698ZM74.0094 21.9315V24.8557H75.8304C76.3271 24.8557 76.6582 24.6932 76.9893 24.5308C77.3204 24.2059 77.4859 23.8809 77.4859 23.3936C77.4859 23.0687 77.3204 22.7438 76.9893 22.4188C76.6582 22.0939 76.3271 21.9315 75.8304 21.9315H74.0094ZM81.2936 25.5055C80.6314 25.5055 80.1347 25.1806 79.6381 24.8557C79.307 24.3683 79.1414 23.7185 79.1414 23.0687V22.7438C79.1414 22.0939 79.307 21.4441 79.6381 21.1192C80.1347 20.6318 80.6314 20.3069 81.2936 20.3069C81.7902 20.3069 82.2869 20.6318 82.618 20.9568C82.9491 21.2817 83.1146 21.769 83.1146 22.4188V22.9062H79.6381V23.0687C79.6381 23.556 79.8036 24.0434 80.1347 24.5308C80.3003 24.8557 80.7969 25.0181 81.2936 25.0181C81.6247 25.0181 81.7902 25.0181 82.1213 24.8557C82.4524 24.6932 82.618 24.6932 82.7835 24.5308L82.9491 24.8557C82.7835 25.0181 82.618 25.1806 82.2869 25.343C81.9558 25.343 81.6247 25.5055 81.2936 25.5055ZM81.2936 20.7943C80.7969 20.7943 80.4658 20.9568 80.1347 21.2817C79.9692 21.6066 79.8036 21.9315 79.6381 22.4188H82.618V22.2564C82.618 21.9315 82.4524 21.6066 82.2869 21.2817C81.9558 20.9568 81.6247 20.7943 81.2936 20.7943ZM88.0811 20.4694V25.343H87.5844V20.9568H85.4323V22.5813C85.4323 23.556 85.2668 24.3683 85.1012 24.6932C84.7701 25.1806 84.439 25.343 83.9424 25.343H83.6113V24.8557H83.9424C84.2735 24.8557 84.439 24.6932 84.6046 24.3683C84.7701 24.0434 84.7701 23.3936 84.7701 22.5813V20.4694H88.0811ZM92.5509 20.9568H90.0677V25.343H89.4055V20.4694H92.5509V20.9568ZM93.0476 22.9062C93.0476 22.0939 93.2131 21.4441 93.7098 21.1192C94.0409 20.6318 94.5375 20.3069 95.1997 20.3069C95.8619 20.3069 96.5241 20.6318 96.8552 21.1192C97.3519 21.4441 97.5174 22.0939 97.5174 22.9062V23.0687C97.5174 23.7185 97.3519 24.3683 96.8552 24.8557C96.5241 25.1806 96.0275 25.5055 95.1997 25.5055C94.5375 25.5055 94.0409 25.1806 93.7098 24.8557C93.2131 24.3683 93.0476 23.7185 93.0476 23.0687V22.9062ZM93.5442 23.0687C93.5442 23.556 93.7098 24.0434 94.0409 24.3683C94.372 24.8557 94.7031 25.0181 95.1997 25.0181C95.8619 25.0181 96.193 24.8557 96.5241 24.3683C96.8552 24.0434 96.8552 23.556 96.8552 23.0687V22.9062C96.8552 22.2564 96.8552 21.769 96.5241 21.4441C96.193 20.9568 95.8619 20.7943 95.1997 20.7943C94.7031 20.7943 94.372 20.9568 94.0409 21.4441C93.7098 21.769 93.5442 22.2564 93.5442 22.9062V23.0687ZM102.649 23.0687C102.649 23.7185 102.484 24.3683 102.153 24.8557C101.822 25.1806 101.325 25.5055 100.828 25.5055C100.497 25.5055 100.166 25.343 99.8351 25.343C99.504 25.1806 99.3385 25.0181 99.1729 24.6932V27.2925H98.6763V20.4694H99.0074L99.1729 21.2817C99.3385 20.9568 99.504 20.7943 99.8351 20.6318C100.166 20.4694 100.332 20.3069 100.828 20.3069C101.325 20.3069 101.822 20.6318 102.153 21.1192C102.484 21.6066 102.649 22.0939 102.649 22.9062V23.0687ZM102.153 22.9062C102.153 22.2564 101.987 21.769 101.822 21.4441C101.491 20.9568 101.16 20.7943 100.663 20.7943C100.332 20.7943 100.001 20.9568 99.6696 21.1192C99.504 21.2817 99.3385 21.4441 99.1729 21.769V24.2059C99.3385 24.3683 99.504 24.6932 99.8351 24.8557C100.001 24.8557 100.332 25.0181 100.663 25.0181C101.16 25.0181 101.491 24.8557 101.822 24.5308C101.987 24.0434 102.153 23.7185 102.153 23.0687V22.9062ZM103.643 22.9062C103.643 22.0939 103.808 21.4441 104.305 21.1192C104.636 20.6318 105.133 20.3069 105.795 20.3069C106.457 20.3069 107.119 20.6318 107.45 21.1192C107.782 21.4441 108.113 22.0939 108.113 22.9062V23.0687C108.113 23.7185 107.782 24.3683 107.45 24.8557C107.119 25.1806 106.457 25.5055 105.795 25.5055C105.133 25.5055 104.636 25.1806 104.305 24.8557C103.808 24.3683 103.643 23.7185 103.643 23.0687V22.9062ZM104.139 23.0687C104.139 23.556 104.305 24.0434 104.636 24.3683C104.967 24.8557 105.298 25.0181 105.795 25.0181C106.292 25.0181 106.788 24.8557 107.119 24.3683C107.285 24.0434 107.45 23.556 107.45 23.0687V22.9062C107.45 22.2564 107.285 21.769 107.119 21.4441C106.788 20.9568 106.292 20.7943 105.795 20.7943C105.298 20.7943 104.967 20.9568 104.636 21.4441C104.305 21.769 104.139 22.2564 104.139 22.9062V23.0687ZM109.271 24.8557C109.437 24.8557 109.603 24.6932 109.768 24.2059C109.934 23.7185 109.934 23.0687 110.099 22.2564V20.4694H113.245V24.8557H113.576V26.9676H113.079V25.343H109.271V26.9676H108.775V24.8557H109.271ZM110.596 22.2564C110.596 22.9062 110.43 23.3936 110.43 23.8809C110.265 24.3683 110.265 24.6932 110.099 24.8557H112.582V20.9568H110.761L110.596 22.2564ZM117.88 25.343C117.88 25.1806 117.88 25.0181 117.88 24.8557C117.88 24.8557 117.88 24.6932 117.88 24.5308C117.715 24.8557 117.383 25.0181 117.052 25.1806C116.887 25.343 116.39 25.5055 116.059 25.5055C115.562 25.5055 115.231 25.343 114.9 25.0181C114.569 24.8557 114.569 24.5308 114.569 24.0434C114.569 23.556 114.735 23.2311 115.066 22.9062C115.562 22.7438 116.059 22.5813 116.556 22.5813H117.88V21.9315C117.88 21.6066 117.715 21.2817 117.549 21.1192C117.218 20.9568 116.887 20.7943 116.556 20.7943C116.225 20.7943 115.893 20.9568 115.562 21.1192C115.397 21.2817 115.231 21.4441 115.231 21.769H114.735C114.735 21.4441 114.9 21.1192 115.231 20.7943C115.562 20.4694 116.059 20.3069 116.556 20.3069C117.052 20.3069 117.549 20.4694 117.88 20.7943C118.211 21.1192 118.377 21.4441 118.377 21.9315V24.3683C118.377 24.5308 118.377 24.6932 118.377 24.8557C118.377 25.0181 118.542 25.1806 118.542 25.343H117.88ZM116.059 25.0181C116.556 25.0181 116.887 24.8557 117.218 24.6932C117.549 24.5308 117.715 24.2059 117.88 23.8809V22.9062H116.556C116.225 22.9062 115.728 23.0687 115.562 23.2311C115.231 23.556 115.066 23.7185 115.066 24.0434C115.066 24.3683 115.231 24.5308 115.397 24.6932C115.562 24.8557 115.728 25.0181 116.059 25.0181Z" fill="#323232"/>
</svg>
