<svg width="48" height="48" viewBox="0 0 48 48" fill="none" xmlns="http://www.w3.org/2000/svg">
<g clip-path="url(#clip0)">
<path d="M23.9999 0C20.9071 0 18.3999 2.5072 18.3999 5.6C18.4034 8.6913 20.9086 11.1965 23.9999 11.2C27.0927 11.2 29.5999 8.6928 29.5999 5.6C29.5999 2.5072 27.0927 0 23.9999 0ZM23.9999 9.6C21.7908 9.6 19.9999 7.8091 19.9999 5.6C20.0025 3.392 21.7919 1.6026 23.9999 1.6C26.209 1.6 27.9999 3.3909 27.9999 5.6C27.9999 7.8091 26.209 9.6 23.9999 9.6Z" fill="#CE1525"/>
<path d="M26.4001 12H21.6001C17.6255 12.0044 14.4045 15.2254 14.4001 19.2V32.8H17.6001V48H19.2001V29.6H17.6001V31.2H16.0001V19.2C16.0036 16.1087 18.5088 13.6035 21.6001 13.6H26.4001C29.4914 13.6035 31.9966 16.1087 32.0001 19.2V31.2H30.4001V29.6H28.8001V48H30.4001V32.8H33.6001V19.2C33.5957 15.2254 30.3747 12.0044 26.4001 12Z" fill="#CE1525"/>
<path d="M24.8 32.8H23.2V48H24.8V32.8Z" fill="#CE1525"/>
<path d="M39.9999 8C37.3489 8 35.2 10.149 35.2 12.8C35.2026 15.4499 37.35 17.5974 39.9999 17.6C42.6509 17.6 44.7999 15.451 44.7999 12.8C44.7999 10.149 42.6509 8 39.9999 8ZM39.9999 16C38.2326 16 36.8 14.5673 36.8 12.8C36.8 11.0327 38.2326 9.6 39.9999 9.6C41.7672 9.6 43.1999 11.0327 43.1999 12.8C43.1999 14.5673 41.7672 16 39.9999 16Z" fill="#CE1525"/>
<path d="M42.4 18.4H35.2V20H42.4C44.608 20.0026 46.3974 21.792 46.4 24V34.4H44.8V32.8H43.2V48H44.8V36H48V24C47.9965 20.9087 45.4913 18.4035 42.4 18.4Z" fill="#CE1525"/>
<path d="M35.2 32.8V34.4H32V36H35.2V48H36.8V32.8H35.2Z" fill="#CE1525"/>
<path d="M40.8 36H39.2V48H40.8V36Z" fill="#CE1525"/>
<path d="M7.99995 8C5.34895 8 3.19995 10.149 3.19995 12.8C3.20255 15.4499 5.35005 17.5974 7.99995 17.6C10.651 17.6 12.8 15.451 12.8 12.8C12.8 10.149 10.651 8 7.99995 8ZM7.99995 16C6.23265 16 4.79995 14.5673 4.79995 12.8C4.79995 11.0327 6.23265 9.6 7.99995 9.6C9.76725 9.6 11.2 11.0327 11.2 12.8C11.2 14.5673 9.76725 16 7.99995 16Z" fill="#CE1525"/>
<path d="M5.6 18.4C2.5087 18.4035 0.0035 20.9087 0 24V36H3.2V48H4.8V32.8H3.2V34.4H1.6V24C1.6026 21.792 3.392 20.0026 5.6 20H12.8V18.4H5.6Z" fill="#CE1525"/>
<path d="M12.8 34.4V32.8H11.2V48H12.8V36H15.9999V34.4H12.8Z" fill="#CE1525"/>
<path d="M8.79995 36H7.19995V48H8.79995V36Z" fill="#CE1525"/>
</g>
<defs>
<clipPath id="clip0">
<rect width="48" height="48" fill="white"/>
</clipPath>
</defs>
</svg>
