<svg width="43" height="43" viewBox="0 0 43 43" fill="none" xmlns="http://www.w3.org/2000/svg">
<g clip-path="url(#clip0)">
<path d="M4.19922 24.137C3.73567 24.137 3.35938 24.5102 3.35938 24.9699C3.35938 25.4296 3.73567 25.8028 4.19922 25.8028C4.66278 25.8028 5.03907 25.4296 5.03907 24.9699C5.03907 24.5102 4.66278 24.137 4.19922 24.137Z" fill="#CE1625"/>
<path d="M38.6007 27.0253L30.6832 29.7248C30.7183 29.5316 30.738 29.3344 30.738 29.1343C30.738 27.2973 29.2312 25.8026 27.3786 25.8026H21.94C21.7956 25.8026 21.6532 25.7659 21.5276 25.6956L17.0905 23.2206C16.2133 22.7303 15.2163 22.4709 14.2075 22.4709H8.25378C7.90734 21.5017 6.97367 20.8054 5.87892 20.8054H0.839845C0.375962 20.8054 0 21.1783 0 21.6383V36.6306C0 37.0907 0.375962 37.4635 0.839845 37.4635H5.87892C6.94874 37.4635 7.866 36.7969 8.23016 35.8605C9.18089 35.9776 10.2809 36.2564 10.9721 36.6677L15.3642 39.2813C17.0282 40.2717 18.9333 40.7952 20.8741 40.7952C22.4121 40.7952 23.9021 40.4751 25.3033 39.8439L40.9785 32.9986C42.7147 32.3001 43.5719 30.2344 42.5795 28.4136C41.8496 27.0738 40.14 26.4777 38.6007 27.0253ZM6.71876 34.9687C6.71679 35.4261 6.3405 35.7977 5.87892 35.7977H1.67969V22.4713H5.87892C6.34182 22.4713 6.71876 22.8448 6.71876 23.3042V34.9687ZM40.3405 31.458C40.3316 31.4613 40.3227 31.4652 40.3139 31.4688C40.3139 31.4688 24.6153 38.3241 24.6124 38.3254C23.4297 38.859 22.1719 39.1294 20.8741 39.1294C19.2377 39.1294 17.6315 38.6882 16.2287 37.853L11.8362 35.2394C10.896 34.6801 9.54963 34.3391 8.39845 34.2024V24.1371H14.2075C14.9279 24.1371 15.6398 24.3219 16.2668 24.6723L20.7038 27.1473C21.0798 27.3575 21.5076 27.4688 21.94 27.4688H27.3786C28.3048 27.4688 29.0583 28.2158 29.0583 29.1346C29.0583 30.0499 28.3044 30.8005 27.3786 30.8005H18.8411C18.3772 30.8005 18.0012 31.1733 18.0012 31.6334C18.0012 32.0931 18.3772 32.466 18.8411 32.466H27.3786C27.9294 32.466 28.4717 32.3303 28.953 32.0759C28.953 32.0759 39.1607 28.5958 39.1647 28.5945C39.9173 28.3251 40.7683 28.5932 41.1019 29.2056C41.6022 30.1234 41.1885 31.1213 40.3405 31.458Z" fill="#CE1625"/>
<path d="M24.4601 22.5093C24.6182 22.645 24.814 22.7127 25.0102 22.7127C25.2064 22.7127 25.4026 22.645 25.5604 22.5093C32.4127 16.6196 36.6513 13.639 36.6513 9.00719C36.6513 5.34298 34.0356 2.3064 30.3609 2.3064C27.9477 2.3064 26.0997 3.68592 24.9095 5.75619C23.7219 3.69048 21.8759 2.3064 19.459 2.3064C16.6459 2.3064 14.294 4.11442 13.4673 6.91219C13.3367 7.35371 13.5919 7.81637 14.0371 7.94586C14.4823 8.07535 14.9488 7.82222 15.079 7.38071C15.6909 5.31012 17.4099 3.97224 19.459 3.97224C21.8549 3.97224 23.5356 6.0822 24.1002 8.04672C24.2009 8.40755 24.5322 8.65742 24.9095 8.65742C25.2871 8.65742 25.6181 8.40755 25.7188 8.04672C25.7303 8.00605 26.8969 3.97224 30.3609 3.97224C32.9894 3.97224 34.9716 6.13653 34.9716 9.00719C34.9716 12.7124 31.3196 15.3836 25.0096 20.7794C21.165 17.5049 18.111 15.2001 16.3752 12.9453C16.0937 12.5796 15.5669 12.5094 15.1981 12.7885C14.8294 13.0677 14.7589 13.5902 15.04 13.9562C16.9966 16.4976 20.2995 18.9326 24.4601 22.5093Z" fill="#CE1625"/>
<path d="M14.1934 9.64429C13.7298 9.64429 13.3535 10.0175 13.3535 10.4772C13.3535 10.9369 13.7298 11.3101 14.1934 11.3101C14.6569 11.3101 15.0332 10.9369 15.0332 10.4772C15.0332 10.0175 14.6569 9.64429 14.1934 9.64429Z" fill="#CE1625"/>
</g>
<defs>
<clipPath id="clip0">
<rect width="43" height="42.6455" fill="white" transform="translate(0 0.224121)"/>
</clipPath>
</defs>
</svg>
