<svg width="414" height="43" viewBox="0 0 414 43" fill="none" xmlns="http://www.w3.org/2000/svg">
<g clip-path="url(#clip0)">
<path d="M4.16731 28.7323H5.55289H29.177C29.7478 28.7323 30.2508 28.368 30.4138 27.8365L35.5036 11.2346C35.6199 10.8553 35.5449 10.4449 35.3014 10.1276C35.0578 9.81021 34.6743 9.62328 34.2669 9.62328H1.42515L-0.311359 3.95897C-0.474274 3.42758 -0.977311 3.06329 -1.54815 3.06329H-6.70953C-7.42218 3.06321 -8 3.62443 -8 4.31681C-8 5.00911 -7.42218 5.57041 -6.70953 5.57041H-2.51024L-0.781983 11.2075C-0.776709 11.2261 -0.771179 11.2446 -0.765054 11.2627L3.82599 26.2377C1.20541 26.4089 -0.873181 28.5333 -0.873181 31.1217C-0.873181 33.8216 1.38797 36.0182 4.16722 36.0182H5.44834C6.0082 37.8828 7.78248 39.2496 9.88038 39.2496C11.9782 39.2496 13.7526 37.8829 14.3124 36.0182H21.1593C21.7191 37.8828 23.4934 39.2496 25.5913 39.2496C27.6891 39.2496 29.4635 37.8829 30.0234 36.0182H31.686C32.3986 36.0182 32.9764 35.4569 32.9764 34.7646C32.9764 34.0723 32.3986 33.511 31.686 33.511H30.0234C29.4635 31.6462 27.6892 30.2795 25.5913 30.2795C23.4934 30.2795 21.7191 31.6462 21.1593 33.511H14.3124C13.7526 31.6462 11.9783 30.2795 9.88038 30.2795C7.78248 30.2795 6.00812 31.6462 5.44834 33.511H4.16722C2.81099 33.511 1.70768 32.4391 1.70768 31.1216C1.70768 29.8041 2.81107 28.7323 4.16731 28.7323ZM23.0981 12.1303H32.5362L30.7598 17.9241H23.0981V12.1303ZM23.098 20.4313H29.9911L28.2149 26.2251H23.098V20.4313ZM13.5493 12.1303H20.5172V17.9241H13.5493V12.1303ZM13.5492 20.4313H20.5171V26.2251H13.5492V20.4313ZM10.9686 26.2251H6.51507L4.73883 20.4313H10.9686V26.2251ZM2.19395 12.1303H10.9685V17.9241H3.97019L2.19395 12.1303ZM25.5914 32.7866C26.7141 32.7866 27.6275 33.6739 27.6275 34.7645C27.6275 35.8551 26.7141 36.7424 25.5914 36.7424C24.4687 36.7424 23.5554 35.8551 23.5554 34.7645C23.5554 33.6739 24.4687 32.7866 25.5914 32.7866ZM9.88047 32.7866C11.0032 32.7866 11.9165 33.6739 11.9165 34.7645C11.9165 35.8551 11.0032 36.7424 9.88047 36.7424C8.75776 36.7424 7.84442 35.8551 7.84442 34.7645C7.84442 33.6739 8.75776 32.7866 9.88047 32.7866Z" fill="#31304F"/>
</g>
<g clip-path="url(#clip1)">
<path d="M82.8131 23.2036C82.6604 22.8912 82.6604 22.5328 82.8131 22.2204L84.2288 19.3243C85.017 17.7118 84.3925 15.7899 82.8071 14.9487L79.9596 13.4378C79.6523 13.2749 79.4417 12.9849 79.3816 12.6424L78.8247 9.46733C78.5146 7.69952 76.8793 6.51159 75.1026 6.76298L71.9109 7.21446C71.5664 7.26309 71.2257 7.15234 70.9758 6.91058L68.659 4.66935C67.369 3.42137 65.3481 3.4213 64.0582 4.66935L61.7413 6.91081C61.4913 7.15263 61.1507 7.26317 60.8063 7.21468L57.6145 6.7632C55.8372 6.51167 54.2025 7.69974 53.8924 9.46755L53.3355 12.6425C53.2754 12.985 53.0648 13.275 52.7576 13.438L49.9101 14.9488C48.3247 15.79 47.7002 17.712 48.4884 19.3245L49.904 22.2205C50.0567 22.533 50.0567 22.8914 49.904 23.2038L48.4883 26.0998C47.7001 27.7123 48.3246 29.6342 49.9101 30.4754L52.7576 31.9863C53.0648 32.1492 53.2754 32.4392 53.3355 32.7817L53.8924 35.9568C54.1747 37.5661 55.5546 38.6947 57.1406 38.6945C57.2968 38.6945 57.4553 38.6836 57.6146 38.661L60.8063 38.2096C61.1505 38.1607 61.4914 38.2717 61.7414 38.5134L64.0582 40.7547C64.7033 41.3787 65.5308 41.6907 66.3586 41.6906C67.1861 41.6905 68.0141 41.3786 68.6589 40.7547L70.9758 38.5134C71.2258 38.2717 71.5665 38.1612 71.9109 38.2096L75.1026 38.661C76.8802 38.9125 78.5146 37.7245 78.8247 35.9567L79.3817 32.7817C79.4418 32.4392 79.6524 32.1493 79.9596 31.9863L82.8071 30.4754C84.3925 29.6343 85.017 27.7122 84.2288 26.0997L82.8131 23.2036ZM81.781 28.5415L78.9335 30.0523C78.0256 30.5341 77.403 31.391 77.2254 32.4033L76.6685 35.5784C76.5636 36.1765 76.0106 36.5782 75.4092 36.4933L72.2175 36.0419C71.1996 35.8977 70.1924 36.2253 69.4537 36.9399L67.1368 39.181C66.7005 39.6031 66.0167 39.6031 65.5802 39.181L63.2634 36.9398C62.6391 36.3358 61.8229 36.0085 60.9708 36.0085C60.8146 36.0085 60.6572 36.0195 60.4996 36.0418L57.3079 36.4933C56.707 36.5782 56.1536 36.1764 56.0486 35.5783L55.4916 32.4032C55.314 31.3908 54.6914 30.5339 53.7835 30.0522L50.936 28.5414C50.3996 28.2568 50.1883 27.6066 50.4549 27.061L51.8706 24.1649C52.3219 23.2415 52.3219 22.1824 51.8706 21.259L50.4549 18.3629C50.1883 17.8174 50.3996 17.1672 50.936 16.8826L53.7835 15.3717C54.6914 14.8899 55.314 14.0331 55.4916 13.0207L56.0485 9.84564C56.1534 9.24752 56.7063 8.84572 57.3078 8.93067L60.4995 9.38215C61.517 9.5262 62.5245 9.19874 63.2633 8.48416L65.5801 6.24293C66.0165 5.82081 66.7002 5.82081 67.1367 6.24293L69.4535 8.48416C70.1923 9.19882 71.1997 9.5262 72.2173 9.38215L75.409 8.93067C76.01 8.84564 76.5635 9.24752 76.6684 9.84564L77.2253 13.0207C77.4029 14.0331 78.0255 14.89 78.9334 15.3717L81.7809 16.8826C82.3173 17.1672 82.5286 17.8174 82.2619 18.3629L80.8463 21.2589C80.3949 22.1823 80.3949 23.2415 80.8463 24.1649L82.2619 27.0608C82.5287 27.6066 82.3174 28.2569 81.781 28.5415Z" fill="#31304F"/>
<path d="M74.3561 14.7139C73.9287 14.2864 73.2356 14.2864 72.8081 14.7139L58.3601 29.162C57.9327 29.5894 57.9327 30.2825 58.3601 30.71C58.5739 30.9237 58.854 31.0306 59.1341 31.0306C59.4142 31.0306 59.6944 30.9238 59.9081 30.71L74.3561 16.262C74.7837 15.8344 74.7837 15.1414 74.3561 14.7139Z" fill="#31304F"/>
<path d="M61.9799 12.8606C59.7668 12.8606 57.9663 14.6611 57.9663 16.8742C57.9663 19.0872 59.7668 20.8877 61.9799 20.8877C64.1929 20.8877 65.9934 19.0872 65.9934 16.8742C65.9934 14.6611 64.1929 12.8606 61.9799 12.8606ZM61.9799 18.6985C60.9739 18.6985 60.1556 17.8801 60.1556 16.8741C60.1556 15.8682 60.9739 15.0498 61.9799 15.0498C62.9858 15.0498 63.8042 15.8682 63.8042 16.8741C63.8042 17.8801 62.9858 18.6985 61.9799 18.6985Z" fill="#31304F"/>
<path d="M70.7367 24.5363C68.5236 24.5363 66.7231 26.3368 66.7231 28.5499C66.7231 30.7629 68.5236 32.5635 70.7367 32.5635C72.9498 32.5635 74.7503 30.7629 74.7503 28.5499C74.7503 26.3368 72.9498 24.5363 70.7367 24.5363ZM70.7367 30.3742C69.7308 30.3742 68.9123 29.5558 68.9123 28.5499C68.9123 27.544 69.7307 26.7256 70.7367 26.7256C71.7426 26.7256 72.561 27.544 72.561 28.5499C72.561 29.5558 71.7426 30.3742 70.7367 30.3742Z" fill="#31304F"/>
</g>
<g clip-path="url(#clip2)">
<path d="M126.667 9.90026C123.959 5.98146 119.668 3.73346 114.894 3.73346C110.121 3.73346 105.829 5.98146 103.122 9.90026C100.427 13.7993 99.8051 18.7355 101.454 23.0966C101.895 24.2876 102.596 25.4446 103.533 26.5289L113.95 38.765C114.186 39.0419 114.531 39.2015 114.894 39.2015C115.258 39.2015 115.603 39.042 115.838 38.765L126.253 26.5322C127.194 25.4417 127.894 24.2859 128.331 23.1045C129.984 18.7355 129.361 13.7993 126.667 9.90026ZM126.009 22.2359C125.672 23.1474 125.121 24.0486 124.373 24.9154C124.371 24.9175 124.369 24.9196 124.367 24.9221L114.894 36.0487L105.415 24.9151C104.668 24.049 104.117 23.1479 103.777 22.2277C102.413 18.621 102.931 14.5397 105.162 11.3107C107.4 8.07151 110.947 6.21373 114.894 6.21373C118.841 6.21373 122.388 8.07144 124.627 11.3107C126.858 14.5397 127.376 18.621 126.009 22.2359Z" fill="#31304F"/>
<path d="M114.894 11.0916C111.065 11.0916 107.949 14.2068 107.949 18.0364C107.949 21.866 111.064 24.9812 114.894 24.9812C118.724 24.9812 121.839 21.866 121.839 18.0364C121.839 14.2073 118.723 11.0916 114.894 11.0916ZM114.894 22.5009C112.432 22.5009 110.429 20.4981 110.429 18.0364C110.429 15.5747 112.432 13.5718 114.894 13.5718C117.356 13.5718 119.359 15.5747 119.359 18.0364C119.359 20.4981 117.356 22.5009 114.894 22.5009Z" fill="#31304F"/>
</g>
<g clip-path="url(#clip3)">
<path d="M152.884 28.7323H154.27H177.894C178.465 28.7323 178.968 28.368 179.131 27.8365L184.22 11.2346C184.337 10.8553 184.262 10.4449 184.018 10.1276C183.775 9.81021 183.391 9.62328 182.984 9.62328H150.142L148.405 3.95897C148.243 3.42758 147.739 3.06329 147.169 3.06329H142.007C141.295 3.06321 140.717 3.62443 140.717 4.31681C140.717 5.00911 141.295 5.57041 142.007 5.57041H146.207L147.935 11.2075C147.94 11.2261 147.946 11.2446 147.952 11.2627L152.543 26.2377C149.922 26.4089 147.844 28.5333 147.844 31.1217C147.844 33.8216 150.105 36.0182 152.884 36.0182H154.165C154.725 37.8828 156.499 39.2496 158.597 39.2496C160.695 39.2496 162.469 37.8829 163.029 36.0182H169.876C170.436 37.8828 172.21 39.2496 174.308 39.2496C176.406 39.2496 178.18 37.8829 178.74 36.0182H180.403C181.115 36.0182 181.693 35.4569 181.693 34.7646C181.693 34.0723 181.115 33.511 180.403 33.511H178.74C178.18 31.6462 176.406 30.2795 174.308 30.2795C172.21 30.2795 170.436 31.6462 169.876 33.511H163.029C162.469 31.6462 160.695 30.2795 158.597 30.2795C156.499 30.2795 154.725 31.6462 154.165 33.511H152.884C151.528 33.511 150.424 32.4391 150.424 31.1216C150.424 29.8041 151.528 28.7323 152.884 28.7323ZM171.815 12.1303H181.253L179.477 17.9241H171.815V12.1303ZM171.815 20.4313H178.708L176.932 26.2251H171.815V20.4313ZM162.266 12.1303H169.234V17.9241H162.266V12.1303ZM162.266 20.4313H169.234V26.2251H162.266V20.4313ZM159.685 26.2251H155.232L153.456 20.4313H159.685V26.2251ZM150.911 12.1303H159.685V17.9241H152.687L150.911 12.1303ZM174.308 32.7866C175.431 32.7866 176.344 33.6739 176.344 34.7645C176.344 35.8551 175.431 36.7424 174.308 36.7424C173.185 36.7424 172.272 35.8551 172.272 34.7645C172.272 33.6739 173.185 32.7866 174.308 32.7866ZM158.597 32.7866C159.72 32.7866 160.633 33.6739 160.633 34.7645C160.633 35.8551 159.72 36.7424 158.597 36.7424C157.475 36.7424 156.561 35.8551 156.561 34.7645C156.561 33.6739 157.475 32.7866 158.597 32.7866Z" fill="#31304F"/>
</g>
<g clip-path="url(#clip4)">
<path d="M231.53 23.2036C231.377 22.8912 231.377 22.5328 231.53 22.2204L232.946 19.3243C233.734 17.7118 233.109 15.7899 231.524 14.9487L228.676 13.4378C228.369 13.2749 228.159 12.9849 228.098 12.6424L227.542 9.46733C227.231 7.69952 225.596 6.51159 223.819 6.76298L220.628 7.21446C220.283 7.26309 219.942 7.15234 219.693 6.91058L217.376 4.66935C216.086 3.42137 214.065 3.4213 212.775 4.66935L210.458 6.91081C210.208 7.15263 209.867 7.26317 209.523 7.21468L206.331 6.7632C204.554 6.51167 202.919 7.69974 202.609 9.46755L202.052 12.6425C201.992 12.985 201.782 13.275 201.474 13.438L198.627 14.9488C197.041 15.79 196.417 17.712 197.205 19.3245L198.621 22.2205C198.773 22.533 198.773 22.8914 198.621 23.2038L197.205 26.0998C196.417 27.7123 197.041 29.6342 198.627 30.4754L201.474 31.9863C201.782 32.1492 201.992 32.4392 202.052 32.7817L202.609 35.9568C202.892 37.5661 204.271 38.6947 205.857 38.6945C206.014 38.6945 206.172 38.6836 206.331 38.661L209.523 38.2096C209.867 38.1607 210.208 38.2717 210.458 38.5134L212.775 40.7547C213.42 41.3787 214.248 41.6907 215.075 41.6906C215.903 41.6905 216.731 41.3786 217.376 40.7547L219.693 38.5134C219.943 38.2717 220.283 38.1612 220.628 38.2096L223.819 38.661C225.597 38.9125 227.231 37.7245 227.542 35.9567L228.098 32.7817C228.159 32.4392 228.369 32.1493 228.676 31.9863L231.524 30.4754C233.109 29.6343 233.734 27.7122 232.946 26.0997L231.53 23.2036ZM230.498 28.5415L227.65 30.0523C226.742 30.5341 226.12 31.391 225.942 32.4033L225.385 35.5784C225.28 36.1765 224.727 36.5782 224.126 36.4933L220.934 36.0419C219.916 35.8977 218.909 36.2253 218.17 36.9399L215.854 39.181C215.417 39.6031 214.734 39.6031 214.297 39.181L211.98 36.9398C211.356 36.3358 210.54 36.0085 209.688 36.0085C209.531 36.0085 209.374 36.0195 209.216 36.0418L206.025 36.4933C205.424 36.5782 204.87 36.1764 204.765 35.5783L204.208 32.4032C204.031 31.3908 203.408 30.5339 202.5 30.0522L199.653 28.5414C199.116 28.2568 198.905 27.6066 199.172 27.061L200.587 24.1649C201.039 23.2415 201.039 22.1824 200.587 21.259L199.172 18.3629C198.905 17.8174 199.116 17.1672 199.653 16.8826L202.5 15.3717C203.408 14.8899 204.031 14.0331 204.208 13.0207L204.765 9.84564C204.87 9.24752 205.423 8.84572 206.025 8.93067L209.216 9.38215C210.234 9.5262 211.241 9.19874 211.98 8.48416L214.297 6.24293C214.733 5.82081 215.417 5.82081 215.854 6.24293L218.17 8.48416C218.909 9.19882 219.916 9.5262 220.934 9.38215L224.126 8.93067C224.727 8.84564 225.28 9.24752 225.385 9.84564L225.942 13.0207C226.12 14.0331 226.742 14.89 227.65 15.3717L230.498 16.8826C231.034 17.1672 231.245 17.8174 230.979 18.3629L229.563 21.2589C229.112 22.1823 229.112 23.2415 229.563 24.1649L230.979 27.0608C231.245 27.6066 231.034 28.2569 230.498 28.5415Z" fill="#31304F"/>
<path d="M223.073 14.7139C222.646 14.2864 221.952 14.2864 221.525 14.7139L207.077 29.162C206.649 29.5894 206.649 30.2825 207.077 30.71C207.291 30.9237 207.571 31.0306 207.851 31.0306C208.131 31.0306 208.411 30.9238 208.625 30.71L223.073 16.262C223.5 15.8344 223.5 15.1414 223.073 14.7139Z" fill="#31304F"/>
<path d="M210.697 12.8606C208.484 12.8606 206.683 14.6611 206.683 16.8742C206.683 19.0872 208.484 20.8877 210.697 20.8877C212.91 20.8877 214.71 19.0872 214.71 16.8742C214.71 14.6611 212.91 12.8606 210.697 12.8606ZM210.697 18.6985C209.691 18.6985 208.872 17.8801 208.872 16.8741C208.872 15.8682 209.691 15.0498 210.697 15.0498C211.703 15.0498 212.521 15.8682 212.521 16.8741C212.521 17.8801 211.703 18.6985 210.697 18.6985Z" fill="#31304F"/>
<path d="M219.454 24.5363C217.24 24.5363 215.44 26.3368 215.44 28.5499C215.44 30.7629 217.24 32.5635 219.454 32.5635C221.667 32.5635 223.467 30.7629 223.467 28.5499C223.467 26.3368 221.667 24.5363 219.454 24.5363ZM219.454 30.3742C218.448 30.3742 217.629 29.5558 217.629 28.5499C217.629 27.544 218.447 26.7256 219.454 26.7256C220.459 26.7256 221.278 27.544 221.278 28.5499C221.278 29.5558 220.459 30.3742 219.454 30.3742Z" fill="#31304F"/>
</g>
<g clip-path="url(#clip5)">
<path d="M275.384 9.90026C272.676 5.98146 268.385 3.73346 263.611 3.73346C258.837 3.73346 254.546 5.98146 251.838 9.90026C249.144 13.7993 248.522 18.7355 250.171 23.0966C250.612 24.2876 251.313 25.4446 252.25 26.5289L262.667 38.765C262.903 39.0419 263.248 39.2015 263.611 39.2015C263.974 39.2015 264.32 39.042 264.555 38.765L274.97 26.5322C275.91 25.4417 276.611 24.2859 277.048 23.1045C278.7 18.7355 278.078 13.7993 275.384 9.90026ZM274.726 22.2359C274.388 23.1474 273.838 24.0486 273.09 24.9154C273.088 24.9175 273.086 24.9196 273.084 24.9221L263.611 36.0487L254.132 24.9151C253.385 24.049 252.834 23.1479 252.494 22.2277C251.13 18.621 251.647 14.5397 253.878 11.3107C256.116 8.07151 259.664 6.21373 263.611 6.21373C267.558 6.21373 271.105 8.07144 273.343 11.3107C275.575 14.5397 276.093 18.621 274.726 22.2359Z" fill="#31304F"/>
<path d="M263.611 11.0916C259.782 11.0916 256.666 14.2068 256.666 18.0364C256.666 21.866 259.781 24.9812 263.611 24.9812C267.44 24.9812 270.556 21.866 270.556 18.0364C270.556 14.2073 267.44 11.0916 263.611 11.0916ZM263.611 22.5009C261.149 22.5009 259.146 20.4981 259.146 18.0364C259.146 15.5747 261.149 13.5718 263.611 13.5718C266.073 13.5718 268.075 15.5747 268.075 18.0364C268.075 20.4981 266.073 22.5009 263.611 22.5009Z" fill="#31304F"/>
</g>
<g clip-path="url(#clip6)">
<path d="M297.55 28.7323H298.935H322.559C323.13 28.7323 323.633 28.368 323.796 27.8365L328.886 11.2346C329.002 10.8553 328.927 10.4449 328.684 10.1276C328.44 9.81021 328.057 9.62328 327.649 9.62328H294.807L293.071 3.95897C292.908 3.42758 292.405 3.06329 291.834 3.06329H286.673C285.96 3.06321 285.382 3.62443 285.382 4.31681C285.382 5.00911 285.96 5.57041 286.673 5.57041H290.872L292.6 11.2075C292.606 11.2261 292.611 11.2446 292.617 11.2627L297.208 26.2377C294.588 26.4089 292.509 28.5333 292.509 31.1217C292.509 33.8216 294.77 36.0182 297.55 36.0182H298.831C299.391 37.8828 301.165 39.2496 303.263 39.2496C305.361 39.2496 307.135 37.8829 307.695 36.0182H314.542C315.101 37.8828 316.876 39.2496 318.974 39.2496C321.071 39.2496 322.846 37.8829 323.406 36.0182H325.068C325.781 36.0182 326.359 35.4569 326.359 34.7646C326.359 34.0723 325.781 33.511 325.068 33.511H323.406C322.846 31.6462 321.072 30.2795 318.974 30.2795C316.876 30.2795 315.101 31.6462 314.542 33.511H307.695C307.135 31.6462 305.361 30.2795 303.263 30.2795C301.165 30.2795 299.39 31.6462 298.831 33.511H297.55C296.193 33.511 295.09 32.4391 295.09 31.1216C295.09 29.8041 296.193 28.7323 297.55 28.7323ZM316.48 12.1303H325.918L324.142 17.9241H316.48V12.1303ZM316.48 20.4313H323.373L321.597 26.2251H316.48V20.4313ZM306.932 12.1303H313.9V17.9241H306.932V12.1303ZM306.932 20.4313H313.899V26.2251H306.932V20.4313ZM304.351 26.2251H299.897L298.121 20.4313H304.351V26.2251ZM295.576 12.1303H304.351V17.9241H297.353L295.576 12.1303ZM318.974 32.7866C320.096 32.7866 321.01 33.6739 321.01 34.7645C321.01 35.8551 320.096 36.7424 318.974 36.7424C317.851 36.7424 316.938 35.8551 316.938 34.7645C316.938 33.6739 317.851 32.7866 318.974 32.7866ZM303.263 32.7866C304.385 32.7866 305.299 33.6739 305.299 34.7645C305.299 35.8551 304.385 36.7424 303.263 36.7424C302.14 36.7424 301.227 35.8551 301.227 34.7645C301.227 33.6739 302.14 32.7866 303.263 32.7866Z" fill="#31304F"/>
</g>
<g clip-path="url(#clip7)">
<path d="M376.195 23.2036C376.043 22.8912 376.043 22.5328 376.195 22.2204L377.611 19.3243C378.399 17.7118 377.775 15.7899 376.189 14.9487L373.342 13.4378C373.035 13.2749 372.824 12.9849 372.764 12.6424L372.207 9.46733C371.897 7.69952 370.262 6.51159 368.485 6.76298L365.293 7.21446C364.949 7.26309 364.608 7.15234 364.358 6.91058L362.041 4.66935C360.751 3.42137 358.73 3.4213 357.44 4.66935L355.124 6.91081C354.874 7.15263 354.533 7.26317 354.189 7.21468L350.997 6.7632C349.219 6.51167 347.585 7.69974 347.275 9.46755L346.718 12.6425C346.658 12.985 346.447 13.275 346.14 13.438L343.292 14.9488C341.707 15.79 341.083 17.712 341.871 19.3245L343.286 22.2205C343.439 22.533 343.439 22.8914 343.286 23.2038L341.871 26.0998C341.082 27.7123 341.707 29.6342 343.292 30.4754L346.14 31.9863C346.447 32.1492 346.658 32.4392 346.718 32.7817L347.275 35.9568C347.557 37.5661 348.937 38.6947 350.523 38.6945C350.679 38.6945 350.838 38.6836 350.997 38.661L354.189 38.2096C354.533 38.1607 354.874 38.2717 355.124 38.5134L357.44 40.7547C358.086 41.3787 358.913 41.6907 359.741 41.6906C360.568 41.6905 361.396 41.3786 362.041 40.7547L364.358 38.5134C364.608 38.2717 364.949 38.1612 365.293 38.2096L368.485 38.661C370.262 38.9125 371.897 37.7245 372.207 35.9567L372.764 32.7817C372.824 32.4392 373.035 32.1493 373.342 31.9863L376.189 30.4754C377.775 29.6343 378.399 27.7122 377.611 26.0997L376.195 23.2036ZM375.163 28.5415L372.316 30.0523C371.408 30.5341 370.785 31.391 370.608 32.4033L370.051 35.5784C369.946 36.1765 369.393 36.5782 368.792 36.4933L365.6 36.0419C364.582 35.8977 363.575 36.2253 362.836 36.9399L360.519 39.181C360.083 39.6031 359.399 39.6031 358.963 39.181L356.646 36.9398C356.021 36.3358 355.205 36.0085 354.353 36.0085C354.197 36.0085 354.04 36.0195 353.882 36.0418L350.69 36.4933C350.089 36.5782 349.536 36.1764 349.431 35.5783L348.874 32.4032C348.696 31.3908 348.074 30.5339 347.166 30.0522L344.318 28.5414C343.782 28.2568 343.571 27.6066 343.837 27.061L345.253 24.1649C345.704 23.2415 345.704 22.1824 345.253 21.259L343.837 18.3629C343.571 17.8174 343.782 17.1672 344.318 16.8826L347.166 15.3717C348.074 14.8899 348.696 14.0331 348.874 13.0207L349.431 9.84564C349.536 9.24752 350.089 8.84572 350.69 8.93067L353.882 9.38215C354.899 9.5262 355.907 9.19874 356.646 8.48416L358.962 6.24293C359.399 5.82081 360.083 5.82081 360.519 6.24293L362.836 8.48416C363.575 9.19882 364.582 9.5262 365.6 9.38215L368.791 8.93067C369.392 8.84564 369.946 9.24752 370.051 9.84564L370.608 13.0207C370.785 14.0331 371.408 14.89 372.316 15.3717L375.163 16.8826C375.7 17.1672 375.911 17.8174 375.644 18.3629L374.229 21.2589C373.777 22.1823 373.777 23.2415 374.229 24.1649L375.644 27.0608C375.911 27.6066 375.7 28.2569 375.163 28.5415Z" fill="#31304F"/>
<path d="M367.738 14.7139C367.311 14.2864 366.618 14.2864 366.19 14.7139L351.742 29.162C351.315 29.5894 351.315 30.2825 351.742 30.71C351.956 30.9237 352.236 31.0306 352.516 31.0306C352.797 31.0306 353.077 30.9238 353.29 30.71L367.738 16.262C368.166 15.8344 368.166 15.1414 367.738 14.7139Z" fill="#31304F"/>
<path d="M355.362 12.8606C353.149 12.8606 351.349 14.6611 351.349 16.8742C351.349 19.0872 353.149 20.8877 355.362 20.8877C357.575 20.8877 359.376 19.0872 359.376 16.8742C359.376 14.6611 357.575 12.8606 355.362 12.8606ZM355.362 18.6985C354.356 18.6985 353.538 17.8801 353.538 16.8741C353.538 15.8682 354.356 15.0498 355.362 15.0498C356.368 15.0498 357.187 15.8682 357.187 16.8741C357.187 17.8801 356.368 18.6985 355.362 18.6985Z" fill="#31304F"/>
<path d="M364.119 24.5363C361.906 24.5363 360.105 26.3368 360.105 28.5499C360.105 30.7629 361.906 32.5635 364.119 32.5635C366.332 32.5635 368.133 30.7629 368.133 28.5499C368.133 26.3368 366.332 24.5363 364.119 24.5363ZM364.119 30.3742C363.113 30.3742 362.295 29.5558 362.295 28.5499C362.295 27.544 363.113 26.7256 364.119 26.7256C365.125 26.7256 365.943 27.544 365.943 28.5499C365.943 29.5558 365.125 30.3742 364.119 30.3742Z" fill="#31304F"/>
</g>
<defs>
<clipPath id="clip0">
<rect width="43.5573" height="42.3128" fill="white" transform="translate(-8)"/>
</clipPath>
<clipPath id="clip1">
<rect width="37.9571" height="37.9571" fill="white" transform="translate(47.3799 3.73346)"/>
</clipPath>
<clipPath id="clip2">
<rect width="35.4681" height="35.4681" fill="white" transform="translate(97.1597 3.73346)"/>
</clipPath>
<clipPath id="clip3">
<rect width="43.5573" height="42.3128" fill="white" transform="translate(140.717)"/>
</clipPath>
<clipPath id="clip4">
<rect width="37.9571" height="37.9571" fill="white" transform="translate(196.097 3.73346)"/>
</clipPath>
<clipPath id="clip5">
<rect width="35.4681" height="35.4681" fill="white" transform="translate(245.876 3.73346)"/>
</clipPath>
<clipPath id="clip6">
<rect width="43.5573" height="42.3128" fill="white" transform="translate(285.382)"/>
</clipPath>
<clipPath id="clip7">
<rect width="37.9571" height="37.9571" fill="white" transform="translate(340.762 3.73346)"/>
</clipPath>
</defs>
</svg>
