<svg width="161" height="43" viewBox="0 0 161 43" fill="none" xmlns="http://www.w3.org/2000/svg">
<path d="M7.52685 0H19.2221V1.02785H7.52685C6.64575 1.02785 5.80417 1.22946 5.03765 1.59316C4.23558 1.97663 3.51253 2.53403 2.90406 3.22981C2.29559 3.92558 1.8017 4.75576 1.46586 5.68082C1.14582 6.5703 0.964069 7.54676 0.964069 8.5667V24.3006C0.964069 25.3245 1.14582 26.297 1.46586 27.1865C1.8017 28.1116 2.29559 28.9418 2.90406 29.6415C3.51253 30.3333 4.23558 30.8947 5.03765 31.2742C5.80417 31.6418 6.64575 31.8434 7.52685 31.8434H19.2221V32.8713H7.52685C6.50746 32.8713 5.53154 32.6341 4.64254 32.2111C3.72194 31.7723 2.89221 31.1319 2.20076 30.3373C1.50537 29.5466 0.948264 28.6018 0.568959 27.5581C0.201506 26.55 0 25.451 0 24.3006V8.5667C0 7.42025 0.201506 6.3173 0.568959 5.31317C0.948264 4.26556 1.50537 3.32073 2.19681 2.53008C2.89221 1.73548 3.72194 1.09505 4.64254 0.65624C5.53154 0.233242 6.50746 0 7.52685 0Z" fill="#31304F"/>
<path d="M62.8818 0H77.0979C78.1173 0 79.0932 0.233242 79.9822 0.65624C81.9103 1.57339 83.3327 3.32468 84.0558 5.31317C84.4232 6.3173 84.6247 7.42025 84.6247 8.5667V24.3006C84.6247 25.4431 84.4232 26.5382 84.0637 27.5383C83.6844 28.5781 83.1352 29.5189 82.4477 30.3096C81.7879 31.0726 81.0016 31.6972 80.1284 32.1399C79.3579 32.5274 78.5242 32.7725 77.6471 32.8436V41.3708C77.6471 41.517 77.6234 41.6712 77.576 41.8254C77.5325 41.9756 77.4693 42.1219 77.3863 42.2563C77.3034 42.3947 77.1967 42.5251 77.0781 42.6319C76.9636 42.7346 76.8292 42.8216 76.6791 42.8888C76.521 42.956 76.3432 42.9995 76.1536 42.9995C75.9837 43.0035 75.8019 42.9758 75.6123 42.9086C75.391 42.8295 75.1579 42.6991 74.9169 42.5014C74.7035 42.3314 74.4823 42.1021 74.2531 41.8175L67.1964 32.8713H62.8818V31.8434H67.6429C70.0926 34.9467 72.5423 38.054 74.992 41.1573C75.1658 41.3787 75.3278 41.5487 75.4858 41.6752C75.6439 41.8096 75.7861 41.8926 75.9165 41.9361C75.9955 41.9638 76.0706 41.9796 76.1378 41.9756C76.2049 41.9756 76.2642 41.9638 76.3195 41.94C76.3669 41.9163 76.4144 41.8847 76.4578 41.8491C76.5052 41.8056 76.5447 41.7542 76.5764 41.6989C76.6119 41.6436 76.6396 41.5843 76.6554 41.5289C76.6712 41.4736 76.6791 41.4222 76.6791 41.3708V31.8513L77.1611 31.8434C78.0304 31.8355 78.864 31.626 79.6266 31.2544C80.4247 30.8709 81.1399 30.3096 81.7404 29.6138C82.345 28.918 82.8309 28.0918 83.1628 27.1707C83.4829 26.2852 83.6607 25.3166 83.6607 24.3006V8.5667C83.6607 7.54676 83.4829 6.5703 83.1589 5.68082C82.823 4.75971 82.3292 3.92558 81.7207 3.22981C81.1122 2.53403 80.3892 1.97663 79.5871 1.59316C78.8206 1.22946 77.979 1.02785 77.0979 1.02785H62.8818V0Z" fill="#31304F"/>
<path d="M17.8472 0H64.0632V1.02785H17.8472V0ZM17.8472 31.8434H64.0632V32.8713H17.8472V31.8434Z" fill="#31304F"/>
<path d="M11.3119 24.0878H10.0317V12.4138H11.3119V24.0878ZM11.3119 9.06938H10.0317V7.25879H11.3119V9.06938ZM15.5238 12.4138L15.6463 14.4418C16.0216 13.7263 16.5313 13.1808 17.1635 12.7854C17.7996 12.3941 18.5503 12.1964 19.4156 12.1964C20.6839 12.1964 21.648 12.5838 22.3078 13.3547C22.9716 14.1295 23.2995 15.3392 23.2995 16.9759V24.0878H22.0036V16.9877C22.0036 15.6515 21.7547 14.7028 21.2568 14.1533C20.759 13.5959 20.0478 13.3191 19.1272 13.3191C18.2066 13.3191 17.4638 13.5484 16.8988 13.9991C16.3377 14.4537 15.9268 15.0625 15.6779 15.8255V24.0878H14.3819V12.4138H15.5238Z" fill="#31304F"/>
<path d="M34.6905 19.7076H27.7997L26.2193 24.0878H24.8799L30.6524 8.37756H31.8694L37.5945 24.0878H36.2551L34.6905 19.7076ZM28.2146 18.5532H34.2717L31.2965 10.2237H31.2333L28.2146 18.5532ZM41.8854 18.403H40.5223V24.0878H39.2303V7.25879H40.5223V17.2882H41.7511L46.2277 12.4138H47.737L47.7568 12.4692L42.968 17.7665L48.1479 24.0324L48.1163 24.0878H46.6386L41.8854 18.403ZM51.5814 9.42517V12.4138H54.1457V13.4693H51.5814V21.0794C51.5814 21.8423 51.7197 22.3839 51.9963 22.7041C52.2729 23.0204 52.6403 23.1825 53.1026 23.1825C53.2606 23.1825 53.4108 23.1706 53.557 23.1548C53.7071 23.139 53.881 23.1034 54.0825 23.0639L54.2761 24.0206C54.1022 24.1115 53.8889 24.1787 53.636 24.2341C53.3831 24.2894 53.1263 24.3131 52.8734 24.3171C52.0556 24.3131 51.4155 24.0562 50.9611 23.5383C50.5028 23.0204 50.2736 22.1981 50.2736 21.0794V13.4693H48.2586V12.4138H50.2736V9.42517H51.5814ZM63.5572 24.0878C63.4782 23.6806 63.4189 23.3248 63.3794 23.0323C63.3399 22.7358 63.3202 22.4353 63.3202 22.127C62.9171 22.7595 62.3561 23.2813 61.6251 23.6964C60.9021 24.1076 60.0684 24.3131 59.128 24.3171C57.9822 24.3131 57.0932 24.0127 56.465 23.4039C55.8407 22.7951 55.5246 21.9688 55.5246 20.9291C55.5246 19.8815 55.979 19.0395 56.8917 18.3911C57.8044 17.7428 58.9937 17.4186 60.4517 17.4186H63.3202V15.9757C63.3202 15.1376 63.0554 14.4853 62.526 14.0109C61.9965 13.5366 61.2537 13.2954 60.2897 13.2954C59.4046 13.2954 58.6934 13.5128 58.1521 13.9437C57.6069 14.3746 57.3342 14.9202 57.3342 15.5725H56.1371L56.1173 15.5092C56.0738 14.6356 56.4492 13.8607 57.2434 13.1926C58.0375 12.5324 59.0767 12.1964 60.3568 12.1964C61.633 12.1964 62.6643 12.5245 63.4426 13.1808C64.2131 13.833 64.6043 14.7739 64.6043 15.9955V21.7356C64.6043 22.1467 64.624 22.546 64.6754 22.9374C64.7228 23.3209 64.7979 23.7043 64.9045 24.0878H63.5572ZM59.2663 23.1706C60.258 23.1706 61.1194 22.9374 61.8424 22.463C62.5694 21.9926 63.0633 21.3877 63.3202 20.6445V18.4149H60.4398C59.3928 18.4149 58.5275 18.6639 57.84 19.166C57.1564 19.6601 56.8166 20.265 56.8166 20.9687C56.8166 21.6328 57.034 22.1665 57.4686 22.5658C57.9032 22.969 58.5038 23.1706 59.2663 23.1706ZM75.1774 22.1863C74.806 22.8741 74.3003 23.3999 73.672 23.7636C73.0478 24.1313 72.301 24.3131 71.4397 24.3171C70.2069 24.3131 69.2429 23.898 68.5435 23.0639C67.8481 22.2298 67.5004 20.937 67.5004 19.1778V12.4138H68.7964V19.2016C68.7964 20.6247 69.0374 21.6486 69.5234 22.2653C70.0054 22.886 70.6929 23.1943 71.5898 23.1943C72.5578 23.1943 73.3322 22.9769 73.9131 22.5421C74.4899 22.1033 74.8969 21.5103 75.1339 20.7552V12.4138H76.4299V24.0878H75.2841L75.1774 22.1863Z" fill="#2B2A29"/>
<path d="M96.3793 11.579L96.3872 11.6067C96.399 12.2273 96.1936 12.7175 95.7787 13.0891C95.3638 13.4607 94.8146 13.6465 94.139 13.6465C93.4357 13.6465 92.8667 13.3935 92.4361 12.8836C92.0054 12.3775 91.7881 11.7173 91.7881 10.9109V9.87909C91.7881 9.07262 92.0054 8.41638 92.4361 7.90641C92.8667 7.39249 93.4357 7.13948 94.139 7.13948C94.8225 7.13948 95.3717 7.31738 95.7866 7.68108C96.1975 8.04478 96.399 8.54289 96.3872 9.17541L96.3793 9.20308H95.8933C95.8933 8.69311 95.7352 8.29383 95.4231 8.0092C95.1149 7.72456 94.6842 7.58225 94.139 7.58225C93.5858 7.58225 93.1394 7.79572 92.8075 8.22267C92.4716 8.65358 92.3057 9.20308 92.3057 9.87118V10.9109C92.3057 11.5869 92.4716 12.1403 92.8075 12.5673C93.1394 12.9942 93.5858 13.2077 94.139 13.2077C94.6842 13.2077 95.1149 13.0694 95.4231 12.7887C95.7352 12.512 95.8933 12.1087 95.8933 11.579H96.3793ZM100.579 13.5556C100.548 13.3896 100.524 13.2473 100.504 13.1287C100.492 13.0101 100.481 12.8915 100.481 12.765C100.322 13.0219 100.093 13.2314 99.8009 13.3975C99.5085 13.5635 99.1727 13.6465 98.7934 13.6465C98.3311 13.6465 97.9755 13.524 97.7226 13.2789C97.4698 13.0338 97.3433 12.7017 97.3433 12.2827C97.3433 11.8636 97.5251 11.5236 97.8925 11.2627C98.26 11.0018 98.742 10.8714 99.3268 10.8714H100.481V10.2902C100.481 9.95024 100.374 9.68933 100.164 9.49957C99.9511 9.30586 99.6508 9.21099 99.2636 9.21099C98.908 9.21099 98.6195 9.29796 98.4022 9.4719C98.181 9.64584 98.0703 9.86327 98.0703 10.1281H97.5883L97.5804 10.1005C97.5646 9.74863 97.7147 9.43632 98.0348 9.1675C98.3548 8.90263 98.7736 8.76822 99.2873 8.76822C99.8049 8.76822 100.22 8.89868 100.532 9.16355C100.844 9.42841 100.998 9.80397 100.998 10.2981V12.6068C100.998 12.7729 101.01 12.935 101.026 13.0931C101.046 13.2473 101.077 13.4014 101.121 13.5556H100.579ZM98.8487 13.188C99.2478 13.188 99.5955 13.0931 99.8878 12.9033C100.18 12.7136 100.378 12.4685 100.481 12.168V11.2706H99.3228C98.9001 11.2706 98.5524 11.3695 98.2758 11.5711C97.9992 11.7727 97.8649 12.0178 97.8649 12.2985C97.8649 12.5673 97.9518 12.7808 98.1257 12.9429C98.3035 13.1049 98.5445 13.188 98.8487 13.188ZM105.443 8.85519H105.965V13.5556H105.443V9.717L105.415 9.7091L102.906 13.5556H102.385V8.85519H102.906V12.6859L102.934 12.6898L105.443 8.85519ZM105.38 6.98926L105.388 7.01693C105.4 7.3411 105.293 7.60201 105.072 7.80758C104.846 8.0092 104.542 8.10803 104.159 8.10803C103.772 8.10803 103.468 8.0092 103.242 7.80363C103.021 7.59806 102.914 7.33714 102.93 7.01693L102.938 6.98926H103.345C103.345 7.21064 103.412 7.39249 103.543 7.5269C103.673 7.66526 103.878 7.73247 104.159 7.73247C104.432 7.73247 104.633 7.66131 104.767 7.52295C104.902 7.38458 104.969 7.20669 104.969 6.98926H105.38ZM110.84 9.29796H109.129V13.5556H108.608V9.29796H106.964V8.85519H110.84V9.29796ZM113.713 11.1362C113.713 10.4444 113.902 9.87513 114.278 9.43237C114.657 8.9896 115.163 8.76822 115.787 8.76822C116.415 8.76822 116.921 8.9896 117.3 9.43237C117.676 9.87513 117.865 10.4444 117.865 11.1362V11.2785C117.865 11.9743 117.68 12.5436 117.3 12.9863C116.921 13.4252 116.419 13.6465 115.795 13.6465C115.163 13.6465 114.657 13.4252 114.278 12.9863C113.902 12.5436 113.713 11.9743 113.713 11.2785V11.1362ZM114.23 11.2785C114.23 11.8241 114.369 12.2827 114.645 12.6543C114.918 13.0219 115.305 13.2077 115.795 13.2077C116.277 13.2077 116.656 13.0219 116.937 12.6543C117.209 12.2827 117.352 11.8241 117.352 11.2785V11.1362C117.352 10.5986 117.209 10.144 116.933 9.77235C116.656 9.39679 116.273 9.21099 115.787 9.21099C115.301 9.21099 114.918 9.39679 114.645 9.77235C114.369 10.144 114.23 10.5986 114.23 11.1362V11.2785ZM124.318 11.3813H123.918V13.5556H123.401V11.3813H123.014L121.236 13.5556H120.607L120.596 13.5319L122.575 11.1204L120.793 8.85519H121.425L123.006 10.9188H123.401V8.85519H123.918V10.9188H124.325L125.906 8.85519H126.542L124.756 11.1204L126.74 13.5319L126.728 13.5556H126.092L124.318 11.3813ZM130.651 8.85519H131.173V13.5556H130.651V9.717L130.627 9.7091L128.115 13.5556H127.593V8.85519H128.115V12.6859L128.142 12.6898L130.651 8.85519ZM134.294 10.9307C134.737 10.9307 135.064 10.8595 135.278 10.7132C135.487 10.567 135.594 10.3653 135.594 10.0965C135.594 9.84351 135.483 9.63003 135.262 9.46795C135.041 9.30191 134.713 9.21889 134.278 9.21889C133.891 9.21889 133.571 9.30191 133.31 9.47585C133.053 9.64189 132.923 9.85932 132.923 10.1242H132.445L132.437 10.0965C132.421 9.7091 132.591 9.39284 132.947 9.14773C133.302 8.90263 133.749 8.78008 134.278 8.78008C134.847 8.78008 135.294 8.89473 135.626 9.12401C135.953 9.35726 136.119 9.68142 136.119 10.1044C136.119 10.3298 136.04 10.5353 135.882 10.7211C135.724 10.903 135.507 11.0453 135.226 11.1441C135.543 11.2311 135.784 11.3695 135.95 11.5592C136.119 11.749 136.202 11.9822 136.202 12.2669C136.202 12.6898 136.025 13.0259 135.665 13.271C135.309 13.5121 134.847 13.6347 134.278 13.6347C133.749 13.6347 133.29 13.5161 132.907 13.2749C132.524 13.0338 132.342 12.6859 132.358 12.2352L132.366 12.2076H132.844C132.844 12.4882 132.978 12.7254 133.243 12.9152C133.512 13.1049 133.855 13.1998 134.278 13.1998C134.717 13.1998 135.057 13.1168 135.306 12.9429C135.554 12.7768 135.677 12.5515 135.677 12.2748C135.677 11.9664 135.558 11.7411 135.329 11.5988C135.096 11.4525 134.752 11.3813 134.294 11.3813H133.496V10.9307H134.294ZM140.952 13.5556H140.43V11.4011H137.901V13.5556H137.38V8.85519H137.901V10.9623H140.43V8.85519H140.952V13.5556ZM145.385 8.85519H145.906V13.5556H145.385V9.717L145.361 9.7091L142.852 13.5556H142.331V8.85519H142.852V12.6859L142.876 12.6898L145.385 8.85519ZM94.8028 19.9836H92.4242V24.2373H91.9027V19.5329H94.8028V19.9836ZM95.2493 21.814C95.2493 21.1221 95.4389 20.5568 95.8182 20.1141C96.1975 19.6673 96.6993 19.446 97.3236 19.446C97.9518 19.446 98.4575 19.6673 98.8369 20.1141C99.2162 20.5568 99.4058 21.1221 99.4058 21.814V21.9602C99.4058 22.656 99.2162 23.2213 98.8369 23.6641C98.4615 24.1068 97.9597 24.3243 97.3354 24.3282C96.7033 24.3243 96.1975 24.1068 95.8182 23.6641C95.4389 23.2213 95.2493 22.656 95.2493 21.9602V21.814ZM95.7708 21.9602C95.7708 22.5018 95.9091 22.9604 96.1817 23.332C96.4583 23.7036 96.8415 23.8894 97.3354 23.8894C97.8175 23.8894 98.1968 23.7036 98.4733 23.332C98.7499 22.9604 98.8882 22.5018 98.8882 21.9602V21.814C98.8882 21.2803 98.7499 20.8256 98.4694 20.4501C98.1928 20.0785 97.8096 19.8887 97.3236 19.8887C96.8376 19.8887 96.4583 20.0785 96.1817 20.4501C95.9091 20.8256 95.7708 21.2803 95.7708 21.814V21.9602ZM104.274 22.0156C104.274 22.7193 104.116 23.2806 103.795 23.6997C103.479 24.1147 103.041 24.3243 102.48 24.3282C102.152 24.3243 101.863 24.265 101.618 24.1385C101.37 24.0159 101.168 23.838 101.014 23.6087V26.0439H100.492V19.5329H100.891L100.986 20.2682C101.14 20.0073 101.346 19.8057 101.595 19.6634C101.844 19.5171 102.136 19.446 102.472 19.446C103.037 19.446 103.479 19.6713 103.795 20.122C104.116 20.5726 104.274 21.1735 104.274 21.9246V22.0156ZM103.752 21.9246C103.752 21.3277 103.633 20.8415 103.396 20.4619C103.159 20.0864 102.812 19.9006 102.353 19.9006C102.01 19.9006 101.729 19.9836 101.508 20.1457C101.29 20.3117 101.125 20.5252 101.014 20.7901V23.0671C101.132 23.3201 101.306 23.5218 101.528 23.668C101.753 23.8143 102.029 23.8894 102.361 23.8894C102.816 23.8894 103.163 23.7155 103.396 23.3755C103.633 23.0316 103.752 22.5809 103.752 22.0156V21.9246ZM105.151 21.814C105.151 21.1221 105.34 20.5568 105.72 20.1141C106.099 19.6673 106.601 19.446 107.225 19.446C107.853 19.446 108.359 19.6673 108.738 20.1141C109.118 20.5568 109.307 21.1221 109.307 21.814V21.9602C109.307 22.656 109.118 23.2213 108.738 23.6641C108.363 24.1068 107.861 24.3243 107.237 24.3282C106.605 24.3243 106.099 24.1068 105.72 23.6641C105.34 23.2213 105.151 22.656 105.151 21.9602V21.814ZM105.672 21.9602C105.672 22.5018 105.811 22.9604 106.083 23.332C106.36 23.7036 106.743 23.8894 107.237 23.8894C107.719 23.8894 108.098 23.7036 108.375 23.332C108.651 22.9604 108.79 22.5018 108.79 21.9602V21.814C108.79 21.2803 108.651 20.8256 108.371 20.4501C108.094 20.0785 107.711 19.8887 107.225 19.8887C106.739 19.8887 106.36 20.0785 106.083 20.4501C105.811 20.8256 105.672 21.2803 105.672 21.814V21.9602ZM110.374 23.7945C110.603 23.7945 110.785 23.5771 110.915 23.1383C111.05 22.6995 111.133 22.063 111.172 21.2328L111.275 19.5329H114.092V23.7945H114.535V25.7633H114.013V24.2373H110.465V25.7633H109.971V23.7945H110.374ZM111.694 21.2328C111.658 21.8535 111.603 22.3753 111.524 22.8023C111.441 23.2253 111.322 23.5573 111.164 23.7945H113.571V20.0192H111.765L111.694 21.2328ZM118.581 24.2373C118.545 24.0713 118.521 23.9289 118.505 23.8103C118.494 23.6918 118.482 23.5692 118.482 23.4466C118.32 23.6997 118.095 23.9092 117.802 24.0752C117.51 24.2413 117.174 24.3243 116.795 24.3282C116.332 24.3243 115.977 24.2057 115.724 23.9606C115.471 23.7155 115.345 23.3834 115.345 22.9644C115.345 22.5414 115.526 22.2014 115.894 21.9405C116.261 21.6795 116.739 21.5491 117.328 21.5491H118.482V20.968C118.482 20.6319 118.375 20.3671 118.166 20.1773C117.952 19.9876 117.652 19.8887 117.265 19.8887C116.909 19.8887 116.621 19.9757 116.403 20.1496C116.182 20.3236 116.072 20.545 116.072 20.8059H115.59L115.582 20.7822C115.566 20.4264 115.716 20.118 116.036 19.8492C116.356 19.5804 116.775 19.446 117.288 19.446C117.802 19.446 118.221 19.5804 118.533 19.8413C118.841 20.1062 118.999 20.4857 118.999 20.9759V23.2885C118.999 23.4546 119.007 23.6127 119.027 23.7708C119.047 23.925 119.078 24.0792 119.122 24.2373H118.581ZM116.85 23.8657C117.249 23.8657 117.597 23.7708 117.889 23.5811C118.181 23.3913 118.379 23.1502 118.482 22.8497V21.9484H117.324C116.901 21.9484 116.554 22.0512 116.277 22.2528C116 22.4544 115.866 22.6955 115.866 22.9802C115.866 23.245 115.953 23.4625 116.127 23.6245C116.301 23.7827 116.546 23.8657 116.85 23.8657Z" fill="#323232"/>
<path d="M126.16 22.0078H122.933L122.2 24H121.57L124.261 16.8906H124.832L127.522 24H126.897L126.16 22.0078ZM123.118 21.4951H125.97L124.544 17.623L123.118 21.4951ZM129.871 21.5781H129.061V24H128.47V18.7168H129.061V21.0605H129.861L131.8 18.7168H132.537L130.369 21.2803L132.776 24H132.005L129.871 21.5781ZM137.415 19.2148H135.491V24H134.905V19.2148H133.055V18.7168H137.415V19.2148ZM141.634 24C141.575 23.834 141.538 23.5882 141.521 23.2627C141.316 23.5296 141.054 23.7363 140.735 23.8828C140.42 24.026 140.084 24.0977 139.729 24.0977C139.222 24.0977 138.81 23.9561 138.494 23.6729C138.182 23.3896 138.025 23.0316 138.025 22.5986C138.025 22.0843 138.239 21.6774 138.665 21.3779C139.095 21.0785 139.692 20.9287 140.457 20.9287H141.517V20.3281C141.517 19.9505 141.399 19.6543 141.165 19.4395C140.934 19.2214 140.595 19.1123 140.149 19.1123C139.743 19.1123 139.406 19.2165 139.139 19.4248C138.872 19.6331 138.738 19.8838 138.738 20.1768L138.152 20.1719C138.152 19.752 138.348 19.389 138.738 19.083C139.129 18.7738 139.609 18.6191 140.179 18.6191C140.768 18.6191 141.232 18.7673 141.57 19.0635C141.912 19.3564 142.088 19.7666 142.098 20.2939V22.7939C142.098 23.305 142.151 23.6875 142.259 23.9414V24H141.634ZM139.798 23.5801C140.188 23.5801 140.537 23.4857 140.843 23.2969C141.152 23.1081 141.377 22.8558 141.517 22.54V21.3779H140.472C139.889 21.3844 139.433 21.4919 139.104 21.7002C138.776 21.9053 138.611 22.1885 138.611 22.5498C138.611 22.846 138.72 23.0918 138.938 23.2871C139.16 23.4824 139.446 23.5801 139.798 23.5801ZM145.257 23.1602L146.8 18.7168H147.43L145.174 24.8984L145.057 25.1719C144.767 25.8132 144.319 26.1338 143.714 26.1338C143.574 26.1338 143.424 26.111 143.265 26.0654L143.26 25.582L143.562 25.6113C143.849 25.6113 144.08 25.5397 144.256 25.3965C144.435 25.2565 144.586 25.014 144.71 24.6689L144.969 23.9561L142.977 18.7168H143.616L145.257 23.1602Z" fill="#323232"/>
</svg>
