<svg width="42" height="42" viewBox="0 0 42 42" fill="none" xmlns="http://www.w3.org/2000/svg">
<g clip-path="url(#clip0)">
<path d="M21.1439 22.4284C27.3275 22.4284 32.3582 17.3978 32.3582 11.2142C32.3582 5.03065 27.3275 0 21.1439 0C14.9603 0 9.92969 5.03065 9.92969 11.2142C9.92969 17.3978 14.9604 22.4284 21.1439 22.4284ZM21.1439 1.23285C26.6477 1.23285 31.1252 5.71044 31.1252 11.2142C31.1252 16.7179 26.6477 21.1956 21.1439 21.1956C15.6402 21.1956 11.1625 16.718 11.1625 11.2142C11.1625 5.71052 15.6402 1.23285 21.1439 1.23285V1.23285Z" fill="#CE1625"/>
<path d="M21.144 19.3244C25.6161 19.3244 29.2543 15.6861 29.2543 11.2142C29.2543 6.74225 25.6161 3.104 21.144 3.104C19.1253 3.104 17.1907 3.85041 15.6966 5.20573C15.4444 5.43451 15.4255 5.82432 15.6542 6.07649C15.883 6.32865 16.2729 6.34777 16.5249 6.1189C17.7917 4.96972 19.4322 4.33685 21.144 4.33685C24.9363 4.33685 28.0215 7.42205 28.0215 11.2142C28.0215 15.0063 24.9363 18.0915 21.144 18.0915C17.3519 18.0915 14.2668 15.0064 14.2668 11.2142C14.2668 10.069 14.5536 8.93561 15.0964 7.93646C15.259 7.6373 15.1482 7.26307 14.849 7.10057C14.55 6.93798 14.1757 7.04889 14.0131 7.34797C13.3726 8.52717 13.0339 9.86412 13.0339 11.2142C13.0339 15.6861 16.6721 19.3244 21.144 19.3244Z" fill="#CE1625"/>
<path d="M20.9095 14.1183C19.9414 14.0593 19.6755 13.4767 19.6262 13.3398C19.5556 13.0763 19.3159 12.882 19.0302 12.882C18.6891 12.882 18.4126 13.1586 18.4126 13.4997C18.4126 13.5493 18.4191 13.5972 18.4301 13.6434L18.4298 13.6434C18.4304 13.6457 18.4315 13.6499 18.4331 13.6553C18.4407 13.6844 18.4496 13.7129 18.4612 13.7402C18.5752 14.0548 19.032 15.0305 20.3783 15.2912V16.1114C20.3783 16.4519 20.6543 16.7279 20.9948 16.7279C21.3353 16.7279 21.6112 16.452 21.6112 16.1114V15.3097C22.2013 15.207 22.5977 14.9491 22.8455 14.7159C23.3066 14.282 23.5819 13.6261 23.5819 12.9613C23.5819 12.3366 23.3369 10.8568 21.0677 10.6064C20.6182 10.5568 20.2975 10.4137 20.1145 10.1812C19.953 9.97591 19.9355 9.7491 19.9355 9.66108C19.9355 9.55263 19.9653 8.60181 20.9948 8.60181C21.6702 8.60181 21.943 9.03141 21.9942 9.12484C22.0856 9.35174 22.3074 9.51203 22.567 9.51203C22.9081 9.51203 23.1846 9.2355 23.1846 8.89441C23.1846 8.79302 23.1597 8.69754 23.1164 8.61313L23.1167 8.61296C22.9429 8.23529 22.4523 7.64442 21.6112 7.44098V6.61353C21.6112 6.27311 21.3352 5.99707 20.9947 5.99707C20.6543 5.99707 20.3782 6.27311 20.3782 6.61353V7.43836C19.1615 7.72727 18.7025 8.8625 18.7025 9.661C18.7025 10.5488 19.2865 11.6501 20.9324 11.8317C22.3489 11.9881 22.3489 12.7205 22.3489 12.9612C22.3489 13.2169 22.2574 13.5763 22.0005 13.818C21.7576 14.0466 21.3907 14.1477 20.9095 14.1183V14.1183Z" fill="#CE1625"/>
<path d="M10.6836 28.5466C10.5671 28.4228 10.4046 28.3525 10.2346 28.3525C10.0645 28.3525 9.9021 28.4228 9.78553 28.5466L5.59808 32.9983C5.42959 33.1775 5.38374 33.4395 5.48127 33.6652C5.57881 33.891 5.80119 34.0371 6.04712 34.0371H7.25741V36.2756C7.25741 36.616 7.53345 36.8921 7.87388 36.8921C8.21431 36.8921 8.49034 36.616 8.49034 36.2756V33.4206C8.49034 33.0802 8.21431 32.8041 7.87388 32.8041H7.47323L10.2345 29.8686L12.9957 32.8041H12.5951C12.2547 32.8041 11.9786 33.0802 11.9786 33.4206V40.7673H8.49018V38.7414C8.49018 38.401 8.21414 38.1249 7.87371 38.1249C7.53328 38.1249 7.25725 38.401 7.25725 38.7414V41.3838C7.25725 41.7242 7.53328 42.0002 7.87371 42.0002H12.595C12.9354 42.0002 13.2115 41.7242 13.2115 41.3838V34.0371H14.4218C14.6676 34.0371 14.89 33.891 14.9876 33.6652C15.0852 33.4395 15.0393 33.1774 14.8708 32.9983L10.6836 28.5466Z" fill="#CE1625"/>
<path d="M21.593 24.3054C21.4765 24.1815 21.314 24.1113 21.144 24.1113C20.9739 24.1113 20.8115 24.1815 20.6949 24.3054L16.5075 28.7572C16.3391 28.9363 16.2931 29.1984 16.3907 29.4241C16.4883 29.6498 16.7107 29.7959 16.9566 29.7959H18.1669V41.3836C18.1669 41.724 18.4429 42 18.7833 42H23.5046C23.8452 42 24.1211 41.724 24.1211 41.3836V29.7959H25.3314C25.5773 29.7959 25.7996 29.6498 25.8973 29.4241C25.9948 29.1984 25.9489 28.9362 25.7804 28.7572L21.593 24.3054ZM23.5046 28.5631C23.1641 28.5631 22.8882 28.8391 22.8882 29.1795V40.7672H19.3997V29.1795C19.3997 28.839 19.1237 28.563 18.7833 28.563H18.3826L21.1439 25.6274L23.9051 28.563H23.5046V28.5631Z" fill="#CE1625"/>
<path d="M32.5025 20.3816C32.386 20.2577 32.2235 20.1875 32.0535 20.1875C31.8835 20.1875 31.7209 20.2577 31.6044 20.3816L27.417 24.8333C27.2485 25.0123 27.2026 25.2745 27.3001 25.5002C27.3977 25.7259 27.62 25.872 27.8659 25.872H29.0762V29.6339C29.0762 29.9743 29.3522 30.2504 29.6927 30.2504C30.0332 30.2504 30.3092 29.9743 30.3092 29.6339V25.2556C30.3092 24.9152 30.0332 24.6392 29.6927 24.6392H29.2921L32.0534 21.7036L34.8146 24.6392H34.414C34.0735 24.6392 33.7975 24.9152 33.7975 25.2556V40.7673H30.3091V32.0997C30.3091 31.7592 30.0331 31.4832 29.6926 31.4832C29.3521 31.4832 29.0762 31.7592 29.0762 32.0997V41.3837C29.0762 41.7241 29.3521 42.0002 29.6926 42.0002H34.414C34.7545 42.0002 35.0305 41.7241 35.0305 41.3837V25.872H36.2408C36.4867 25.872 36.709 25.7259 36.8066 25.5002C36.9042 25.2745 36.8582 25.0123 36.6897 24.8333L32.5025 20.3816Z" fill="#CE1625"/>
<path d="M7.61286 11.4348C7.61286 11.0944 7.33683 10.8184 6.9964 10.8184H3.38087C3.04044 10.8184 2.7644 11.0944 2.7644 11.4348C2.7644 11.7753 3.04036 12.0513 3.38087 12.0513H6.9964C7.33691 12.0512 7.61286 11.7753 7.61286 11.4348Z" fill="#CE1625"/>
<path d="M7.79391 16.2726L6.50798 16.7764C6.19093 16.9006 6.03466 17.2582 6.15886 17.5752C6.2541 17.8183 6.48674 17.9669 6.733 17.9669C6.80781 17.9669 6.88385 17.9532 6.95768 17.9242L8.2436 17.4205C8.56065 17.2963 8.71692 16.9386 8.59273 16.6217C8.46845 16.3048 8.11079 16.1484 7.79391 16.2726Z" fill="#CE1625"/>
<path d="M6.50797 6.09333L7.7939 6.59709C7.86781 6.62604 7.94377 6.63974 8.01858 6.63974C8.26484 6.63974 8.49748 6.4911 8.59272 6.24804C8.71691 5.93108 8.56064 5.57342 8.24359 5.44922L6.95767 4.94547C6.64054 4.82127 6.28304 4.97763 6.15885 5.29459C6.03465 5.61148 6.191 5.96914 6.50797 6.09333Z" fill="#CE1625"/>
<path d="M38.619 10.8184H35.0034C34.6629 10.8184 34.387 11.0944 34.387 11.4348C34.387 11.7753 34.6629 12.0513 35.0034 12.0513H38.619C38.9595 12.0513 39.2354 11.7753 39.2354 11.4348C39.2353 11.0944 38.9594 10.8184 38.619 10.8184Z" fill="#CE1625"/>
<path d="M33.7562 17.4205L35.042 17.9242C35.1159 17.9532 35.192 17.9669 35.2668 17.9669C35.5131 17.9669 35.7457 17.8183 35.8409 17.5752C35.9651 17.2582 35.8089 16.9006 35.4919 16.7764L34.2061 16.2726C33.8888 16.1484 33.5314 16.3048 33.4072 16.6217C33.283 16.9385 33.4392 17.2962 33.7562 17.4205V17.4205Z" fill="#CE1625"/>
<path d="M33.9813 6.63977C34.0561 6.63977 34.1322 6.62607 34.2061 6.59711L35.4919 6.09336C35.8089 5.96916 35.9651 5.61151 35.8409 5.29454C35.7167 4.97749 35.3589 4.82138 35.042 4.94541L33.7562 5.44917C33.4392 5.57336 33.283 5.93102 33.4072 6.24799C33.5024 6.49121 33.735 6.63977 33.9813 6.63977V6.63977Z" fill="#CE1625"/>
</g>
<defs>
<clipPath id="clip0">
<rect width="42" height="42" fill="white"/>
</clipPath>
</defs>
</svg>
