<svg width="62" height="62" viewBox="0 0 62 62" fill="none" xmlns="http://www.w3.org/2000/svg">
<path d="M35.3363 34.9837C34.8215 34.9 34.3027 34.9566 33.8312 35.1396V23.5101C36.1776 22.4131 37.714 20.0387 37.714 17.4102C37.714 13.6979 34.6939 10.6777 30.9815 10.6777C27.2691 10.6777 24.249 13.6979 24.249 17.4102C24.249 20.0384 25.7855 22.4132 28.1318 23.5101V31.2567C27.6604 31.0737 27.1416 31.017 26.6266 31.1008C25.5223 31.2805 24.6392 32.1456 24.3499 33.2395C23.852 33.024 23.2958 32.9524 22.7438 33.0422C21.6396 33.2219 20.7564 34.087 20.4671 35.1809C19.9692 34.9653 19.4129 34.8937 18.8611 34.9836C17.5057 35.2041 16.4834 36.4573 16.4834 37.8987V44.1264C16.4834 45.1522 16.6096 46.1769 16.8583 47.1718L18.1041 52.1551C18.3169 53.0064 18.4248 53.8827 18.4248 54.7599V61.0916C18.4248 61.5931 18.8314 61.9998 19.333 61.9998C19.8346 61.9998 20.2412 61.5931 20.2412 61.0916V54.7599C20.2412 53.7344 20.115 52.7097 19.8663 51.7145L18.6205 46.7312C18.4077 45.8801 18.2998 45.0038 18.2998 44.1263V37.8988C18.2998 37.3473 18.6745 36.8544 19.1527 36.7765C19.4652 36.7257 19.7667 36.8075 20.0017 37.0072C20.2333 37.2042 20.3662 37.4913 20.3662 37.7949C20.3662 38.2965 20.7728 38.7031 21.2744 38.7031C21.7759 38.7031 22.1826 38.2965 22.1826 37.7949V35.9573C22.1826 35.4058 22.5572 34.9129 23.0354 34.835C23.348 34.7842 23.6495 34.866 23.8844 35.0657C24.1161 35.2627 24.2489 35.5498 24.2489 35.8534C24.2489 36.355 24.6555 36.7616 25.1571 36.7616C25.6587 36.7616 26.0653 36.355 26.0653 35.8534V34.0158C26.0653 33.4643 26.44 32.9714 26.9182 32.8936C27.231 32.8427 27.5324 32.9246 27.7672 33.1243C27.9988 33.3213 28.1317 33.6085 28.1317 33.912C28.1317 34.4136 28.5383 34.8202 29.0399 34.8202C29.5414 34.8202 29.9481 34.4136 29.9481 33.912V17.514C29.9481 16.9625 30.3227 16.4695 30.8009 16.3917C31.1135 16.3408 31.4151 16.4227 31.6499 16.6224C31.8816 16.8194 32.0144 17.1065 32.0144 17.4101V37.7949C32.0144 38.2965 32.4211 38.7031 32.9226 38.7031C33.4242 38.7031 33.8308 38.2965 33.8308 37.7949C33.8308 37.4913 33.9637 37.2042 34.1953 37.0072C34.43 36.8075 34.7319 36.7257 35.0442 36.7764C35.5225 36.8543 35.8972 37.3472 35.8972 37.8987V44.2818C35.8972 45.0641 35.8112 45.848 35.6414 46.6116L34.2548 52.8515C34.0563 53.7444 33.9558 54.6608 33.9558 55.5754V61.0917C33.9558 61.5933 34.3624 61.9999 34.864 61.9999C35.3656 61.9999 35.7722 61.5933 35.7722 61.0917V55.5754C35.7722 54.7931 35.8582 54.0092 36.028 53.2455L37.4146 47.0057C37.6131 46.1129 37.7136 45.1964 37.7136 44.2818V37.8988C37.7139 36.4574 36.6918 35.2042 35.3363 34.9837ZM32.8274 15.2389C32.1894 14.6964 31.3449 14.463 30.5098 14.5989C29.1543 14.8194 28.1321 16.0726 28.1321 17.514V21.4165C26.8599 20.5091 26.0658 19.0251 26.0658 17.4102C26.0658 14.6995 28.271 12.4941 30.9819 12.4941C33.6927 12.4941 35.8979 14.6995 35.8979 17.4102C35.8979 19.0253 35.1038 20.5092 33.8316 21.4165V17.4102C33.8316 16.573 33.4655 15.7816 32.8274 15.2389Z" fill="#362F4C"/>
<path d="M15.1257 12.7318C14.6373 12.617 14.1485 12.9197 14.0337 13.4079C13.8785 14.0681 13.7607 14.7451 13.6839 15.4204C13.6273 15.9188 13.9854 16.3688 14.4837 16.4254C14.5186 16.4294 14.5532 16.4314 14.5875 16.4314C15.0431 16.4314 15.436 16.0893 15.4888 15.6257C15.5575 15.0211 15.6629 14.4148 15.8019 13.8239C15.9167 13.3356 15.6141 12.8466 15.1257 12.7318Z" fill="#362F4C"/>
<path d="M46.6998 9.91398C46.4076 9.30221 46.0756 8.70086 45.7129 8.12651C45.4451 7.70256 44.8842 7.57566 44.46 7.84352C44.036 8.11126 43.9092 8.67228 44.177 9.09635C44.5016 9.61064 44.799 10.1491 45.0607 10.6969C45.2165 11.0232 45.5418 11.2138 45.8808 11.2138C46.012 11.2138 46.1454 11.1852 46.2717 11.1249C46.7241 10.9088 46.9158 10.3665 46.6998 9.91398Z" fill="#362F4C"/>
<path d="M21.9296 3.58074C21.632 3.17701 21.0633 3.09103 20.6597 3.38868C20.1139 3.79108 19.5857 4.23041 19.09 4.6942C18.7238 5.03689 18.7045 5.61161 19.0472 5.97792C19.2258 6.16888 19.4678 6.26551 19.7104 6.26551C19.9328 6.26551 20.1556 6.18438 20.3308 6.02054C20.7751 5.60482 21.2485 5.21127 21.7376 4.85065C22.1413 4.553 22.2273 3.98435 21.9296 3.58074Z" fill="#362F4C"/>
<path d="M17.7159 7.55159C17.2978 7.27453 16.7344 7.38896 16.4572 7.8071C16.0819 8.37358 15.7365 8.96791 15.4307 9.57374C15.2046 10.0218 15.3844 10.568 15.8322 10.794C15.9635 10.8602 16.1031 10.8916 16.2408 10.8916C16.5727 10.8916 16.8925 10.709 17.0522 10.3925C17.3261 9.84995 17.6353 9.31763 17.9715 8.81036C18.2485 8.39223 18.1341 7.82865 17.7159 7.55159Z" fill="#362F4C"/>
<path d="M48.3181 15.7953C48.2559 15.1183 48.1528 14.4389 48.0121 13.7759C47.9079 13.2853 47.4253 12.9717 46.935 13.0762C46.4443 13.1806 46.1312 13.6628 46.2353 14.1534C46.3614 14.747 46.4536 15.3555 46.5095 15.9618C46.5528 16.433 46.9487 16.7868 47.4127 16.7868C47.4406 16.7868 47.4687 16.7856 47.497 16.7829C47.9965 16.7369 48.3641 16.2948 48.3181 15.7953Z" fill="#362F4C"/>
<path d="M38.1087 1.52139C37.4887 1.24287 36.8457 0.998624 36.1978 0.795307C35.7189 0.645151 35.2094 0.911436 35.0594 1.39012C34.9094 1.86868 35.1757 2.37837 35.6542 2.5284C36.2341 2.71029 36.8095 2.92886 37.3643 3.17819C37.4853 3.23245 37.6116 3.25824 37.736 3.25824C38.0825 3.25824 38.4137 3.05868 38.565 2.72203C38.7705 2.26454 38.5663 1.727 38.1087 1.52139Z" fill="#362F4C"/>
<path d="M32.1902 0.0412457C31.5158 -0.00513328 30.8259 -0.0123989 30.1497 0.0194488C29.6486 0.0430621 29.2617 0.468344 29.2852 0.969431C29.3087 1.47052 29.7342 1.85644 30.2351 1.83392C30.8419 1.80534 31.4609 1.81188 32.0659 1.85342C32.087 1.85487 32.108 1.8556 32.129 1.8556C32.6022 1.8556 33.0013 1.4888 33.0342 1.00951C33.0685 0.509153 32.6907 0.0756364 32.1902 0.0412457Z" fill="#362F4C"/>
<path d="M27.2519 1.30572C27.1121 0.824009 26.6081 0.546582 26.1266 0.686325C25.4744 0.875353 24.8267 1.10543 24.2013 1.37014C23.7393 1.56571 23.5233 2.09852 23.7188 2.5605C23.8655 2.90683 24.2019 3.11487 24.5557 3.11487C24.6738 3.11487 24.7936 3.09174 24.9092 3.04281C25.469 2.80595 26.0487 2.60009 26.6323 2.43093C27.1142 2.2913 27.3915 1.78755 27.2519 1.30572Z" fill="#362F4C"/>
<path d="M43.1488 4.95715C42.6631 4.48258 42.1447 4.03187 41.6076 3.6176C41.2104 3.31124 40.6402 3.38486 40.3337 3.78193C40.0273 4.17912 40.1008 4.74947 40.4979 5.05584C40.9793 5.42711 41.444 5.83108 41.8794 6.25648C42.0559 6.42916 42.285 6.51502 42.514 6.51502C42.7499 6.51502 42.9858 6.42359 43.1637 6.24147C43.5143 5.88267 43.5076 5.30771 43.1488 4.95715Z" fill="#362F4C"/>
<path d="M15.8222 21.081C15.6798 20.4911 15.5711 19.8854 15.4989 19.2807C15.4393 18.7827 14.9879 18.4273 14.4893 18.4867C13.9913 18.5462 13.6358 18.9982 13.6952 19.4962C13.776 20.1714 13.8974 20.8481 14.0564 21.507C14.1568 21.9231 14.5287 22.2025 14.9386 22.2025C15.0091 22.2025 15.0808 22.1943 15.1523 22.1769C15.64 22.0592 15.9398 21.5686 15.8222 21.081Z" fill="#362F4C"/>
<path d="M42.5995 29.1643C42.2669 28.789 41.6929 28.7542 41.3175 29.0867C40.862 29.4902 40.3781 29.8708 39.8794 30.2181C39.4678 30.5046 39.3663 31.0707 39.6529 31.4823C39.8295 31.7359 40.112 31.8718 40.3991 31.8718C40.5782 31.8718 40.7591 31.819 40.9171 31.7089C41.4738 31.3214 42.0138 30.8966 42.5219 30.4464C42.8974 30.1137 42.9321 29.5397 42.5995 29.1643Z" fill="#362F4C"/>
<path d="M45.945 24.437C45.5036 24.1989 44.9526 24.3634 44.7144 24.805C44.4258 25.3397 44.1022 25.8633 43.7522 26.3616C43.464 26.7721 43.5629 27.3385 43.9734 27.6268C44.1323 27.7383 44.3143 27.7919 44.4946 27.7919C44.7804 27.7919 45.0618 27.6572 45.2386 27.4056C45.6293 26.8494 45.9906 26.2646 46.3128 25.6676C46.5512 25.2261 46.3863 24.6751 45.945 24.437Z" fill="#362F4C"/>
<path d="M21.8077 30.0215C21.3164 29.6635 20.8409 29.2724 20.3939 28.859C20.0258 28.5183 19.4511 28.5407 19.1104 28.9089C18.7698 29.2771 18.7922 29.8517 19.1603 30.1923C19.6589 30.6536 20.1896 31.09 20.7377 31.4895C20.8995 31.6071 21.0866 31.6637 21.2721 31.6637C21.5524 31.6637 21.8291 31.5343 22.0068 31.2904C22.3022 30.8851 22.2131 30.3169 21.8077 30.0215Z" fill="#362F4C"/>
<path d="M37.8347 32.454C37.6522 31.9869 37.1256 31.7561 36.6583 31.9388C36.6008 31.9612 36.5431 31.9834 36.4855 32.0052C36.0163 32.1825 35.7795 32.7066 35.9568 33.1758C36.0941 33.5393 36.4396 33.7632 36.8066 33.7632C36.9132 33.7632 37.0217 33.7444 37.1274 33.7044C37.1916 33.6802 37.2557 33.6556 37.3195 33.6305C37.7867 33.4479 38.0173 32.9212 37.8347 32.454Z" fill="#362F4C"/>
<path d="M18.0191 26.0815C17.6802 25.5758 17.368 25.0453 17.0913 24.5047C16.8628 24.0583 16.3158 23.8813 15.8691 24.11C15.4226 24.3385 15.2459 24.8857 15.4744 25.3322C15.7833 25.9359 16.132 26.5283 16.5105 27.0929C16.6856 27.3543 16.973 27.4955 17.2657 27.4955C17.4395 27.4955 17.6153 27.4456 17.7705 27.3416C18.1871 27.0622 18.2985 26.4981 18.0191 26.0815Z" fill="#362F4C"/>
<path d="M47.4474 18.8436C46.9506 18.7732 46.4912 19.119 46.4208 19.6155C46.3356 20.2185 46.2135 20.8221 46.058 21.4095C45.9297 21.8944 46.2189 22.3915 46.7037 22.5199C46.7816 22.5404 46.8597 22.5502 46.9366 22.5502C47.3386 22.5502 47.7063 22.2812 47.814 21.8741C47.9877 21.2176 48.124 20.5434 48.2193 19.8698C48.2897 19.3733 47.944 18.9138 47.4474 18.8436Z" fill="#362F4C"/>
<path d="M30.9819 4.85352C24.0581 4.85352 18.4253 10.4864 18.4253 17.4102C18.4253 21.8807 20.832 26.049 24.7064 28.2885C24.8496 28.3712 25.0059 28.4105 25.1602 28.4105C25.4738 28.4105 25.779 28.2478 25.9473 27.9567C26.1983 27.5224 26.0497 26.9669 25.6155 26.7158C22.3008 24.7998 20.2417 21.234 20.2417 17.4101C20.2417 11.4879 25.0598 6.6698 30.9819 6.6698C36.904 6.6698 41.7221 11.4879 41.7221 17.4101C41.7221 21.2324 39.6643 24.7973 36.3518 26.7138C35.9177 26.9649 35.7693 27.5205 36.0205 27.9547C36.2716 28.3889 36.8272 28.5372 37.2615 28.286C41.1333 26.0461 43.5385 21.8786 43.5385 17.4101C43.5385 10.4864 37.9056 4.85352 30.9819 4.85352Z" fill="#362F4C"/>
</svg>
