<svg width="193" height="42" viewBox="0 0 193 42" fill="none" xmlns="http://www.w3.org/2000/svg">
<g clip-path="url(#clip0)">
<path d="M7.41847 0H18.9387V1.0207H7.41847C6.58202 1.0207 5.74557 1.20972 4.98516 1.54995C4.18672 1.92799 3.50235 2.45725 2.89402 3.13771C2.28569 3.81818 1.82945 4.64986 1.48726 5.55716C1.1831 6.42664 0.992995 7.37174 0.992995 8.35463V23.7408C0.992995 24.7237 1.1831 25.6688 1.48726 26.5383C1.82945 27.4455 2.28569 28.2394 2.89402 28.9199C3.50235 29.6004 4.18672 30.1674 4.98516 30.5455C5.74557 30.8857 6.58202 31.0747 7.41847 31.0747H18.9387V32.0954H7.41847C6.42994 32.0954 5.47942 31.8686 4.60495 31.4527C3.69246 31.0369 2.89402 30.3942 2.20965 29.6382C1.52528 28.8443 0.992995 27.937 0.612789 26.9163C0.232583 25.9334 0.0424805 24.8371 0.0424805 23.7408V8.35463C0.0424805 7.25833 0.232583 6.16202 0.612789 5.17912C0.992995 4.15842 1.52528 3.25112 2.20965 2.45725C2.89402 1.70117 3.69246 1.05851 4.60495 0.642664C5.47942 0.226823 6.42994 0 7.41847 0Z" fill="#31304F"/>
<path d="M104.332 0H118.286C119.274 0 120.263 0.226823 121.137 0.642664C123 1.54996 124.407 3.25113 125.129 5.17912C125.471 6.16202 125.7 7.25833 125.7 8.35464V23.7408C125.7 24.8371 125.471 25.8956 125.129 26.8785C124.749 27.8992 124.217 28.8065 123.532 29.6004C122.886 30.3564 122.126 30.9613 121.251 31.3771C120.491 31.7552 119.692 31.982 118.818 32.0576V40.3744C118.818 40.5257 118.818 40.6769 118.742 40.8281C118.704 40.9793 118.666 41.1305 118.552 41.2439C118.476 41.3951 118.4 41.5086 118.248 41.622C118.133 41.7354 118.019 41.811 117.867 41.8866C117.715 41.9244 117.563 41.9622 117.373 42C117.183 42 117.031 41.9622 116.841 41.8866C116.613 41.811 116.385 41.6976 116.156 41.5086C115.928 41.3195 115.7 41.0927 115.51 40.8281L108.552 32.0954H104.332V31.0747H109.009C111.404 34.1368 113.799 37.1611 116.232 40.1854C116.385 40.4122 116.537 40.5635 116.689 40.6769C116.841 40.8281 116.993 40.9037 117.107 40.9415C117.221 40.9793 117.259 40.9793 117.335 40.9793C117.411 40.9793 117.449 40.9793 117.525 40.9415C117.563 40.9415 117.601 40.9037 117.639 40.8659C117.715 40.8281 117.753 40.7525 117.791 40.7147C117.791 40.6769 117.829 40.6013 117.867 40.5635C117.867 40.4879 117.867 40.45 117.867 40.3744V31.1125L118.362 31.0747C119.198 31.0747 120.035 30.8857 120.757 30.5077C121.555 30.1296 122.24 29.6004 122.848 28.9199C123.456 28.2394 123.913 27.4077 124.255 26.5383C124.559 25.6688 124.749 24.7237 124.749 23.7408V8.35464C124.749 7.37174 124.559 6.42664 124.255 5.55716C123.913 4.64987 123.418 3.81818 122.81 3.13771C122.24 2.45725 121.517 1.92799 120.719 1.54996C119.997 1.20972 119.16 1.0207 118.286 1.0207H104.332V0Z" fill="#31304F"/>
<path d="M17.5693 0H105.473V1.0207H17.5693V0ZM17.5693 31.0747H105.473V32.0954H17.5693V31.0747Z" fill="#31304F"/>
<path d="M11.5999 16.2557H9.92704V23.514H8.67236V8.16565H9.92704V15.1593H11.5999L17.6452 8.16565H19.09L19.128 8.24125L12.7025 15.613L19.7364 23.4762V23.514H18.2155L11.5999 16.2557ZM28.4811 23.514C28.405 23.1359 28.367 22.7579 28.329 22.4933C28.291 22.1908 28.253 21.8884 28.253 21.586C27.8728 22.2287 27.3024 22.7201 26.5801 23.1359C25.8957 23.5518 25.0592 23.7408 24.1467 23.7408C23.0061 23.7408 22.1316 23.4384 21.5233 22.8335C20.915 22.2665 20.6108 21.4348 20.6108 20.4141C20.6108 19.3934 21.0291 18.5995 21.9415 17.9568C22.854 17.3142 23.9947 17.0117 25.4394 17.0117H28.253V15.613C28.253 14.7813 27.9868 14.1386 27.4926 13.685C26.9603 13.2314 26.2379 12.9667 25.2874 12.9667C24.4129 12.9667 23.7285 13.1935 23.1962 13.6094C22.6639 14.0252 22.3978 14.5545 22.3978 15.1971H21.2192L21.1811 15.1593C21.1431 14.2899 21.5233 13.5338 22.2837 12.8911C23.0822 12.2485 24.0707 11.9082 25.3634 11.9082C26.6181 11.9082 27.6066 12.2106 28.367 12.8533C29.1274 13.496 29.5076 14.4411 29.5076 15.613V21.2079C29.5076 21.6238 29.5457 22.0018 29.5837 22.3799C29.6217 22.7579 29.6977 23.1359 29.8118 23.514H28.4811ZM24.2608 22.6067C25.2493 22.6067 26.0858 22.3799 26.8082 21.9262C27.5306 21.4726 28.0248 20.8677 28.253 20.1494V17.9946H25.4394C24.4129 17.9946 23.5384 18.2214 22.8921 18.7129C22.2077 19.2043 21.8655 19.7714 21.8655 20.4897C21.8655 21.1323 22.0936 21.6238 22.5119 22.0396C22.9301 22.4177 23.5384 22.6067 24.2608 22.6067ZM37.644 13.1935L36.7316 13.1557C35.9331 13.1557 35.2868 13.3448 34.7925 13.7984C34.2602 14.2521 33.918 14.8569 33.6899 15.6508V23.514H32.3972V12.135H33.5378L33.6899 14.0252V14.1386C33.9941 13.4204 34.4503 12.8911 35.0206 12.5131C35.5909 12.0972 36.2373 11.9082 36.9977 11.9082C37.1498 11.9082 37.3019 11.9082 37.4539 11.946C37.606 11.9838 37.7201 11.9838 37.7961 12.0216L37.644 13.1935ZM43.4612 23.7408C41.9784 23.7408 40.7998 23.2115 39.8492 22.1908C38.9367 21.1323 38.4805 19.8092 38.4805 18.1458V17.5788C38.4805 15.9154 38.9367 14.5923 39.8873 13.496C40.7998 12.4375 41.9784 11.9082 43.3471 11.9082C44.7539 11.9082 45.8185 12.3619 46.5789 13.2314C47.3393 14.1386 47.7195 15.3106 47.7195 16.8227V17.8056H39.7352V18.1458C39.7352 19.469 40.0774 20.5275 40.7237 21.397C41.4081 22.2287 42.3206 22.6823 43.4612 22.6823C44.1836 22.6823 44.8299 22.5689 45.4002 22.3421C45.9706 22.1152 46.4648 21.8128 46.845 21.397L47.4153 22.2665C46.9971 22.6823 46.4648 23.0603 45.8185 23.325C45.1721 23.5896 44.3737 23.7408 43.4612 23.7408ZM43.3471 12.9667C42.3966 12.9667 41.5982 13.3448 40.9518 14.0252C40.3435 14.7057 39.9633 15.613 39.8492 16.6715L39.8873 16.7471H46.4648V16.4825C46.4648 15.4618 46.1987 14.6301 45.6664 13.9496C45.1341 13.307 44.3357 12.9667 43.3471 12.9667ZM51.2174 23.514H49.9627V7.06934H51.2174V23.514ZM55.6278 23.514H54.3731V12.135H55.6278V23.514ZM55.6278 8.84611H54.3731V7.06934H55.6278V8.84611ZM65.9314 23.514C65.8553 23.1359 65.7793 22.7579 65.7413 22.4933C65.7032 22.1908 65.6652 21.8884 65.6652 21.586C65.285 22.2287 64.7527 22.7201 64.0303 23.1359C63.3079 23.5518 62.4715 23.7408 61.559 23.7408C60.4564 23.7408 59.5819 23.4384 58.9356 22.8335C58.3272 22.2665 58.0231 21.4348 58.0231 20.4141C58.0231 19.3934 58.4793 18.5995 59.3538 17.9568C60.2663 17.3142 61.4449 17.0117 62.8517 17.0117H65.6652V15.613C65.6652 14.7813 65.4371 14.1386 64.9048 13.685C64.3725 13.2314 63.6501 12.9667 62.6996 12.9667C61.8251 12.9667 61.1408 13.1935 60.6085 13.6094C60.0762 14.0252 59.81 14.5545 59.81 15.1971H58.6314L58.5934 15.1593C58.5554 14.2899 58.9356 13.5338 59.696 12.8911C60.4944 12.2485 61.521 11.9082 62.7757 11.9082C64.0303 11.9082 65.0569 12.2106 65.8173 12.8533C66.5777 13.496 66.9579 14.4411 66.9579 15.613V21.2079C66.9579 21.6238 66.9579 22.0018 66.9959 22.3799C67.072 22.7579 67.148 23.1359 67.2241 23.514H65.9314ZM61.7111 22.6067C62.6616 22.6067 63.5361 22.3799 64.2204 21.9262C64.9428 21.4726 65.4371 20.8677 65.6652 20.1494V17.9946H62.8517C61.8251 17.9946 60.9887 18.2214 60.3043 18.7129C59.6199 19.2043 59.2778 19.7714 59.2778 20.4897C59.2778 21.1323 59.5059 21.6238 59.9241 22.0396C60.3804 22.4177 60.9507 22.6067 61.7111 22.6067Z" fill="#31304F"/>
<path d="M70.9503 12.135L71.0643 14.1008C71.4445 13.4204 71.9388 12.8533 72.5851 12.4753C73.1935 12.0972 73.9159 11.9082 74.7903 11.9082C76.007 11.9082 76.9575 12.2862 77.6039 13.0423C78.2882 13.7984 78.5924 14.9703 78.5924 16.5581V23.514H77.3377V16.5959C77.3377 15.2727 77.0716 14.3654 76.5773 13.7984C76.083 13.2691 75.3987 13.0045 74.4862 13.0045C73.5737 13.0045 72.8513 13.2313 72.319 13.685C71.7487 14.1008 71.3685 14.7057 71.1023 15.4618V23.514H69.8477V12.135H70.9503ZM85.7783 23.7408C84.2955 23.7408 83.0788 23.2115 82.1663 22.1908C81.2538 21.1323 80.7596 19.8092 80.7596 18.1458V17.5788C80.7596 15.9154 81.2538 14.5923 82.1663 13.496C83.1168 12.4375 84.2575 11.9082 85.6642 11.9082C87.033 11.9082 88.1356 12.3618 88.896 13.2313C89.6564 14.1386 90.0366 15.3105 90.0366 16.8227V17.8056H82.0523V18.1458C82.0523 19.469 82.3564 20.5275 83.0408 21.3969C83.6871 22.2286 84.5996 22.6823 85.7783 22.6823C86.4627 22.6823 87.109 22.5689 87.7173 22.342C88.2876 22.1152 88.7819 21.8128 89.1621 21.3969L89.6944 22.2664C89.3142 22.6823 88.7819 23.0603 88.1356 23.3249C87.4512 23.5896 86.6908 23.7408 85.7783 23.7408ZM85.6642 12.9667C84.6757 12.9667 83.8773 13.3447 83.2689 14.0252C82.6226 14.7057 82.2424 15.613 82.1663 16.6715V16.7471H88.7439V16.4825C88.7439 15.4618 88.4777 14.6301 87.9455 13.9496C87.4132 13.3069 86.6528 12.9667 85.6642 12.9667ZM94.561 19.8092L95.0173 21.8884H95.0553L95.5876 19.8092L98.0209 12.135H99.1235L101.557 19.8092L102.089 21.964H102.165L102.659 19.8092L104.713 12.135H106.043L102.735 23.514H101.633L99.0475 15.7264L98.5912 13.874H98.5152L98.0589 15.7264L95.5115 23.514H94.447L91.1012 12.135H92.4699L94.561 19.8092ZM114.902 20.6031C114.902 20.0738 114.674 19.6202 114.218 19.2043C113.799 18.7885 113.001 18.4861 111.822 18.2214C110.492 17.9568 109.465 17.5788 108.819 17.0873C108.172 16.5959 107.83 15.9154 107.83 15.0459C107.83 14.1386 108.172 13.4204 108.933 12.8155C109.655 12.2106 110.644 11.9082 111.86 11.9082C113.153 11.9082 114.142 12.2484 114.902 12.8911C115.7 13.496 116.043 14.2898 116.005 15.2349V15.3105H114.826C114.826 14.6679 114.56 14.1386 113.99 13.685C113.457 13.2313 112.735 12.9667 111.86 12.9667C110.948 12.9667 110.264 13.1935 109.769 13.5716C109.313 13.9874 109.085 14.4411 109.085 14.9703C109.085 15.4996 109.275 15.9154 109.693 16.2934C110.073 16.6337 110.872 16.8983 112.089 17.1629C113.419 17.4654 114.446 17.8812 115.13 18.4105C115.815 18.9397 116.157 19.658 116.157 20.5275C116.157 21.4726 115.777 22.2664 114.978 22.8335C114.218 23.4384 113.191 23.7408 111.936 23.7408C110.53 23.7408 109.427 23.4005 108.629 22.7579C107.868 22.0774 107.488 21.3213 107.526 20.3762V20.3384H108.705C108.743 21.1323 109.085 21.7372 109.693 22.1152C110.34 22.4933 111.062 22.6823 111.936 22.6823C112.849 22.6823 113.571 22.4555 114.104 22.0774C114.636 21.6616 114.902 21.1701 114.902 20.6031Z" fill="#2B2A29"/>
<path d="M135.775 11.9081V11.9459C135.775 12.5508 135.585 13.0422 135.167 13.3825C134.786 13.7605 134.216 13.9495 133.57 13.9495C132.885 13.9495 132.315 13.6849 131.897 13.1934C131.479 12.702 131.25 12.0593 131.25 11.2654V10.2825C131.25 9.48867 131.479 8.84601 131.897 8.35456C132.315 7.8253 132.885 7.59848 133.57 7.59848C134.254 7.59848 134.786 7.7497 135.167 8.12773C135.585 8.46797 135.775 8.95942 135.775 9.56428V9.60208H135.281C135.281 9.11063 135.129 8.73259 134.824 8.43016C134.52 8.16554 134.102 8.01432 133.57 8.01432C133.037 8.01432 132.581 8.24115 132.277 8.65699C131.935 9.07283 131.783 9.60208 131.783 10.2447V11.2654C131.783 11.9459 131.935 12.4752 132.277 12.891C132.581 13.3069 133.037 13.5337 133.57 13.5337C134.102 13.5337 134.52 13.3825 134.824 13.1178C135.129 12.8532 135.281 12.4374 135.281 11.9081H135.775ZM139.881 13.8361C139.843 13.6849 139.843 13.5715 139.805 13.4203C139.805 13.3069 139.805 13.1934 139.805 13.08C139.653 13.3447 139.425 13.5337 139.121 13.6849C138.855 13.8739 138.512 13.9495 138.132 13.9495C137.676 13.9495 137.334 13.8361 137.106 13.5715C136.84 13.3447 136.725 13.0044 136.725 12.6264C136.725 12.2105 136.878 11.8703 137.258 11.6057C137.6 11.3411 138.094 11.2276 138.664 11.2276H139.805V10.6606C139.805 10.3204 139.691 10.0935 139.501 9.90451C139.273 9.71549 138.969 9.60208 138.588 9.60208C138.246 9.60208 137.98 9.71549 137.752 9.86671C137.524 10.0179 137.448 10.2447 137.448 10.5094H136.954V10.4716C136.916 10.1313 137.068 9.8289 137.41 9.56428C137.714 9.29965 138.132 9.18624 138.626 9.18624C139.121 9.18624 139.539 9.29965 139.843 9.56428C140.147 9.8289 140.299 10.2069 140.299 10.6606V12.9288C140.299 13.08 140.299 13.2312 140.337 13.3825C140.337 13.5715 140.375 13.6849 140.413 13.8361H139.881ZM138.208 13.4959C138.588 13.4959 138.931 13.3825 139.197 13.2312C139.501 13.0422 139.691 12.7776 139.805 12.513V11.6057H138.664C138.246 11.6057 137.904 11.7191 137.638 11.9081C137.372 12.0971 137.22 12.3618 137.22 12.6264C137.22 12.891 137.296 13.08 137.486 13.269C137.638 13.4203 137.904 13.4959 138.208 13.4959ZM144.672 9.26185H145.166V13.8361H144.672V10.0935H144.634L142.2 13.8361H141.668V9.26185H142.2V13.0044L144.672 9.26185ZM144.596 7.44727L144.634 7.48507C144.634 7.7875 144.52 8.05213 144.292 8.24115C144.101 8.43016 143.797 8.54358 143.417 8.54358C143.037 8.54358 142.733 8.43016 142.505 8.24115C142.276 8.05213 142.2 7.7875 142.2 7.48507V7.44727H142.619C142.619 7.67409 142.695 7.8253 142.809 7.97652C142.923 8.08993 143.151 8.16554 143.417 8.16554C143.683 8.16554 143.873 8.08993 144.025 7.97652C144.139 7.8253 144.216 7.67409 144.216 7.44727H144.596ZM149.957 9.71549H148.284V13.8361H147.789V9.71549H146.155V9.26185H149.957V9.71549ZM155.926 9.71549H153.607V13.8361H153.074V9.26185H155.926V9.71549ZM156.382 11.4923C156.382 10.8118 156.572 10.2447 156.914 9.8289C157.295 9.41306 157.789 9.18624 158.397 9.18624C159.044 9.18624 159.538 9.41306 159.88 9.8289C160.26 10.2447 160.45 10.8118 160.45 11.4923V11.6435C160.45 12.324 160.26 12.8532 159.88 13.3069C159.538 13.7227 159.044 13.9495 158.435 13.9495C157.789 13.9495 157.295 13.7227 156.914 13.3069C156.572 12.8532 156.382 12.324 156.382 11.6435V11.4923ZM156.876 11.6435C156.876 12.1727 157.028 12.6264 157.295 12.9666C157.561 13.3447 157.941 13.5337 158.435 13.5337C158.891 13.5337 159.272 13.3447 159.538 12.9666C159.804 12.6264 159.956 12.1727 159.956 11.6435V11.4923C159.956 10.963 159.804 10.5094 159.538 10.1691C159.272 9.7911 158.891 9.60208 158.397 9.60208C157.941 9.60208 157.561 9.7911 157.295 10.1691C157.028 10.5094 156.876 10.963 156.876 11.4923V11.6435ZM165.241 11.6813C165.241 12.3618 165.089 12.9288 164.785 13.3447C164.442 13.7227 164.024 13.9495 163.492 13.9495C163.15 13.9495 162.884 13.8739 162.617 13.7605C162.389 13.6471 162.199 13.4581 162.047 13.2312V15.6129H161.515V9.26185H161.895L162.009 9.98012C162.161 9.71549 162.351 9.52647 162.617 9.37526C162.846 9.26185 163.15 9.18624 163.454 9.18624C164.024 9.18624 164.442 9.41306 164.785 9.8289C165.089 10.2825 165.241 10.8496 165.241 11.6057V11.6813ZM164.709 11.6057C164.709 11.0008 164.595 10.5472 164.366 10.1691C164.138 9.7911 163.796 9.60208 163.34 9.60208C162.998 9.60208 162.732 9.71549 162.503 9.86671C162.313 10.0179 162.161 10.2447 162.047 10.5094V12.702C162.161 12.9666 162.313 13.1556 162.541 13.3069C162.77 13.4581 163.036 13.5337 163.378 13.5337C163.796 13.5337 164.138 13.3447 164.366 13.0044C164.595 12.6642 164.709 12.2483 164.709 11.6813V11.6057ZM166.115 11.4923C166.115 10.8118 166.267 10.2447 166.648 9.8289C167.028 9.41306 167.522 9.18624 168.13 9.18624C168.739 9.18624 169.233 9.41306 169.613 9.8289C169.993 10.2447 170.184 10.8118 170.184 11.4923V11.6435C170.184 12.324 169.993 12.8532 169.613 13.3069C169.271 13.7227 168.777 13.9495 168.13 13.9495C167.522 13.9495 167.028 13.7227 166.648 13.3069C166.267 12.8532 166.115 12.324 166.115 11.6435V11.4923ZM166.61 11.6435C166.61 12.1727 166.762 12.6264 167.028 12.9666C167.294 13.3447 167.674 13.5337 168.13 13.5337C168.625 13.5337 169.005 13.3447 169.271 12.9666C169.537 12.6264 169.689 12.1727 169.689 11.6435V11.4923C169.689 10.963 169.537 10.5094 169.271 10.1691C169.005 9.7911 168.625 9.60208 168.13 9.60208C167.674 9.60208 167.294 9.7911 167.028 10.1691C166.762 10.5094 166.61 10.963 166.61 11.4923V11.6435ZM171.248 13.4203C171.438 13.4203 171.628 13.1934 171.78 12.7776C171.894 12.3618 171.971 11.7191 172.009 10.9252L172.123 9.26185H174.898V13.4203H175.316V15.3483H174.822V13.8361H171.324V15.3483H170.83V13.4203H171.248ZM172.541 10.9252C172.503 11.5301 172.427 12.0215 172.351 12.4374C172.275 12.8532 172.161 13.1934 172.009 13.4203H174.366V9.7533H172.579L172.541 10.9252ZM179.308 13.8361C179.27 13.6849 179.232 13.5715 179.232 13.4203C179.194 13.3069 179.194 13.1934 179.194 13.08C179.042 13.3447 178.814 13.5337 178.51 13.6849C178.244 13.8739 177.902 13.9495 177.522 13.9495C177.103 13.9495 176.723 13.8361 176.495 13.5715C176.229 13.3447 176.115 13.0044 176.115 12.6264C176.115 12.2105 176.305 11.8703 176.647 11.6057C177.027 11.3411 177.484 11.2276 178.054 11.2276H179.194V10.6606C179.194 10.3204 179.08 10.0935 178.89 9.90451C178.662 9.71549 178.396 9.60208 178.016 9.60208C177.636 9.60208 177.369 9.71549 177.141 9.86671C176.951 10.0179 176.837 10.2447 176.837 10.5094H176.343V10.4716C176.343 10.1313 176.495 9.8289 176.799 9.56428C177.103 9.29965 177.522 9.18624 178.016 9.18624C178.548 9.18624 178.928 9.29965 179.232 9.56428C179.537 9.8289 179.689 10.2069 179.689 10.6606V12.9288C179.689 13.08 179.727 13.2312 179.727 13.3825C179.765 13.5715 179.765 13.6849 179.841 13.8361H179.308ZM177.598 13.4959C177.978 13.4959 178.32 13.3825 178.624 13.2312C178.89 13.0422 179.08 12.7776 179.194 12.513V11.6057H178.054C177.636 11.6057 177.293 11.7191 177.027 11.9081C176.761 12.0971 176.609 12.3618 176.609 12.6264C176.609 12.891 176.723 13.08 176.875 13.269C177.065 13.4203 177.293 13.4959 177.598 13.4959ZM136.041 24.2699H135.509V18.5238H132.011V24.2699H131.479V18.1079H136.041V24.2699ZM139.273 24.3834C138.664 24.3834 138.17 24.1565 137.79 23.7407C137.448 23.3249 137.258 22.7956 137.258 22.1151V21.8883C137.258 21.2456 137.448 20.6786 137.79 20.2627C138.17 19.8091 138.664 19.6201 139.197 19.6201C139.767 19.6201 140.185 19.7713 140.528 20.1493C140.832 20.4896 140.984 20.981 140.984 21.5859V21.9639H137.752V22.1151C137.752 22.6444 137.904 23.098 138.17 23.4383C138.436 23.7785 138.779 23.9297 139.273 23.9297C139.539 23.9297 139.805 23.8919 140.033 23.8163C140.261 23.7029 140.451 23.5895 140.604 23.4383L140.832 23.7785C140.68 23.9675 140.451 24.0809 140.185 24.1943C139.957 24.3078 139.615 24.3834 139.273 24.3834ZM139.197 20.0359C138.817 20.0359 138.512 20.1871 138.246 20.4518C137.98 20.7542 137.828 21.0944 137.79 21.5103L137.828 21.5481H140.451V21.4347C140.451 21.0188 140.337 20.7164 140.147 20.4518C139.919 20.1871 139.615 20.0359 139.197 20.0359ZM145.394 20.1115H143.721V24.2699H143.189V20.1115H141.592V19.6957H145.394V20.1115ZM150.109 22.1151C150.109 22.7956 149.957 23.3627 149.614 23.7407C149.31 24.1565 148.892 24.3834 148.322 24.3834C148.018 24.3834 147.713 24.3078 147.485 24.1943C147.257 24.0809 147.029 23.8919 146.877 23.6651V26.0467H146.383V19.6957H146.763L146.877 20.414C147.029 20.1493 147.219 19.9603 147.447 19.8091C147.713 19.6579 147.98 19.6201 148.322 19.6201C148.892 19.6201 149.31 19.8091 149.614 20.2627C149.957 20.7164 150.109 21.2834 150.109 22.0395V22.1151ZM149.576 22.0395C149.576 21.4347 149.462 20.981 149.234 20.603C149.006 20.2249 148.664 20.0359 148.208 20.0359C147.865 20.0359 147.599 20.1115 147.371 20.3006C147.181 20.4518 146.991 20.6786 146.877 20.9054V23.1358C147.029 23.4005 147.181 23.5895 147.409 23.7407C147.599 23.8541 147.903 23.9297 148.208 23.9297C148.664 23.9297 149.006 23.7785 149.234 23.4383C149.462 23.098 149.576 22.6822 149.576 22.1151V22.0395ZM150.945 21.9261C150.945 21.2456 151.135 20.6786 151.515 20.2627C151.896 19.8091 152.39 19.6201 152.998 19.6201C153.607 19.6201 154.101 19.8091 154.481 20.2627C154.861 20.6786 155.051 21.2456 155.051 21.9261V22.0773C155.051 22.72 154.861 23.287 154.481 23.7407C154.101 24.1565 153.607 24.3834 152.998 24.3834C152.39 24.3834 151.896 24.1565 151.515 23.7407C151.135 23.287 150.945 22.72 150.945 22.0773V21.9261ZM151.477 22.0773C151.477 22.6066 151.591 23.0224 151.858 23.4005C152.162 23.7785 152.504 23.9297 152.998 23.9297C153.493 23.9297 153.835 23.7785 154.139 23.4005C154.405 23.0224 154.519 22.6066 154.519 22.0773V21.9261C154.519 21.3969 154.405 20.9432 154.139 20.603C153.835 20.2249 153.493 20.0359 152.998 20.0359C152.504 20.0359 152.162 20.2249 151.858 20.603C151.591 20.9432 151.477 21.3969 151.477 21.9261V22.0773ZM157.827 21.6993C158.245 21.6993 158.587 21.6615 158.777 21.5103C159.006 21.3591 159.12 21.17 159.12 20.9054C159.12 20.6408 159.006 20.4518 158.777 20.3006C158.549 20.1115 158.245 20.0359 157.827 20.0359C157.447 20.0359 157.104 20.1115 156.876 20.3006C156.61 20.4518 156.496 20.6786 156.496 20.9432H156.002V20.9054C155.964 20.5274 156.154 20.2249 156.496 19.9603C156.838 19.7335 157.295 19.6201 157.827 19.6201C158.359 19.6201 158.815 19.7335 159.12 19.9603C159.462 20.1871 159.614 20.4896 159.614 20.9054C159.614 21.1322 159.538 21.3213 159.386 21.5103C159.234 21.6993 159.006 21.8127 158.739 21.9261C159.044 22.0017 159.272 22.1529 159.462 22.342C159.614 22.531 159.69 22.7578 159.69 23.0224C159.69 23.4383 159.538 23.7785 159.158 24.0053C158.815 24.2321 158.359 24.3456 157.827 24.3456C157.295 24.3456 156.838 24.2321 156.458 24.0053C156.078 23.7785 155.888 23.4383 155.926 22.9846H156.382C156.382 23.2492 156.534 23.4761 156.8 23.6651C157.066 23.8541 157.409 23.9297 157.827 23.9297C158.245 23.9297 158.587 23.8541 158.815 23.7029C159.044 23.5139 159.196 23.287 159.196 23.0224C159.196 22.72 159.082 22.4932 158.853 22.3798C158.625 22.2285 158.283 22.1529 157.827 22.1529H157.028V21.6993H157.827ZM163.796 24.2699C163.758 24.1187 163.72 23.9675 163.72 23.8541C163.682 23.7407 163.682 23.6273 163.682 23.5139C163.53 23.7407 163.302 23.9675 162.998 24.1187C162.732 24.2699 162.389 24.3834 162.009 24.3834C161.591 24.3834 161.211 24.2321 160.983 24.0053C160.716 23.7785 160.602 23.4383 160.602 23.0224C160.602 22.6444 160.792 22.3042 161.135 22.0395C161.515 21.7749 161.971 21.6615 162.541 21.6615H163.682V21.0944C163.682 20.7542 163.568 20.4896 163.378 20.3006C163.15 20.1493 162.884 20.0359 162.503 20.0359C162.123 20.0359 161.857 20.1115 161.629 20.3006C161.439 20.4518 161.325 20.6786 161.325 20.9432H160.83V20.9054C160.83 20.5652 160.983 20.2627 161.287 19.9981C161.591 19.7335 162.009 19.6201 162.503 19.6201C162.998 19.6201 163.416 19.7335 163.72 19.9981C164.024 20.2627 164.176 20.603 164.176 21.0944V23.3627C164.176 23.5139 164.214 23.6651 164.214 23.8163C164.252 23.9675 164.252 24.1187 164.328 24.2699H163.796ZM162.085 23.9297C162.465 23.9297 162.808 23.8163 163.112 23.6273C163.378 23.4383 163.568 23.2114 163.682 22.909V22.0395H162.541C162.123 22.0395 161.781 22.1529 161.515 22.342C161.249 22.531 161.097 22.7956 161.097 23.0602C161.097 23.3249 161.211 23.5139 161.363 23.6651C161.553 23.8541 161.781 23.9297 162.085 23.9297ZM165.583 24.2699V19.6957H167.256C167.864 19.6957 168.283 19.8091 168.625 19.9981C168.929 20.1871 169.081 20.5274 169.081 20.9054C169.081 21.17 169.005 21.3591 168.891 21.5481C168.739 21.6993 168.549 21.8505 168.283 21.9261C168.587 21.9639 168.815 22.1151 169.005 22.3042C169.195 22.531 169.271 22.7578 169.271 23.0224C169.271 23.4383 169.119 23.7407 168.815 23.9675C168.511 24.1565 168.092 24.2699 167.56 24.2699H165.583ZM166.077 22.1529V23.8541H167.56C167.94 23.8541 168.245 23.7785 168.435 23.6273C168.663 23.4761 168.777 23.287 168.777 22.9846C168.777 22.7578 168.663 22.531 168.435 22.3798C168.245 22.2285 167.94 22.1529 167.56 22.1529H166.077ZM166.077 21.7371H167.332C167.75 21.7371 168.054 21.6615 168.245 21.5481C168.473 21.3969 168.587 21.2078 168.587 20.9432C168.587 20.6408 168.473 20.4518 168.245 20.3384C168.016 20.1871 167.712 20.1115 167.256 20.1115H166.077V21.7371ZM170.146 21.9261C170.146 21.2456 170.336 20.6786 170.678 20.2627C171.058 19.8091 171.552 19.6201 172.161 19.6201C172.807 19.6201 173.301 19.8091 173.643 20.2627C174.024 20.6786 174.214 21.2456 174.214 21.9261V22.0773C174.214 22.72 174.024 23.287 173.643 23.7407C173.301 24.1565 172.807 24.3834 172.161 24.3834C171.552 24.3834 171.058 24.1565 170.678 23.7407C170.336 23.287 170.146 22.72 170.146 22.0773V21.9261ZM170.64 22.0773C170.64 22.6066 170.792 23.0224 171.058 23.4005C171.324 23.7785 171.704 23.9297 172.161 23.9297C172.655 23.9297 173.035 23.7785 173.301 23.4005C173.567 23.0224 173.719 22.6066 173.719 22.0773V21.9261C173.719 21.3969 173.567 20.9432 173.301 20.603C173.035 20.2249 172.655 20.0359 172.161 20.0359C171.704 20.0359 171.324 20.2249 171.058 20.603C170.792 20.9432 170.64 21.3969 170.64 21.9261V22.0773ZM175.278 23.8541C175.506 23.8541 175.659 23.6273 175.811 23.2114C175.925 22.7956 176.001 22.1529 176.039 21.3591L176.153 19.6957H178.928V23.8541H179.347V25.7821H178.852V24.2699H175.354V25.7821H174.86V23.8541H175.278ZM176.571 21.3591C176.533 21.9639 176.457 22.4554 176.381 22.8712C176.305 23.287 176.191 23.6273 176.039 23.8541H178.396V20.1493H176.647L176.571 21.3591ZM182.084 23.9297C182.426 23.9297 182.692 23.8541 182.958 23.6651C183.225 23.4761 183.339 23.2114 183.339 22.8334H183.795V22.8712C183.795 23.287 183.643 23.6651 183.301 23.9297C182.958 24.2321 182.54 24.3834 182.084 24.3834C181.476 24.3834 180.981 24.1565 180.639 23.7407C180.297 23.287 180.145 22.7578 180.145 22.0773V21.8883C180.145 21.2456 180.297 20.6786 180.639 20.2627C180.981 19.8091 181.476 19.6201 182.084 19.6201C182.578 19.6201 182.996 19.7713 183.339 20.0359C183.643 20.3384 183.795 20.7542 183.795 21.2078V21.2456H183.339C183.339 20.8676 183.225 20.603 182.958 20.3762C182.73 20.1493 182.426 20.0359 182.084 20.0359C181.59 20.0359 181.248 20.2249 181.019 20.5652C180.753 20.9054 180.639 21.3591 180.639 21.8883V22.0773C180.639 22.6066 180.753 23.0602 181.019 23.4005C181.248 23.7785 181.59 23.9297 182.084 23.9297ZM186 22.1907H185.43V24.2699H184.898V19.6957H185.43V21.7371H186L187.825 19.6957H188.433L186.456 21.9261L188.662 24.2699H188.015L186 22.1907ZM192.426 24.2699C192.388 24.1187 192.388 23.9675 192.35 23.8541C192.35 23.7407 192.35 23.6273 192.35 23.5139C192.159 23.7407 191.969 23.9675 191.665 24.1187C191.361 24.2699 191.057 24.3834 190.677 24.3834C190.22 24.3834 189.878 24.2321 189.612 24.0053C189.384 23.7785 189.232 23.4383 189.232 23.0224C189.232 22.6444 189.422 22.3042 189.802 22.0395C190.144 21.7749 190.639 21.6615 191.209 21.6615H192.35V21.0944C192.35 20.7542 192.235 20.4896 192.007 20.3006C191.817 20.1493 191.513 20.0359 191.133 20.0359C190.791 20.0359 190.487 20.1115 190.296 20.3006C190.068 20.4518 189.954 20.6786 189.954 20.9432H189.498V20.9054C189.46 20.5652 189.612 20.2627 189.916 19.9981C190.258 19.7335 190.639 19.6201 191.171 19.6201C191.665 19.6201 192.083 19.7335 192.388 19.9981C192.692 20.2627 192.844 20.603 192.844 21.0944V23.3627C192.844 23.5139 192.844 23.6651 192.882 23.8163C192.882 23.9675 192.92 24.1187 192.958 24.2699H192.426ZM190.715 23.9297C191.133 23.9297 191.475 23.8163 191.741 23.6273C192.045 23.4383 192.235 23.2114 192.35 22.909V22.0395H191.209C190.791 22.0395 190.449 22.1529 190.182 22.342C189.878 22.531 189.764 22.7956 189.764 23.0602C189.764 23.3249 189.84 23.5139 190.03 23.6651C190.182 23.8541 190.449 23.9297 190.715 23.9297Z" fill="#323232"/>
</g>
<defs>
<clipPath id="clip0">
<rect width="193" height="42" fill="white"/>
</clipPath>
</defs>
</svg>
