<svg width="137" height="137" viewBox="0 0 137 137" fill="none" xmlns="http://www.w3.org/2000/svg">
<circle cx="68.5" cy="68.5" r="68.5" fill="#D31A2C"/>
<g clip-path="url(#clip0)">
<path d="M72.5251 107.726H62.133C59.7082 107.726 56.9369 105.648 56.9369 101.491V94.2165C56.9369 90.7525 55.2049 87.6349 52.4337 85.21C46.1984 80.3604 43.0808 73.4323 43.0808 65.8115C43.4272 52.6482 54.1657 42.2561 66.9826 41.9097C73.5643 41.9097 79.7995 44.3345 84.3028 48.8377C88.806 53.341 91.5773 59.5762 91.5773 66.1579C91.5773 73.4323 88.4596 80.3604 82.5708 84.8636C79.4531 87.2885 77.7211 91.0989 77.7211 94.5629V102.53C77.7211 105.301 75.2963 107.726 72.5251 107.726ZM67.329 45.3737C56.2441 45.3737 46.8912 54.7266 46.5448 65.8115C46.5448 72.3931 49.3161 78.6284 54.5121 82.4388C58.3226 85.5565 60.401 89.7133 60.401 94.2165V101.491C60.401 102.184 60.401 104.262 62.133 104.262H72.5251C73.5643 104.262 74.2571 103.569 74.2571 102.53V94.5629C74.2571 90.0597 76.6819 85.21 80.4924 82.0924C85.342 78.282 88.1132 72.3931 88.1132 66.1579C88.1132 60.6154 86.0348 55.4194 81.878 51.2625C78.0675 47.4521 72.8715 45.3737 67.329 45.3737Z" fill="white"/>
<path d="M75.9892 97.3341H58.669C57.6298 97.3341 56.937 96.6413 56.937 95.6021C56.937 94.5629 57.6298 93.8701 58.669 93.8701H75.9892C77.0284 93.8701 77.7212 94.5629 77.7212 95.6021C77.7212 96.6413 77.0284 97.3341 75.9892 97.3341Z" fill="white"/>
<path d="M67.3292 34.9817C66.29 34.9817 65.5972 34.2889 65.5972 33.2497V26.3216C65.5972 25.2824 66.29 24.5896 67.3292 24.5896C68.3684 24.5896 69.0612 25.2824 69.0612 26.3216V33.2497C69.0612 34.2889 68.3684 34.9817 67.3292 34.9817Z" fill="white"/>
<path d="M90.538 44.6808C90.1916 44.6808 89.4988 44.6808 89.1524 44.3344C88.4596 43.6415 88.4596 42.6023 89.1524 41.9095L94.0021 37.0599C94.6949 36.3671 95.7341 36.3671 96.4269 37.0599C97.1197 37.7527 97.1197 38.7919 96.4269 39.4847L91.5772 44.3344C91.5772 44.3344 90.8844 44.6808 90.538 44.6808Z" fill="white"/>
<path d="M107.165 67.8901H100.237C99.1982 67.8901 98.5054 67.1973 98.5054 66.158C98.5054 65.1188 99.1982 64.426 100.237 64.426H107.165C108.205 64.426 108.897 65.1188 108.897 66.158C108.897 67.1973 108.205 67.8901 107.165 67.8901Z" fill="white"/>
<path d="M95.3877 95.9488C95.0413 95.9488 94.3485 95.9488 94.0021 95.6024L89.1524 90.7528C88.4596 90.06 88.4596 89.0208 89.1524 88.328C89.8452 87.6351 90.8844 87.6351 91.5772 88.328L96.4269 93.1776C97.1197 93.8704 97.1197 94.9096 96.4269 95.6024C96.4269 95.9488 96.0805 95.9488 95.3877 95.9488Z" fill="white"/>
<path d="M39.2705 95.9488C38.924 95.9488 38.2312 95.9488 37.8848 95.6024C37.192 94.9096 37.192 93.8704 37.8848 93.1776L42.7345 88.328C43.4273 87.6351 44.4665 87.6351 45.1593 88.328C45.8521 89.0208 45.8521 90.06 45.1593 90.7528L40.3097 95.6024C39.9633 95.9488 39.6169 95.9488 39.2705 95.9488Z" fill="white"/>
<path d="M34.4208 67.8901H27.4928C26.4535 67.8901 25.7607 67.1973 25.7607 66.158C25.7607 65.1188 26.4535 64.426 27.4928 64.426H34.4208C35.46 64.426 36.1528 65.1188 36.1528 66.158C36.1528 67.1973 35.46 67.8901 34.4208 67.8901Z" fill="white"/>
<path d="M44.1201 44.681C43.7737 44.681 43.0809 44.681 42.7345 44.3346L37.8848 39.1385C37.192 38.4457 37.192 37.4065 37.8848 36.7137C38.5776 36.0209 39.6169 36.0209 40.3097 36.7137L45.1593 41.5633C45.8521 42.2561 45.8521 43.2954 45.1593 43.9882C44.8129 44.3346 44.4665 44.681 44.1201 44.681Z" fill="white"/>
<path d="M81.1853 67.89C80.1461 67.89 79.4533 67.1972 79.4533 66.158C79.4533 59.5763 73.9108 54.0339 67.3292 54.0339C66.29 54.0339 65.5972 53.341 65.5972 52.3018C65.5972 51.2626 66.29 50.5698 67.3292 50.5698C75.9893 50.5698 82.9173 57.4979 82.9173 66.158C82.9173 67.1972 82.2245 67.89 81.1853 67.89Z" fill="white"/>
</g>
<defs>
<clipPath id="clip0">
<rect width="83.1368" height="83.1368" fill="white" transform="translate(25.7607 24.5896)"/>
</clipPath>
</defs>
</svg>
