<svg width="110" height="92" viewBox="0 0 110 92" fill="none" xmlns="http://www.w3.org/2000/svg">
<path d="M35.6697 41.6964C32.9887 40.9245 30.3076 40.5329 27.6996 40.5329C23.6723 40.5329 20.3119 41.4532 17.7062 42.5802C20.2183 33.3838 26.2529 17.5156 38.2742 15.7286C39.3875 15.563 40.2999 14.758 40.6036 13.6744L43.231 4.27706C43.4525 3.48234 43.3212 2.63167 42.8679 1.94199C42.4146 1.25232 41.6861 0.792154 40.8697 0.680253C39.9824 0.559218 39.0781 0.497559 38.1818 0.497559C23.7523 0.497559 9.4621 15.5585 3.43202 37.1233C-0.107697 49.775 -1.14563 68.7958 7.57349 80.7681C12.4526 87.4672 19.5708 91.0446 28.7307 91.402C28.7684 91.4032 28.8049 91.4043 28.8426 91.4043C40.1446 91.4043 50.1665 83.7928 53.2153 72.8962C55.0365 66.382 54.2132 59.5503 50.8951 53.655C47.6122 47.8259 42.2056 43.5771 35.6697 41.6964Z" fill="white"/>
<path d="M106.417 53.6561C103.134 47.8258 97.7278 43.577 91.1919 41.6964C88.5108 40.9245 85.8298 40.5329 83.2229 40.5329C79.1957 40.5329 75.8341 41.4532 73.2284 42.5802C75.7404 33.3838 81.7751 17.5156 93.7976 15.7286C94.9109 15.563 95.822 14.758 96.1269 13.6744L98.7543 4.27706C98.9758 3.48234 98.8445 2.63167 98.3912 1.94199C97.939 1.25232 97.2105 0.792154 96.393 0.680253C95.5069 0.559218 94.6026 0.497559 93.7051 0.497559C79.2756 0.497559 64.9854 15.5585 58.9542 37.1233C55.4156 49.775 54.3777 68.7958 63.0979 80.7703C67.9759 87.4684 75.0953 91.0469 84.254 91.4032C84.2917 91.4043 84.3282 91.4055 84.3671 91.4055C95.6679 91.4055 105.691 83.7939 108.74 72.8973C110.559 66.3831 109.734 59.5503 106.417 53.6561Z" fill="white"/>
</svg>
