<svg width="148" height="120" viewBox="0 0 148 120" fill="none" xmlns="http://www.w3.org/2000/svg">
<path d="M21.0322 91.7246H17.833V100.598H16.5273V91.7246H13.335V90.6445H21.0322V91.7246ZM21.7705 100.598V93.2012H24.6553C25.6396 93.2012 26.3939 93.3743 26.918 93.7207C27.4466 94.0625 27.7109 94.5661 27.7109 95.2314C27.7109 95.5732 27.6084 95.8831 27.4033 96.1611C27.1982 96.4346 26.8952 96.6442 26.4941 96.79C26.9408 96.8949 27.2985 97.0999 27.5674 97.4053C27.8408 97.7106 27.9775 98.0752 27.9775 98.499C27.9775 99.1781 27.7269 99.6976 27.2256 100.058C26.7288 100.418 26.0247 100.598 25.1133 100.598H21.7705ZM23.0352 97.3506V99.5791H25.127C25.6556 99.5791 26.0498 99.4811 26.3096 99.2852C26.5739 99.0892 26.7061 98.8135 26.7061 98.458C26.7061 97.7197 26.1637 97.3506 25.0791 97.3506H23.0352ZM23.0352 96.3389H24.6689C25.8538 96.3389 26.4463 95.9925 26.4463 95.2998C26.4463 94.6071 25.8857 94.2493 24.7646 94.2266H23.0352V96.3389ZM29.3174 96.8311C29.3174 96.1064 29.4587 95.4548 29.7412 94.876C30.0283 94.2972 30.4248 93.8506 30.9307 93.5361C31.4411 93.2217 32.0221 93.0645 32.6738 93.0645C33.681 93.0645 34.4945 93.4131 35.1143 94.1104C35.7386 94.8076 36.0508 95.735 36.0508 96.8926V96.9814C36.0508 97.7015 35.9118 98.3486 35.6338 98.9229C35.3604 99.4925 34.9661 99.9368 34.4512 100.256C33.9408 100.575 33.3529 100.734 32.6875 100.734C31.6849 100.734 30.8714 100.386 30.2471 99.6885C29.6273 98.9912 29.3174 98.0684 29.3174 96.9199V96.8311ZM30.5889 96.9814C30.5889 97.8018 30.778 98.4603 31.1562 98.957C31.5391 99.4538 32.0495 99.7021 32.6875 99.7021C33.3301 99.7021 33.8405 99.4515 34.2188 98.9502C34.597 98.4443 34.7861 97.738 34.7861 96.8311C34.7861 96.0199 34.5924 95.3636 34.2051 94.8623C33.8223 94.3564 33.3118 94.1035 32.6738 94.1035C32.0495 94.1035 31.5459 94.3519 31.1631 94.8486C30.7803 95.3454 30.5889 96.0563 30.5889 96.9814ZM40.7061 100.734C39.7035 100.734 38.8877 100.406 38.2588 99.75C37.6299 99.0892 37.3154 98.2074 37.3154 97.1045V96.8721C37.3154 96.1383 37.4544 95.4844 37.7324 94.9102C38.015 94.3314 38.4069 93.8802 38.9082 93.5566C39.4141 93.2285 39.9609 93.0645 40.5488 93.0645C41.5104 93.0645 42.2578 93.3812 42.791 94.0146C43.3242 94.6481 43.5908 95.555 43.5908 96.7354V97.2617H38.5801C38.5983 97.9909 38.8102 98.5811 39.2158 99.0322C39.626 99.4788 40.1455 99.7021 40.7744 99.7021C41.221 99.7021 41.5993 99.611 41.9092 99.4287C42.2191 99.2464 42.4902 99.0049 42.7227 98.7041L43.4951 99.3057C42.8753 100.258 41.9456 100.734 40.7061 100.734ZM40.5488 94.1035C40.0384 94.1035 39.61 94.2904 39.2637 94.6641C38.9173 95.0332 38.7031 95.5527 38.6211 96.2227H42.3262V96.127C42.2897 95.4844 42.1165 94.9876 41.8066 94.6367C41.4967 94.2812 41.0775 94.1035 40.5488 94.1035ZM49.8389 94.2471H46.4277V100.598H45.1562V93.2012H49.8389V94.2471ZM50.4678 96.8311C50.4678 96.1064 50.609 95.4548 50.8916 94.876C51.1787 94.2972 51.5752 93.8506 52.0811 93.5361C52.5915 93.2217 53.1725 93.0645 53.8242 93.0645C54.8314 93.0645 55.6449 93.4131 56.2646 94.1104C56.889 94.8076 57.2012 95.735 57.2012 96.8926V96.9814C57.2012 97.7015 57.0622 98.3486 56.7842 98.9229C56.5107 99.4925 56.1165 99.9368 55.6016 100.256C55.0911 100.575 54.5033 100.734 53.8379 100.734C52.8353 100.734 52.0218 100.386 51.3975 99.6885C50.7777 98.9912 50.4678 98.0684 50.4678 96.9199V96.8311ZM51.7393 96.9814C51.7393 97.8018 51.9284 98.4603 52.3066 98.957C52.6895 99.4538 53.1999 99.7021 53.8379 99.7021C54.4805 99.7021 54.9909 99.4515 55.3691 98.9502C55.7474 98.4443 55.9365 97.738 55.9365 96.8311C55.9365 96.0199 55.7428 95.3636 55.3555 94.8623C54.9727 94.3564 54.4622 94.1035 53.8242 94.1035C53.1999 94.1035 52.6963 94.3519 52.3135 94.8486C51.9307 95.3454 51.7393 96.0563 51.7393 96.9814ZM68.6309 91.7246H63.832V100.598H62.5127V90.6445H68.6309V91.7246ZM68.4326 96.8311C68.4326 96.1064 68.5739 95.4548 68.8564 94.876C69.1436 94.2972 69.54 93.8506 70.0459 93.5361C70.5563 93.2217 71.1374 93.0645 71.7891 93.0645C72.7962 93.0645 73.6097 93.4131 74.2295 94.1104C74.8538 94.8076 75.166 95.735 75.166 96.8926V96.9814C75.166 97.7015 75.027 98.3486 74.749 98.9229C74.4756 99.4925 74.0814 99.9368 73.5664 100.256C73.056 100.575 72.4681 100.734 71.8027 100.734C70.8001 100.734 69.9867 100.386 69.3623 99.6885C68.7425 98.9912 68.4326 98.0684 68.4326 96.9199V96.8311ZM69.7041 96.9814C69.7041 97.8018 69.8932 98.4603 70.2715 98.957C70.6543 99.4538 71.1647 99.7021 71.8027 99.7021C72.4453 99.7021 72.9557 99.4515 73.334 98.9502C73.7122 98.4443 73.9014 97.738 73.9014 96.8311C73.9014 96.0199 73.7077 95.3636 73.3203 94.8623C72.9375 94.3564 72.4271 94.1035 71.7891 94.1035C71.1647 94.1035 70.6611 94.3519 70.2783 94.8486C69.8955 95.3454 69.7041 96.0563 69.7041 96.9814ZM83 96.9814C83 98.1071 82.7425 99.014 82.2275 99.7021C81.7126 100.39 81.0153 100.734 80.1357 100.734C79.238 100.734 78.5316 100.45 78.0166 99.8799V103.441H76.752V93.2012H77.9072L77.9688 94.0215C78.4837 93.3835 79.1992 93.0645 80.1152 93.0645C81.0039 93.0645 81.7057 93.3994 82.2207 94.0693C82.7402 94.7393 83 95.6712 83 96.8652V96.9814ZM81.7354 96.8379C81.7354 96.0039 81.5576 95.3454 81.2021 94.8623C80.8467 94.3792 80.359 94.1377 79.7393 94.1377C78.9736 94.1377 78.3994 94.4772 78.0166 95.1562V98.6904C78.3949 99.3649 78.9736 99.7021 79.7529 99.7021C80.359 99.7021 80.8398 99.4629 81.1953 98.9844C81.5553 98.5013 81.7354 97.7858 81.7354 96.8379ZM84.2783 96.8311C84.2783 96.1064 84.4196 95.4548 84.7021 94.876C84.9893 94.2972 85.3857 93.8506 85.8916 93.5361C86.402 93.2217 86.9831 93.0645 87.6348 93.0645C88.6419 93.0645 89.4554 93.4131 90.0752 94.1104C90.6995 94.8076 91.0117 95.735 91.0117 96.8926V96.9814C91.0117 97.7015 90.8727 98.3486 90.5947 98.9229C90.3213 99.4925 89.9271 99.9368 89.4121 100.256C88.9017 100.575 88.3138 100.734 87.6484 100.734C86.6458 100.734 85.8324 100.386 85.208 99.6885C84.5882 98.9912 84.2783 98.0684 84.2783 96.9199V96.8311ZM85.5498 96.9814C85.5498 97.8018 85.7389 98.4603 86.1172 98.957C86.5 99.4538 87.0104 99.7021 87.6484 99.7021C88.291 99.7021 88.8014 99.4515 89.1797 98.9502C89.5579 98.4443 89.7471 97.738 89.7471 96.8311C89.7471 96.0199 89.5534 95.3636 89.166 94.8623C88.7832 94.3564 88.2728 94.1035 87.6348 94.1035C87.0104 94.1035 86.5068 94.3519 86.124 94.8486C85.7412 95.3454 85.5498 96.0563 85.5498 96.9814ZM92.0439 99.5654L92.4814 99.0254C92.9736 98.3874 93.2539 97.4303 93.3223 96.1543L93.4385 93.2012H98.2031V99.5654H99.1533V102.771H97.8887V100.598H92.7275V102.771H91.4629L91.4697 99.5654H92.0439ZM93.541 99.5654H96.9385V94.3701H94.6621L94.5869 96.1338C94.5094 97.6058 94.1608 98.7497 93.541 99.5654ZM105.121 100.598C105.048 100.452 104.989 100.192 104.943 99.8184C104.355 100.429 103.654 100.734 102.838 100.734C102.109 100.734 101.509 100.529 101.04 100.119C100.575 99.7044 100.343 99.1803 100.343 98.5469C100.343 97.7767 100.634 97.1797 101.218 96.7559C101.806 96.3275 102.631 96.1133 103.692 96.1133H104.923V95.5322C104.923 95.0902 104.791 94.7393 104.526 94.4795C104.262 94.2152 103.872 94.083 103.357 94.083C102.906 94.083 102.528 94.1969 102.223 94.4248C101.917 94.6527 101.765 94.9284 101.765 95.252H100.493C100.493 94.8828 100.623 94.5273 100.883 94.1855C101.147 93.8392 101.503 93.5658 101.949 93.3652C102.4 93.1647 102.895 93.0645 103.433 93.0645C104.285 93.0645 104.952 93.2786 105.436 93.707C105.919 94.1309 106.169 94.7165 106.188 95.4639V98.8682C106.188 99.5472 106.274 100.087 106.447 100.488V100.598H105.121ZM103.022 99.6338C103.419 99.6338 103.795 99.5312 104.15 99.3262C104.506 99.1211 104.763 98.8545 104.923 98.5264V97.0088H103.932C102.382 97.0088 101.607 97.4622 101.607 98.3691C101.607 98.7656 101.74 99.0755 102.004 99.2988C102.268 99.5221 102.608 99.6338 103.022 99.6338Z" fill="#BC2A40"/>
<path d="M20.5625 84.5977H15.8594V65.6445H6.75V84.5977H2.0625V61.8477H20.5625V84.5977ZM23.6875 75.9883C23.6875 74.3112 24.0104 72.8164 24.6562 71.5039C25.3021 70.1914 26.2292 69.1758 27.4375 68.457C28.6562 67.7383 30.0677 67.3789 31.6719 67.3789C33.9531 67.3789 35.8125 68.0768 37.25 69.4727C38.6979 70.8685 39.5052 72.7643 39.6719 75.1602L39.7031 76.3164C39.7031 78.9102 38.9792 80.9935 37.5312 82.5664C36.0833 84.1289 34.1406 84.9102 31.7031 84.9102C29.2656 84.9102 27.3177 84.1289 25.8594 82.5664C24.4115 81.0039 23.6875 78.8789 23.6875 76.1914V75.9883ZM28.2031 76.3164C28.2031 77.9206 28.5052 79.1497 29.1094 80.0039C29.7135 80.8477 30.5781 81.2695 31.7031 81.2695C32.7969 81.2695 33.651 80.8529 34.2656 80.0195C34.8802 79.1758 35.1875 77.832 35.1875 75.9883C35.1875 74.4154 34.8802 73.1966 34.2656 72.332C33.651 71.4674 32.7865 71.0352 31.6719 71.0352C30.5677 71.0352 29.7135 71.4674 29.1094 72.332C28.5052 73.1862 28.2031 74.5143 28.2031 76.3164ZM57.7031 76.3008C57.7031 78.9049 57.1094 80.9935 55.9219 82.5664C54.7448 84.1289 53.151 84.9102 51.1406 84.9102C49.4323 84.9102 48.0521 84.3164 47 83.1289V91.0977H42.4844V67.6914H46.6719L46.8281 69.3477C47.9219 68.0352 49.349 67.3789 51.1094 67.3789C53.1927 67.3789 54.8125 68.1497 55.9688 69.6914C57.125 71.2331 57.7031 73.3581 57.7031 76.0664V76.3008ZM53.1875 75.9727C53.1875 74.3997 52.9062 73.1862 52.3438 72.332C51.7917 71.4779 50.9844 71.0508 49.9219 71.0508C48.5052 71.0508 47.5312 71.5924 47 72.6758V79.5977C47.5521 80.7122 48.5365 81.2695 49.9531 81.2695C52.1094 81.2695 53.1875 79.5039 53.1875 75.9727ZM73.8906 71.3164H68.4688V84.5977H63.9375V71.3164H58.6094V67.6914H73.8906V71.3164ZM85.7188 84.5977C85.5104 84.1914 85.3594 83.6862 85.2656 83.082C84.1719 84.3008 82.75 84.9102 81 84.9102C79.3438 84.9102 77.9688 84.431 76.875 83.4727C75.7917 82.5143 75.25 81.306 75.25 79.8477C75.25 78.056 75.9115 76.681 77.2344 75.7227C78.5677 74.7643 80.4896 74.2799 83 74.2695H85.0781V73.3008C85.0781 72.5195 84.875 71.8945 84.4688 71.4258C84.0729 70.957 83.4427 70.7227 82.5781 70.7227C81.8177 70.7227 81.2188 70.9049 80.7812 71.2695C80.3542 71.6341 80.1406 72.1341 80.1406 72.7695H75.625C75.625 71.7904 75.9271 70.8841 76.5312 70.0508C77.1354 69.2174 77.9896 68.5664 79.0938 68.0977C80.1979 67.6185 81.4375 67.3789 82.8125 67.3789C84.8958 67.3789 86.5469 67.9049 87.7656 68.957C88.9948 69.9987 89.6094 71.4674 89.6094 73.3633V80.6914C89.6198 82.2956 89.8438 83.5091 90.2812 84.332V84.5977H85.7188ZM81.9844 81.457C82.651 81.457 83.2656 81.3112 83.8281 81.0195C84.3906 80.7174 84.8073 80.3164 85.0781 79.8164V76.9102H83.3906C81.1302 76.9102 79.9271 77.6914 79.7812 79.2539L79.7656 79.5195C79.7656 80.082 79.9635 80.5456 80.3594 80.9102C80.7552 81.2747 81.2969 81.457 81.9844 81.457ZM107.781 67.6914V84.5977H103.266V71.3477H99.2812L99 76.5664C98.8229 79.3477 98.276 81.3737 97.3594 82.6445C96.4427 83.9154 95.0781 84.5664 93.2656 84.5977H91.7344L91.6875 80.9258L92.25 80.8789C93.0625 80.8164 93.6562 80.3372 94.0312 79.4414C94.4062 78.5456 94.6406 77.0195 94.7344 74.8633L95.0469 67.6914H107.781Z" fill="#BC2A40"/>
<path fill-rule="evenodd" clip-rule="evenodd" d="M112.392 0C92.9912 0 77.2085 15.7827 77.2085 35.183C77.2085 41.5308 80.038 48.355 80.1903 48.7225L80.1928 48.7285C81.118 50.9243 82.9433 54.335 84.2596 56.3342L86.9606 60.4268H91.9208L87.7158 54.0556C86.5341 52.2634 84.8349 49.0886 84.0092 47.1204L84.0089 47.1199C83.9644 47.0124 81.3477 40.7029 81.3477 35.183C81.3477 18.0655 95.2739 4.13918 112.392 4.13918C129.509 4.13918 143.435 18.0655 143.435 35.183C143.435 40.7213 140.803 47.0604 140.776 47.1225C139.95 49.0907 138.251 52.2634 137.069 54.0556L112.944 90.6087C112.722 90.9455 112.571 91.1253 112.424 91.148V95.2424C113.972 95.2305 115.42 94.3732 116.4 92.8873L140.526 56.3342C141.844 54.335 143.667 50.9243 144.592 48.7285C144.712 48.4408 147.575 41.5719 147.575 35.183C147.575 15.7827 131.792 0 112.392 0Z" fill="#BC2A40"/>
<path d="M112 16.5967C101.523 16.5967 93 24.897 93 35.0967C93 45.2963 101.523 53.5967 112 53.5967C122.477 53.5967 131 45.2963 131 35.0967C131 24.897 122.477 16.5967 112 16.5967ZM112 49.4856C103.853 49.4856 97.2222 43.0311 97.2222 35.0967C97.2222 27.1622 103.853 20.7078 112 20.7078C120.147 20.7078 126.778 27.1622 126.778 35.0967C126.778 43.0311 120.147 49.4856 112 49.4856Z" fill="#BC2A40"/>
</svg>
