<svg width="156" height="120" viewBox="0 0 156 120" fill="none" xmlns="http://www.w3.org/2000/svg">
<path opacity="0.5" d="M86.4582 82.4879C69.3526 61.1231 76.8051 31.3057 91.3826 19.6496C105.96 7.99353 123.224 9.07654 134.882 23.6375C149.166 48.004 134.162 67.4571 119.585 79.1132C105.007 90.7692 94.8278 100.4 86.4582 82.4879Z" fill="#FF3653"/>
<path d="M21.0322 92.1274H17.833V101H16.5273V92.1274H13.335V91.0474H21.0322V92.1274ZM21.7705 101V93.604H24.6553C25.6396 93.604 26.3939 93.7772 26.918 94.1235C27.4466 94.4653 27.7109 94.9689 27.7109 95.6343C27.7109 95.9761 27.6084 96.286 27.4033 96.564C27.1982 96.8374 26.8952 97.047 26.4941 97.1929C26.9408 97.2977 27.2985 97.5028 27.5674 97.8081C27.8408 98.1134 27.9775 98.478 27.9775 98.9019C27.9775 99.5809 27.7269 100.1 27.2256 100.46C26.7288 100.82 26.0247 101 25.1133 101H21.7705ZM23.0352 97.7534V99.9819H25.127C25.6556 99.9819 26.0498 99.884 26.3096 99.688C26.5739 99.492 26.7061 99.2163 26.7061 98.8608C26.7061 98.1226 26.1637 97.7534 25.0791 97.7534H23.0352ZM23.0352 96.7417H24.6689C25.8538 96.7417 26.4463 96.3953 26.4463 95.7026C26.4463 95.0099 25.8857 94.6522 24.7646 94.6294H23.0352V96.7417ZM29.3174 97.2339C29.3174 96.5093 29.4587 95.8576 29.7412 95.2788C30.0283 94.7 30.4248 94.2534 30.9307 93.939C31.4411 93.6245 32.0221 93.4673 32.6738 93.4673C33.681 93.4673 34.4945 93.8159 35.1143 94.5132C35.7386 95.2104 36.0508 96.1379 36.0508 97.2954V97.3843C36.0508 98.1043 35.9118 98.7515 35.6338 99.3257C35.3604 99.8953 34.9661 100.34 34.4512 100.659C33.9408 100.978 33.3529 101.137 32.6875 101.137C31.6849 101.137 30.8714 100.789 30.2471 100.091C29.6273 99.394 29.3174 98.4712 29.3174 97.3228V97.2339ZM30.5889 97.3843C30.5889 98.2046 30.778 98.8631 31.1562 99.3599C31.5391 99.8566 32.0495 100.105 32.6875 100.105C33.3301 100.105 33.8405 99.8543 34.2188 99.353C34.597 98.8472 34.7861 98.1408 34.7861 97.2339C34.7861 96.4227 34.5924 95.7664 34.2051 95.2651C33.8223 94.7593 33.3118 94.5063 32.6738 94.5063C32.0495 94.5063 31.5459 94.7547 31.1631 95.2515C30.7803 95.7482 30.5889 96.4591 30.5889 97.3843ZM40.7061 101.137C39.7035 101.137 38.8877 100.809 38.2588 100.153C37.6299 99.492 37.3154 98.6102 37.3154 97.5073V97.2749C37.3154 96.5412 37.4544 95.8872 37.7324 95.313C38.015 94.7342 38.4069 94.283 38.9082 93.9595C39.4141 93.6313 39.9609 93.4673 40.5488 93.4673C41.5104 93.4673 42.2578 93.784 42.791 94.4175C43.3242 95.0509 43.5908 95.9578 43.5908 97.1382V97.6646H38.5801C38.5983 98.3937 38.8102 98.9839 39.2158 99.4351C39.626 99.8817 40.1455 100.105 40.7744 100.105C41.221 100.105 41.5993 100.014 41.9092 99.8315C42.2191 99.6493 42.4902 99.4077 42.7227 99.1069L43.4951 99.7085C42.8753 100.661 41.9456 101.137 40.7061 101.137ZM40.5488 94.5063C40.0384 94.5063 39.61 94.6932 39.2637 95.0669C38.9173 95.436 38.7031 95.9556 38.6211 96.6255H42.3262V96.5298C42.2897 95.8872 42.1165 95.3905 41.8066 95.0396C41.4967 94.6841 41.0775 94.5063 40.5488 94.5063ZM49.8389 94.6499H46.4277V101H45.1562V93.604H49.8389V94.6499ZM50.4678 97.2339C50.4678 96.5093 50.609 95.8576 50.8916 95.2788C51.1787 94.7 51.5752 94.2534 52.0811 93.939C52.5915 93.6245 53.1725 93.4673 53.8242 93.4673C54.8314 93.4673 55.6449 93.8159 56.2646 94.5132C56.889 95.2104 57.2012 96.1379 57.2012 97.2954V97.3843C57.2012 98.1043 57.0622 98.7515 56.7842 99.3257C56.5107 99.8953 56.1165 100.34 55.6016 100.659C55.0911 100.978 54.5033 101.137 53.8379 101.137C52.8353 101.137 52.0218 100.789 51.3975 100.091C50.7777 99.394 50.4678 98.4712 50.4678 97.3228V97.2339ZM51.7393 97.3843C51.7393 98.2046 51.9284 98.8631 52.3066 99.3599C52.6895 99.8566 53.1999 100.105 53.8379 100.105C54.4805 100.105 54.9909 99.8543 55.3691 99.353C55.7474 98.8472 55.9365 98.1408 55.9365 97.2339C55.9365 96.4227 55.7428 95.7664 55.3555 95.2651C54.9727 94.7593 54.4622 94.5063 53.8242 94.5063C53.1999 94.5063 52.6963 94.7547 52.3135 95.2515C51.9307 95.7482 51.7393 96.4591 51.7393 97.3843ZM68.6309 92.1274H63.832V101H62.5127V91.0474H68.6309V92.1274ZM68.4326 97.2339C68.4326 96.5093 68.5739 95.8576 68.8564 95.2788C69.1436 94.7 69.54 94.2534 70.0459 93.939C70.5563 93.6245 71.1374 93.4673 71.7891 93.4673C72.7962 93.4673 73.6097 93.8159 74.2295 94.5132C74.8538 95.2104 75.166 96.1379 75.166 97.2954V97.3843C75.166 98.1043 75.027 98.7515 74.749 99.3257C74.4756 99.8953 74.0814 100.34 73.5664 100.659C73.056 100.978 72.4681 101.137 71.8027 101.137C70.8001 101.137 69.9867 100.789 69.3623 100.091C68.7425 99.394 68.4326 98.4712 68.4326 97.3228V97.2339ZM69.7041 97.3843C69.7041 98.2046 69.8932 98.8631 70.2715 99.3599C70.6543 99.8566 71.1647 100.105 71.8027 100.105C72.4453 100.105 72.9557 99.8543 73.334 99.353C73.7122 98.8472 73.9014 98.1408 73.9014 97.2339C73.9014 96.4227 73.7077 95.7664 73.3203 95.2651C72.9375 94.7593 72.4271 94.5063 71.7891 94.5063C71.1647 94.5063 70.6611 94.7547 70.2783 95.2515C69.8955 95.7482 69.7041 96.4591 69.7041 97.3843ZM83 97.3843C83 98.5099 82.7425 99.4168 82.2275 100.105C81.7126 100.793 81.0153 101.137 80.1357 101.137C79.238 101.137 78.5316 100.852 78.0166 100.283V103.844H76.752V93.604H77.9072L77.9688 94.4243C78.4837 93.7863 79.1992 93.4673 80.1152 93.4673C81.0039 93.4673 81.7057 93.8022 82.2207 94.4722C82.7402 95.1421 83 96.0741 83 97.2681V97.3843ZM81.7354 97.2407C81.7354 96.4067 81.5576 95.7482 81.2021 95.2651C80.8467 94.7821 80.359 94.5405 79.7393 94.5405C78.9736 94.5405 78.3994 94.88 78.0166 95.5591V99.0933C78.3949 99.7677 78.9736 100.105 79.7529 100.105C80.359 100.105 80.8398 99.8657 81.1953 99.3872C81.5553 98.9041 81.7354 98.1886 81.7354 97.2407ZM84.2783 97.2339C84.2783 96.5093 84.4196 95.8576 84.7021 95.2788C84.9893 94.7 85.3857 94.2534 85.8916 93.939C86.402 93.6245 86.9831 93.4673 87.6348 93.4673C88.6419 93.4673 89.4554 93.8159 90.0752 94.5132C90.6995 95.2104 91.0117 96.1379 91.0117 97.2954V97.3843C91.0117 98.1043 90.8727 98.7515 90.5947 99.3257C90.3213 99.8953 89.9271 100.34 89.4121 100.659C88.9017 100.978 88.3138 101.137 87.6484 101.137C86.6458 101.137 85.8324 100.789 85.208 100.091C84.5882 99.394 84.2783 98.4712 84.2783 97.3228V97.2339ZM85.5498 97.3843C85.5498 98.2046 85.7389 98.8631 86.1172 99.3599C86.5 99.8566 87.0104 100.105 87.6484 100.105C88.291 100.105 88.8014 99.8543 89.1797 99.353C89.5579 98.8472 89.7471 98.1408 89.7471 97.2339C89.7471 96.4227 89.5534 95.7664 89.166 95.2651C88.7832 94.7593 88.2728 94.5063 87.6348 94.5063C87.0104 94.5063 86.5068 94.7547 86.124 95.2515C85.7412 95.7482 85.5498 96.4591 85.5498 97.3843ZM92.0439 99.9683L92.4814 99.4282C92.9736 98.7902 93.2539 97.8332 93.3223 96.5571L93.4385 93.604H98.2031V99.9683H99.1533V103.174H97.8887V101H92.7275V103.174H91.4629L91.4697 99.9683H92.0439ZM93.541 99.9683H96.9385V94.7729H94.6621L94.5869 96.5366C94.5094 98.0086 94.1608 99.1525 93.541 99.9683ZM105.121 101C105.048 100.855 104.989 100.595 104.943 100.221C104.355 100.832 103.654 101.137 102.838 101.137C102.109 101.137 101.509 100.932 101.04 100.522C100.575 100.107 100.343 99.5832 100.343 98.9497C100.343 98.1795 100.634 97.5825 101.218 97.1587C101.806 96.7303 102.631 96.5161 103.692 96.5161H104.923V95.9351C104.923 95.493 104.791 95.1421 104.526 94.8823C104.262 94.618 103.872 94.4858 103.357 94.4858C102.906 94.4858 102.528 94.5998 102.223 94.8276C101.917 95.0555 101.765 95.3312 101.765 95.6548H100.493C100.493 95.2856 100.623 94.9302 100.883 94.5884C101.147 94.242 101.503 93.9686 101.949 93.7681C102.4 93.5675 102.895 93.4673 103.433 93.4673C104.285 93.4673 104.952 93.6815 105.436 94.1099C105.919 94.5337 106.169 95.1193 106.188 95.8667V99.271C106.188 99.95 106.274 100.49 106.447 100.891V101H105.121ZM103.022 100.037C103.419 100.037 103.795 99.9341 104.15 99.729C104.506 99.5239 104.763 99.2573 104.923 98.9292V97.4116H103.932C102.382 97.4116 101.607 97.8651 101.607 98.772C101.607 99.1685 101.74 99.4784 102.004 99.7017C102.268 99.925 102.608 100.037 103.022 100.037Z" fill="white"/>
<path d="M20.5625 85.0005H15.8594V66.0474H6.75V85.0005H2.0625V62.2505H20.5625V85.0005ZM23.6875 76.3911C23.6875 74.714 24.0104 73.2192 24.6562 71.9067C25.3021 70.5942 26.2292 69.5786 27.4375 68.8599C28.6562 68.1411 30.0677 67.7817 31.6719 67.7817C33.9531 67.7817 35.8125 68.4797 37.25 69.8755C38.6979 71.2713 39.5052 73.1672 39.6719 75.563L39.7031 76.7192C39.7031 79.313 38.9792 81.3963 37.5312 82.9692C36.0833 84.5317 34.1406 85.313 31.7031 85.313C29.2656 85.313 27.3177 84.5317 25.8594 82.9692C24.4115 81.4067 23.6875 79.2817 23.6875 76.5942V76.3911ZM28.2031 76.7192C28.2031 78.3234 28.5052 79.5526 29.1094 80.4067C29.7135 81.2505 30.5781 81.6724 31.7031 81.6724C32.7969 81.6724 33.651 81.2557 34.2656 80.4224C34.8802 79.5786 35.1875 78.2349 35.1875 76.3911C35.1875 74.8182 34.8802 73.5994 34.2656 72.7349C33.651 71.8703 32.7865 71.438 31.6719 71.438C30.5677 71.438 29.7135 71.8703 29.1094 72.7349C28.5052 73.589 28.2031 74.9172 28.2031 76.7192ZM57.7031 76.7036C57.7031 79.3078 57.1094 81.3963 55.9219 82.9692C54.7448 84.5317 53.151 85.313 51.1406 85.313C49.4323 85.313 48.0521 84.7192 47 83.5317V91.5005H42.4844V68.0942H46.6719L46.8281 69.7505C47.9219 68.438 49.349 67.7817 51.1094 67.7817C53.1927 67.7817 54.8125 68.5526 55.9688 70.0942C57.125 71.6359 57.7031 73.7609 57.7031 76.4692V76.7036ZM53.1875 76.3755C53.1875 74.8026 52.9062 73.589 52.3438 72.7349C51.7917 71.8807 50.9844 71.4536 49.9219 71.4536C48.5052 71.4536 47.5312 71.9953 47 73.0786V80.0005C47.5521 81.1151 48.5365 81.6724 49.9531 81.6724C52.1094 81.6724 53.1875 79.9067 53.1875 76.3755ZM73.8906 71.7192H68.4688V85.0005H63.9375V71.7192H58.6094V68.0942H73.8906V71.7192ZM85.7188 85.0005C85.5104 84.5942 85.3594 84.089 85.2656 83.4849C84.1719 84.7036 82.75 85.313 81 85.313C79.3438 85.313 77.9688 84.8338 76.875 83.8755C75.7917 82.9172 75.25 81.7088 75.25 80.2505C75.25 78.4588 75.9115 77.0838 77.2344 76.1255C78.5677 75.1672 80.4896 74.6828 83 74.6724H85.0781V73.7036C85.0781 72.9224 84.875 72.2974 84.4688 71.8286C84.0729 71.3599 83.4427 71.1255 82.5781 71.1255C81.8177 71.1255 81.2188 71.3078 80.7812 71.6724C80.3542 72.0369 80.1406 72.5369 80.1406 73.1724H75.625C75.625 72.1932 75.9271 71.2869 76.5312 70.4536C77.1354 69.6203 77.9896 68.9692 79.0938 68.5005C80.1979 68.0213 81.4375 67.7817 82.8125 67.7817C84.8958 67.7817 86.5469 68.3078 87.7656 69.3599C88.9948 70.4015 89.6094 71.8703 89.6094 73.7661V81.0942C89.6198 82.6984 89.8438 83.9119 90.2812 84.7349V85.0005H85.7188ZM81.9844 81.8599C82.651 81.8599 83.2656 81.714 83.8281 81.4224C84.3906 81.1203 84.8073 80.7192 85.0781 80.2192V77.313H83.3906C81.1302 77.313 79.9271 78.0942 79.7812 79.6567L79.7656 79.9224C79.7656 80.4849 79.9635 80.9484 80.3594 81.313C80.7552 81.6776 81.2969 81.8599 81.9844 81.8599ZM107.781 68.0942V85.0005H103.266V71.7505H99.2812L99 76.9692C98.8229 79.7505 98.276 81.7765 97.3594 83.0474C96.4427 84.3182 95.0781 84.9692 93.2656 85.0005H91.7344L91.6875 81.3286L92.25 81.2817C93.0625 81.2192 93.6562 80.7401 94.0312 79.8442C94.4062 78.9484 94.6406 77.4224 94.7344 75.2661L95.0469 68.0942H107.781Z" fill="white"/>
<path fill-rule="evenodd" clip-rule="evenodd" d="M112.392 0.402832C92.9912 0.402832 77.2085 16.1855 77.2085 35.5859C77.2085 41.9337 80.038 48.7579 80.1903 49.1253L80.1928 49.1313C81.118 51.3272 82.9433 54.7379 84.2596 56.7371L86.9606 60.8297H91.9208L87.7158 54.4585C86.5341 52.6662 84.8349 49.4914 84.0092 47.5233L84.009 47.5227C83.9646 47.4158 81.3477 41.1059 81.3477 35.5859C81.3477 18.4683 95.2739 4.54201 112.392 4.54201C129.509 4.54201 143.435 18.4683 143.435 35.5859C143.435 41.1241 140.803 47.4632 140.776 47.5253C139.95 49.4935 138.251 52.6662 137.069 54.4585L112.944 91.0116C112.722 91.3484 112.571 91.5281 112.424 91.5508V95.6452C113.972 95.6333 115.42 94.776 116.4 93.2902L140.526 56.7371C141.844 54.7379 143.667 51.3272 144.592 49.1313C144.712 48.8437 147.575 41.9747 147.575 35.5859C147.575 16.1855 131.792 0.402832 112.392 0.402832Z" fill="white"/>
<path d="M112 16.9995C101.523 16.9995 93 25.2998 93 35.4995C93 45.6992 101.523 53.9995 112 53.9995C122.477 53.9995 131 45.6992 131 35.4995C131 25.2998 122.477 16.9995 112 16.9995ZM112 49.8884C103.853 49.8884 97.2222 43.434 97.2222 35.4995C97.2222 27.5651 103.853 21.1106 112 21.1106C120.147 21.1106 126.778 27.5651 126.778 35.4995C126.778 43.434 120.147 49.8884 112 49.8884Z" fill="white"/>
</svg>
