<svg width="42" height="43" viewBox="0 0 42 43" fill="none" xmlns="http://www.w3.org/2000/svg">
<g clip-path="url(#clip0)">
<path d="M37.8001 18.0143H32.9001V41.6178C32.9001 42.0012 32.5867 42.312 32.2001 42.312H9.80008C9.41351 42.312 9.10008 42.0012 9.10008 41.6178V18.0143H4.20008C4.00925 18.0143 3.82663 17.9371 3.6946 17.8004C3.42711 17.5236 3.43656 17.0842 3.71568 16.8189L20.5157 0.851854C20.6461 0.728023 20.8196 0.658861 21.0001 0.658861C21.1806 0.658861 21.3542 0.728023 21.4845 0.851854L38.2845 16.8189C38.4223 16.9498 38.5002 17.1309 38.5002 17.3202C38.5001 17.7036 38.1867 18.0143 37.8001 18.0143ZM21.0001 2.31457L5.94168 16.6259H9.80008C10.1867 16.6259 10.5001 16.9367 10.5001 17.3201V40.9236H31.5001V17.3201C31.5001 16.9367 31.8135 16.6259 32.2001 16.6259H36.0585L21.0001 2.31457Z" fill="#CE1625"/>
<path d="M21.0001 19.4029C22.5464 19.4029 23.8001 20.6461 23.8001 22.1797H25.2001C25.1963 20.1494 23.7183 18.417 21.7001 18.0769V16.626H20.3001V18.0769C18.0152 18.4736 16.4872 20.6321 16.8873 22.8982C17.2375 24.8822 18.9691 26.3334 21.0001 26.345C22.5464 26.345 23.8001 27.5883 23.8001 29.1219C23.8001 30.6555 22.5464 31.8988 21.0001 31.8988C19.4537 31.8988 18.2 30.6555 18.2 29.1219H16.8C16.8038 31.1523 18.2818 32.8847 20.3001 33.2248V34.6757H21.7001V33.2248C23.9849 32.828 25.5129 30.6695 25.1128 28.4035C24.7626 26.4195 23.031 24.9682 21.0001 24.9566C19.4537 24.9566 18.2 23.7133 18.2 22.1797C18.2 20.6461 19.4537 19.4029 21.0001 19.4029Z" fill="#CE1625"/>
<path d="M13.2999 39.5352H11.8999V38.1467H13.2999V39.5352Z" fill="#CE1625"/>
<path d="M16.1002 39.5352H14.7002V38.1467H16.1002V39.5352Z" fill="#CE1625"/>
<path d="M18.9 39.5352H17.5V38.1467H18.9V39.5352Z" fill="#CE1625"/>
<path d="M21.7 39.5352H20.3V38.1467H21.7V39.5352Z" fill="#CE1625"/>
<path d="M24.5001 39.5352H23.1001V38.1467H24.5001V39.5352Z" fill="#CE1625"/>
<path d="M27.3001 39.5352H25.9001V38.1467H27.3001V39.5352Z" fill="#CE1625"/>
<path d="M30.0999 39.5352H28.7V38.1467H30.0999V39.5352Z" fill="#CE1625"/>
</g>
<defs>
<clipPath id="clip0">
<rect width="42" height="41.6531" fill="white" transform="matrix(1 0 0 -1 0 42.312)"/>
</clipPath>
</defs>
</svg>
