<svg width="54" height="55" viewBox="0 0 54 55" fill="none" xmlns="http://www.w3.org/2000/svg">
<g clip-path="url(#clip0)">
<path d="M45.2232 48.376V53.648C45.2232 54.1409 44.8203 54.5405 44.3233 54.5405C43.8263 54.5405 43.4234 54.1409 43.4234 53.648V48.376C43.4234 44.2711 40.074 40.9493 35.9347 40.9493C33.9762 40.9493 32.1991 39.9597 31.1812 38.3021C30.9226 37.8811 31.0571 37.332 31.4816 37.0757C31.9058 36.819 32.4596 36.9525 32.7182 37.3736C33.4069 38.4949 34.6094 39.1643 35.9347 39.1643C41.0684 39.1641 45.2232 43.2842 45.2232 48.376ZM28.4484 38.7476C26.5645 39.1548 24.6525 38.7416 23.1356 37.7087C23.3957 37.1377 23.5556 36.5233 23.6063 35.8868C31.32 38.1386 39.0363 32.3648 39.0363 24.4336C39.0363 16.8642 39.0457 16.9847 39.0147 16.6743C38.8963 15.4442 37.104 15.6115 37.2236 16.8494C37.2437 17.0518 37.2365 17.2288 37.2365 24.4335C37.2365 30.0314 32.6445 34.5855 27.0001 34.5855C21.3557 34.5855 16.7637 30.0314 16.7637 24.4335C16.7637 22.423 16.7421 20.866 16.735 19.6985C16.7167 16.7695 19.4479 14.5439 22.4033 15.2465C26.5714 16.2377 28.2513 18.8161 33.5938 18.5693C34.0902 18.5462 34.4738 18.1284 34.4505 17.636C34.4272 17.1437 34.0086 16.7658 33.5095 16.7864C28.6932 17.0109 27.3581 14.5895 22.823 13.5108C18.7225 12.5353 14.9101 15.6294 14.9352 19.7096C14.9412 20.6585 14.9538 21.6978 14.9601 22.9779C14.361 22.6681 13.9513 22.0536 13.9513 21.3467C13.9513 21.3263 13.9514 16.7109 13.9511 16.6906C13.906 14.6677 14.1966 9.58467 17.8605 6.08189C21.9541 2.16857 28.3588 2.16712 33.3387 3.88861L32.6193 4.18224C31.7605 4.53265 31.94 5.79652 32.866 5.89492L34.4478 6.06293C37.4922 6.38623 40.1845 7.96068 41.9094 10.4072C40.7773 11.7715 40.1611 13.4697 40.1611 15.2588V21.3466C40.1611 21.8395 40.564 22.2391 41.061 22.2391C41.558 22.2391 41.9609 21.8395 41.9609 21.3466V15.2588C41.9609 13.7077 42.5649 12.2458 43.6615 11.1426C43.9668 10.8358 44.0043 10.3407 43.7913 9.9999C41.9971 7.14629 39.3273 5.30889 36.2804 4.57192C36.7733 4.1549 36.6763 3.38012 36.1058 3.09396C33.4897 1.78346 29.7577 0.863531 26.2063 0.999077C17.2216 1.34447 11.9622 7.99906 12.1517 16.7202V21.3468C12.1517 23.0543 13.3563 24.4892 14.9731 24.8745C15.1408 29.433 17.8977 33.3472 21.8257 35.2099V35.4448C21.8257 37.5024 20.1446 39.1644 18.0656 39.1644C12.9212 39.1644 8.7771 43.2945 8.7771 48.3761V53.6481C8.7771 54.141 9.18003 54.5406 9.67701 54.5406C10.174 54.5406 10.5769 54.141 10.5769 53.6481V48.3761C10.5769 44.2714 13.9263 40.9494 18.0656 40.9494C19.598 40.9494 21.0573 40.3403 22.1368 39.193C24.0553 40.4917 26.4641 41.0035 28.8316 40.4918C29.3172 40.3869 29.6251 39.9113 29.5193 39.4297C29.4134 38.948 28.9337 38.6423 28.4484 38.7476ZM36.1116 49.9665H33.4119C32.9149 49.9665 32.512 50.3661 32.512 50.859C32.512 51.3519 32.9149 51.7515 33.4119 51.7515H36.1116C36.6086 51.7515 37.0115 51.3519 37.0115 50.859C37.0115 50.3661 36.6086 49.9665 36.1116 49.9665Z" fill="#CE1625"/>
</g>
<defs>
<clipPath id="clip0">
<rect width="54" height="53.5547" fill="white" transform="translate(0 0.98584)"/>
</clipPath>
</defs>
</svg>
