<svg width="76" height="76" viewBox="0 0 76 76" fill="none" xmlns="http://www.w3.org/2000/svg">
<path d="M45.125 5.9375H47.5V8.3125H45.125V5.9375Z" fill="#362F4D"/>
<path d="M33.25 5.9375H42.75V8.3125H33.25V5.9375Z" fill="#362F4D"/>
<path d="M35.625 67.6875H45.125V70.0625H35.625V67.6875Z" fill="#362F4D"/>
<path d="M52.25 67.6875H54.625V70.0625H52.25V67.6875Z" fill="#362F4D"/>
<path d="M26.125 67.6875H28.5V70.0625H26.125V67.6875Z" fill="#362F4D"/>
<path d="M28.5 39.1875H39.1875V41.5625H28.5V39.1875Z" fill="#362F4D"/>
<path d="M28.5 43.9375H39.1875V46.3125H28.5V43.9375Z" fill="#362F4D"/>
<path d="M28.5 48.6875H39.1875V51.0625H28.5V48.6875Z" fill="#362F4D"/>
<path d="M28.5 53.4375H39.1875V55.8125H28.5V53.4375Z" fill="#362F4D"/>
<path d="M66.5 5.9375H68.875V16.625H66.5V5.9375Z" fill="#362F4D"/>
<path d="M66.5 1.1875H68.875V3.5625H66.5V1.1875Z" fill="#362F4D"/>
<path d="M11.875 59.375H14.25V70.0625H11.875V59.375Z" fill="#362F4D"/>
<path d="M11.875 72.4375H14.25V74.8125H11.875V72.4375Z" fill="#362F4D"/>
<path d="M74.8125 39.1875C74.8125 31.2443 69.2099 24.5931 61.75 22.9568V7.125C61.75 3.85106 59.0864 1.1875 55.8125 1.1875H24.9375C21.6636 1.1875 19 3.85106 19 7.125V20.1875H12.1351L11.419 23.0565L8.88487 21.5353L2.53413 27.8825L4.05531 30.419L1.1875 31.1351V40.1149L4.0565 40.831L2.53413 43.3675L8.88369 49.7159L11.4178 48.1947L12.1351 51.0625H19V68.875C19 72.1489 21.6636 74.8125 24.9375 74.8125H55.8125C59.0864 74.8125 61.75 72.1489 61.75 68.875V55.4183C69.2099 53.7819 74.8125 47.1307 74.8125 39.1875ZM72.4375 39.1875C72.4375 41.5019 71.8711 43.6822 70.8878 45.6166C70.2288 43.8033 68.7123 42.3771 66.7529 41.8867L61.75 40.6351V40.3512C63.2296 39.2362 64.125 37.4823 64.125 35.6262V33.2512C64.125 31.5922 63.4232 29.9962 62.1989 28.8729C60.9757 27.7531 59.318 27.1902 57.6602 27.3363C54.6262 27.5987 52.25 30.3062 52.25 33.4958V35.625C52.25 37.4811 53.1454 39.235 54.625 40.3501V40.6339L49.6221 41.8855C47.6627 42.3759 46.1463 43.8021 45.4872 45.6154C44.5039 43.6822 43.9375 41.5019 43.9375 39.1875C43.9375 31.3298 50.3298 24.9375 58.1875 24.9375C66.0452 24.9375 72.4375 31.3298 72.4375 39.1875ZM42.2631 34.4375H30.875V22.5625H49.875V24.8116C46.2484 26.9171 43.4863 30.3442 42.2631 34.4375ZM24.9375 3.5625H55.8125C57.7766 3.5625 59.375 5.16087 59.375 7.125V10.6875H21.375V7.125C21.375 5.16087 22.9734 3.5625 24.9375 3.5625ZM19 41.0542C18.2507 41.3844 17.442 41.5625 16.625 41.5625C13.3511 41.5625 10.6875 38.8989 10.6875 35.625C10.6875 32.3511 13.3511 29.6875 16.625 29.6875C17.442 29.6875 18.2507 29.8656 19 30.1957V41.0542ZM13.9899 48.6875L13.4116 46.3731L13.1706 45.7377L11.8144 45.1867L9.25181 46.7257L5.52544 42.9982L7.06444 40.4344L6.47069 38.9856L3.5625 38.2601V32.9899L6.46712 32.2644L7.06444 30.8156L5.52544 28.2518L9.25181 24.5243L11.8144 26.0632L13.2632 25.4742L13.9899 22.5625H19V27.6747C18.2293 27.4431 17.4313 27.3125 16.625 27.3125C12.0413 27.3125 8.3125 31.0424 8.3125 35.625C8.3125 40.2076 12.0413 43.9375 16.625 43.9375C17.4313 43.9375 18.2293 43.8069 19 43.5753V48.6875H13.9899ZM55.8125 72.4375H24.9375C22.9734 72.4375 21.375 70.8391 21.375 68.875V65.3125H59.375V68.875C59.375 70.8391 57.7766 72.4375 55.8125 72.4375ZM59.375 62.9375H21.375V13.0625H59.375V22.6231C58.9808 22.5946 58.5889 22.5625 58.1875 22.5625C56.0939 22.5625 54.0966 22.9674 52.25 23.6776V20.1875H28.5V36.8125H41.7525C41.6397 37.5903 41.5625 38.3788 41.5625 39.1875C41.5625 48.355 49.02 55.8125 58.1875 55.8125C58.5889 55.8125 58.9808 55.7804 59.375 55.7519V62.9375ZM58.1875 53.4375C53.9303 53.4375 50.1137 51.5506 47.5 48.5818V47.6461C47.5 46.0085 48.6103 44.5871 50.198 44.1893L57 42.4899V39.0331L56.4098 38.6899C55.2924 38.0392 54.625 36.8932 54.625 35.625V33.4958C54.625 31.5258 56.0488 29.8597 57.8657 29.7017C58.8846 29.6198 59.85 29.9404 60.5946 30.6233C61.3284 31.2966 61.75 32.2537 61.75 33.25V35.625C61.75 36.8932 61.0826 38.0392 59.9652 38.6899L59.375 39.0331V42.4899L66.177 44.1893C67.7647 44.5871 68.875 46.0085 68.875 47.6461V48.5818C66.2613 51.5506 62.4447 53.4375 58.1875 53.4375Z" fill="#362F4D"/>
</svg>
