<svg width="34" height="30" viewBox="0 0 34 30" fill="none" xmlns="http://www.w3.org/2000/svg">
<path d="M32.6719 13.8281H1.32812C0.594602 13.8281 0 14.3528 0 15C0 15.6472 0.594602 16.1719 1.32812 16.1719H32.6719C33.4054 16.1719 34 15.6472 34 15C34 14.3528 33.4054 13.8281 32.6719 13.8281Z" fill="white"/>
<path d="M32.6719 4.45312H1.32812C0.594602 4.45312 0 4.97777 0 5.625C0 6.27223 0.594602 6.79688 1.32812 6.79688H32.6719C33.4054 6.79688 34 6.27223 34 5.625C34 4.97777 33.4054 4.45312 32.6719 4.45312Z" fill="white"/>
<path d="M32.6719 23.2031H1.32812C0.594602 23.2031 0 23.7278 0 24.375C0 25.0222 0.594602 25.5469 1.32812 25.5469H32.6719C33.4054 25.5469 34 25.0222 34 24.375C34 23.7278 33.4054 23.2031 32.6719 23.2031Z" fill="white"/>
</svg>
