<svg width="61" height="61" viewBox="0 0 61 61" fill="none" xmlns="http://www.w3.org/2000/svg">
<path d="M40.7405 39.1206C39.2952 39.1206 38.1194 38.1029 38.1194 36.8521C38.1194 35.6011 39.2952 34.5834 40.7405 34.5834C42.1858 34.5834 43.3616 35.6011 43.3616 36.8521C43.3616 37.51 43.8951 38.0435 44.553 38.0435C45.2109 38.0435 45.7444 37.51 45.7444 36.8521C45.7444 34.6688 44.1176 32.8331 41.9319 32.3349V31.7152C41.9319 31.0573 41.3984 30.5238 40.7405 30.5238C40.0826 30.5238 39.5491 31.0573 39.5491 31.7152V32.3349C37.3633 32.8331 35.7366 34.6688 35.7366 36.8521C35.7366 39.4168 37.9813 41.5034 40.7405 41.5034C42.1858 41.5034 43.3616 42.5211 43.3616 43.7721C43.3616 45.0231 42.1858 46.0408 40.7405 46.0408C39.2952 46.0408 38.1194 45.0231 38.1194 43.7721C38.1194 43.1142 37.5859 42.5807 36.928 42.5807C36.2701 42.5807 35.7366 43.1142 35.7366 43.7721C35.7366 45.9553 37.3633 47.7911 39.5491 48.2893V48.804C39.5491 49.4619 40.0826 49.9954 40.7405 49.9954C41.3984 49.9954 41.9319 49.4619 41.9319 48.804V48.2893C44.1176 47.7911 45.7444 45.9553 45.7444 43.7721C45.7444 41.2072 43.4996 39.1206 40.7405 39.1206Z" fill="#BC2A40"/>
<path d="M53.7898 32.0341C52.2335 29.609 50.0408 27.6684 47.4489 26.4224C46.8557 26.1372 46.1439 26.3869 45.8589 26.98C45.5738 27.5731 45.8234 28.2848 46.4165 28.5699C50.9332 30.7411 53.8515 35.3804 53.8515 40.3888C53.8515 42.5319 53.3233 44.6572 52.324 46.5354C52.015 47.1162 52.2353 47.8377 52.8162 48.1467C52.9945 48.2416 53.186 48.2866 53.3747 48.2866C53.801 48.2866 54.2134 48.0571 54.4276 47.6546C55.6096 45.4333 56.2344 42.9208 56.2344 40.3888C56.2344 37.415 55.3891 34.526 53.7898 32.0341Z" fill="#BC2A40"/>
<path d="M42.6134 24.9005L42.5332 24.9004C41.8753 24.9004 41.3418 25.4338 41.3418 26.0918C41.3418 26.7498 41.8753 27.2832 42.5332 27.2832L42.6022 27.2833C42.6041 27.2833 42.6059 27.2833 42.6079 27.2833C43.2633 27.2833 43.7961 26.7536 43.7992 26.0975C43.8022 25.4395 43.2713 24.9036 42.6134 24.9005Z" fill="#BC2A40"/>
<path d="M35.0758 52.2075C30.5592 50.0361 27.6409 45.3969 27.6409 40.3886C27.6409 38.2455 28.1691 36.1202 29.1684 34.2421C29.4774 33.6613 29.2571 32.9397 28.6762 32.6307C28.0955 32.3216 27.3738 32.5419 27.0648 33.1229C25.8828 35.3442 25.2581 37.8567 25.2581 40.3886C25.2581 43.3624 26.1034 46.2513 27.7026 48.7434C29.2589 51.1685 31.4516 53.109 34.0435 54.3551C34.2099 54.4352 34.3858 54.4729 34.5589 54.4729C35.0026 54.4729 35.4284 54.2241 35.6335 53.7975C35.9184 53.2044 35.6689 52.4926 35.0758 52.2075Z" fill="#BC2A40"/>
<path d="M38.9591 53.4941L38.8901 53.4939C38.2291 53.4927 37.6964 54.0216 37.6934 54.6797C37.6903 55.3377 38.2214 55.8736 38.8793 55.8767L38.9591 55.8769C39.617 55.8769 40.1505 55.3434 40.1505 54.6855C40.1505 54.0276 39.617 53.4941 38.9591 53.4941Z" fill="#BC2A40"/>
<path d="M46.1561 20.8696C46.0111 20.5241 45.8334 20.1985 45.6267 19.8964H48.7284C51.7503 19.8964 54.2089 17.4379 54.2089 14.416C54.2089 11.3941 51.7503 8.93553 48.7284 8.93553H39.1877C39.7942 8.05365 40.1503 6.98675 40.1503 5.83788C40.1503 2.816 37.6917 0.357422 34.6699 0.357422H5.48046C2.45858 0.357422 0 2.816 0 5.83788C0 8.85976 2.45858 11.3183 5.48046 11.3183H15.0212C14.4147 12.2002 14.0586 13.2671 14.0586 14.416C14.0586 15.5649 14.4146 16.6318 15.0212 17.5136H11.914C8.89216 17.5136 6.43358 19.9722 6.43358 22.9941C6.43358 24.7296 7.2454 26.2783 8.50841 27.2832C7.2454 28.288 6.43358 29.8367 6.43358 31.5722C6.43358 33.3077 7.2454 34.8564 8.50841 35.8613C7.2454 36.8661 6.43358 38.4148 6.43358 40.1503C6.43358 41.8858 7.2454 43.4345 8.50841 44.4394C7.2454 45.4442 6.43358 46.9929 6.43358 48.7284C6.43358 51.7503 8.89216 54.2089 11.914 54.2089H25.9547C29.6536 58.1652 34.9155 60.6426 40.7461 60.6426C51.9141 60.6426 61 51.5567 61 40.3887C61 31.0937 54.7058 23.2423 46.1561 20.8696ZM48.7284 11.3183C50.4365 11.3183 51.8261 12.708 51.8261 14.416C51.8261 16.124 50.4365 17.5136 48.7284 17.5136H41.1034H19.539C17.8309 17.5136 16.4414 16.124 16.4414 14.416C16.4414 12.708 17.8309 11.3183 19.539 11.3183H48.7284ZM5.48046 8.93553C3.77234 8.93553 2.38281 7.54588 2.38281 5.83788C2.38281 4.12988 3.77234 2.74023 5.48046 2.74023H34.6699C36.378 2.74023 37.7675 4.12988 37.7675 5.83788C37.7675 7.54588 36.378 8.93553 34.6699 8.93553H5.48046ZM11.914 19.8964H41.1034C41.5833 19.8964 42.0429 20.008 42.4551 20.2076C41.8916 20.1603 41.3218 20.1348 40.7461 20.1348C35.1531 20.1348 30.0825 22.4139 26.4137 26.0917H11.914C10.206 26.0917 8.81639 24.7021 8.81639 22.9941C8.81639 21.2861 10.206 19.8964 11.914 19.8964ZM11.914 28.4746H24.3779C23.0254 30.3275 21.9797 32.4175 21.3156 34.6699H11.914C10.2059 34.6699 8.81639 33.2803 8.81639 31.5722C8.81639 29.8642 10.2059 28.4746 11.914 28.4746ZM11.914 37.0527H20.7686C20.5878 38.1384 20.4923 39.2525 20.4923 40.3887C20.4923 41.3592 20.5624 42.3135 20.695 43.248H11.914C10.2059 43.248 8.81639 41.8584 8.81639 40.1503C8.81639 38.4422 10.2059 37.0527 11.914 37.0527ZM11.914 51.8261C10.2059 51.8261 8.81639 50.4365 8.81639 48.7284C8.81639 47.0203 10.2059 45.6308 11.914 45.6308H21.1815C21.7827 47.8722 22.7593 49.9611 24.04 51.8261H11.914ZM40.7461 58.2598C30.892 58.2598 22.8751 50.2428 22.8751 40.3887C22.8751 30.5346 30.892 22.5177 40.7461 22.5177C50.6002 22.5177 58.6172 30.5346 58.6172 40.3887C58.6172 50.2428 50.6002 58.2598 40.7461 58.2598Z" fill="#BC2A40"/>
</svg>
