<svg width="403" height="180" viewBox="0 0 403 180" fill="none" xmlns="http://www.w3.org/2000/svg">
<path d="M49.9688 28.8555C49.9688 30.5352 49.6719 32.0078 49.0781 33.2734C48.4844 34.5391 47.6328 35.5156 46.5234 36.2031C45.4219 36.8906 44.1562 37.2344 42.7266 37.2344C41.3125 37.2344 40.0508 36.8945 38.9414 36.2148C37.832 35.5352 36.9727 34.5664 36.3633 33.3086C35.7539 32.043 35.4453 30.5898 35.4375 28.9492V28.1055C35.4375 26.4258 35.7383 24.9492 36.3398 23.6758C36.9492 22.3945 37.8047 21.4141 38.9062 20.7344C40.0156 20.0469 41.2812 19.7031 42.7031 19.7031C44.125 19.7031 45.3867 20.0469 46.4883 20.7344C47.5977 21.4141 48.4531 22.3945 49.0547 23.6758C49.6641 24.9492 49.9688 26.4219 49.9688 28.0938V28.8555ZM46.4062 28.082C46.4062 26.293 46.0859 24.9336 45.4453 24.0039C44.8047 23.0742 43.8906 22.6094 42.7031 22.6094C41.5234 22.6094 40.6133 23.0703 39.9727 23.9922C39.332 24.9062 39.0078 26.25 39 28.0234V28.8555C39 30.5977 39.3203 31.9492 39.9609 32.9102C40.6016 33.8711 41.5234 34.3516 42.7266 34.3516C43.9062 34.3516 44.8125 33.8906 45.4453 32.9688C46.0781 32.0391 46.3984 30.6875 46.4062 28.9141V28.082ZM57.2695 32.3242H55.9102V37H52.5234V24.3203H55.9102V29.0898H57.1172L59.8828 24.3203H64.1602L60.0117 30.3555L64.5469 37H60.0352L57.2695 32.3242ZM70.5586 32.207L72.9023 24.3203H76.5352L71.4375 38.9688L71.1562 39.6367C70.3984 41.293 69.1484 42.1211 67.4062 42.1211C66.9141 42.1211 66.4141 42.0469 65.9062 41.8984V39.332L66.4219 39.3438C67.0625 39.3438 67.5391 39.2461 67.8516 39.0508C68.1719 38.8555 68.4219 38.5312 68.6016 38.0781L69 37.0352L64.5586 24.3203H68.2031L70.5586 32.207ZM88.8984 37H85.5V27.0625H81.2578V37H77.8711V24.3203H88.8984V37ZM98.8359 37C98.6797 36.6953 98.5664 36.3164 98.4961 35.8633C97.6758 36.7773 96.6094 37.2344 95.2969 37.2344C94.0547 37.2344 93.0234 36.875 92.2031 36.1562C91.3906 35.4375 90.9844 34.5312 90.9844 33.4375C90.9844 32.0938 91.4805 31.0625 92.4727 30.3438C93.4727 29.625 94.9141 29.2617 96.7969 29.2539H98.3555V28.5273C98.3555 27.9414 98.2031 27.4727 97.8984 27.1211C97.6016 26.7695 97.1289 26.5938 96.4805 26.5938C95.9102 26.5938 95.4609 26.7305 95.1328 27.0039C94.8125 27.2773 94.6523 27.6523 94.6523 28.1289H91.2656C91.2656 27.3945 91.4922 26.7148 91.9453 26.0898C92.3984 25.4648 93.0391 24.9766 93.8672 24.625C94.6953 24.2656 95.625 24.0859 96.6562 24.0859C98.2188 24.0859 99.457 24.4805 100.371 25.2695C101.293 26.0508 101.754 27.1523 101.754 28.5742V34.0703C101.762 35.2734 101.93 36.1836 102.258 36.8008V37H98.8359ZM96.0352 34.6445C96.5352 34.6445 96.9961 34.5352 97.418 34.3164C97.8398 34.0898 98.1523 33.7891 98.3555 33.4141V31.2344H97.0898C95.3945 31.2344 94.4922 31.8203 94.3828 32.9922L94.3711 33.1914C94.3711 33.6133 94.5195 33.9609 94.8164 34.2344C95.1133 34.5078 95.5195 34.6445 96.0352 34.6445ZM110.191 37.2344C108.332 37.2344 106.816 36.6641 105.645 35.5234C104.48 34.3828 103.898 32.8633 103.898 30.9648V30.6367C103.898 29.3633 104.145 28.2266 104.637 27.2266C105.129 26.2188 105.824 25.4453 106.723 24.9062C107.629 24.3594 108.66 24.0859 109.816 24.0859C111.551 24.0859 112.914 24.6328 113.906 25.7266C114.906 26.8203 115.406 28.3711 115.406 30.3789V31.7617H107.332C107.441 32.5898 107.77 33.2539 108.316 33.7539C108.871 34.2539 109.57 34.5039 110.414 34.5039C111.719 34.5039 112.738 34.0312 113.473 33.0859L115.137 34.9492C114.629 35.668 113.941 36.2305 113.074 36.6367C112.207 37.0352 111.246 37.2344 110.191 37.2344ZM109.805 26.8281C109.133 26.8281 108.586 27.0547 108.164 27.5078C107.75 27.9609 107.484 28.6094 107.367 29.4531H112.078V29.1836C112.062 28.4336 111.859 27.8555 111.469 27.4492C111.078 27.0352 110.523 26.8281 109.805 26.8281ZM125.062 33.0039L128.379 24.3203H132.621V37H129.234V29.2188L126.199 37H123.926L120.949 29.3477V37H117.562V24.3203H121.77L125.062 33.0039ZM135.047 30.543C135.047 29.2852 135.289 28.1641 135.773 27.1797C136.258 26.1953 136.953 25.4336 137.859 24.8945C138.773 24.3555 139.832 24.0859 141.035 24.0859C142.746 24.0859 144.141 24.6094 145.219 25.6562C146.305 26.7031 146.91 28.125 147.035 29.9219L147.059 30.7891C147.059 32.7344 146.516 34.2969 145.43 35.4766C144.344 36.6484 142.887 37.2344 141.059 37.2344C139.23 37.2344 137.77 36.6484 136.676 35.4766C135.59 34.3047 135.047 32.7109 135.047 30.6953V30.543ZM138.434 30.7891C138.434 31.9922 138.66 32.9141 139.113 33.5547C139.566 34.1875 140.215 34.5039 141.059 34.5039C141.879 34.5039 142.52 34.1914 142.98 33.5664C143.441 32.9336 143.672 31.9258 143.672 30.543C143.672 29.3633 143.441 28.4492 142.98 27.8008C142.52 27.1523 141.871 26.8281 141.035 26.8281C140.207 26.8281 139.566 27.1523 139.113 27.8008C138.66 28.4414 138.434 29.4375 138.434 30.7891ZM154.418 34.5039C155.043 34.5039 155.551 34.332 155.941 33.9883C156.332 33.6445 156.535 33.1875 156.551 32.6172H159.727C159.719 33.4766 159.484 34.2656 159.023 34.9844C158.562 35.6953 157.93 36.25 157.125 36.6484C156.328 37.0391 155.445 37.2344 154.477 37.2344C152.664 37.2344 151.234 36.6602 150.188 35.5117C149.141 34.3555 148.617 32.7617 148.617 30.7305V30.5078C148.617 28.5547 149.137 26.9961 150.176 25.832C151.215 24.668 152.641 24.0859 154.453 24.0859C156.039 24.0859 157.309 24.5391 158.262 25.4453C159.223 26.3438 159.711 27.543 159.727 29.043H156.551C156.535 28.3867 156.332 27.8555 155.941 27.4492C155.551 27.0352 155.035 26.8281 154.395 26.8281C153.605 26.8281 153.008 27.1172 152.602 27.6953C152.203 28.2656 152.004 29.1953 152.004 30.4844V30.8359C152.004 32.1406 152.203 33.0781 152.602 33.6484C153 34.2188 153.605 34.5039 154.418 34.5039ZM172.184 27.0391H168.117V37H164.719V27.0391H160.723V24.3203H172.184V27.0391ZM177.516 28.0352H179.941C181.035 28.0352 181.996 28.2188 182.824 28.5859C183.652 28.9531 184.285 29.4805 184.723 30.168C185.168 30.8477 185.391 31.6406 185.391 32.5469C185.391 33.8828 184.895 34.9609 183.902 35.7812C182.918 36.5938 181.574 37 179.871 37H174.117V24.3203H177.516V28.0352ZM177.516 30.7539V34.293H179.918C180.59 34.293 181.105 34.1367 181.465 33.8242C181.824 33.5117 182.004 33.0859 182.004 32.5469C182.004 32 181.828 31.5664 181.477 31.2461C181.125 30.918 180.605 30.7539 179.918 30.7539H177.516ZM92.8467 57.2334C92.8467 56.5088 92.988 55.8571 93.2705 55.2783C93.5576 54.6995 93.9541 54.2529 94.46 53.9385C94.9704 53.624 95.5514 53.4668 96.2031 53.4668C97.2103 53.4668 98.0238 53.8154 98.6436 54.5127C99.2679 55.21 99.5801 56.1374 99.5801 57.2949V57.3838C99.5801 58.1038 99.4411 58.751 99.1631 59.3252C98.8896 59.8949 98.4954 60.3392 97.9805 60.6582C97.4701 60.9772 96.8822 61.1367 96.2168 61.1367C95.2142 61.1367 94.4007 60.7881 93.7764 60.0908C93.1566 59.3936 92.8467 58.4707 92.8467 57.3223V57.2334ZM94.1182 57.3838C94.1182 58.2041 94.3073 58.8626 94.6855 59.3594C95.0684 59.8561 95.5788 60.1045 96.2168 60.1045C96.8594 60.1045 97.3698 59.8538 97.748 59.3525C98.1263 58.8467 98.3154 58.1403 98.3154 57.2334C98.3154 56.4222 98.1217 55.766 97.7344 55.2646C97.3516 54.7588 96.8411 54.5059 96.2031 54.5059C95.5788 54.5059 95.0752 54.7542 94.6924 55.251C94.3096 55.7477 94.1182 56.4587 94.1182 57.3838ZM106.512 54.6289H104.03V61H102.766V54.6289H100.332V53.6035H106.512V54.6289ZM115.241 61H113.97V52.5713L111.42 53.5078V52.3594L115.043 50.999H115.241V61ZM125.188 56.7549C125.188 58.236 124.935 59.3366 124.429 60.0566C123.923 60.7767 123.132 61.1367 122.057 61.1367C120.995 61.1367 120.209 60.7858 119.698 60.084C119.188 59.3776 118.924 58.3249 118.905 56.9258V55.2373C118.905 53.7744 119.158 52.6875 119.664 51.9766C120.17 51.2656 120.963 50.9102 122.043 50.9102C123.114 50.9102 123.902 51.2542 124.408 51.9424C124.914 52.626 125.174 53.6833 125.188 55.1143V56.7549ZM123.923 55.0254C123.923 53.9544 123.772 53.1751 123.472 52.6875C123.171 52.1953 122.695 51.9492 122.043 51.9492C121.396 51.9492 120.924 52.193 120.628 52.6807C120.332 53.1683 120.179 53.918 120.17 54.9297V56.9531C120.17 58.0286 120.325 58.8239 120.635 59.3389C120.949 59.8493 121.423 60.1045 122.057 60.1045C122.681 60.1045 123.144 59.863 123.444 59.3799C123.75 58.8968 123.909 58.1357 123.923 57.0967V55.0254ZM134.669 59.3252L137.185 53.6035H138.764V61H137.499V55.6201L135.106 61H134.231L131.791 55.5039V61H130.526V53.6035H132.167L134.669 59.3252ZM143.87 61.1367C142.868 61.1367 142.052 60.8086 141.423 60.1523C140.794 59.4915 140.479 58.6097 140.479 57.5068V57.2744C140.479 56.5407 140.618 55.8867 140.896 55.3125C141.179 54.7337 141.571 54.2826 142.072 53.959C142.578 53.6309 143.125 53.4668 143.713 53.4668C144.674 53.4668 145.422 53.7835 145.955 54.417C146.488 55.0505 146.755 55.9574 146.755 57.1377V57.6641H141.744C141.762 58.3932 141.974 58.9834 142.38 59.4346C142.79 59.8812 143.31 60.1045 143.938 60.1045C144.385 60.1045 144.763 60.0133 145.073 59.8311C145.383 59.6488 145.654 59.4072 145.887 59.1064L146.659 59.708C146.039 60.6605 145.11 61.1367 143.87 61.1367ZM143.713 54.5059C143.202 54.5059 142.774 54.6927 142.428 55.0664C142.081 55.4355 141.867 55.9551 141.785 56.625H145.49V56.5293C145.454 55.8867 145.281 55.39 144.971 55.0391C144.661 54.6836 144.242 54.5059 143.713 54.5059ZM151.191 60.1045C151.643 60.1045 152.037 59.9678 152.374 59.6943C152.711 59.4209 152.898 59.0791 152.935 58.6689H154.131C154.108 59.0928 153.962 59.4961 153.693 59.8789C153.424 60.2617 153.064 60.5671 152.613 60.7949C152.167 61.0228 151.693 61.1367 151.191 61.1367C150.184 61.1367 149.382 60.8018 148.785 60.1318C148.193 59.4574 147.896 58.5368 147.896 57.3701V57.1582C147.896 56.4382 148.029 55.7979 148.293 55.2373C148.557 54.6768 148.936 54.2415 149.428 53.9316C149.924 53.6217 150.51 53.4668 151.185 53.4668C152.014 53.4668 152.702 53.7152 153.249 54.2119C153.8 54.7087 154.094 55.3535 154.131 56.1465H152.935C152.898 55.668 152.716 55.276 152.388 54.9707C152.064 54.6608 151.663 54.5059 151.185 54.5059C150.542 54.5059 150.043 54.7383 149.688 55.2031C149.337 55.6634 149.161 56.3311 149.161 57.2061V57.4453C149.161 58.2975 149.337 58.9538 149.688 59.4141C150.038 59.8743 150.54 60.1045 151.191 60.1045ZM161.206 53.6035V61H159.935V58.1221H158.027L156.284 61H154.917L156.776 57.9307C156.302 57.7575 155.938 57.4909 155.683 57.1309C155.432 56.7663 155.307 56.3424 155.307 55.8594C155.307 55.1849 155.56 54.6426 156.065 54.2324C156.571 53.8177 157.248 53.6081 158.096 53.6035H161.206ZM156.578 55.873C156.578 56.2331 156.701 56.5247 156.947 56.748C157.193 56.9668 157.519 57.0785 157.925 57.083H159.935V54.6289H158.116C157.647 54.6289 157.273 54.7451 156.995 54.9775C156.717 55.2054 156.578 55.5039 156.578 55.873ZM163.346 53.6035H164.617V59.9678H168.021V53.6035H169.286V59.9678H170.168L170.045 63.1943H168.91V61H163.346V53.6035ZM174.604 61.1367C173.602 61.1367 172.786 60.8086 172.157 60.1523C171.528 59.4915 171.214 58.6097 171.214 57.5068V57.2744C171.214 56.5407 171.353 55.8867 171.631 55.3125C171.913 54.7337 172.305 54.2826 172.807 53.959C173.312 53.6309 173.859 53.4668 174.447 53.4668C175.409 53.4668 176.156 53.7835 176.689 54.417C177.223 55.0505 177.489 55.9574 177.489 57.1377V57.6641H172.479C172.497 58.3932 172.709 58.9834 173.114 59.4346C173.524 59.8812 174.044 60.1045 174.673 60.1045C175.119 60.1045 175.498 60.0133 175.808 59.8311C176.118 59.6488 176.389 59.4072 176.621 59.1064L177.394 59.708C176.774 60.6605 175.844 61.1367 174.604 61.1367ZM174.447 54.5059C173.937 54.5059 173.508 54.6927 173.162 55.0664C172.816 55.4355 172.602 55.9551 172.52 56.625H176.225V56.5293C176.188 55.8867 176.015 55.39 175.705 55.0391C175.395 54.6836 174.976 54.5059 174.447 54.5059ZM179.075 61V53.6035H181.96C182.944 53.6035 183.699 53.7767 184.223 54.123C184.751 54.4648 185.016 54.9684 185.016 55.6338C185.016 55.9756 184.913 56.2855 184.708 56.5635C184.503 56.8369 184.2 57.0465 183.799 57.1924C184.245 57.2972 184.603 57.5023 184.872 57.8076C185.146 58.113 185.282 58.4775 185.282 58.9014C185.282 59.5804 185.032 60.0999 184.53 60.46C184.034 60.82 183.329 61 182.418 61H179.075ZM180.34 57.7529V59.9814H182.432C182.96 59.9814 183.354 59.8835 183.614 59.6875C183.879 59.4915 184.011 59.2158 184.011 58.8604C184.011 58.1221 183.468 57.7529 182.384 57.7529H180.34ZM180.34 56.7412H181.974C183.159 56.7412 183.751 56.3949 183.751 55.7021C183.751 55.0094 183.19 54.6517 182.069 54.6289H180.34V56.7412Z" fill="#323232"/>
<path d="M233.773 30.543C233.773 29.2852 234.016 28.1641 234.5 27.1797C234.984 26.1953 235.68 25.4336 236.586 24.8945C237.5 24.3555 238.559 24.0859 239.762 24.0859C241.473 24.0859 242.867 24.6094 243.945 25.6562C245.031 26.7031 245.637 28.125 245.762 29.9219L245.785 30.7891C245.785 32.7344 245.242 34.2969 244.156 35.4766C243.07 36.6484 241.613 37.2344 239.785 37.2344C237.957 37.2344 236.496 36.6484 235.402 35.4766C234.316 34.3047 233.773 32.7109 233.773 30.6953V30.543ZM237.16 30.7891C237.16 31.9922 237.387 32.9141 237.84 33.5547C238.293 34.1875 238.941 34.5039 239.785 34.5039C240.605 34.5039 241.246 34.1914 241.707 33.5664C242.168 32.9336 242.398 31.9258 242.398 30.543C242.398 29.3633 242.168 28.4492 241.707 27.8008C241.246 27.1523 240.598 26.8281 239.762 26.8281C238.934 26.8281 238.293 27.1523 237.84 27.8008C237.387 28.4414 237.16 29.4375 237.16 30.7891ZM258.043 27.0391H253.977V37H250.578V27.0391H246.582V24.3203H258.043V27.0391ZM275.609 30.5781H277.543V33.3086H275.609V37H272.223V33.3086H265.227L265.074 31.1758L272.188 19.9375H275.609V30.5781ZM268.449 30.5781H272.223V24.5547L272 24.9414L268.449 30.5781ZM290.855 29.9453C290.855 32.3047 290.367 34.1094 289.391 35.3594C288.414 36.6094 286.984 37.2344 285.102 37.2344C283.242 37.2344 281.82 36.6211 280.836 35.3945C279.852 34.168 279.348 32.4102 279.324 30.1211V26.9805C279.324 24.5977 279.816 22.7891 280.801 21.5547C281.793 20.3203 283.219 19.7031 285.078 19.7031C286.938 19.7031 288.359 20.3164 289.344 21.543C290.328 22.7617 290.832 24.5156 290.855 26.8047V29.9453ZM287.469 26.5C287.469 25.0859 287.273 24.0586 286.883 23.418C286.5 22.7695 285.898 22.4453 285.078 22.4453C284.281 22.4453 283.691 22.7539 283.309 23.3711C282.934 23.9805 282.734 24.9375 282.711 26.2422V30.3906C282.711 31.7812 282.898 32.8164 283.273 33.4961C283.656 34.168 284.266 34.5039 285.102 34.5039C285.93 34.5039 286.527 34.1797 286.895 33.5312C287.262 32.8828 287.453 31.8906 287.469 30.5547V26.5ZM304.637 29.9453C304.637 32.3047 304.148 34.1094 303.172 35.3594C302.195 36.6094 300.766 37.2344 298.883 37.2344C297.023 37.2344 295.602 36.6211 294.617 35.3945C293.633 34.168 293.129 32.4102 293.105 30.1211V26.9805C293.105 24.5977 293.598 22.7891 294.582 21.5547C295.574 20.3203 297 19.7031 298.859 19.7031C300.719 19.7031 302.141 20.3164 303.125 21.543C304.109 22.7617 304.613 24.5156 304.637 26.8047V29.9453ZM301.25 26.5C301.25 25.0859 301.055 24.0586 300.664 23.418C300.281 22.7695 299.68 22.4453 298.859 22.4453C298.062 22.4453 297.473 22.7539 297.09 23.3711C296.715 23.9805 296.516 24.9375 296.492 26.2422V30.3906C296.492 31.7812 296.68 32.8164 297.055 33.4961C297.438 34.168 298.047 34.5039 298.883 34.5039C299.711 34.5039 300.309 34.1797 300.676 33.5312C301.043 32.8828 301.234 31.8906 301.25 30.5547V26.5ZM324.395 29.9453C324.395 32.3047 323.906 34.1094 322.93 35.3594C321.953 36.6094 320.523 37.2344 318.641 37.2344C316.781 37.2344 315.359 36.6211 314.375 35.3945C313.391 34.168 312.887 32.4102 312.863 30.1211V26.9805C312.863 24.5977 313.355 22.7891 314.34 21.5547C315.332 20.3203 316.758 19.7031 318.617 19.7031C320.477 19.7031 321.898 20.3164 322.883 21.543C323.867 22.7617 324.371 24.5156 324.395 26.8047V29.9453ZM321.008 26.5C321.008 25.0859 320.812 24.0586 320.422 23.418C320.039 22.7695 319.438 22.4453 318.617 22.4453C317.82 22.4453 317.23 22.7539 316.848 23.3711C316.473 23.9805 316.273 24.9375 316.25 26.2422V30.3906C316.25 31.7812 316.438 32.8164 316.812 33.4961C317.195 34.168 317.805 34.5039 318.641 34.5039C319.469 34.5039 320.066 34.1797 320.434 33.5312C320.801 32.8828 320.992 31.8906 321.008 30.5547V26.5ZM338.176 29.9453C338.176 32.3047 337.688 34.1094 336.711 35.3594C335.734 36.6094 334.305 37.2344 332.422 37.2344C330.562 37.2344 329.141 36.6211 328.156 35.3945C327.172 34.168 326.668 32.4102 326.645 30.1211V26.9805C326.645 24.5977 327.137 22.7891 328.121 21.5547C329.113 20.3203 330.539 19.7031 332.398 19.7031C334.258 19.7031 335.68 20.3164 336.664 21.543C337.648 22.7617 338.152 24.5156 338.176 26.8047V29.9453ZM334.789 26.5C334.789 25.0859 334.594 24.0586 334.203 23.418C333.82 22.7695 333.219 22.4453 332.398 22.4453C331.602 22.4453 331.012 22.7539 330.629 23.3711C330.254 23.9805 330.055 24.9375 330.031 26.2422V30.3906C330.031 31.7812 330.219 32.8164 330.594 33.4961C330.977 34.168 331.586 34.5039 332.422 34.5039C333.25 34.5039 333.848 34.1797 334.215 33.5312C334.582 32.8828 334.773 31.8906 334.789 30.5547V26.5ZM351.957 29.9453C351.957 32.3047 351.469 34.1094 350.492 35.3594C349.516 36.6094 348.086 37.2344 346.203 37.2344C344.344 37.2344 342.922 36.6211 341.938 35.3945C340.953 34.168 340.449 32.4102 340.426 30.1211V26.9805C340.426 24.5977 340.918 22.7891 341.902 21.5547C342.895 20.3203 344.32 19.7031 346.18 19.7031C348.039 19.7031 349.461 20.3164 350.445 21.543C351.43 22.7617 351.934 24.5156 351.957 26.8047V29.9453ZM348.57 26.5C348.57 25.0859 348.375 24.0586 347.984 23.418C347.602 22.7695 347 22.4453 346.18 22.4453C345.383 22.4453 344.793 22.7539 344.41 23.3711C344.035 23.9805 343.836 24.9375 343.812 26.2422V30.3906C343.812 31.7812 344 32.8164 344.375 33.4961C344.758 34.168 345.367 34.5039 346.203 34.5039C347.031 34.5039 347.629 34.1797 347.996 33.5312C348.363 32.8828 348.555 31.8906 348.57 30.5547V26.5ZM369.289 34.7266H365.562V37H362.047V34.7266H359.668V31.8789H362.047V30.9883H359.668V28.1406H362.047V19.9375H368.68C369.961 19.9375 371.086 20.168 372.055 20.6289C373.023 21.0898 373.773 21.75 374.305 22.6094C374.844 23.4609 375.113 24.4336 375.113 25.5273C375.113 27.2148 374.539 28.5469 373.391 29.5234C372.25 30.5 370.66 30.9883 368.621 30.9883H365.562V31.8789H369.289V34.7266ZM365.562 28.1406H368.598C370.566 28.1406 371.551 27.2773 371.551 25.5508C371.551 24.7305 371.301 24.0703 370.801 23.5703C370.301 23.0625 369.609 22.8047 368.727 22.7969H365.562V28.1406ZM234.477 62.2695C235.242 61.457 235.762 60.6523 236.035 59.8555C236.309 59.0586 236.461 57.9297 236.492 56.4688L236.586 52.3203H245.914V62.2695H247.742V68.8086H244.355V65H236.844V68.8086H233.387V62.2695H234.477ZM238.473 62.2695H242.539V55.1211H239.902L239.879 56.6445C239.809 58.9727 239.34 60.8477 238.473 62.2695ZM248.938 58.543C248.938 57.2852 249.18 56.1641 249.664 55.1797C250.148 54.1953 250.844 53.4336 251.75 52.8945C252.664 52.3555 253.723 52.0859 254.926 52.0859C256.637 52.0859 258.031 52.6094 259.109 53.6562C260.195 54.7031 260.801 56.125 260.926 57.9219L260.949 58.7891C260.949 60.7344 260.406 62.2969 259.32 63.4766C258.234 64.6484 256.777 65.2344 254.949 65.2344C253.121 65.2344 251.66 64.6484 250.566 63.4766C249.48 62.3047 248.938 60.7109 248.938 58.6953V58.543ZM252.324 58.7891C252.324 59.9922 252.551 60.9141 253.004 61.5547C253.457 62.1875 254.105 62.5039 254.949 62.5039C255.77 62.5039 256.41 62.1914 256.871 61.5664C257.332 60.9336 257.562 59.9258 257.562 58.543C257.562 57.3633 257.332 56.4492 256.871 55.8008C256.41 55.1523 255.762 54.8281 254.926 54.8281C254.098 54.8281 253.457 55.1523 253.004 55.8008C252.551 56.4414 252.324 57.4375 252.324 58.7891ZM280.473 49.8359L273.875 65H270.301L276.91 50.6797H268.426V47.9375H280.473V49.8359ZM294.137 57.9453C294.137 60.3047 293.648 62.1094 292.672 63.3594C291.695 64.6094 290.266 65.2344 288.383 65.2344C286.523 65.2344 285.102 64.6211 284.117 63.3945C283.133 62.168 282.629 60.4102 282.605 58.1211V54.9805C282.605 52.5977 283.098 50.7891 284.082 49.5547C285.074 48.3203 286.5 47.7031 288.359 47.7031C290.219 47.7031 291.641 48.3164 292.625 49.543C293.609 50.7617 294.113 52.5156 294.137 54.8047V57.9453ZM290.75 54.5C290.75 53.0859 290.555 52.0586 290.164 51.418C289.781 50.7695 289.18 50.4453 288.359 50.4453C287.562 50.4453 286.973 50.7539 286.59 51.3711C286.215 51.9805 286.016 52.9375 285.992 54.2422V58.3906C285.992 59.7812 286.18 60.8164 286.555 61.4961C286.938 62.168 287.547 62.5039 288.383 62.5039C289.211 62.5039 289.809 62.1797 290.176 61.5312C290.543 60.8828 290.734 59.8906 290.75 58.5547V54.5ZM307.918 57.9453C307.918 60.3047 307.43 62.1094 306.453 63.3594C305.477 64.6094 304.047 65.2344 302.164 65.2344C300.305 65.2344 298.883 64.6211 297.898 63.3945C296.914 62.168 296.41 60.4102 296.387 58.1211V54.9805C296.387 52.5977 296.879 50.7891 297.863 49.5547C298.855 48.3203 300.281 47.7031 302.141 47.7031C304 47.7031 305.422 48.3164 306.406 49.543C307.391 50.7617 307.895 52.5156 307.918 54.8047V57.9453ZM304.531 54.5C304.531 53.0859 304.336 52.0586 303.945 51.418C303.562 50.7695 302.961 50.4453 302.141 50.4453C301.344 50.4453 300.754 50.7539 300.371 51.3711C299.996 51.9805 299.797 52.9375 299.773 54.2422V58.3906C299.773 59.7812 299.961 60.8164 300.336 61.4961C300.719 62.168 301.328 62.5039 302.164 62.5039C302.992 62.5039 303.59 62.1797 303.957 61.5312C304.324 60.8828 304.516 59.8906 304.531 58.5547V54.5ZM327.676 57.9453C327.676 60.3047 327.188 62.1094 326.211 63.3594C325.234 64.6094 323.805 65.2344 321.922 65.2344C320.062 65.2344 318.641 64.6211 317.656 63.3945C316.672 62.168 316.168 60.4102 316.145 58.1211V54.9805C316.145 52.5977 316.637 50.7891 317.621 49.5547C318.613 48.3203 320.039 47.7031 321.898 47.7031C323.758 47.7031 325.18 48.3164 326.164 49.543C327.148 50.7617 327.652 52.5156 327.676 54.8047V57.9453ZM324.289 54.5C324.289 53.0859 324.094 52.0586 323.703 51.418C323.32 50.7695 322.719 50.4453 321.898 50.4453C321.102 50.4453 320.512 50.7539 320.129 51.3711C319.754 51.9805 319.555 52.9375 319.531 54.2422V58.3906C319.531 59.7812 319.719 60.8164 320.094 61.4961C320.477 62.168 321.086 62.5039 321.922 62.5039C322.75 62.5039 323.348 62.1797 323.715 61.5312C324.082 60.8828 324.273 59.8906 324.289 58.5547V54.5ZM341.457 57.9453C341.457 60.3047 340.969 62.1094 339.992 63.3594C339.016 64.6094 337.586 65.2344 335.703 65.2344C333.844 65.2344 332.422 64.6211 331.438 63.3945C330.453 62.168 329.949 60.4102 329.926 58.1211V54.9805C329.926 52.5977 330.418 50.7891 331.402 49.5547C332.395 48.3203 333.82 47.7031 335.68 47.7031C337.539 47.7031 338.961 48.3164 339.945 49.543C340.93 50.7617 341.434 52.5156 341.457 54.8047V57.9453ZM338.07 54.5C338.07 53.0859 337.875 52.0586 337.484 51.418C337.102 50.7695 336.5 50.4453 335.68 50.4453C334.883 50.4453 334.293 50.7539 333.91 51.3711C333.535 51.9805 333.336 52.9375 333.312 54.2422V58.3906C333.312 59.7812 333.5 60.8164 333.875 61.4961C334.258 62.168 334.867 62.5039 335.703 62.5039C336.531 62.5039 337.129 62.1797 337.496 61.5312C337.863 60.8828 338.055 59.8906 338.07 58.5547V54.5ZM355.238 57.9453C355.238 60.3047 354.75 62.1094 353.773 63.3594C352.797 64.6094 351.367 65.2344 349.484 65.2344C347.625 65.2344 346.203 64.6211 345.219 63.3945C344.234 62.168 343.73 60.4102 343.707 58.1211V54.9805C343.707 52.5977 344.199 50.7891 345.184 49.5547C346.176 48.3203 347.602 47.7031 349.461 47.7031C351.32 47.7031 352.742 48.3164 353.727 49.543C354.711 50.7617 355.215 52.5156 355.238 54.8047V57.9453ZM351.852 54.5C351.852 53.0859 351.656 52.0586 351.266 51.418C350.883 50.7695 350.281 50.4453 349.461 50.4453C348.664 50.4453 348.074 50.7539 347.691 51.3711C347.316 51.9805 347.117 52.9375 347.094 54.2422V58.3906C347.094 59.7812 347.281 60.8164 347.656 61.4961C348.039 62.168 348.648 62.5039 349.484 62.5039C350.312 62.5039 350.91 62.1797 351.277 61.5312C351.645 60.8828 351.836 59.8906 351.852 58.5547V54.5ZM372.57 62.7266H368.844V65H365.328V62.7266H362.949V59.8789H365.328V58.9883H362.949V56.1406H365.328V47.9375H371.961C373.242 47.9375 374.367 48.168 375.336 48.6289C376.305 49.0898 377.055 49.75 377.586 50.6094C378.125 51.4609 378.395 52.4336 378.395 53.5273C378.395 55.2148 377.82 56.5469 376.672 57.5234C375.531 58.5 373.941 58.9883 371.902 58.9883H368.844V59.8789H372.57V62.7266ZM368.844 56.1406H371.879C373.848 56.1406 374.832 55.2773 374.832 53.5508C374.832 52.7305 374.582 52.0703 374.082 51.5703C373.582 51.0625 372.891 50.8047 372.008 50.7969H368.844V56.1406ZM234.073 89V81.6035H236.958C237.942 81.6035 238.697 81.7767 239.221 82.123C239.749 82.4648 240.014 82.9684 240.014 83.6338C240.014 83.9756 239.911 84.2855 239.706 84.5635C239.501 84.8369 239.198 85.0465 238.797 85.1924C239.243 85.2972 239.601 85.5023 239.87 85.8076C240.144 86.113 240.28 86.4775 240.28 86.9014C240.28 87.5804 240.03 88.0999 239.528 88.46C239.032 88.82 238.327 89 237.416 89H234.073ZM235.338 85.7529V87.9814H237.43C237.958 87.9814 238.353 87.8835 238.612 87.6875C238.877 87.4915 239.009 87.2158 239.009 86.8604C239.009 86.1221 238.466 85.7529 237.382 85.7529H235.338ZM235.338 84.7412H236.972C238.157 84.7412 238.749 84.3949 238.749 83.7021C238.749 83.0094 238.188 82.6517 237.067 82.6289H235.338V84.7412ZM249.687 87.3252L252.202 81.6035H253.781V89H252.517V83.6201L250.124 89H249.249L246.809 83.5039V89H245.544V81.6035H247.185L249.687 87.3252ZM258.888 89.1367C257.885 89.1367 257.069 88.8086 256.44 88.1523C255.812 87.4915 255.497 86.6097 255.497 85.5068V85.2744C255.497 84.5407 255.636 83.8867 255.914 83.3125C256.197 82.7337 256.589 82.2826 257.09 81.959C257.596 81.6309 258.143 81.4668 258.73 81.4668C259.692 81.4668 260.439 81.7835 260.973 82.417C261.506 83.0505 261.772 83.9574 261.772 85.1377V85.6641H256.762C256.78 86.3932 256.992 86.9834 257.397 87.4346C257.808 87.8812 258.327 88.1045 258.956 88.1045C259.403 88.1045 259.781 88.0133 260.091 87.8311C260.401 87.6488 260.672 87.4072 260.904 87.1064L261.677 87.708C261.057 88.6605 260.127 89.1367 258.888 89.1367ZM258.73 82.5059C258.22 82.5059 257.792 82.6927 257.445 83.0664C257.099 83.4355 256.885 83.9551 256.803 84.625H260.508V84.5293C260.471 83.8867 260.298 83.39 259.988 83.0391C259.678 82.6836 259.259 82.5059 258.73 82.5059ZM266.209 88.1045C266.66 88.1045 267.054 87.9678 267.392 87.6943C267.729 87.4209 267.916 87.0791 267.952 86.6689H269.148C269.126 87.0928 268.98 87.4961 268.711 87.8789C268.442 88.2617 268.082 88.5671 267.631 88.7949C267.184 89.0228 266.71 89.1367 266.209 89.1367C265.202 89.1367 264.4 88.8018 263.803 88.1318C263.21 87.4574 262.914 86.5368 262.914 85.3701V85.1582C262.914 84.4382 263.046 83.7979 263.311 83.2373C263.575 82.6768 263.953 82.2415 264.445 81.9316C264.942 81.6217 265.528 81.4668 266.202 81.4668C267.032 81.4668 267.72 81.7152 268.267 82.2119C268.818 82.7087 269.112 83.3535 269.148 84.1465H267.952C267.916 83.668 267.733 83.276 267.405 82.9707C267.082 82.6608 266.681 82.5059 266.202 82.5059C265.56 82.5059 265.061 82.7383 264.705 83.2031C264.354 83.6634 264.179 84.3311 264.179 85.2061V85.4453C264.179 86.2975 264.354 86.9538 264.705 87.4141C265.056 87.8743 265.557 88.1045 266.209 88.1045ZM276.224 81.6035V89H274.952V86.1221H273.045L271.302 89H269.935L271.794 85.9307C271.32 85.7575 270.955 85.4909 270.7 85.1309C270.45 84.7663 270.324 84.3424 270.324 83.8594C270.324 83.1849 270.577 82.6426 271.083 82.2324C271.589 81.8177 272.266 81.6081 273.113 81.6035H276.224ZM271.596 83.873C271.596 84.2331 271.719 84.5247 271.965 84.748C272.211 84.9668 272.537 85.0785 272.942 85.083H274.952V82.6289H273.134C272.664 82.6289 272.291 82.7451 272.013 82.9775C271.735 83.2054 271.596 83.5039 271.596 83.873ZM278.363 81.6035H279.635V87.9678H283.039V81.6035H284.304V87.9678H285.186L285.062 91.1943H283.928V89H278.363V81.6035ZM296.075 89H294.811V82.6494H291.406V89H290.135V81.6035H296.075V89ZM304.354 85.3838C304.354 86.5094 304.096 87.4163 303.581 88.1045C303.066 88.7926 302.369 89.1367 301.489 89.1367C300.591 89.1367 299.885 88.8519 299.37 88.2822V91.8438H298.105V81.6035H299.261L299.322 82.4238C299.837 81.7858 300.553 81.4668 301.469 81.4668C302.357 81.4668 303.059 81.8018 303.574 82.4717C304.094 83.1416 304.354 84.0736 304.354 85.2676V85.3838ZM303.089 85.2402C303.089 84.4062 302.911 83.7477 302.556 83.2646C302.2 82.7816 301.713 82.54 301.093 82.54C300.327 82.54 299.753 82.8796 299.37 83.5586V87.0928C299.748 87.7673 300.327 88.1045 301.106 88.1045C301.713 88.1045 302.193 87.8652 302.549 87.3867C302.909 86.9036 303.089 86.1882 303.089 85.2402ZM310.752 81.6035H312.017V89H310.752V83.6064L307.341 89H306.076V81.6035H307.341V87.0039L310.752 81.6035ZM317.294 82.0273C318.224 82.0273 318.966 82.3395 319.522 82.9639C320.083 83.5837 320.363 84.4017 320.363 85.418V85.5342C320.363 86.2314 320.229 86.8558 319.96 87.4072C319.691 87.9541 319.304 88.3802 318.798 88.6855C318.297 88.9863 317.718 89.1367 317.062 89.1367C316.068 89.1367 315.268 88.8063 314.662 88.1455C314.056 87.4801 313.753 86.5892 313.753 85.4727V84.8574C313.753 83.3034 314.04 82.0684 314.614 81.1523C315.193 80.2363 316.045 79.6781 317.171 79.4775C317.809 79.3636 318.24 79.2246 318.463 79.0605C318.686 78.8965 318.798 78.6709 318.798 78.3838H319.837C319.837 78.9535 319.707 79.3978 319.447 79.7168C319.192 80.0358 318.782 80.2614 318.217 80.3936L317.273 80.6055C316.521 80.7832 315.956 81.084 315.578 81.5078C315.204 81.9271 314.961 82.4876 314.847 83.1895C315.517 82.4147 316.332 82.0273 317.294 82.0273ZM317.048 83.0664C316.428 83.0664 315.936 83.276 315.571 83.6953C315.207 84.11 315.024 84.6865 315.024 85.4248V85.5342C315.024 86.3271 315.207 86.9561 315.571 87.4209C315.94 87.8812 316.437 88.1113 317.062 88.1113C317.69 88.1113 318.187 87.8789 318.552 87.4141C318.916 86.9492 319.099 86.2702 319.099 85.377C319.099 84.6797 318.914 84.1214 318.545 83.7021C318.18 83.2783 317.681 83.0664 317.048 83.0664ZM323.166 84.1533H325.087C325.925 84.1624 326.589 84.3812 327.076 84.8096C327.564 85.238 327.808 85.819 327.808 86.5527C327.808 87.291 327.557 87.8835 327.056 88.3301C326.554 88.7767 325.88 89 325.032 89H321.901V81.6035H323.166V84.1533ZM330.446 89H329.175V81.6035H330.446V89ZM323.166 85.1855V87.9678H325.046C325.52 87.9678 325.887 87.847 326.146 87.6055C326.406 87.3594 326.536 87.0244 326.536 86.6006C326.536 86.1904 326.409 85.8555 326.153 85.5957C325.903 85.3314 325.549 85.1947 325.094 85.1855H323.166ZM338.718 81.6035V89H337.446V82.6494H334.931L334.78 85.418C334.698 86.6895 334.484 87.5986 334.138 88.1455C333.796 88.6924 333.251 88.9772 332.504 89H331.998V87.8857L332.36 87.8584C332.771 87.8128 333.064 87.5758 333.242 87.1475C333.42 86.7191 333.534 85.9261 333.584 84.7686L333.721 81.6035H338.718ZM342.129 84.1533H344.05C344.888 84.1624 345.551 84.3812 346.039 84.8096C346.527 85.238 346.771 85.819 346.771 86.5527C346.771 87.291 346.52 87.8835 346.019 88.3301C345.517 88.7767 344.843 89 343.995 89H340.864V81.6035H342.129V84.1533ZM342.129 85.1855V87.9678H344.009C344.483 87.9678 344.85 87.847 345.109 87.6055C345.369 87.3594 345.499 87.0244 345.499 86.6006C345.499 86.1904 345.371 85.8555 345.116 85.5957C344.866 85.3314 344.512 85.1947 344.057 85.1855H342.129Z" fill="#323232"/>
<circle cx="209" cy="5" r="5" fill="#BC2A40"/>
<line x1="209.5" y1="11" x2="209.5" y2="86" stroke="#323232"/>
<g clip-path="url(#clip0)">
<path d="M239.314 143.474L227.071 124.28C228.805 123.369 229.992 121.549 229.992 119.457C229.992 117.167 228.571 115.204 226.564 114.401L230.273 101.433C230.433 100.874 230.277 100.272 229.866 99.8603C227.399 97.3931 223.384 97.3931 220.917 99.8603C220.327 100.45 219.542 100.775 218.707 100.775C217.873 100.775 217.088 100.45 216.494 99.8564L216.486 99.8486C214.028 97.3897 210.02 97.3828 207.552 99.834L207.506 99.8798C206.287 101.09 204.309 101.086 203.095 99.8719L203.083 99.8603C200.616 97.3931 196.601 97.3931 194.134 99.8603C193.722 100.272 193.566 100.875 193.727 101.434L197.444 114.398C195.433 115.199 194.008 117.164 194.008 119.458C194.008 121.55 195.194 123.369 196.929 124.28L184.685 143.474C179.949 150.899 179.649 159.943 183.883 167.666C188.116 175.389 195.902 180 204.71 180H219.289C228.097 180 235.883 175.389 240.117 167.666C244.351 159.943 244.051 150.899 239.314 143.474ZM200.818 102.125L200.83 102.137C203.288 104.596 207.296 104.602 209.764 102.152L209.81 102.106C211.028 100.896 213.007 100.9 214.225 102.117L214.233 102.125C216.7 104.592 220.714 104.592 223.182 102.125C224.186 101.121 225.708 100.945 226.895 101.595L223.344 114.012H200.666L197.105 101.595C198.292 100.945 199.814 101.122 200.818 102.125ZM237.308 166.126C233.645 172.808 226.909 176.797 219.29 176.797H204.71C197.091 176.797 190.355 172.808 186.692 166.126C183.029 159.445 183.288 151.621 187.386 145.197L200.332 124.903H204.792C205.677 124.903 206.394 124.186 206.394 123.301C206.394 122.417 205.677 121.7 204.792 121.7H199.454C198.217 121.7 197.211 120.694 197.211 119.457C197.211 118.221 198.217 117.215 199.454 117.215H199.459H224.546C225.783 117.215 226.789 118.221 226.789 119.457C226.789 120.694 225.783 121.7 224.546 121.7H219.207C218.323 121.7 217.606 122.417 217.606 123.301C217.606 124.186 218.323 124.903 219.207 124.903H223.668L236.614 145.197C240.712 151.621 240.971 159.445 237.308 166.126Z" fill="#BC2A40"/>
<path d="M214.823 150.307C214.422 150.165 214.011 150.017 213.601 149.864V142.605C214.687 142.924 215.413 143.443 215.443 143.465C216.148 143.993 217.147 143.853 217.68 143.15C218.214 142.445 218.075 141.44 217.37 140.906C217.276 140.835 215.787 139.729 213.601 139.311V137.717C213.601 136.832 212.884 136.115 212 136.115C211.115 136.115 210.398 136.832 210.398 137.717V139.299C210.127 139.351 209.852 139.417 209.573 139.501C207.319 140.178 205.634 142.106 205.176 144.532C204.758 146.747 205.467 148.884 207.028 150.107C207.875 150.772 208.933 151.378 210.398 152.022V161.311C209.137 161.232 208.293 160.945 206.886 160.024C206.146 159.54 205.153 159.748 204.669 160.488C204.185 161.228 204.393 162.221 205.133 162.705C207.184 164.047 208.573 164.427 210.398 164.517V166.173C210.398 167.058 211.115 167.775 212 167.775C212.884 167.775 213.601 167.058 213.601 166.173V164.35C217.031 163.599 219.037 160.737 219.487 158.06C220.075 154.56 218.245 151.517 214.823 150.307ZM209.005 147.587C208.389 147.104 208.128 146.161 208.323 145.126C208.503 144.174 209.144 143.027 210.398 142.602V148.468C209.871 148.187 209.396 147.894 209.005 147.587ZM216.328 157.529C216.097 158.9 215.172 160.355 213.601 160.998V153.272C213.653 153.291 213.703 153.309 213.756 153.327C216.627 154.342 216.451 156.8 216.328 157.529Z" fill="#BC2A40"/>
<path d="M212 124.904C212.421 124.904 212.835 124.732 213.132 124.434C213.43 124.136 213.602 123.723 213.602 123.302C213.602 122.881 213.43 122.467 213.132 122.169C212.835 121.872 212.421 121.7 212 121.7C211.579 121.7 211.166 121.872 210.868 122.169C210.57 122.467 210.398 122.881 210.398 123.302C210.398 123.723 210.57 124.136 210.868 124.434C211.166 124.732 211.579 124.904 212 124.904Z" fill="#BC2A40"/>
</g>
<defs>
<clipPath id="clip0">
<rect width="82" height="82" fill="white" transform="translate(171 98)"/>
</clipPath>
</defs>
</svg>
