<svg width="120" height="120" viewBox="0 0 120 120" fill="none" xmlns="http://www.w3.org/2000/svg">
<g clip-path="url(#clip0)">
<path d="M30.8833 18.7783C16.4444 18.7783 4.69727 30.5254 4.69727 44.9643C4.69727 59.4032 16.4441 71.1503 30.8833 71.1503C45.3222 71.1503 57.0693 59.4032 57.0693 44.9643C57.0693 30.5254 45.3224 18.7783 30.8833 18.7783ZM30.8833 67.6277C18.3869 67.6277 8.21992 57.461 8.21992 44.9643C8.21992 32.4677 18.3864 22.301 30.8833 22.301C43.3799 22.301 53.5466 32.4677 53.5466 44.9643C53.5466 57.461 43.3799 67.6277 30.8833 67.6277Z" fill="#BC2A40"/>
<path d="M38.7273 41.0894C39.7 41.0894 40.4887 40.3007 40.4887 39.3281V37.4493C40.4887 33.3703 37.1699 30.0515 33.0909 30.0515H32.9734V26.1764C32.9734 25.2037 32.1848 24.415 31.2121 24.415C30.2394 24.415 29.4508 25.2037 29.4508 26.1764V30.0923C25.2379 30.5067 21.9355 34.0687 21.9355 38.3887C21.9355 42.986 25.6755 46.7259 30.2727 46.7259H32.1515C34.8062 46.7259 36.966 48.8857 36.966 51.5404C36.966 54.1952 34.8062 56.355 32.1515 56.355H29.3334C27.1966 56.355 25.4582 54.6166 25.4582 52.4798C25.4582 51.5071 24.6695 50.7185 23.6969 50.7185C22.7242 50.7185 21.9355 51.5071 21.9355 52.4798C21.9355 56.5589 25.2543 59.8776 29.3334 59.8776H29.4508V63.7528C29.4508 64.7254 30.2394 65.5141 31.2121 65.5141C32.1848 65.5141 32.9734 64.7254 32.9734 63.7528V59.8368C37.1863 59.4225 40.4887 55.8604 40.4887 51.5404C40.4887 46.9432 36.7487 43.2032 32.1515 43.2032H30.2727C27.618 43.2032 25.4582 41.0435 25.4582 38.3887C25.4582 35.7339 27.618 33.5742 30.2727 33.5742H33.0909C35.2276 33.5742 36.966 35.3125 36.966 37.4493V39.3281C36.966 40.3007 37.7547 41.0894 38.7273 41.0894Z" fill="#BC2A40"/>
<path d="M59.0657 86.1814C60.0384 86.1814 60.827 85.3927 60.827 84.42V73.1471C60.827 72.1744 60.0384 71.3857 59.0657 71.3857H10.2163C9.24368 71.3857 8.45501 72.1744 8.45501 73.1471V82.6587H6.45884C5.48618 82.6587 4.69751 83.4474 4.69751 84.42V95.693C4.69751 96.6657 5.48618 97.4543 6.45884 97.4543H8.45501V105.204H6.45884C5.48618 105.204 4.69751 105.993 4.69751 106.966V118.239C4.69751 119.211 5.48618 120 6.45884 120H55.3082C56.2809 120 57.0695 119.211 57.0695 118.239V108.727H59.0657C60.0384 108.727 60.827 107.938 60.827 106.966V95.6928C60.827 94.7201 60.0384 93.9314 59.0657 93.9314H57.0695V86.1814H59.0657ZM8.21993 93.9314V86.1814H53.5466V93.9314H8.21993ZM53.5466 116.477H8.21993V108.727H53.5466V116.477ZM57.3044 97.4543V105.204H11.9777V97.4543H57.3044ZM11.9777 82.6585V74.9084H57.3044V82.6585H11.9777Z" fill="#BC2A40"/>
<path d="M114.911 32.5717L88.6075 0.631758C87.9137 -0.210586 86.5818 -0.210586 85.888 0.631758L59.5846 32.5717C58.6563 33.699 59.4869 35.4529 60.9445 35.4529H72.3348V90.0561C72.3348 91.0288 73.1235 91.8175 74.0962 91.8175H100.4C101.372 91.8175 102.161 91.0288 102.161 90.0561V82.6583C102.161 81.6857 101.372 80.897 100.4 80.897C99.4269 80.897 98.6383 81.6857 98.6383 82.6583V88.2948H75.8577V33.6915C75.8577 32.7189 75.0691 31.9302 74.0964 31.9302H64.6771L87.2481 4.52238L109.819 31.9302H100.4C99.4272 31.9302 98.6385 32.7189 98.6385 33.6915V74.3211C98.6385 75.2938 99.4272 76.0825 100.4 76.0825C101.372 76.0825 102.161 75.2938 102.161 74.3211V35.4529H113.552C115.009 35.4529 115.84 33.6993 114.911 32.5717Z" fill="#BC2A40"/>
<path d="M100.4 97.689H74.0963C73.1236 97.689 72.335 98.4776 72.335 99.4503C72.335 100.423 73.1236 101.212 74.0963 101.212H100.4C101.372 101.212 102.161 100.423 102.161 99.4503C102.161 98.4776 101.373 97.689 100.4 97.689Z" fill="#BC2A40"/>
<path d="M100.4 107.083H74.0963C73.1236 107.083 72.335 107.872 72.335 108.844C72.335 109.817 73.1236 110.606 74.0963 110.606H100.4C101.372 110.606 102.161 109.817 102.161 108.844C102.161 107.872 101.373 107.083 100.4 107.083Z" fill="#BC2A40"/>
<path d="M100.4 116.478H74.0963C73.1236 116.478 72.335 117.266 72.335 118.239C72.335 119.212 73.1236 120 74.0963 120H100.4C101.372 120 102.161 119.212 102.161 118.239C102.161 117.266 101.373 116.478 100.4 116.478Z" fill="#BC2A40"/>
</g>
<defs>
<clipPath id="clip0">
<rect width="120" height="120" fill="white"/>
</clipPath>
</defs>
</svg>
