<svg width="76" height="76" viewBox="0 0 76 76" fill="none" xmlns="http://www.w3.org/2000/svg">
<path d="M75.3342 31.728L38.4589 15.2395C38.1666 15.1084 37.8332 15.1084 37.541 15.2395L22.5907 21.9243C22.0242 22.1777 21.7702 22.8422 22.0236 23.4092C22.277 23.9763 22.9421 24.2303 23.5091 23.9769L37.9996 17.4973L51.2655 23.4289V31.7101C44.2252 29.1356 38.2977 28.9402 38.0309 28.9327C38.0101 28.9321 37.9892 28.9321 37.9683 28.9327C37.6825 28.9402 30.8834 29.1646 23.1844 32.309C20.1131 33.5626 17.3073 35.1235 14.8453 36.9476C14.661 37.0845 14.5264 37.2724 14.4534 37.4834L3.87847 32.7543L18.7035 26.1252C19.2706 25.8718 19.5246 25.2073 19.2706 24.6402C19.0172 24.0731 18.3521 23.8192 17.7857 24.0726L0.665063 31.728C0.260343 31.9089 0 32.3113 0 32.7543C0 33.1979 0.260343 33.5997 0.665063 33.7806L14.3902 39.9187V45.3024C14.3902 45.9234 14.894 46.4267 15.5145 46.4267C16.1355 46.4267 16.6388 45.9234 16.6388 45.3024V39.2136C16.6388 39.213 16.6388 39.2119 16.6388 39.2113V38.4233C18.8398 36.852 21.3249 35.4963 24.0345 34.3906C31.0805 31.5129 37.4987 31.2015 38.0002 31.1813C38.4913 31.2004 44.4856 31.4868 51.2655 34.1123V45.2844C49.6217 45.7703 48.418 47.2941 48.418 49.0939C48.418 50.7476 49.4338 52.1681 50.8747 52.7648L50.0885 54.8342C44.9581 55.7173 40.8959 56.9326 37.9996 58.4552C31.3287 54.9507 20.1577 53.9604 16.6393 53.7279V50.5742C16.6393 49.9532 16.1355 49.4499 15.515 49.4499C14.894 49.4499 14.3908 49.9532 14.3908 50.5742V54.7901C14.3908 55.3914 14.8645 55.8866 15.4658 55.9132C15.6125 55.9196 30.2241 56.6021 37.4436 60.7136C37.6158 60.8116 37.8077 60.8609 38.0002 60.8609C38.1921 60.8609 38.3841 60.8116 38.5568 60.7131C40.984 59.3296 44.6236 58.156 49.1561 57.2874L48.4916 59.0374C48.36 59.3829 48.407 59.7708 48.6169 60.0753C48.8268 60.3791 49.1729 60.5612 49.5423 60.5612H55.2385C55.6084 60.5612 55.954 60.3791 56.1639 60.0753C56.3738 59.7708 56.4208 59.3829 56.2897 59.0374L55.2733 56.3626C58.3325 56.0124 60.5091 55.9138 60.5341 55.9127C61.1354 55.8866 61.6097 55.3914 61.6097 54.7895V50.5736C61.6097 49.9532 61.1058 49.4493 60.4854 49.4493C59.8644 49.4493 59.3611 49.9532 59.3611 50.5736V53.729C58.3116 53.7998 56.5675 53.9395 54.4494 54.1952L53.9061 52.7648C55.3463 52.1681 56.3628 50.7476 56.3628 49.0939C56.3628 47.2935 55.1591 45.7703 53.5147 45.2844V35.0649C55.6264 36.0338 57.5874 37.157 59.3611 38.4233V39.2113V39.2136V45.3024C59.3611 45.9234 59.8644 46.4267 60.4854 46.4267C61.1064 46.4267 61.6097 45.9234 61.6097 45.3024V39.9187L75.3348 33.7806C75.7395 33.5997 75.9998 33.1979 75.9998 32.7543C75.9998 32.3113 75.7389 31.9089 75.3342 31.728V31.728ZM51.1716 58.3126L52.3898 55.1067L53.608 58.3126H51.1716ZM54.1136 49.0939C54.1136 50.0442 53.3407 50.8171 52.3898 50.8171C51.4395 50.8171 50.6666 50.0442 50.6666 49.0939C50.6666 48.143 51.4395 47.3701 52.3898 47.3701C53.3407 47.3701 54.1136 48.143 54.1136 49.0939ZM61.5459 37.4834C61.4728 37.2724 61.3383 37.0845 61.1539 36.9476C58.881 35.2632 56.3118 33.8067 53.5141 32.6059V24.4344L72.1208 32.7543L61.5459 37.4834Z" fill="#362F4C"/>
</svg>
