<svg width="61" height="61" viewBox="0 0 61 61" fill="none" xmlns="http://www.w3.org/2000/svg">
<path d="M21.231 22.875H39.1021C39.2916 22.875 39.4735 22.7997 39.6075 22.6656C39.7416 22.5316 39.8169 22.3497 39.8169 22.1602C39.8169 21.9706 39.7416 21.7887 39.6075 21.6547C39.4735 21.5206 39.2916 21.4453 39.1021 21.4453H21.231C21.0414 21.4453 20.8595 21.5206 20.7255 21.6547C20.5914 21.7887 20.5161 21.9706 20.5161 22.1602C20.5161 22.3497 20.5914 22.5316 20.7255 22.6656C20.8595 22.7997 21.0414 22.875 21.231 22.875V22.875Z" fill="#D31A2C"/>
<path d="M14.0125 22.0278L12.4243 23.5463L11.7801 22.9021C11.714 22.8342 11.6352 22.7802 11.548 22.743C11.4609 22.7059 11.3673 22.6865 11.2726 22.6858C11.1779 22.6852 11.0841 22.7034 10.9965 22.7393C10.9089 22.7753 10.8293 22.8283 10.7623 22.8952C10.6954 22.9622 10.6424 23.0418 10.6065 23.1294C10.5705 23.217 10.5523 23.3109 10.553 23.4056C10.5536 23.5003 10.5731 23.5939 10.6102 23.681C10.6474 23.7681 10.7014 23.8469 10.7693 23.913L11.9077 25.0515C12.0398 25.1836 12.2183 25.2587 12.4051 25.2608C12.5919 25.2629 12.7721 25.1918 12.9071 25.0627L15.0006 23.0611C15.0691 22.9964 15.1241 22.9188 15.1625 22.8327C15.2009 22.7467 15.2219 22.6539 15.2243 22.5597C15.2267 22.4655 15.2104 22.3717 15.1764 22.2838C15.1425 22.1959 15.0914 22.1156 15.0263 22.0475C14.9612 21.9794 14.8832 21.9248 14.797 21.8869C14.7107 21.8491 14.6177 21.8286 14.5235 21.8268C14.4293 21.825 14.3356 21.8418 14.248 21.8763C14.1603 21.9108 14.0802 21.9623 14.0125 22.0278V22.0278Z" fill="#D31A2C"/>
<path d="M12.891 18.6931C11.9314 18.6931 10.9934 18.9777 10.1955 19.5108C9.39766 20.0439 8.77581 20.8016 8.40861 21.6881C8.0414 22.5747 7.94533 23.5502 8.13254 24.4913C8.31975 25.4324 8.78184 26.2969 9.46036 26.9754C10.1389 27.6539 11.0034 28.116 11.9445 28.3032C12.8857 28.4904 13.8612 28.3943 14.7477 28.0271C15.6342 27.6598 16.3919 27.038 16.925 26.2401C17.4581 25.4422 17.7426 24.5042 17.7426 23.5446C17.7411 22.2584 17.2295 21.0252 16.32 20.1157C15.4104 19.2061 14.1772 18.6945 12.891 18.6931V18.6931ZM12.891 26.9666C12.2142 26.9666 11.5526 26.7659 10.9898 26.3899C10.4271 26.0139 9.98848 25.4794 9.72948 24.8542C9.47048 24.2289 9.40271 23.5408 9.53475 22.877C9.66678 22.2133 9.99269 21.6035 10.4713 21.125C10.9498 20.6464 11.5596 20.3205 12.2234 20.1884C12.8872 20.0564 13.5752 20.1242 14.2005 20.3832C14.8258 20.6422 15.3602 21.0808 15.7362 21.6435C16.1122 22.2062 16.3129 22.8678 16.3129 23.5446C16.312 24.452 15.9512 25.3219 15.3097 25.9635C14.6682 26.6051 13.7983 26.9661 12.891 26.9671V26.9666Z" fill="#D31A2C"/>
<path d="M21.231 34.7891H39.1021C39.2916 34.7891 39.4735 34.7137 39.6075 34.5797C39.7416 34.4456 39.8169 34.2638 39.8169 34.0742C39.8169 33.8846 39.7416 33.7028 39.6075 33.5687C39.4735 33.4347 39.2916 33.3594 39.1021 33.3594H21.231C21.0414 33.3594 20.8595 33.4347 20.7255 33.5687C20.5914 33.7028 20.5161 33.8846 20.5161 34.0742C20.5161 34.2638 20.5914 34.4456 20.7255 34.5797C20.8595 34.7137 21.0414 34.7891 21.231 34.7891V34.7891Z" fill="#D31A2C"/>
<path d="M14.0125 33.9419L12.4243 35.4603L11.7801 34.8161C11.714 34.7483 11.6352 34.6942 11.548 34.6571C11.4609 34.62 11.3673 34.6006 11.2726 34.5999C11.1779 34.5993 11.0841 34.6175 10.9965 34.6534C10.9089 34.6893 10.8293 34.7423 10.7623 34.8093C10.6954 34.8763 10.6424 34.9559 10.6065 35.0435C10.5705 35.1311 10.5523 35.2249 10.553 35.3196C10.5536 35.4143 10.5731 35.5079 10.6102 35.595C10.6474 35.6822 10.7014 35.761 10.7693 35.8271L11.9077 36.9656C12.0398 37.0977 12.2183 37.1728 12.4051 37.1749C12.5919 37.177 12.7721 37.1059 12.9071 36.9768L15.0006 34.9752C15.0691 34.9105 15.1241 34.8329 15.1625 34.7468C15.2009 34.6607 15.2219 34.5679 15.2243 34.4737C15.2267 34.3795 15.2104 34.2858 15.1764 34.1979C15.1425 34.11 15.0914 34.0297 15.0263 33.9615C14.9612 33.8934 14.8832 33.8389 14.797 33.801C14.7107 33.7631 14.6177 33.7427 14.5235 33.7409C14.4293 33.739 14.3356 33.7559 14.248 33.7904C14.1603 33.8249 14.0802 33.8764 14.0125 33.9419V33.9419Z" fill="#D31A2C"/>
<path d="M12.891 30.6072C11.9314 30.6072 10.9934 30.8917 10.1955 31.4248C9.39766 31.9579 8.77581 32.7157 8.40861 33.6022C8.0414 34.4887 7.94533 35.4643 8.13254 36.4054C8.31975 37.3465 8.78184 38.211 9.46036 38.8895C10.1389 39.568 11.0034 40.0301 11.9445 40.2173C12.8857 40.4045 13.8612 40.3084 14.7477 39.9411C15.6342 39.5739 16.3919 38.952 16.925 38.1542C17.4581 37.3563 17.7426 36.4183 17.7426 35.4587C17.7411 34.1724 17.2295 32.9392 16.32 32.0297C15.4104 31.1202 14.1772 30.6086 12.891 30.6072V30.6072ZM12.891 38.8807C12.2142 38.8807 11.5526 38.68 10.9898 38.304C10.4271 37.928 9.98848 37.3935 9.72948 36.7682C9.47048 36.143 9.40271 35.4549 9.53475 34.7911C9.66678 34.1273 9.99269 33.5176 10.4713 33.039C10.9498 32.5604 11.5596 32.2345 12.2234 32.1025C12.8872 31.9705 13.5752 32.0382 14.2005 32.2972C14.8258 32.5562 15.3602 32.9948 15.7362 33.5576C16.1122 34.1203 16.3129 34.7819 16.3129 35.4587C16.312 36.366 15.9512 37.236 15.3097 37.8776C14.6682 38.5192 13.7983 38.8801 12.891 38.8811V38.8807Z" fill="#D31A2C"/>
<path d="M14.0125 45.856L12.4243 47.3744L11.7801 46.7302C11.714 46.6624 11.6352 46.6083 11.548 46.5712C11.4609 46.5341 11.3673 46.5146 11.2726 46.514C11.1779 46.5133 11.0841 46.5315 10.9965 46.5675C10.9089 46.6034 10.8293 46.6564 10.7623 46.7234C10.6954 46.7903 10.6424 46.8699 10.6065 46.9575C10.5705 47.0451 10.5523 47.139 10.553 47.2337C10.5536 47.3284 10.5731 47.422 10.6102 47.5091C10.6474 47.5962 10.7014 47.6751 10.7693 47.7411L11.9077 48.8796C12.0398 49.0117 12.2183 49.0869 12.4051 49.089C12.5919 49.091 12.7721 49.0199 12.9071 48.8908L15.0006 46.8893C15.0691 46.8245 15.1241 46.7469 15.1625 46.6609C15.2009 46.5748 15.2219 46.482 15.2243 46.3878C15.2267 46.2936 15.2104 46.1998 15.1764 46.1119C15.1425 46.024 15.0914 45.9437 15.0263 45.8756C14.9612 45.8075 14.8832 45.7529 14.797 45.7151C14.7107 45.6772 14.6177 45.6567 14.5235 45.6549C14.4293 45.6531 14.3356 45.6699 14.248 45.7044C14.1603 45.7389 14.0802 45.7904 14.0125 45.856V45.856Z" fill="#D31A2C"/>
<path d="M12.891 42.5212C11.9314 42.5212 10.9934 42.8058 10.1955 43.3389C9.39766 43.872 8.77581 44.6297 8.40861 45.5163C8.0414 46.4028 7.94533 47.3783 8.13254 48.3194C8.31975 49.2606 8.78184 50.1251 9.46036 50.8036C10.1389 51.4821 11.0034 51.9441 11.9445 52.1313C12.8857 52.3185 13.8612 52.2224 14.7477 51.8552C15.6342 51.488 16.3919 50.8661 16.925 50.0682C17.4581 49.2704 17.7426 48.3323 17.7426 47.3728C17.7411 46.0865 17.2295 44.8533 16.32 43.9438C15.4104 43.0343 14.1772 42.5227 12.891 42.5212V42.5212ZM12.891 50.7947C12.2142 50.7947 11.5526 50.594 10.9898 50.218C10.4271 49.842 9.98848 49.3076 9.72948 48.6823C9.47048 48.057 9.40271 47.369 9.53475 46.7052C9.66678 46.0414 9.99269 45.4317 10.4713 44.9531C10.9498 44.4745 11.5596 44.1486 12.2234 44.0166C12.8872 43.8845 13.5752 43.9523 14.2005 44.2113C14.8258 44.4703 15.3602 44.9089 15.7362 45.4716C16.1122 46.0344 16.3129 46.696 16.3129 47.3728C16.312 48.2801 15.9512 49.15 15.3097 49.7917C14.6682 50.4333 13.7983 50.7942 12.891 50.7952V50.7947Z" fill="#D31A2C"/>
<path d="M21.231 25.2578H30.7622C30.9518 25.2578 31.1336 25.1825 31.2677 25.0484C31.4017 24.9144 31.4771 24.7326 31.4771 24.543C31.4771 24.3534 31.4017 24.1716 31.2677 24.0375C31.1336 23.9034 30.9518 23.8281 30.7622 23.8281H21.231C21.0414 23.8281 20.8595 23.9034 20.7255 24.0375C20.5914 24.1716 20.5161 24.3534 20.5161 24.543C20.5161 24.7326 20.5914 24.9144 20.7255 25.0484C20.8595 25.1825 21.0414 25.2578 21.231 25.2578V25.2578Z" fill="#D31A2C"/>
<path d="M21.231 37.1719H30.7622C30.9518 37.1719 31.1336 37.0966 31.2677 36.9625C31.4017 36.8284 31.4771 36.6466 31.4771 36.457C31.4771 36.2674 31.4017 36.0856 31.2677 35.9516C31.1336 35.8175 30.9518 35.7422 30.7622 35.7422H21.231C21.0414 35.7422 20.8595 35.8175 20.7255 35.9516C20.5914 36.0856 20.5161 36.2674 20.5161 36.457C20.5161 36.6466 20.5914 36.8284 20.7255 36.9625C20.8595 37.0966 21.0414 37.1719 21.231 37.1719V37.1719Z" fill="#D31A2C"/>
<path d="M7.0293 11.2112C6.83971 11.2112 6.65789 11.2865 6.52383 11.4206C6.38977 11.5546 6.31445 11.7364 6.31445 11.926V12.6766C6.31445 12.8662 6.38977 13.048 6.52383 13.1821C6.65789 13.3161 6.83971 13.3915 7.0293 13.3915C7.21889 13.3915 7.40071 13.3161 7.53477 13.1821C7.66883 13.048 7.74414 12.8662 7.74414 12.6766V11.926C7.74414 11.7364 7.66883 11.5546 7.53477 11.4206C7.40071 11.2865 7.21889 11.2112 7.0293 11.2112V11.2112Z" fill="#D31A2C"/>
<path d="M7.0293 14.2241C6.83971 14.2241 6.65789 14.2994 6.52383 14.4335C6.38977 14.5676 6.31445 14.7494 6.31445 14.939V21.8491C6.31445 22.0387 6.38977 22.2205 6.52383 22.3546C6.65789 22.4887 6.83971 22.564 7.0293 22.564C7.21889 22.564 7.40071 22.4887 7.53477 22.3546C7.66883 22.2205 7.74414 22.0387 7.74414 21.8491V14.939C7.74414 14.8451 7.72565 14.7521 7.68973 14.6654C7.6538 14.5787 7.60115 14.4999 7.53477 14.4335C7.46839 14.3671 7.38958 14.3145 7.30286 14.2785C7.21613 14.2426 7.12317 14.2241 7.0293 14.2241V14.2241Z" fill="#D31A2C"/>
<path d="M54.4796 31.8939C54.0013 31.7936 53.5079 31.7891 53.0279 31.8808C52.5479 31.9724 52.0909 32.1583 51.6832 32.4277L44.3203 37.2631V10.4397C44.3203 8.07476 42.3768 6.19531 40.0117 6.19531H35.5039V3.97632C35.5039 3.78673 35.4286 3.60491 35.2945 3.47085C35.1605 3.33679 34.9787 3.26147 34.7891 3.26147C34.5995 3.26147 34.4177 3.33679 34.2836 3.47085C34.1495 3.60491 34.0742 3.78673 34.0742 3.97632V6.19531H27.9981V3.97632C27.9981 3.78673 27.9227 3.60491 27.7887 3.47085C27.6546 3.33679 27.4728 3.26147 27.2832 3.26147C27.0936 3.26147 26.9118 3.33679 26.7777 3.47085C26.6437 3.60491 26.5684 3.78673 26.5684 3.97632V6.19531H20.6113V3.97632C20.6113 3.78673 20.536 3.60491 20.402 3.47085C20.2679 3.33679 20.0861 3.26147 19.8965 3.26147C19.7069 3.26147 19.5251 3.33679 19.391 3.47085C19.257 3.60491 19.1816 3.78673 19.1816 3.97632V6.19531H13.1055V3.97632C13.1055 3.78673 13.0302 3.60491 12.8961 3.47085C12.762 3.33679 12.5802 3.26147 12.3906 3.26147C12.201 3.26147 12.0192 3.33679 11.8852 3.47085C11.7511 3.60491 11.6758 3.78673 11.6758 3.97632V6.19531H7.84375C7.28406 6.19132 6.72913 6.29819 6.21097 6.50976C5.6928 6.72134 5.22166 7.03342 4.82473 7.42802C4.4278 7.82261 4.11294 8.2919 3.89831 8.80881C3.68368 9.32571 3.57353 9.88 3.57422 10.4397V53.4495C3.57422 55.8145 5.47868 57.7832 7.84375 57.7832H40.0117C42.3768 57.7832 44.3203 55.8145 44.3203 53.4495V46.1622L55.7681 38.6445C56.3829 38.2405 56.8641 37.6634 57.1509 36.986C57.4377 36.3085 57.5172 35.5613 57.3792 34.8387C57.2413 34.1161 56.8922 33.4507 56.3761 32.9265C55.8599 32.4023 55.1999 32.043 54.4796 31.8939ZM34.7487 10.6719C34.9987 10.6719 35.2431 10.746 35.451 10.8849C35.6588 11.0238 35.8209 11.2213 35.9165 11.4522C36.0122 11.6832 36.0372 11.9374 35.9885 12.1826C35.9397 12.4278 35.8193 12.653 35.6425 12.8298C35.4657 13.0066 35.2405 13.127 34.9953 13.1758C34.7501 13.2246 34.4959 13.1995 34.2649 13.1038C34.034 13.0082 33.8365 12.8461 33.6976 12.6383C33.5587 12.4304 33.4846 12.186 33.4846 11.936C33.4849 11.6008 33.6182 11.2795 33.8552 11.0425C34.0922 10.8055 34.4135 10.6722 34.7487 10.6719V10.6719ZM27.2996 10.6719C27.5497 10.6719 27.794 10.7461 28.0019 10.885C28.2098 11.0239 28.3718 11.2213 28.4674 11.4523C28.5631 11.6833 28.5881 11.9375 28.5393 12.1827C28.4905 12.4279 28.3701 12.6531 28.1933 12.8299C28.0165 13.0066 27.7913 13.127 27.5461 13.1758C27.3009 13.2246 27.0467 13.1995 26.8158 13.1038C26.5848 13.0082 26.3874 12.8461 26.2485 12.6383C26.1096 12.4304 26.0354 12.186 26.0354 11.936C26.0358 11.6008 26.1691 11.2795 26.4061 11.0425C26.6432 10.8055 26.9645 10.6722 27.2996 10.6719V10.6719ZM19.8504 10.6719C20.1004 10.672 20.3447 10.7462 20.5526 10.8851C20.7604 11.0241 20.9224 11.2215 21.018 11.4525C21.1136 11.6835 21.1386 11.9376 21.0898 12.1828C21.041 12.428 20.9205 12.6532 20.7437 12.83C20.5669 13.0067 20.3417 13.1271 20.0965 13.1758C19.8513 13.2245 19.5972 13.1995 19.3662 13.1038C19.1352 13.0081 18.9378 12.8461 18.799 12.6382C18.6601 12.4304 18.5859 12.186 18.5859 11.936C18.5863 11.6008 18.7197 11.2794 18.9567 11.0424C19.1938 10.8054 19.5152 10.6722 19.8504 10.6719ZM12.4014 10.6719C12.6514 10.6719 12.8957 10.7461 13.1036 10.885C13.3115 11.0239 13.4735 11.2213 13.5691 11.4523C13.6648 11.6833 13.6898 11.9375 13.641 12.1827C13.5922 12.4279 13.4718 12.6531 13.295 12.8299C13.1182 13.0066 12.893 13.127 12.6478 13.1758C12.4026 13.2246 12.1484 13.1995 11.9175 13.1038C11.6865 13.0082 11.4891 12.8461 11.3502 12.6383C11.2113 12.4304 11.1371 12.186 11.1371 11.936C11.1375 11.6008 11.2708 11.2795 11.5079 11.0425C11.7449 10.8055 12.0662 10.6722 12.4014 10.6719V10.6719ZM42.8906 53.4495C42.8871 54.2142 42.5834 54.947 42.045 55.4902C41.5066 56.0333 40.7764 56.3433 40.0117 56.3535H7.84375C6.2668 56.3535 5.00391 55.0262 5.00391 53.4495V10.4397C5.00302 10.0677 5.07605 9.69922 5.21876 9.35568C5.36147 9.01214 5.57102 8.70037 5.83524 8.4385C6.09945 8.17662 6.41306 7.96986 6.75786 7.8302C7.10266 7.69055 7.47176 7.6208 7.84375 7.625H11.6758V9.3392C10.6035 9.65325 9.70222 10.6981 9.70222 11.9365C9.70222 12.2901 9.77188 12.6403 9.90723 12.9671C10.0426 13.2938 10.2409 13.5907 10.491 13.8408C10.7411 14.0909 11.038 14.2893 11.3648 14.4246C11.6915 14.56 12.0417 14.6296 12.3954 14.6296C12.7491 14.6296 13.0993 14.56 13.426 14.4246C13.7528 14.2893 14.0497 14.0909 14.2998 13.8408C14.5498 13.5907 14.7482 13.2938 14.8836 12.9671C15.0189 12.6403 15.0886 12.2901 15.0886 11.9365C15.097 11.3439 14.9061 10.7657 14.5465 10.2946C14.1868 9.82362 13.6793 9.48712 13.1055 9.3392V7.625H19.1816V9.3392C18.6058 9.48624 18.0958 9.82193 17.733 10.2927C17.3702 10.7634 17.1756 11.3421 17.1801 11.9365C17.1801 12.6517 17.4642 13.3375 17.9699 13.8433C18.4756 14.349 19.1615 14.6331 19.8767 14.6331C20.5919 14.6331 21.2778 14.349 21.7835 13.8433C22.2892 13.3375 22.5733 12.6517 22.5733 11.9365C22.5632 11.3516 22.3678 10.7851 22.0152 10.3184C21.6626 9.85167 21.1711 9.50883 20.6113 9.3392V7.625H26.5684V9.3392C25.4961 9.65325 24.5977 10.6981 24.5977 11.9365C24.5977 12.6506 24.8813 13.3354 25.3863 13.8404C25.8913 14.3454 26.5761 14.629 27.2902 14.629C28.0044 14.629 28.6892 14.3454 29.1942 13.8404C29.6991 13.3354 29.9828 12.6506 29.9828 11.9365C29.9909 11.3437 29.7996 10.7655 29.4397 10.2945C29.0798 9.82353 28.5721 9.48709 27.9981 9.3392V7.625H34.0742V9.3392C33.4986 9.48627 32.9889 9.82203 32.6265 10.2928C32.2641 10.7637 32.07 11.3424 32.0752 11.9365C32.0752 12.6516 32.3592 13.3374 32.8649 13.843C33.3705 14.3487 34.0563 14.6327 34.7714 14.6327C35.4865 14.6327 36.1723 14.3487 36.678 13.843C37.1836 13.3374 37.4677 12.6516 37.4677 11.9365C37.4677 10.6986 36.5762 9.65373 35.5039 9.3392V7.625H40.0117C41.5883 7.625 42.8906 8.86311 42.8906 10.4397V38.202L40.2056 39.9652C40.1231 40.0195 40.0527 40.0901 39.9989 40.1729C39.9451 40.2556 39.909 40.3486 39.8929 40.446C39.8768 40.5433 39.881 40.643 39.9053 40.7387C39.9296 40.8343 39.9735 40.9239 40.0341 41.0018V41.0018C40.1445 41.1434 40.3042 41.2383 40.4813 41.2676C40.6585 41.2969 40.8402 41.2584 40.9903 41.1599L51.6198 34.1795L52.4844 35.4956L34.4755 47.3227L33.6106 46.0065L36.9942 43.7849C37.0727 43.7334 37.1403 43.6669 37.193 43.5892C37.2458 43.5116 37.2828 43.4243 37.3018 43.3324C37.3209 43.2405 37.3217 43.1457 37.3041 43.0535C37.2865 42.9613 37.2509 42.8734 37.1994 42.795C37.1479 42.7165 37.0814 42.6489 37.0038 42.5962C36.9261 42.5434 36.8388 42.5064 36.7469 42.4874C36.655 42.4683 36.5602 42.4675 36.468 42.4851C36.3758 42.5027 36.2879 42.5383 36.2095 42.5898L32.2315 45.202C32.2242 45.2068 32.2175 45.2129 32.2101 45.218C32.192 45.2309 32.1744 45.2438 32.157 45.2583C32.1513 45.2631 32.1463 45.2686 32.1409 45.2736H21.2309C21.0413 45.2736 20.8595 45.3489 20.7254 45.4829C20.5913 45.617 20.516 45.7988 20.516 45.9884C20.516 46.178 20.5913 46.3598 20.7254 46.4939C20.8595 46.6279 21.0413 46.7032 21.2309 46.7032H31.3352L30.8289 47.6597C30.8069 47.6577 30.7848 47.6564 30.7621 47.6564H21.2309C21.0413 47.6564 20.8595 47.7317 20.7254 47.8657C20.5913 47.9998 20.516 48.1816 20.516 48.3712C20.516 48.5608 20.5913 48.7426 20.7254 48.8767C20.8595 49.0107 21.0413 49.0861 21.2309 49.0861H30.0741L29.2476 50.6474C29.1899 50.7563 29.1614 50.8783 29.1648 51.0014C29.1682 51.1246 29.2034 51.2448 29.2669 51.3504C29.3304 51.456 29.4202 51.5434 29.5274 51.604C29.6347 51.6647 29.7558 51.6966 29.879 51.6967C29.8854 51.6967 29.8917 51.6967 29.8979 51.6967L35.9391 51.5383C35.9538 51.5383 35.9682 51.5355 35.9827 51.5343C35.9973 51.5331 36.0138 51.5323 36.0293 51.5299C36.0483 51.527 36.0666 51.5221 36.085 51.518C36.0985 51.5147 36.1122 51.5125 36.1258 51.5084C36.157 51.4991 36.1876 51.4876 36.2172 51.474C36.2245 51.4708 36.2313 51.4662 36.2384 51.4621C36.2615 51.4508 36.2841 51.4383 36.3058 51.4247C36.3082 51.4231 36.3107 51.4223 36.3129 51.4207L42.8906 47.1012V53.4495ZM34.6176 50.1425L31.0831 50.235L32.6869 47.2043L34.6176 50.1425ZM36.1253 49.8335L36.0704 49.7501L35.2603 48.5178L53.2692 36.6913L54.1339 38.0072L36.1253 49.8335ZM55.3085 37.1903L52.8357 33.4268C53.1403 33.2987 53.469 33.2375 53.7994 33.2475C54.1298 33.2574 54.4542 33.3382 54.7506 33.4845C54.9223 33.5671 55.0816 33.6734 55.2239 33.8001C55.4648 34.0093 55.6595 34.2665 55.7955 34.5551C55.9315 34.8438 56.0058 35.1576 56.0138 35.4766C56.0217 35.7955 55.9631 36.1127 55.8417 36.4078C55.7203 36.7028 55.5387 36.9694 55.3085 37.1903V37.1903Z" fill="#D31A2C"/>
</svg>
