<svg width="48" height="49" viewBox="0 0 48 49" fill="none" xmlns="http://www.w3.org/2000/svg">
<path d="M46.0957 8.98614L39.1957 1.94239C39.0727 1.81685 38.9058 1.74634 38.7319 1.74634C38.5579 1.74634 38.3911 1.81685 38.268 1.94239L6.393 34.4814C6.3771 34.4992 6.3622 34.5179 6.34838 34.5373C6.33863 34.5496 6.32813 34.5607 6.31913 34.5737C6.29034 34.6153 6.26631 34.6601 6.2475 34.7073L3.65288 41.4306V41.4329L1.75763 46.3364C1.71073 46.4579 1.69962 46.5907 1.72567 46.7186C1.75171 46.8464 1.81378 46.9637 1.90424 47.0561C1.99469 47.1484 2.10961 47.2118 2.23485 47.2384C2.3601 47.265 2.49023 47.2536 2.60925 47.2057L7.41263 45.2718L13.9973 42.6208C14.0434 42.6015 14.0873 42.577 14.1281 42.5477C14.1409 42.5385 14.1518 42.5278 14.1656 42.5178C14.1845 42.5036 14.2027 42.4884 14.22 42.4723L37.3687 18.842L46.0939 9.93474C46.1551 9.87264 46.2037 9.79881 46.237 9.71749C46.2702 9.63617 46.2874 9.54896 46.2876 9.46084C46.2878 9.37272 46.2709 9.28543 46.238 9.20397C46.2051 9.12252 46.1567 9.04849 46.0957 8.98614ZM36.9056 17.4203L30.9352 11.3255L32.8035 9.41718L38.7735 15.5116L36.9056 17.4203ZM13.7584 41.0497L12.4459 39.7099L34.6639 17.0267L35.9764 18.3666L13.7584 41.0497ZM10.0294 37.2431L32.25 14.561L33.7361 16.0781L11.517 38.7617L10.0294 37.2431ZM7.788 34.955L30.0071 12.273L31.3196 13.6128L9.10163 36.296L7.788 34.955ZM4.50413 42.8792L5.9955 44.4016L3.53288 45.3931L4.50413 42.8792ZM7.32638 43.8657L5.02913 41.5206L7.10363 36.1505L8.63663 37.7154L11.0501 40.1792L12.5831 41.7442L7.32638 43.8657ZM39.7016 14.566L33.7312 8.47125L38.7334 3.3653L44.7037 9.45968L39.7016 14.566Z" fill="#CE1525"/>
</svg>
