<svg width="120" height="120" viewBox="0 0 120 120" fill="none" xmlns="http://www.w3.org/2000/svg">
<path d="M11.2537 63.3545H6.06094C2.71898 63.3545 0 66.0735 0 69.4154V107.843C0 111.185 2.71898 113.904 6.06094 113.904H11.2537C14.5957 113.904 17.3147 111.185 17.3147 107.843V69.4154C17.3147 66.0735 14.5957 63.3545 11.2537 63.3545ZM13.7953 107.843C13.7953 109.244 12.6553 110.384 11.2537 110.384H6.06094C4.65938 110.384 3.51937 109.244 3.51937 107.843V69.4154C3.51937 68.0139 4.65938 66.8739 6.06094 66.8739H11.2537C12.6553 66.8739 13.7953 68.0139 13.7953 69.4154V107.843Z" fill="#BC2A40"/>
<path d="M118.767 78.7004C116.562 75.4604 112.122 74.6026 108.872 76.7865L99.5646 83.0157C98.7991 80.0192 97.268 77.2348 95.1094 74.9825C92.5706 72.3336 89.2619 70.5132 85.6919 69.7822C83.6346 63.203 77.9278 58.309 71.0759 57.3115C68.273 54.9715 64.8408 53.5472 61.2262 53.2034V47.6731L65.4096 44.0515C67.4805 44.9719 72.2927 46.8615 78.2405 47.5529C79.7163 47.7244 81.1603 47.8097 82.5727 47.8097C91.23 47.8097 98.6498 44.6028 104.212 38.4073C114.262 27.2138 114.227 9.8595 114.221 9.12614C114.221 9.11934 114.22 9.11278 114.219 9.10599C114.218 9.03052 114.212 8.95528 114.201 8.88099C114.195 8.83669 114.185 8.79356 114.176 8.74997C114.174 8.73942 114.172 8.72911 114.169 8.71856C114.035 8.12536 113.632 7.61184 113.044 7.42059C112.335 7.1895 111.596 7.38474 111.143 7.97302C110.97 8.13192 109.786 9.14114 106.409 10.374C103.06 11.5965 96.7976 13.2978 85.9821 14.4598C72.9457 15.8602 67.4754 23.3656 65.1818 29.4148C63.274 34.4468 63.2264 39.2365 63.3098 41.2147L61.2267 43.0179V39.4566C61.2689 39.2365 61.2687 39.0111 61.2267 38.7922V12.5393C61.2267 11.5674 60.439 10.7797 59.467 10.7797C58.4951 10.7797 57.7073 11.5674 57.7073 12.5393V35.2449L56.1204 33.8712C56.1928 32.0063 56.1274 27.6542 54.3949 23.0841C52.2809 17.5081 47.2404 10.5903 35.2329 9.30052C25.3889 8.24278 19.6795 6.69778 16.6235 5.58755C13.5645 4.47661 12.4704 3.56606 12.2972 3.40997C11.8472 2.81911 11.1101 2.62458 10.3992 2.8538C9.80765 3.04458 9.40312 3.56466 9.27117 4.16325C9.26976 4.16911 9.26836 4.1752 9.26695 4.1813C9.25711 4.2277 9.24679 4.27364 9.24047 4.32075C9.22945 4.39481 9.22383 4.46981 9.22219 4.54505C9.22195 4.55184 9.22055 4.55841 9.22055 4.5652C9.21492 5.2388 9.18304 21.1793 18.4195 31.4675C23.5406 37.1712 30.3682 40.1229 38.3353 40.1229C39.6337 40.1229 40.9631 40.0447 42.3197 39.8867C47.6972 39.2616 52.0687 37.5685 54.0204 36.7083L57.7071 39.9001V46.6674C57.6893 46.8136 57.6881 46.9618 57.7071 47.1087V53.214C54.1277 53.5737 50.7312 54.9922 47.9529 57.3118C41.1009 58.309 35.3941 63.2035 33.3368 69.7826C32.4185 69.9708 31.5134 70.2366 30.6286 70.568C29.097 70.3594 27.5487 70.2523 25.9943 70.2523H23.7267C22.7548 70.2523 21.967 71.0401 21.967 72.012C21.967 72.984 22.7548 73.7717 23.7267 73.7717H25.9943C27.5487 73.7717 29.0955 73.8936 30.6232 74.1256C31.256 74.2215 31.883 74.3377 32.5048 74.4713C32.621 74.4964 32.7373 74.521 32.853 74.5475C33.0002 74.581 33.1472 74.6157 33.2937 74.6513C33.4809 74.697 33.6677 74.7441 33.8541 74.7933C33.9436 74.8168 34.0338 74.8393 34.1231 74.8634C34.4149 74.9431 34.7055 75.0268 34.9948 75.1151C35.0445 75.1301 35.0937 75.1461 35.1434 75.1615C35.4134 75.2454 35.6824 75.3324 35.9501 75.4236C35.985 75.4355 36.0199 75.447 36.0548 75.459C36.6722 75.6718 37.2832 75.904 37.8865 76.156C37.912 76.1668 37.9376 76.1776 37.9631 76.1883C38.2589 76.3128 38.553 76.4412 38.8451 76.5748C38.85 76.5769 38.8549 76.5793 38.8598 76.5814C39.1577 76.718 39.4535 76.8596 39.7472 77.0058C39.783 77.0237 39.8184 77.0422 39.8541 77.0602C40.0945 77.1812 40.3336 77.3056 40.571 77.4329C40.6378 77.4687 40.7048 77.5043 40.7714 77.5407C41.0423 77.6883 41.3121 77.839 41.5788 77.9951C45.4554 80.2629 49.676 81.7318 54.1235 82.3611C54.1388 82.3634 54.1538 82.3653 54.169 82.3669L72.348 84.4599C75.5048 84.9165 77.9278 87.4487 78.2435 90.6244L78.3127 91.3196L46.3988 90.057C46.2628 90.0364 46.1754 89.9623 46.1248 89.9019C46.0709 89.8372 46.0097 89.7284 46.0235 89.5768C46.1112 88.6088 45.3977 87.7529 44.43 87.6652C43.4606 87.5769 42.6061 88.2912 42.5184 89.2587C42.4228 90.3137 42.7437 91.3423 43.4222 92.1558C44.1005 92.9691 45.0546 93.4695 46.1095 93.5654C46.1391 93.5679 46.1688 93.5701 46.1986 93.571L82.1862 94.9946L86.9559 95.2622C86.9887 95.2641 87.0218 95.2651 87.0544 95.2651C87.0926 95.2651 87.1301 95.2592 87.1678 95.2566C87.202 95.2543 87.236 95.2533 87.27 95.2491C87.3309 95.2416 87.3905 95.229 87.45 95.2151C87.4788 95.2086 87.5079 95.2039 87.5362 95.1957C87.6014 95.1772 87.6645 95.1528 87.727 95.1268C87.7486 95.1179 87.7711 95.1113 87.7924 95.1015C87.8754 95.063 87.9562 95.019 88.0329 94.9676L99.2761 87.443C99.277 87.4426 99.2777 87.4419 99.2784 87.4412L110.832 79.7091C112.483 78.5994 114.737 79.0351 115.856 80.6797C116.879 82.1834 116.625 84.2276 115.257 85.4426L92.7197 105.712C90.8609 107.219 88.6315 108.215 86.2687 108.595L51.3616 113.627C51.3462 113.629 51.3291 113.632 51.3138 113.634C50.2784 113.798 49.1981 113.729 48.1041 113.43L24.3961 104.452C23.4869 104.108 22.4714 104.565 22.1273 105.474C21.7833 106.383 22.241 107.399 23.1497 107.743L46.9324 116.749C46.98 116.767 47.0285 116.784 47.0777 116.797C48.1219 117.092 49.1655 117.24 50.1989 117.24C50.7598 117.24 51.318 117.196 51.8709 117.109C51.8728 117.109 51.8754 117.108 51.8782 117.108L86.7848 112.076C86.7935 112.075 86.8022 112.073 86.8109 112.072C89.8036 111.594 92.6271 110.329 94.976 108.413C94.998 108.395 95.0196 108.377 95.0407 108.358L117.602 88.0665C120.281 85.6885 120.782 81.6617 118.767 78.7004ZM101.594 36.0561C95.8608 42.4416 88.1733 45.1374 78.7516 44.0691C74.5324 43.5908 70.8769 42.4268 68.5594 41.5383C69.8447 40.5725 71.0927 39.6816 72.3042 38.8608C74.2134 39.7039 78.7055 41.4343 83.4152 41.4343C84.1519 41.4343 84.8944 41.3918 85.6327 41.2972C86.5966 41.1732 87.2777 40.2915 87.154 39.3277C87.03 38.3637 86.1478 37.681 85.1845 37.8066C81.8974 38.228 78.382 37.3468 75.9661 36.5115C81.2466 33.308 85.8459 31.3053 90.0837 29.4617C90.48 29.2892 90.8723 29.1186 91.2616 28.9484C92.6105 29.3623 95.7691 30.1578 100.138 30.1578C100.235 30.1578 100.334 30.1573 100.433 30.1566C101.405 30.1486 102.186 29.3543 102.178 28.3826C102.17 27.4158 101.384 26.6375 100.419 26.6375C100.414 26.6375 100.409 26.6375 100.404 26.6375C99.0213 26.6475 97.7728 26.5679 96.6809 26.4455C101.479 24.0249 105.825 21.0385 110.154 15.56C109.305 21.3493 107.136 29.8833 101.594 36.0561ZM68.4724 30.6624C71.2997 23.2043 77.3175 18.9303 86.3576 17.959C96.3909 16.8811 102.852 15.3315 106.97 13.9027C101.899 20.1099 96.8016 22.6695 90.4694 25.4529C90.4643 25.455 90.4594 25.4574 90.4542 25.4595C89.8732 25.715 89.2826 25.9721 88.6795 26.2343C87.3164 26.8273 85.916 27.4372 84.4697 28.0948C84.728 26.7528 85.1946 25.0913 86.0388 23.4551C86.4844 22.5915 86.1457 21.53 85.282 21.0844C84.4184 20.6391 83.3569 20.9773 82.9113 21.8412C81.2658 25.0301 80.8066 28.2664 80.6789 29.8965C76.5478 31.9573 72.011 34.579 66.8595 38.4125C66.9862 36.3383 67.3835 33.5347 68.4724 30.6624ZM41.9133 36.3908C33.2934 37.3925 26.2716 34.9449 21.0382 29.116C16.1583 23.6808 14.1485 16.2293 13.3202 10.9704C15.364 13.4834 17.5317 15.5511 19.9341 17.2906C21.5487 18.4597 23.2134 19.4393 24.9253 20.325C23.8514 20.4247 22.6245 20.4753 21.2648 20.4298C20.3034 20.3951 19.4801 21.1587 19.4475 22.13C19.4152 23.1012 20.1764 23.9147 21.1477 23.9473C21.5269 23.96 21.897 23.9658 22.2584 23.9658C26.2181 23.9658 29.1007 23.2547 30.3752 22.8683C30.7165 23.0173 31.0587 23.1664 31.4032 23.3164C35.2055 24.9704 39.3251 26.7629 44.0398 29.5972C41.8073 30.3427 38.6667 31.0751 35.7429 30.6385C34.7822 30.4955 33.8862 31.1579 33.7427 32.119C33.5993 33.0802 34.2621 33.9758 35.2233 34.1192C36.0021 34.2354 36.7856 34.2865 37.5637 34.2865C41.8418 34.2865 45.9202 32.7399 47.7204 31.9519C48.7395 32.6438 49.7857 33.3882 50.8615 34.1918C48.7655 34.9796 45.5852 35.964 41.9133 36.3908ZM40.212 23.4816C40.0732 21.81 39.5665 18.4733 37.7205 15.3411C37.2267 14.5041 36.1486 14.2254 35.3112 14.7183C34.474 15.2119 34.1951 16.2905 34.6884 17.1277C35.6027 18.6793 36.1099 20.3239 36.3919 21.6701C35.163 21.1144 33.9708 20.5955 32.8073 20.0893C26.4012 17.3021 21.3975 15.1219 16.4548 9.2438C20.2573 10.5106 26.0655 11.8547 34.857 12.7993C43.0249 13.6768 48.477 17.5198 51.0619 24.2213C52.024 26.7158 52.4053 29.1743 52.5436 31.0578C47.9599 27.6722 43.908 25.3297 40.212 23.4816ZM86.5655 91.7154L81.863 91.4515L81.7458 90.2759C81.2686 85.4743 77.598 81.6483 72.8198 80.9719C72.8048 80.9696 72.7898 80.9677 72.7744 80.9661L54.5946 78.8731C50.6105 78.3064 46.8295 76.989 43.3563 74.9572C43.0479 74.7767 42.7369 74.6028 42.424 74.4324C42.3415 74.3876 42.258 74.3445 42.1753 74.3005C41.9367 74.1732 41.6974 74.0483 41.4562 73.9266C41.3712 73.8837 41.2856 73.8418 41.2001 73.7996C40.9481 73.6751 40.695 73.5542 40.4405 73.4361C40.3725 73.4047 40.3045 73.373 40.2363 73.3419C39.937 73.2054 39.6359 73.0735 39.333 72.946C39.3094 72.9361 39.2859 72.9256 39.2623 72.9158C38.5732 72.6275 37.8755 72.3619 37.1691 72.1196C37.1508 72.1133 37.1323 72.1076 37.114 72.1013C36.8796 72.0214 36.645 71.9417 36.4087 71.8669C36.4219 71.8259 36.4338 71.7842 36.4441 71.7415C37.8708 65.8463 42.877 61.4239 48.9012 60.7367C49.2612 60.6954 49.5996 60.5445 49.8703 60.304C52.5319 57.9404 55.9566 56.6389 59.5144 56.6389C63.0722 56.6389 66.4973 57.9406 69.1587 60.304C69.4294 60.5443 69.7678 60.6954 70.1278 60.7367C76.1522 61.4239 81.1582 65.8463 82.5848 71.7415C82.7552 72.4456 83.3395 72.9732 84.0572 73.0711C90.3497 73.9306 95.3995 78.9209 96.4162 85.1225L86.5655 91.7154Z" fill="#BC2A40"/>
</svg>
