<svg width="61" height="61" viewBox="0 0 61 61" fill="none" xmlns="http://www.w3.org/2000/svg">
<path d="M30.5 0C13.6555 0 0 13.6555 0 30.5C0 47.3445 13.6555 61 30.5 61C47.3445 61 61 47.3445 61 30.5C60.9817 13.6627 47.3373 0.0182555 30.5 0ZM30.5 59.0323C14.7422 59.0323 1.96774 46.2578 1.96774 30.5C1.96774 14.7422 14.7422 1.96774 30.5 1.96774C46.2578 1.96774 59.0323 14.7422 59.0323 30.5C59.014 46.2501 46.2501 59.014 30.5 59.0323Z" fill="#BC2A40"/>
<path d="M30.5001 4.91943C16.3723 4.91943 4.91943 16.3723 4.91943 30.5001C4.91943 44.6278 16.3723 56.0807 30.5001 56.0807C44.6278 56.0807 56.0807 44.6278 56.0807 30.5001C56.0649 16.379 44.6211 4.93529 30.5001 4.91943ZM30.5001 54.113C17.459 54.113 6.88718 43.5412 6.88718 30.5001C6.88718 17.459 17.459 6.88718 30.5001 6.88718C43.5412 6.88718 54.113 17.459 54.113 30.5001C54.0976 43.5349 43.5349 54.0976 30.5001 54.113Z" fill="#BC2A40"/>
<path d="M52.0467 28.4409C51.9963 27.8995 51.5164 27.5017 50.9754 27.5522C50.434 27.6026 50.0362 28.0825 50.0872 28.6235C50.1458 29.2485 50.1756 29.8793 50.1756 30.4999C50.1756 31.0433 50.6161 31.4838 51.1594 31.4838C51.7028 31.4838 52.1433 31.0433 52.1433 30.4999C52.1452 29.8192 52.1126 29.1226 52.0467 28.4409Z" fill="#BC2A40"/>
<path d="M50.8063 26.5371C51.3342 26.4079 51.6575 25.8751 51.5283 25.3476C49.1729 15.6506 40.4785 8.83174 30.5 8.85479C29.9566 8.85479 29.5161 9.29533 29.5161 9.83867C29.5161 10.382 29.9566 10.8225 30.5 10.8225C39.571 10.8004 47.4751 16.9986 49.6168 25.8136C49.7239 26.2536 50.1178 26.564 50.5709 26.5645C50.6501 26.5645 50.7289 26.5553 50.8063 26.5371Z" fill="#BC2A40"/>
<path d="M45.6409 24.5968H34.7886L31.4358 14.2772C31.3027 13.8732 30.9261 13.6003 30.5009 13.6003C30.0758 13.6003 29.6991 13.8732 29.5661 14.2772L26.2114 24.5968H15.359C14.9329 24.5968 14.5553 24.8711 14.4232 25.2766C14.2916 25.6821 14.4357 26.126 14.7806 26.3767L23.5596 32.7551L20.2068 43.0747C20.0742 43.4806 20.2183 43.925 20.5633 44.1762C20.9087 44.427 21.3761 44.427 21.721 44.1758L30.5 37.7974L39.2789 44.1758C39.6238 44.4261 40.0903 44.4261 40.4352 44.1758C40.7797 43.926 40.9243 43.4821 40.7931 43.0771L37.4404 32.7551L46.2193 26.3767C46.5643 26.126 46.7084 25.6821 46.5768 25.2766C46.4446 24.8711 46.067 24.5968 45.6409 24.5968ZM35.7037 31.5824C35.3593 31.8327 35.2152 32.2761 35.3463 32.6811L37.9842 40.8014L31.0774 35.7836C30.7325 35.5328 30.2655 35.5328 29.9206 35.7836L23.0138 40.8014L25.6512 32.6811C25.7829 32.2766 25.6392 31.8332 25.2953 31.5824L18.3865 26.5646H26.9258C27.3519 26.5646 27.7295 26.2903 27.8611 25.8848L30.5 17.765L33.1388 25.8848C33.2705 26.2903 33.6481 26.5646 34.0742 26.5646H42.6134L35.7037 31.5824Z" fill="#BC2A40"/>
</svg>
