<svg width="61" height="61" viewBox="0 0 61 61" fill="none" xmlns="http://www.w3.org/2000/svg">
<g clip-path="url(#clip0)">
<path d="M54.3852 40.5195C54.3852 40.0256 53.9849 39.6252 53.491 39.6252H32.8159C32.3219 39.6252 31.9216 40.0256 31.9216 40.5195C31.9216 41.0135 32.3219 41.4138 32.8159 41.4138H53.491C53.9849 41.4139 54.3852 41.0135 54.3852 40.5195Z" fill="#BC2A40"/>
<path d="M32.8159 44.5269C32.3219 44.5269 31.9216 44.9272 31.9216 45.4211C31.9216 45.9151 32.3219 46.3154 32.8159 46.3154H43.1534C43.6473 46.3154 44.0476 45.9151 44.0476 45.4211C44.0476 44.9272 43.6473 44.5269 43.1534 44.5269H32.8159Z" fill="#BC2A40"/>
<path d="M45.8778 32.0716V6.29176C45.8778 3.68615 43.758 1.56616 41.1522 1.56616H4.72547C2.11987 1.56616 0 3.68615 0 6.29176V32.0718C0 34.6774 2.11987 36.7974 4.72547 36.7974H5.47344C5.79798 36.7974 6.06188 37.0614 6.06188 37.3859V45.2639C6.06188 45.8211 6.39654 46.3141 6.91433 46.5198C7.43414 46.7265 8.01554 46.595 8.39632 46.1915L17.0868 36.9821C17.1975 36.8648 17.3535 36.7975 17.5149 36.7975H41.1521C43.7578 36.7972 45.8778 34.6772 45.8778 32.0716ZM15.7861 35.7542L7.85053 44.1636V37.3858C7.85053 36.075 6.78422 35.0086 5.47344 35.0086H4.72547C3.10612 35.0086 1.78866 33.6911 1.78866 32.0716V6.29176C1.78866 4.67228 3.10612 3.35482 4.72547 3.35482H41.1522C42.7717 3.35482 44.0892 4.67228 44.0892 6.29176V32.0718C44.0892 33.6912 42.7717 35.0087 41.1522 35.0087H17.515C16.8635 35.0086 16.2334 35.2803 15.7861 35.7542Z" fill="#BC2A40"/>
<path d="M57.2961 25.9211H49.1644C48.6705 25.9211 48.2702 26.3215 48.2702 26.8154C48.2702 27.3094 48.6705 27.7097 49.1644 27.7097H57.2961C58.3522 27.7097 59.2113 28.5688 59.2113 29.6247V48.5293C59.2113 49.5852 58.3522 50.4443 57.2961 50.4443H56.7476C55.655 50.4443 54.7661 51.3332 54.7661 52.4259V56.7958L49.3591 51.066C48.9863 50.6709 48.4609 50.4443 47.9178 50.4443H29.0105C27.9545 50.4443 27.0954 49.5852 27.0954 48.5293V40.0622C27.0954 39.5682 26.695 39.1679 26.2012 39.1679C25.7072 39.1679 25.3069 39.5682 25.3069 40.0622V48.5294C25.3069 50.5717 26.9683 52.2331 29.0106 52.2331H47.9178C47.9706 52.2331 48.0218 52.2552 48.0581 52.2936L54.4309 59.0469C54.7758 59.4122 55.3038 59.5345 55.7792 59.3457C56.2504 59.1585 56.5547 58.71 56.5547 58.203V52.426C56.5547 52.3196 56.6412 52.233 56.7477 52.233H57.2963C59.3386 52.233 61.0001 50.5716 61.0001 48.5293V29.6249C61 27.5827 59.3385 25.9211 57.2961 25.9211Z" fill="#BC2A40"/>
<path d="M33.2858 7.57298C32.9788 5.98793 31.4478 4.95415 29.8627 5.26093C28.2814 5.56736 27.2442 7.10285 27.5505 8.68408L27.7812 9.87513C23.135 14.4314 17.4694 15.7641 17.2429 15.8155L11.3206 16.9628C9.581 17.2999 8.44583 18.9801 8.78288 20.7199L9.46019 24.2161C9.79712 25.9555 11.478 27.0908 13.2173 26.7537L13.4228 26.7139L14.9924 30.838C15.6148 32.4734 17.3136 33.4239 19.0385 33.0902C20.3564 32.8351 21.2168 31.5617 20.9614 30.2434L20.043 25.5026C21.9188 25.3416 26.4352 25.2336 31.1339 27.182L31.3647 28.3731C31.6723 29.9613 33.2136 30.9904 34.7878 30.6852C36.3728 30.3783 37.4069 28.8471 37.0999 27.262L33.2858 7.57298ZM11.2163 23.8758L10.539 20.3796C10.39 19.6107 10.8918 18.8677 11.6608 18.7188L16.7173 17.7392L17.9336 24.0181L12.8771 24.9977C12.1082 25.1466 11.3653 24.645 11.2163 23.8758ZM18.6984 31.3341C17.8332 31.5021 16.9776 31.0257 16.664 30.2018L15.2052 26.3686L18.2736 25.7742L19.2053 30.5837C19.2727 30.931 19.0461 31.267 18.6984 31.3341ZM34.4476 28.9291C33.8352 29.0483 33.2395 28.6459 33.1207 28.0328C32.8539 26.6559 31.3286 18.7816 31.0302 17.2417C30.9362 16.7567 30.4667 16.4399 29.9822 16.5338C29.4973 16.6278 29.1804 17.0971 29.2742 17.582L30.7325 25.1094C25.9177 23.3846 21.5166 23.5562 19.7007 23.7346L18.4623 17.3424C20.2136 16.8298 24.3603 15.3455 28.1827 11.9476L28.486 13.5137C28.58 13.9986 29.0495 14.315 29.5341 14.2216C30.019 14.1276 30.3359 13.6584 30.242 13.1734L29.3065 8.34394C29.1877 7.73108 29.5898 7.13585 30.2028 7.01707C30.8166 6.89804 31.4107 7.29836 31.5297 7.91336L35.3439 27.6023C35.463 28.2167 35.0621 28.81 34.4476 28.9291Z" fill="#BC2A40"/>
</g>
<defs>
<clipPath id="clip0">
<rect width="61" height="61" fill="white"/>
</clipPath>
</defs>
</svg>
