<svg width="184" height="42" viewBox="0 0 184 42" fill="none" xmlns="http://www.w3.org/2000/svg">
<path d="M7.32292 0.000976562H18.7036V0.991167H7.32292C6.4656 0.991167 5.64766 1.18563 4.90027 1.53874C4.12007 1.9065 3.41616 2.44594 2.82629 3.11556C2.23314 3.78681 1.75484 4.58986 1.4275 5.48079C1.11329 6.33917 0.939362 7.27973 0.939362 8.26585V23.4401C0.939362 24.4254 1.11329 25.366 1.42832 26.2235C1.75484 27.1153 2.23396 27.9175 2.82629 28.5896C3.41616 29.2584 4.12089 29.7986 4.90191 30.1672C5.6493 30.5203 6.46724 30.7148 7.32292 30.7148H18.7036V31.705H7.32292C6.33188 31.705 5.38431 31.4788 4.51878 31.0712C3.6229 30.6481 2.81563 30.0297 2.13961 29.2633C1.46606 28.5001 0.922954 27.5896 0.552952 26.5799C0.196897 25.6101 0 24.5491 0 23.4401V8.26585C0 7.15687 0.196897 6.09508 0.552952 5.12442C0.922954 4.11552 1.46606 3.20506 2.13879 2.44187C2.8148 1.67543 3.62208 1.05707 4.51878 0.634796C5.38431 0.226353 6.33105 0.000976562 7.32292 0.000976562Z" fill="#31304F"/>
<path d="M107.51 0H121.343C122.335 0 123.282 0.225378 124.147 0.633824C126.024 1.51906 127.409 3.20492 128.113 5.12429C128.469 6.09496 128.666 7.15595 128.666 8.26494V23.4393C128.666 24.541 128.472 25.5954 128.119 26.562C127.753 27.5653 127.216 28.4725 126.549 29.2348C125.905 29.972 125.14 30.5741 124.291 30.9988C123.542 31.3731 122.728 31.6099 121.875 31.6798V39.9033C121.875 40.0448 121.852 40.1954 121.807 40.3434C121.765 40.4866 121.702 40.629 121.621 40.76C121.54 40.8918 121.439 41.0155 121.321 41.1205C121.209 41.2205 121.08 41.3052 120.935 41.367C120.78 41.4337 120.609 41.4728 120.424 41.476C120.258 41.4785 120.081 41.4508 119.897 41.3873C119.681 41.3117 119.454 41.1856 119.217 40.996C119.011 40.8292 118.796 40.6111 118.574 40.3329L111.707 31.7042H107.51V30.714H112.142C114.526 33.7082 116.909 36.7032 119.292 39.6982C119.46 39.9098 119.621 40.0749 119.773 40.1994C119.927 40.3255 120.067 40.4061 120.19 40.4492C120.27 40.4769 120.342 40.4891 120.407 40.4891C120.471 40.4883 120.53 40.4753 120.583 40.4533C120.632 40.4313 120.677 40.4012 120.717 40.3654C120.763 40.3239 120.803 40.2743 120.836 40.2214C120.869 40.1677 120.895 40.1107 120.912 40.0554C120.927 40.0042 120.935 39.9529 120.935 39.9033V30.7197L121.401 30.7157C122.25 30.7067 123.062 30.5049 123.804 30.1477C124.577 29.7759 125.275 29.234 125.86 28.5652C126.447 27.894 126.92 27.0942 127.244 26.2073C127.555 25.3538 127.727 24.4189 127.727 23.4393V8.26494C127.727 7.27962 127.553 6.33906 127.239 5.48067C126.911 4.58973 126.432 3.78667 125.84 3.11461C125.249 2.44498 124.545 1.90554 123.766 1.53778C123.018 1.18547 122.2 0.990198 121.343 0.990198H107.51V0Z" fill="#31304F"/>
<path d="M16.1074 0H108.658V0.990191H16.1074V0ZM16.1074 30.7138H108.658V31.704H16.1074V30.7138Z" fill="#31304F"/>
<path d="M16.3437 17.3974C16.3437 18.2102 16.2305 18.9572 16.0065 19.6414C15.7834 20.3225 15.4618 20.9197 15.0426 21.4258L17.1822 23.5038L16.4167 24.2353L14.2484 22.1759C13.8169 22.5014 13.3345 22.7447 12.802 22.9139C12.2696 23.0823 11.6994 23.1637 11.0915 23.167C9.5155 23.1637 8.25864 22.6357 7.31928 21.573C6.37992 20.5104 5.91064 19.1199 5.91064 17.3974V15.2258C5.91064 13.5131 6.37992 12.1193 7.316 11.0534C8.2488 9.9851 9.50647 9.45054 11.0817 9.45054C12.6823 9.45054 13.9588 9.9851 14.9129 11.0534C15.8679 12.1193 16.3437 13.5131 16.3437 15.2258V17.3974ZM15.2444 15.2103C15.2444 13.7694 14.8785 12.6099 14.1418 11.7287C13.4075 10.8508 12.3861 10.4098 11.0817 10.4098C9.80182 10.4098 8.80339 10.8508 8.09128 11.7287C7.37589 12.6099 7.01983 13.7694 7.01983 15.2103V17.3974C7.01983 18.8506 7.37917 20.0165 8.09456 20.8945C8.81323 21.7732 9.81166 22.2134 11.0915 22.2134C12.4017 22.2134 13.4231 21.7756 14.1508 20.8977C14.8818 20.023 15.2444 18.8571 15.2444 17.3974V15.2103ZM24.9801 22.9733C24.9104 22.6259 24.8603 22.3257 24.8259 22.0759C24.7939 21.8261 24.775 21.5698 24.775 21.307C24.4313 21.8448 23.9497 22.2882 23.3254 22.6389C22.7051 22.9888 21.993 23.1637 21.1857 23.167C20.2062 23.1637 19.4465 22.9074 18.9075 22.3916C18.3718 21.8757 18.101 21.176 18.101 20.2915C18.101 19.4039 18.4915 18.6887 19.2734 18.1386C20.0544 17.5886 21.0725 17.3136 22.3204 17.3136H24.775V16.0883C24.775 15.3788 24.5486 14.8255 24.0974 14.4227C23.6437 14.0192 23.007 13.8166 22.1817 13.8166C21.4253 13.8166 20.8141 14.0004 20.3506 14.3666C19.8846 14.7319 19.6516 15.1941 19.6516 15.7473H18.6269L18.608 15.6945C18.5736 14.9508 18.8952 14.2942 19.5728 13.7287C20.2529 13.1665 21.1423 12.8817 22.2383 12.8817C23.3319 12.8817 24.2139 13.1599 24.8792 13.7165C25.5404 14.2722 25.8752 15.0696 25.8752 16.107V20.9758C25.8752 21.3257 25.894 21.6634 25.9351 21.9945C25.9753 22.3232 26.0417 22.6479 26.1336 22.9733H24.9801ZM21.3055 22.1947C22.153 22.1947 22.8905 21.9945 23.5116 21.595C24.1326 21.1947 24.5543 20.6821 24.775 20.0507V18.1574H22.3105C21.413 18.1574 20.6722 18.3697 20.0864 18.7944C19.4998 19.2167 19.2102 19.7293 19.2102 20.3257C19.2102 20.8888 19.3964 21.342 19.7681 21.6821C20.1397 22.023 20.6533 22.1947 21.3055 22.1947ZM36.4329 18.2949C36.4329 19.7789 36.0925 20.9604 35.4148 21.8415C34.7405 22.7227 33.8085 23.1637 32.6205 23.167C31.924 23.1637 31.3128 23.0352 30.7861 22.7732C30.2602 22.5104 29.8312 22.1353 29.5005 21.6544V26.7828H28.3914V13.0664H29.2388L29.4439 14.6131C29.7746 14.0631 30.2061 13.6384 30.7361 13.3349C31.2652 13.0346 31.8863 12.8817 32.6008 12.8817C33.8019 12.8817 34.7405 13.3568 35.4148 14.3072C36.0925 15.2567 36.4329 16.5227 36.4329 18.1012V18.2949ZM35.3238 18.1012C35.3238 16.8441 35.0719 15.8198 34.5674 15.0256C34.0636 14.2315 33.3228 13.8353 32.3523 13.8353C31.618 13.8353 31.0191 14.0102 30.5564 14.3568C30.0896 14.7034 29.7401 15.1566 29.5005 15.7132V20.5104C29.759 21.0474 30.1249 21.4697 30.5974 21.7789C31.0733 22.0856 31.6623 22.2419 32.3711 22.2419C33.3351 22.2419 34.0694 21.879 34.5706 21.1605C35.0719 20.4388 35.3238 19.4852 35.3238 18.2949V18.1012ZM44.4672 20.4356C44.4672 19.9726 44.2752 19.5698 43.8904 19.2224C43.5056 18.8791 42.8124 18.5975 41.8107 18.3762C40.6293 18.1321 39.7498 17.7977 39.1731 17.373C38.5996 16.9507 38.31 16.3568 38.31 15.5944C38.31 14.8352 38.6316 14.1941 39.274 13.6693C39.9172 13.1445 40.7712 12.8817 41.8263 12.8817C42.942 12.8817 43.8305 13.1632 44.4951 13.7222C45.1604 14.2787 45.4787 14.9662 45.4467 15.7848L45.4279 15.8417H44.404C44.404 15.2974 44.1677 14.8255 43.6984 14.4227C43.2259 14.0192 42.6048 13.8166 41.8263 13.8166C41.0289 13.8166 40.4242 13.9915 40.0181 14.3381C39.6112 14.688 39.4094 15.0915 39.4094 15.5569C39.4094 16.0069 39.5825 16.382 39.9295 16.679C40.279 16.9759 40.9722 17.2355 42.0125 17.4601C43.1816 17.7164 44.0668 18.076 44.6657 18.5324C45.2671 18.9913 45.5665 19.6073 45.5665 20.3819C45.5665 21.2069 45.2293 21.8757 44.5549 22.3916C43.8806 22.9074 42.9921 23.1637 41.8829 23.167C40.6703 23.1637 39.7187 22.8789 39.0254 22.3045C38.3346 21.7325 38.0073 21.0474 38.0418 20.2541L38.0606 20.198H39.0755C39.1198 20.9132 39.4127 21.4323 39.9582 21.7545C40.503 22.0791 41.1462 22.2419 41.8829 22.2419C42.6836 22.2419 43.3137 22.0637 43.7772 21.7105C44.2375 21.3542 44.4672 20.9319 44.4672 20.4356ZM48.7956 14.7506C49.1328 14.1599 49.5766 13.701 50.1288 13.3723C50.6801 13.0477 51.3225 12.8817 52.0633 12.8817C53.1159 12.8817 53.9223 13.2071 54.4868 13.854C55.0471 14.5008 55.331 15.5041 55.331 16.8661V22.9733H54.2218V16.8474C54.2218 15.7726 54.0076 15.0037 53.5819 14.535C53.1536 14.0696 52.5646 13.8353 51.8114 13.8353C51.0361 13.8353 50.3995 14.0224 49.8982 14.3975C49.3945 14.7726 49.0286 15.2754 48.7956 15.9036V22.9733H47.6864V8.69141H48.7956V14.7506ZM64.106 22.9733C64.0363 22.6259 63.9854 22.3257 63.9509 22.0759C63.9198 21.8261 63.9009 21.5698 63.9009 21.307C63.5571 21.8448 63.0747 22.2882 62.4512 22.6389C61.8302 22.9888 61.1181 23.1637 60.3116 23.167C59.3321 23.1637 58.5724 22.9074 58.0334 22.3916C57.4976 21.8757 57.2269 21.176 57.2269 20.2915C57.2269 19.4039 57.6174 18.6887 58.3993 18.1386C59.1803 17.5886 60.1984 17.3136 61.4462 17.3136H63.9009V16.0883C63.9009 15.3788 63.6736 14.8255 63.2232 14.4227C62.7696 14.0192 62.1329 13.8166 61.3076 13.8166C60.5512 13.8166 59.94 14.0004 59.4765 14.3666C59.0105 14.7319 58.7775 15.1941 58.7775 15.7473H57.7528L57.7339 15.6945C57.6995 14.9508 58.0211 14.2942 58.6979 13.7287C59.3788 13.1665 60.2673 12.8817 61.3642 12.8817C62.4578 12.8817 63.3397 13.1599 64.0051 13.7165C64.6663 14.2722 65.0002 15.0696 65.0002 16.107V20.9758C65.0002 21.3257 65.0191 21.6634 65.0601 21.9945C65.1011 22.3232 65.1676 22.6479 65.2587 22.9733H64.106ZM60.4314 22.1947C61.2789 22.1947 62.0164 21.9945 62.6375 21.595C63.2577 21.1947 63.6802 20.6821 63.9009 20.0507V18.1574H61.4364C60.5389 18.1574 59.798 18.3697 59.2115 18.7944C58.6257 19.2167 58.3361 19.7293 58.3361 20.3257C58.3361 20.8888 58.5215 21.342 58.894 21.6821C59.2656 22.023 59.7792 22.1947 60.4314 22.1947ZM67.1202 18.1012C67.1202 16.5227 67.4573 15.2567 68.1317 14.3072C68.8061 13.3568 69.7446 12.8817 70.9514 12.8817C71.6578 12.8817 72.2748 13.0346 72.7982 13.3349C73.3216 13.6384 73.7498 14.0663 74.0903 14.6229L74.2478 13.0664H75.1429V23.0295C75.1429 24.2914 74.7901 25.2637 74.0903 25.948C73.3872 26.6323 72.3945 26.9732 71.109 26.9732C70.6274 26.9732 70.1163 26.9171 69.5715 26.8015C69.026 26.686 68.5509 26.5265 68.144 26.3231L68.3549 25.398C68.7552 25.5949 69.1843 25.7422 69.6347 25.8414C70.0884 25.9448 70.5732 25.9952 71.0901 25.9952C72.0738 25.9952 72.8105 25.7446 73.2962 25.245C73.781 24.7414 74.0239 24.0042 74.0239 23.0295V21.6259C73.6867 22.1198 73.2584 22.5014 72.7383 22.7667C72.2181 23.0319 71.6168 23.1637 70.9326 23.167C69.7389 23.1637 68.8061 22.7227 68.1317 21.8383C67.4573 20.9539 67.1202 19.7724 67.1202 18.2949V18.1012ZM68.2293 18.2949C68.2293 19.4917 68.4714 20.4413 68.957 21.1508C69.4419 21.8603 70.1737 22.2134 71.1442 22.2134C71.8465 22.2134 72.4356 22.0572 72.9114 21.7415C73.3905 21.4258 73.7597 20.9945 74.0239 20.4445V15.7229C73.772 15.1664 73.4159 14.7132 72.9491 14.3633C72.4864 14.0102 71.8908 13.8353 71.1631 13.8353C70.1926 13.8353 69.4583 14.2315 68.9669 15.0256C68.4746 15.8198 68.2293 16.8441 68.2293 18.1012V18.2949ZM83.936 22.9733C83.8671 22.6259 83.8162 22.3257 83.7817 22.0759C83.7506 21.8261 83.7317 21.5698 83.7317 21.307C83.3879 21.8448 82.9055 22.2882 82.282 22.6389C81.661 22.9888 80.9489 23.1637 80.1424 23.167C79.162 23.1637 78.4032 22.9074 77.8642 22.3916C77.3284 21.8757 77.0577 21.176 77.0577 20.2915C77.0577 19.4039 77.4482 18.6887 78.2292 18.1386C79.0111 17.5886 80.0292 17.3136 81.277 17.3136H83.7317V16.0883C83.7317 15.3788 83.5044 14.8255 83.054 14.4227C82.6004 14.0192 81.9637 13.8166 81.1384 13.8166C80.382 13.8166 79.7708 14.0004 79.3073 14.3666C78.8413 14.7319 78.6075 15.1941 78.6075 15.7473H77.5836L77.5647 15.6945C77.5303 14.9508 77.851 14.2942 78.5287 13.7287C79.2096 13.1665 80.0981 12.8817 81.195 12.8817C82.2878 12.8817 83.1705 13.1599 83.8351 13.7165C84.4971 14.2722 84.831 15.0696 84.831 16.107V20.9758C84.831 21.3257 84.8499 21.6634 84.8909 21.9945C84.9319 22.3232 84.9984 22.6479 85.0895 22.9733H83.936ZM80.2622 22.1947C81.1097 22.1947 81.8472 21.9945 82.4675 21.595C83.0885 21.1947 83.511 20.6821 83.7317 20.0507V18.1574H81.2672C80.3689 18.1574 79.6289 18.3697 79.0423 18.7944C78.4565 19.2167 78.1669 19.7293 78.1669 20.3257C78.1669 20.8888 78.3523 21.342 78.7239 21.6821C79.0964 22.023 79.61 22.1947 80.2622 22.1947ZM88.5827 22.9733H87.4867V13.0664H88.5827V22.9733ZM88.5827 10.2284H87.4867V8.69141H88.5827V10.2284Z" fill="#31304F"/>
<path d="M100.726 18.8065L100.745 18.8626C100.77 20.1685 100.338 21.2092 99.4532 21.9903C98.568 22.7722 97.4046 23.1627 95.9648 23.166C94.4684 23.1627 93.2608 22.6282 92.3444 21.5566C91.4272 20.4875 90.9702 19.1002 90.9702 17.3964V15.2248C90.9702 13.5276 91.4272 12.1435 92.3444 11.0655C93.2608 9.98657 94.4684 9.44956 95.9648 9.44956C97.4235 9.44956 98.5893 9.83035 99.4688 10.5935C100.345 11.3559 100.77 12.4055 100.745 13.7432L100.726 13.7969H99.6927C99.6927 12.7245 99.3613 11.8872 98.7001 11.2835C98.038 10.6839 97.1273 10.3836 95.9648 10.3836C94.7892 10.3836 93.8441 10.8336 93.1353 11.7367C92.4231 12.6399 92.0671 13.7969 92.0671 15.2094V17.3964C92.0671 18.8252 92.4231 19.9871 93.1353 20.8878C93.8441 21.7909 94.7892 22.2409 95.9648 22.2409C97.1273 22.2409 98.038 21.9472 98.7001 21.3597C99.3613 20.7747 99.6927 19.922 99.6927 18.8065H100.726ZM104.138 22.9723H103.041V13.0654H104.138V22.9723ZM104.138 10.2274H103.041V8.69043H104.138V10.2274ZM108.492 10.5309V13.0654H110.688V13.962H108.492V20.4183C108.492 21.066 108.608 21.5249 108.848 21.7966C109.084 22.0659 109.399 22.2035 109.793 22.2035C109.928 22.2035 110.058 22.1937 110.183 22.1815C110.31 22.166 110.461 22.1375 110.631 22.1034L110.798 22.9154C110.65 22.9911 110.467 23.0505 110.25 23.0968C110.032 23.1408 109.815 23.1627 109.597 23.166C108.898 23.1627 108.35 22.9439 107.959 22.5061C107.568 22.0659 107.373 21.3687 107.373 20.4183V13.962H105.646V13.0654H107.373V10.5309H108.492ZM115.253 20.2906L115.605 21.472H115.659L118.678 13.0654H119.916L115.577 24.5565C115.318 25.2286 114.981 25.7973 114.572 26.2692C114.159 26.7379 113.554 26.9722 112.76 26.9722C112.631 26.9722 112.476 26.96 112.29 26.9315C112.105 26.9031 111.968 26.8754 111.884 26.8437L112.013 25.9283C112.086 25.9405 112.206 25.9568 112.369 25.969C112.533 25.9845 112.649 25.9942 112.725 25.9942C113.204 25.9942 113.589 25.825 113.878 25.4849C114.169 25.1472 114.414 24.7127 114.616 24.1814L115.142 22.8438L111.285 13.0654H112.511L115.253 20.2906Z" fill="#2B2A29"/>
<path d="M140.173 12.1017L140.182 12.1277C140.194 12.7257 139.996 13.2017 139.591 13.5597C139.186 13.9169 138.653 14.0959 137.994 14.0975C137.309 14.0959 136.756 13.851 136.337 13.3604C135.917 12.8714 135.708 12.236 135.708 11.4565V10.4623C135.708 9.68607 135.917 9.05226 136.337 8.55839C136.756 8.06534 137.309 7.81882 137.994 7.81882C138.662 7.81882 139.196 7.99374 139.598 8.34279C139.999 8.69183 140.194 9.17186 140.182 9.78452L140.173 9.80893H139.701C139.701 9.31831 139.549 8.9351 139.246 8.65847C138.943 8.38428 138.526 8.24678 137.994 8.24678C137.456 8.24678 137.023 8.45262 136.699 8.86594C136.373 9.27926 136.21 9.80893 136.21 10.4558V11.4565C136.21 12.1107 136.373 12.6428 136.699 13.0545C137.023 13.4678 137.456 13.6736 137.994 13.6736C138.526 13.6736 138.943 13.5394 139.246 13.2709C139.549 13.0032 139.701 12.6127 139.701 12.1017H140.173ZM144.262 14.0088C144.23 13.8502 144.207 13.7127 144.191 13.5979C144.176 13.484 144.167 13.3661 144.167 13.2465C144.01 13.4922 143.79 13.6956 143.504 13.8559C143.22 14.0161 142.894 14.0959 142.525 14.0975C142.076 14.0959 141.728 13.9787 141.482 13.7428C141.237 13.5068 141.113 13.1863 141.113 12.7811C141.113 12.3751 141.292 12.0472 141.649 11.7958C142.007 11.5436 142.473 11.4183 143.044 11.4183H144.167V10.8577C144.167 10.5322 144.064 10.2792 143.857 10.0945C143.65 9.91063 143.358 9.81706 142.981 9.81706C142.635 9.81706 142.355 9.90168 142.142 10.0693C141.929 10.2369 141.822 10.4484 141.822 10.7015H141.353L141.345 10.6771C141.329 10.337 141.476 10.0359 141.786 9.7772C142.098 9.52009 142.504 9.38991 143.006 9.38991C143.507 9.38991 143.911 9.51684 144.216 9.7715C144.518 10.0262 144.671 10.3907 144.671 10.8658V13.0943C144.671 13.2546 144.68 13.4092 144.699 13.5605C144.717 13.711 144.747 13.8599 144.789 14.0088H144.262ZM142.58 13.6525C142.968 13.6525 143.305 13.5605 143.59 13.3775C143.873 13.1944 144.066 12.9601 144.167 12.6712V11.8047H143.04C142.629 11.8047 142.289 11.9016 142.021 12.096C141.753 12.2897 141.621 12.524 141.621 12.7973C141.621 13.0545 141.705 13.2619 141.876 13.4181C142.046 13.5735 142.281 13.6525 142.58 13.6525ZM148.994 9.47372H149.501V14.0088H148.994V10.3077L148.969 10.2995L146.527 14.0088H146.02V9.47372H146.527V13.1708L146.552 13.1749L148.994 9.47372ZM148.932 7.6748L148.94 7.70003C148.952 8.01327 148.849 8.26712 148.632 8.46239C148.415 8.65847 148.12 8.7561 147.745 8.7561C147.37 8.7561 147.074 8.65684 146.855 8.46157C146.637 8.26386 146.535 8.01083 146.549 7.70003L146.558 7.6748H146.954C146.954 7.89041 147.018 8.06371 147.144 8.19552C147.272 8.3257 147.472 8.3916 147.745 8.3916C148.01 8.3916 148.208 8.32407 148.339 8.19064C148.469 8.05639 148.535 7.88472 148.535 7.6748H148.932ZM154.247 9.90168H152.582V14.0088H152.075V9.90168H150.474V9.47372H154.247V9.90168ZM160.146 9.90575H157.831V14.0088H157.324V9.47372H160.146V9.90575ZM160.582 11.6746C160.582 11.0058 160.766 10.4598 161.135 10.0319C161.504 9.60389 161.993 9.38991 162.602 9.38991C163.213 9.38991 163.703 9.60389 164.073 10.0319C164.44 10.4598 164.625 11.0058 164.625 11.6746V11.8129C164.625 12.4841 164.442 13.0317 164.074 13.458C163.706 13.8843 163.219 14.0959 162.61 14.0975C161.995 14.0959 161.504 13.8843 161.135 13.458C160.766 13.0317 160.582 12.4841 160.582 11.8129V11.6746ZM161.088 11.8129C161.088 12.3377 161.223 12.7803 161.489 13.1374C161.757 13.4954 162.132 13.6736 162.61 13.6736C163.08 13.6736 163.449 13.4954 163.719 13.1374C163.987 12.7803 164.124 12.3377 164.124 11.8129V11.6746C164.124 11.1579 163.987 10.7186 163.717 10.3581C163.447 9.99769 163.074 9.81706 162.602 9.81706C162.128 9.81706 161.757 9.99769 161.489 10.3581C161.223 10.7186 161.088 11.1579 161.088 11.6746V11.8129ZM169.363 11.8674C169.363 12.5468 169.208 13.0878 168.897 13.4906C168.589 13.8941 168.162 14.0959 167.618 14.0975C167.299 14.0959 167.02 14.0373 166.778 13.9169C166.538 13.7973 166.342 13.6256 166.19 13.4051V15.7524H165.682V9.47372H166.07L166.164 10.1824C166.316 9.93016 166.513 9.7357 166.755 9.59739C166.998 9.45988 167.282 9.38991 167.609 9.38991C168.159 9.38991 168.589 9.60715 168.897 10.0416C169.208 10.4769 169.363 11.0562 169.363 11.7787V11.8674ZM168.856 11.7787C168.856 11.2035 168.74 10.734 168.509 10.3711C168.279 10.0074 167.94 9.82601 167.495 9.82601C167.159 9.82601 166.885 9.90575 166.673 10.0652C166.46 10.2239 166.3 10.4313 166.19 10.686V12.8812C166.308 13.1277 166.476 13.3205 166.692 13.4621C166.91 13.602 167.18 13.6736 167.504 13.6736C167.946 13.6736 168.281 13.5076 168.511 13.1789C168.74 12.8486 168.856 12.4125 168.856 11.8674V11.7787ZM170.217 11.6746C170.217 11.0058 170.402 10.4598 170.77 10.0319C171.139 9.60389 171.628 9.38991 172.236 9.38991C172.849 9.38991 173.338 9.60389 173.707 10.0319C174.076 10.4598 174.26 11.0058 174.26 11.6746V11.8129C174.26 12.4841 174.077 13.0317 173.709 13.458C173.342 13.8843 172.854 14.0959 172.246 14.0975C171.631 14.0959 171.139 13.8843 170.77 13.458C170.402 13.0317 170.217 12.4841 170.217 11.8129V11.6746ZM170.724 11.8129C170.724 12.3377 170.857 12.7803 171.125 13.1374C171.393 13.4954 171.766 13.6736 172.246 13.6736C172.716 13.6736 173.085 13.4954 173.355 13.1374C173.623 12.7803 173.758 12.3377 173.758 11.8129V11.6746C173.758 11.1579 173.623 10.7186 173.351 10.3581C173.082 9.99769 172.71 9.81706 172.236 9.81706C171.763 9.81706 171.393 9.99769 171.125 10.3581C170.857 10.7186 170.724 11.1579 170.724 11.6746V11.8129ZM175.3 13.5849C175.522 13.5849 175.699 13.3734 175.827 12.9503C175.955 12.5264 176.039 11.9146 176.078 11.1132L176.176 9.47372H178.918V13.5849H179.349V15.4839H178.842V14.0088H175.389V15.4839H174.908V13.5849H175.3ZM176.585 11.1132C176.551 11.7112 176.494 12.2148 176.416 12.6257C176.337 13.0357 176.222 13.3563 176.069 13.5849H178.41V9.94317H176.654L176.585 11.1132ZM183.284 14.0088C183.252 13.8502 183.229 13.7127 183.213 13.5979C183.199 13.484 183.191 13.3661 183.191 13.2465C183.033 13.4922 182.812 13.6956 182.527 13.8559C182.242 14.0161 181.916 14.0959 181.547 14.0975C181.098 14.0959 180.751 13.9787 180.505 13.7428C180.259 13.5068 180.135 13.1863 180.135 12.7811C180.135 12.3751 180.314 12.0472 180.672 11.7958C181.03 11.5436 181.496 11.4183 182.067 11.4183H183.191V10.8577C183.191 10.5322 183.086 10.2792 182.88 10.0945C182.672 9.91063 182.381 9.81706 182.003 9.81706C181.657 9.81706 181.377 9.90168 181.165 10.0693C180.952 10.2369 180.845 10.4484 180.845 10.7015H180.376L180.368 10.6771C180.352 10.337 180.499 10.0359 180.809 9.7772C181.121 9.52009 181.527 9.38991 182.029 9.38991C182.529 9.38991 182.934 9.51684 183.238 9.7715C183.541 10.0262 183.693 10.3907 183.693 10.8658V13.0943C183.693 13.2546 183.702 13.4092 183.721 13.5605C183.739 13.711 183.77 13.8599 183.812 14.0088H183.284ZM181.602 13.6525C181.99 13.6525 182.327 13.5605 182.612 13.3775C182.896 13.1944 183.089 12.9601 183.191 12.6712V11.8047H182.062C181.651 11.8047 181.312 11.9016 181.044 12.096C180.775 12.2897 180.643 12.524 180.643 12.7973C180.643 13.0545 180.728 13.2619 180.898 13.4181C181.068 13.5735 181.304 13.6525 181.602 13.6525ZM137.106 21.4144H136.444V24.3092H135.936V18.2071H136.444V20.9905H137.103L139.519 18.2071H140.094L140.103 18.2283L137.55 21.1622L140.356 24.2881L140.348 24.3092H139.739L137.106 21.4144ZM144.041 24.3092C144.009 24.1506 143.986 24.0131 143.97 23.8992C143.956 23.7845 143.947 23.6673 143.947 23.5469C143.79 23.7934 143.569 23.996 143.284 24.1563C142.999 24.3166 142.673 24.3963 142.304 24.3979C141.855 24.3963 141.507 24.2791 141.261 24.0432C141.016 23.8072 140.892 23.4867 140.892 23.0823C140.892 22.6755 141.071 22.3484 141.429 22.0962C141.786 21.8448 142.252 21.7187 142.823 21.7187H143.947V21.1581C143.947 20.8335 143.843 20.5804 143.636 20.3957C143.429 20.211 143.138 20.1183 142.76 20.1183C142.414 20.1183 142.134 20.2029 141.922 20.3697C141.708 20.5373 141.602 20.7488 141.602 21.0019H141.133L141.124 20.9775C141.108 20.6374 141.256 20.3372 141.566 20.0784C141.877 19.8205 142.284 19.6903 142.786 19.6903C143.286 19.6903 143.691 19.8181 143.995 20.0727C144.298 20.3266 144.45 20.6919 144.45 21.167V23.3955C144.45 23.5558 144.459 23.7104 144.477 23.8617C144.496 24.0123 144.527 24.1603 144.568 24.3092H144.041ZM142.359 23.9529C142.747 23.9529 143.084 23.8617 143.368 23.6787C143.653 23.4956 143.846 23.2605 143.947 22.9717V22.1051H142.819C142.408 22.1051 142.069 22.202 141.8 22.3972C141.532 22.5901 141.4 22.8244 141.4 23.0978C141.4 23.3549 141.484 23.5632 141.655 23.7186C141.825 23.8748 142.06 23.9529 142.359 23.9529ZM149.281 24.3092H148.773V20.207H146.307V24.3092H145.799V19.7749H149.281V24.3092ZM151.124 19.7749V23.8862H153.161V19.7749H153.667V23.8862H155.679V19.7749H156.185V24.3092H150.616V19.7749H151.124ZM160.344 24.3092C160.312 24.1506 160.289 24.0131 160.273 23.8992C160.259 23.7845 160.25 23.6673 160.25 23.5469C160.093 23.7934 159.872 23.996 159.587 24.1563C159.303 24.3166 158.976 24.3963 158.607 24.3979C158.158 24.3963 157.811 24.2791 157.564 24.0432C157.319 23.8072 157.195 23.4867 157.195 23.0823C157.195 22.6755 157.374 22.3484 157.732 22.0962C158.089 21.8448 158.555 21.7187 159.126 21.7187H160.25V21.1581C160.25 20.8335 160.146 20.5804 159.94 20.3957C159.733 20.211 159.441 20.1183 159.063 20.1183C158.717 20.1183 158.437 20.2029 158.225 20.3697C158.012 20.5373 157.905 20.7488 157.905 21.0019H157.436L157.427 20.9775C157.412 20.6374 157.559 20.3372 157.869 20.0784C158.181 19.8205 158.587 19.6903 159.089 19.6903C159.59 19.6903 159.994 19.8181 160.298 20.0727C160.601 20.3266 160.753 20.6919 160.753 21.167V23.3955C160.753 23.5558 160.762 23.7104 160.781 23.8617C160.8 24.0123 160.83 24.1603 160.872 24.3092H160.344ZM158.662 23.9529C159.05 23.9529 159.387 23.8617 159.672 23.6787C159.956 23.4956 160.149 23.2605 160.25 22.9717V22.1051H159.122C158.711 22.1051 158.372 22.202 158.104 22.3972C157.836 22.5901 157.703 22.8244 157.703 23.0978C157.703 23.3549 157.788 23.5632 157.958 23.7186C158.129 23.8748 158.363 23.9529 158.662 23.9529ZM164.925 20.207H162.61V24.3092H162.102V19.7749H164.925V20.207ZM168.623 24.3092C168.591 24.1506 168.568 24.0131 168.553 23.8992C168.538 23.7845 168.53 23.6673 168.53 23.5469C168.372 23.7934 168.152 23.996 167.866 24.1563C167.582 24.3166 167.256 24.3963 166.887 24.3979C166.438 24.3963 166.091 24.2791 165.844 24.0432C165.599 23.8072 165.475 23.4867 165.475 23.0823C165.475 22.6755 165.654 22.3484 166.011 22.0962C166.369 21.8448 166.835 21.7187 167.406 21.7187H168.53V21.1581C168.53 20.8335 168.426 20.5804 168.22 20.3957C168.011 20.211 167.72 20.1183 167.343 20.1183C166.997 20.1183 166.717 20.2029 166.504 20.3697C166.291 20.5373 166.184 20.7488 166.184 21.0019H165.715L165.707 20.9775C165.691 20.6374 165.838 20.3372 166.148 20.0784C166.46 19.8205 166.866 19.6903 167.368 19.6903C167.869 19.6903 168.273 19.8181 168.577 20.0727C168.88 20.3266 169.033 20.6919 169.033 21.167V23.3955C169.033 23.5558 169.042 23.7104 169.061 23.8617C169.079 24.0123 169.109 24.1603 169.151 24.3092H168.623ZM166.942 23.9529C167.33 23.9529 167.667 23.8617 167.952 23.6787C168.235 23.4956 168.428 23.2605 168.53 22.9717V22.1051H167.402C166.991 22.1051 166.652 22.202 166.383 22.3972C166.115 22.5901 165.983 22.8244 165.983 23.0978C165.983 23.3549 166.067 23.5632 166.238 23.7186C166.408 23.8748 166.643 23.9529 166.942 23.9529ZM173.356 19.7749H173.863V24.3092H173.356V20.6089L173.331 20.6L170.889 24.3092H170.382V19.7749H170.889V23.4712L170.914 23.4753L173.356 19.7749ZM173.294 17.9752L173.302 18.0013C173.314 18.3145 173.212 18.5675 172.994 18.7636C172.777 18.9597 172.482 19.0565 172.107 19.0565C171.732 19.0565 171.436 18.9581 171.217 18.762C170.999 18.5651 170.897 18.3112 170.911 18.0013L170.92 17.9752H171.316C171.316 18.1916 171.38 18.3641 171.506 18.4959C171.633 18.6261 171.834 18.692 172.107 18.692C172.372 18.692 172.57 18.6245 172.701 18.4919C172.83 18.3568 172.897 18.1859 172.897 17.9752H173.294Z" fill="#323232"/>
</svg>
