<svg width="120" height="120" viewBox="0 0 120 120" fill="none" xmlns="http://www.w3.org/2000/svg">
<g clip-path="url(#clip0)">
<path d="M63.0098 0C32.0235 0 6.75977 25.2628 6.75977 56.25C6.75977 58.0261 6.75977 59.6057 6.95733 61.3818L10.9047 60.9867C10.7071 59.4081 10.7071 57.8286 10.7071 56.25C10.7071 27.434 34.1938 3.94737 63.0098 3.94737C91.8258 3.94737 115.312 27.434 115.312 56.25C115.312 84.4733 93.0102 107.566 64.9835 108.553L69.3259 104.21L66.563 101.447L57.2863 110.724L66.563 120L69.3259 117.237L64.5893 112.5C95.7731 111.513 120.247 85.6577 119.26 54.6714C118.273 24.2759 93.4043 0 63.0098 0Z" fill="#BC2A40"/>
<path d="M99.5229 23.6841H28.4702V59.2104H99.5229V23.6841ZM95.5755 55.263H32.4176V27.6315H95.5755V55.263Z" fill="#BC2A40"/>
<path d="M63.9966 49.3422C68.3391 49.3422 71.8913 45.79 71.8913 41.4475C71.8913 37.105 68.3391 33.5527 63.9966 33.5527C59.655 33.5527 56.1018 37.105 56.1018 41.4475C56.1018 45.79 59.655 49.3422 63.9966 49.3422ZM63.9966 37.5001C66.1678 37.5001 67.9439 39.2762 67.9439 41.4475C67.9439 43.6187 66.1678 45.3949 63.9966 45.3949C61.8253 45.3949 60.0492 43.6187 60.0492 41.4475C60.0492 39.2762 61.8253 37.5001 63.9966 37.5001Z" fill="#BC2A40"/>
<path d="M40.3124 35.5265H44.2597V31.5791H36.365V39.4738H40.3124V35.5265Z" fill="#BC2A40"/>
<path d="M44.2597 47.3683H40.3124V43.4209H36.365V51.3157H44.2597V47.3683Z" fill="#BC2A40"/>
<path d="M91.6281 43.4209H87.6808V47.3683H83.7334V51.3157H91.6281V43.4209Z" fill="#BC2A40"/>
<path d="M87.6808 39.4738H91.6281V31.5791H83.7334V35.5265H87.6808V39.4738Z" fill="#BC2A40"/>
<path d="M46.2334 39.4736H52.1545V43.421H46.2334V39.4736Z" fill="#BC2A40"/>
<path d="M75.8386 39.4736H81.7597V43.421H75.8386V39.4736Z" fill="#BC2A40"/>
<path d="M12.6807 84.8682H16.628V90.7892H12.6807V84.8682Z" fill="#BC2A40"/>
<path d="M99.5228 80.7234C99.5228 76.776 96.1681 73.4213 92.2208 73.4213C91.6281 73.4213 90.8388 73.4213 90.2471 73.6179L66.3653 80.5258C66.1678 80.5258 65.7726 80.7234 65.576 80.5258L60.0491 79.539C63.799 77.3687 65.1809 72.6311 63.2072 68.8813C61.8253 66.3159 59.2599 64.7363 56.2993 64.7363H31.4307C30.4439 64.7363 29.457 64.9339 28.4702 65.5266L24.5228 68.092V65.1315H0.838623V98.6841H24.5228V93.7499L44.0621 101.842C45.2465 102.434 46.826 102.434 48.0095 102.04L94.1945 87.6313C97.3516 86.842 99.5228 84.079 99.5228 80.7234ZM20.5755 94.7367H4.78599V69.0788H12.6807V80.9209H16.6281V69.0788H20.5755V94.7367ZM47.0226 98.289C46.6285 98.4865 46.0358 98.4865 45.6416 98.289L24.5228 89.4074V72.6311L30.4439 69.2764C30.6414 69.0788 31.0366 69.0788 31.4307 69.0788H56.1018C58.273 69.0788 60.0491 70.8549 60.0491 73.0262C60.0491 75.1974 58.273 76.9736 56.1018 76.9736H42.286V78.9472L41.8918 80.9209L64.5892 84.6707C65.3785 84.8683 66.3653 84.6707 67.1546 84.4732L91.0364 77.5653C92.8125 76.9736 94.5886 78.158 95.1813 79.9341C95.773 81.7102 94.7862 83.4863 93.0101 84.079L47.0226 98.289Z" fill="#BC2A40"/>
</g>
<defs>
<clipPath id="clip0">
<rect width="120" height="120" fill="white"/>
</clipPath>
</defs>
</svg>
