<svg width="76" height="76" viewBox="0 0 76 76" fill="none" xmlns="http://www.w3.org/2000/svg">
<g clip-path="url(#clip0)">
<path d="M5.72388 29.4143L8.74485 30.2093C12.4017 17.0126 24.6443 7.79083 38.4771 7.79083V4.61096C23.3725 4.61096 9.85777 14.7866 5.72388 29.4143Z" fill="#362F4C"/>
<path d="M7.47275 38.6361H4.29272C4.29272 54.2177 14.7865 67.8913 29.891 71.7073L30.686 68.5274C17.0125 65.0294 7.47275 52.7866 7.47275 38.6361Z" fill="#362F4C"/>
<path d="M67.4143 49.4476C62.8034 61.5314 51.1967 69.4812 38.4771 69.4812V72.661C52.4687 72.661 65.3474 63.9163 70.4353 50.5606L67.4143 49.4476Z" fill="#362F4C"/>
<path d="M50.2426 6.5188L49.1296 9.53977C61.2134 13.9916 69.3221 25.7574 69.3221 38.6361H72.502C72.502 24.3264 63.5983 11.6067 50.2426 6.5188Z" fill="#362F4C"/>
<path d="M37.3641 0.635864L34.979 2.86187L38 5.88284L35.2971 10.0167L37.8409 11.7656L41.9748 5.56489L37.3641 0.635864Z" fill="#362F4C"/>
<path d="M5.56493 34.979L0 39.272L1.90789 41.8159L5.72383 38.954L8.90386 41.021L10.6527 38.477L5.56493 34.979Z" fill="#362F4C"/>
<path d="M40.7029 67.4143L38.1591 65.6653L34.6611 70.7532L38.0001 75.3641L40.544 73.4561L38.4771 70.5941L40.7029 67.4143Z" fill="#362F4C"/>
<path d="M74.4101 35.774L70.5942 38.1591L66.1423 35.297L64.3933 38L70.5942 41.9749L76 38.477L74.4101 35.774Z" fill="#362F4C"/>
</g>
<defs>
<clipPath id="clip0">
<rect width="76" height="76" fill="white"/>
</clipPath>
</defs>
</svg>
