<svg width="318" height="308" viewBox="0 0 318 308" fill="none" xmlns="http://www.w3.org/2000/svg">
<path fill-rule="evenodd" clip-rule="evenodd" d="M55.1572 124L75.5547 144.572L86.852 155.966L66.3424 167.993C63.133 169.876 61.0816 173.08 60.565 177.014C60.1893 179.874 60.6823 182.924 61.8626 185.663C47.2653 187.993 30.5519 194.389 21.8302 204.955C16.7425 211.118 14.6973 218.079 15.7515 225.641C18.7958 247.545 11.1768 263.704 5.6135 275.503L5.61116 275.508C1.22933 284.803 -2.2321 292.146 1.75523 298.436C6.27351 305.562 18.4686 307.966 50.0829 307.966C73.1369 307.966 91.6497 302.764 105.107 292.503C117.029 283.412 124.772 270.563 128.196 254.223L128.752 254.784C131.753 257.797 136.174 259.577 140.428 259.577C141.061 259.577 141.691 259.538 142.311 259.457C146.255 258.944 149.462 256.874 151.346 253.618L163.216 232.987L170.214 240.044C170.215 240.046 170.216 240.047 170.217 240.048L195.835 265.887C201.08 271.176 206.78 273.855 212.785 273.855C212.836 273.855 212.888 273.855 212.94 273.854C213.008 273.854 213.076 273.853 213.144 273.852C225.326 273.636 235.707 262.395 244.048 253.362L244.049 253.361C245.291 252.015 246.465 250.745 247.607 249.548L247.641 249.512C247.663 249.489 247.684 249.466 247.705 249.442C258.609 237.281 283.925 209.044 267.09 158.357C274.918 147.189 281.967 135.715 288.195 124H277.447C259.3 156.744 228.605 198.46 178.309 234.879L134.938 191.137L155.642 170.271C157.468 168.432 157.456 165.461 155.617 163.635C153.777 161.81 150.807 161.821 148.981 163.661L128.331 184.473L84.9843 140.755C89.0566 135.032 93.2839 129.444 97.6561 124H85.7224C83.1916 127.285 80.7117 130.618 78.2848 133.997L68.3727 124H55.1572ZM159.504 124C161.295 132.606 165.466 140.756 172.03 147.376C177.428 152.822 184.141 156.865 191.442 159.07C191.894 159.207 192.351 159.271 192.8 159.271C194.815 159.271 196.677 157.963 197.29 155.935C198.04 153.454 196.636 150.835 194.155 150.086C188.26 148.305 183.059 145.171 178.694 140.768C173.94 135.974 170.756 130.173 169.133 124H159.504ZM242.521 124C240.657 129.829 237.416 135.335 232.804 139.987C228.126 144.706 222.339 148.191 216.071 150.065C213.588 150.807 212.177 153.421 212.919 155.904C213.661 158.387 216.274 159.798 218.758 159.056C226.526 156.734 233.687 152.426 239.467 146.596C245.905 140.103 250.176 132.256 252.27 124H242.521ZM50.0829 298.582C35.58 298.582 25.6934 298.052 18.9684 296.912C11.8225 295.702 10.0927 294.059 9.68101 293.41C8.45665 291.479 11.3261 285.393 14.1014 279.506L14.1018 279.506L14.1019 279.505C19.826 267.365 28.4756 249.021 25.0464 224.347C24.3609 219.427 25.676 215.038 29.068 210.929C36.9633 201.364 54.5776 195.453 68.7478 194.264L76.4494 202.032C71.0544 203.541 65.2279 206.229 61.5292 210.704C58.7352 214.083 57.5629 218.081 58.1404 222.271C59.455 231.704 56.2388 238.525 53.6544 244.006L53.6519 244.011C51.4756 248.625 49.4204 252.983 52.0108 257.069C54.6944 261.302 60.6649 262.661 76.5823 262.661C96.2257 262.661 109.262 254.717 114.159 240.065L120.053 246.01C115.579 280.89 92.0595 298.582 50.0829 298.582ZM67.4352 220.983C67.2179 219.407 67.6395 218.041 68.7615 216.684C71.7523 213.066 78.6027 210.672 84.3225 209.972L106.424 232.263C104.129 246.206 94.1047 253.276 76.5823 253.276C65.9153 253.276 61.8949 252.575 60.3812 252.056C60.7326 250.996 61.5224 249.322 62.1383 248.016C64.9249 242.108 69.1346 233.181 67.4352 220.983ZM143.219 248.927C143.072 249.18 142.626 249.952 141.102 250.15C139.191 250.398 136.797 249.561 135.409 248.168L114.893 227.475C114.775 227.342 114.65 227.215 114.517 227.096L74.1136 186.346C73.9776 186.191 73.8336 186.043 73.679 185.907L71.8629 184.076C70.4516 182.647 69.6133 180.191 69.8704 178.236C70.074 176.685 70.8394 176.236 71.0903 176.089L71.0905 176.089L93.6738 162.845L125.024 194.464L125.026 194.466L125.026 194.467L156.367 226.077L143.219 248.927ZM240.767 243.123C239.591 244.357 238.411 245.635 237.162 246.987L237.156 246.993C230.026 254.714 221.153 264.323 212.978 264.469C209.455 264.533 206.024 262.834 202.5 259.279L184.986 241.614C213.495 220.805 238.439 196.476 259.17 169.218C259.361 168.967 259.549 168.715 259.737 168.462C259.876 168.274 260.016 168.086 260.157 167.898C271.149 209.151 250.892 231.829 240.767 243.123Z" fill="white"/>
<path fill-rule="evenodd" clip-rule="evenodd" d="M316.968 13.915C315.252 4.88282 312.903 2.56811 303.746 0.878021C287.933 -2.0458 254.151 1.6945 210.977 21.8619C208.629 22.9585 207.614 25.7506 208.712 28.0995C209.808 30.4477 212.6 31.4617 214.948 30.3652C223.365 26.4336 231.515 23.1162 239.278 20.3612L297.675 79.1089C296.499 82.4872 295.218 85.9562 293.813 89.5195C290.11 98.8994 284.812 110.711 277.447 124H288.195C293.605 113.822 298.397 103.462 302.541 92.9636C317.2 55.7984 319.605 27.7605 316.968 13.915ZM55.1572 124H68.3727L60.8406 116.403C57.3027 112.836 55.6138 109.358 55.6784 105.772C55.8249 97.4894 65.3595 88.5323 73.0214 81.336L73.2078 81.1608C74.4815 79.9638 75.6903 78.8277 76.8585 77.6945C100.429 56.194 123.167 50.116 151.53 58.138C127.223 76.7658 104.995 98.9863 85.7223 124H97.656C125.138 89.7826 158.345 61.2647 194.784 40.7435C197.042 39.4719 197.841 36.6102 196.57 34.352C195.299 32.0931 192.438 31.2946 190.18 32.5656C180.147 38.2158 170.357 44.4583 160.853 51.2386C126.259 39.3303 98.2951 45.4102 70.4788 70.8118C70.4434 70.8441 70.4092 70.8758 70.3751 70.9093C69.1879 72.0604 67.9294 73.2432 66.5957 74.4956L66.5953 74.496C57.6476 82.901 46.5121 93.3612 46.2947 105.606C46.1855 111.771 48.8373 117.626 54.1764 123.011L55.1572 124ZM169.132 124H159.504C156.289 108.551 160.746 91.6349 172.804 79.4727C182.062 70.135 194.29 64.9927 207.234 64.9927C219.76 64.9927 231.482 69.858 240.241 78.6922C252.299 90.8528 256.283 108.177 252.27 124H242.52C246.783 110.665 243.832 95.6407 233.579 85.2992C226.595 78.2563 217.239 74.3769 207.234 74.3769C196.812 74.3769 186.95 78.5333 179.468 86.0803C169.197 96.4392 165.724 111.039 169.132 124ZM249.235 17.0649C272.47 9.93074 291.347 8.12951 302.04 10.1065C304.726 10.6025 306.243 11.003 306.547 11.2986C306.717 11.4644 307.099 12.251 307.749 15.6691C309.566 25.2092 308.483 43.9815 300.932 69.0733L249.235 17.0649Z" fill="#31304F"/>
</svg>
