<svg width="61" height="61" viewBox="0 0 61 61" fill="none" xmlns="http://www.w3.org/2000/svg">
<path d="M59.729 0H19.0624C18.3609 0 17.7915 0.569373 17.7915 1.27087V41.9375C17.7915 42.639 18.3609 43.2084 19.0624 43.2084H59.729C60.4305 43.2084 60.9999 42.639 60.9999 41.9375V1.27087C60.9999 0.569373 60.4305 0 59.729 0ZM58.4582 40.6666H20.3333V2.54163H58.4582V40.6666Z" fill="#BC2A40"/>
<path d="M31.7709 40.6666C31.0694 40.6666 30.5 41.236 30.5 41.9375V58.4584H2.54163V30.5H19.0625C19.764 30.5 20.3334 29.9306 20.3334 29.2291C20.3334 28.5276 19.764 27.9583 19.0625 27.9583H1.27087C0.569373 27.9584 0 28.5276 0 29.2291V59.7291C0 60.4306 0.569373 61 1.27087 61H31.7709C32.4724 61 33.0417 60.4306 33.0417 59.7291V41.9375C33.0416 41.236 32.4724 40.6666 31.7709 40.6666Z" fill="#BC2A40"/>
<path d="M52.5896 7.72415C52.1169 7.52339 51.5704 7.63265 51.2044 7.99865L25.7877 33.4153C25.2921 33.9109 25.2921 34.7166 25.7877 35.2123C26.0369 35.4588 26.3621 35.5834 26.6875 35.5834C27.0129 35.5834 27.3381 35.4589 27.5872 35.2098L50.8334 11.9636V19.0625C50.8334 19.764 51.4027 20.3334 52.1042 20.3334C52.8057 20.3334 53.3751 19.764 53.3751 19.0625V8.89589C53.375 8.3824 53.0649 7.91727 52.5896 7.72415Z" fill="#BC2A40"/>
<path d="M52.1042 7.625H41.9376C41.2361 7.625 40.6667 8.19437 40.6667 8.89587C40.6667 9.59737 41.2361 10.1666 41.9376 10.1666H52.1042C52.8057 10.1666 53.3751 9.59725 53.3751 8.89575C53.3751 8.19425 52.8057 7.625 52.1042 7.625Z" fill="#BC2A40"/>
<path d="M26.6875 27.9584H24.1459C23.4444 27.9584 22.875 28.5277 22.875 29.2292C22.875 29.9307 23.4444 30.5 24.1459 30.5H26.6875C27.389 30.5 27.9584 29.9306 27.9584 29.2291C27.9584 28.5276 27.389 27.9584 26.6875 27.9584Z" fill="#BC2A40"/>
<path d="M31.7709 33.0416C31.0694 33.0416 30.5 33.611 30.5 34.3125V36.8541C30.5 37.5556 31.0694 38.125 31.7709 38.125C32.4724 38.125 33.0417 37.5556 33.0417 36.8541V34.3125C33.0416 33.611 32.4724 33.0416 31.7709 33.0416Z" fill="#BC2A40"/>
</svg>
