<svg width="61" height="61" viewBox="0 0 61 61" fill="none" xmlns="http://www.w3.org/2000/svg">
<path d="M37.6167 35.5833H36.4983C36.0777 35.584 35.7014 35.3216 35.5569 34.9265C35.4329 34.6012 35.2997 34.2829 35.1563 33.9678C34.9782 33.5845 35.0595 33.1307 35.3597 32.8332L36.1567 32.0351C37.34 30.8414 37.3378 28.9163 36.1516 27.7254L33.2786 24.8523C32.0861 23.6669 30.1603 23.6669 28.9679 24.8523L28.1708 25.6484C27.8727 25.9474 27.4196 26.0286 27.0362 25.8517C26.721 25.7084 26.4028 25.5752 26.0765 25.4451C25.6793 25.3016 25.4151 24.9239 25.4167 24.5016V23.3833C25.4167 21.6988 24.0512 20.3333 22.3667 20.3333H18.3C16.6155 20.3333 15.25 21.6988 15.25 23.3833V24.5016C15.2508 24.9222 14.9883 25.2985 14.5932 25.443C14.2679 25.5671 13.9497 25.7002 13.6345 25.8436C13.2511 26.0209 12.7979 25.9397 12.4999 25.6403L11.7018 24.8432C10.5095 23.6585 8.58448 23.6585 7.39218 24.8432L4.51908 27.7254C3.33365 28.9179 3.33365 30.8437 4.51908 32.0361L5.31513 32.8332C5.6153 33.1307 5.69664 33.5845 5.51847 33.9678C5.37512 34.2829 5.24193 34.6012 5.11688 34.9275C4.97137 35.3249 4.59152 35.5876 4.16833 35.5833H3.05C1.36551 35.5833 0 36.9488 0 38.6333V42.6999C0 44.3844 1.36551 45.7499 3.05 45.7499H4.16833C4.58898 45.7492 4.96527 46.0116 5.10977 46.4067C5.2338 46.732 5.36698 47.0502 5.51033 47.3654C5.6885 47.7487 5.60717 48.2025 5.307 48.5L4.50993 49.2981C3.32526 50.4904 3.32526 52.4154 4.50993 53.6077L7.38303 56.4808C8.57546 57.6663 10.5013 57.6663 11.6937 56.4808L12.4908 55.6848C12.7889 55.3858 13.242 55.3045 13.6254 55.4814C13.9405 55.6248 14.2587 55.758 14.5851 55.8881C14.9843 56.0299 15.2508 56.408 15.25 56.8316V57.9499C15.25 59.6344 16.6155 60.9999 18.3 60.9999H22.3667C24.0512 60.9999 25.4167 59.6344 25.4167 57.9499V56.8316C25.4159 56.4109 25.6783 56.0346 26.0734 55.8902C26.3988 55.7661 26.717 55.6329 27.0322 55.4896C27.4156 55.3123 27.8687 55.3935 28.1667 55.6929L28.9648 56.49C30.1588 57.6727 32.0833 57.6705 33.2745 56.4849L36.1476 53.6118C37.333 52.4194 37.333 50.4936 36.1476 49.3011L35.3515 48.5041C35.0514 48.2066 34.97 47.7528 35.1482 47.3695C35.2915 47.0543 35.4247 46.7361 35.5549 46.4097C35.6983 46.0126 36.076 45.7484 36.4983 45.7499H37.6167C39.3012 45.7499 40.6667 44.3844 40.6667 42.6999V38.6333C40.6667 36.9488 39.3012 35.5833 37.6167 35.5833ZM38.6333 42.6999C38.6333 43.2614 38.1781 43.7166 37.6167 43.7166H36.4983C35.2345 43.7213 34.1034 44.5025 33.6517 45.6828C33.5439 45.9675 33.4274 46.2477 33.3019 46.5236C32.7792 47.6775 33.0217 49.0343 33.9119 49.9355L34.707 50.7316C35.1042 51.1283 35.1046 51.7721 34.7077 52.1694C34.7075 52.1697 34.7072 52.1699 34.707 52.1702L31.8339 55.0433C31.4369 55.4401 30.7933 55.4401 30.3963 55.0433L29.5992 54.2472C28.6983 53.3562 27.3411 53.1136 26.1873 53.6372C25.9118 53.7623 25.6312 53.8792 25.3486 53.987C24.1691 54.4386 23.3884 55.5686 23.3833 56.8316V57.9499C23.3833 58.5114 22.9281 58.9666 22.3667 58.9666H18.3C17.7385 58.9666 17.2833 58.5114 17.2833 57.9499V56.8316C17.2786 55.5677 16.4974 54.4367 15.3171 53.9849C15.0324 53.8771 14.7522 53.7606 14.4763 53.6352C13.3224 53.1127 11.9658 53.3553 11.0644 54.2452L10.2683 55.0402C9.87158 55.4375 9.22777 55.4379 8.83051 55.041C8.83026 55.0407 8.83 55.0405 8.82975 55.0402L5.95665 52.1702C5.55977 51.7732 5.55977 51.1296 5.95665 50.7326L6.7527 49.9355C7.64292 49.0343 7.88539 47.6775 7.3627 46.5236C7.23765 46.2481 7.12073 45.9675 7.01297 45.6849C6.56233 44.5041 5.43205 43.7222 4.16833 43.7166H3.05C2.48855 43.7166 2.03333 43.2614 2.03333 42.6999V38.6333C2.03333 38.0718 2.48855 37.6166 3.05 37.6166H4.16833C5.43218 37.6119 6.56322 36.8307 7.015 35.6504C7.12277 35.3657 7.2393 35.0855 7.36473 34.8096C7.88743 33.6557 7.64482 32.2989 6.75473 31.3976L5.95563 30.6016C5.55837 30.2048 5.55799 29.561 5.95487 29.1638C5.95513 29.1635 5.95538 29.1633 5.95563 29.163L8.82873 26.2899C9.22574 25.893 9.86929 25.893 10.2663 26.2899L11.0634 27.086C11.9643 27.9769 13.3215 28.2195 14.4753 27.696C14.7508 27.5709 15.0314 27.454 15.314 27.3462C16.4952 26.896 17.2776 25.7656 17.2833 24.5016V23.3833C17.2833 22.8218 17.7385 22.3666 18.3 22.3666H22.3667C22.9281 22.3666 23.3833 22.8218 23.3833 23.3833V24.5016C23.388 25.7654 24.1692 26.8965 25.3496 27.3483C25.6342 27.456 25.9145 27.5726 26.1903 27.698C27.3441 28.2216 28.7014 27.979 29.6023 27.088L30.3983 26.293C30.7969 25.8987 31.4384 25.8987 31.8369 26.293L34.71 29.1661C35.1069 29.5631 35.1069 30.2066 34.71 30.6036L33.914 31.4007C33.0239 32.302 32.7813 33.6587 33.304 34.8126C33.429 35.0881 33.5459 35.3687 33.6537 35.6514C34.1054 36.8308 35.2354 37.6115 36.4983 37.6166H37.6167C38.1781 37.6166 38.6333 38.0718 38.6333 38.6333V42.6999V42.6999Z" fill="#BC2A40"/>
<path d="M29.4629 40.2599C29.4528 40.0159 29.4355 39.773 29.406 39.531C29.3735 39.2707 29.3348 39.0125 29.2809 38.7593C29.2454 38.5936 29.1986 38.4299 29.1539 38.2652C29.0969 38.0558 29.0329 37.8494 28.9617 37.6461C28.9119 37.5048 28.86 37.3645 28.8072 37.2252C28.6763 36.8996 28.5266 36.5818 28.3588 36.2736C28.3456 36.2502 28.3375 36.2248 28.3243 36.2014C28.0598 35.7307 27.7535 35.2845 27.4093 34.8686C27.3798 34.832 27.3462 34.7974 27.3157 34.7618C27.1754 34.5961 27.0311 34.4355 26.8796 34.2819C26.8003 34.1996 26.7169 34.1223 26.6335 34.043C26.5319 33.9485 26.4302 33.8549 26.3285 33.7655C26.2051 33.6583 26.0795 33.5546 25.9514 33.4544L25.7846 33.3303C24.2115 32.152 22.2987 31.5156 20.3333 31.5166C20.2316 31.5166 20.1299 31.5319 20.0283 31.5359C19.8117 31.542 19.5941 31.5542 19.3756 31.5766C19.2607 31.5888 19.1448 31.602 19.0299 31.6183C18.6985 31.6619 18.3696 31.7234 18.0447 31.8023C13.1494 33.0673 10.2064 38.0614 11.4713 42.9568C12.305 46.1827 14.8253 48.701 18.0519 49.532C18.0681 49.532 18.0854 49.537 18.1027 49.5411C18.4538 49.6287 18.8095 49.6967 19.1682 49.7444C19.405 49.7739 19.6419 49.78 19.8798 49.7912C20.0384 49.7993 20.1848 49.8227 20.3505 49.8227C20.6403 49.8227 20.9412 49.8034 21.2483 49.7729C21.2808 49.7729 21.3133 49.7637 21.3499 49.7597C21.597 49.7322 21.8471 49.6956 22.1023 49.6448C22.2039 49.6255 22.2985 49.6001 22.3961 49.5777C22.575 49.536 22.7529 49.4923 22.9359 49.4384C23.0783 49.3957 23.2165 49.3459 23.3558 49.2971C23.4951 49.2483 23.6395 49.1954 23.7838 49.1405C23.9282 49.0856 24.0492 49.0226 24.1803 48.9616C24.3511 48.8833 24.5209 48.806 24.6887 48.7145H24.6948C25.6436 48.2066 26.5199 47.5737 27.3005 46.8327C27.5113 46.636 27.6947 46.4115 27.8454 46.1658C28.6389 44.8937 29.1602 43.471 29.3765 41.9873C29.405 41.791 29.4304 41.5948 29.4456 41.3945C29.4599 41.2105 29.47 41.0275 29.4741 40.8445C29.4741 40.7866 29.4822 40.7317 29.4822 40.6737C29.4833 40.5304 29.469 40.3982 29.4629 40.2599ZM27.4367 40.9259C27.4367 41.0102 27.4296 41.0946 27.4245 41.178C27.4062 41.424 27.3747 41.6701 27.333 41.9171C26.953 44.0309 25.6406 45.8609 23.7604 46.8988C23.6344 46.9649 23.5103 47.0269 23.3863 47.0838L23.3019 47.1245C22.7112 47.3926 22.0878 47.5813 21.4475 47.6857C21.4028 47.6928 21.357 47.7009 21.3113 47.707C21.1842 47.7253 21.0592 47.7406 20.9351 47.7518C20.7714 47.766 20.6067 47.7741 20.439 47.7772C20.3678 47.7772 20.2977 47.7772 20.2265 47.7772C19.9859 47.7744 19.7457 47.7595 19.5067 47.7324L19.3847 47.7182C19.1051 47.6816 18.8278 47.6294 18.5541 47.5616C14.7464 46.587 12.4498 42.7102 13.4242 38.9026C14.0682 36.3866 16.0316 34.4211 18.547 33.7746V33.7736C19.131 33.6263 19.7309 33.5511 20.3333 33.5499C20.6239 33.5516 20.9143 33.5713 21.2025 33.6089C21.2798 33.6181 21.356 33.6323 21.4323 33.6435C21.6519 33.678 21.8694 33.7218 22.084 33.7767C22.1541 33.795 22.2243 33.8112 22.2934 33.8305C22.834 33.9866 23.3544 34.2057 23.8438 34.4832C23.9221 34.529 23.9983 34.5768 24.0756 34.6246C24.2362 34.7262 24.3918 34.8279 24.5453 34.9438C24.6277 35.0038 24.711 35.0627 24.7903 35.1268C24.9898 35.2861 25.1808 35.4558 25.3627 35.6351C25.4349 35.7083 25.501 35.7886 25.5711 35.8649C25.688 35.992 25.8019 36.1221 25.9107 36.2594C25.9859 36.3539 26.0581 36.4515 26.1293 36.5501C26.2309 36.6965 26.3326 36.849 26.4241 37.0036C26.4749 37.0879 26.5258 37.1703 26.5776 37.2567C26.7088 37.498 26.8256 37.7469 26.9274 38.0019C26.968 38.1036 27.0026 38.2053 27.0392 38.3069C27.1053 38.494 27.1622 38.6831 27.212 38.8742C27.2374 38.9759 27.2659 39.0664 27.2873 39.165C27.3466 39.4397 27.3897 39.7178 27.4164 39.9976C27.4225 40.0719 27.4225 40.1471 27.4276 40.2213C27.4418 40.4551 27.4459 40.69 27.4367 40.9259Z" fill="#BC2A40"/>
<path d="M57.9499 21.35H54.7525C54.3261 21.3543 53.9447 21.0858 53.8049 20.6831C53.4897 19.7387 53.1081 18.8176 52.6632 17.9269C52.4744 17.5422 52.5531 17.0797 52.8584 16.7791L55.1256 14.5088C56.3156 13.318 56.3156 11.3881 55.1256 10.1972L50.8027 5.88142C49.6118 4.69141 47.6819 4.69141 46.491 5.88142L44.2249 8.14655C43.9246 8.4518 43.4628 8.53085 43.0781 8.34277C42.1872 7.89556 41.2659 7.51202 40.3209 7.19495C39.9165 7.05656 39.6461 6.6748 39.6499 6.24742V3.05C39.6499 1.36551 38.2844 0 36.5999 0H30.4999C28.8154 0 27.4499 1.36551 27.4499 3.05V6.24742C27.4542 6.67378 27.1858 7.05516 26.783 7.19495C25.8385 7.5119 24.9174 7.89518 24.0268 8.34175C23.6421 8.53123 23.1794 8.45257 22.879 8.14655L20.6088 5.87938C19.4165 4.69281 17.4894 4.69281 16.2971 5.87938L11.9823 10.1941C10.7917 11.3851 10.7917 13.3158 11.9823 14.5068L15.316 17.8466C15.7192 18.2372 16.3629 18.2271 16.7536 17.8237C17.1347 17.4302 17.1356 16.8055 16.7556 16.411L13.4199 13.0723C13.023 12.6753 13.023 12.0317 13.4199 11.6347L17.7346 7.32C18.1316 6.92312 18.7752 6.92312 19.1722 7.32L21.4434 9.58717C22.3624 10.5116 23.7705 10.7426 24.9367 10.1606C25.742 9.75733 26.5747 9.41116 27.4286 9.12458C28.661 8.70737 29.4886 7.54862 29.4832 6.24742V3.05C29.4832 2.48855 29.9384 2.03333 30.4999 2.03333H36.5999C37.1614 2.03333 37.6166 2.48855 37.6166 3.05V6.24742C37.6114 7.54837 38.4389 8.70673 39.6713 9.12357C40.5255 9.41027 41.3585 9.7567 42.1641 10.1606C43.3306 10.7396 44.7368 10.5083 45.6564 9.58615L47.9276 7.32C48.3246 6.92312 48.9682 6.92312 49.3652 7.32L53.6799 11.6357C54.0761 12.0326 54.0761 12.6754 53.6799 13.0723L51.4127 15.3435C50.4892 16.263 50.2583 17.6704 50.8393 18.8368C51.2426 19.6421 51.5887 20.4748 51.8753 21.3286C52.2923 22.5614 53.4511 23.3889 54.7525 23.3833H57.9499C58.5114 23.3833 58.9666 23.8385 58.9666 24.4V30.5C58.9666 31.0615 58.5114 31.5167 57.9499 31.5167H54.7525C53.4515 31.5115 52.2932 32.339 51.8763 33.5713C51.5898 34.4256 51.2432 35.2586 50.8393 36.0642C50.2593 37.2306 50.4907 38.6373 51.4137 39.5565L53.6809 41.8277C54.0778 42.2247 54.0778 42.8683 53.6809 43.2653L49.3641 47.58C48.9673 47.9762 48.3245 47.9762 47.9276 47.58L44.5868 44.2463C44.1962 43.843 43.5525 43.8328 43.1493 44.2235C42.7459 44.6141 42.7357 45.2578 43.1264 45.661C43.1345 45.6694 43.1429 45.6778 43.1513 45.6859L46.491 49.0196C47.6819 50.2096 49.6118 50.2096 50.8027 49.0196L55.1175 44.7059C56.3081 43.5149 56.3081 41.5842 55.1175 40.3932L52.8533 38.125C52.5483 37.8246 52.4694 37.3629 52.6571 36.9782C53.1043 36.0873 53.4879 35.166 53.8049 34.221C53.9433 33.8166 54.3251 33.5462 54.7525 33.55H57.9499C59.6344 33.55 60.9999 32.1845 60.9999 30.5V24.4C60.9999 22.7155 59.6344 21.35 57.9499 21.35Z" fill="#BC2A40"/>
<path d="M42.8952 18.1047C37.7308 12.9511 29.3692 12.9511 24.2048 18.1047C23.8148 18.5086 23.8259 19.1523 24.2298 19.5423C24.6238 19.9228 25.2484 19.9228 25.6423 19.5423C29.9803 15.1457 37.061 15.0983 41.4576 19.4363C45.8542 23.7743 45.9016 30.855 41.5636 35.2516C41.5285 35.2871 41.4932 35.3225 41.4576 35.3575C41.0538 35.7477 41.0426 36.3912 41.4327 36.7951C41.8229 37.199 42.4664 37.2102 42.8703 36.82C42.8787 36.8119 42.8871 36.8035 42.8952 36.7951C48.0488 31.6307 48.0488 23.2691 42.8952 18.1047Z" fill="#BC2A40"/>
</svg>
