<svg width="55" height="55" viewBox="0 0 55 55" fill="none" xmlns="http://www.w3.org/2000/svg">
<path d="M52.7029 5.47852H45.4293C44.9845 5.47852 44.6236 5.83939 44.6236 6.28418C44.6236 6.72897 44.9845 7.08984 45.4293 7.08984H52.7029C53.081 7.08984 53.3886 7.39742 53.3886 7.7755V34.2886H1.61133V7.7755C1.61133 7.39742 1.9189 7.08984 2.29698 7.08984H42.2436C42.6888 7.08984 43.0492 6.72939 43.0492 6.28418C43.0492 5.83939 42.6888 5.47852 42.2436 5.47852H2.29698C1.03058 5.47852 0 6.50909 0 7.7755V38.6568C0 39.9236 1.03058 40.9538 2.29698 40.9538H31.5438L32.4497 47.8455H22.5506L23.1204 43.5122C23.1787 43.0711 22.8678 42.6662 22.4268 42.6083C21.9862 42.55 21.5808 42.8609 21.5229 43.3019L20.9254 47.8455H17.1547C16.7099 47.8455 16.3491 48.206 16.3491 48.6512C16.3491 49.096 16.7099 49.4569 17.1547 49.4569H37.8456C38.2904 49.4569 38.6512 49.096 38.6512 48.6512C38.6512 48.206 38.2904 47.8455 37.8456 47.8455H34.0749L33.169 40.9538H52.7033C53.9697 40.9538 54.9999 39.9232 54.9999 38.6568V7.7755C54.9999 6.50909 53.9693 5.47852 52.7029 5.47852V5.47852ZM52.7029 39.3424H2.29698C1.9189 39.3424 1.61133 39.0348 1.61133 38.6568V35.9003H53.3886V38.6568C53.3886 39.0348 53.081 39.3424 52.7029 39.3424Z" fill="#CE1525"/>
<path d="M10.2219 21.817C9.77671 21.817 9.41626 22.1779 9.41626 22.6227V30.2748C9.41626 30.7196 9.77671 31.0805 10.2219 31.0805H15.1583C15.6035 31.0805 15.9639 30.7196 15.9639 30.2748V22.6227C15.9639 22.1779 15.6035 21.817 15.1583 21.817H10.2219ZM14.3526 29.4691H11.0276V23.4283H14.3526V29.4691Z" fill="#CE1525"/>
<path d="M39.0361 26.568V30.2149C39.0361 30.6597 39.3966 31.0205 39.8418 31.0205H44.7782C45.2234 31.0205 45.5838 30.6597 45.5838 30.2149V26.568C45.5838 26.1228 45.2234 25.7623 44.7782 25.7623H39.8418C39.3966 25.7623 39.0361 26.1228 39.0361 26.568ZM40.6475 27.3737H43.9725V29.4092H40.6475V27.3737Z" fill="#CE1525"/>
<path d="M29.968 18.5564C29.5232 18.5564 29.1624 18.9173 29.1624 19.3621V30.275C29.1624 30.7198 29.5232 31.0807 29.968 31.0807H34.9048C35.3496 31.0807 35.7105 30.7198 35.7105 30.275V19.3621C35.7105 18.9173 35.3496 18.5564 34.9048 18.5564H29.968ZM34.0991 29.4694H30.7737V20.1677H34.0991V29.4694Z" fill="#CE1525"/>
<path d="M20.095 14.8077C19.6502 14.8077 19.2893 15.1682 19.2893 15.6134V30.2748C19.2893 30.7196 19.6502 31.0805 20.095 31.0805H25.0317C25.4765 31.0805 25.8374 30.7196 25.8374 30.2748V15.6134C25.8374 15.1682 25.4765 14.8077 25.0317 14.8077H20.095ZM24.2261 29.4691H20.9006V16.4191H24.2261V29.4691Z" fill="#CE1525"/>
</svg>
