<svg width="530" height="302" viewBox="0 0 530 302" fill="none" xmlns="http://www.w3.org/2000/svg">
<path d="M93.1289 220H89.7422V206.945L85.6992 208.199V205.445L92.7656 202.914H93.1289V220ZM110.168 212.945C110.168 215.305 109.68 217.109 108.703 218.359C107.727 219.609 106.297 220.234 104.414 220.234C102.555 220.234 101.133 219.621 100.148 218.395C99.1641 217.168 98.6602 215.41 98.6367 213.121V209.98C98.6367 207.598 99.1289 205.789 100.113 204.555C101.105 203.32 102.531 202.703 104.391 202.703C106.25 202.703 107.672 203.316 108.656 204.543C109.641 205.762 110.145 207.516 110.168 209.805V212.945ZM106.781 209.5C106.781 208.086 106.586 207.059 106.195 206.418C105.812 205.77 105.211 205.445 104.391 205.445C103.594 205.445 103.004 205.754 102.621 206.371C102.246 206.98 102.047 207.938 102.023 209.242V213.391C102.023 214.781 102.211 215.816 102.586 216.496C102.969 217.168 103.578 217.504 104.414 217.504C105.242 217.504 105.84 217.18 106.207 216.531C106.574 215.883 106.766 214.891 106.781 213.555V209.5ZM129.609 207.32V220H126.223V210.062H123.234L123.023 213.977C122.891 216.062 122.48 217.582 121.793 218.535C121.105 219.488 120.082 219.977 118.723 220H117.574L117.539 217.246L117.961 217.211C118.57 217.164 119.016 216.805 119.297 216.133C119.578 215.461 119.754 214.316 119.824 212.699L120.059 207.32H129.609ZM138.059 220.234C136.199 220.234 134.684 219.664 133.512 218.523C132.348 217.383 131.766 215.863 131.766 213.965V213.637C131.766 212.363 132.012 211.227 132.504 210.227C132.996 209.219 133.691 208.445 134.59 207.906C135.496 207.359 136.527 207.086 137.684 207.086C139.418 207.086 140.781 207.633 141.773 208.727C142.773 209.82 143.273 211.371 143.273 213.379V214.762H135.199C135.309 215.59 135.637 216.254 136.184 216.754C136.738 217.254 137.438 217.504 138.281 217.504C139.586 217.504 140.605 217.031 141.34 216.086L143.004 217.949C142.496 218.668 141.809 219.23 140.941 219.637C140.074 220.035 139.113 220.234 138.059 220.234ZM137.672 209.828C137 209.828 136.453 210.055 136.031 210.508C135.617 210.961 135.352 211.609 135.234 212.453H139.945V212.184C139.93 211.434 139.727 210.855 139.336 210.449C138.945 210.035 138.391 209.828 137.672 209.828ZM155.59 210.039H151.523V220H148.125V210.039H144.129V207.32H155.59V210.039ZM67.3516 238H66.0869V234.842H62.6895V238H61.418V230.604H62.6895V233.81H66.0869V230.604H67.3516V238ZM73.9551 238C73.8822 237.854 73.8229 237.594 73.7773 237.221C73.1895 237.831 72.4876 238.137 71.6719 238.137C70.9427 238.137 70.3434 237.932 69.874 237.521C69.4092 237.107 69.1768 236.583 69.1768 235.949C69.1768 235.179 69.4684 234.582 70.0518 234.158C70.6396 233.73 71.4645 233.516 72.5264 233.516H73.7568V232.935C73.7568 232.493 73.6247 232.142 73.3604 231.882C73.096 231.618 72.7064 231.485 72.1914 231.485C71.7402 231.485 71.362 231.599 71.0566 231.827C70.7513 232.055 70.5986 232.331 70.5986 232.654H69.3271C69.3271 232.285 69.457 231.93 69.7168 231.588C69.9811 231.242 70.3366 230.968 70.7832 230.768C71.2344 230.567 71.7288 230.467 72.2666 230.467C73.1188 230.467 73.7865 230.681 74.2695 231.109C74.7526 231.533 75.0033 232.119 75.0215 232.866V236.271C75.0215 236.95 75.1081 237.49 75.2812 237.891V238H73.9551ZM71.8564 237.036C72.2529 237.036 72.6289 236.934 72.9844 236.729C73.3398 236.523 73.5973 236.257 73.7568 235.929V234.411H72.7656C71.2161 234.411 70.4414 234.865 70.4414 235.771C70.4414 236.168 70.5736 236.478 70.8379 236.701C71.1022 236.924 71.4417 237.036 71.8564 237.036ZM86.7246 234.384C86.7246 235.509 86.4671 236.416 85.9521 237.104C85.4372 237.793 84.7399 238.137 83.8604 238.137C82.9626 238.137 82.2562 237.852 81.7412 237.282V240.844H80.4766V230.604H81.6318L81.6934 231.424C82.2083 230.786 82.9238 230.467 83.8398 230.467C84.7285 230.467 85.4303 230.802 85.9453 231.472C86.4648 232.142 86.7246 233.074 86.7246 234.268V234.384ZM85.46 234.24C85.46 233.406 85.2822 232.748 84.9268 232.265C84.5713 231.782 84.0837 231.54 83.4639 231.54C82.6982 231.54 82.124 231.88 81.7412 232.559V236.093C82.1195 236.767 82.6982 237.104 83.4775 237.104C84.0837 237.104 84.5645 236.865 84.9199 236.387C85.2799 235.904 85.46 235.188 85.46 234.24ZM89.7188 233.153H91.6396C92.4782 233.162 93.1413 233.381 93.6289 233.81C94.1165 234.238 94.3604 234.819 94.3604 235.553C94.3604 236.291 94.1097 236.883 93.6084 237.33C93.1071 237.777 92.4326 238 91.585 238H88.4541V230.604H89.7188V233.153ZM96.999 238H95.7275V230.604H96.999V238ZM89.7188 234.186V236.968H91.5986C92.0726 236.968 92.4395 236.847 92.6992 236.605C92.959 236.359 93.0889 236.024 93.0889 235.601C93.0889 235.19 92.9613 234.855 92.7061 234.596C92.4554 234.331 92.1022 234.195 91.6465 234.186H89.7188ZM105.25 238H103.985V234.842H100.588V238H99.3164V230.604H100.588V233.81H103.985V230.604H105.25V238ZM109.591 234.849H108.668V238H107.396V230.604H108.668V233.734H109.495L111.983 230.604H113.515L110.589 234.158L113.761 238H112.154L109.591 234.849ZM117.808 238.137C116.805 238.137 115.989 237.809 115.36 237.152C114.731 236.492 114.417 235.61 114.417 234.507V234.274C114.417 233.541 114.556 232.887 114.834 232.312C115.117 231.734 115.508 231.283 116.01 230.959C116.516 230.631 117.062 230.467 117.65 230.467C118.612 230.467 119.359 230.784 119.893 231.417C120.426 232.05 120.692 232.957 120.692 234.138V234.664H115.682C115.7 235.393 115.912 235.983 116.317 236.435C116.728 236.881 117.247 237.104 117.876 237.104C118.323 237.104 118.701 237.013 119.011 236.831C119.321 236.649 119.592 236.407 119.824 236.106L120.597 236.708C119.977 237.66 119.047 238.137 117.808 238.137ZM117.65 231.506C117.14 231.506 116.712 231.693 116.365 232.066C116.019 232.436 115.805 232.955 115.723 233.625H119.428V233.529C119.391 232.887 119.218 232.39 118.908 232.039C118.598 231.684 118.179 231.506 117.65 231.506ZM133.154 234.842C133.031 235.895 132.642 236.708 131.985 237.282C131.334 237.852 130.465 238.137 129.381 238.137C128.205 238.137 127.262 237.715 126.551 236.872C125.844 236.029 125.491 234.901 125.491 233.488V232.531C125.491 231.606 125.655 230.793 125.983 230.091C126.316 229.389 126.785 228.851 127.392 228.478C127.998 228.099 128.7 227.91 129.497 227.91C130.554 227.91 131.402 228.206 132.04 228.799C132.678 229.387 133.049 230.202 133.154 231.246H131.835C131.721 230.453 131.473 229.879 131.09 229.523C130.712 229.168 130.181 228.99 129.497 228.99C128.659 228.99 128 229.3 127.521 229.92C127.048 230.54 126.811 231.422 126.811 232.565V233.529C126.811 234.609 127.036 235.468 127.487 236.106C127.938 236.744 128.57 237.063 129.381 237.063C130.11 237.063 130.668 236.899 131.056 236.571C131.448 236.239 131.707 235.662 131.835 234.842H133.154ZM136.647 228.047L139.901 236.168L143.155 228.047H144.857V238H143.545V234.124L143.668 229.94L140.4 238H139.396L136.135 229.961L136.265 234.124V238H134.952V228.047H136.647ZM153.45 228.047H154.763V238H153.45V230.33L148.549 238H147.229V228.047H148.549V235.717L153.45 228.047Z" fill="#323232"/>
<path d="M283.656 207.785H276.039V211.09H278.781C280.789 211.09 282.379 211.578 283.551 212.555C284.73 213.523 285.32 214.832 285.32 216.48C285.32 218.137 284.734 219.469 283.562 220.477C282.398 221.477 280.848 221.984 278.91 222H272.488V204.938H283.656V207.785ZM276.039 213.926V219.176H278.84C279.738 219.176 280.453 218.93 280.984 218.438C281.523 217.945 281.793 217.285 281.793 216.457C281.793 215.684 281.535 215.074 281.02 214.629C280.512 214.176 279.812 213.941 278.922 213.926H276.039ZM286.82 215.543C286.82 214.285 287.062 213.164 287.547 212.18C288.031 211.195 288.727 210.434 289.633 209.895C290.547 209.355 291.605 209.086 292.809 209.086C294.52 209.086 295.914 209.609 296.992 210.656C298.078 211.703 298.684 213.125 298.809 214.922L298.832 215.789C298.832 217.734 298.289 219.297 297.203 220.477C296.117 221.648 294.66 222.234 292.832 222.234C291.004 222.234 289.543 221.648 288.449 220.477C287.363 219.305 286.82 217.711 286.82 215.695V215.543ZM290.207 215.789C290.207 216.992 290.434 217.914 290.887 218.555C291.34 219.188 291.988 219.504 292.832 219.504C293.652 219.504 294.293 219.191 294.754 218.566C295.215 217.934 295.445 216.926 295.445 215.543C295.445 214.363 295.215 213.449 294.754 212.801C294.293 212.152 293.645 211.828 292.809 211.828C291.98 211.828 291.34 212.152 290.887 212.801C290.434 213.441 290.207 214.438 290.207 215.789ZM311.758 209.32V222H308.371V212.062H305.383L305.172 215.977C305.039 218.062 304.629 219.582 303.941 220.535C303.254 221.488 302.23 221.977 300.871 222H299.723L299.688 219.246L300.109 219.211C300.719 219.164 301.164 218.805 301.445 218.133C301.727 217.461 301.902 216.316 301.973 214.699L302.207 209.32H311.758ZM320.207 222.234C318.348 222.234 316.832 221.664 315.66 220.523C314.496 219.383 313.914 217.863 313.914 215.965V215.637C313.914 214.363 314.16 213.227 314.652 212.227C315.145 211.219 315.84 210.445 316.738 209.906C317.645 209.359 318.676 209.086 319.832 209.086C321.566 209.086 322.93 209.633 323.922 210.727C324.922 211.82 325.422 213.371 325.422 215.379V216.762H317.348C317.457 217.59 317.785 218.254 318.332 218.754C318.887 219.254 319.586 219.504 320.43 219.504C321.734 219.504 322.754 219.031 323.488 218.086L325.152 219.949C324.645 220.668 323.957 221.23 323.09 221.637C322.223 222.035 321.262 222.234 320.207 222.234ZM319.82 211.828C319.148 211.828 318.602 212.055 318.18 212.508C317.766 212.961 317.5 213.609 317.383 214.453H322.094V214.184C322.078 213.434 321.875 212.855 321.484 212.449C321.094 212.035 320.539 211.828 319.82 211.828ZM333.191 222.234C331.332 222.234 329.816 221.664 328.645 220.523C327.48 219.383 326.898 217.863 326.898 215.965V215.637C326.898 214.363 327.145 213.227 327.637 212.227C328.129 211.219 328.824 210.445 329.723 209.906C330.629 209.359 331.66 209.086 332.816 209.086C334.551 209.086 335.914 209.633 336.906 210.727C337.906 211.82 338.406 213.371 338.406 215.379V216.762H330.332C330.441 217.59 330.77 218.254 331.316 218.754C331.871 219.254 332.57 219.504 333.414 219.504C334.719 219.504 335.738 219.031 336.473 218.086L338.137 219.949C337.629 220.668 336.941 221.23 336.074 221.637C335.207 222.035 334.246 222.234 333.191 222.234ZM332.805 211.828C332.133 211.828 331.586 212.055 331.164 212.508C330.75 212.961 330.484 213.609 330.367 214.453H335.078V214.184C335.062 213.434 334.859 212.855 334.469 212.449C334.078 212.035 333.523 211.828 332.805 211.828ZM354.402 222H351.016V208.945L346.973 210.199V207.445L354.039 204.914H354.402V222ZM371.441 214.945C371.441 217.305 370.953 219.109 369.977 220.359C369 221.609 367.57 222.234 365.688 222.234C363.828 222.234 362.406 221.621 361.422 220.395C360.438 219.168 359.934 217.41 359.91 215.121V211.98C359.91 209.598 360.402 207.789 361.387 206.555C362.379 205.32 363.805 204.703 365.664 204.703C367.523 204.703 368.945 205.316 369.93 206.543C370.914 207.762 371.418 209.516 371.441 211.805V214.945ZM368.055 211.5C368.055 210.086 367.859 209.059 367.469 208.418C367.086 207.77 366.484 207.445 365.664 207.445C364.867 207.445 364.277 207.754 363.895 208.371C363.52 208.98 363.32 209.938 363.297 211.242V215.391C363.297 216.781 363.484 217.816 363.859 218.496C364.242 219.168 364.852 219.504 365.688 219.504C366.516 219.504 367.113 219.18 367.48 218.531C367.848 217.883 368.039 216.891 368.055 215.555V211.5ZM390.883 209.32V222H387.496V212.062H384.508L384.297 215.977C384.164 218.062 383.754 219.582 383.066 220.535C382.379 221.488 381.355 221.977 379.996 222H378.848L378.812 219.246L379.234 219.211C379.844 219.164 380.289 218.805 380.57 218.133C380.852 217.461 381.027 216.316 381.098 214.699L381.332 209.32H390.883ZM399.332 222.234C397.473 222.234 395.957 221.664 394.785 220.523C393.621 219.383 393.039 217.863 393.039 215.965V215.637C393.039 214.363 393.285 213.227 393.777 212.227C394.27 211.219 394.965 210.445 395.863 209.906C396.77 209.359 397.801 209.086 398.957 209.086C400.691 209.086 402.055 209.633 403.047 210.727C404.047 211.82 404.547 213.371 404.547 215.379V216.762H396.473C396.582 217.59 396.91 218.254 397.457 218.754C398.012 219.254 398.711 219.504 399.555 219.504C400.859 219.504 401.879 219.031 402.613 218.086L404.277 219.949C403.77 220.668 403.082 221.23 402.215 221.637C401.348 222.035 400.387 222.234 399.332 222.234ZM398.945 211.828C398.273 211.828 397.727 212.055 397.305 212.508C396.891 212.961 396.625 213.609 396.508 214.453H401.219V214.184C401.203 213.434 401 212.855 400.609 212.449C400.219 212.035 399.664 211.828 398.945 211.828ZM416.863 212.039H412.797V222H409.398V212.039H405.402V209.32H416.863V212.039ZM283.293 246H279.895V241.125H275.688V246H272.301V233.32H275.688V238.406H279.895V233.32H283.293V246ZM293.266 246C293.109 245.695 292.996 245.316 292.926 244.863C292.105 245.777 291.039 246.234 289.727 246.234C288.484 246.234 287.453 245.875 286.633 245.156C285.82 244.438 285.414 243.531 285.414 242.438C285.414 241.094 285.91 240.062 286.902 239.344C287.902 238.625 289.344 238.262 291.227 238.254H292.785V237.527C292.785 236.941 292.633 236.473 292.328 236.121C292.031 235.77 291.559 235.594 290.91 235.594C290.34 235.594 289.891 235.73 289.562 236.004C289.242 236.277 289.082 236.652 289.082 237.129H285.695C285.695 236.395 285.922 235.715 286.375 235.09C286.828 234.465 287.469 233.977 288.297 233.625C289.125 233.266 290.055 233.086 291.086 233.086C292.648 233.086 293.887 233.48 294.801 234.27C295.723 235.051 296.184 236.152 296.184 237.574V243.07C296.191 244.273 296.359 245.184 296.688 245.801V246H293.266ZM290.465 243.645C290.965 243.645 291.426 243.535 291.848 243.316C292.27 243.09 292.582 242.789 292.785 242.414V240.234H291.52C289.824 240.234 288.922 240.82 288.812 241.992L288.801 242.191C288.801 242.613 288.949 242.961 289.246 243.234C289.543 243.508 289.949 243.645 290.465 243.645ZM316.176 239.777C316.176 241.73 315.73 243.297 314.84 244.477C313.957 245.648 312.762 246.234 311.254 246.234C309.973 246.234 308.938 245.789 308.148 244.898V250.875H304.762V233.32H307.902L308.02 234.562C308.84 233.578 309.91 233.086 311.23 233.086C312.793 233.086 314.008 233.664 314.875 234.82C315.742 235.977 316.176 237.57 316.176 239.602V239.777ZM312.789 239.531C312.789 238.352 312.578 237.441 312.156 236.801C311.742 236.16 311.137 235.84 310.34 235.84C309.277 235.84 308.547 236.246 308.148 237.059V242.25C308.562 243.086 309.301 243.504 310.363 243.504C311.98 243.504 312.789 242.18 312.789 239.531ZM321.906 237.035H324.332C325.426 237.035 326.387 237.219 327.215 237.586C328.043 237.953 328.676 238.48 329.113 239.168C329.559 239.848 329.781 240.641 329.781 241.547C329.781 242.883 329.285 243.961 328.293 244.781C327.309 245.594 325.965 246 324.262 246H318.508V233.32H321.906V237.035ZM335.172 246H331.785V233.32H335.172V246ZM321.906 239.754V243.293H324.309C324.98 243.293 325.496 243.137 325.855 242.824C326.215 242.512 326.395 242.086 326.395 241.547C326.395 241 326.219 240.566 325.867 240.246C325.516 239.918 324.996 239.754 324.309 239.754H321.906ZM349.152 246H345.754V241.125H341.547V246H338.16V233.32H341.547V238.406H345.754V233.32H349.152V246ZM356.746 241.324H355.387V246H352V233.32H355.387V238.09H356.594L359.359 233.32H363.637L359.488 239.355L364.023 246H359.512L356.746 241.324ZM370.949 246.234C369.09 246.234 367.574 245.664 366.402 244.523C365.238 243.383 364.656 241.863 364.656 239.965V239.637C364.656 238.363 364.902 237.227 365.395 236.227C365.887 235.219 366.582 234.445 367.48 233.906C368.387 233.359 369.418 233.086 370.574 233.086C372.309 233.086 373.672 233.633 374.664 234.727C375.664 235.82 376.164 237.371 376.164 239.379V240.762H368.09C368.199 241.59 368.527 242.254 369.074 242.754C369.629 243.254 370.328 243.504 371.172 243.504C372.477 243.504 373.496 243.031 374.23 242.086L375.895 243.949C375.387 244.668 374.699 245.23 373.832 245.637C372.965 246.035 372.004 246.234 370.949 246.234ZM370.562 235.828C369.891 235.828 369.344 236.055 368.922 236.508C368.508 236.961 368.242 237.609 368.125 238.453H372.836V238.184C372.82 237.434 372.617 236.855 372.227 236.449C371.836 236.035 371.281 235.828 370.562 235.828ZM388.035 246H384.52V228.938H388.035V246ZM403.797 231.785H398.57V246H395.055V231.785H389.898V228.938H403.797V231.785ZM274.924 269.104C275.375 269.104 275.769 268.968 276.106 268.694C276.444 268.421 276.631 268.079 276.667 267.669H277.863C277.84 268.093 277.695 268.496 277.426 268.879C277.157 269.262 276.797 269.567 276.346 269.795C275.899 270.023 275.425 270.137 274.924 270.137C273.917 270.137 273.115 269.802 272.518 269.132C271.925 268.457 271.629 267.537 271.629 266.37V266.158C271.629 265.438 271.761 264.798 272.025 264.237C272.29 263.677 272.668 263.242 273.16 262.932C273.657 262.622 274.243 262.467 274.917 262.467C275.746 262.467 276.435 262.715 276.981 263.212C277.533 263.709 277.827 264.354 277.863 265.146H276.667C276.631 264.668 276.448 264.276 276.12 263.971C275.797 263.661 275.396 263.506 274.917 263.506C274.274 263.506 273.775 263.738 273.42 264.203C273.069 264.663 272.894 265.331 272.894 266.206V266.445C272.894 267.298 273.069 267.954 273.42 268.414C273.771 268.874 274.272 269.104 274.924 269.104ZM278.95 266.233C278.95 265.509 279.091 264.857 279.374 264.278C279.661 263.7 280.058 263.253 280.563 262.938C281.074 262.624 281.655 262.467 282.307 262.467C283.314 262.467 284.127 262.815 284.747 263.513C285.371 264.21 285.684 265.137 285.684 266.295V266.384C285.684 267.104 285.545 267.751 285.267 268.325C284.993 268.895 284.599 269.339 284.084 269.658C283.574 269.977 282.986 270.137 282.32 270.137C281.318 270.137 280.504 269.788 279.88 269.091C279.26 268.394 278.95 267.471 278.95 266.322V266.233ZM280.222 266.384C280.222 267.204 280.411 267.863 280.789 268.359C281.172 268.856 281.682 269.104 282.32 269.104C282.963 269.104 283.473 268.854 283.852 268.353C284.23 267.847 284.419 267.14 284.419 266.233C284.419 265.422 284.225 264.766 283.838 264.265C283.455 263.759 282.945 263.506 282.307 263.506C281.682 263.506 281.179 263.754 280.796 264.251C280.413 264.748 280.222 265.459 280.222 266.384ZM287.386 270V262.604H290.271C291.255 262.604 292.009 262.777 292.533 263.123C293.062 263.465 293.326 263.968 293.326 264.634C293.326 264.976 293.224 265.285 293.019 265.563C292.813 265.837 292.51 266.047 292.109 266.192C292.556 266.297 292.914 266.502 293.183 266.808C293.456 267.113 293.593 267.478 293.593 267.901C293.593 268.58 293.342 269.1 292.841 269.46C292.344 269.82 291.64 270 290.729 270H287.386ZM288.65 266.753V268.981H290.742C291.271 268.981 291.665 268.883 291.925 268.688C292.189 268.492 292.321 268.216 292.321 267.86C292.321 267.122 291.779 266.753 290.694 266.753H288.65ZM288.65 265.741H290.284C291.469 265.741 292.062 265.395 292.062 264.702C292.062 264.009 291.501 263.652 290.38 263.629H288.65V265.741ZM298.337 270.137C297.334 270.137 296.519 269.809 295.89 269.152C295.261 268.492 294.946 267.61 294.946 266.507V266.274C294.946 265.541 295.085 264.887 295.363 264.312C295.646 263.734 296.038 263.283 296.539 262.959C297.045 262.631 297.592 262.467 298.18 262.467C299.141 262.467 299.889 262.784 300.422 263.417C300.955 264.05 301.222 264.957 301.222 266.138V266.664H296.211C296.229 267.393 296.441 267.983 296.847 268.435C297.257 268.881 297.776 269.104 298.405 269.104C298.852 269.104 299.23 269.013 299.54 268.831C299.85 268.649 300.121 268.407 300.354 268.106L301.126 268.708C300.506 269.66 299.576 270.137 298.337 270.137ZM298.18 263.506C297.669 263.506 297.241 263.693 296.895 264.066C296.548 264.436 296.334 264.955 296.252 265.625H299.957V265.529C299.921 264.887 299.747 264.39 299.438 264.039C299.128 263.684 298.708 263.506 298.18 263.506ZM308.939 266.384C308.939 267.509 308.682 268.416 308.167 269.104C307.652 269.793 306.955 270.137 306.075 270.137C305.177 270.137 304.471 269.852 303.956 269.282V272.844H302.691V262.604H303.847L303.908 263.424C304.423 262.786 305.139 262.467 306.055 262.467C306.943 262.467 307.645 262.802 308.16 263.472C308.68 264.142 308.939 265.074 308.939 266.268V266.384ZM307.675 266.24C307.675 265.406 307.497 264.748 307.142 264.265C306.786 263.782 306.299 263.54 305.679 263.54C304.913 263.54 304.339 263.88 303.956 264.559V268.093C304.334 268.767 304.913 269.104 305.692 269.104C306.299 269.104 306.779 268.865 307.135 268.387C307.495 267.904 307.675 267.188 307.675 266.24ZM311.934 262.604V268.968H314.641V262.604H315.905V268.968H318.605V262.604H319.877V270H310.662V262.604H311.934ZM324.942 270.137C323.94 270.137 323.124 269.809 322.495 269.152C321.866 268.492 321.552 267.61 321.552 266.507V266.274C321.552 265.541 321.691 264.887 321.969 264.312C322.251 263.734 322.643 263.283 323.145 262.959C323.65 262.631 324.197 262.467 324.785 262.467C325.747 262.467 326.494 262.784 327.027 263.417C327.561 264.05 327.827 264.957 327.827 266.138V266.664H322.816C322.835 267.393 323.047 267.983 323.452 268.435C323.862 268.881 324.382 269.104 325.011 269.104C325.457 269.104 325.836 269.013 326.146 268.831C326.455 268.649 326.727 268.407 326.959 268.106L327.731 268.708C327.112 269.66 326.182 270.137 324.942 270.137ZM324.785 263.506C324.275 263.506 323.846 263.693 323.5 264.066C323.154 264.436 322.939 264.955 322.857 265.625H326.562V265.529C326.526 264.887 326.353 264.39 326.043 264.039C325.733 263.684 325.314 263.506 324.785 263.506ZM335.34 270H334.075V266.842H330.678V270H329.406V262.604H330.678V265.81H334.075V262.604H335.34V270ZM340.344 269.104C340.795 269.104 341.189 268.968 341.526 268.694C341.864 268.421 342.05 268.079 342.087 267.669H343.283C343.26 268.093 343.115 268.496 342.846 268.879C342.577 269.262 342.217 269.567 341.766 269.795C341.319 270.023 340.845 270.137 340.344 270.137C339.337 270.137 338.535 269.802 337.938 269.132C337.345 268.457 337.049 267.537 337.049 266.37V266.158C337.049 265.438 337.181 264.798 337.445 264.237C337.71 263.677 338.088 263.242 338.58 262.932C339.077 262.622 339.662 262.467 340.337 262.467C341.166 262.467 341.854 262.715 342.401 263.212C342.953 263.709 343.247 264.354 343.283 265.146H342.087C342.05 264.668 341.868 264.276 341.54 263.971C341.216 263.661 340.815 263.506 340.337 263.506C339.694 263.506 339.195 263.738 338.84 264.203C338.489 264.663 338.313 265.331 338.313 266.206V266.445C338.313 267.298 338.489 267.954 338.84 268.414C339.191 268.874 339.692 269.104 340.344 269.104ZM350.201 263.629H347.72V270H346.455V263.629H344.021V262.604H350.201V263.629ZM351.548 270V262.604H354.433C355.417 262.604 356.171 262.777 356.695 263.123C357.224 263.465 357.488 263.968 357.488 264.634C357.488 264.976 357.386 265.285 357.181 265.563C356.976 265.837 356.673 266.047 356.271 266.192C356.718 266.297 357.076 266.502 357.345 266.808C357.618 267.113 357.755 267.478 357.755 267.901C357.755 268.58 357.504 269.1 357.003 269.46C356.506 269.82 355.802 270 354.891 270H351.548ZM352.812 266.753V268.981H354.904C355.433 268.981 355.827 268.883 356.087 268.688C356.351 268.492 356.483 268.216 356.483 267.86C356.483 267.122 355.941 266.753 354.856 266.753H352.812ZM352.812 265.741H354.446C355.631 265.741 356.224 265.395 356.224 264.702C356.224 264.009 355.663 263.652 354.542 263.629H352.812V265.741ZM361.768 268.147L363.49 262.604H364.844L361.87 271.142C361.41 272.372 360.678 272.987 359.676 272.987L359.437 272.967L358.965 272.878V271.853L359.307 271.88C359.735 271.88 360.068 271.793 360.305 271.62C360.546 271.447 360.744 271.13 360.899 270.67L361.18 269.918L358.541 262.604H359.922L361.768 268.147ZM368.952 270.137C367.95 270.137 367.134 269.809 366.505 269.152C365.876 268.492 365.562 267.61 365.562 266.507V266.274C365.562 265.541 365.701 264.887 365.979 264.312C366.261 263.734 366.653 263.283 367.154 262.959C367.66 262.631 368.207 262.467 368.795 262.467C369.757 262.467 370.504 262.784 371.037 263.417C371.57 264.05 371.837 264.957 371.837 266.138V266.664H366.826C366.844 267.393 367.056 267.983 367.462 268.435C367.872 268.881 368.392 269.104 369.021 269.104C369.467 269.104 369.845 269.013 370.155 268.831C370.465 268.649 370.736 268.407 370.969 268.106L371.741 268.708C371.121 269.66 370.192 270.137 368.952 270.137ZM368.795 263.506C368.285 263.506 367.856 263.693 367.51 264.066C367.163 264.436 366.949 264.955 366.867 265.625H370.572V265.529C370.536 264.887 370.363 264.39 370.053 264.039C369.743 263.684 369.324 263.506 368.795 263.506ZM377.565 268.325L380.081 262.604H381.66V270H380.396V264.62L378.003 270H377.128L374.688 264.504V270H373.423V262.604H375.063L377.565 268.325ZM391.948 263.649H388.537V270H387.266V262.604H391.948V263.649ZM392.577 266.233C392.577 265.509 392.718 264.857 393.001 264.278C393.288 263.7 393.685 263.253 394.19 262.938C394.701 262.624 395.282 262.467 395.934 262.467C396.941 262.467 397.754 262.815 398.374 263.513C398.998 264.21 399.311 265.137 399.311 266.295V266.384C399.311 267.104 399.172 267.751 398.894 268.325C398.62 268.895 398.226 269.339 397.711 269.658C397.201 269.977 396.613 270.137 395.947 270.137C394.945 270.137 394.131 269.788 393.507 269.091C392.887 268.394 392.577 267.471 392.577 266.322V266.233ZM393.849 266.384C393.849 267.204 394.038 267.863 394.416 268.359C394.799 268.856 395.309 269.104 395.947 269.104C396.59 269.104 397.1 268.854 397.479 268.353C397.857 267.847 398.046 267.14 398.046 266.233C398.046 265.422 397.852 264.766 397.465 264.265C397.082 263.759 396.572 263.506 395.934 263.506C395.309 263.506 394.806 263.754 394.423 264.251C394.04 264.748 393.849 265.459 393.849 266.384ZM407.145 266.384C407.145 267.509 406.887 268.416 406.372 269.104C405.857 269.793 405.16 270.137 404.28 270.137C403.382 270.137 402.676 269.852 402.161 269.282V272.844H400.896V262.604H402.052L402.113 263.424C402.628 262.786 403.344 262.467 404.26 262.467C405.148 262.467 405.85 262.802 406.365 263.472C406.885 264.142 407.145 265.074 407.145 266.268V266.384ZM405.88 266.24C405.88 265.406 405.702 264.748 405.347 264.265C404.991 263.782 404.504 263.54 403.884 263.54C403.118 263.54 402.544 263.88 402.161 264.559V268.093C402.539 268.767 403.118 269.104 403.897 269.104C404.504 269.104 404.984 268.865 405.34 268.387C405.7 267.904 405.88 267.188 405.88 266.24ZM408.423 266.233C408.423 265.509 408.564 264.857 408.847 264.278C409.134 263.7 409.53 263.253 410.036 262.938C410.547 262.624 411.128 262.467 411.779 262.467C412.786 262.467 413.6 262.815 414.22 263.513C414.844 264.21 415.156 265.137 415.156 266.295V266.384C415.156 267.104 415.017 267.751 414.739 268.325C414.466 268.895 414.072 269.339 413.557 269.658C413.046 269.977 412.458 270.137 411.793 270.137C410.79 270.137 409.977 269.788 409.353 269.091C408.733 268.394 408.423 267.471 408.423 266.322V266.233ZM409.694 266.384C409.694 267.204 409.883 267.863 410.262 268.359C410.645 268.856 411.155 269.104 411.793 269.104C412.436 269.104 412.946 268.854 413.324 268.353C413.702 267.847 413.892 267.14 413.892 266.233C413.892 265.422 413.698 264.766 413.311 264.265C412.928 263.759 412.417 263.506 411.779 263.506C411.155 263.506 410.651 263.754 410.269 264.251C409.886 264.748 409.694 265.459 409.694 266.384ZM416.188 268.968L416.626 268.428C417.118 267.79 417.398 266.833 417.467 265.557L417.583 262.604H422.348V268.968H423.298V272.174H422.033V270H416.872V272.174H415.607L415.614 268.968H416.188ZM417.686 268.968H421.083V263.772H418.807L418.731 265.536C418.654 267.008 418.305 268.152 417.686 268.968ZM427.666 269.104C428.117 269.104 428.511 268.968 428.849 268.694C429.186 268.421 429.373 268.079 429.409 267.669H430.605C430.583 268.093 430.437 268.496 430.168 268.879C429.899 269.262 429.539 269.567 429.088 269.795C428.641 270.023 428.167 270.137 427.666 270.137C426.659 270.137 425.857 269.802 425.26 269.132C424.667 268.457 424.371 267.537 424.371 266.37V266.158C424.371 265.438 424.503 264.798 424.768 264.237C425.032 263.677 425.41 263.242 425.902 262.932C426.399 262.622 426.985 262.467 427.659 262.467C428.489 262.467 429.177 262.715 429.724 263.212C430.275 263.709 430.569 264.354 430.605 265.146H429.409C429.373 264.668 429.19 264.276 428.862 263.971C428.539 263.661 428.138 263.506 427.659 263.506C427.017 263.506 426.518 263.738 426.162 264.203C425.811 264.663 425.636 265.331 425.636 266.206V266.445C425.636 267.298 425.811 267.954 426.162 268.414C426.513 268.874 427.014 269.104 427.666 269.104ZM434.331 266.849H433.408V270H432.137V262.604H433.408V265.734H434.235L436.724 262.604H438.255L435.329 266.158L438.501 270H436.895L434.331 266.849ZM442.008 268.147L443.73 262.604H445.084L442.11 271.142C441.65 272.372 440.919 272.987 439.916 272.987L439.677 272.967L439.205 272.878V271.853L439.547 271.88C439.975 271.88 440.308 271.793 440.545 271.62C440.786 271.447 440.985 271.13 441.14 270.67L441.42 269.918L438.781 262.604H440.162L442.008 268.147ZM447.6 265.741H449.377C449.473 264.757 449.821 263.966 450.423 263.369C451.029 262.768 451.792 262.467 452.713 262.467C453.679 262.467 454.47 262.793 455.085 263.444C455.7 264.096 456.033 264.944 456.083 265.987L456.09 266.384C456.09 267.104 455.949 267.753 455.666 268.332C455.383 268.911 454.987 269.357 454.477 269.672C453.966 269.982 453.383 270.137 452.727 270.137C451.774 270.137 450.995 269.827 450.389 269.207C449.783 268.583 449.443 267.774 449.37 266.78H447.6V270H446.335V262.604H447.6V265.741ZM450.621 266.384C450.621 267.204 450.81 267.863 451.188 268.359C451.571 268.856 452.084 269.104 452.727 269.104C453.369 269.104 453.877 268.852 454.251 268.346C454.629 267.84 454.818 267.136 454.818 266.233C454.818 265.427 454.627 264.771 454.244 264.265C453.861 263.759 453.351 263.506 452.713 263.506C452.084 263.506 451.578 263.754 451.195 264.251C450.812 264.748 450.621 265.459 450.621 266.384ZM271.622 284.233C271.622 283.509 271.763 282.857 272.046 282.278C272.333 281.7 272.729 281.253 273.235 280.938C273.746 280.624 274.327 280.467 274.979 280.467C275.986 280.467 276.799 280.815 277.419 281.513C278.043 282.21 278.355 283.137 278.355 284.295V284.384C278.355 285.104 278.216 285.751 277.938 286.325C277.665 286.895 277.271 287.339 276.756 287.658C276.245 287.977 275.658 288.137 274.992 288.137C273.99 288.137 273.176 287.788 272.552 287.091C271.932 286.394 271.622 285.471 271.622 284.322V284.233ZM272.894 284.384C272.894 285.204 273.083 285.863 273.461 286.359C273.844 286.856 274.354 287.104 274.992 287.104C275.635 287.104 276.145 286.854 276.523 286.353C276.902 285.847 277.091 285.14 277.091 284.233C277.091 283.422 276.897 282.766 276.51 282.265C276.127 281.759 275.617 281.506 274.979 281.506C274.354 281.506 273.851 281.754 273.468 282.251C273.085 282.748 272.894 283.459 272.894 284.384ZM285.984 288H284.72V284.842H281.322V288H280.051V280.604H281.322V283.81H284.72V280.604H285.984V288ZM294.085 280.604V288H292.813V281.649H290.298L290.147 284.418C290.065 285.689 289.851 286.599 289.505 287.146C289.163 287.692 288.618 287.977 287.871 288H287.365V286.886L287.728 286.858C288.138 286.813 288.432 286.576 288.609 286.147C288.787 285.719 288.901 284.926 288.951 283.769L289.088 280.604H294.085ZM300.682 288C300.609 287.854 300.549 287.594 300.504 287.221C299.916 287.831 299.214 288.137 298.398 288.137C297.669 288.137 297.07 287.932 296.601 287.521C296.136 287.107 295.903 286.583 295.903 285.949C295.903 285.179 296.195 284.582 296.778 284.158C297.366 283.73 298.191 283.516 299.253 283.516H300.483V282.935C300.483 282.493 300.351 282.142 300.087 281.882C299.823 281.618 299.433 281.485 298.918 281.485C298.467 281.485 298.089 281.599 297.783 281.827C297.478 282.055 297.325 282.331 297.325 282.654H296.054C296.054 282.285 296.184 281.93 296.443 281.588C296.708 281.242 297.063 280.968 297.51 280.768C297.961 280.567 298.455 280.467 298.993 280.467C299.845 280.467 300.513 280.681 300.996 281.109C301.479 281.533 301.73 282.119 301.748 282.866V286.271C301.748 286.95 301.835 287.49 302.008 287.891V288H300.682ZM298.583 287.036C298.979 287.036 299.355 286.934 299.711 286.729C300.066 286.523 300.324 286.257 300.483 285.929V284.411H299.492C297.943 284.411 297.168 284.865 297.168 285.771C297.168 286.168 297.3 286.478 297.564 286.701C297.829 286.924 298.168 287.036 298.583 287.036ZM308.516 280.604H309.78V288H308.516V282.606L305.104 288H303.84V280.604H305.104V286.004L308.516 280.604ZM308.857 277.91C308.857 278.462 308.668 278.906 308.29 279.243C307.916 279.576 307.424 279.742 306.813 279.742C306.203 279.742 305.708 279.574 305.33 279.236C304.952 278.899 304.763 278.457 304.763 277.91H305.795C305.795 278.229 305.882 278.48 306.055 278.662C306.228 278.84 306.481 278.929 306.813 278.929C307.132 278.929 307.381 278.84 307.559 278.662C307.741 278.484 307.832 278.234 307.832 277.91H308.857ZM317.854 288H316.589V284.842H313.191V288H311.92V280.604H313.191V283.81H316.589V280.604H317.854V288ZM322.522 284.288H319.187V283.256H322.522V284.288ZM329.81 288H328.545V281.649H325.141V288H323.869V280.604H329.81V288ZM337.903 280.604V288H336.632V281.649H334.116L333.966 284.418C333.884 285.689 333.67 286.599 333.323 287.146C332.981 287.692 332.437 287.977 331.689 288H331.184V286.886L331.546 286.858C331.956 286.813 332.25 286.576 332.428 286.147C332.605 285.719 332.719 284.926 332.77 283.769L332.906 280.604H337.903ZM344.5 288C344.427 287.854 344.368 287.594 344.322 287.221C343.734 287.831 343.033 288.137 342.217 288.137C341.488 288.137 340.888 287.932 340.419 287.521C339.954 287.107 339.722 286.583 339.722 285.949C339.722 285.179 340.013 284.582 340.597 284.158C341.185 283.73 342.009 283.516 343.071 283.516H344.302V282.935C344.302 282.493 344.17 282.142 343.905 281.882C343.641 281.618 343.251 281.485 342.736 281.485C342.285 281.485 341.907 281.599 341.602 281.827C341.296 282.055 341.144 282.331 341.144 282.654H339.872C339.872 282.285 340.002 281.93 340.262 281.588C340.526 281.242 340.882 280.968 341.328 280.768C341.779 280.567 342.274 280.467 342.812 280.467C343.664 280.467 344.331 280.681 344.814 281.109C345.298 281.533 345.548 282.119 345.566 282.866V286.271C345.566 286.95 345.653 287.49 345.826 287.891V288H344.5ZM342.401 287.036C342.798 287.036 343.174 286.934 343.529 286.729C343.885 286.523 344.142 286.257 344.302 285.929V284.411H343.311C341.761 284.411 340.986 284.865 340.986 285.771C340.986 286.168 341.118 286.478 341.383 286.701C341.647 286.924 341.987 287.036 342.401 287.036ZM352.936 281.629H350.454V288H349.189V281.629H346.756V280.604H352.936V281.629ZM353.346 284.438C353.346 283.203 353.585 282.233 354.063 281.526C354.542 280.82 355.198 280.467 356.032 280.467C356.42 280.467 356.759 280.533 357.051 280.665V277.5H358.315V280.706C358.634 280.547 359.008 280.467 359.437 280.467C360.275 280.467 360.934 280.82 361.412 281.526C361.891 282.233 362.13 283.251 362.13 284.582C362.13 285.671 361.891 286.537 361.412 287.18C360.938 287.822 360.284 288.144 359.45 288.144C359.008 288.144 358.63 288.071 358.315 287.925V290.844H357.051V287.945C356.75 288.077 356.406 288.144 356.019 288.144C355.189 288.144 354.535 287.822 354.057 287.18C353.583 286.537 353.346 285.658 353.346 284.541V284.438ZM360.865 284.438C360.865 283.509 360.706 282.789 360.387 282.278C360.068 281.763 359.628 281.506 359.067 281.506C358.78 281.506 358.53 281.551 358.315 281.643V286.995C358.521 287.073 358.776 287.111 359.081 287.111C359.646 287.111 360.084 286.893 360.394 286.455C360.708 286.018 360.865 285.345 360.865 284.438ZM354.61 284.582C354.61 285.411 354.758 286.04 355.055 286.469C355.351 286.897 355.777 287.111 356.333 287.111C356.597 287.111 356.837 287.07 357.051 286.988V281.622C356.859 281.545 356.625 281.506 356.347 281.506C355.791 281.506 355.362 281.754 355.062 282.251C354.761 282.748 354.61 283.525 354.61 284.582ZM363.442 284.233C363.442 283.509 363.584 282.857 363.866 282.278C364.153 281.7 364.55 281.253 365.056 280.938C365.566 280.624 366.147 280.467 366.799 280.467C367.806 280.467 368.619 280.815 369.239 281.513C369.864 282.21 370.176 283.137 370.176 284.295V284.384C370.176 285.104 370.037 285.751 369.759 286.325C369.485 286.895 369.091 287.339 368.576 287.658C368.066 287.977 367.478 288.137 366.812 288.137C365.81 288.137 364.996 287.788 364.372 287.091C363.752 286.394 363.442 285.471 363.442 284.322V284.233ZM364.714 284.384C364.714 285.204 364.903 285.863 365.281 286.359C365.664 286.856 366.174 287.104 366.812 287.104C367.455 287.104 367.965 286.854 368.344 286.353C368.722 285.847 368.911 285.14 368.911 284.233C368.911 283.422 368.717 282.766 368.33 282.265C367.947 281.759 367.437 281.506 366.799 281.506C366.174 281.506 365.671 281.754 365.288 282.251C364.905 282.748 364.714 283.459 364.714 284.384ZM378.01 284.384C378.01 285.509 377.752 286.416 377.237 287.104C376.722 287.793 376.025 288.137 375.146 288.137C374.248 288.137 373.541 287.852 373.026 287.282V290.844H371.762V280.604H372.917L372.979 281.424C373.493 280.786 374.209 280.467 375.125 280.467C376.014 280.467 376.715 280.802 377.23 281.472C377.75 282.142 378.01 283.074 378.01 284.268V284.384ZM376.745 284.24C376.745 283.406 376.567 282.748 376.212 282.265C375.856 281.782 375.369 281.54 374.749 281.54C373.983 281.54 373.409 281.88 373.026 282.559V286.093C373.405 286.767 373.983 287.104 374.763 287.104C375.369 287.104 375.85 286.865 376.205 286.387C376.565 285.904 376.745 285.188 376.745 284.24ZM383.882 286.325L386.397 280.604H387.977V288H386.712V282.62L384.319 288H383.444L381.004 282.504V288H379.739V280.604H381.38L383.882 286.325ZM392.434 286.147L394.156 280.604H395.51L392.536 289.142C392.076 290.372 391.344 290.987 390.342 290.987L390.103 290.967L389.631 290.878V289.853L389.973 289.88C390.401 289.88 390.734 289.793 390.971 289.62C391.212 289.447 391.41 289.13 391.565 288.67L391.846 287.918L389.207 280.604H390.588L392.434 286.147Z" fill="#323232"/>
<g clip-path="url(#clip0)">
<path d="M248.371 213.109H180.629C178.076 213.109 176 215.186 176 217.738V261.57C176 264.122 178.076 266.199 180.629 266.199H204.517V271.914L198.139 276.346C197.436 276.834 197.136 277.711 197.392 278.526C197.648 279.342 198.394 279.891 199.249 279.891H229.751C230.606 279.891 231.352 279.342 231.608 278.526C231.864 277.711 231.564 276.834 230.862 276.346L224.483 271.914V266.199H248.371C250.924 266.199 253 264.122 253 261.57V217.738C253 215.186 250.924 213.109 248.371 213.109ZM180.629 215.361H248.371C249.682 215.361 250.749 216.427 250.749 217.738V257.128H178.251V217.738C178.251 216.427 179.318 215.361 180.629 215.361ZM248.371 263.947H219.45C218.828 263.947 218.324 264.451 218.324 265.073C218.324 265.695 218.828 266.199 219.45 266.199H222.232V272.502C222.232 272.871 222.412 273.216 222.715 273.427L228.776 277.639H200.224L205.995 273.628H218.317C218.939 273.628 219.443 273.124 219.443 272.502C219.443 271.881 218.939 271.377 218.317 271.377H206.768V266.199H214.652C215.274 266.199 215.778 265.695 215.778 265.073C215.778 264.451 215.274 263.947 214.652 263.947H180.629C179.318 263.947 178.251 262.881 178.251 261.57V259.379H250.749V261.57C250.749 262.881 249.682 263.947 248.371 263.947Z" fill="#BC2A40"/>
<path d="M195.527 251.978C202.544 251.978 208.254 246.269 208.254 239.252C208.254 232.234 202.544 226.525 195.527 226.525C192.731 226.525 190.076 227.416 187.85 229.102C187.355 229.477 187.257 230.183 187.633 230.679C188.008 231.174 188.714 231.272 189.21 230.897C191.041 229.51 193.225 228.776 195.527 228.776C196.906 228.776 198.223 229.047 199.43 229.534L194.669 238.468L186.204 244.019C185.469 242.588 185.051 240.968 185.051 239.252C185.051 237.478 185.505 235.723 186.362 234.178C186.664 233.634 186.468 232.949 185.924 232.648C185.38 232.346 184.695 232.542 184.393 233.086C183.351 234.964 182.8 237.096 182.8 239.252C182.8 246.269 188.509 251.978 195.527 251.978ZM206.002 239.252C206.002 240.242 205.861 241.199 205.603 242.108L197.109 238.677L201.416 230.594C204.182 232.481 206.002 235.658 206.002 239.252ZM195.651 240.516L204.759 244.195C202.991 247.485 199.516 249.727 195.527 249.727C192.273 249.727 189.362 248.236 187.439 245.901L195.651 240.516Z" fill="#BC2A40"/>
<path d="M216.842 230.138H244.269C245.446 230.138 246.404 229.18 246.404 228.003V224.289C246.404 223.112 245.446 222.154 244.269 222.154H240.707C240.085 222.154 239.581 222.658 239.581 223.28C239.581 223.902 240.085 224.406 240.707 224.406H244.153V227.886H216.959V224.406H235.91C236.531 224.406 237.035 223.902 237.035 223.28C237.035 222.658 236.531 222.154 235.91 222.154H216.842C215.665 222.154 214.707 223.112 214.707 224.289V228.003C214.708 229.18 215.665 230.138 216.842 230.138Z" fill="#BC2A40"/>
<path d="M216.842 241.304H233.184C234.361 241.304 235.319 240.347 235.319 239.169V235.456C235.319 234.279 234.361 233.321 233.184 233.321H216.842C215.665 233.321 214.707 234.279 214.707 235.456V239.169C214.708 240.347 215.665 241.304 216.842 241.304ZM216.959 235.572H233.068V239.053H216.959V235.572Z" fill="#BC2A40"/>
<path d="M216.842 252.471H226.204C227.381 252.471 228.339 251.513 228.339 250.336V246.623C228.339 245.445 227.381 244.488 226.204 244.488H216.842C215.665 244.488 214.707 245.445 214.707 246.623V250.336C214.708 251.513 215.665 252.471 216.842 252.471ZM216.959 246.739H226.088V250.22H216.959V246.739Z" fill="#BC2A40"/>
</g>
<ellipse cx="124" cy="169.922" rx="4.95898" ry="5" transform="rotate(-90 124 169.922)" fill="#BC2A40"/>
<line x1="124" y1="137.686" x2="165" y2="137.686" stroke="#323232"/>
<line x1="124.5" y1="165.954" x2="124.5" y2="138.186" stroke="#323232"/>
<ellipse rx="4.95898" ry="5" transform="matrix(0 -1 -1 0 303 169.922)" fill="#BC2A40"/>
<line y1="-0.5" x2="41" y2="-0.5" transform="matrix(-1 4.37114e-08 4.37114e-08 1 303 138.186)" stroke="#323232"/>
<line y1="-0.5" x2="27.7686" y2="-0.5" transform="matrix(-4.40757e-08 -1 -1 4.33501e-08 302 165.954)" stroke="#323232"/>
<path d="M49.9688 28.8555C49.9688 30.5352 49.6719 32.0078 49.0781 33.2734C48.4844 34.5391 47.6328 35.5156 46.5234 36.2031C45.4219 36.8906 44.1562 37.2344 42.7266 37.2344C41.3125 37.2344 40.0508 36.8945 38.9414 36.2148C37.832 35.5352 36.9727 34.5664 36.3633 33.3086C35.7539 32.043 35.4453 30.5898 35.4375 28.9492V28.1055C35.4375 26.4258 35.7383 24.9492 36.3398 23.6758C36.9492 22.3945 37.8047 21.4141 38.9062 20.7344C40.0156 20.0469 41.2812 19.7031 42.7031 19.7031C44.125 19.7031 45.3867 20.0469 46.4883 20.7344C47.5977 21.4141 48.4531 22.3945 49.0547 23.6758C49.6641 24.9492 49.9688 26.4219 49.9688 28.0938V28.8555ZM46.4062 28.082C46.4062 26.293 46.0859 24.9336 45.4453 24.0039C44.8047 23.0742 43.8906 22.6094 42.7031 22.6094C41.5234 22.6094 40.6133 23.0703 39.9727 23.9922C39.332 24.9062 39.0078 26.25 39 28.0234V28.8555C39 30.5977 39.3203 31.9492 39.9609 32.9102C40.6016 33.8711 41.5234 34.3516 42.7266 34.3516C43.9062 34.3516 44.8125 33.8906 45.4453 32.9688C46.0781 32.0391 46.3984 30.6875 46.4062 28.9141V28.082ZM57.2695 32.3242H55.9102V37H52.5234V24.3203H55.9102V29.0898H57.1172L59.8828 24.3203H64.1602L60.0117 30.3555L64.5469 37H60.0352L57.2695 32.3242ZM70.5586 32.207L72.9023 24.3203H76.5352L71.4375 38.9688L71.1562 39.6367C70.3984 41.293 69.1484 42.1211 67.4062 42.1211C66.9141 42.1211 66.4141 42.0469 65.9062 41.8984V39.332L66.4219 39.3438C67.0625 39.3438 67.5391 39.2461 67.8516 39.0508C68.1719 38.8555 68.4219 38.5312 68.6016 38.0781L69 37.0352L64.5586 24.3203H68.2031L70.5586 32.207ZM88.8984 37H85.5V27.0625H81.2578V37H77.8711V24.3203H88.8984V37ZM98.8359 37C98.6797 36.6953 98.5664 36.3164 98.4961 35.8633C97.6758 36.7773 96.6094 37.2344 95.2969 37.2344C94.0547 37.2344 93.0234 36.875 92.2031 36.1562C91.3906 35.4375 90.9844 34.5312 90.9844 33.4375C90.9844 32.0938 91.4805 31.0625 92.4727 30.3438C93.4727 29.625 94.9141 29.2617 96.7969 29.2539H98.3555V28.5273C98.3555 27.9414 98.2031 27.4727 97.8984 27.1211C97.6016 26.7695 97.1289 26.5938 96.4805 26.5938C95.9102 26.5938 95.4609 26.7305 95.1328 27.0039C94.8125 27.2773 94.6523 27.6523 94.6523 28.1289H91.2656C91.2656 27.3945 91.4922 26.7148 91.9453 26.0898C92.3984 25.4648 93.0391 24.9766 93.8672 24.625C94.6953 24.2656 95.625 24.0859 96.6562 24.0859C98.2188 24.0859 99.457 24.4805 100.371 25.2695C101.293 26.0508 101.754 27.1523 101.754 28.5742V34.0703C101.762 35.2734 101.93 36.1836 102.258 36.8008V37H98.8359ZM96.0352 34.6445C96.5352 34.6445 96.9961 34.5352 97.418 34.3164C97.8398 34.0898 98.1523 33.7891 98.3555 33.4141V31.2344H97.0898C95.3945 31.2344 94.4922 31.8203 94.3828 32.9922L94.3711 33.1914C94.3711 33.6133 94.5195 33.9609 94.8164 34.2344C95.1133 34.5078 95.5195 34.6445 96.0352 34.6445ZM110.191 37.2344C108.332 37.2344 106.816 36.6641 105.645 35.5234C104.48 34.3828 103.898 32.8633 103.898 30.9648V30.6367C103.898 29.3633 104.145 28.2266 104.637 27.2266C105.129 26.2188 105.824 25.4453 106.723 24.9062C107.629 24.3594 108.66 24.0859 109.816 24.0859C111.551 24.0859 112.914 24.6328 113.906 25.7266C114.906 26.8203 115.406 28.3711 115.406 30.3789V31.7617H107.332C107.441 32.5898 107.77 33.2539 108.316 33.7539C108.871 34.2539 109.57 34.5039 110.414 34.5039C111.719 34.5039 112.738 34.0312 113.473 33.0859L115.137 34.9492C114.629 35.668 113.941 36.2305 113.074 36.6367C112.207 37.0352 111.246 37.2344 110.191 37.2344ZM109.805 26.8281C109.133 26.8281 108.586 27.0547 108.164 27.5078C107.75 27.9609 107.484 28.6094 107.367 29.4531H112.078V29.1836C112.062 28.4336 111.859 27.8555 111.469 27.4492C111.078 27.0352 110.523 26.8281 109.805 26.8281ZM125.062 33.0039L128.379 24.3203H132.621V37H129.234V29.2188L126.199 37H123.926L120.949 29.3477V37H117.562V24.3203H121.77L125.062 33.0039ZM135.047 30.543C135.047 29.2852 135.289 28.1641 135.773 27.1797C136.258 26.1953 136.953 25.4336 137.859 24.8945C138.773 24.3555 139.832 24.0859 141.035 24.0859C142.746 24.0859 144.141 24.6094 145.219 25.6562C146.305 26.7031 146.91 28.125 147.035 29.9219L147.059 30.7891C147.059 32.7344 146.516 34.2969 145.43 35.4766C144.344 36.6484 142.887 37.2344 141.059 37.2344C139.23 37.2344 137.77 36.6484 136.676 35.4766C135.59 34.3047 135.047 32.7109 135.047 30.6953V30.543ZM138.434 30.7891C138.434 31.9922 138.66 32.9141 139.113 33.5547C139.566 34.1875 140.215 34.5039 141.059 34.5039C141.879 34.5039 142.52 34.1914 142.98 33.5664C143.441 32.9336 143.672 31.9258 143.672 30.543C143.672 29.3633 143.441 28.4492 142.98 27.8008C142.52 27.1523 141.871 26.8281 141.035 26.8281C140.207 26.8281 139.566 27.1523 139.113 27.8008C138.66 28.4414 138.434 29.4375 138.434 30.7891ZM154.418 34.5039C155.043 34.5039 155.551 34.332 155.941 33.9883C156.332 33.6445 156.535 33.1875 156.551 32.6172H159.727C159.719 33.4766 159.484 34.2656 159.023 34.9844C158.562 35.6953 157.93 36.25 157.125 36.6484C156.328 37.0391 155.445 37.2344 154.477 37.2344C152.664 37.2344 151.234 36.6602 150.188 35.5117C149.141 34.3555 148.617 32.7617 148.617 30.7305V30.5078C148.617 28.5547 149.137 26.9961 150.176 25.832C151.215 24.668 152.641 24.0859 154.453 24.0859C156.039 24.0859 157.309 24.5391 158.262 25.4453C159.223 26.3438 159.711 27.543 159.727 29.043H156.551C156.535 28.3867 156.332 27.8555 155.941 27.4492C155.551 27.0352 155.035 26.8281 154.395 26.8281C153.605 26.8281 153.008 27.1172 152.602 27.6953C152.203 28.2656 152.004 29.1953 152.004 30.4844V30.8359C152.004 32.1406 152.203 33.0781 152.602 33.6484C153 34.2188 153.605 34.5039 154.418 34.5039ZM172.184 27.0391H168.117V37H164.719V27.0391H160.723V24.3203H172.184V27.0391ZM177.516 28.0352H179.941C181.035 28.0352 181.996 28.2188 182.824 28.5859C183.652 28.9531 184.285 29.4805 184.723 30.168C185.168 30.8477 185.391 31.6406 185.391 32.5469C185.391 33.8828 184.895 34.9609 183.902 35.7812C182.918 36.5938 181.574 37 179.871 37H174.117V24.3203H177.516V28.0352ZM177.516 30.7539V34.293H179.918C180.59 34.293 181.105 34.1367 181.465 33.8242C181.824 33.5117 182.004 33.0859 182.004 32.5469C182.004 32 181.828 31.5664 181.477 31.2461C181.125 30.918 180.605 30.7539 179.918 30.7539H177.516ZM92.8467 57.2334C92.8467 56.5088 92.988 55.8571 93.2705 55.2783C93.5576 54.6995 93.9541 54.2529 94.46 53.9385C94.9704 53.624 95.5514 53.4668 96.2031 53.4668C97.2103 53.4668 98.0238 53.8154 98.6436 54.5127C99.2679 55.21 99.5801 56.1374 99.5801 57.2949V57.3838C99.5801 58.1038 99.4411 58.751 99.1631 59.3252C98.8896 59.8949 98.4954 60.3392 97.9805 60.6582C97.4701 60.9772 96.8822 61.1367 96.2168 61.1367C95.2142 61.1367 94.4007 60.7881 93.7764 60.0908C93.1566 59.3936 92.8467 58.4707 92.8467 57.3223V57.2334ZM94.1182 57.3838C94.1182 58.2041 94.3073 58.8626 94.6855 59.3594C95.0684 59.8561 95.5788 60.1045 96.2168 60.1045C96.8594 60.1045 97.3698 59.8538 97.748 59.3525C98.1263 58.8467 98.3154 58.1403 98.3154 57.2334C98.3154 56.4222 98.1217 55.766 97.7344 55.2646C97.3516 54.7588 96.8411 54.5059 96.2031 54.5059C95.5788 54.5059 95.0752 54.7542 94.6924 55.251C94.3096 55.7477 94.1182 56.4587 94.1182 57.3838ZM106.512 54.6289H104.03V61H102.766V54.6289H100.332V53.6035H106.512V54.6289ZM115.241 61H113.97V52.5713L111.42 53.5078V52.3594L115.043 50.999H115.241V61ZM125.188 56.7549C125.188 58.236 124.935 59.3366 124.429 60.0566C123.923 60.7767 123.132 61.1367 122.057 61.1367C120.995 61.1367 120.209 60.7858 119.698 60.084C119.188 59.3776 118.924 58.3249 118.905 56.9258V55.2373C118.905 53.7744 119.158 52.6875 119.664 51.9766C120.17 51.2656 120.963 50.9102 122.043 50.9102C123.114 50.9102 123.902 51.2542 124.408 51.9424C124.914 52.626 125.174 53.6833 125.188 55.1143V56.7549ZM123.923 55.0254C123.923 53.9544 123.772 53.1751 123.472 52.6875C123.171 52.1953 122.695 51.9492 122.043 51.9492C121.396 51.9492 120.924 52.193 120.628 52.6807C120.332 53.1683 120.179 53.918 120.17 54.9297V56.9531C120.17 58.0286 120.325 58.8239 120.635 59.3389C120.949 59.8493 121.423 60.1045 122.057 60.1045C122.681 60.1045 123.144 59.863 123.444 59.3799C123.75 58.8968 123.909 58.1357 123.923 57.0967V55.0254ZM134.669 59.3252L137.185 53.6035H138.764V61H137.499V55.6201L135.106 61H134.231L131.791 55.5039V61H130.526V53.6035H132.167L134.669 59.3252ZM143.87 61.1367C142.868 61.1367 142.052 60.8086 141.423 60.1523C140.794 59.4915 140.479 58.6097 140.479 57.5068V57.2744C140.479 56.5407 140.618 55.8867 140.896 55.3125C141.179 54.7337 141.571 54.2826 142.072 53.959C142.578 53.6309 143.125 53.4668 143.713 53.4668C144.674 53.4668 145.422 53.7835 145.955 54.417C146.488 55.0505 146.755 55.9574 146.755 57.1377V57.6641H141.744C141.762 58.3932 141.974 58.9834 142.38 59.4346C142.79 59.8812 143.31 60.1045 143.938 60.1045C144.385 60.1045 144.763 60.0133 145.073 59.8311C145.383 59.6488 145.654 59.4072 145.887 59.1064L146.659 59.708C146.039 60.6605 145.11 61.1367 143.87 61.1367ZM143.713 54.5059C143.202 54.5059 142.774 54.6927 142.428 55.0664C142.081 55.4355 141.867 55.9551 141.785 56.625H145.49V56.5293C145.454 55.8867 145.281 55.39 144.971 55.0391C144.661 54.6836 144.242 54.5059 143.713 54.5059ZM151.191 60.1045C151.643 60.1045 152.037 59.9678 152.374 59.6943C152.711 59.4209 152.898 59.0791 152.935 58.6689H154.131C154.108 59.0928 153.962 59.4961 153.693 59.8789C153.424 60.2617 153.064 60.5671 152.613 60.7949C152.167 61.0228 151.693 61.1367 151.191 61.1367C150.184 61.1367 149.382 60.8018 148.785 60.1318C148.193 59.4574 147.896 58.5368 147.896 57.3701V57.1582C147.896 56.4382 148.029 55.7979 148.293 55.2373C148.557 54.6768 148.936 54.2415 149.428 53.9316C149.924 53.6217 150.51 53.4668 151.185 53.4668C152.014 53.4668 152.702 53.7152 153.249 54.2119C153.8 54.7087 154.094 55.3535 154.131 56.1465H152.935C152.898 55.668 152.716 55.276 152.388 54.9707C152.064 54.6608 151.663 54.5059 151.185 54.5059C150.542 54.5059 150.043 54.7383 149.688 55.2031C149.337 55.6634 149.161 56.3311 149.161 57.2061V57.4453C149.161 58.2975 149.337 58.9538 149.688 59.4141C150.038 59.8743 150.54 60.1045 151.191 60.1045ZM161.206 53.6035V61H159.935V58.1221H158.027L156.284 61H154.917L156.776 57.9307C156.302 57.7575 155.938 57.4909 155.683 57.1309C155.432 56.7663 155.307 56.3424 155.307 55.8594C155.307 55.1849 155.56 54.6426 156.065 54.2324C156.571 53.8177 157.248 53.6081 158.096 53.6035H161.206ZM156.578 55.873C156.578 56.2331 156.701 56.5247 156.947 56.748C157.193 56.9668 157.519 57.0785 157.925 57.083H159.935V54.6289H158.116C157.647 54.6289 157.273 54.7451 156.995 54.9775C156.717 55.2054 156.578 55.5039 156.578 55.873ZM163.346 53.6035H164.617V59.9678H168.021V53.6035H169.286V59.9678H170.168L170.045 63.1943H168.91V61H163.346V53.6035ZM174.604 61.1367C173.602 61.1367 172.786 60.8086 172.157 60.1523C171.528 59.4915 171.214 58.6097 171.214 57.5068V57.2744C171.214 56.5407 171.353 55.8867 171.631 55.3125C171.913 54.7337 172.305 54.2826 172.807 53.959C173.312 53.6309 173.859 53.4668 174.447 53.4668C175.409 53.4668 176.156 53.7835 176.689 54.417C177.223 55.0505 177.489 55.9574 177.489 57.1377V57.6641H172.479C172.497 58.3932 172.709 58.9834 173.114 59.4346C173.524 59.8812 174.044 60.1045 174.673 60.1045C175.119 60.1045 175.498 60.0133 175.808 59.8311C176.118 59.6488 176.389 59.4072 176.621 59.1064L177.394 59.708C176.774 60.6605 175.844 61.1367 174.604 61.1367ZM174.447 54.5059C173.937 54.5059 173.508 54.6927 173.162 55.0664C172.816 55.4355 172.602 55.9551 172.52 56.625H176.225V56.5293C176.188 55.8867 176.015 55.39 175.705 55.0391C175.395 54.6836 174.976 54.5059 174.447 54.5059ZM179.075 61V53.6035H181.96C182.944 53.6035 183.699 53.7767 184.223 54.123C184.751 54.4648 185.016 54.9684 185.016 55.6338C185.016 55.9756 184.913 56.2855 184.708 56.5635C184.503 56.8369 184.2 57.0465 183.799 57.1924C184.245 57.2972 184.603 57.5023 184.872 57.8076C185.146 58.113 185.282 58.4775 185.282 58.9014C185.282 59.5804 185.032 60.0999 184.53 60.46C184.034 60.82 183.329 61 182.418 61H179.075ZM180.34 57.7529V59.9814H182.432C182.96 59.9814 183.354 59.8835 183.614 59.6875C183.879 59.4915 184.011 59.2158 184.011 58.8604C184.011 58.1221 183.468 57.7529 182.384 57.7529H180.34ZM180.34 56.7412H181.974C183.159 56.7412 183.751 56.3949 183.751 55.7021C183.751 55.0094 183.19 54.6517 182.069 54.6289H180.34V56.7412Z" fill="#323232"/>
<path d="M225.773 30.543C225.773 29.2852 226.016 28.1641 226.5 27.1797C226.984 26.1953 227.68 25.4336 228.586 24.8945C229.5 24.3555 230.559 24.0859 231.762 24.0859C233.473 24.0859 234.867 24.6094 235.945 25.6562C237.031 26.7031 237.637 28.125 237.762 29.9219L237.785 30.7891C237.785 32.7344 237.242 34.2969 236.156 35.4766C235.07 36.6484 233.613 37.2344 231.785 37.2344C229.957 37.2344 228.496 36.6484 227.402 35.4766C226.316 34.3047 225.773 32.7109 225.773 30.6953V30.543ZM229.16 30.7891C229.16 31.9922 229.387 32.9141 229.84 33.5547C230.293 34.1875 230.941 34.5039 231.785 34.5039C232.605 34.5039 233.246 34.1914 233.707 33.5664C234.168 32.9336 234.398 31.9258 234.398 30.543C234.398 29.3633 234.168 28.4492 233.707 27.8008C233.246 27.1523 232.598 26.8281 231.762 26.8281C230.934 26.8281 230.293 27.1523 229.84 27.8008C229.387 28.4414 229.16 29.4375 229.16 30.7891ZM250.043 27.0391H245.977V37H242.578V27.0391H238.582V24.3203H250.043V27.0391ZM267.609 30.5781H269.543V33.3086H267.609V37H264.223V33.3086H257.227L257.074 31.1758L264.188 19.9375H267.609V30.5781ZM260.449 30.5781H264.223V24.5547L264 24.9414L260.449 30.5781ZM282.855 29.9453C282.855 32.3047 282.367 34.1094 281.391 35.3594C280.414 36.6094 278.984 37.2344 277.102 37.2344C275.242 37.2344 273.82 36.6211 272.836 35.3945C271.852 34.168 271.348 32.4102 271.324 30.1211V26.9805C271.324 24.5977 271.816 22.7891 272.801 21.5547C273.793 20.3203 275.219 19.7031 277.078 19.7031C278.938 19.7031 280.359 20.3164 281.344 21.543C282.328 22.7617 282.832 24.5156 282.855 26.8047V29.9453ZM279.469 26.5C279.469 25.0859 279.273 24.0586 278.883 23.418C278.5 22.7695 277.898 22.4453 277.078 22.4453C276.281 22.4453 275.691 22.7539 275.309 23.3711C274.934 23.9805 274.734 24.9375 274.711 26.2422V30.3906C274.711 31.7812 274.898 32.8164 275.273 33.4961C275.656 34.168 276.266 34.5039 277.102 34.5039C277.93 34.5039 278.527 34.1797 278.895 33.5312C279.262 32.8828 279.453 31.8906 279.469 30.5547V26.5ZM296.637 29.9453C296.637 32.3047 296.148 34.1094 295.172 35.3594C294.195 36.6094 292.766 37.2344 290.883 37.2344C289.023 37.2344 287.602 36.6211 286.617 35.3945C285.633 34.168 285.129 32.4102 285.105 30.1211V26.9805C285.105 24.5977 285.598 22.7891 286.582 21.5547C287.574 20.3203 289 19.7031 290.859 19.7031C292.719 19.7031 294.141 20.3164 295.125 21.543C296.109 22.7617 296.613 24.5156 296.637 26.8047V29.9453ZM293.25 26.5C293.25 25.0859 293.055 24.0586 292.664 23.418C292.281 22.7695 291.68 22.4453 290.859 22.4453C290.062 22.4453 289.473 22.7539 289.09 23.3711C288.715 23.9805 288.516 24.9375 288.492 26.2422V30.3906C288.492 31.7812 288.68 32.8164 289.055 33.4961C289.438 34.168 290.047 34.5039 290.883 34.5039C291.711 34.5039 292.309 34.1797 292.676 33.5312C293.043 32.8828 293.234 31.8906 293.25 30.5547V26.5ZM316.395 29.9453C316.395 32.3047 315.906 34.1094 314.93 35.3594C313.953 36.6094 312.523 37.2344 310.641 37.2344C308.781 37.2344 307.359 36.6211 306.375 35.3945C305.391 34.168 304.887 32.4102 304.863 30.1211V26.9805C304.863 24.5977 305.355 22.7891 306.34 21.5547C307.332 20.3203 308.758 19.7031 310.617 19.7031C312.477 19.7031 313.898 20.3164 314.883 21.543C315.867 22.7617 316.371 24.5156 316.395 26.8047V29.9453ZM313.008 26.5C313.008 25.0859 312.812 24.0586 312.422 23.418C312.039 22.7695 311.438 22.4453 310.617 22.4453C309.82 22.4453 309.23 22.7539 308.848 23.3711C308.473 23.9805 308.273 24.9375 308.25 26.2422V30.3906C308.25 31.7812 308.438 32.8164 308.812 33.4961C309.195 34.168 309.805 34.5039 310.641 34.5039C311.469 34.5039 312.066 34.1797 312.434 33.5312C312.801 32.8828 312.992 31.8906 313.008 30.5547V26.5ZM330.176 29.9453C330.176 32.3047 329.688 34.1094 328.711 35.3594C327.734 36.6094 326.305 37.2344 324.422 37.2344C322.562 37.2344 321.141 36.6211 320.156 35.3945C319.172 34.168 318.668 32.4102 318.645 30.1211V26.9805C318.645 24.5977 319.137 22.7891 320.121 21.5547C321.113 20.3203 322.539 19.7031 324.398 19.7031C326.258 19.7031 327.68 20.3164 328.664 21.543C329.648 22.7617 330.152 24.5156 330.176 26.8047V29.9453ZM326.789 26.5C326.789 25.0859 326.594 24.0586 326.203 23.418C325.82 22.7695 325.219 22.4453 324.398 22.4453C323.602 22.4453 323.012 22.7539 322.629 23.3711C322.254 23.9805 322.055 24.9375 322.031 26.2422V30.3906C322.031 31.7812 322.219 32.8164 322.594 33.4961C322.977 34.168 323.586 34.5039 324.422 34.5039C325.25 34.5039 325.848 34.1797 326.215 33.5312C326.582 32.8828 326.773 31.8906 326.789 30.5547V26.5ZM343.957 29.9453C343.957 32.3047 343.469 34.1094 342.492 35.3594C341.516 36.6094 340.086 37.2344 338.203 37.2344C336.344 37.2344 334.922 36.6211 333.938 35.3945C332.953 34.168 332.449 32.4102 332.426 30.1211V26.9805C332.426 24.5977 332.918 22.7891 333.902 21.5547C334.895 20.3203 336.32 19.7031 338.18 19.7031C340.039 19.7031 341.461 20.3164 342.445 21.543C343.43 22.7617 343.934 24.5156 343.957 26.8047V29.9453ZM340.57 26.5C340.57 25.0859 340.375 24.0586 339.984 23.418C339.602 22.7695 339 22.4453 338.18 22.4453C337.383 22.4453 336.793 22.7539 336.41 23.3711C336.035 23.9805 335.836 24.9375 335.812 26.2422V30.3906C335.812 31.7812 336 32.8164 336.375 33.4961C336.758 34.168 337.367 34.5039 338.203 34.5039C339.031 34.5039 339.629 34.1797 339.996 33.5312C340.363 32.8828 340.555 31.8906 340.57 30.5547V26.5ZM361.289 34.7266H357.562V37H354.047V34.7266H351.668V31.8789H354.047V30.9883H351.668V28.1406H354.047V19.9375H360.68C361.961 19.9375 363.086 20.168 364.055 20.6289C365.023 21.0898 365.773 21.75 366.305 22.6094C366.844 23.4609 367.113 24.4336 367.113 25.5273C367.113 27.2148 366.539 28.5469 365.391 29.5234C364.25 30.5 362.66 30.9883 360.621 30.9883H357.562V31.8789H361.289V34.7266ZM357.562 28.1406H360.598C362.566 28.1406 363.551 27.2773 363.551 25.5508C363.551 24.7305 363.301 24.0703 362.801 23.5703C362.301 23.0625 361.609 22.8047 360.727 22.7969H357.562V28.1406ZM375.445 34.2695C376.211 33.457 376.73 32.6523 377.004 31.8555C377.277 31.0586 377.43 29.9297 377.461 28.4688L377.555 24.3203H386.883V34.2695H388.711V40.8086H385.324V37H377.812V40.8086H374.355V34.2695H375.445ZM379.441 34.2695H383.508V27.1211H380.871L380.848 28.6445C380.777 30.9727 380.309 32.8477 379.441 34.2695ZM389.906 30.543C389.906 29.2852 390.148 28.1641 390.633 27.1797C391.117 26.1953 391.812 25.4336 392.719 24.8945C393.633 24.3555 394.691 24.0859 395.895 24.0859C397.605 24.0859 399 24.6094 400.078 25.6562C401.164 26.7031 401.77 28.125 401.895 29.9219L401.918 30.7891C401.918 32.7344 401.375 34.2969 400.289 35.4766C399.203 36.6484 397.746 37.2344 395.918 37.2344C394.09 37.2344 392.629 36.6484 391.535 35.4766C390.449 34.3047 389.906 32.7109 389.906 30.6953V30.543ZM393.293 30.7891C393.293 31.9922 393.52 32.9141 393.973 33.5547C394.426 34.1875 395.074 34.5039 395.918 34.5039C396.738 34.5039 397.379 34.1914 397.84 33.5664C398.301 32.9336 398.531 31.9258 398.531 30.543C398.531 29.3633 398.301 28.4492 397.84 27.8008C397.379 27.1523 396.73 26.8281 395.895 26.8281C395.066 26.8281 394.426 27.1523 393.973 27.8008C393.52 28.4414 393.293 29.4375 393.293 30.7891ZM421.441 21.8359L414.844 37H411.27L417.879 22.6797H409.395V19.9375H421.441V21.8359ZM435.105 29.9453C435.105 32.3047 434.617 34.1094 433.641 35.3594C432.664 36.6094 431.234 37.2344 429.352 37.2344C427.492 37.2344 426.07 36.6211 425.086 35.3945C424.102 34.168 423.598 32.4102 423.574 30.1211V26.9805C423.574 24.5977 424.066 22.7891 425.051 21.5547C426.043 20.3203 427.469 19.7031 429.328 19.7031C431.188 19.7031 432.609 20.3164 433.594 21.543C434.578 22.7617 435.082 24.5156 435.105 26.8047V29.9453ZM431.719 26.5C431.719 25.0859 431.523 24.0586 431.133 23.418C430.75 22.7695 430.148 22.4453 429.328 22.4453C428.531 22.4453 427.941 22.7539 427.559 23.3711C427.184 23.9805 426.984 24.9375 426.961 26.2422V30.3906C426.961 31.7812 427.148 32.8164 427.523 33.4961C427.906 34.168 428.516 34.5039 429.352 34.5039C430.18 34.5039 430.777 34.1797 431.145 33.5312C431.512 32.8828 431.703 31.8906 431.719 30.5547V26.5ZM448.887 29.9453C448.887 32.3047 448.398 34.1094 447.422 35.3594C446.445 36.6094 445.016 37.2344 443.133 37.2344C441.273 37.2344 439.852 36.6211 438.867 35.3945C437.883 34.168 437.379 32.4102 437.355 30.1211V26.9805C437.355 24.5977 437.848 22.7891 438.832 21.5547C439.824 20.3203 441.25 19.7031 443.109 19.7031C444.969 19.7031 446.391 20.3164 447.375 21.543C448.359 22.7617 448.863 24.5156 448.887 26.8047V29.9453ZM445.5 26.5C445.5 25.0859 445.305 24.0586 444.914 23.418C444.531 22.7695 443.93 22.4453 443.109 22.4453C442.312 22.4453 441.723 22.7539 441.34 23.3711C440.965 23.9805 440.766 24.9375 440.742 26.2422V30.3906C440.742 31.7812 440.93 32.8164 441.305 33.4961C441.688 34.168 442.297 34.5039 443.133 34.5039C443.961 34.5039 444.559 34.1797 444.926 33.5312C445.293 32.8828 445.484 31.8906 445.5 30.5547V26.5ZM468.645 29.9453C468.645 32.3047 468.156 34.1094 467.18 35.3594C466.203 36.6094 464.773 37.2344 462.891 37.2344C461.031 37.2344 459.609 36.6211 458.625 35.3945C457.641 34.168 457.137 32.4102 457.113 30.1211V26.9805C457.113 24.5977 457.605 22.7891 458.59 21.5547C459.582 20.3203 461.008 19.7031 462.867 19.7031C464.727 19.7031 466.148 20.3164 467.133 21.543C468.117 22.7617 468.621 24.5156 468.645 26.8047V29.9453ZM465.258 26.5C465.258 25.0859 465.062 24.0586 464.672 23.418C464.289 22.7695 463.688 22.4453 462.867 22.4453C462.07 22.4453 461.48 22.7539 461.098 23.3711C460.723 23.9805 460.523 24.9375 460.5 26.2422V30.3906C460.5 31.7812 460.688 32.8164 461.062 33.4961C461.445 34.168 462.055 34.5039 462.891 34.5039C463.719 34.5039 464.316 34.1797 464.684 33.5312C465.051 32.8828 465.242 31.8906 465.258 30.5547V26.5ZM482.426 29.9453C482.426 32.3047 481.938 34.1094 480.961 35.3594C479.984 36.6094 478.555 37.2344 476.672 37.2344C474.812 37.2344 473.391 36.6211 472.406 35.3945C471.422 34.168 470.918 32.4102 470.895 30.1211V26.9805C470.895 24.5977 471.387 22.7891 472.371 21.5547C473.363 20.3203 474.789 19.7031 476.648 19.7031C478.508 19.7031 479.93 20.3164 480.914 21.543C481.898 22.7617 482.402 24.5156 482.426 26.8047V29.9453ZM479.039 26.5C479.039 25.0859 478.844 24.0586 478.453 23.418C478.07 22.7695 477.469 22.4453 476.648 22.4453C475.852 22.4453 475.262 22.7539 474.879 23.3711C474.504 23.9805 474.305 24.9375 474.281 26.2422V30.3906C474.281 31.7812 474.469 32.8164 474.844 33.4961C475.227 34.168 475.836 34.5039 476.672 34.5039C477.5 34.5039 478.098 34.1797 478.465 33.5312C478.832 32.8828 479.023 31.8906 479.039 30.5547V26.5ZM496.207 29.9453C496.207 32.3047 495.719 34.1094 494.742 35.3594C493.766 36.6094 492.336 37.2344 490.453 37.2344C488.594 37.2344 487.172 36.6211 486.188 35.3945C485.203 34.168 484.699 32.4102 484.676 30.1211V26.9805C484.676 24.5977 485.168 22.7891 486.152 21.5547C487.145 20.3203 488.57 19.7031 490.43 19.7031C492.289 19.7031 493.711 20.3164 494.695 21.543C495.68 22.7617 496.184 24.5156 496.207 26.8047V29.9453ZM492.82 26.5C492.82 25.0859 492.625 24.0586 492.234 23.418C491.852 22.7695 491.25 22.4453 490.43 22.4453C489.633 22.4453 489.043 22.7539 488.66 23.3711C488.285 23.9805 488.086 24.9375 488.062 26.2422V30.3906C488.062 31.7812 488.25 32.8164 488.625 33.4961C489.008 34.168 489.617 34.5039 490.453 34.5039C491.281 34.5039 491.879 34.1797 492.246 33.5312C492.613 32.8828 492.805 31.8906 492.82 30.5547V26.5ZM513.539 34.7266H509.812V37H506.297V34.7266H503.918V31.8789H506.297V30.9883H503.918V28.1406H506.297V19.9375H512.93C514.211 19.9375 515.336 20.168 516.305 20.6289C517.273 21.0898 518.023 21.75 518.555 22.6094C519.094 23.4609 519.363 24.4336 519.363 25.5273C519.363 27.2148 518.789 28.5469 517.641 29.5234C516.5 30.5 514.91 30.9883 512.871 30.9883H509.812V31.8789H513.539V34.7266ZM509.812 28.1406H512.848C514.816 28.1406 515.801 27.2773 515.801 25.5508C515.801 24.7305 515.551 24.0703 515.051 23.5703C514.551 23.0625 513.859 22.8047 512.977 22.7969H509.812V28.1406ZM226.073 61V53.6035H228.958C229.942 53.6035 230.697 53.7767 231.221 54.123C231.749 54.4648 232.014 54.9684 232.014 55.6338C232.014 55.9756 231.911 56.2855 231.706 56.5635C231.501 56.8369 231.198 57.0465 230.797 57.1924C231.243 57.2972 231.601 57.5023 231.87 57.8076C232.144 58.113 232.28 58.4775 232.28 58.9014C232.28 59.5804 232.03 60.0999 231.528 60.46C231.032 60.82 230.327 61 229.416 61H226.073ZM227.338 57.7529V59.9814H229.43C229.958 59.9814 230.353 59.8835 230.612 59.6875C230.877 59.4915 231.009 59.2158 231.009 58.8604C231.009 58.1221 230.466 57.7529 229.382 57.7529H227.338ZM227.338 56.7412H228.972C230.157 56.7412 230.749 56.3949 230.749 55.7021C230.749 55.0094 230.188 54.6517 229.067 54.6289H227.338V56.7412ZM241.687 59.3252L244.202 53.6035H245.781V61H244.517V55.6201L242.124 61H241.249L238.809 55.5039V61H237.544V53.6035H239.185L241.687 59.3252ZM250.888 61.1367C249.885 61.1367 249.069 60.8086 248.44 60.1523C247.812 59.4915 247.497 58.6097 247.497 57.5068V57.2744C247.497 56.5407 247.636 55.8867 247.914 55.3125C248.197 54.7337 248.589 54.2826 249.09 53.959C249.596 53.6309 250.143 53.4668 250.73 53.4668C251.692 53.4668 252.439 53.7835 252.973 54.417C253.506 55.0505 253.772 55.9574 253.772 57.1377V57.6641H248.762C248.78 58.3932 248.992 58.9834 249.397 59.4346C249.808 59.8812 250.327 60.1045 250.956 60.1045C251.403 60.1045 251.781 60.0133 252.091 59.8311C252.401 59.6488 252.672 59.4072 252.904 59.1064L253.677 59.708C253.057 60.6605 252.127 61.1367 250.888 61.1367ZM250.73 54.5059C250.22 54.5059 249.792 54.6927 249.445 55.0664C249.099 55.4355 248.885 55.9551 248.803 56.625H252.508V56.5293C252.471 55.8867 252.298 55.39 251.988 55.0391C251.678 54.6836 251.259 54.5059 250.73 54.5059ZM258.209 60.1045C258.66 60.1045 259.054 59.9678 259.392 59.6943C259.729 59.4209 259.916 59.0791 259.952 58.6689H261.148C261.126 59.0928 260.98 59.4961 260.711 59.8789C260.442 60.2617 260.082 60.5671 259.631 60.7949C259.184 61.0228 258.71 61.1367 258.209 61.1367C257.202 61.1367 256.4 60.8018 255.803 60.1318C255.21 59.4574 254.914 58.5368 254.914 57.3701V57.1582C254.914 56.4382 255.046 55.7979 255.311 55.2373C255.575 54.6768 255.953 54.2415 256.445 53.9316C256.942 53.6217 257.528 53.4668 258.202 53.4668C259.032 53.4668 259.72 53.7152 260.267 54.2119C260.818 54.7087 261.112 55.3535 261.148 56.1465H259.952C259.916 55.668 259.733 55.276 259.405 54.9707C259.082 54.6608 258.681 54.5059 258.202 54.5059C257.56 54.5059 257.061 54.7383 256.705 55.2031C256.354 55.6634 256.179 56.3311 256.179 57.2061V57.4453C256.179 58.2975 256.354 58.9538 256.705 59.4141C257.056 59.8743 257.557 60.1045 258.209 60.1045ZM268.224 53.6035V61H266.952V58.1221H265.045L263.302 61H261.935L263.794 57.9307C263.32 57.7575 262.955 57.4909 262.7 57.1309C262.45 56.7663 262.324 56.3424 262.324 55.8594C262.324 55.1849 262.577 54.6426 263.083 54.2324C263.589 53.8177 264.266 53.6081 265.113 53.6035H268.224ZM263.596 55.873C263.596 56.2331 263.719 56.5247 263.965 56.748C264.211 56.9668 264.537 57.0785 264.942 57.083H266.952V54.6289H265.134C264.664 54.6289 264.291 54.7451 264.013 54.9775C263.735 55.2054 263.596 55.5039 263.596 55.873ZM270.363 53.6035H271.635V59.9678H275.039V53.6035H276.304V59.9678H277.186L277.062 63.1943H275.928V61H270.363V53.6035ZM288.075 61H286.811V54.6494H283.406V61H282.135V53.6035H288.075V61ZM296.354 57.3838C296.354 58.5094 296.096 59.4163 295.581 60.1045C295.066 60.7926 294.369 61.1367 293.489 61.1367C292.591 61.1367 291.885 60.8519 291.37 60.2822V63.8438H290.105V53.6035H291.261L291.322 54.4238C291.837 53.7858 292.553 53.4668 293.469 53.4668C294.357 53.4668 295.059 53.8018 295.574 54.4717C296.094 55.1416 296.354 56.0736 296.354 57.2676V57.3838ZM295.089 57.2402C295.089 56.4062 294.911 55.7477 294.556 55.2646C294.2 54.7816 293.713 54.54 293.093 54.54C292.327 54.54 291.753 54.8796 291.37 55.5586V59.0928C291.748 59.7673 292.327 60.1045 293.106 60.1045C293.713 60.1045 294.193 59.8652 294.549 59.3867C294.909 58.9036 295.089 58.1882 295.089 57.2402ZM302.752 53.6035H304.017V61H302.752V55.6064L299.341 61H298.076V53.6035H299.341V59.0039L302.752 53.6035ZM309.294 54.0273C310.224 54.0273 310.966 54.3395 311.522 54.9639C312.083 55.5837 312.363 56.4017 312.363 57.418V57.5342C312.363 58.2314 312.229 58.8558 311.96 59.4072C311.691 59.9541 311.304 60.3802 310.798 60.6855C310.297 60.9863 309.718 61.1367 309.062 61.1367C308.068 61.1367 307.268 60.8063 306.662 60.1455C306.056 59.4801 305.753 58.5892 305.753 57.4727V56.8574C305.753 55.3034 306.04 54.0684 306.614 53.1523C307.193 52.2363 308.045 51.6781 309.171 51.4775C309.809 51.3636 310.24 51.2246 310.463 51.0605C310.686 50.8965 310.798 50.6709 310.798 50.3838H311.837C311.837 50.9535 311.707 51.3978 311.447 51.7168C311.192 52.0358 310.782 52.2614 310.217 52.3936L309.273 52.6055C308.521 52.7832 307.956 53.084 307.578 53.5078C307.204 53.9271 306.961 54.4876 306.847 55.1895C307.517 54.4147 308.332 54.0273 309.294 54.0273ZM309.048 55.0664C308.428 55.0664 307.936 55.276 307.571 55.6953C307.207 56.11 307.024 56.6865 307.024 57.4248V57.5342C307.024 58.3271 307.207 58.9561 307.571 59.4209C307.94 59.8812 308.437 60.1113 309.062 60.1113C309.69 60.1113 310.187 59.8789 310.552 59.4141C310.916 58.9492 311.099 58.2702 311.099 57.377C311.099 56.6797 310.914 56.1214 310.545 55.7021C310.18 55.2783 309.681 55.0664 309.048 55.0664ZM315.166 56.1533H317.087C317.925 56.1624 318.589 56.3812 319.076 56.8096C319.564 57.238 319.808 57.819 319.808 58.5527C319.808 59.291 319.557 59.8835 319.056 60.3301C318.554 60.7767 317.88 61 317.032 61H313.901V53.6035H315.166V56.1533ZM322.446 61H321.175V53.6035H322.446V61ZM315.166 57.1855V59.9678H317.046C317.52 59.9678 317.887 59.847 318.146 59.6055C318.406 59.3594 318.536 59.0244 318.536 58.6006C318.536 58.1904 318.409 57.8555 318.153 57.5957C317.903 57.3314 317.549 57.1947 317.094 57.1855H315.166ZM330.718 53.6035V61H329.446V54.6494H326.931L326.78 57.418C326.698 58.6895 326.484 59.5986 326.138 60.1455C325.796 60.6924 325.251 60.9772 324.504 61H323.998V59.8857L324.36 59.8584C324.771 59.8128 325.064 59.5758 325.242 59.1475C325.42 58.7191 325.534 57.9261 325.584 56.7686L325.721 53.6035H330.718ZM334.129 56.1533H336.05C336.888 56.1624 337.551 56.3812 338.039 56.8096C338.527 57.238 338.771 57.819 338.771 58.5527C338.771 59.291 338.52 59.8835 338.019 60.3301C337.517 60.7767 336.843 61 335.995 61H332.864V53.6035H334.129V56.1533ZM334.129 57.1855V59.9678H336.009C336.483 59.9678 336.85 59.847 337.109 59.6055C337.369 59.3594 337.499 59.0244 337.499 58.6006C337.499 58.1904 337.371 57.8555 337.116 57.5957C336.866 57.3314 336.512 57.1947 336.057 57.1855H334.129Z" fill="#323232"/>
<circle cx="209" cy="5" r="5" fill="#BC2A40"/>
<line x1="209.5" y1="11" x2="209.5" y2="86" stroke="#323232"/>
<g clip-path="url(#clip1)">
<path d="M239.314 143.474L227.071 124.28C228.805 123.368 229.992 121.549 229.992 119.457C229.992 117.167 228.571 115.204 226.564 114.401L230.273 101.433C230.433 100.874 230.277 100.272 229.866 99.8601C227.399 97.3929 223.384 97.3929 220.917 99.8601C220.327 100.45 219.542 100.775 218.708 100.775C217.873 100.775 217.088 100.45 216.494 99.8563L216.486 99.8484C214.028 97.3896 210.02 97.3827 207.552 99.8339L207.506 99.8797C206.288 101.089 204.309 101.086 203.095 99.8718L203.083 99.8601C200.616 97.3929 196.601 97.3929 194.134 99.8601C193.722 100.272 193.567 100.874 193.727 101.434L197.444 114.398C195.433 115.199 194.008 117.164 194.008 119.457C194.008 121.549 195.195 123.369 196.929 124.28L184.686 143.474C179.949 150.899 179.649 159.943 183.883 167.666C188.117 175.389 195.903 180 204.71 180H219.29C228.097 180 235.883 175.389 240.117 167.666C244.351 159.943 244.051 150.899 239.314 143.474ZM200.818 102.125L200.83 102.137C203.288 104.596 207.296 104.602 209.764 102.151L209.81 102.106C211.028 100.896 213.007 100.899 214.225 102.117L214.233 102.125C216.7 104.592 220.715 104.592 223.182 102.125C224.186 101.121 225.709 100.944 226.895 101.595L223.344 114.012H200.666L197.105 101.595C198.292 100.944 199.814 101.121 200.818 102.125ZM237.308 166.126C233.645 172.808 226.909 176.797 219.29 176.797H204.71C197.091 176.797 190.355 172.808 186.692 166.126C183.029 159.445 183.288 151.621 187.386 145.197L200.332 124.903H204.793C205.677 124.903 206.394 124.186 206.394 123.301C206.394 122.417 205.677 121.7 204.793 121.7H199.454C198.217 121.7 197.211 120.694 197.211 119.457C197.211 118.221 198.217 117.215 199.454 117.215H199.459H224.546C225.783 117.215 226.789 118.221 226.789 119.457C226.789 120.694 225.783 121.7 224.546 121.7H219.208C218.323 121.7 217.606 122.417 217.606 123.301C217.606 124.186 218.323 124.903 219.208 124.903H223.668L236.614 145.197C240.712 151.62 240.971 159.445 237.308 166.126Z" fill="#BC2A40"/>
<path d="M214.824 150.307C214.422 150.165 214.012 150.017 213.602 149.863V142.604C214.688 142.924 215.413 143.442 215.444 143.464C216.148 143.992 217.148 143.852 217.68 143.149C218.214 142.444 218.076 141.44 217.371 140.906C217.277 140.834 215.788 139.729 213.602 139.31V137.716C213.602 136.832 212.885 136.115 212 136.115C211.115 136.115 210.398 136.832 210.398 137.716V139.299C210.127 139.351 209.852 139.417 209.573 139.5C207.319 140.178 205.634 142.106 205.176 144.531C204.758 146.747 205.468 148.883 207.028 150.107C207.875 150.771 208.933 151.378 210.398 152.022V161.311C209.137 161.231 208.293 160.944 206.887 160.024C206.147 159.539 205.154 159.747 204.67 160.487C204.185 161.228 204.393 162.22 205.133 162.705C207.184 164.046 208.573 164.426 210.398 164.516V166.173C210.398 167.057 211.115 167.774 212 167.774C212.885 167.774 213.602 167.057 213.602 166.173V164.35C217.032 163.599 219.037 160.737 219.488 158.059C220.076 154.559 218.245 151.516 214.824 150.307ZM209.005 147.586C208.389 147.103 208.128 146.16 208.324 145.126C208.504 144.174 209.144 143.026 210.398 142.602V148.467C209.872 148.187 209.397 147.893 209.005 147.586ZM216.328 157.528C216.098 158.9 215.172 160.355 213.602 160.998V153.272C213.654 153.29 213.703 153.308 213.756 153.327C216.628 154.342 216.451 156.799 216.328 157.528Z" fill="#BC2A40"/>
<path d="M212 124.903C212.421 124.903 212.835 124.732 213.132 124.434C213.43 124.136 213.602 123.722 213.602 123.301C213.602 122.88 213.43 122.467 213.132 122.169C212.835 121.871 212.421 121.7 212 121.7C211.579 121.7 211.166 121.871 210.868 122.169C210.57 122.467 210.398 122.88 210.398 123.301C210.398 123.722 210.57 124.136 210.868 124.434C211.166 124.732 211.579 124.903 212 124.903Z" fill="#BC2A40"/>
</g>
<defs>
<clipPath id="clip0">
<rect width="77" height="77" fill="white" transform="translate(176 208)"/>
</clipPath>
<clipPath id="clip1">
<rect width="82" height="82" fill="white" transform="translate(171 98)"/>
</clipPath>
</defs>
</svg>
