<svg width="76" height="76" viewBox="0 0 76 76" fill="none" xmlns="http://www.w3.org/2000/svg">
<g clip-path="url(#clip0)">
<path d="M9.54761 53.4064C9.54761 54.2942 9.89347 55.1291 10.5212 55.7569C11.149 56.3847 11.9838 56.7305 12.8716 56.7305C13.7594 56.7305 14.5942 56.3847 15.2219 55.7569L23.5209 47.458L27.2599 51.1969C28.5559 52.4928 30.6648 52.4928 31.9608 51.1969L42.7363 40.4211L44.2199 41.9048C44.7809 42.4656 45.617 42.6321 46.3497 42.3284C47.0826 42.0248 47.5562 41.3161 47.5562 40.5227V32.9415C47.5562 31.864 46.6794 30.9872 45.6019 30.9872H38.0207C37.2275 30.9872 36.5189 31.4607 36.2151 32.1935C35.9116 32.9264 36.0778 33.7625 36.6388 34.3236L38.0354 35.7201L29.6103 44.1454L25.8713 40.4064C24.5753 39.1106 22.4664 39.1106 21.1704 40.4064L10.5212 51.0559C9.89347 51.6838 9.54761 52.5186 9.54761 53.4064V53.4064ZM12.0881 52.6231L22.7375 41.9738C22.9534 41.7577 23.2373 41.6497 23.5209 41.6497C23.8046 41.6497 24.0884 41.7577 24.3044 41.9738L28.8268 46.4962C29.2595 46.9288 29.961 46.9288 30.3937 46.4962L40.3859 36.504C40.8186 36.0712 40.8186 35.3698 40.3859 34.937L38.6523 33.2035H45.3402V39.8914L43.5199 38.0709C43.3119 37.8631 43.0302 37.7464 42.7363 37.7464C42.4424 37.7464 42.1607 37.8631 41.9527 38.0709L30.3937 49.63C29.9616 50.0623 29.2588 50.0623 28.8268 49.63L24.3044 45.1076C23.8717 44.675 23.1702 44.675 22.7375 45.1076L13.655 54.19C12.3462 55.2367 11.208 53.4575 12.0881 52.6231V52.6231Z" fill="#362F4C"/>
<path d="M73.1395 26.6457C74.7168 26.6457 76 25.3626 76 23.7851V17.558C76 15.9808 74.7168 14.6975 73.1395 14.6975H65.5896C64.9776 14.6975 64.4815 15.1936 64.4815 15.8056C64.4815 16.4176 64.9776 16.9137 65.5896 16.9137H73.1395C73.4948 16.9137 73.784 17.2028 73.784 17.5582V23.7853C73.784 24.1407 73.4948 24.4298 73.1395 24.4298H2.86054C2.50518 24.4298 2.21602 24.1407 2.21602 23.7853V17.5582C2.21602 17.2028 2.50518 16.9137 2.86054 16.9137H60.4006C61.0126 16.9137 61.5086 16.4176 61.5086 15.8056C61.5086 15.1936 61.0126 14.6975 60.4006 14.6975H51.7656L42.8143 8.03355C42.8992 7.67092 42.9456 7.29374 42.9456 6.90558C42.9456 4.17848 40.7271 1.96008 38.0001 1.96008C35.2732 1.96008 33.0547 4.17863 33.0547 6.90558C33.0547 7.29374 33.101 7.67107 33.186 8.03355L24.317 14.6362C24.2909 14.6556 24.2666 14.6764 24.2428 14.6975H2.86054C1.28324 14.6975 0 15.9808 0 17.558V23.7851C0 25.3624 1.28324 26.6457 2.86054 26.6457H5.1824V29.5555C5.1824 30.1675 5.67848 30.6636 6.29048 30.6636C6.90249 30.6636 7.39857 30.1675 7.39857 29.5555V26.6457H68.6019V62.092H7.39842V34.9356C7.39842 34.3236 6.90234 33.8275 6.29034 33.8275C5.67833 33.8275 5.18225 34.3236 5.18225 34.9356V62.092H2.86054C1.28324 62.0918 0 63.3751 0 64.9522V71.1793C0 72.7566 1.28324 74.0399 2.86054 74.0399H22.3124C22.9244 74.0399 23.4205 73.5438 23.4205 72.9318C23.4205 72.3198 22.9244 71.8237 22.3124 71.8237H2.86054C2.50518 71.8237 2.21602 71.5345 2.21602 71.1792V64.9521C2.21602 64.5967 2.50518 64.3077 2.86054 64.3077H73.1395C73.4948 64.3077 73.784 64.5967 73.784 64.9521V71.1792C73.784 71.5345 73.4948 71.8237 73.1395 71.8237H27.6057C26.9938 71.8237 26.4976 72.3198 26.4976 72.9318C26.4976 73.5438 26.9937 74.0399 27.6057 74.0399H73.1396C74.7169 74.0399 76.0001 72.7566 76.0001 71.1793V64.9522C76.0001 63.3751 74.7169 62.0918 73.1396 62.0918H70.8178V26.6457H73.1395ZM38 4.17611C39.505 4.17611 40.7295 5.40057 40.7295 6.90558C40.7295 8.41058 39.505 9.63505 38 9.63505C36.495 9.63505 35.2705 8.41058 35.2705 6.90558C35.2705 5.40057 36.495 4.17611 38 4.17611V4.17611ZM34.1865 10.0513C35.0943 11.1498 36.4668 11.8512 38 11.8512C39.5332 11.8512 40.9057 11.1498 41.8135 10.0513L48.0547 14.6977H27.9453L34.1865 10.0513Z" fill="#362F4C"/>
<path d="M58.0262 58.0659C61.3156 58.0659 63.9919 55.3896 63.9919 52.1002C63.9919 48.8109 61.3156 46.1345 58.0262 46.1345C54.7369 46.1345 52.0605 48.8109 52.0605 52.1002C52.0605 55.3896 54.7369 58.0659 58.0262 58.0659ZM58.0262 48.3505C60.0938 48.3505 61.7759 50.0326 61.7759 52.1002C61.7759 54.1678 60.0938 55.8499 58.0262 55.8499C55.9587 55.8499 54.2766 54.1678 54.2766 52.1002C54.2766 50.0326 55.9587 48.3505 58.0262 48.3505Z" fill="#362F4C"/>
<path d="M58.0262 42.9865C61.3156 42.9865 63.9919 40.3101 63.9919 37.0208C63.9919 33.7314 61.3156 31.0551 58.0262 31.0551C54.7369 31.0551 52.0605 33.7314 52.0605 37.0208C52.0605 40.3101 54.7369 42.9865 58.0262 42.9865ZM58.0262 33.2712C60.0938 33.2712 61.7759 34.9533 61.7759 37.0209C61.7759 39.0885 60.0938 40.7706 58.0262 40.7706C55.9587 40.7706 54.2766 39.0885 54.2766 37.0209C54.2766 34.9532 55.9587 33.2712 58.0262 33.2712Z" fill="#362F4C"/>
<path d="M19.1359 56.3695C18.5239 56.3695 18.0278 56.8656 18.0278 57.4776C18.0278 58.0896 18.5239 58.5857 19.1359 58.5857H29.6067C30.2187 58.5857 30.7148 58.0896 30.7148 57.4776C30.7148 56.8656 30.2187 56.3695 29.6067 56.3695H19.1359Z" fill="#362F4C"/>
<path d="M19.1359 33.2712H29.6067C30.2187 33.2712 30.7148 32.7751 30.7148 32.1631C30.7148 31.5511 30.2187 31.0551 29.6067 31.0551H19.1359C18.5239 31.0551 18.0278 31.5511 18.0278 32.1631C18.0278 32.7751 18.5239 33.2712 19.1359 33.2712V33.2712Z" fill="#362F4C"/>
<path d="M19.1359 37.6018H29.6067C30.2187 37.6018 30.7148 37.1057 30.7148 36.4937C30.7148 35.8817 30.2187 35.3856 29.6067 35.3856H19.1359C18.5239 35.3856 18.0278 35.8817 18.0278 36.4937C18.0278 37.1059 18.5239 37.6018 19.1359 37.6018V37.6018Z" fill="#362F4C"/>
<path d="M35.1716 56.3695C34.5596 56.3695 34.0635 56.8656 34.0635 57.4776C34.0635 58.0896 34.5596 58.5857 35.1716 58.5857H38.6435C39.2555 58.5857 39.7516 58.0896 39.7516 57.4776C39.7516 56.8656 39.2555 56.3695 38.6435 56.3695H35.1716Z" fill="#362F4C"/>
</g>
<defs>
<clipPath id="clip0">
<rect width="76" height="76" fill="white"/>
</clipPath>
</defs>
</svg>
