<svg width="55" height="55" viewBox="0 0 55 55" fill="none" xmlns="http://www.w3.org/2000/svg">
<g clip-path="url(#clip0)">
<path d="M51.8968 4.11353H2.5523C1.14513 4.11353 0 5.24921 0 6.64478V50.5232C0 50.9897 0.380293 51.3669 0.850768 51.3669H53.5984C54.0688 51.3669 54.4491 50.9897 54.4491 50.5232V6.64478C54.4491 5.24921 53.304 4.11353 51.8968 4.11353V4.11353ZM1.70154 9.17603H52.7476V49.6794H1.70154V9.17603ZM2.5523 5.80103H3.42009C2.95046 5.80103 2.57442 6.17818 2.57442 6.64478C2.57442 7.11137 2.95897 7.48853 3.42945 7.48853C3.89907 7.48853 4.28021 7.11137 4.28021 6.64478C4.28021 6.17818 3.89907 5.80103 3.42945 5.80103H5.97154C5.50192 5.80103 5.12588 6.17818 5.12588 6.64478C5.12588 7.11137 5.51042 7.48853 5.9809 7.48853C6.45052 7.48853 6.83167 7.11137 6.83167 6.64478C6.83167 6.17818 6.45052 5.80103 5.9809 5.80103H8.5264C8.05677 5.80103 7.68073 6.17818 7.68073 6.64478C7.68073 7.11137 8.06528 7.48853 8.53575 7.48853C9.00538 7.48853 9.38652 7.11137 9.38652 6.64478C9.38652 6.17818 9.00538 5.80103 8.53575 5.80103H51.8968C52.3665 5.80103 52.7476 6.17903 52.7476 6.64478V7.48853H8.5349H5.98005H3.42859H1.70154V6.64478C1.70154 6.17903 2.08268 5.80103 2.5523 5.80103V5.80103Z" fill="#CE1625"/>
<path d="M27.2247 36.1761C34.2614 36.1761 39.9862 30.4985 39.9862 23.519C39.9862 16.5395 34.2614 10.8628 27.2247 10.8628C20.188 10.8628 14.4631 16.5404 14.4631 23.519C14.4631 30.4977 20.188 36.1761 27.2247 36.1761ZM27.2247 12.5503C33.323 12.5503 38.2846 17.471 38.2846 23.519C38.2846 29.5679 33.323 34.4886 27.2247 34.4886C21.1263 34.4886 16.1647 29.5679 16.1647 23.519C16.1647 17.471 21.1263 12.5503 27.2247 12.5503V12.5503Z" fill="#CE1625"/>
<path d="M34.4603 43.7756H19.9853C18.8121 43.7756 17.8584 44.7215 17.8584 45.885C17.8584 47.0485 18.8121 47.9944 19.9853 47.9944H34.4603C35.6335 47.9944 36.5872 47.0485 36.5872 45.885C36.5872 44.7215 35.6335 43.7756 34.4603 43.7756ZM19.9853 46.3069C19.7514 46.3069 19.5599 46.117 19.5599 45.885C19.5599 45.653 19.7514 45.4631 19.9853 45.4631H34.4603C34.6942 45.4631 34.8857 45.653 34.8857 45.885C34.8857 46.117 34.6942 46.3069 34.4603 46.3069H19.9853Z" fill="#CE1625"/>
<path d="M46.7966 37.8721H7.64935C7.17888 37.8721 6.79858 38.2492 6.79858 38.7158C6.79858 39.1824 7.17888 39.5596 7.64935 39.5596H46.7966C47.2671 39.5596 47.6474 39.1824 47.6474 38.7158C47.6474 38.2492 47.2671 37.8721 46.7966 37.8721Z" fill="#CE1625"/>
<path d="M39.1378 40.4041H15.3078C14.8373 40.4041 14.457 40.7812 14.457 41.2478C14.457 41.7144 14.8373 42.0916 15.3078 42.0916H39.1378C39.6083 42.0916 39.9886 41.7144 39.9886 41.2478C39.9886 40.7812 39.6083 40.4041 39.1378 40.4041Z" fill="#CE1625"/>
<path d="M24.9205 28.3342C25.0864 28.4987 25.3042 28.5814 25.522 28.5814C25.7398 28.5814 25.9576 28.4987 26.1235 28.3342L33.7796 20.7413C34.1122 20.4114 34.1122 19.8781 33.7796 19.5482C33.4469 19.2183 32.9092 19.2183 32.5766 19.5482L25.522 26.5446L22.723 23.7686C22.3903 23.4387 21.8526 23.4387 21.52 23.7686C21.1873 24.0986 21.1873 24.6318 21.52 24.9617L24.9205 28.3342Z" fill="#CE1625"/>
</g>
<defs>
<clipPath id="clip0">
<rect width="54.4491" height="54" fill="white" transform="translate(0 0.740234)"/>
</clipPath>
</defs>
</svg>
