<svg width="61" height="61" viewBox="0 0 61 61" fill="none" xmlns="http://www.w3.org/2000/svg">
<path d="M58.1225 29.5469C57.6306 15.0395 45.9605 3.36942 31.4531 2.87748V0H29.5469V2.87748C15.0395 3.36942 3.36942 15.0395 2.87748 29.5469H0V31.4531H2.87748C3.36942 45.9605 15.0395 57.6306 29.5469 58.1225V61H31.4531V58.1214C45.9529 57.6133 57.6133 45.9529 58.1214 31.4531H61V29.5469H58.1225ZM30.5 56.2344C16.2872 56.2344 4.76562 44.7128 4.76562 30.5C4.76562 16.2872 16.2872 4.76562 30.5 4.76562C44.7062 4.78135 56.2186 16.2938 56.2344 30.5C56.2344 44.7128 44.7128 56.2344 30.5 56.2344Z" fill="#D31A2C"/>
<path d="M36.4905 11.397C34.775 10.1016 32.6582 9.43763 30.5 9.53116C28.328 9.43704 26.1976 10.1095 24.4764 11.4213L24.4724 11.4088C16.133 14.0354 10.4633 21.7712 10.4697 30.5146C10.4778 41.5689 19.4457 50.5236 30.5 50.5155C39.2748 50.5228 47.0312 44.8139 49.6326 36.4336C52.9055 25.8896 47.0226 14.6902 36.4905 11.397ZM25.7344 12.8347C27.132 11.87 28.8027 11.3801 30.5 11.4374C32.1972 11.3799 33.8679 11.8693 35.2656 12.8337V17.0186C34.7891 16.8932 34.3125 16.6548 34.3125 16.203C34.3125 15.6767 33.8857 15.2499 33.3594 15.2499H27.6406C27.1143 15.2499 26.6875 15.6767 26.6875 16.203C26.6875 16.6548 26.2109 16.8931 25.7344 17.0186V12.8347ZM25.7344 18.9738C26.8804 18.8639 27.8921 18.1792 28.4203 17.1562H32.5797C33.1079 18.1792 34.1196 18.8639 35.2656 18.9738V20.0155C35.2656 22.6538 34.017 25.7343 30.5 25.7343C26.983 25.7343 25.7344 22.6538 25.7344 20.0155V18.9738ZM33.2032 28.3553L30.5 31.0584L27.796 28.3544L28.1593 27.227C28.8755 27.4961 29.6604 27.6405 30.5 27.6405C31.3391 27.6405 32.1235 27.4964 32.8393 27.2275L33.2032 28.3553ZM19.1626 31.027L18.2095 32.9332C18.1435 33.0656 18.1093 33.2114 18.1094 33.3593V43.705C15.9146 41.6503 14.2011 39.0207 13.2309 35.9496C10.3489 26.8263 15.0646 17.1214 23.8281 13.6591V18.1093V20.0155C23.8281 22.7174 24.8232 24.9277 26.471 26.2605L25.9612 27.8407L19.6392 30.579C19.4324 30.6674 19.2636 30.8261 19.1626 31.027ZM40.9844 45.2643C40.0954 45.8951 39.1407 46.4522 38.125 46.9221V41.9374H36.2188V47.6562H36.278C36.1704 47.6924 36.0628 47.7286 35.9541 47.763C32.1441 48.9665 28.2331 48.844 24.7172 47.6562H24.7813V41.9374H22.875V46.9205C21.8745 46.4557 20.9172 45.9001 20.0156 45.2611V33.5842L20.7114 32.1888L26.4504 29.7043L29.5469 32.8008V38.1249H31.4531V32.8008L34.5492 29.7046L40.2877 32.1888L40.9844 33.5842V45.2643ZM42.8906 43.7063V33.3593C42.8923 33.2118 42.8597 33.066 42.7953 32.9332L41.8422 31.027C41.7412 30.8261 41.5723 30.6674 41.3656 30.579L35.0369 27.8407L34.5274 26.2617C36.1762 24.929 37.1719 22.7182 37.1719 20.0155V18.1093V13.6616C42.2122 15.659 46.1199 19.8242 47.7675 25.0398C49.9346 31.9 47.8059 39.0896 42.8906 43.7063Z" fill="#D31A2C"/>
<path d="M7.62491 3.81253V6.27695L1.62701 0.279053L0.279053 1.62701L6.27707 7.62503H3.81241V9.53127H8.57803C9.10439 9.53127 9.53115 9.10451 9.53115 8.57815V3.81253H7.62491Z" fill="#D31A2C"/>
<path d="M60.7191 1.62518L59.371 0.277344L53.375 6.27333V3.81248H51.4688V8.57811C51.4688 9.10447 51.8955 9.53123 52.4219 9.53123H57.1875V7.62498H54.7193L60.7191 1.62518Z" fill="#D31A2C"/>
<path d="M8.57803 51.4688H3.81241V53.375H6.27219L0.27417 59.373L1.62213 60.721L7.62491 54.7182V57.1875H9.53116V52.4219C9.53116 51.8955 9.1044 51.4688 8.57803 51.4688Z" fill="#D31A2C"/>
<path d="M54.723 53.375H57.1875V51.4688H52.4219C51.8955 51.4688 51.4688 51.8955 51.4688 52.4219V57.1875H53.375V54.723L59.371 60.7189L60.7189 59.371L54.723 53.375Z" fill="#D31A2C"/>
</svg>
