<svg width="138" height="138" viewBox="0 0 138 138" fill="none" xmlns="http://www.w3.org/2000/svg">
<circle cx="69" cy="69" r="69" fill="#A7111F"/>
<g clip-path="url(#clip0)">
<path d="M58.4719 86.1677C57.7386 86.1677 57.144 86.7621 57.144 87.4956V94.4888C57.144 95.2223 57.7386 95.8166 58.4719 95.8166C59.2053 95.8166 59.7998 95.2223 59.7998 94.4888V87.4956C59.7998 86.7621 59.2053 86.1677 58.4719 86.1677Z" fill="white"/>
<path d="M84.1755 86.1677C83.4422 86.1677 82.8477 86.7621 82.8477 87.4956V94.4888C82.8477 95.2223 83.4422 95.8166 84.1755 95.8166C84.9089 95.8166 85.5034 95.2223 85.5034 94.4888V87.4956C85.5034 86.7621 84.9089 86.1677 84.1755 86.1677Z" fill="white"/>
<path d="M109.977 81.5318L105.531 79.748V78.6124C106.404 78.1273 107.188 77.4961 107.847 76.7511C110.66 77.0831 113.351 75.9604 115.093 73.7018C116.894 71.3661 117.269 68.3561 116.095 65.6499L114.099 61.0462C113.949 60.7002 113.845 60.3353 113.792 59.9621C113.361 56.9717 111.867 54.2352 109.584 52.2569C107.3 50.2783 104.379 49.1889 101.358 49.1889C98.3364 49.1889 95.4151 50.2783 93.1316 52.2569C90.8484 54.2352 89.3537 56.9716 88.9235 59.9621C88.8697 60.3355 88.7665 60.7004 88.6163 61.0462L86.6199 65.6499C85.4464 68.3559 85.8212 71.3659 87.6227 73.7018C89.1638 75.6998 91.447 76.8132 93.9 76.8131C94.2164 76.8131 94.536 76.7943 94.8572 76.7566C95.4556 77.4352 96.1574 78.0197 96.9391 78.485V79.7479L92.493 81.5318C92.2032 81.6481 91.9203 81.7797 91.6444 81.9252C90.7841 80.3429 89.5559 78.9593 88.0276 77.9081L82.2365 73.9254C82.2699 73.194 81.9775 72.4573 81.3817 71.9518L79.0285 69.955C78.8054 69.7656 78.5547 69.6225 78.2898 69.5253V66.837C80.7772 65.0328 82.541 62.2917 83.058 59.1349H83.1996C85.7315 59.1349 87.7913 57.0751 87.7913 54.5435C87.7913 53.4626 87.4149 52.4683 86.7876 51.6831L87.7367 44.9355C88.4208 40.0712 85.0248 35.5261 80.1661 34.8034L79.9771 34.7754C78.4235 32.2397 76.0172 30.4103 73.1301 29.5916L72.7825 29.493C68.9547 28.4076 64.8602 29.0555 61.549 31.2707C60.9394 31.6785 60.7758 32.5032 61.1836 33.1126C61.5913 33.722 62.4159 33.8858 63.0256 33.4778C65.6886 31.6964 68.9807 31.1753 72.058 32.048L72.4056 32.1466C74.8214 32.8316 76.8046 34.4281 77.9897 36.6419C78.8051 38.1651 79.165 39.8401 79.0611 41.5158L78.161 40.742C77.3382 40.0349 76.1284 40.0161 75.2846 40.6978L74.1038 41.6516H67.3637C62.99 41.6516 59.4317 45.2099 59.4317 49.5836V49.9524C59.0795 49.9536 58.7371 49.9958 58.4078 50.0724C56.9066 45.8462 57.3299 41.0846 59.5862 37.1897C59.9538 36.555 59.7374 35.7427 59.1029 35.3749C58.4683 35.0076 57.656 35.2237 57.2883 35.8583C54.5596 40.5689 54.1172 46.3604 56.0789 51.429C55.3213 52.248 54.8572 53.3424 54.8572 54.5435C54.8572 57.0751 56.917 59.1349 59.4489 59.1349H59.5905C60.1075 62.2917 61.8713 65.0328 64.3586 66.837V69.5253C64.0938 69.6223 63.8431 69.7656 63.6202 69.9548L61.2668 71.9518C60.671 72.4573 60.3785 73.1942 60.412 73.9254L54.6209 77.9081C53.444 78.7174 52.4447 79.7238 51.6544 80.8663C51.1422 80.5834 50.6084 80.3415 50.0556 80.1457L46.1237 78.753V77.7065C48.1265 76.4691 49.5662 74.4064 49.9673 71.9964H50.5614C52.8913 71.9964 54.7866 70.1011 54.7866 67.7715C54.7866 66.7254 54.4038 65.7679 53.7719 65.0293L54.009 62.2229C54.3385 58.1815 52.575 54.348 49.2916 51.969C46.0082 49.5896 41.8162 49.1075 38.0783 50.679L35.4316 51.7918C31.3334 52.6965 28.5943 56.6235 29.1794 60.7948L29.7715 65.0157C29.1327 65.7561 28.7451 66.7191 28.7451 67.7715C28.7451 70.1011 30.6404 71.9964 32.9702 71.9964H33.5644C33.9394 74.2501 35.2232 76.1992 37.0259 77.4547V78.753L33.094 80.1455C32.5434 80.3406 32.0009 80.5849 31.4818 80.8721C30.84 81.2269 30.6073 82.0348 30.9621 82.6766C31.2043 83.1148 31.6578 83.3622 32.1254 83.3622C32.3426 83.3622 32.563 83.3087 32.7666 83.1961C33.1585 82.9794 33.5669 82.7952 33.9803 82.6488L37.3779 81.4454C38.0659 83.0853 39.6877 84.24 41.5745 84.24C43.4614 84.24 45.0832 83.0853 45.7712 81.4454L49.1688 82.649C49.5962 82.8002 50.0087 82.9884 50.4041 83.2094C49.8766 84.5465 49.5939 85.9873 49.5939 87.4658V95.3435C49.5939 96.077 50.1884 96.6714 50.9217 96.6714C51.6551 96.6714 52.2496 96.077 52.2496 95.3435V87.4658C52.2496 84.5204 53.6986 81.7655 56.1254 80.0965L61.6558 76.2931L63.9226 79.3238C64.4098 79.9754 65.1738 80.3424 65.9618 80.3424C66.2072 80.3424 66.4551 80.3068 66.6975 80.233L69.9961 79.2291V95.8995C69.9961 96.633 70.5906 97.2273 71.324 97.2273C72.0573 97.2273 72.6519 96.633 72.6519 95.8995V79.2291L75.9508 80.2332C76.1932 80.3068 76.4407 80.3424 76.6861 80.3424C77.474 80.3424 78.2382 79.9752 78.7254 79.3238L80.992 76.2931L86.5223 80.0965C88.9493 81.7655 90.3982 84.5204 90.3982 87.4658V95.3435C90.3982 96.077 90.9927 96.6714 91.726 96.6714C92.4594 96.6714 93.0539 96.077 93.0539 95.3435V87.4658C93.0539 86.42 92.9121 85.3929 92.643 84.4078C92.9121 84.2508 93.192 84.113 93.4815 83.9969L97.3371 82.4498C98.0202 83.9201 99.5101 84.9425 101.235 84.9425C102.96 84.9425 104.45 83.9202 105.133 82.45L108.989 83.9969C111.427 84.9749 113.002 87.3044 113.002 89.9313V92.1789C113.002 92.9124 113.597 93.5068 114.33 93.5068C115.063 93.5068 115.658 92.9124 115.658 92.1789V89.9313C115.658 86.2132 113.428 82.9164 109.977 81.5318ZM57.5124 54.5433C57.5124 53.4817 58.3717 52.6177 59.4311 52.6083V56.4779C58.3719 56.4687 57.5124 55.6049 57.5124 54.5433ZM50.5611 69.3405H50.0816V66.2017H50.5611C51.4265 66.2017 52.1305 66.9059 52.1305 67.7711C52.1305 68.6363 51.4265 69.3405 50.5611 69.3405ZM31.4005 67.7713C31.4005 66.9059 32.1045 66.2019 32.9699 66.2019H33.4493V69.3407H32.9699C32.1046 69.3405 31.4005 68.6365 31.4005 67.7713ZM35.0621 59.4529C34.1813 60.6693 33.6487 62.0699 33.4963 63.546H32.9699C32.7263 63.546 32.488 63.5679 32.2555 63.6076L31.8092 60.4255C31.4122 57.5962 33.2946 54.9344 36.0945 54.3655C36.1802 54.3482 36.2641 54.3223 36.3448 54.2884L39.1075 53.1267C41.9832 51.9176 45.2076 52.2889 47.7332 54.1189C50.2589 55.9493 51.6154 58.8979 51.3622 62.0026L51.2273 63.5987C51.0103 63.5642 50.7879 63.5458 50.5611 63.5458H50.07C49.9556 62.4199 49.0022 61.5382 47.8466 61.5382H44.5676C42.2307 61.5382 39.9182 60.7604 38.0564 59.3485L37.6807 59.0636C37.2862 58.7644 36.7788 58.6344 36.2896 58.7074C35.7999 58.7803 35.3525 59.0521 35.0621 59.4529ZM37.2131 61.0106C37.2127 61.0111 37.2126 61.0115 37.2124 61.0118C37.2126 61.0115 37.2129 61.0111 37.2131 61.0106ZM36.1053 64.4298C36.1053 63.4695 36.3367 62.5414 36.7798 61.7057C39.0413 63.3131 41.7907 64.1943 44.5678 64.1943H47.4259V70.6273C47.4259 73.7485 44.8866 76.2878 41.7656 76.2878C38.6445 76.2878 36.1053 73.7485 36.1053 70.6273V64.4298ZM41.5744 81.5842C40.5305 81.5842 39.6813 80.7349 39.6813 79.6912V78.6788C40.3476 78.8515 41.0461 78.9435 41.7656 78.9435C42.3488 78.9435 42.9178 78.8826 43.4676 78.7677V79.6912C43.4676 80.7349 42.6183 81.5842 41.5744 81.5842ZM83.2163 56.4779V52.6083C84.2757 52.6175 85.135 53.4817 85.135 54.5433C85.135 55.6049 84.2757 56.4687 83.2163 56.4779ZM85.1063 44.5651L84.3287 50.0926C83.9725 50.0021 83.5998 49.9534 83.2161 49.952V49.8446C83.2161 47.7037 82.5539 45.6444 81.3548 43.9236C81.8776 41.9099 81.8592 39.8366 81.3179 37.866C83.8829 38.9607 85.5117 41.6832 85.1063 44.5651ZM62.0871 57.2067V49.5832C62.0871 46.6738 64.4541 44.307 67.3634 44.307H74.5729C74.8765 44.307 75.1709 44.2028 75.4071 44.0122L76.6877 42.9777L77.8773 44.0001C79.5825 45.4657 80.5603 47.5962 80.5603 49.8446V57.2065C80.5603 62.2997 76.4168 66.4432 71.3236 66.4432C66.2304 66.4432 62.0871 62.2997 62.0871 57.2067ZM71.3238 69.0992C72.8438 69.0992 74.2963 68.8095 75.6337 68.2876V69.989L71.3238 72.1023L67.0139 69.989V68.2876C68.3511 68.8093 69.8038 69.0992 71.3238 69.0992ZM66.001 77.6686L63.1405 73.8441L65.2292 72.0717L69.9957 74.4087V76.4528L66.001 77.6686ZM76.6465 77.6686L72.6517 76.4529V74.4089L77.4182 72.0718L79.5069 73.8443L76.6465 77.6686ZM89.7254 72.0798C88.5232 70.521 88.273 68.5126 89.0563 66.7067L91.0527 62.103C91.2967 61.5407 91.4647 60.9478 91.552 60.3405C92.249 55.4973 96.4644 51.8449 101.358 51.8449C106.251 51.8449 110.466 55.4973 111.163 60.3405C111.25 60.9476 111.418 61.5405 111.662 62.103L113.659 66.7067C114.442 68.5124 114.192 70.521 112.99 72.0798C112.099 73.2338 110.838 73.9443 109.453 74.1148C109.739 73.3719 109.926 72.58 109.994 71.7546C110.055 71.0237 109.511 70.3821 108.781 70.3215C108.05 70.2622 107.408 70.8045 107.348 71.5352C107.092 74.6242 104.461 77.0439 101.358 77.0439C98.0419 77.0439 95.3448 74.3468 95.3448 71.0311V64.661C95.3448 63.2485 95.7605 61.8594 96.5262 60.6802C98.2445 61.9918 100.363 62.742 102.526 62.7992L107.37 62.927V65.9857C107.37 66.7192 107.965 67.3136 108.698 67.3136C109.432 67.3136 110.026 66.7192 110.026 65.9857V62.5674C110.026 61.3185 109.048 60.3144 107.8 60.2817L102.596 60.1447C100.911 60.1 99.2632 59.4897 97.9561 58.4266L97.613 58.1473C97.2082 57.8182 96.6999 57.6674 96.181 57.7231C95.6624 57.7785 95.1973 58.0335 94.8717 58.4405C93.464 60.1994 92.6885 62.4086 92.6885 64.6616V71.0317C92.6885 72.1165 92.8905 73.1545 93.2561 74.1123C91.874 73.9406 90.6143 73.2324 89.7254 72.0798ZM101.235 82.2866C100.33 82.2866 99.5943 81.5508 99.5943 80.646V79.5191C100.164 79.6372 100.753 79.6999 101.357 79.6999C101.874 79.6999 102.381 79.6514 102.875 79.5621V80.6462C102.875 81.5508 102.139 82.2866 101.235 82.2866Z" fill="white"/>
<path d="M28.7948 84.9673C28.1348 84.6471 27.3407 84.9236 27.0209 85.5837C26.3096 87.0534 25.9487 88.6252 25.9487 90.2557V94.4886C25.9487 95.2221 26.5433 95.8165 27.2766 95.8165C28.01 95.8165 28.6045 95.2221 28.6045 94.4886V90.2557C28.6045 89.0294 28.8759 87.8471 29.4115 86.741C29.7311 86.081 29.455 85.2867 28.7948 84.9673Z" fill="white"/>
</g>
<defs>
<clipPath id="clip0">
<rect width="90.8205" height="90.8205" fill="white" transform="translate(25.9487 17.6921)"/>
</clipPath>
</defs>
</svg>
