<svg width="61" height="61" viewBox="0 0 61 61" fill="none" xmlns="http://www.w3.org/2000/svg">
<path d="M7.11093 57.3133C7.1367 57.5129 7.23563 57.6958 7.38856 57.8267C7.54148 57.9575 7.73752 58.027 7.93872 58.0216H18.6614C18.7899 58.0273 18.918 58.002 19.0347 57.9476C19.1513 57.8933 19.2532 57.8116 19.3315 57.7095C19.4099 57.6074 19.4624 57.4879 19.4847 57.3612C19.507 57.2345 19.4984 57.1042 19.4596 56.9815L18.0878 52.4882L22.3615 49.789C22.9105 49.4876 23.5534 49.4056 24.1605 49.5595C24.1777 49.5639 24.1951 49.5684 24.2126 49.5714L33.1373 51.2156C35.5981 51.6559 38.1353 51.2978 40.3781 50.1935C40.4135 50.1761 40.4476 50.1562 40.4801 50.1339L55.9156 39.5357C56.0908 39.4154 56.2134 39.2328 56.2585 39.0251C56.3036 38.8174 56.2676 38.6003 56.158 38.4182C55.5742 37.4456 54.6377 36.7358 53.5435 36.4366C52.4494 36.1373 51.2819 36.2717 50.2844 36.8117L50.1407 36.8893C49.0172 35.6208 47.1503 35.1469 45.718 35.8731L45.6994 35.8829L45.178 36.1637C44.4113 35.5451 43.4755 35.1728 42.4934 35.0956C41.5113 35.0184 40.5288 35.24 39.6749 35.7312L36.3702 37.5294H31.962C31.0236 37.5279 30.0975 37.3153 29.2524 36.9075L28.6404 36.6109C26.8694 35.7492 24.8946 35.3944 22.9345 35.5858C20.9744 35.7771 19.1055 36.5072 17.5347 37.6951C17.5163 37.7089 17.4989 37.7232 17.4815 37.7384L16.0035 39.0544C15.5057 39.4971 14.9238 39.835 14.2926 40.0479L13.502 37.43C13.4511 37.2563 13.3465 37.1032 13.2032 36.9926C13.0599 36.882 12.8853 36.8197 12.7043 36.8146H5.5559C5.43626 36.8192 5.3189 36.8488 5.21137 36.9015C5.10384 36.9541 5.0085 37.0287 4.93149 37.1204C4.8532 37.2087 4.79458 37.3127 4.75951 37.4254C4.72445 37.5382 4.71375 37.6571 4.72811 37.7742L7.11093 57.3133ZM46.4807 37.3572C47.1573 37.0197 47.9938 37.2468 48.5947 37.724L42.9565 40.7657L42.782 40.8578C42.6191 40.4446 42.4044 40.0537 42.1429 39.6945L46.4807 37.3572ZM40.4815 37.1904C40.4882 37.1869 40.4948 37.1832 40.5013 37.1795C40.9548 36.9171 41.4655 36.7696 41.9891 36.7497C42.5126 36.7299 43.0331 36.8383 43.5052 37.0655L40.896 38.4713C40.4499 38.1591 39.9579 37.9185 39.4376 37.7581L40.4815 37.1904ZM17.1125 40.3L18.5644 39.0075C19.8898 38.0127 21.4639 37.4028 23.1135 37.2448C24.7632 37.0868 26.4244 37.3869 27.9145 38.112L28.5267 38.409C29.5982 38.9259 30.7723 39.1954 31.962 39.1974H37.8985C38.695 39.1982 39.4685 39.4642 40.097 39.9533C40.7255 40.4425 41.1732 41.127 41.3696 41.8989L37.2861 41.7136C35.7116 41.6424 34.1339 41.7152 32.5726 41.931C32.3562 41.9645 32.1617 42.0816 32.0309 42.2572C31.9002 42.4328 31.8437 42.6528 31.8737 42.8697C31.9038 43.0865 32.0179 43.2829 32.1914 43.4164C32.365 43.5498 32.584 43.6097 32.8013 43.5831C34.2619 43.3812 35.7378 43.3131 37.2107 43.3793L42.2742 43.6084C42.2861 43.6084 42.2994 43.6093 42.3119 43.6093C42.533 43.6093 42.7452 43.5214 42.9016 43.365C43.058 43.2086 43.1458 42.9965 43.1458 42.7753C43.1458 42.7009 43.1433 42.6271 43.1404 42.5534L43.7407 42.2369L51.0762 38.2795C51.5772 38.0081 52.1504 37.8998 52.7159 37.9696C53.2814 38.0393 53.8111 38.2837 54.2312 38.6687L39.5857 48.7242C37.6773 49.6503 35.5247 49.9481 33.4366 49.5749L24.5392 47.9365C23.5199 47.6863 22.4437 47.8328 21.5284 48.3463C21.5154 48.3537 21.5024 48.3613 21.4899 48.3693L17.5821 50.8397L14.7787 41.6445C15.6404 41.3608 16.4348 40.9032 17.1125 40.3001V40.3ZM12.0867 38.4825L17.5353 56.3536H8.67715L6.49771 38.4825H12.0867Z" fill="#D31A2C"/>
<path d="M12.7383 56.082C13.186 56.082 13.6237 55.9493 13.9959 55.7005C14.3682 55.4518 14.6583 55.0983 14.8296 54.6846C15.001 54.271 15.0458 53.8159 14.9585 53.3767C14.8711 52.9376 14.6555 52.5343 14.3389 52.2177C14.0224 51.9011 13.619 51.6855 13.1799 51.5982C12.7408 51.5108 12.2856 51.5557 11.872 51.727C11.4584 51.8983 11.1048 52.1885 10.8561 52.5607C10.6074 52.933 10.4746 53.3707 10.4746 53.8184C10.4753 54.4185 10.714 54.9939 11.1384 55.4183C11.5628 55.8426 12.1381 56.0813 12.7383 56.082ZM12.7383 53.2227C12.8561 53.2227 12.9713 53.2576 13.0692 53.3231C13.1672 53.3885 13.2436 53.4815 13.2886 53.5904C13.3337 53.6992 13.3455 53.819 13.3225 53.9346C13.2996 54.0501 13.2428 54.1563 13.1595 54.2396C13.0762 54.3229 12.9701 54.3796 12.8545 54.4026C12.7389 54.4256 12.6192 54.4138 12.5103 54.3687C12.4015 54.3236 12.3084 54.2473 12.243 54.1493C12.1775 54.0514 12.1426 53.9362 12.1426 53.8184C12.1428 53.6604 12.2056 53.509 12.3173 53.3973C12.4289 53.2857 12.5803 53.2228 12.7383 53.2227Z" fill="#D31A2C"/>
<path d="M17.3145 19.6396L19.5774 19.8577C19.8344 20.7895 20.2108 21.6842 20.6973 22.5194L19.2602 24.2548C19.1275 24.4148 19.0594 24.6185 19.0691 24.8261C19.0789 25.0337 19.1657 25.2301 19.3127 25.377L22.0265 28.0908C22.1733 28.2377 22.3697 28.3245 22.5771 28.3342C22.7846 28.344 22.9882 28.2759 23.1482 28.1435L24.8876 26.7025C25.7222 27.1877 26.6149 27.565 27.5445 27.8255L27.7626 30.0964C27.7824 30.3037 27.8783 30.4962 28.0318 30.6368C28.1853 30.7774 28.3856 30.856 28.5938 30.8575H32.4413C32.6494 30.8558 32.8494 30.777 33.0028 30.6363C33.1561 30.4957 33.2518 30.3031 33.2714 30.096L33.4896 27.8293C34.4214 27.5718 35.3161 27.1948 36.1512 26.7077L37.8867 28.144C38.0467 28.2763 38.2504 28.3442 38.4578 28.3344C38.6652 28.3246 38.8615 28.2377 39.0083 28.0908L41.7217 25.377C41.8687 25.2302 41.9555 25.0338 41.9653 24.8263C41.975 24.6188 41.907 24.4152 41.7745 24.2552L40.3329 22.515C40.8183 21.6802 41.1957 20.7872 41.4562 19.8574L43.686 19.6397C43.8922 19.6196 44.0835 19.5234 44.2227 19.37C44.3619 19.2166 44.439 19.0168 44.439 18.8096V14.962C44.439 14.7547 44.3618 14.5548 44.2224 14.4013C44.083 14.2478 43.8914 14.1517 43.6851 14.1318L41.4221 13.9138C41.1652 12.982 40.7887 12.0873 40.3022 11.2521L41.7394 9.51655C41.8712 9.35732 41.9392 9.15479 41.9302 8.94825C41.9212 8.74172 41.8358 8.54589 41.6905 8.39877L39.0116 5.68487C38.8651 5.53657 38.6683 5.44853 38.4601 5.4381C38.2519 5.42767 38.0473 5.4956 37.8867 5.62851L36.1473 7.07011C35.3127 6.5849 34.42 6.20755 33.4904 5.94709L33.2723 3.70844C33.2514 3.50433 33.1541 3.31567 32.9999 3.18031C32.8457 3.04495 32.646 2.97289 32.4409 2.97859H28.5938C28.3889 2.97318 28.1897 3.04529 28.0357 3.18051C27.8818 3.31572 27.7846 3.50405 27.7636 3.70785L27.5453 5.95829C26.6138 6.21308 25.7191 6.58739 24.8837 7.0719L23.1481 5.63161C22.9883 5.49894 22.7848 5.43065 22.5773 5.44011C22.3699 5.44956 22.1734 5.53607 22.0264 5.68272L19.3127 8.39567C19.166 8.54249 19.0792 8.73876 19.0695 8.9461C19.0598 9.15345 19.1277 9.35698 19.26 9.51691L20.7016 11.2564C20.2164 12.0909 19.8391 12.9836 19.5786 13.9132L17.3149 14.1313C17.1084 14.1511 16.9167 14.2472 16.7772 14.4008C16.6377 14.5544 16.5604 14.7545 16.5605 14.962V18.8094C16.5605 19.0167 16.6378 19.2166 16.7771 19.3701C16.9165 19.5236 17.1081 19.6197 17.3145 19.6396ZM18.2285 15.7195L20.3254 15.5169C20.5014 15.5 20.6674 15.4275 20.7995 15.3099C20.9317 15.1924 21.023 15.0359 21.0604 14.8631C21.3165 13.7138 21.7783 12.6203 22.4237 11.6353C22.5198 11.4864 22.5659 11.3107 22.5554 11.1338C22.5449 10.9569 22.4783 10.7879 22.3653 10.6514L21.0289 9.03748L22.669 7.39739L24.2826 8.73379C24.4208 8.84825 24.5922 8.91509 24.7714 8.92441C24.9505 8.93372 25.1279 8.88501 25.2772 8.7855C26.2563 8.1377 27.3475 7.67785 28.4949 7.42944C28.6659 7.39746 28.822 7.311 28.9399 7.18297C29.0577 7.05495 29.131 6.89223 29.1487 6.71913L29.3512 4.64608H31.684L31.8866 6.71913C31.9039 6.89369 31.9768 7.05808 32.0945 7.18817C32.2121 7.31825 32.3684 7.40716 32.5404 7.44183C33.6897 7.69541 34.7836 8.15505 35.7691 8.79849C35.9184 8.89417 36.0943 8.93978 36.2712 8.9287C36.4482 8.91763 36.617 8.85044 36.7532 8.73689L38.3632 7.40252L39.9757 9.03474L38.6347 10.6512C38.5203 10.7894 38.4535 10.9608 38.4443 11.1399C38.435 11.319 38.4837 11.4964 38.5832 11.6456C39.2309 12.6247 39.6907 13.7158 39.9392 14.8631C39.9765 15.0359 40.0679 15.1924 40.2 15.3099C40.3321 15.4275 40.4981 15.5 40.6741 15.5169L42.771 15.7195V18.0529L40.7071 18.2543C40.5313 18.2715 40.3655 18.344 40.2335 18.4615C40.1016 18.579 40.0103 18.7354 39.973 18.908C39.7172 20.0577 39.2555 21.1516 38.6101 22.1368C38.514 22.2857 38.4679 22.4614 38.4784 22.6384C38.4889 22.8153 38.5555 22.9843 38.6685 23.1209L40.0055 24.7337L38.3654 26.3738L36.7517 25.0374C36.6135 24.9229 36.4421 24.8561 36.2629 24.8467C36.0838 24.8374 35.9064 24.8861 35.7571 24.9857C34.778 25.6336 33.6869 26.0936 32.5395 26.3421C32.3661 26.3811 32.2095 26.4739 32.0921 26.6073C31.9746 26.7407 31.9024 26.9078 31.8856 27.0847L31.6835 29.1895H29.3508L29.1482 27.0847C29.1313 26.9082 29.0589 26.7417 28.9414 26.609C28.824 26.4763 28.6675 26.3842 28.4944 26.346C27.3449 26.0895 26.2512 25.6271 25.2663 24.9814C25.1174 24.8851 24.9418 24.8388 24.7648 24.8492C24.5879 24.8595 24.4188 24.926 24.2822 25.0389L22.6685 26.3748L21.0289 24.7337L22.3653 23.1199C22.4798 22.9817 22.5466 22.8103 22.5559 22.6311C22.5651 22.4519 22.5164 22.2745 22.4168 22.1252C21.7691 21.1461 21.3093 20.055 21.0608 18.9077C21.0235 18.7349 20.9321 18.5784 20.8 18.4609C20.6679 18.3433 20.5019 18.2708 20.3259 18.2538L18.229 18.0513L18.2285 15.7195Z" fill="#D31A2C"/>
<path d="M30.5173 25.2102C32.1639 25.2102 33.7734 24.722 35.1424 23.8072C36.5115 22.8924 37.5785 21.5922 38.2086 20.071C38.8387 18.5499 39.0035 16.876 38.6823 15.2611C38.3611 13.6462 37.5682 12.1628 36.4039 10.9986C35.2396 9.83433 33.7563 9.04146 32.1414 8.72025C30.5265 8.39905 28.8526 8.56393 27.3314 9.19404C25.8102 9.82415 24.5101 10.8912 23.5953 12.2602C22.6806 13.6293 22.1924 15.2389 22.1924 16.8854C22.1949 19.0925 23.0728 21.2085 24.6335 22.7692C26.1942 24.3299 28.3102 25.2077 30.5173 25.2102ZM30.5173 10.2284C31.834 10.2284 33.121 10.6188 34.2158 11.3503C35.3105 12.0818 36.1637 13.1215 36.6676 14.3379C37.1714 15.5543 37.3033 16.8928 37.0464 18.1841C36.7895 19.4754 36.1555 20.6616 35.2245 21.5926C34.2935 22.5236 33.1074 23.1576 31.816 23.4144C30.5247 23.6713 29.1862 23.5395 27.9698 23.0356C26.7534 22.5318 25.7137 21.6785 24.9823 20.5838C24.2508 19.4891 23.8604 18.202 23.8604 16.8854C23.8625 15.1205 24.5645 13.4286 25.8125 12.1806C27.0605 10.9327 28.7525 10.2308 30.5173 10.2288V10.2284Z" fill="#D31A2C"/>
<path d="M29.0293 19.4312C29.1851 19.5833 29.3942 19.6684 29.6119 19.6684C29.8296 19.6684 30.0387 19.5833 30.1945 19.4312L34.1864 15.5337C34.2657 15.4574 34.3291 15.3662 34.373 15.2653C34.4169 15.1644 34.4404 15.0558 34.4422 14.9458C34.4439 14.8358 34.4239 14.7265 34.3832 14.6242C34.3425 14.522 34.282 14.4288 34.2051 14.3501C34.1282 14.2713 34.0365 14.2086 33.9353 14.1654C33.8341 14.1223 33.7253 14.0996 33.6153 14.0987C33.5052 14.0977 33.3961 14.1186 33.2942 14.1601C33.1922 14.2015 33.0995 14.2627 33.0213 14.3402L29.6119 17.6686L27.9786 16.074C27.9004 15.9966 27.8077 15.9354 27.7057 15.8939C27.6038 15.8525 27.4947 15.8316 27.3846 15.8325C27.2746 15.8334 27.1658 15.8561 27.0646 15.8993C26.9634 15.9424 26.8717 16.0052 26.7948 16.0839C26.7179 16.1627 26.6574 16.2558 26.6167 16.3581C26.576 16.4603 26.556 16.5696 26.5577 16.6796C26.5595 16.7897 26.583 16.8983 26.6269 16.9992C26.6708 17.1001 26.7342 17.1913 26.8135 17.2676L29.0293 19.4312Z" fill="#D31A2C"/>
</svg>
