<svg width="181" height="222" viewBox="0 0 181 222" fill="none" xmlns="http://www.w3.org/2000/svg">
<path d="M67.2422 117H55.5469V114.68L61.0664 108.797C61.8242 107.969 62.3828 107.246 62.7422 106.629C63.1094 106.012 63.293 105.426 63.293 104.871C63.293 104.113 63.1016 103.52 62.7188 103.09C62.3359 102.652 61.7891 102.434 61.0781 102.434C60.3125 102.434 59.707 102.699 59.2617 103.23C58.8242 103.754 58.6055 104.445 58.6055 105.305H55.207C55.207 104.266 55.4531 103.316 55.9453 102.457C56.4453 101.598 57.1484 100.926 58.0547 100.441C58.9609 99.9492 59.9883 99.7031 61.1367 99.7031C62.8945 99.7031 64.2578 100.125 65.2266 100.969C66.2031 101.812 66.6914 103.004 66.6914 104.543C66.6914 105.387 66.4727 106.246 66.0352 107.121C65.5977 107.996 64.8477 109.016 63.7852 110.18L59.9062 114.27H67.2422V117ZM83.168 113.004L86.4844 104.32H90.7266V117H87.3398V109.219L84.3047 117H82.0312L79.0547 109.348V117H75.668V104.32H79.875L83.168 113.004ZM104.707 104.32V117H101.32V107.062H98.332L98.1211 110.977C97.9883 113.062 97.5781 114.582 96.8906 115.535C96.2031 116.488 95.1797 116.977 93.8203 117H92.6719L92.6367 114.246L93.0586 114.211C93.668 114.164 94.1133 113.805 94.3945 113.133C94.6758 112.461 94.8516 111.316 94.9219 109.699L95.1562 104.32H104.707ZM118.312 117H114.914V112.125H110.707V117H107.32V104.32H110.707V109.406H114.914V104.32H118.312V117ZM27.7852 145H24.3867V135.062H20.1445V145H16.7578V132.32H27.7852V145ZM29.8477 138.543C29.8477 137.285 30.0898 136.164 30.5742 135.18C31.0586 134.195 31.7539 133.434 32.6602 132.895C33.5742 132.355 34.6328 132.086 35.8359 132.086C37.5469 132.086 38.9414 132.609 40.0195 133.656C41.1055 134.703 41.7109 136.125 41.8359 137.922L41.8594 138.789C41.8594 140.734 41.3164 142.297 40.2305 143.477C39.1445 144.648 37.6875 145.234 35.8594 145.234C34.0312 145.234 32.5703 144.648 31.4766 143.477C30.3906 142.305 29.8477 140.711 29.8477 138.695V138.543ZM33.2344 138.789C33.2344 139.992 33.4609 140.914 33.9141 141.555C34.3672 142.188 35.0156 142.504 35.8594 142.504C36.6797 142.504 37.3203 142.191 37.7812 141.566C38.2422 140.934 38.4727 139.926 38.4727 138.543C38.4727 137.363 38.2422 136.449 37.7812 135.801C37.3203 135.152 36.6719 134.828 35.8359 134.828C35.0078 134.828 34.3672 135.152 33.9141 135.801C33.4609 136.441 33.2344 137.438 33.2344 138.789ZM49.2188 142.504C49.8438 142.504 50.3516 142.332 50.7422 141.988C51.1328 141.645 51.3359 141.188 51.3516 140.617H54.5273C54.5195 141.477 54.2852 142.266 53.8242 142.984C53.3633 143.695 52.7305 144.25 51.9258 144.648C51.1289 145.039 50.2461 145.234 49.2773 145.234C47.4648 145.234 46.0352 144.66 44.9883 143.512C43.9414 142.355 43.418 140.762 43.418 138.73V138.508C43.418 136.555 43.9375 134.996 44.9766 133.832C46.0156 132.668 47.4414 132.086 49.2539 132.086C50.8398 132.086 52.1094 132.539 53.0625 133.445C54.0234 134.344 54.5117 135.543 54.5273 137.043H51.3516C51.3359 136.387 51.1328 135.855 50.7422 135.449C50.3516 135.035 49.8359 134.828 49.1953 134.828C48.4062 134.828 47.8086 135.117 47.4023 135.695C47.0039 136.266 46.8047 137.195 46.8047 138.484V138.836C46.8047 140.141 47.0039 141.078 47.4023 141.648C47.8008 142.219 48.4062 142.504 49.2188 142.504ZM62.2969 145.234C60.4375 145.234 58.9219 144.664 57.75 143.523C56.5859 142.383 56.0039 140.863 56.0039 138.965V138.637C56.0039 137.363 56.25 136.227 56.7422 135.227C57.2344 134.219 57.9297 133.445 58.8281 132.906C59.7344 132.359 60.7656 132.086 61.9219 132.086C63.6562 132.086 65.0195 132.633 66.0117 133.727C67.0117 134.82 67.5117 136.371 67.5117 138.379V139.762H59.4375C59.5469 140.59 59.875 141.254 60.4219 141.754C60.9766 142.254 61.6758 142.504 62.5195 142.504C63.8242 142.504 64.8438 142.031 65.5781 141.086L67.2422 142.949C66.7344 143.668 66.0469 144.23 65.1797 144.637C64.3125 145.035 63.3516 145.234 62.2969 145.234ZM61.9102 134.828C61.2383 134.828 60.6914 135.055 60.2695 135.508C59.8555 135.961 59.5898 136.609 59.4727 137.453H64.1836V137.184C64.168 136.434 63.9648 135.855 63.5742 135.449C63.1836 135.035 62.6289 134.828 61.9102 134.828ZM79.8281 135.039H75.7617V145H72.3633V135.039H68.3672V132.32H79.8281V135.039ZM89.1797 132.32H92.5664V145H89.1797V137.172L84.9375 145H81.5391V132.32H84.9375V140.137L89.1797 132.32ZM105.68 135.039H101.613V145H98.2148V135.039H94.2188V132.32H105.68V135.039ZM112.477 145.234C110.617 145.234 109.102 144.664 107.93 143.523C106.766 142.383 106.184 140.863 106.184 138.965V138.637C106.184 137.363 106.43 136.227 106.922 135.227C107.414 134.219 108.109 133.445 109.008 132.906C109.914 132.359 110.945 132.086 112.102 132.086C113.836 132.086 115.199 132.633 116.191 133.727C117.191 134.82 117.691 136.371 117.691 138.379V139.762H109.617C109.727 140.59 110.055 141.254 110.602 141.754C111.156 142.254 111.855 142.504 112.699 142.504C114.004 142.504 115.023 142.031 115.758 141.086L117.422 142.949C116.914 143.668 116.227 144.23 115.359 144.637C114.492 145.035 113.531 145.234 112.477 145.234ZM112.09 134.828C111.418 134.828 110.871 135.055 110.449 135.508C110.035 135.961 109.77 136.609 109.652 137.453H114.363V137.184C114.348 136.434 114.145 135.855 113.754 135.449C113.363 135.035 112.809 134.828 112.09 134.828ZM130.652 132.32V145H127.266V135.062H124.277L124.066 138.977C123.934 141.062 123.523 142.582 122.836 143.535C122.148 144.488 121.125 144.977 119.766 145H118.617L118.582 142.246L119.004 142.211C119.613 142.164 120.059 141.805 120.34 141.133C120.621 140.461 120.797 139.316 120.867 137.699L121.102 132.32H130.652ZM139.102 145.234C137.242 145.234 135.727 144.664 134.555 143.523C133.391 142.383 132.809 140.863 132.809 138.965V138.637C132.809 137.363 133.055 136.227 133.547 135.227C134.039 134.219 134.734 133.445 135.633 132.906C136.539 132.359 137.57 132.086 138.727 132.086C140.461 132.086 141.824 132.633 142.816 133.727C143.816 134.82 144.316 136.371 144.316 138.379V139.762H136.242C136.352 140.59 136.68 141.254 137.227 141.754C137.781 142.254 138.48 142.504 139.324 142.504C140.629 142.504 141.648 142.031 142.383 141.086L144.047 142.949C143.539 143.668 142.852 144.23 141.984 144.637C141.117 145.035 140.156 145.234 139.102 145.234ZM138.715 134.828C138.043 134.828 137.496 135.055 137.074 135.508C136.66 135.961 136.395 136.609 136.277 137.453H140.988V137.184C140.973 136.434 140.77 135.855 140.379 135.449C139.988 135.035 139.434 134.828 138.715 134.828ZM153.891 132.32H157.277V145H153.891V137.172L149.648 145H146.25V132.32H149.648V140.137L153.891 132.32ZM155.883 127.176C155.883 128.215 155.508 129.055 154.758 129.695C154.016 130.336 153.039 130.656 151.828 130.656C150.617 130.656 149.637 130.34 148.887 129.707C148.145 129.074 147.773 128.23 147.773 127.176H150.176C150.176 127.668 150.32 128.051 150.609 128.324C150.906 128.59 151.312 128.723 151.828 128.723C152.336 128.723 152.734 128.59 153.023 128.324C153.312 128.051 153.457 127.668 153.457 127.176H155.883ZM65.4385 169V161.604H68.3232C69.3076 161.604 70.0618 161.777 70.5859 162.123C71.1146 162.465 71.3789 162.968 71.3789 163.634C71.3789 163.976 71.2764 164.285 71.0713 164.563C70.8662 164.837 70.5632 165.047 70.1621 165.192C70.6087 165.297 70.9665 165.502 71.2354 165.808C71.5088 166.113 71.6455 166.478 71.6455 166.901C71.6455 167.58 71.3949 168.1 70.8936 168.46C70.3968 168.82 69.6927 169 68.7812 169H65.4385ZM66.7031 165.753V167.981H68.7949C69.3236 167.981 69.7178 167.883 69.9775 167.688C70.2419 167.492 70.374 167.216 70.374 166.86C70.374 166.122 69.8317 165.753 68.7471 165.753H66.7031ZM66.7031 164.741H68.3369C69.5218 164.741 70.1143 164.395 70.1143 163.702C70.1143 163.009 69.5537 162.652 68.4326 162.629H66.7031V164.741ZM79.7598 168.104C80.2109 168.104 80.6051 167.968 80.9424 167.694C81.2796 167.421 81.4665 167.079 81.5029 166.669H82.6992C82.6764 167.093 82.5306 167.496 82.2617 167.879C81.9928 168.262 81.6328 168.567 81.1816 168.795C80.735 169.023 80.2611 169.137 79.7598 169.137C78.7526 169.137 77.9505 168.802 77.3535 168.132C76.7611 167.457 76.4648 166.537 76.4648 165.37V165.158C76.4648 164.438 76.597 163.798 76.8613 163.237C77.1257 162.677 77.5039 162.242 77.9961 161.932C78.4928 161.622 79.0785 161.467 79.7529 161.467C80.5824 161.467 81.2705 161.715 81.8174 162.212C82.3688 162.709 82.6628 163.354 82.6992 164.146H81.5029C81.4665 163.668 81.2842 163.276 80.9561 162.971C80.6325 162.661 80.2314 162.506 79.7529 162.506C79.1104 162.506 78.6113 162.738 78.2559 163.203C77.9049 163.663 77.7295 164.331 77.7295 165.206V165.445C77.7295 166.298 77.9049 166.954 78.2559 167.414C78.6068 167.874 79.1081 168.104 79.7598 168.104ZM86.541 167.147L88.2637 161.604H89.6172L86.6436 170.142C86.1833 171.372 85.4518 171.987 84.4492 171.987L84.21 171.967L83.7383 171.878V170.853L84.0801 170.88C84.5085 170.88 84.8411 170.793 85.0781 170.62C85.3197 170.447 85.5179 170.13 85.6729 169.67L85.9531 168.918L83.3145 161.604H84.6953L86.541 167.147ZM96.248 162.629H93.7666V169H92.502V162.629H90.0684V161.604H96.248V162.629ZM99.7822 165.849H98.8594V169H97.5879V161.604H98.8594V164.734H99.6865L102.175 161.604H103.706L100.78 165.158L103.952 169H102.346L99.7822 165.849ZM109.824 161.604H111.089V169H109.824V163.606L106.413 169H105.148V161.604H106.413V167.004L109.824 161.604Z" fill="#323232"/>
<path d="M121.754 52.4177L121.341 52.6427C119.673 50.5987 116.783 49.8067 114.58 50.9334C114.573 50.9373 114.565 50.9415 114.557 50.9455L113.582 51.4755C112.419 50.4815 110.981 49.8738 109.464 49.7354C107.946 49.597 106.423 49.9346 105.103 50.7021L99.8529 53.5849H92.8666C91.3539 53.5829 89.861 53.2375 88.4983 52.5743L87.5372 52.105C84.8011 50.7609 81.7498 50.2075 78.7214 50.5061C75.693 50.8047 72.8055 51.9437 70.3786 53.7969C70.3558 53.8145 70.3335 53.832 70.3123 53.8519L67.9919 55.9374C67.1151 56.7237 66.0786 57.307 64.955 57.6465L63.6372 53.279C63.5719 53.0629 63.4395 52.8736 63.2596 52.7391C63.0797 52.6046 62.8618 52.532 62.638 52.532H51.4162C51.2684 52.532 51.1222 52.5637 50.9874 52.6249C50.8526 52.6862 50.7322 52.7757 50.6341 52.8874C50.5361 52.9992 50.4627 53.1307 50.4188 53.2732C50.3748 53.4158 50.3614 53.5661 50.3793 53.7143L54.1198 84.6799C54.1507 84.9356 54.2732 85.1711 54.4642 85.3419C54.6552 85.5127 54.9016 85.607 55.1568 85.607H71.9884C72.1516 85.607 72.3126 85.5683 72.4584 85.4942C72.6042 85.42 72.7307 85.3124 72.8279 85.1799C72.925 85.0475 72.9901 84.8939 73.0178 84.7315C73.0456 84.569 73.0352 84.4023 72.9876 84.2447L70.7764 76.9192L77.6631 72.5246C78.5845 72.0099 79.6655 71.8686 80.6864 72.1296C80.708 72.1351 80.7298 72.14 80.7517 72.1439L94.7602 74.7483C98.5672 75.436 102.492 74.8765 105.962 73.1515C106.006 73.1294 106.049 73.1041 106.09 73.0759L130.319 56.2796C130.538 56.1275 130.692 55.8964 130.749 55.6337C130.805 55.371 130.76 55.0965 130.623 54.8662C129.741 53.3837 128.327 52.3018 126.675 51.8457C125.023 51.3896 123.26 51.5945 121.754 52.4177ZM115.536 52.8094C116.809 52.1655 118.412 52.6933 119.437 53.68L110.249 58.6845L109.709 58.9715C109.418 58.1375 108.993 57.3577 108.45 56.6634L115.536 52.8094ZM106.114 52.5483C106.122 52.5436 106.132 52.539 106.139 52.5341C106.962 52.0538 107.897 51.8053 108.848 51.8143C109.798 51.8233 110.729 52.0896 111.543 52.5854L106.871 55.1247C105.981 54.4685 104.964 54.0068 103.887 53.7689L106.114 52.5483ZM56.0809 83.4976L52.5962 54.6413H61.8637L70.5778 83.4976H56.0809ZM104.967 71.2929C101.917 72.7922 98.4738 73.2752 95.134 72.6725L81.16 70.0744C79.6229 69.6913 77.9991 69.9135 76.6184 70.6958C76.6022 70.7048 76.586 70.7146 76.5702 70.7248L70.143 74.827L65.564 59.6657C66.976 59.2361 68.2782 58.5008 69.3799 57.5111L71.6675 55.4545C73.7869 53.8458 76.3051 52.8589 78.9445 52.6025C81.5839 52.3462 84.2421 52.8304 86.6265 54.0017L87.5873 54.471C89.2338 55.2722 91.0377 55.6895 92.8654 55.692H102.184C103.554 55.6939 104.88 56.1774 105.935 57.0592C106.99 57.941 107.708 59.1662 107.965 60.5242L101.21 60.2157C98.7549 60.1043 96.2944 60.2191 93.8596 60.5587C93.5873 60.5995 93.3419 60.7472 93.1769 60.9696C93.0118 61.1921 92.9404 61.4713 92.9782 61.7466C93.0159 62.0219 93.1598 62.271 93.3785 62.4398C93.5972 62.6086 93.8731 62.6834 94.1461 62.648C96.4547 62.3259 98.7876 62.2171 101.116 62.3232L109.065 62.6861C109.081 62.6861 109.097 62.6872 109.112 62.6872C109.389 62.6872 109.655 62.5761 109.851 62.3783C110.047 62.1805 110.157 61.9122 110.157 61.6325C110.157 61.4618 110.15 61.2927 110.139 61.1245L111.23 60.5444L122.747 54.2733C123.631 53.7897 124.649 53.6147 125.642 53.7754C126.635 53.9361 127.548 54.4236 128.239 55.162L104.967 71.2929Z" fill="#BC2A40"/>
<path d="M59.4016 79.1345C59.4016 79.7912 59.5945 80.4332 59.9559 80.9792C60.3173 81.5253 60.8309 81.9509 61.4319 82.2022C62.0329 82.4535 62.6941 82.5193 63.3321 82.3912C63.9701 82.263 64.5561 81.9468 65.0161 81.4824C65.476 81.018 65.7893 80.4264 65.9162 79.7823C66.0431 79.1381 65.978 78.4705 65.729 77.8638C65.4801 77.257 65.0586 76.7384 64.5177 76.3736C63.9768 76.0087 63.341 75.814 62.6905 75.814C61.8185 75.8149 60.9825 76.1651 60.366 76.7876C59.7494 77.4101 59.4026 78.2541 59.4016 79.1345ZM62.6905 77.9233C62.9278 77.9233 63.1597 77.9944 63.357 78.1274C63.5542 78.2605 63.708 78.4497 63.7988 78.671C63.8896 78.8923 63.9133 79.1358 63.867 79.3707C63.8208 79.6057 63.7065 79.8215 63.5387 79.9909C63.371 80.1602 63.1572 80.2756 62.9245 80.3223C62.6918 80.3691 62.4506 80.3451 62.2314 80.2534C62.0122 80.1617 61.8249 80.0065 61.6931 79.8073C61.5613 79.6082 61.4909 79.374 61.4909 79.1345C61.4914 78.8135 61.618 78.5058 61.8429 78.2788C62.0677 78.0519 62.3725 77.9241 62.6905 77.9237V77.9233Z" fill="#BC2A40"/>
<path d="M98.5147 15.874V12.3984C98.5048 10.2817 97.6651 8.25504 96.1791 6.76177C94.6931 5.2685 92.6818 4.43018 90.5852 4.43018C88.4886 4.43018 86.4773 5.2685 84.9913 6.76177C83.5053 8.25504 82.6656 10.2817 82.6558 12.3984V15.874C82.6656 17.9907 83.5053 20.0174 84.9913 21.5107C86.4773 23.0039 88.4886 23.8423 90.5852 23.8423C92.6818 23.8423 94.6931 23.0039 96.1791 21.5107C97.6651 20.0174 98.5048 17.9907 98.5147 15.874ZM84.745 15.874V12.3984C84.7535 10.8402 85.3725 9.34871 86.4668 8.24988C87.5611 7.15105 89.0418 6.53423 90.5852 6.53423C92.1286 6.53423 93.6093 7.15105 94.7036 8.24988C95.7979 9.34871 96.417 10.8402 96.4254 12.3984V15.874C96.417 17.4322 95.7979 18.9237 94.7036 20.0225C93.6093 21.1214 92.1286 21.7382 90.5852 21.7382C89.0418 21.7382 87.5611 21.1214 86.4668 20.0225C85.3725 18.9237 84.7535 17.4322 84.745 15.874Z" fill="#BC2A40"/>
<path d="M77.8038 45.602H103.367C103.644 45.602 103.909 45.4909 104.105 45.2931C104.301 45.0953 104.411 44.8271 104.411 44.5473V42.1265H121.911C122.188 42.1265 122.453 42.0154 122.649 41.8176C122.845 41.6198 122.955 41.3515 122.955 41.0718V34.2262C122.954 32.2175 122.196 30.2846 120.834 28.8201C119.472 27.3555 117.61 26.4693 115.624 26.3413C115.067 26.3 114.781 26.6562 114.548 26.9421C114.086 27.5123 113.501 27.9683 112.838 28.2756C112.175 28.5829 111.451 28.7333 110.721 28.7153C109.992 28.6973 109.276 28.5114 108.628 28.1718C107.981 27.8322 107.419 27.3479 106.985 26.7556C106.885 26.6194 106.754 26.5093 106.603 26.4349C106.453 26.3604 106.286 26.3238 106.118 26.328C104.761 26.3587 103.436 26.7491 102.276 27.4598C101.51 26.5603 100.572 25.8252 99.5197 25.298C98.467 24.7709 97.3202 24.4624 96.1472 24.3909C95.6075 24.3687 95.3345 24.6995 95.07 25.0237C94.5277 25.6928 93.8413 26.228 93.0631 26.5886C92.2848 26.9493 91.4353 27.1258 90.5793 27.1047C89.7232 27.0836 88.8833 26.8654 88.1234 26.4668C87.3635 26.0683 86.7038 25.4998 86.1945 24.8048C86.095 24.6684 85.9642 24.5582 85.8134 24.4838C85.6626 24.4094 85.4962 24.3728 85.3284 24.3773C83.0374 24.4308 80.8589 25.3903 79.2616 27.0492C79.1296 27.1854 79.0044 27.3266 78.8824 27.4698C77.8037 26.8068 76.5812 26.4193 75.3207 26.341C74.7655 26.2997 74.477 26.6558 74.2449 26.9418C73.7827 27.5119 73.1978 27.968 72.5346 28.2752C71.8714 28.5825 71.1475 28.7329 70.418 28.7149C69.6886 28.6969 68.9728 28.511 68.3253 28.1715C67.6777 27.8319 67.1155 27.3475 66.6815 26.7553C66.5816 26.6192 66.4508 26.5093 66.3 26.4348C66.1493 26.3604 65.9831 26.3236 65.8153 26.3276C63.7748 26.3801 61.8353 27.2352 60.4104 28.7107C58.9854 30.1862 58.1878 32.1654 58.1875 34.2262V41.0718C58.1875 41.3515 58.2976 41.6198 58.4935 41.8176C58.6894 42.0154 58.9551 42.1265 59.2321 42.1265H76.7592V44.5473C76.7592 44.8271 76.8692 45.0953 77.0651 45.2931C77.261 45.4909 77.5267 45.602 77.8038 45.602ZM105.672 28.4707C106.316 29.2088 107.108 29.8004 107.996 30.2065C108.883 30.6126 109.846 30.8239 110.82 30.8265C111.794 30.8291 112.758 30.6228 113.647 30.2214C114.537 29.82 115.332 29.2326 115.98 28.498C117.338 28.7049 118.578 29.3966 119.475 30.4476C120.371 31.4985 120.865 32.8391 120.866 34.2262V40.0171H104.411V33.2511C104.412 31.8466 104.081 30.4621 103.446 29.2127C104.128 28.8108 104.887 28.558 105.672 28.4707ZM84.8781 26.5187C85.6004 27.3629 86.4939 28.0407 87.4981 28.5061C88.5022 28.9715 89.5937 29.2137 90.6987 29.2164C91.8036 29.219 92.8962 28.982 93.9026 28.5214C94.9089 28.0608 95.8056 27.3874 96.5318 26.5466C98.1359 26.7706 99.6056 27.5727 100.67 28.8049C101.734 30.0371 102.321 31.6162 102.323 33.2511V43.4927H78.8484V33.2511C78.8588 31.5771 79.4792 29.9654 80.5913 28.7237C81.7035 27.482 83.2294 26.6971 84.8781 26.5187ZM60.2768 40.0171V34.2262C60.2856 32.8052 60.808 31.4363 61.7459 30.3766C62.6837 29.317 63.9725 28.6395 65.3701 28.4714C66.0142 29.2093 66.806 29.8007 67.6932 30.2066C68.5804 30.6125 69.5429 30.8237 70.517 30.8262C71.4911 30.8287 72.4546 30.6225 73.3439 30.2211C74.2331 29.8198 75.0279 29.2325 75.6757 28.498C76.395 28.6066 77.087 28.8531 77.7145 29.2243C77.0847 30.4713 76.7572 31.8514 76.7592 33.2511V40.0171H60.2768Z" fill="#BC2A40"/>
<path d="M117.794 19.016V15.9738C117.794 14.0805 117.049 12.2647 115.723 10.9259C114.397 9.58709 112.598 8.83496 110.723 8.83496C108.848 8.83496 107.049 9.58709 105.723 10.9259C104.397 12.2647 103.652 14.0805 103.652 15.9738V19.016C103.652 20.9094 104.397 22.7252 105.723 24.0639C107.049 25.4027 108.848 26.1549 110.723 26.1549C112.598 26.1549 114.397 25.4027 115.723 24.0639C117.049 22.7252 117.794 20.9094 117.794 19.016ZM105.741 19.016V15.9738C105.741 14.6399 106.266 13.3606 107.2 12.4174C108.135 11.4742 109.402 10.9443 110.723 10.9443C112.044 10.9443 113.311 11.4742 114.245 12.4174C115.18 13.3606 115.704 14.6399 115.704 15.9738V19.016C115.704 20.3499 115.18 21.6292 114.245 22.5724C113.311 23.5156 112.044 24.0455 110.723 24.0455C109.402 24.0455 108.135 23.5156 107.2 22.5724C106.266 21.6292 105.741 20.3499 105.741 19.016Z" fill="#BC2A40"/>
<path d="M77.4908 19.016V15.9738C77.4908 15.0363 77.3079 14.108 76.9526 13.2419C76.5972 12.3758 76.0764 11.5888 75.4198 10.9259C74.7632 10.263 73.9837 9.73713 73.1259 9.37837C72.268 9.01961 71.3485 8.83496 70.42 8.83496C69.4914 8.83496 68.5719 9.01961 67.7141 9.37837C66.8562 9.73713 66.0767 10.263 65.4201 10.9259C64.7635 11.5888 64.2427 12.3758 63.8874 13.2419C63.532 14.108 63.3491 15.0363 63.3491 15.9738V19.016C63.3491 19.9535 63.532 20.8818 63.8874 21.7479C64.2427 22.6141 64.7635 23.401 65.4201 24.0639C66.0767 24.7268 66.8562 25.2527 67.7141 25.6115C68.5719 25.9702 69.4914 26.1549 70.42 26.1549C71.3485 26.1549 72.268 25.9702 73.1259 25.6115C73.9837 25.2527 74.7632 24.7268 75.4198 24.0639C76.0764 23.401 76.5972 22.6141 76.9526 21.7479C77.3079 20.8818 77.4908 19.9535 77.4908 19.016ZM65.4384 19.016V15.9738C65.4384 14.6399 65.9632 13.3606 66.8975 12.4174C67.8317 11.4742 69.0988 10.9443 70.42 10.9443C71.7412 10.9443 73.0082 11.4742 73.9425 12.4174C74.8767 13.3606 75.4015 14.6399 75.4015 15.9738V19.016C75.4015 19.6765 75.2727 20.3305 75.0223 20.9407C74.772 21.5509 74.405 22.1054 73.9425 22.5724C73.4799 23.0394 72.9307 23.4099 72.3263 23.6626C71.7219 23.9154 71.0741 24.0455 70.42 24.0455C69.7658 24.0455 69.118 23.9154 68.5136 23.6626C67.9092 23.4099 67.3601 23.0394 66.8975 22.5724C66.4349 22.1054 66.068 21.5509 65.8176 20.9407C65.5673 20.3305 65.4384 19.6765 65.4384 19.016Z" fill="#BC2A40"/>
<path d="M142.849 59C165.354 75.2455 180 101.692 180 131.556C180 180.955 139.929 221 90.5 221C41.0705 221 1 180.955 1 131.556C1 101.692 15.6457 75.2455 38.1509 59" stroke="#323232"/>
</svg>
