<svg width="42" height="43" viewBox="0 0 42 43" fill="none" xmlns="http://www.w3.org/2000/svg">
<g clip-path="url(#clip0)">
<path d="M21.0074 0.469971C12.6048 0.468756 5.01069 5.43603 1.70344 13.0967L1.4417 13.1827L1.54318 13.4847C-2.81132 24.1359 2.36489 36.2712 13.1047 40.5898C15.613 41.5985 18.2944 42.1163 21.0012 42.1148C32.5968 42.1165 41.9982 32.7954 42 21.2955C42.0017 9.79564 32.6031 0.471619 21.0074 0.469971ZM37.4761 31.7907L36.398 30.7222V28.2332C36.3992 28.1258 36.3753 28.0196 36.328 27.9229L33.5986 22.5167V19.9042C33.5986 19.6722 33.4818 19.4555 33.2872 19.3267L31.1876 17.9386C31.023 17.8296 30.8197 17.7948 30.6277 17.8428L28.0565 18.48L23.7377 16.642L23.1435 12.5137L24.7902 10.8812H28.3252L29.5149 12.6546C29.6224 12.814 29.7917 12.9224 29.9825 12.9537L34.1816 13.6478C34.2941 13.6665 34.4094 13.6574 34.5175 13.6214L38.3849 12.3429C41.6286 18.5163 41.2817 25.9413 37.4761 31.7907ZM34.5896 7.30944L33.4516 8.06182L30.2792 7.43229L28.2209 6.75279C28.0949 6.71036 27.9593 6.70498 27.8304 6.73752L25.2283 7.38232L24.0876 7.00543L24.933 5.32853H27.2999C27.4085 5.32862 27.5156 5.30372 27.6127 5.25566L30.0342 4.0549C31.7018 4.91816 33.2359 6.01411 34.5896 7.30944ZM13.3357 3.40801L15.0154 4.51854C15.098 4.57303 15.1912 4.60947 15.289 4.62543L18.6805 5.18625L18.3495 6.16837L16.5823 6.75348C16.4241 6.80571 16.2898 6.91225 16.2037 7.05402L14.1937 10.3759L10.9653 12.2971L6.20631 12.9711C5.86137 13.0194 5.60487 13.312 5.60443 13.6575V15.7397C5.60443 15.9238 5.67827 16.1003 5.80949 16.2305L7.00414 17.4153V18.6077L4.09275 16.6823L3.03667 13.5402C5.04595 8.98703 8.72867 5.36393 13.3357 3.40801ZM11.3432 26.1648L8.17989 25.5367L7.00414 23.2108V21.5797L9.6118 18.9936L10.5769 20.9086C10.6954 21.1439 10.938 21.2925 11.2033 21.2924H15.7061L17.602 24.4262C17.7285 24.635 17.9562 24.7627 18.2018 24.7628H20.1474L19.6575 27.1969L17.0079 29.8247C16.8764 29.9548 16.8024 30.1312 16.8021 30.3154V32.0506L14.2826 33.9246C14.1064 34.0557 14.0027 34.2615 14.0027 34.4799V36.9869L13.1321 36.701L11.9031 33.6526V26.845C11.9032 26.5152 11.6691 26.2308 11.3432 26.1648ZM9.23947 36.8347C2.64081 31.925 -0.14977 23.442 2.25983 15.6176L2.84141 17.3472C2.8904 17.4936 2.98715 17.6197 3.11645 17.7054L6.60522 20.0118L5.80949 20.8017C5.67827 20.9318 5.60443 21.1083 5.60443 21.2924V23.3746C5.60434 23.4823 5.62945 23.5885 5.67792 23.6849L7.07762 26.4612C7.17455 26.6529 7.35538 26.7895 7.56752 26.8311L10.5069 27.4135V33.7858C10.5068 33.874 10.5237 33.9614 10.5566 34.0433L11.9563 37.5137C12.0329 37.7033 12.1899 37.8498 12.3853 37.9142L14.4849 38.6083C14.555 38.6319 14.6285 38.644 14.7025 38.6444C15.089 38.6444 15.4024 38.3336 15.4024 37.9503V34.827L17.9219 32.9529C18.0981 32.8218 18.2018 32.6161 18.2018 32.3977V30.6028L20.7962 28.0298C20.8937 27.9329 20.9602 27.8095 20.9872 27.6752L21.6871 24.2047C21.7628 23.8288 21.517 23.4632 21.138 23.3881C21.0929 23.3791 21.0472 23.3746 21.0012 23.3746H18.5979L16.702 20.2409C16.5755 20.032 16.3479 19.9043 16.1022 19.9042H11.6358L10.4334 17.5117C10.3327 17.312 10.1413 17.1725 9.91903 17.1369C9.69683 17.0988 9.46999 17.1715 9.31226 17.3313L8.40385 18.2287V17.1279C8.40385 16.9438 8.33001 16.7673 8.19879 16.6372L7.00414 15.4524V14.2593L11.3026 13.6506C11.3949 13.6373 11.4837 13.6059 11.5637 13.5582L15.063 11.476C15.1611 11.4175 15.2433 11.336 15.3023 11.2386L17.2689 7.98825L19.1228 7.37468C19.3322 7.30658 19.4964 7.14373 19.5651 6.93603L20.265 4.85378C20.3862 4.48982 20.187 4.09724 19.82 3.97699C19.7862 3.96588 19.7515 3.95738 19.7163 3.95148L15.6655 3.28169L14.9538 2.8111C19.3579 1.38945 24.1279 1.5654 28.4134 3.30737L27.1347 3.94037H24.5005C24.2339 3.9389 23.9898 4.08778 23.8706 4.3242L22.4709 7.10052C22.2985 7.44357 22.4391 7.86037 22.785 8.03137C22.8145 8.04595 22.8449 8.05844 22.8761 8.06876L24.9757 8.76284C25.1017 8.80527 25.2373 8.81065 25.3662 8.77811L27.9683 8.13331L29.8747 8.76284C29.902 8.77256 29.93 8.78002 29.9587 8.78506L33.4579 9.47914C33.6399 9.51592 33.8292 9.47896 33.9835 9.37641L35.5764 8.3228C36.3603 9.18875 37.0648 10.1223 37.6815 11.1123L34.2383 12.2506L30.5101 11.6343L29.2784 9.80188C29.1493 9.60988 28.9323 9.49415 28.6996 9.49302H24.5005C24.3149 9.49302 24.1369 9.56624 24.0057 9.69638L21.9061 11.7786C21.7502 11.9331 21.6768 12.1515 21.7081 12.3679L22.4079 17.2265C22.4432 17.4667 22.6024 17.6712 22.8278 17.7658L27.7268 19.848C27.8671 19.9083 28.0237 19.9207 28.1719 19.8834L30.6711 19.2636L32.1989 20.2756V22.6805C32.1977 22.788 32.2216 22.8942 32.2689 22.9908L34.9983 28.397V31.0095C34.9983 31.1936 35.0721 31.3701 35.2034 31.5002L36.6675 32.9529C30.1743 41.5364 17.8943 43.2743 9.23947 36.8347Z" fill="#CE1625"/>
</g>
<defs>
<clipPath id="clip0">
<rect width="42" height="41.6535" fill="white" transform="translate(0 0.465332)"/>
</clipPath>
</defs>
</svg>
