<svg width="40" height="40" viewBox="0 0 40 40" fill="none" xmlns="http://www.w3.org/2000/svg">
<circle cx="20" cy="20" r="20" fill="white"/>
<path d="M10.5068 21.4759H12.0925V30.0583H13.5927V21.4759H15.2078V20.0703H10.5068V21.4759Z" fill="#DD352E"/>
<path d="M23.1913 22.5256C22.6954 22.5256 22.2325 22.7965 21.7976 23.3325V20.0703H20.4492V30.0587H21.7976V29.3376C22.2489 29.8946 22.7113 30.1614 23.1913 30.1614C23.7278 30.1614 24.0887 29.879 24.2688 29.3249C24.3592 29.0094 24.4054 28.5139 24.4054 27.8252V24.8617C24.4054 24.1571 24.3592 23.6652 24.2688 23.3661C24.0891 22.8079 23.7274 22.5256 23.1913 22.5256ZM23.0563 27.9308C23.0563 28.6035 22.859 28.935 22.4695 28.935C22.2481 28.935 22.0226 28.829 21.7971 28.6031V24.0674C22.0226 23.8444 22.2481 23.7389 22.4695 23.7389C22.8586 23.7389 23.0563 24.0834 23.0563 24.7545V27.9308Z" fill="#DD352E"/>
<path d="M17.9331 28.3038C17.634 28.7265 17.3512 28.9348 17.0803 28.9348C16.9003 28.9348 16.7976 28.8288 16.7648 28.6193C16.7526 28.5759 16.7526 28.4114 16.7526 28.0955V22.6162H15.4038V28.5002C15.4038 29.026 15.4492 29.3812 15.5229 29.6071C15.6583 29.9844 15.9579 30.1612 16.3916 30.1612C16.888 30.1612 17.3971 29.8616 17.9331 29.247V30.0589H19.2827V22.6162H17.9331V28.3038Z" fill="#DD352E"/>
<path d="M19.0908 15.7404C19.5299 15.7404 19.7406 15.3921 19.7406 14.6965V11.5329C19.7406 10.8368 19.5299 10.4902 19.0908 10.4902C18.6513 10.4902 18.4402 10.8372 18.4402 11.5329V14.6965C18.4402 15.3925 18.6513 15.7404 19.0908 15.7404Z" fill="#DD352E"/>
<path d="M20 0C8.95427 0 0 8.95427 0 20C0 31.0457 8.95427 40 20 40C31.0457 40 40 31.0457 40 20C40 8.95427 31.0457 0 20 0ZM22.2245 9.35448H23.5834V14.8919C23.5834 15.2115 23.5834 15.3772 23.5998 15.4218C23.6297 15.6329 23.7369 15.741 23.9194 15.741C24.1919 15.741 24.478 15.5298 24.7804 15.103V9.35448H26.143V16.8753H24.7804V16.0552C24.2377 16.6772 23.7205 16.9788 23.2233 16.9788C22.7847 16.9788 22.4818 16.8008 22.3452 16.4203C22.2699 16.1923 22.2245 15.8326 22.2245 15.3019V9.35448ZM17.0774 11.8069C17.0774 11.0028 17.2141 10.4151 17.5038 10.035C17.8807 9.52061 18.4115 9.26363 19.0907 9.26363C19.7733 9.26363 20.3036 9.52061 20.6805 10.035C20.9661 10.4147 21.1028 11.0028 21.1028 11.8069V14.4405C21.1028 15.2401 20.9661 15.833 20.6805 16.2091C20.3036 16.7222 19.7733 16.9788 19.0907 16.9788C18.4115 16.9788 17.8807 16.7222 17.5038 16.2091C17.2141 15.833 17.0774 15.2397 17.0774 14.4405V11.8069ZM13.433 6.78302L14.506 10.7462L15.5368 6.78302H17.0652L15.2471 12.7881V16.8757H13.7363V12.7881C13.5992 12.0638 13.2968 11.0028 12.8119 9.59509C12.4935 8.65841 12.1616 7.71887 11.8433 6.78302H13.433ZM30.7666 30.7155C30.4933 31.9018 29.5231 32.7775 28.3548 32.908C25.5873 33.217 22.7879 33.2186 19.9988 33.217C17.2108 33.2186 14.4098 33.217 11.6432 32.908C10.4749 32.7775 9.50425 31.9022 9.23171 30.7155C8.84256 29.0259 8.84256 27.1808 8.84256 25.4408C8.84256 23.7009 8.84747 21.8562 9.23621 20.1661C9.50916 18.9794 10.479 18.1037 11.6473 17.9736C14.4143 17.6647 17.2149 17.663 20.0037 17.6647C22.7916 17.663 25.5922 17.6647 28.3593 17.9736C29.5276 18.1041 30.4982 18.9794 30.772 20.1661C31.1599 21.8562 31.1574 23.7009 31.1574 25.4408C31.1574 27.1808 31.1558 29.0259 30.7666 30.7155Z" fill="#DD352E"/>
<path d="M27.4865 22.5254C26.7966 22.5254 26.261 22.7787 25.8714 23.2882C25.5854 23.6646 25.4548 24.2465 25.4548 25.0416V27.6487C25.4548 28.4397 25.6009 29.0256 25.8882 29.3984C26.2773 29.9067 26.8146 30.1608 27.5201 30.1608C28.2243 30.1608 28.7772 29.8944 29.1504 29.3538C29.3141 29.1149 29.4205 28.8444 29.4655 28.5456C29.4782 28.4106 29.4941 28.1115 29.4941 27.6765V27.4805H28.1188C28.1188 28.0206 28.1012 28.3206 28.0893 28.3938C28.0124 28.7543 27.8184 28.9344 27.4865 28.9344C27.0233 28.9344 26.7966 28.5907 26.7966 27.9024V26.5823H29.4941V25.0408C29.4941 24.2457 29.3595 23.6638 29.0767 23.2873C28.6998 22.7791 28.1634 22.5254 27.4865 22.5254ZM28.1462 25.4602H26.7974V24.7715C26.7974 24.0832 27.0237 23.7391 27.4743 23.7391C27.9203 23.7391 28.1462 24.0837 28.1462 24.7715V25.4602Z" fill="#DD352E"/>
</svg>
